<svg xmlns="http://www.w3.org/2000/svg" width="222.802" height="187.557" viewBox="0 0 222.802 187.557">
  <g id="bases_operativas" transform="translate(-1332 -1643.499)">
    <g id="Grupo_5944" data-name="Grupo 5944" transform="translate(-2 -25.501)">
      <g id="Grupo_5942" data-name="Grupo 5942" transform="translate(396 219)" opacity="0.204">
        <g id="Rectángulo_2984" data-name="Rectángulo 2984" transform="translate(938 1450)" fill="none" stroke="#fff" stroke-width="1">
          <rect width="222.802" height="187.557" rx="5" stroke="none"/>
          <rect x="0.5" y="0.5" width="221.802" height="186.557" rx="4.5" fill="none"/>
        </g>
        <rect id="Rectángulo_3059" data-name="Rectángulo 3059" width="222.802" height="187.557" rx="5" transform="translate(938 1450)" fill="#fff" opacity="0.045"/>
      </g>
      <g id="Grupo_5943" data-name="Grupo 5943" transform="translate(-13778 1488.001)">
        <text id="_50_bases_operativas_entre_físicas_y_virtuales_" data-name="50 bases operativas, 
entre físicas y virtuales " transform="translate(15223 310.24)" fill="#fff" font-size="17" font-family="Montserrat-Regular, Montserrat"><tspan x="-87" y="0">50 bases operativas, </tspan><tspan x="-98" y="20">entre físicas y virtuales </tspan></text>
        <path id="hub_FILL0_wght400_GRAD0_opsz48" d="M15.77,62a7.4,7.4,0,0,1-5.425-2.258,7.688,7.688,0,0,1,0-10.884,7.454,7.454,0,0,1,5.425-2.224,7.183,7.183,0,0,1,1.651.168,7.969,7.969,0,0,1,1.449.505L24.6,40.166a11.09,11.09,0,0,1-1.954-3.538,8.593,8.593,0,0,1-.337-4.145L14.152,29.72a7.281,7.281,0,0,1-2.662,2.628,7.539,7.539,0,0,1-3.808.943,7.4,7.4,0,0,1-5.425-2.258,7.688,7.688,0,0,1,0-10.884,7.454,7.454,0,0,1,5.425-2.224,7.422,7.422,0,0,1,5.459,2.224,7.422,7.422,0,0,1,2.224,5.459v.27l8.222,2.83a9.4,9.4,0,0,1,2.932-3.3,11.278,11.278,0,0,1,3.808-1.617V15.1a7.34,7.34,0,0,1-4.145-2.9,7.734,7.734,0,0,1-1.516-4.515,7.365,7.365,0,0,1,2.258-5.459,7.77,7.77,0,0,1,10.884,0,7.422,7.422,0,0,1,2.224,5.459,7.624,7.624,0,0,1-1.55,4.515,7.49,7.49,0,0,1-4.111,2.9V23.79a11.646,11.646,0,0,1,3.841,1.617,9.266,9.266,0,0,1,2.965,3.3l8.155-2.83v-.27a7.365,7.365,0,0,1,2.258-5.459A7.666,7.666,0,0,1,64.7,25.609a7.454,7.454,0,0,1-2.224,5.425,7.365,7.365,0,0,1-5.459,2.258,7.727,7.727,0,0,1-3.841-.943,6.72,6.72,0,0,1-2.628-2.628L42.39,32.483a8.872,8.872,0,0,1-.3,4.145A10.008,10.008,0,0,1,40.1,40.166l5.728,7.144a7.968,7.968,0,0,1,1.449-.505,7.183,7.183,0,0,1,1.651-.168,7.7,7.7,0,0,1,5.459,13.108,7.717,7.717,0,0,1-12.771-7.851A9.086,9.086,0,0,1,42.66,49.8L36.931,42.66a9.874,9.874,0,0,1-9.233,0l-5.661,7.211a9.337,9.337,0,0,1,1.045,2.055,7.135,7.135,0,0,1,.371,2.392,7.454,7.454,0,0,1-2.224,5.425A7.365,7.365,0,0,1,15.77,62ZM7.683,29.248a3.639,3.639,0,1,0,0-7.278,3.639,3.639,0,1,0,0,7.278ZM15.77,57.958a3.639,3.639,0,1,0,0-7.278,3.639,3.639,0,1,0,0,7.278ZM32.349,11.322a3.569,3.569,0,0,0,3.639-3.639,3.639,3.639,0,1,0-7.278,0,3.569,3.569,0,0,0,3.639,3.639Zm.067,28.44a5.728,5.728,0,0,0,4.246-1.786,5.974,5.974,0,0,0,1.752-4.347,5.782,5.782,0,0,0-1.752-4.246,6.143,6.143,0,0,0-8.593,0,6.061,6.061,0,0,0,0,8.593A5.916,5.916,0,0,0,32.416,39.762Zm16.511,18.2a3.569,3.569,0,1,0-2.595-1.045A3.523,3.523,0,0,0,48.927,57.958Zm8.087-28.709A3.569,3.569,0,1,0,54.42,28.2a3.523,3.523,0,0,0,2.595,1.045ZM32.349,7.683ZM7.683,25.609ZM32.349,33.7ZM57.014,25.609ZM15.77,54.319ZM48.927,54.319Z" transform="translate(15190 214.999)" fill="#fff"/>
      </g>
    </g>
  </g>
</svg>
