<svg xmlns="http://www.w3.org/2000/svg" width="222.802" height="187.557" viewBox="0 0 222.802 187.557">
  <g id="estaciones" transform="translate(-1195 -1404.859)">
    <g id="Grupo_5936" data-name="Grupo 5936" transform="translate(-24 -45.141)">
      <g id="Grupo_5934" data-name="Grupo 5934" transform="translate(281)" opacity="0.196">
        <g id="Rect치ngulo_2984" data-name="Rect치ngulo 2984" transform="translate(938 1450)" fill="none" stroke="#fff" stroke-width="1">
          <rect width="222.802" height="187.557" rx="5" stroke="none"/>
          <rect x="0.5" y="0.5" width="221.802" height="186.557" rx="4.5" fill="none"/>
        </g>
        <rect id="Rect치ngulo_3059" data-name="Rect치ngulo 3059" width="222.802" height="187.557" rx="5" transform="translate(938 1450)" fill="#fff" opacity="0.045"/>
      </g>
      <g id="Grupo_5935" data-name="Grupo 5935" transform="translate(8.636 -0.217)">
        <text id="_1_120_estaciones_de_trabajo_equipadas" data-name="1,120 estaciones de 
trabajo equipadas" transform="translate(1321.364 1576.484)" fill="#fff" font-size="19" font-family="Montserrat-Regular, Montserrat"><tspan x="-90" y="0">1,120 estaciones de </tspan><tspan x="-86" y="23">trabajo equipadas</tspan></text>
        <path id="support_agent_FILL0_wght400_GRAD0_opsz48" d="M32.008,62.015V57.347H58.459V33.7a20.26,20.26,0,0,0-1.945-8.675A24.947,24.947,0,0,0,51.3,17.67a25.961,25.961,0,0,0-7.469-5.1,20.87,20.87,0,0,0-17.427,0,25.961,25.961,0,0,0-7.469,5.1,24.947,24.947,0,0,0-5.213,7.352A20.26,20.26,0,0,0,11.78,33.7V52.679H10.224a5.993,5.993,0,0,1-4.4-1.828A5.993,5.993,0,0,1,4,46.455V40.232a5.8,5.8,0,0,1,.856-3.151,6.832,6.832,0,0,1,2.256-2.217l.233-4.123a28.226,28.226,0,0,1,3.229-10.269,27.335,27.335,0,0,1,6.3-7.78,28.318,28.318,0,0,1,8.48-4.94,28.322,28.322,0,0,1,19.605,0A27.394,27.394,0,0,1,53.4,12.73a28.415,28.415,0,0,1,6.263,7.78,27.787,27.787,0,0,1,3.229,10.153l.233,4.046a5.661,5.661,0,0,1,3.112,5.057v7.158a5.461,5.461,0,0,1-.856,3.034,5.655,5.655,0,0,1-2.256,2.023v5.368a4.649,4.649,0,0,1-4.668,4.668ZM25.784,39.454a2.239,2.239,0,0,1-1.634-.7,2.328,2.328,0,0,1-.7-1.712,2.115,2.115,0,0,1,.7-1.595,2.4,2.4,0,0,1,1.712-.661,2.174,2.174,0,0,1,1.595.661,2.267,2.267,0,0,1,.661,1.673,2.3,2.3,0,0,1-.661,1.634A2.2,2.2,0,0,1,25.784,39.454Zm18.672,0a2.239,2.239,0,0,1-1.634-.7,2.328,2.328,0,0,1-.7-1.712,2.115,2.115,0,0,1,.7-1.595,2.4,2.4,0,0,1,1.712-.661,2.174,2.174,0,0,1,1.595.661,2.267,2.267,0,0,1,.661,1.673,2.3,2.3,0,0,1-.661,1.634A2.2,2.2,0,0,1,44.455,39.454Zm-27.93-4.046a17.844,17.844,0,0,1,1.284-8.324,19.257,19.257,0,0,1,4.279-6.341,19.337,19.337,0,0,1,13.187-5.407,16.847,16.847,0,0,1,11.9,4.473,18.937,18.937,0,0,1,5.913,11.164,22.5,22.5,0,0,1-12.876-3.929,25.891,25.891,0,0,1-8.6-10,24.846,24.846,0,0,1-5.251,11.164,24.21,24.21,0,0,1-9.842,7.2Z" transform="translate(1290 1477.217)" fill="#fff"/>
      </g>
    </g>
  </g>
</svg>
