<?xml version="1.0" encoding="utf-8"?>
<!-- Generator: Adobe Illustrator 28.1.0, SVG Export Plug-In . SVG Version: 6.00 Build 0)  -->
<svg version="1.1" id="Capa_1" xmlns="http://www.w3.org/2000/svg" xmlns:xlink="http://www.w3.org/1999/xlink" x="0px" y="0px"
	 viewBox="0 0 222.8 187.6" style="enable-background:new 0 0 222.8 187.6;" xml:space="preserve">
<style type="text/css">
	.st0{opacity:0.196;}
	.st1{fill:none;}
	.st2{fill:none;stroke:#FFFFFF;}
	.st3{opacity:4.500000e-02;fill:#FFFFFF;enable-background:new    ;}
	.st4{enable-background:new    ;}
	.st5{fill:#FFFFFF;}
	.st6{font-family:'Montserrat-Regular';}
	.st7{font-size:16px;}
	.st8{font-family:'Montserrat-SemiBold';}
</style>
<g id="estaciones" transform="translate(-1195 -1404.859)">
	<g id="Grupo_5936" transform="translate(-24 -45.141)">
		<g id="Grupo_5934" transform="translate(281)" class="st0">
			<g id="Rectángulo_2984" transform="translate(938 1450)">
				<path class="st1" d="M5,0h212.8c2.8,0,5,2.2,5,5v177.6c0,2.8-2.2,5-5,5H5c-2.8,0-5-2.2-5-5V5C0,2.2,2.2,0,5,0z"/>
				<path class="st2" d="M5,0.5h212.8c2.5,0,4.5,2,4.5,4.5v177.6c0,2.5-2,4.5-4.5,4.5H5c-2.5,0-4.5-2-4.5-4.5V5
					C0.5,2.5,2.5,0.5,5,0.5z"/>
			</g>
			<path id="Rectángulo_3059" class="st3" d="M943,1450h212.8c2.8,0,5,2.2,5,5v177.6c0,2.8-2.2,5-5,5H943c-2.8,0-5-2.2-5-5V1455
				C938,1452.2,940.2,1450,943,1450z"/>
		</g>
		<g id="Grupo_5935" transform="translate(8.636 -0.217)">
			<text transform="matrix(1 0 0 1 1249.8699 1565.1061)" class="st4"><tspan x="0" y="0" class="st5 st6 st7">1,112 estaciones de</tspan><tspan x="-0.7" y="19.2" class="st5 st6 st7">trabajo equipadas</tspan><tspan x="10.2" y="38.4" class="st5 st8 st7">(220 exclusivas</tspan><tspan x="18.3" y="57.6" class="st5 st8 st7">de cobranza)</tspan></text>
			<path id="support_agent_FILL0_wght400_GRAD0_opsz48" class="st5" d="M1322,1539.2v-4.7h26.5v-23.6c0-3-0.7-6-1.9-8.7
				c-1.3-2.7-3-5.2-5.2-7.4c-2.2-2.1-4.7-3.9-7.5-5.1c-5.5-2.5-11.9-2.5-17.4,0c-2.8,1.2-5.3,3-7.5,5.1c-2.2,2.1-3.9,4.6-5.2,7.4
				c-1.3,2.7-1.9,5.7-1.9,8.7v19h-1.6c-1.7,0-3.2-0.6-4.4-1.8c-1.2-1.2-1.8-2.7-1.8-4.4v-6.2c0-1.1,0.3-2.2,0.9-3.2
				c0.6-0.9,1.3-1.7,2.3-2.2l0.2-4.1c0.4-3.6,1.5-7.1,3.2-10.3c1.6-3,3.7-5.6,6.3-7.8c2.5-2.1,5.4-3.8,8.5-4.9
				c6.3-2.3,13.3-2.3,19.6,0c3.1,1.1,5.9,2.8,8.4,5c2.5,2.2,4.7,4.8,6.3,7.8c1.7,3.1,2.8,6.6,3.2,10.2l0.2,4c1.9,1,3.1,2.9,3.1,5.1
				v7.2c0,1.1-0.3,2.1-0.9,3c-0.6,0.9-1.3,1.6-2.3,2v5.4c0,2.6-2.1,4.7-4.6,4.7c0,0,0,0,0,0L1322,1539.2z M1315.8,1516.7
				c-0.6,0-1.2-0.3-1.6-0.7c-0.5-0.4-0.7-1.1-0.7-1.7c0-0.6,0.2-1.2,0.7-1.6c0.5-0.4,1.1-0.7,1.7-0.7c0.6,0,1.2,0.2,1.6,0.7
				c0.4,0.4,0.7,1,0.7,1.7c0,0.6-0.2,1.2-0.7,1.6C1317,1516.4,1316.4,1516.7,1315.8,1516.7z M1334.5,1516.7c-0.6,0-1.2-0.3-1.6-0.7
				c-0.5-0.4-0.7-1.1-0.7-1.7c0-0.6,0.2-1.2,0.7-1.6c0.5-0.4,1.1-0.7,1.7-0.7c0.6,0,1.2,0.2,1.6,0.7c0.4,0.4,0.7,1,0.7,1.7
				c0,0.6-0.2,1.2-0.7,1.6C1335.7,1516.4,1335.1,1516.7,1334.5,1516.7L1334.5,1516.7z M1306.5,1512.6c-0.2-2.8,0.2-5.7,1.3-8.3
				c1-2.4,2.4-4.5,4.3-6.3c3.5-3.4,8.3-5.3,13.2-5.4c4.4-0.1,8.7,1.5,11.9,4.5c3.2,2.9,5.3,6.9,5.9,11.2c-4.6,0-9.1-1.3-12.9-3.9
				c-3.7-2.5-6.6-6-8.6-10c-0.8,4.1-2.6,7.9-5.3,11.2C1313.7,1508.6,1310.4,1511.1,1306.5,1512.6L1306.5,1512.6z"/>
		</g>
	</g>
</g>
</svg>
