<svg xmlns="http://www.w3.org/2000/svg" width="222.802" height="187.557" viewBox="0 0 222.802 187.557">
  <g id="mexico" transform="translate(-922 -1404.859)">
    <g id="Grupo_5947" data-name="Grupo 5947" transform="translate(-16 -45.141)">
      <g id="Grupo_5931" data-name="Grupo 5931" opacity="0.201">
        <g id="Rect치ngulo_2984" data-name="Rect치ngulo 2984" transform="translate(938 1450)" fill="none" stroke="#fff" stroke-width="1">
          <rect width="222.802" height="187.557" rx="5" stroke="none"/>
          <rect x="0.5" y="0.5" width="221.802" height="186.557" rx="4.5" fill="none"/>
        </g>
        <rect id="Rect치ngulo_3059" data-name="Rect치ngulo 3059" width="222.802" height="187.557" rx="5" transform="translate(938 1450)" fill="#fff" opacity="0.045"/>
      </g>
      <g id="Grupo_5932" data-name="Grupo 5932" transform="translate(3.636 -161.142)">
        <text id="Contact_Center_Nacional" data-name="Contact Center
Nacional" transform="translate(1045.364 1736.484)" fill="#fff" font-size="19" font-family="Montserrat-Regular, Montserrat"><tspan x="-72" y="0">Contact Center</tspan><tspan x="-41" y="23">Nacional</tspan></text>
        <g id="Grupo_5927" data-name="Grupo 5927" transform="translate(-14153 1668)">
          <g id="mexican-republic-map-black-shape" transform="translate(15154.05 -122.173)">
            <g id="Layer_2_29_" transform="translate(0 100.315)">
              <path id="Trazado_37920" data-name="Trazado 37920" d="M88.189,134.483h-7.82a1.8,1.8,0,0,0-1.215.792l-2.261,3.461a4.763,4.763,0,0,0-.526,1.46c-.382,1.976-2.346,7.062-12.419,7.062-12.54,0-11.427-18.611-11.033-22.674a2.3,2.3,0,0,0-.383-1.4l-8.446-11.553c-.261-.346-.821-.92-1.254-.92H38.14c-.432,0-1,.021-1.27-.316l-5.28-6.55a1.786,1.786,0,0,0-1.27-.562H24.064c-.432,0-1.208.547-1.208.979v1.564c0,.432.076.428-.357.428H17.807a2.444,2.444,0,0,1-1.394-.312l-6.6-5.211a2.521,2.521,0,0,0-1.391-.419H.6a.581.581,0,0,0-.576.774l4.281,16c.113.417-.144,1.056-.576,1.056H.6c-.432,0-.535-.043-.229.261l5.15,5a6.579,6.579,0,0,1,.955,1.078l8.579,14.3a.859.859,0,0,0,1.1.321l1.729-.864a.853.853,0,0,0,.4-1.073L7.94,111.732c-.165-.4.052-1.018.484-1.018H9.988c.432,0,.976.587,1.215.945l14.772,22.307a6.548,6.548,0,0,1,.649,1.477l2.7,9.481a2.607,2.607,0,0,0,.856,1.218L44.538,156.2a2.064,2.064,0,0,0,1.407.293l13.911-2.906a2.3,2.3,0,0,1,1.436.242l6.676,3.99a1.053,1.053,0,0,0,1.224-.152l2.022-1.93a2.09,2.09,0,0,1,1.336-.459h4.693a.507.507,0,0,0,.432-.792l-.865-1.775a1.2,1.2,0,0,1,.2-1.276l9.842-9.854a3.355,3.355,0,0,0,.743-1.318l1.184-4.883A.7.7,0,0,0,88.189,134.483Z" transform="translate(0 -100.315)" fill="snow"/>
            </g>
          </g>
        </g>
      </g>
    </g>
  </g>
</svg>
