<svg xmlns="http://www.w3.org/2000/svg" width="222.802" height="187.557" viewBox="0 0 222.802 187.557">
  <g id="personal" transform="translate(-1468 -1404.859)">
    <g id="Grupo_5939" data-name="Grupo 5939" transform="translate(-12 -45.141)">
      <g id="Grupo_5937" data-name="Grupo 5937" transform="translate(-5.364 -2.449)">
        <text id="Más_de_400_personas_en_campo" data-name="Más de 400 
personas en campo" transform="translate(1596.364 1576.484)" fill="#fff" font-size="19" font-family="Montserrat-Regular, Montserrat"><tspan x="-57" y="0">Más de 400 </tspan><tspan x="-93" y="23">personas en campo</tspan></text>
        <path id="groups_FILL0_wght400_GRAD0_opsz48" d="M0,63.783V58.065q0-4.207,4.531-6.8T16.182,48.68q1.4,0,2.589.054a17.762,17.762,0,0,1,2.373.27,17.566,17.566,0,0,0-1.726,7.767v7.012Zm25.891,0V56.771q0-7.012,7.174-11.328t18.717-4.315q11.651,0,18.771,4.315t7.12,11.328v7.012Zm58.256,0V56.771a20.617,20.617,0,0,0-.378-4.046A16.17,16.17,0,0,0,82.529,49a17.762,17.762,0,0,1,2.373-.27q1.187-.054,2.481-.054,7.336,0,11.759,2.589t4.423,6.8v5.718ZM51.783,47.6q-8.63,0-14.025,2.589t-5.394,6.581v.539H71.2v-.647q0-3.884-5.34-6.473T51.783,47.6Zm-35.6-2.158a7.276,7.276,0,0,1-5.34-2.212,7.553,7.553,0,0,1,0-10.68,7.276,7.276,0,0,1,5.34-2.212,7.551,7.551,0,0,1,7.552,7.552,7.551,7.551,0,0,1-7.552,7.552Zm71.2,0a7.551,7.551,0,0,1-7.552-7.552,7.552,7.552,0,1,1,12.892,5.34A7.276,7.276,0,0,1,87.384,45.443Zm-35.6-7.552A12.892,12.892,0,0,1,38.837,24.946a12.434,12.434,0,0,1,3.776-9.224A12.577,12.577,0,0,1,51.783,12,12.715,12.715,0,0,1,64.729,24.946a12.577,12.577,0,0,1-3.722,9.17A12.434,12.434,0,0,1,51.783,37.891Zm0-19.419A6.336,6.336,0,0,0,47.2,20.307a6.193,6.193,0,0,0-1.888,4.639,6.522,6.522,0,0,0,11.112,4.585,6.336,6.336,0,0,0,1.834-4.585,6.273,6.273,0,0,0-6.473-6.473ZM51.783,57.31ZM51.783,24.946Z" transform="translate(1548.337 1475.449)" fill="#fff"/>
      </g>
      <g id="Grupo_5938" data-name="Grupo 5938" transform="translate(542)" opacity="0.204">
        <g id="Rectángulo_2984" data-name="Rectángulo 2984" transform="translate(938 1450)" fill="none" stroke="#fff" stroke-width="1">
          <rect width="222.802" height="187.557" rx="5" stroke="none"/>
          <rect x="0.5" y="0.5" width="221.802" height="186.557" rx="4.5" fill="none"/>
        </g>
        <rect id="Rectángulo_3059" data-name="Rectángulo 3059" width="222.802" height="187.557" rx="5" transform="translate(938 1450)" fill="#fff" opacity="0.043"/>
      </g>
    </g>
  </g>
</svg>
