<svg xmlns="http://www.w3.org/2000/svg" xmlns:xlink="http://www.w3.org/1999/xlink" width="80" height="80" viewBox="0 0 80 80">
  <defs>
    <clipPath id="clip-path">
      <rect id="Rect치ngulo_2991" data-name="Rect치ngulo 2991" width="52.149" height="46.915" fill="#13002e"/>
    </clipPath>
  </defs>
  <g id="almacenaje" transform="translate(-1344 -2883)">
    <rect id="Rect치ngulo_2973" data-name="Rect치ngulo 2973" width="80" height="80" transform="translate(1344 2883)" fill="none"/>
    <g id="Grupo_5644" data-name="Grupo 5644" transform="translate(1358 2900)">
      <g id="Grupo_5643" data-name="Grupo 5643" transform="translate(0 0.001)" clip-path="url(#clip-path)">
        <path id="Trazado_37139" data-name="Trazado 37139" d="M14.149,37.482H2.3a2.3,2.3,0,0,1-2.3-2.3V21.67A1.073,1.073,0,0,1,1.073,20.6h14.3a1.073,1.073,0,0,1,1.073,1.073V35.185a2.3,2.3,0,0,1-2.3,2.3m-12-14.739V35.185a.152.152,0,0,0,.151.151H14.149a.153.153,0,0,0,.152-.151V22.743Z" transform="translate(0 1.501)" fill="#13002e"/>
        <path id="Trazado_37140" data-name="Trazado 37140" d="M8.974,28.087a2.658,2.658,0,0,1-.85-.142.715.715,0,0,0-.477,0,2.591,2.591,0,0,1-2.684-.623,1.069,1.069,0,0,1-.315-.759V21.67A1.073,1.073,0,0,1,5.72,20.6h4.329a1.073,1.073,0,0,1,1.073,1.073v4.893a1.067,1.067,0,0,1-.314.759,2.584,2.584,0,0,1-1.834.765M7.885,25.758a2.9,2.9,0,0,1,.934.157.922.922,0,0,0,.157.025v-3.2H6.793v3.2a.509.509,0,0,0,.16-.025,2.878,2.878,0,0,1,.932-.157" transform="translate(0.339 1.501)" fill="#13002e"/>
        <path id="Trazado_37141" data-name="Trazado 37141" d="M4.566,33.79H3.859a1.073,1.073,0,0,1,0-2.146h.707a1.073,1.073,0,0,1,0,2.146" transform="translate(0.203 2.306)" fill="#13002e"/>
        <path id="Trazado_37142" data-name="Trazado 37142" d="M47.427,37.482H35.575a2.3,2.3,0,0,1-2.3-2.3V21.67A1.073,1.073,0,0,1,34.35,20.6h14.3a1.073,1.073,0,0,1,1.073,1.073V35.185a2.3,2.3,0,0,1-2.3,2.3m-12-14.739V35.185a.153.153,0,0,0,.152.151H47.427a.152.152,0,0,0,.151-.151V22.743Z" transform="translate(2.426 1.501)" fill="#13002e"/>
        <path id="Trazado_37143" data-name="Trazado 37143" d="M42.25,28.087a2.658,2.658,0,0,1-.85-.142.715.715,0,0,0-.477,0,2.592,2.592,0,0,1-2.684-.623,1.072,1.072,0,0,1-.314-.759V21.67A1.073,1.073,0,0,1,39,20.6h4.329A1.073,1.073,0,0,1,44.4,21.67v4.893a1.072,1.072,0,0,1-.314.759,2.589,2.589,0,0,1-1.835.765m-1.089-2.329a2.9,2.9,0,0,1,.934.157.9.9,0,0,0,.158.025v-3.2H40.07v3.2a.523.523,0,0,0,.159-.025,2.878,2.878,0,0,1,.932-.157" transform="translate(2.765 1.501)" fill="#13002e"/>
        <path id="Trazado_37144" data-name="Trazado 37144" d="M37.843,33.79h-.707a1.073,1.073,0,0,1,0-2.146h.707a1.073,1.073,0,0,1,0,2.146" transform="translate(2.629 2.306)" fill="#13002e"/>
        <path id="Trazado_37145" data-name="Trazado 37145" d="M30.788,37.482H18.936a2.3,2.3,0,0,1-2.3-2.3V21.67A1.073,1.073,0,0,1,17.712,20.6h14.3a1.073,1.073,0,0,1,1.073,1.073V35.185a2.3,2.3,0,0,1-2.3,2.3m-12-14.739V35.185a.152.152,0,0,0,.151.151H30.788a.153.153,0,0,0,.152-.151V22.743Z" transform="translate(1.213 1.501)" fill="#13002e"/>
        <path id="Trazado_37146" data-name="Trazado 37146" d="M25.612,28.087a2.647,2.647,0,0,1-.849-.142.722.722,0,0,0-.477,0,2.587,2.587,0,0,1-2.685-.622,1.072,1.072,0,0,1-.314-.759V21.67A1.073,1.073,0,0,1,22.359,20.6h4.329a1.073,1.073,0,0,1,1.073,1.073v4.893a1.072,1.072,0,0,1-.314.759,2.589,2.589,0,0,1-1.835.765m-1.089-2.329a2.9,2.9,0,0,1,.934.157.8.8,0,0,0,.158.025v-3.2H23.432v3.2a.755.755,0,0,0,.159-.025,2.883,2.883,0,0,1,.932-.157" transform="translate(1.552 1.501)" fill="#13002e"/>
        <path id="Trazado_37147" data-name="Trazado 37147" d="M21.2,33.79H20.5a1.073,1.073,0,0,1,0-2.146H21.2a1.073,1.073,0,1,1,0,2.146" transform="translate(1.416 2.306)" fill="#13002e"/>
        <path id="Trazado_37148" data-name="Trazado 37148" d="M14.149,16.885H2.3a2.3,2.3,0,0,1-2.3-2.3V1.073A1.073,1.073,0,0,1,1.073,0h14.3a1.073,1.073,0,0,1,1.073,1.073V14.588a2.3,2.3,0,0,1-2.3,2.3m-12-14.739V14.588a.152.152,0,0,0,.151.151H14.149a.153.153,0,0,0,.152-.151V2.146Z" transform="translate(0 -0.001)" fill="#13002e"/>
        <path id="Trazado_37149" data-name="Trazado 37149" d="M8.974,7.49a2.629,2.629,0,0,1-.85-.142.722.722,0,0,0-.477,0,2.589,2.589,0,0,1-2.684-.623,1.069,1.069,0,0,1-.315-.759V1.073A1.073,1.073,0,0,1,5.72,0h4.329a1.073,1.073,0,0,1,1.073,1.073V5.966a1.067,1.067,0,0,1-.314.759,2.584,2.584,0,0,1-1.834.765M7.885,5.161a2.9,2.9,0,0,1,.934.157.922.922,0,0,0,.157.025v-3.2H6.793v3.2a.542.542,0,0,0,.16-.025,2.878,2.878,0,0,1,.932-.157" transform="translate(0.339 -0.001)" fill="#13002e"/>
        <path id="Trazado_37150" data-name="Trazado 37150" d="M4.566,13.193H3.859a1.073,1.073,0,0,1,0-2.146h.707a1.073,1.073,0,0,1,0,2.146" transform="translate(0.203 0.805)" fill="#13002e"/>
        <path id="Trazado_37151" data-name="Trazado 37151" d="M47.427,16.885H35.575a2.3,2.3,0,0,1-2.3-2.3V1.073A1.073,1.073,0,0,1,34.35,0h14.3a1.073,1.073,0,0,1,1.073,1.073V14.588a2.3,2.3,0,0,1-2.3,2.3m-12-14.739V14.588a.153.153,0,0,0,.152.151H47.427a.152.152,0,0,0,.151-.151V2.146Z" transform="translate(2.426 -0.001)" fill="#13002e"/>
        <path id="Trazado_37152" data-name="Trazado 37152" d="M42.25,7.49a2.629,2.629,0,0,1-.85-.142.722.722,0,0,0-.477,0,2.592,2.592,0,0,1-2.684-.623,1.072,1.072,0,0,1-.314-.759V1.073A1.073,1.073,0,0,1,39,0h4.329A1.073,1.073,0,0,1,44.4,1.073V5.966a1.072,1.072,0,0,1-.314.759,2.589,2.589,0,0,1-1.835.765M41.161,5.161a2.9,2.9,0,0,1,.934.157.9.9,0,0,0,.158.025v-3.2H40.07v3.2a.558.558,0,0,0,.159-.025,2.878,2.878,0,0,1,.932-.157" transform="translate(2.765 -0.001)" fill="#13002e"/>
        <path id="Trazado_37153" data-name="Trazado 37153" d="M37.843,13.193h-.707a1.073,1.073,0,0,1,0-2.146h.707a1.073,1.073,0,0,1,0,2.146" transform="translate(2.629 0.805)" fill="#13002e"/>
        <path id="Trazado_37154" data-name="Trazado 37154" d="M30.788,16.885H18.936a2.3,2.3,0,0,1-2.3-2.3V1.073A1.073,1.073,0,0,1,17.712,0h14.3a1.073,1.073,0,0,1,1.073,1.073V14.588a2.3,2.3,0,0,1-2.3,2.3m-12-14.739V14.588a.152.152,0,0,0,.151.151H30.788a.153.153,0,0,0,.152-.151V2.146Z" transform="translate(1.213 -0.001)" fill="#13002e"/>
        <path id="Trazado_37155" data-name="Trazado 37155" d="M25.612,7.49a2.618,2.618,0,0,1-.849-.142.722.722,0,0,0-.477,0A2.585,2.585,0,0,1,21.6,6.725a1.072,1.072,0,0,1-.314-.759V1.073A1.073,1.073,0,0,1,22.359,0h4.329a1.073,1.073,0,0,1,1.073,1.073V5.966a1.072,1.072,0,0,1-.314.759,2.589,2.589,0,0,1-1.835.765M24.523,5.161a2.9,2.9,0,0,1,.934.157.423.423,0,0,0,.158.025v-3.2H23.432v3.2a.755.755,0,0,0,.159-.025,2.883,2.883,0,0,1,.932-.157" transform="translate(1.552 -0.001)" fill="#13002e"/>
        <path id="Trazado_37156" data-name="Trazado 37156" d="M21.2,13.193H20.5a1.073,1.073,0,0,1,0-2.146H21.2a1.073,1.073,0,1,1,0,2.146" transform="translate(1.416 0.805)" fill="#13002e"/>
        <path id="Trazado_37157" data-name="Trazado 37157" d="M51.076,19.353h-50a1.073,1.073,0,0,1,0-2.146h50a1.073,1.073,0,1,1,0,2.146" transform="translate(0 1.254)" fill="#13002e"/>
        <path id="Trazado_37158" data-name="Trazado 37158" d="M51.076,39.872h-50a1.073,1.073,0,0,1,0-2.146h50a1.073,1.073,0,1,1,0,2.146" transform="translate(0 2.75)" fill="#13002e"/>
        <path id="Trazado_37159" data-name="Trazado 37159" d="M7.8,44.166H1.073A1.073,1.073,0,0,1,0,43.093V38.8a1.073,1.073,0,0,1,1.073-1.073H7.8A1.073,1.073,0,0,1,8.876,38.8v4.294A1.073,1.073,0,0,1,7.8,44.166M2.146,42.02H6.73V39.872H2.146Z" transform="translate(0 2.75)" fill="#13002e"/>
        <path id="Trazado_37160" data-name="Trazado 37160" d="M48.136,44.166h-6.73a1.073,1.073,0,0,1-1.073-1.073V38.8a1.073,1.073,0,0,1,1.073-1.073h6.73A1.073,1.073,0,0,1,49.209,38.8v4.294a1.073,1.073,0,0,1-1.073,1.073M42.479,42.02h4.584V39.872H42.479Z" transform="translate(2.94 2.75)" fill="#13002e"/>
        <path id="Trazado_37161" data-name="Trazado 37161" d="M27.97,44.166H21.24a1.073,1.073,0,0,1-1.073-1.073V38.8a1.073,1.073,0,0,1,1.073-1.073h6.73A1.073,1.073,0,0,1,29.043,38.8v4.294a1.073,1.073,0,0,1-1.073,1.073M22.313,42.02H26.9V39.872H22.313Z" transform="translate(1.47 2.75)" fill="#13002e"/>
      </g>
    </g>
  </g>
</svg>
