<svg xmlns="http://www.w3.org/2000/svg" xmlns:xlink="http://www.w3.org/1999/xlink" width="80" height="80" viewBox="0 0 80 80">
  <defs>
    <clipPath id="clip-path">
      <rect id="Rectángulo_2990" data-name="Rectángulo 2990" width="55.699" height="43.263" transform="translate(0 0)" fill="#13002e"/>
    </clipPath>
  </defs>
  <g id="distribución_trasnporte" transform="translate(-1433 -2792)">
    <rect id="Rectángulo_2973" data-name="Rectángulo 2973" width="80" height="80" transform="translate(1433 2792)" fill="none"/>
    <g id="Grupo_5641" data-name="Grupo 5641" transform="translate(1445 2810)">
      <g id="Grupo_5640" data-name="Grupo 5640" clip-path="url(#clip-path)">
        <path id="Trazado_37130" data-name="Trazado 37130" d="M32.977,38.042H13.591a1,1,0,0,1,0-2H32.977a2,2,0,0,0,1.994-1.994V2H2V34.048a2,2,0,0,0,1.995,1.994h1.9a1,1,0,0,1,0,2h-1.9A4,4,0,0,1,0,34.048V1A1,1,0,0,1,1,0H35.971a1,1,0,0,1,1,1V34.048a4,4,0,0,1-3.994,3.994" fill="#13002e"/>
        <path id="Trazado_37131" data-name="Trazado 37131" d="M21.144,15.066a4.791,4.791,0,0,1-1.549-.259,3.405,3.405,0,0,0-2.22,0,4.718,4.718,0,0,1-4.891-1.134,1,1,0,0,1-.292-.707V1a1,1,0,0,1,1-1H23.778a1,1,0,0,1,1,1V12.966a1,1,0,0,1-.293.707,4.712,4.712,0,0,1-3.341,1.393M18.485,12.62a5.424,5.424,0,0,1,1.756.294,2.724,2.724,0,0,0,2.537-.4V2H14.192V12.514a2.722,2.722,0,0,0,2.537.4,5.424,5.424,0,0,1,1.756-.294" fill="#13002e"/>
        <path id="Trazado_37132" data-name="Trazado 37132" d="M6.521,31.787a2.8,2.8,0,1,1,2.805-2.8,2.808,2.808,0,0,1-2.805,2.8m0-3.609a.8.8,0,1,0,.805.805.806.806,0,0,0-.805-.805" fill="#13002e"/>
        <path id="Trazado_37133" data-name="Trazado 37133" d="M12.668,31.787a2.8,2.8,0,1,1,2.8-2.8,2.808,2.808,0,0,1-2.8,2.8m0-3.609a.8.8,0,1,0,.8.805.806.806,0,0,0-.8-.805" fill="#13002e"/>
        <path id="Trazado_37134" data-name="Trazado 37134" d="M50.165,38.042h-2a1,1,0,0,1,0-2h2A3.538,3.538,0,0,0,53.7,32.509V26.4L43.888,15.966H36.971V36.042h3.5a1,1,0,0,1,0,2h-4.5a1,1,0,0,1-1-1V14.966a1,1,0,0,1,1-1H44.32a1,1,0,0,1,.728.315L55.427,25.319A1,1,0,0,1,55.7,26v6.5a5.54,5.54,0,0,1-5.534,5.533" fill="#13002e"/>
        <path id="Trazado_37135" data-name="Trazado 37135" d="M52.217,30.479H50.412a1,1,0,0,1,0-2h1.805a1,1,0,0,1,0,2" fill="#13002e"/>
        <path id="Trazado_37136" data-name="Trazado 37136" d="M54.7,27H42.264a3.609,3.609,0,0,1-3.6-3.6V20.23a1,1,0,0,1,2,0V23.4a1.607,1.607,0,0,0,1.6,1.6H54.7a1,1,0,0,1,0,2" fill="#13002e"/>
        <path id="Trazado_37137" data-name="Trazado 37137" d="M44.32,43.264a5.029,5.029,0,1,1,5.029-5.029,5.035,5.035,0,0,1-5.029,5.029m0-8.058a3.029,3.029,0,1,0,3.029,3.029,3.033,3.033,0,0,0-3.029-3.029" fill="#13002e"/>
        <path id="Trazado_37138" data-name="Trazado 37138" d="M9.741,43.264a5.029,5.029,0,1,1,5.029-5.029,5.034,5.034,0,0,1-5.029,5.029m0-8.058a3.029,3.029,0,1,0,3.029,3.029,3.032,3.032,0,0,0-3.029-3.029" fill="#13002e"/>
      </g>
    </g>
  </g>
</svg>
