<svg xmlns="http://www.w3.org/2000/svg" xmlns:xlink="http://www.w3.org/1999/xlink" width="80" height="80" viewBox="0 0 80 80">
  <defs>
    <clipPath id="clip-path">
      <rect id="Rect치ngulo_2985" data-name="Rect치ngulo 2985" width="43.388" height="59.93" fill="#13002e"/>
    </clipPath>
  </defs>
  <g id="gestion_inventarios" transform="translate(-1433 -2701)">
    <rect id="Rect치ngulo_2973" data-name="Rect치ngulo 2973" width="80" height="80" transform="translate(1433 2701)" fill="none"/>
    <g id="Grupo_5630" data-name="Grupo 5630" transform="translate(1451 2711)">
      <g id="Grupo_5629" data-name="Grupo 5629" transform="translate(0 0)" clip-path="url(#clip-path)">
        <path id="Trazado_37087" data-name="Trazado 37087" d="M7.87,7.128h-4.7A3.169,3.169,0,0,0,0,10.293V56.765A3.169,3.169,0,0,0,3.165,59.93H40.222a3.169,3.169,0,0,0,3.166-3.166V10.293a3.169,3.169,0,0,0-3.166-3.166h-4.7A3.206,3.206,0,0,0,32.409,4H29.361A4.841,4.841,0,0,0,24.6,0H19.48A4.84,4.84,0,0,0,14.72,4H10.979A3.206,3.206,0,0,0,7.87,7.128m27.508,4.849h2.294V53.02H5.659V11.977H8.01a3.148,3.148,0,0,0,2.969,2.3H32.409a3.148,3.148,0,0,0,2.969-2.3m5.741-1.684V56.765a.9.9,0,0,1-.9.9H3.165a.9.9,0,0,1-.9-.9V10.293a.9.9,0,0,1,.9-.9h4.7v.31H4.523a1.135,1.135,0,0,0-1.135,1.135V54.155a1.135,1.135,0,0,0,1.135,1.135H38.807a1.135,1.135,0,0,0,1.135-1.135V10.843a1.135,1.135,0,0,0-1.135-1.135H35.526V9.4h4.7a.9.9,0,0,1,.9.9M10.131,7.3a.958.958,0,0,1,.848-1.037h4.8a1.135,1.135,0,0,0,1.135-1.135v-.3A2.567,2.567,0,0,1,19.48,2.27H24.6a2.567,2.567,0,0,1,2.563,2.563v.3h0A1.135,1.135,0,0,0,28.3,6.267h4.11A.959.959,0,0,1,33.257,7.3v3.666a.959.959,0,0,1-.848,1.037H10.979a.958.958,0,0,1-.848-1.037V7.3Z" transform="translate(0 0)" fill="#13002e"/>
        <path id="Trazado_37088" data-name="Trazado 37088" d="M28.936,10.143A3.316,3.316,0,1,0,25.62,6.828a3.32,3.32,0,0,0,3.316,3.316m0-4.363a1.046,1.046,0,1,1-1.047,1.047,1.048,1.048,0,0,1,1.047-1.047" transform="translate(-7.464 -1.023)" fill="#13002e"/>
        <path id="Trazado_37089" data-name="Trazado 37089" d="M10.575,28.473a1.135,1.135,0,0,0,1.135,1.135h25.6a1.135,1.135,0,1,0,0-2.269H11.71a1.135,1.135,0,0,0-1.135,1.135" transform="translate(-3.081 -7.964)" fill="#13002e"/>
        <path id="Trazado_37090" data-name="Trazado 37090" d="M27.058,38.445H11.71a1.135,1.135,0,1,0,0,2.27H27.058a1.135,1.135,0,0,0,0-2.27" transform="translate(-3.081 -11.2)" fill="#13002e"/>
        <path id="Trazado_37091" data-name="Trazado 37091" d="M27.058,50.623H11.71a1.135,1.135,0,1,0,0,2.27H27.058a1.135,1.135,0,0,0,0-2.27" transform="translate(-3.081 -14.748)" fill="#13002e"/>
        <path id="Trazado_37092" data-name="Trazado 37092" d="M27.058,62.8H11.71a1.135,1.135,0,1,0,0,2.27H27.058a1.135,1.135,0,0,0,0-2.27" transform="translate(-3.081 -18.296)" fill="#13002e"/>
        <path id="Trazado_37093" data-name="Trazado 37093" d="M43.44,34.729l-2.879,3.008-.793-1.076a1.135,1.135,0,1,0-1.827,1.346l1.593,2.162a1.135,1.135,0,0,0,.84.459l.073,0a1.133,1.133,0,0,0,.82-.35L45.08,36.3a1.135,1.135,0,1,0-1.64-1.57" transform="translate(-10.989 -10.016)" fill="#13002e"/>
        <path id="Trazado_37094" data-name="Trazado 37094" d="M43.44,47.442,40.561,50.45l-.793-1.076a1.135,1.135,0,1,0-1.827,1.346l1.593,2.162a1.137,1.137,0,0,0,.84.459l.073,0a1.133,1.133,0,0,0,.82-.35l3.813-3.983a1.135,1.135,0,1,0-1.64-1.569" transform="translate(-10.989 -13.719)" fill="#13002e"/>
        <path id="Trazado_37095" data-name="Trazado 37095" d="M43.44,60.155l-2.879,3.008-.793-1.076a1.135,1.135,0,1,0-1.827,1.346L39.534,65.6a1.137,1.137,0,0,0,.84.459l.073,0a1.133,1.133,0,0,0,.82-.35l3.813-3.983a1.135,1.135,0,0,0-1.64-1.569" transform="translate(-10.989 -17.423)" fill="#13002e"/>
      </g>
    </g>
  </g>
</svg>
