<svg xmlns="http://www.w3.org/2000/svg" xmlns:xlink="http://www.w3.org/1999/xlink" width="80" height="80" viewBox="0 0 80 80">
  <defs>
    <clipPath id="clip-path">
      <rect id="Rectángulo_2989" data-name="Rectángulo 2989" width="51.134" height="51.173" fill="none"/>
    </clipPath>
  </defs>
  <g id="distribucíion_integracion_pedios" transform="translate(-1344 -2792)">
    <rect id="Rectángulo_2973" data-name="Rectángulo 2973" width="80" height="80" transform="translate(1344 2792)" fill="none"/>
    <g id="Grupo_5639" data-name="Grupo 5639" transform="translate(1358 2806)">
      <g id="Grupo_5638" data-name="Grupo 5638" transform="translate(0 -0.001)" clip-path="url(#clip-path)">
        <path id="Trazado_37120" data-name="Trazado 37120" d="M13.547,12.313a1.1,1.1,0,0,1-.414-.081L.683,7.172a1.1,1.1,0,0,1,0-2.031L13.134.081a1.088,1.088,0,0,1,.826,0l12.45,5.06a1.1,1.1,0,0,1,0,2.031l-12.45,5.06a1.092,1.092,0,0,1-.412.081M4.01,6.157l9.537,3.875,9.536-3.875L13.547,2.281Z" transform="translate(0 0.001)"/>
        <path id="Trazado_37121" data-name="Trazado 37121" d="M13.547,16.485a1.092,1.092,0,0,1-.412-.081L.684,11.344A1.1,1.1,0,0,1,0,10.329V5.71A1.1,1.1,0,0,1,1.509,4.694L13.547,9.586,25.584,4.694a1.1,1.1,0,0,1,1.51,1.016v4.619a1.1,1.1,0,0,1-.684,1.016L13.96,16.4a1.092,1.092,0,0,1-.412.081M2.194,9.59,13.547,14.2,24.9,9.59V7.34L13.96,11.786a1.1,1.1,0,0,1-.825,0L2.194,7.34Z" transform="translate(0 0.447)"/>
        <path id="Trazado_37122" data-name="Trazado 37122" d="M13.451,26.115a5.32,5.32,0,0,1-2.007-.395l-8.608-3.5A2.949,2.949,0,0,1,.991,19.48V10.323a1.1,1.1,0,0,1,2.194,0V19.48a.765.765,0,0,0,.477.71l8.609,3.5a3.128,3.128,0,0,0,2.36,0l8.609-3.5a.765.765,0,0,0,.477-.71V10.323a1.1,1.1,0,0,1,2.194,0V19.48a2.949,2.949,0,0,1-1.845,2.742l-8.609,3.5a5.315,5.315,0,0,1-2.006.395" transform="translate(0.096 0.894)"/>
        <path id="Trazado_37123" data-name="Trazado 37123" d="M12.448,26.113a1.1,1.1,0,0,1-1.1-1.1V10.323a1.1,1.1,0,0,1,2.194,0V25.016a1.1,1.1,0,0,1-1.1,1.1" transform="translate(1.099 0.894)"/>
        <path id="Trazado_37124" data-name="Trazado 37124" d="M44.755,50.668H16.631a5.287,5.287,0,0,1-5.28-5.28V29.572a1.1,1.1,0,0,1,2.194,0V45.387a3.09,3.09,0,0,0,3.087,3.087H44.755a3.089,3.089,0,0,0,3.085-3.087V10.49A3.089,3.089,0,0,0,44.755,7.4H28.941a1.1,1.1,0,1,1,0-2.194H44.755a5.286,5.286,0,0,1,5.279,5.28v34.9a5.286,5.286,0,0,1-5.279,5.28" transform="translate(1.099 0.505)"/>
        <path id="Trazado_37125" data-name="Trazado 37125" d="M23.262,32.695H18.119a1.1,1.1,0,0,1-1.1-1.1V26.455a1.1,1.1,0,0,1,1.1-1.1h5.143a1.1,1.1,0,0,1,1.1,1.1V31.6a1.1,1.1,0,0,1-1.1,1.1M19.216,30.5h2.949V27.552H19.216Z" transform="translate(1.649 2.456)"/>
        <path id="Trazado_37126" data-name="Trazado 37126" d="M23.262,41.883H18.119a1.1,1.1,0,0,1-1.1-1.1V35.643a1.1,1.1,0,0,1,1.1-1.1h5.143a1.1,1.1,0,0,1,1.1,1.1v5.143a1.1,1.1,0,0,1-1.1,1.1m-4.046-2.194h2.949V36.74H19.216Z" transform="translate(1.649 3.346)"/>
        <path id="Trazado_37127" data-name="Trazado 37127" d="M41.881,29.9h-14.4a1.1,1.1,0,1,1,0-2.194h14.4a1.1,1.1,0,0,1,0,2.194" transform="translate(2.556 2.683)"/>
        <path id="Trazado_37128" data-name="Trazado 37128" d="M41.881,39.085h-14.4a1.1,1.1,0,1,1,0-2.194h14.4a1.1,1.1,0,0,1,0,2.194" transform="translate(2.556 3.573)"/>
        <path id="Trazado_37129" data-name="Trazado 37129" d="M41.881,20.71h-14.4a1.1,1.1,0,1,1,0-2.194h14.4a1.1,1.1,0,0,1,0,2.194" transform="translate(2.556 1.794)"/>
      </g>
    </g>
  </g>
</svg>
