<svg xmlns="http://www.w3.org/2000/svg" xmlns:xlink="http://www.w3.org/1999/xlink" width="80" height="80" viewBox="0 0 80 80">
  <defs>
    <clipPath id="clip-path">
      <rect id="Rect치ngulo_2984" data-name="Rect치ngulo 2984" width="61.658" height="53.456" fill="#13002e"/>
    </clipPath>
  </defs>
  <g id="consul_logistica" transform="translate(-1344 -2701)">
    <rect id="Rect치ngulo_2973" data-name="Rect치ngulo 2973" width="80" height="80" transform="translate(1344 2701)" fill="none"/>
    <g id="Grupo_5627" data-name="Grupo 5627" transform="translate(1353 2714)">
      <g id="Grupo_5626" data-name="Grupo 5626" transform="translate(0 0)" clip-path="url(#clip-path)">
        <path id="Trazado_37086" data-name="Trazado 37086" d="M54.364,22.311V18.2a1.145,1.145,0,0,0-.007-.122A18.848,18.848,0,0,0,47,5.268,26.142,26.142,0,0,0,30.834,0C24.629,0,19.368,1.71,15.2,5.083a23.457,23.457,0,0,0-7.859,12.84A1.216,1.216,0,0,0,7.3,18.2v4.106c-4.11.4-7.3,3.164-7.3,6.509v3.587C0,35.8,3.283,38.6,7.477,38.933A9.4,9.4,0,0,0,11.05,45.15v6.075a1.179,1.179,0,0,0,2.358.007V46.485a9.345,9.345,0,0,0,3.388.634h1.613a16.679,16.679,0,0,0,4.739,4.169,15.708,15.708,0,0,0,15.767.093A17.27,17.27,0,0,0,47.48,36.329V26.876c0-.027,0-.054,0-.08s0-.026,0-.038-.007-.05-.011-.074,0-.029-.007-.043-.01-.041-.016-.061-.009-.035-.014-.053-.012-.031-.018-.046-.014-.041-.023-.062l-.018-.038c-.01-.021-.021-.043-.032-.065s-.014-.023-.021-.034-.024-.042-.038-.062-.019-.026-.029-.038-.025-.035-.038-.051l-.041-.045c-.012-.013-.023-.026-.035-.038S47.1,26.016,47.08,26l-.033-.029c-.018-.015-.037-.028-.056-.042l-.035-.026c-.018-.012-.036-.022-.055-.033s-.029-.018-.045-.027l-.048-.023c-.019-.01-.038-.019-.058-.027l-.041-.015c-.024-.009-.047-.018-.071-.024l-.037-.01c-.026-.007-.052-.014-.079-.019h-.009a23.734,23.734,0,0,1-4.546-1.557c-4.645-2-10.1-5.1-10.176-5.147a1.18,1.18,0,0,0-1.3.088,34.815,34.815,0,0,1-9.825,5.171,29.708,29.708,0,0,1-4.435,1.186,1.175,1.175,0,0,0-.591.275,1.178,1.178,0,0,0-.9,1.143v9.445a17.629,17.629,0,0,0,2.126,8.431H16.8a7,7,0,0,1-3.388-.87V23.784c0-8.837,7.928-16.026,17.672-16.026s17.672,7.189,17.672,16.026V51.445a1.179,1.179,0,1,0,2.359,0V23.784C51.112,13.647,42.126,5.4,31.081,5.4S11.05,13.647,11.05,23.784v18a7,7,0,0,1-1.3-4.063,1.167,1.167,0,0,0-.112-.5V24.561a1.182,1.182,0,0,0,.021-.218V18.35A21.085,21.085,0,0,1,16.681,6.917c3.74-3.025,8.5-4.558,14.153-4.558a23.776,23.776,0,0,1,14.71,4.762A16.522,16.522,0,0,1,52,18.267v5.849a1.369,1.369,0,0,0,.011.147V37.785a1.179,1.179,0,0,0,1.163,1.179h.043l.114,0c4.589,0,8.322-2.943,8.322-6.56V28.82c0-3.343-3.189-6.108-7.294-6.508M17.1,36.329V27.706a33.223,33.223,0,0,0,3.89-1.036,38.74,38.74,0,0,0,5.773-2.422,35.448,35.448,0,0,0,4.532-2.8c.989.552,2.942,1.621,5.186,2.746,1.864.935,3.929,1.907,5.812,2.654a27.156,27.156,0,0,0,2.824.969v8.509c0,8.143-6.285,14.768-14.01,14.768a13.58,13.58,0,0,1-9.555-3.979h1.793a2.919,2.919,0,0,0,2.568,1.535h3.345a2.917,2.917,0,1,0,0-5.833H25.917a2.92,2.92,0,0,0-2.746,1.939H19.615A15.239,15.239,0,0,1,17.1,36.329m42.2-3.922c0,2.067-2.129,3.79-4.924,4.137V24.682c2.8.348,4.924,2.07,4.924,4.138ZM2.359,28.82c0-2.067,2.13-3.79,4.924-4.138V36.544c-2.794-.347-4.924-2.07-4.924-4.137Z" transform="translate(0 0)" fill="#13002e"/>
      </g>
    </g>
  </g>
</svg>
