<svg xmlns="http://www.w3.org/2000/svg" xmlns:xlink="http://www.w3.org/1999/xlink" width="80" height="80" viewBox="0 0 80 80">
  <defs>
    <clipPath id="clip-path">
      <rect id="Rect치ngulo_2992" data-name="Rect치ngulo 2992" width="60.493" height="60.533" transform="translate(0 0)"/>
    </clipPath>
  </defs>
  <g id="Grupo_5649" data-name="Grupo 5649" transform="translate(-1433 -2793)">
    <g id="Grupo_5647" data-name="Grupo 5647" transform="translate(1503.493 2863.533) rotate(180)">
      <g id="Grupo_5646" data-name="Grupo 5646" clip-path="url(#clip-path)">
        <path id="Trazado_37165" data-name="Trazado 37165" d="M12.6,20.2a1.343,1.343,0,0,1-.807-.3L.5,11.13A1.24,1.24,0,0,1,0,10.122,1.4,1.4,0,0,1,.5,9.114L11.9.241a1.242,1.242,0,0,1,1.312-.1,1.237,1.237,0,0,1,.7,1.108V3.77H42.848a1.311,1.311,0,1,1,0,2.621H12.6a1.333,1.333,0,0,1-1.31-1.311V3.871L3.226,10.122l8.066,6.251v-1.21a1.334,1.334,0,0,1,1.31-1.311H52.931a1.311,1.311,0,1,1,0,2.622H13.913v2.52a1.24,1.24,0,0,1-.7,1.109,1.283,1.283,0,0,1-.606.1"/>
        <path id="Trazado_37166" data-name="Trazado 37166" d="M40.328,11.433H18.954a1.311,1.311,0,1,1,0-2.622H40.429a1.335,1.335,0,0,1,1.311,1.311,1.506,1.506,0,0,1-1.412,1.311"/>
        <path id="Trazado_37167" data-name="Trazado 37167" d="M47.89,60.533a.761.761,0,0,1-.5-.1,1.242,1.242,0,0,1-.706-1.11V56.8H7.562a1.311,1.311,0,1,1,0-2.622H47.89A1.335,1.335,0,0,1,49.2,55.492V56.7l8.066-6.251L49.2,44.2v1.21a1.334,1.334,0,0,1-1.311,1.31H17.644a1.311,1.311,0,1,1,0-2.621H46.68v-2.52A1.278,1.278,0,0,1,48.7,40.571l11.292,8.872a1.242,1.242,0,0,1,.505,1.008,1.4,1.4,0,0,1-.505,1.008L48.6,60.331a1.445,1.445,0,0,1-.706.2"/>
        <path id="Trazado_37168" data-name="Trazado 37168" d="M41.639,51.761H20.164a1.311,1.311,0,0,1,0-2.621H41.639a1.334,1.334,0,0,1,1.311,1.31,1.5,1.5,0,0,1-1.311,1.311"/>
        <g id="Grupo_5648" data-name="Grupo 5648" transform="translate(1545.91 2850.899) rotate(-180)">
          <path id="Trazado_37172" data-name="Trazado 37172" d="M9.664,8.783a.786.786,0,0,1-.295-.058L.487,5.116a.782.782,0,0,1,0-1.449L9.369.058a.776.776,0,0,1,.589,0l8.881,3.609a.782.782,0,0,1,0,1.449L9.958,8.725a.779.779,0,0,1-.294.058M2.86,4.392l6.8,2.764,6.8-2.764-6.8-2.764Z" transform="translate(1507 2811)"/>
          <path id="Trazado_37173" data-name="Trazado 37173" d="M9.664,13.082a.779.779,0,0,1-.294-.058L.488,9.415A.782.782,0,0,1,0,8.69V5.4a.782.782,0,0,1,1.077-.725L9.664,8.16l8.586-3.49a.783.783,0,0,1,1.077.725V8.69a.782.782,0,0,1-.488.725L9.958,13.024a.779.779,0,0,1-.294.058m-8.1-4.918,8.1,3.291,8.1-3.291V6.558L9.958,9.73a.781.781,0,0,1-.588,0l-7.8-3.172Z" transform="translate(1507 2809.997)"/>
          <path id="Trazado_37174" data-name="Trazado 37174" d="M9.879,21.274a3.8,3.8,0,0,1-1.432-.282l-6.14-2.5A2.1,2.1,0,0,1,.991,16.541V10.008a.782.782,0,1,1,1.565,0v6.532a.545.545,0,0,0,.34.506l6.141,2.5a2.232,2.232,0,0,0,1.684,0l6.141-2.5a.545.545,0,0,0,.34-.506V10.008a.782.782,0,1,1,1.565,0v6.532A2.1,2.1,0,0,1,17.451,18.5l-6.141,2.5a3.791,3.791,0,0,1-1.431.282" transform="translate(1506.784 2808.993)"/>
          <path id="Trazado_37175" data-name="Trazado 37175" d="M12.133,21.272a.783.783,0,0,1-.782-.782V10.008a.782.782,0,1,1,1.565,0V20.49a.783.783,0,0,1-.782.782" transform="translate(1504.53 2808.993)"/>
        </g>
      </g>
    </g>
    <rect id="Rect치ngulo_2973" data-name="Rect치ngulo 2973" width="80" height="80" transform="translate(1433 2793)" fill="none"/>
  </g>
</svg>
