<svg xmlns="http://www.w3.org/2000/svg" xmlns:xlink="http://www.w3.org/1999/xlink" width="80" height="80" viewBox="0 0 80 80">
  <defs>
    <clipPath id="clip-path">
      <rect id="Rect치ngulo_2993" data-name="Rect치ngulo 2993" width="54.436" height="54.513"/>
    </clipPath>
  </defs>
  <g id="maquila" transform="translate(-1344 -2883)">
    <rect id="Rect치ngulo_2973" data-name="Rect치ngulo 2973" width="80" height="80" transform="translate(1344 2883)" fill="none"/>
    <g id="Grupo_5651" data-name="Grupo 5651" transform="translate(1357 2896)">
      <g id="Grupo_5650" data-name="Grupo 5650" transform="translate(0 0)" clip-path="url(#clip-path)">
        <path id="Trazado_37176" data-name="Trazado 37176" d="M50.508,33.33c-.065,0-.13,0-.209.007a.8.8,0,0,1-.52-.143.3.3,0,0,1-.051-.151l3.912-3.912a2.72,2.72,0,0,0,0-3.846l-4.392-4.393-.331-.042a3.443,3.443,0,0,0-.426-.027,2.272,2.272,0,0,0-2.325,2.468c0,.1,0,.176.008.224a1.782,1.782,0,0,1-.9,1.547,1.763,1.763,0,0,1-2.108-2.785,1.781,1.781,0,0,1,1.266-.516c.043,0,.109.005.2.007a2.564,2.564,0,0,0,1.932-.781,2.4,2.4,0,0,0,.512-1.97l-.042-.331-6.313-6.313-.016.016-4.461-4.46a.293.293,0,0,1,.049-.146.73.73,0,0,1,.468-.122c.039,0,.067,0,.069,0l.172.007a3.687,3.687,0,0,0,2.956-1.481A3.708,3.708,0,0,0,37,.256a3.7,3.7,0,0,0-3.7,3.785l.006.085c0,.014,0,.048,0,.077-.008.414-.117.493-.268.508L29.12.8a2.72,2.72,0,0,0-3.847,0l-4.39,4.389-.042.331a2.4,2.4,0,0,0,.513,1.971,2.585,2.585,0,0,0,1.947.783l.194-.01a1.761,1.761,0,1,1,.015,3.522,1.759,1.759,0,0,1-1.759-1.774c0-.05.009-.14.01-.269a2.255,2.255,0,0,0-2.327-2.416,3.453,3.453,0,0,0-.426.028l-.331.042-6.316,6.315.066.066-4.5,4.5c-.15-.019-.285-.114-.29-.587a3.7,3.7,0,0,0-5.655-3.338A3.731,3.731,0,0,0,.253,17.1,3.7,3.7,0,0,0,4.17,21.2h.035a.721.721,0,0,1,.452.143.3.3,0,0,1,.051.151L.8,25.407a2.722,2.722,0,0,0,0,3.846l4.392,4.393.331.041a3.35,3.35,0,0,0,.425.028,2.266,2.266,0,0,0,2.328-2.453c0-.106-.007-.188-.01-.235a1.76,1.76,0,0,1,3.154-1.085A1.761,1.761,0,0,1,10,32.777l-.187-.01a2.584,2.584,0,0,0-1.947.784,2.4,2.4,0,0,0-.513,1.971l.042.331,6.313,6.313.041-.04,4.46,4.46a.29.29,0,0,1-.051.15.812.812,0,0,1-.533.141,3.706,3.706,0,1,0,3.513,3.467c0-.012,0-.025,0-.038.022-.4.144-.487.291-.5l3.914,3.915a2.72,2.72,0,0,0,3.847,0l4.392-4.392.042-.331a2.409,2.409,0,0,0-.5-1.956,2.532,2.532,0,0,0-1.927-.8c-.169,0-.272.012-.244.01A1.76,1.76,0,0,1,29.875,43.1,1.828,1.828,0,0,1,32,43.077a1.777,1.777,0,0,1,.711,1.427c0,.037-.006.095-.01.177a2.645,2.645,0,0,0,.685,1.873,2.339,2.339,0,0,0,2.068.606l.331-.042L42.1,40.8l-.066-.066,4.477-4.477c.147.016.27.1.291.5,0,.013,0,.026,0,.038a3.71,3.71,0,1,0,3.708-3.472M19.549,9.272c.151.014.259.088.267.468,0,.077-.006.131-.006.139l0,.067a3.706,3.706,0,0,0,6.632,2.35,3.707,3.707,0,0,0-2.994-5.98h0l-.142.01a.752.752,0,0,1-.487-.125.287.287,0,0,1-.048-.145l3.883-3.883a.793.793,0,0,1,1.1,0l4.419,4.419.33.042a3.412,3.412,0,0,0,.429.028,2.261,2.261,0,0,0,2.326-2.436c0-.117-.006-.207-.01-.263A1.758,1.758,0,0,1,37,2.2a1.761,1.761,0,1,1-.008,3.522,2.689,2.689,0,0,0-2.145.772,2.4,2.4,0,0,0-.514,1.972l.041.331,4.967,4.967-1.918,1.918L34.906,18.2a.278.278,0,0,1-.151-.053.755.755,0,0,1-.117-.465l.008-.159a3.7,3.7,0,0,0-5.965-3c-.009.007-.019.011-.028.018-.081.063-.155.132-.23.2-.02.018-.041.034-.06.053a3.759,3.759,0,0,0-.3.33c-.022.027-.042.057-.064.085-.068.088-.132.179-.192.272-.013.02-.029.038-.042.059s-.03.061-.048.09q-.069.12-.128.245c-.027.057-.055.113-.079.171-.047.112-.087.227-.123.344-.007.023-.017.044-.023.067a3.665,3.665,0,0,0-.1.463c0,.013,0,.026,0,.039-.013.095-.027.19-.033.287,0,.054,0,.107,0,.161,0,.011,0,.022,0,.032a3.7,3.7,0,0,0,1.08,2.651,3.662,3.662,0,0,0,2.14,1.038h.014a3.688,3.688,0,0,0,.458.045l.174-.007c.014,0,.048,0,.077,0a.725.725,0,0,1,.457.125.288.288,0,0,1,.047.145L29.161,23.94l-1.908,1.908-4.967-4.967-.33-.042a3.449,3.449,0,0,0-.427-.028,2.321,2.321,0,0,0-2.35,2.512,1.237,1.237,0,0,0,0,.128,1.758,1.758,0,0,1-2.67,1.592,1.8,1.8,0,0,1-.688-.8,1.609,1.609,0,0,1-.068-.155c-.011-.033-.014-.069-.024-.1a1.727,1.727,0,0,1,.175-1.261,1.775,1.775,0,0,1,1.553-.9,2.687,2.687,0,0,0,2.145-.773,2.3,2.3,0,0,0,.539-1.632,3.35,3.35,0,0,0-.025-.418l-.042-.33-4.967-4.967ZM9.325,34.837a.7.7,0,0,1,.444-.127l.238.012a3.707,3.707,0,1,0-3.69-3.631l0,.068c0,.012,0,.063.006.1-.009.412-.117.492-.268.507L2.172,27.877a.775.775,0,0,1,0-1.1L6.59,22.363l.042-.331a2.421,2.421,0,0,0-.494-1.949,2.566,2.566,0,0,0-1.9-.829l-.039,0-.135.009a1.757,1.757,0,0,1-1.874-1.948A1.762,1.762,0,0,1,4.8,15.964a1.745,1.745,0,0,1,.9,1.561,1.87,1.87,0,0,0-.009.2,2.3,2.3,0,0,0,2.351,2.5,3.461,3.461,0,0,0,.427-.028l.33-.042,4.967-4.967,4.418,4.418a.246.246,0,0,1-.037.086.713.713,0,0,1-.451.143h-.036a3.678,3.678,0,0,0-3.8,4.669c.016.062.034.123.053.184s.035.1.054.151a3.576,3.576,0,0,0,.31.662,3.719,3.719,0,0,0,3.177,1.791,3.709,3.709,0,0,0,3.707-3.773l-.008-.142a.775.775,0,0,1,.117-.482.265.265,0,0,1,.151-.053l4.421,4.421h0l.01.009-4.952,4.953-.014.014-.042.331a2.4,2.4,0,0,0,.514,1.972,2.557,2.557,0,0,0,1.926.779c.173,0,.282-.015.239-.008a1.758,1.758,0,0,1,1.407.711,1.788,1.788,0,0,1,.169,1.8c-.019.039-.036.079-.058.116a1.574,1.574,0,0,1-.089.137,2.379,2.379,0,0,1-.269.3,1.851,1.851,0,0,1-.172.133c-.049.034-.1.068-.15.1a1.6,1.6,0,0,1-.289.124c-.033.011-.064.026-.1.035a1.753,1.753,0,0,1-1.312-.166,1.78,1.78,0,0,1-.9-1.546c0-.048.008-.125.008-.224a2.272,2.272,0,0,0-2.325-2.468,3.45,3.45,0,0,0-.427.027l-.331.042-4.981,4.981L9.277,34.983a.28.28,0,0,1,.049-.145m25.591,10.4a.272.272,0,0,1-.15-.053.745.745,0,0,1-.121-.443l.011-.181a3.706,3.706,0,0,0-1.481-3.032,3.827,3.827,0,0,0-4.5.037,3.707,3.707,0,0,0-.347,5.548,3.678,3.678,0,0,0,2.62,1.084l.141,0,.1-.006a.718.718,0,0,1,.455.125.293.293,0,0,1,.048.146l-3.885,3.885a.794.794,0,0,1-1.1,0L22.3,47.922l-.331-.042a3.417,3.417,0,0,0-.425-.027,2.3,2.3,0,0,0-2.353,2.426l0,.038.009.134a1.763,1.763,0,1,1-3.294-.743,1.773,1.773,0,0,1,1.528-.892h.048a.783.783,0,0,0,.183.007,2.637,2.637,0,0,0,1.965-.809,2.41,2.41,0,0,0,.51-1.968l-.042-.33-4.967-4.967,1.5-1.5,2.92-2.92c.15.014.258.09.267.487,0,.049,0,.084,0,.086L19.8,37a3.662,3.662,0,0,0,2.729,3.64l.051.016a3.636,3.636,0,0,0,.443.083c.034,0,.068.007.1.01a3.6,3.6,0,0,0,.378.037,3.7,3.7,0,0,0,1.449-.3l.072-.03a3.719,3.719,0,0,0,.365-.19c.014-.008.029-.014.043-.022l.013-.009a3.788,3.788,0,0,0,.313-.218l.032-.024c.086-.068.167-.141.248-.216.026-.025.055-.048.08-.073.055-.054.105-.114.157-.172s.093-.1.135-.154l.021-.024c.012-.016.02-.034.033-.05a3.755,3.755,0,0,0,.284-.435l.026-.045a3.687,3.687,0,0,0-.637-4.378c-.071-.071-.155-.125-.231-.189-.027-.023-.055-.045-.082-.068a3.621,3.621,0,0,0-.545-.362c-.057-.031-.113-.063-.172-.091-.1-.049-.206-.1-.314-.135a3.657,3.657,0,0,0-.461-.136c-.094-.021-.19-.036-.287-.051s-.22-.025-.331-.031c-.089-.006-.173-.025-.264-.025h0l-.157.008a.742.742,0,0,1-.473-.122.282.282,0,0,1-.048-.145l2.513-2.513,1.918-1.918,4.967,4.967.331.042a3.441,3.441,0,0,0,.426.027,2.272,2.272,0,0,0,2.326-2.468c0-.1,0-.179-.008-.228a1.753,1.753,0,0,1,.711-1.419,1.824,1.824,0,0,1,2.124.021,1.8,1.8,0,0,1,.48.568,1.749,1.749,0,0,1-.332,2.02,1.77,1.77,0,0,1-1.265.514c-.051,0-.139-.008-.263-.009a2.5,2.5,0,0,0-1.888.8,2.407,2.407,0,0,0-.5,1.955l.042.331.02.02,0,.034L39.348,40.8Zm17.092-7.289A1.77,1.77,0,0,1,50.5,38.8a1.746,1.746,0,0,1-1.244-.516,1.789,1.789,0,0,1-.508-1.417l.006-.062,0-.062a2.3,2.3,0,0,0-2.353-2.426,3.423,3.423,0,0,0-.425.027l-.33.042-4.967,4.967-4.4-4.4a.267.267,0,0,1,.043-.121.694.694,0,0,1,.436-.124c.05,0,.085,0,.087,0l.185.008a3.67,3.67,0,0,0,2.612-1.084,3.776,3.776,0,0,0-.37-5.6,3.826,3.826,0,0,0-4.5-.037,3.705,3.705,0,0,0-1.481,3.031l.01.135a.8.8,0,0,1-.12.49.274.274,0,0,1-.151.053L28.6,27.274h0l-.009-.009L33.555,22.3l.014-.014.042-.331a2.4,2.4,0,0,0-.513-1.971,2.557,2.557,0,0,0-1.927-.78c-.145,0-.243.009-.243.009h.011a1.761,1.761,0,0,1-1.539-.9,1.6,1.6,0,0,1-.167-.4c0-.013-.007-.025-.01-.038a1.74,1.74,0,0,1-.049-.411c0-.012,0-.024,0-.036a1.71,1.71,0,0,1,.232-.836c.019-.033.043-.063.064-.094a1.89,1.89,0,0,1,.194-.243c.038-.04.077-.078.119-.114a1.783,1.783,0,0,1,.207-.157,1.828,1.828,0,0,1,1.989.066,1.753,1.753,0,0,1,.711,1.419c0,.049-.008.127-.008.227a2.819,2.819,0,0,0,.346,1.392,2.057,2.057,0,0,0,1.028.88c.04.017.082.032.125.047a2.406,2.406,0,0,0,.434.1c.053.008.108.014.164.018.077.007.148.026.228.026a3.441,3.441,0,0,0,.426-.027l.331-.042.014-.014,4.953-4.953,4.431,4.431a.289.289,0,0,1-.048.145.742.742,0,0,1-.474.122l-.207-.008a3.71,3.71,0,1,0,3.688,3.63l0-.076c0-.011,0-.039,0-.078,0-.418.119-.5.266-.518l3.887,3.887a.775.775,0,0,1,0,1.1l-4.419,4.419-.042.33a2.408,2.408,0,0,0,.509,1.967,2.641,2.641,0,0,0,1.975.81c.073,0,.134,0,.128,0l.093,0a1.774,1.774,0,0,1,1.529.893,1.74,1.74,0,0,1-.029,1.779" transform="translate(0 0)"/>
      </g>
    </g>
  </g>
</svg>
