<svg xmlns="http://www.w3.org/2000/svg" width="65.229" height="95.366" viewBox="0 0 65.229 95.366">
  <g id="cobranza" transform="translate(-718.403 349.67)">
    <g id="Grupo_4568" data-name="Grupo 4568" transform="translate(718.403 -349.67)">
      <g id="Grupo_4566" data-name="Grupo 4566" transform="translate(10.944)">
        <g id="Grupo_4565" data-name="Grupo 4565">
          <g id="Grupo_4564" data-name="Grupo 4564" transform="translate(1.408)">
            <path id="Trazado_34054" data-name="Trazado 34054" d="M836.234-294.111a4.407,4.407,0,0,1-4.4-4.4.942.942,0,0,1,.942-.942.942.942,0,0,1,.942.942A2.52,2.52,0,0,0,836.234-296a2.52,2.52,0,0,0,2.517-2.517v-9.6a2.52,2.52,0,0,0-2.517-2.517,2.52,2.52,0,0,0-2.517,2.517.942.942,0,0,1-.942.942.942.942,0,0,1-.942-.942,4.407,4.407,0,0,1,4.4-4.4,4.406,4.406,0,0,1,4.4,4.4v9.6A4.406,4.406,0,0,1,836.234-294.111Z" transform="translate(-800.232 326.909)" fill="#fff"/>
            <path id="Trazado_34055" data-name="Trazado 34055" d="M754.68-294.039a4.407,4.407,0,0,1-4.4-4.4v-9.6a4.407,4.407,0,0,1,4.4-4.4,4.407,4.407,0,0,1,4.4,4.4.942.942,0,0,1-.942.942.942.942,0,0,1-.942-.942,2.52,2.52,0,0,0-2.517-2.517,2.52,2.52,0,0,0-2.517,2.517v9.6a2.52,2.52,0,0,0,2.517,2.517,2.52,2.52,0,0,0,2.517-2.517.942.942,0,0,1,.942-.942.942.942,0,0,1,.942.942A4.407,4.407,0,0,1,754.68-294.039Z" transform="translate(-750.279 326.865)" fill="#fff"/>
            <path id="Trazado_34056" data-name="Trazado 34056" d="M782.26-298.077h-1.742A12.433,12.433,0,0,1,768.1-310.5l0-9.226c0-.89,0-1.408.024-1.729h-.02a12.482,12.482,0,0,1,12.413-12.159h1.742a12.419,12.419,0,0,1,12.4,11.711c0,.017,0,.034,0,.051l.02,11.35A12.434,12.434,0,0,1,782.26-298.077ZM769.989-321.4c0,.372-.005,7.982-.005,10.9a10.546,10.546,0,0,0,10.534,10.534h1.742A10.547,10.547,0,0,0,792.795-310.5l-.02-11.323a10.534,10.534,0,0,0-10.515-9.908h-1.742a10.588,10.588,0,0,0-10.529,10.314Z" transform="translate(-761.194 339.834)" fill="#fff"/>
            <path id="Trazado_34057" data-name="Trazado 34057" d="M788.16-346.293l.57-2.2a.943.943,0,0,0-.167-.813.941.941,0,0,0-.745-.365H769.229A11.282,11.282,0,0,0,757.96-338.4v10.575a.943.943,0,0,0,.94.942l4.5.011v-1.885l-3.555-.009V-338.4a9.4,9.4,0,0,1,9.384-9.384H786.6l-.476,1.836a.942.942,0,0,0,.63,1.135,6.078,6.078,0,0,1,4.253,5.725V-328.7l-4.122-.01v1.884l5.062.013h0a.944.944,0,0,0,.666-.275.944.944,0,0,0,.277-.667v-11.339A7.976,7.976,0,0,0,788.16-346.293Z" transform="translate(-754.984 349.67)" fill="#fff"/>
          </g>
          <path id="Trazado_34058" data-name="Trazado 34058" d="M749.413-224.976a18.487,18.487,0,0,1,11.452-4.258l15.132-.2a18.685,18.685,0,0,1,11.127,4.458h2.741a20.553,20.553,0,0,0-13.8-6.341l-.064,0-15.175.2a20.33,20.33,0,0,0-14.185,6.142Z" transform="translate(-746.646 277.177)" fill="#fff"/>
        </g>
        <path id="Trazado_34059" data-name="Trazado 34059" d="M778.422-270.828c-2.443,0-5.546-.4-7.747-2.114a6.988,6.988,0,0,1-2.681-5.154.942.942,0,0,1,.86-1.018.942.942,0,0,1,1.018.859,5.108,5.108,0,0,0,1.96,3.824c2.431,1.889,6.863,1.964,9.921,1.455a.942.942,0,0,1,1.085.774.942.942,0,0,1-.775,1.085A23.1,23.1,0,0,1,778.422-270.828Z" transform="translate(-759.72 306.455)" fill="#fff"/>
      </g>
      <g id="Grupo_4567" data-name="Grupo 4567" transform="translate(0 52.202)">
        <path id="Trazado_34060" data-name="Trazado 34060" d="M783.526-176.993H721.505a.942.942,0,0,1-.942-.942v-32.3a4.717,4.717,0,0,1,4.711-4.711h54.482a4.716,4.716,0,0,1,4.711,4.711v32.3A.942.942,0,0,1,783.526-176.993Zm-61.078-1.884h60.136v-31.362a2.83,2.83,0,0,0-2.827-2.827H725.274a2.83,2.83,0,0,0-2.827,2.827Z" transform="translate(-719.726 214.95)" fill="#fff"/>
        <path id="Trazado_34061" data-name="Trazado 34061" d="M777.568-120.19h-53.1c-3.4,0-6.067-4.209-6.067-9.583a.942.942,0,0,1,.942-.942H782.69a.942.942,0,0,1,.942.942C783.632-124.4,780.968-120.19,777.568-120.19Zm-57.247-8.641c.262,3.748,2.056,6.757,4.15,6.757h53.1c2.093,0,3.886-3.008,4.147-6.757Z" transform="translate(-718.403 163.355)" fill="#fff"/>
      </g>
    </g>
  </g>
</svg>
