<svg xmlns="http://www.w3.org/2000/svg" width="58.371" height="72.964" viewBox="0 0 58.371 72.964">
  <path id="request_quote_FILL0_wght400_GRAD0_opsz48" d="M34.449,65.928h5.472V62.28h5.472a2.652,2.652,0,0,0,2.736-2.736V47.687a2.652,2.652,0,0,0-2.736-2.736H31.713V38.566H48.13V33.094H39.922V29.446H34.449v3.648H28.977a2.652,2.652,0,0,0-2.736,2.736V47.687a2.652,2.652,0,0,0,2.736,2.736H42.658v6.384H26.241V62.28h8.208ZM13.472,76.964a5.25,5.25,0,0,1-3.831-1.642A5.25,5.25,0,0,1,8,71.491V9.472A5.25,5.25,0,0,1,9.642,5.642,5.25,5.25,0,0,1,13.472,4H46.4L66.371,23.974V71.491A5.611,5.611,0,0,1,60.9,76.964Zm28.365-52.99V9.472H13.472V71.491H60.9V23.974ZM13.472,9.472v0Z" transform="translate(-8 -4)" fill="#3a4081"/>
</svg>
