<svg xmlns="http://www.w3.org/2000/svg" width="91.896" height="91.23" viewBox="0 0 91.896 91.23">
  <g id="encuestas" transform="translate(-1639.758 823.244)">
    <path id="Trazado_34062" data-name="Trazado 34062" d="M1722.84-732.014h-74.269a8.824,8.824,0,0,1-8.814-8.814v-73.6a8.824,8.824,0,0,1,8.814-8.814h74.269a8.823,8.823,0,0,1,8.813,8.814v73.6A8.824,8.824,0,0,1,1722.84-732.014Zm-74.269-88.443a6.033,6.033,0,0,0-6.026,6.026v73.6a6.033,6.033,0,0,0,6.026,6.026h74.269a6.033,6.033,0,0,0,6.026-6.026v-73.6a6.033,6.033,0,0,0-6.026-6.026Z" transform="translate(0 0)" fill="#3a4081"/>
    <path id="Trazado_34063" data-name="Trazado 34063" d="M1712.516-746.867h-24.391a3.624,3.624,0,0,1-3.62-3.619v-24.391a3.624,3.624,0,0,1,3.62-3.62h24.391a3.624,3.624,0,0,1,3.619,3.62v24.391A3.623,3.623,0,0,1,1712.516-746.867Zm-24.391-28.843a.833.833,0,0,0-.832.832v24.391a.833.833,0,0,0,.832.832h24.391a.833.833,0,0,0,.832-.832v-24.391a.833.833,0,0,0-.832-.832Z" transform="translate(-33.617 -33.617)" fill="#3a4081"/>
    <path id="Trazado_34064" data-name="Trazado 34064" d="M1865.317-746.867h-24.391a3.624,3.624,0,0,1-3.62-3.619v-24.391a3.624,3.624,0,0,1,3.62-3.62h24.391a3.624,3.624,0,0,1,3.62,3.62v24.391A3.624,3.624,0,0,1,1865.317-746.867Zm-24.391-28.843a.833.833,0,0,0-.832.832v24.391a.833.833,0,0,0,.832.832h24.391a.833.833,0,0,0,.832-.832v-24.391a.833.833,0,0,0-.832-.832Z" transform="translate(-148.413 -33.617)" fill="#3a4081"/>
    <path id="Trazado_34065" data-name="Trazado 34065" d="M1712.516-596.741h-24.391a3.624,3.624,0,0,1-3.62-3.62v-24.391a3.624,3.624,0,0,1,3.62-3.62h24.391a3.623,3.623,0,0,1,3.619,3.62v24.391A3.624,3.624,0,0,1,1712.516-596.741Zm-24.391-28.843a.833.833,0,0,0-.832.832v24.391a.833.833,0,0,0,.832.832h24.391a.833.833,0,0,0,.832-.832v-24.391a.833.833,0,0,0-.832-.832Z" transform="translate(-33.617 -146.403)" fill="#3a4081"/>
    <path id="Trazado_34066" data-name="Trazado 34066" d="M1865.317-596.741h-24.391a3.624,3.624,0,0,1-3.62-3.62v-24.391a3.624,3.624,0,0,1,3.62-3.62h24.391a3.624,3.624,0,0,1,3.62,3.62v24.391A3.624,3.624,0,0,1,1865.317-596.741Zm-24.391-28.843a.833.833,0,0,0-.832.832v24.391a.833.833,0,0,0,.832.832h24.391a.833.833,0,0,0,.832-.832v-24.391a.833.833,0,0,0-.832-.832Z" transform="translate(-148.413 -146.403)" fill="#3a4081"/>
    <path id="Trazado_34067" data-name="Trazado 34067" d="M1714.885-730.617a1.394,1.394,0,0,1-1.051-.478l-6.583-7.556a1.394,1.394,0,0,1,.135-1.966,1.394,1.394,0,0,1,1.966.135l5.532,6.349,10.065-11.551a1.394,1.394,0,0,1,1.967-.135,1.394,1.394,0,0,1,.135,1.966l-11.116,12.758A1.394,1.394,0,0,1,1714.885-730.617Z" transform="translate(-50.448 -57.91)" fill="#3a4081"/>
    <path id="Trazado_34068" data-name="Trazado 34068" d="M1867.686-730.617a1.394,1.394,0,0,1-1.051-.478l-6.583-7.556a1.394,1.394,0,0,1,.135-1.966,1.394,1.394,0,0,1,1.966.135l5.532,6.349,10.065-11.551a1.394,1.394,0,0,1,1.966-.135,1.394,1.394,0,0,1,.135,1.966l-11.115,12.758A1.394,1.394,0,0,1,1867.686-730.617Z" transform="translate(-165.244 -57.91)" fill="#3a4081"/>
    <path id="Trazado_34069" data-name="Trazado 34069" d="M1714.432-586.976a2.877,2.877,0,0,1-1.442-.391,2.853,2.853,0,0,1-1.441-2.5v-16.19a2.853,2.853,0,0,1,1.441-2.5,2.854,2.854,0,0,1,2.883,0l14.022,8.1a2.854,2.854,0,0,1,1.441,2.5,2.853,2.853,0,0,1-1.442,2.5l-14.021,8.1A2.878,2.878,0,0,1,1714.432-586.976Zm0-19.175a.1.1,0,0,0-.049.015.082.082,0,0,0-.047.082v16.19a.082.082,0,0,0,.047.082.082.082,0,0,0,.1,0l14.021-8.1a.083.083,0,0,0,.048-.082.082.082,0,0,0-.047-.082h0l-14.021-8.1A.09.09,0,0,0,1714.433-606.151Z" transform="translate(-53.935 -161)" fill="#3a4081"/>
  </g>
</svg>
