<svg xmlns="http://www.w3.org/2000/svg" width="105.994" height="77.848" viewBox="0 0 105.994 77.848">
  <g id="fidelizacion-lealtda" transform="translate(-2660.773 222.908)">
    <g id="Grupo_4553" data-name="Grupo 4553" transform="translate(2660.773 -222.908)">
      <path id="Trazado_34038" data-name="Trazado 34038" d="M2722.4-133.136a6,6,0,0,1-3.567-1.2l-.045-.035-46.469-38.214a1.055,1.055,0,0,1-.377-.945,1.055,1.055,0,0,1,.6-.825,1.989,1.989,0,0,0,.759-.646l17.239-23.971a20.875,20.875,0,0,1,2.17-2.551,1.048,1.048,0,0,1,.557-.283,4.275,4.275,0,0,1,1.78.217,9.629,9.629,0,0,0,2.607.387c13.21-.111,21.369.942,24.941,3.219,1.631,1.039,22.645,23.552,26.976,28.2l3.791,3.15a5.684,5.684,0,0,1,1.891,4.046,7.261,7.261,0,0,1-1.642,5.041h0a7.581,7.581,0,0,1-5.773,2.8,6.848,6.848,0,0,1-1.189,6.67c-1.922,2.315-5.422,2.646-7.665,1.885a7.558,7.558,0,0,1,.064.794,6.748,6.748,0,0,1-1.42,4.564,6.64,6.64,0,0,1-8.866,1.269c-.113-.075-.236-.164-.369-.263a6.24,6.24,0,0,1-1.11,4.159,5.988,5.988,0,0,1-3.893,2.438A5.855,5.855,0,0,1,2722.4-133.136Zm-2.294-2.881a3.791,3.791,0,0,0,2.924.715,3.839,3.839,0,0,0,2.5-1.546c1.777-2.6.052-5.25-.933-6.245l-.253-.236a1.057,1.057,0,0,1-.063-1.476,1.056,1.056,0,0,1,1.474-.1q.175.15.35.325a47.244,47.244,0,0,0,3.823,3.265,4.554,4.554,0,0,0,6.08-.878,4.687,4.687,0,0,0,.921-3.143,4.836,4.836,0,0,0-1.615-3.555h0a1.057,1.057,0,0,1-.114-1.489,1.057,1.057,0,0,1,1.489-.114h0l0,0,2.326,2c1.1.822,4.469.914,6-.926a4.729,4.729,0,0,0-.689-6.707,1.053,1.053,0,0,1-.369-.8,1.053,1.053,0,0,1,.255-.686,1.056,1.056,0,0,1,1.489-.114c1.8,1.542,4.282,1.062,6.329-1.223a5.126,5.126,0,0,0,1.106-3.51,3.646,3.646,0,0,0-1.158-2.565l-3.818-3.171a.986.986,0,0,1-.1-.092c-9.984-10.714-25.312-26.99-26.622-27.914-3.162-2.016-11.175-2.991-23.777-2.881a11.772,11.772,0,0,1-3.152-.454c-.2-.052-.451-.116-.643-.153a19.63,19.63,0,0,0-1.623,1.957l-17.24,23.973a4.294,4.294,0,0,1-.322.394Zm32.713-22.228h0Z" transform="translate(-2667.088 210.984)" fill="#3a4081"/>
      <path id="Trazado_34039" data-name="Trazado 34039" d="M2826.954-108.455a1.053,1.053,0,0,1-.667-.238l-9.132-7.453a1.056,1.056,0,0,1-.15-1.486,1.057,1.057,0,0,1,1.486-.151l9.132,7.453a1.056,1.056,0,0,1,.15,1.486A1.052,1.052,0,0,1,2826.954-108.455Z" transform="translate(-2749.022 163.57)" fill="#3a4081"/>
      <path id="Trazado_34040" data-name="Trazado 34040" d="M2808.959-89.9a1.05,1.05,0,0,1-.686-.254l-7.012-6a1.056,1.056,0,0,1-.115-1.489,1.056,1.056,0,0,1,1.489-.116l7.012,6a1.056,1.056,0,0,1,.115,1.489A1.053,1.053,0,0,1,2808.959-89.9Z" transform="translate(-2740.041 152.249)" fill="#3a4081"/>
      <path id="Trazado_34041" data-name="Trazado 34041" d="M2790.868-71.221a1.052,1.052,0,0,1-.739-.3l-1.573-1.543a1.056,1.056,0,0,1-.015-1.493,1.056,1.056,0,0,1,1.493-.015l1.573,1.543a1.056,1.056,0,0,1,.015,1.493A1.054,1.054,0,0,1,2790.868-71.221Z" transform="translate(-2732.883 139.163)" fill="#3a4081"/>
      <g id="Grupo_4552" data-name="Grupo 4552">
        <path id="Trazado_34042" data-name="Trazado 34042" d="M2670.5-179.527a4.218,4.218,0,0,1-2.566-.876l-.039-.031-6.75-5.666a1.056,1.056,0,0,1-.13-1.488,1.056,1.056,0,0,1,1.488-.129l6.729,5.648a2.115,2.115,0,0,0,1.609.4,2.263,2.263,0,0,0,1.508-.975l18.528-26.876a2.554,2.554,0,0,0-.494-3.449l-10.142-8.057a1.056,1.056,0,0,1-.17-1.483,1.056,1.056,0,0,1,1.484-.17l10.125,8.044a4.684,4.684,0,0,1,.936,6.315l-18.527,26.876a4.355,4.355,0,0,1-2.915,1.862A4.256,4.256,0,0,1,2670.5-179.527Z" transform="translate(-2660.773 222.908)" fill="#3a4081"/>
      </g>
    </g>
    <path id="Trazado_34043" data-name="Trazado 34043" d="M2785.4-161.627a1.054,1.054,0,0,1-.663-.234l-27.579-22.265a3.265,3.265,0,0,0-3.486-.386L2736.8-176.18a7.412,7.412,0,0,1-10.1-2.634c-.008-.013-.015-.026-.022-.04a7.329,7.329,0,0,1-.774-5.575,7.353,7.353,0,0,1,3.406-4.526.908.908,0,0,1,.083-.044l16.29-7.752a33.041,33.041,0,0,1,17.59-2.995c2.5.228,6.577.9,7.6,1.153a1.056,1.056,0,0,1,.776,1.276,1.056,1.056,0,0,1-1.276.776c-.833-.2-4.784-.874-7.292-1.1a30.67,30.67,0,0,0-16.52,2.812l-16.216,7.717a5.255,5.255,0,0,0-2.395,3.211,5.253,5.253,0,0,0,.566,4.008c.008.013.015.026.022.04a5.29,5.29,0,0,0,7.226,1.834c.022-.013.045-.026.069-.037l16.9-8.348a5.384,5.384,0,0,1,5.749.636l27.049,21.838,5.831-2.929a1.055,1.055,0,0,1,1.417.47,1.056,1.056,0,0,1-.469,1.417l-6.438,3.234A1.059,1.059,0,0,1,2785.4-161.627Z" transform="translate(-36.713 -13.007)" fill="#3a4081"/>
    <g id="Grupo_4556" data-name="Grupo 4556" transform="translate(2672.662 -182.701)">
      <path id="Trazado_34044" data-name="Trazado 34044" d="M2752.351-68.823a5.973,5.973,0,0,1-4.63-2.212,6.321,6.321,0,0,1-1.409-3.89,6.246,6.246,0,0,1,2.124-4.811L2752.455-83a5.861,5.861,0,0,1,4.368-1.437,5.93,5.93,0,0,1,4.122,2.2,6.336,6.336,0,0,1-.714,8.7l-.039.033-4.883,3.87a1.041,1.041,0,0,1-.147.1A5.824,5.824,0,0,1,2752.351-68.823Zm3.973-13.527a3.772,3.772,0,0,0-2.494.948l-.029.024-4,3.256a4.124,4.124,0,0,0-1.372,3.166,4.2,4.2,0,0,0,.934,2.585,3.813,3.813,0,0,0,4.712,1.014l4.788-3.795a4.206,4.206,0,0,0,.448-5.76,3.833,3.833,0,0,0-2.662-1.425Q2756.483-82.349,2756.324-82.35Zm-3.189.153h0Z" transform="translate(-2721.053 104.379)" fill="#3a4081"/>
      <path id="Trazado_34045" data-name="Trazado 34045" d="M2694.177-113.037c-.168,0-.337-.007-.506-.022a5.925,5.925,0,0,1-4.119-2.195,6.337,6.337,0,0,1,.714-8.7l6.888-5.544a1.028,1.028,0,0,1,.153-.1,5.922,5.922,0,0,1,7.442,1.49,6.314,6.314,0,0,1,1.408,3.89,6.24,6.24,0,0,1-2.124,4.81l-.024.02-5.978,4.906A5.835,5.835,0,0,1,2694.177-113.037Zm4.224-14.754-6.778,5.454a4.2,4.2,0,0,0-.434,5.75,3.833,3.833,0,0,0,2.661,1.424,3.772,3.772,0,0,0,2.817-.934l5.99-4.916a4.132,4.132,0,0,0,1.388-3.179,4.194,4.194,0,0,0-.933-2.585A3.814,3.814,0,0,0,2698.4-127.792Zm4.938,7.584h0Z" transform="translate(-2688.15 130.324)" fill="#3a4081"/>
      <g id="Grupo_4554" data-name="Grupo 4554" transform="translate(14.948 10.412)">
        <path id="Trazado_34046" data-name="Trazado 34046" d="M2728.6-85.642c-.168,0-.335-.007-.5-.022a5.928,5.928,0,0,1-4.119-2.195,6.317,6.317,0,0,1-1.407-3.888,6.25,6.25,0,0,1,2.122-4.812l7.743-6.446,2.146-1.873a5.861,5.861,0,0,1,4.385-1.447,5.929,5.929,0,0,1,4.12,2.194,6.338,6.338,0,0,1-.714,8.7l-6,4.925-3.887,3.394A5.872,5.872,0,0,1,2728.6-85.642Zm9.864-18.594a3.777,3.777,0,0,0-2.5.948l-2.154,1.881-.019.016-7.734,6.439a4.129,4.129,0,0,0-1.38,3.175,4.2,4.2,0,0,0,.932,2.584,3.833,3.833,0,0,0,2.661,1.425,3.768,3.768,0,0,0,2.816-.935L2735-92.117l6-4.925a4.2,4.2,0,0,0,.441-5.756,3.835,3.835,0,0,0-2.661-1.424Q2738.627-104.236,2738.467-104.236Zm-5.345,2.034h0Z" transform="translate(-2722.571 106.348)" fill="#3a4081"/>
      </g>
      <g id="Grupo_4555" data-name="Grupo 4555" transform="translate(6.4 4.437)">
        <path id="Trazado_34047" data-name="Trazado 34047" d="M2708.914-99.4q-.251,0-.5-.021a5.93,5.93,0,0,1-4.121-2.194,6.334,6.334,0,0,1,.715-8.7l5.99-4.916,3.9-3.4a5.861,5.861,0,0,1,4.385-1.447,5.926,5.926,0,0,1,4.118,2.194A6.316,6.316,0,0,1,2724.8-114a6.246,6.246,0,0,1-2.124,4.811l-7.752,6.454-2.136,1.865A5.864,5.864,0,0,1,2708.914-99.4Zm9.863-18.593a3.776,3.776,0,0,0-2.5.948l-3.91,3.414-.025.021-5.978,4.906a4.2,4.2,0,0,0-.441,5.755,3.831,3.831,0,0,0,2.662,1.424,3.768,3.768,0,0,0,2.815-.934l2.155-1.882,7.753-6.454a4.128,4.128,0,0,0,1.381-3.174,4.2,4.2,0,0,0-.933-2.585,3.834,3.834,0,0,0-2.66-1.424Q2718.936-117.994,2718.776-117.994Zm-7.1,3.567h0Z" transform="translate(-2702.887 120.106)" fill="#3a4081"/>
      </g>
      <path id="Trazado_34048" data-name="Trazado 34048" d="M2707.984-102.443a1.054,1.054,0,0,1-.817-.386,1.057,1.057,0,0,1,.146-1.487l5.978-4.906a1.056,1.056,0,0,1,1.487.146,1.057,1.057,0,0,1-.146,1.487l-5.978,4.906A1.054,1.054,0,0,1,2707.984-102.443Z" transform="translate(-2698.773 118.521)" fill="#3a4081"/>
    </g>
    <path id="Trazado_34049" data-name="Trazado 34049" d="M2848.543-174.195a4.036,4.036,0,0,1-1.455-.278,5.143,5.143,0,0,1-2.556-2.248L2827.4-206.374c-1.292-2.234-.8-4.944,1.1-6.041l12.727-7.288a1.056,1.056,0,0,1,1.441.391,1.056,1.056,0,0,1-.392,1.441l-12.723,7.287c-.871.5-1.021,1.948-.323,3.154l17.135,29.653a3.071,3.071,0,0,0,1.489,1.335,1.617,1.617,0,0,0,1.408-.043l9.758-5.955a1.056,1.056,0,0,1,1.451.351,1.056,1.056,0,0,1-.352,1.451l-9.779,5.968A3.566,3.566,0,0,1,2848.543-174.195Z" transform="translate(-93.856 -1.734)" fill="#3a4081"/>
  </g>
</svg>
