<svg xmlns="http://www.w3.org/2000/svg" width="85.328" height="91.663" viewBox="0 0 85.328 91.663">
  <g id="soporte_técnico" data-name="soporte técnico" transform="translate(-466.374 268.954)">
    <g id="Grupo_4559" data-name="Grupo 4559" transform="translate(468.659 -231.271)">
      <path id="Trazado_34051" data-name="Trazado 34051" d="M503.92-125.62a4.2,4.2,0,0,1-1.848-.431,4.18,4.18,0,0,1-2.128-2.415l-.842-2.46a21.51,21.51,0,0,1-3.362-.213L494.6-128.8a4.209,4.209,0,0,1-5.628,1.926l-4.511-2.212a4.177,4.177,0,0,1-2.128-2.415,4.177,4.177,0,0,1,.2-3.212l1.144-2.335a21.618,21.618,0,0,1-2.228-2.527l-2.46.842a4.179,4.179,0,0,1-3.212-.2,4.181,4.181,0,0,1-2.128-2.415l-1.626-4.754a4.179,4.179,0,0,1,.2-3.212,4.179,4.179,0,0,1,2.415-2.128l2.46-.842a21.6,21.6,0,0,1,.213-3.362l-2.335-1.145a4.18,4.18,0,0,1-2.128-2.415,4.177,4.177,0,0,1,.2-3.212l2.212-4.511a4.179,4.179,0,0,1,2.415-2.128,4.177,4.177,0,0,1,3.212.2l2.335,1.145a21.633,21.633,0,0,1,2.527-2.228l-.842-2.46a4.211,4.211,0,0,1,2.618-5.341l4.753-1.627a4.21,4.21,0,0,1,5.341,2.618l.842,2.46a21.614,21.614,0,0,1,3.362.213l1.145-2.335a4.178,4.178,0,0,1,2.415-2.128,4.178,4.178,0,0,1,3.213.2l4.511,2.211a4.178,4.178,0,0,1,2.128,2.415,4.179,4.179,0,0,1-.2,3.212l-1.145,2.335a21.63,21.63,0,0,1,2.228,2.527l2.46-.841a4.179,4.179,0,0,1,3.213.2,4.179,4.179,0,0,1,2.128,2.415l1.626,4.753a4.21,4.21,0,0,1-2.618,5.341l-2.46.842a21.65,21.65,0,0,1-.213,3.362l2.335,1.145a4.177,4.177,0,0,1,2.128,2.415,4.177,4.177,0,0,1-.2,3.212l-2.211,4.511a4.212,4.212,0,0,1-5.628,1.926l-2.335-1.145a21.633,21.633,0,0,1-2.527,2.228l.842,2.46h0a4.18,4.18,0,0,1-.2,3.213,4.18,4.18,0,0,1-2.415,2.128l-4.753,1.626A4.215,4.215,0,0,1,503.92-125.62Zm-4.668-7.767a2.227,2.227,0,0,1,2.121,1.5l.9,2.621a1.751,1.751,0,0,0,2.22,1.088l4.754-1.626a1.738,1.738,0,0,0,1-.884,1.739,1.739,0,0,0,.084-1.336l-.9-2.621a2.228,2.228,0,0,1,.8-2.518,19.194,19.194,0,0,0,2.442-2.153,2.228,2.228,0,0,1,2.6-.473l2.489,1.22a1.75,1.75,0,0,0,2.339-.8l2.211-4.511a1.736,1.736,0,0,0,.084-1.335,1.736,1.736,0,0,0-.884-1l-2.489-1.22a2.227,2.227,0,0,1-1.217-2.344,19.111,19.111,0,0,0,.206-3.248,2.228,2.228,0,0,1,1.5-2.172l2.622-.9a1.75,1.75,0,0,0,1.088-2.22l-1.627-4.753a1.737,1.737,0,0,0-.884-1,1.736,1.736,0,0,0-1.335-.084l-2.622.9a2.228,2.228,0,0,1-2.518-.8,19.144,19.144,0,0,0-2.153-2.442,2.228,2.228,0,0,1-.473-2.6l1.22-2.489a1.738,1.738,0,0,0,.084-1.335,1.738,1.738,0,0,0-.885-1l-4.511-2.211a1.737,1.737,0,0,0-1.336-.084,1.735,1.735,0,0,0-1,.884l-1.22,2.489a2.23,2.23,0,0,1-2.343,1.218,19.179,19.179,0,0,0-3.249-.206,2.235,2.235,0,0,1-2.171-1.5l-.9-2.621a1.737,1.737,0,0,0-.884-1,1.738,1.738,0,0,0-1.335-.084l-4.753,1.627a1.75,1.75,0,0,0-1.088,2.22l.9,2.621a2.228,2.228,0,0,1-.8,2.518,19.208,19.208,0,0,0-2.441,2.153,2.227,2.227,0,0,1-2.6.473l-2.489-1.22a1.74,1.74,0,0,0-1.335-.084,1.736,1.736,0,0,0-1,.885l-2.211,4.511a1.739,1.739,0,0,0-.084,1.336,1.737,1.737,0,0,0,.885,1l2.489,1.22a2.228,2.228,0,0,1,1.218,2.343,19.121,19.121,0,0,0-.206,3.249,2.23,2.23,0,0,1-1.5,2.172l-2.622.9a1.737,1.737,0,0,0-1,.884,1.736,1.736,0,0,0-.084,1.335l1.626,4.753a1.751,1.751,0,0,0,2.22,1.088l2.621-.9a2.228,2.228,0,0,1,2.518.8,19.2,19.2,0,0,0,2.153,2.441,2.227,2.227,0,0,1,.473,2.6l-1.219,2.488a1.734,1.734,0,0,0-.084,1.335,1.735,1.735,0,0,0,.884,1l4.511,2.211a1.734,1.734,0,0,0,1.335.084,1.737,1.737,0,0,0,1-.885l1.22-2.488a2.226,2.226,0,0,1,2.344-1.218,19.13,19.13,0,0,0,3.249.206Zm-.477-7.757a11.411,11.411,0,0,1-5.035-1.178,11.411,11.411,0,0,1-6.273-8.459,11.493,11.493,0,0,1,5.831-11.9,11.41,11.41,0,0,1,10.528-.223,11.411,11.411,0,0,1,6.273,8.459,11.493,11.493,0,0,1-5.831,11.9A11.6,11.6,0,0,1,498.775-141.144Zm.017-20.473a9.146,9.146,0,0,0-4.333,1.107,9.007,9.007,0,0,0-4.569,9.321,8.981,8.981,0,0,0,4.932,6.66,8.979,8.979,0,0,0,8.285-.182h0a9.006,9.006,0,0,0,4.569-9.321,8.979,8.979,0,0,0-4.931-6.66A8.962,8.962,0,0,0,498.792-161.617Z" transform="translate(-471.793 179.6)" fill="#fff"/>
    </g>
    <g id="Grupo_4561" data-name="Grupo 4561" transform="translate(503.963 -268.094)">
      <g id="Grupo_4560" data-name="Grupo 4560" transform="translate(0 0)">
        <path id="Trazado_34052" data-name="Trazado 34052" d="M583.89-219.172a3.828,3.828,0,0,1-1.689-.394,3.822,3.822,0,0,1-1.946-2.208l-.7-2.06a19.516,19.516,0,0,1-2.763-.175l-.958,1.955a3.85,3.85,0,0,1-5.145,1.761l-3.965-1.944a3.817,3.817,0,0,1-1.945-2.208,3.818,3.818,0,0,1,.185-2.937l.959-1.956a19.146,19.146,0,0,1-1.831-2.077l-2.06.7a3.849,3.849,0,0,1-4.883-2.394l-1.429-4.177a3.85,3.85,0,0,1,2.393-4.883l2.06-.7a19.177,19.177,0,0,1,.175-2.763l-1.956-.959a3.821,3.821,0,0,1-1.946-2.208,3.82,3.82,0,0,1,.186-2.937l1.944-3.965a3.818,3.818,0,0,1,2.208-1.946,3.82,3.82,0,0,1,2.937.185l1.956.959a19.206,19.206,0,0,1,2.077-1.831l-.705-2.06a3.85,3.85,0,0,1,2.394-4.883l4.178-1.429a3.819,3.819,0,0,1,2.937.186,3.82,3.82,0,0,1,1.946,2.208l.7,2.06a19.514,19.514,0,0,1,2.763.175l.959-1.956a3.819,3.819,0,0,1,2.208-1.945,3.819,3.819,0,0,1,2.937.186l3.965,1.943a3.819,3.819,0,0,1,1.945,2.208,3.819,3.819,0,0,1-.185,2.937l-.959,1.956a19.2,19.2,0,0,1,1.831,2.077l2.06-.7a3.819,3.819,0,0,1,2.937.186,3.82,3.82,0,0,1,1.946,2.208l1.43,4.178a3.85,3.85,0,0,1-2.393,4.883l-2.06.7a19.161,19.161,0,0,1-.175,2.764l1.956.959a3.817,3.817,0,0,1,1.946,2.208,3.821,3.821,0,0,1-.186,2.937l-1.943,3.965a3.849,3.849,0,0,1-5.145,1.76l-1.956-.958A19.2,19.2,0,0,1,591-227.754l.7,2.06a3.849,3.849,0,0,1-2.393,4.883l-4.178,1.429A3.843,3.843,0,0,1,583.89-219.172Zm-4.1-7.124a2.106,2.106,0,0,1,2,1.422l.788,2.3a1.38,1.38,0,0,0,.7.8,1.381,1.381,0,0,0,1.06.067l4.178-1.429a1.38,1.38,0,0,0,.8-.7,1.38,1.38,0,0,0,.067-1.06h0l-.788-2.3a2.108,2.108,0,0,1,.752-2.381,16.648,16.648,0,0,0,2.127-1.875,2.107,2.107,0,0,1,2.457-.447l2.187,1.072a1.378,1.378,0,0,0,1.06.067,1.379,1.379,0,0,0,.8-.7l1.943-3.965a1.378,1.378,0,0,0,.067-1.06,1.378,1.378,0,0,0-.7-.8l-2.187-1.072a2.106,2.106,0,0,1-1.152-2.215,16.711,16.711,0,0,0,.179-2.83,2.108,2.108,0,0,1,1.421-2.053l2.3-.788a1.39,1.39,0,0,0,.864-1.762l-1.429-4.178a1.378,1.378,0,0,0-.7-.8,1.378,1.378,0,0,0-1.06-.067l-2.3.788a2.107,2.107,0,0,1-2.381-.752,16.646,16.646,0,0,0-1.875-2.127,2.108,2.108,0,0,1-.446-2.457l1.072-2.187a1.379,1.379,0,0,0,.067-1.06,1.38,1.38,0,0,0-.7-.8l-3.965-1.944a1.383,1.383,0,0,0-1.06-.067,1.38,1.38,0,0,0-.8.7l-1.072,2.188a2.11,2.11,0,0,1-2.215,1.152,16.681,16.681,0,0,0-2.83-.179,2.094,2.094,0,0,1-2.053-1.421l-.788-2.3a1.379,1.379,0,0,0-.7-.8,1.381,1.381,0,0,0-1.06-.067l-4.178,1.429a1.39,1.39,0,0,0-.864,1.762l.789,2.3a2.107,2.107,0,0,1-.752,2.381,16.682,16.682,0,0,0-2.127,1.875,2.107,2.107,0,0,1-2.457.446l-2.187-1.072a1.383,1.383,0,0,0-1.06-.067,1.378,1.378,0,0,0-.8.7l-1.943,3.965a1.379,1.379,0,0,0-.067,1.06,1.377,1.377,0,0,0,.7.8l2.187,1.072a2.107,2.107,0,0,1,1.152,2.215,16.637,16.637,0,0,0-.179,2.83,2.108,2.108,0,0,1-1.421,2.053l-2.3.789a1.39,1.39,0,0,0-.864,1.762l1.429,4.178a1.389,1.389,0,0,0,1.762.864l2.3-.788a2.108,2.108,0,0,1,2.381.752,16.643,16.643,0,0,0,1.875,2.127,2.106,2.106,0,0,1,.446,2.457l-1.072,2.187a1.38,1.38,0,0,0-.067,1.06,1.378,1.378,0,0,0,.7.8l3.965,1.943a1.39,1.39,0,0,0,1.857-.635l1.072-2.187a2.11,2.11,0,0,1,2.215-1.152,16.68,16.68,0,0,0,2.83.179Zm-.42-6.52a10.183,10.183,0,0,1-4.491-1.051,10.177,10.177,0,0,1-5.595-7.543,10.253,10.253,0,0,1,5.2-10.612,10.177,10.177,0,0,1,9.39-.2,10.177,10.177,0,0,1,5.595,7.543,10.254,10.254,0,0,1-5.2,10.612h0A10.346,10.346,0,0,1,579.368-232.816Zm4.318-2.332h0Zm-4.3-15.662a7.892,7.892,0,0,0-3.738.955,7.766,7.766,0,0,0-3.939,8.037,7.747,7.747,0,0,0,4.253,5.745,7.747,7.747,0,0,0,7.146-.157h0a7.767,7.767,0,0,0,3.94-8.037,7.746,7.746,0,0,0-4.253-5.744A7.722,7.722,0,0,0,579.383-250.81Z" transform="translate(-555.506 266.915)" fill="#fff"/>
      </g>
    </g>
    <g id="Grupo_4563" data-name="Grupo 4563" transform="translate(466.374 -268.954)">
      <g id="Grupo_4562" data-name="Grupo 4562" transform="translate(0 0)">
        <path id="Trazado_34053" data-name="Trazado 34053" d="M483.379-230.185a3.336,3.336,0,0,1-.838-.108l-3.384-.882a3.306,3.306,0,0,1-2.362-4.027l.389-1.492a15.418,15.418,0,0,1-1.484-1.123l-1.33.78a3.3,3.3,0,0,1-4.517-1.177l-1.77-3.017a3.305,3.305,0,0,1,1.177-4.518l1.33-.78a15.439,15.439,0,0,1-.256-1.843l-1.491-.388a3.282,3.282,0,0,1-2.015-1.525,3.281,3.281,0,0,1-.347-2.5l.882-3.384a3.28,3.28,0,0,1,1.524-2.015,3.286,3.286,0,0,1,2.5-.347l1.491.389a15.513,15.513,0,0,1,1.123-1.484l-.78-1.33a3.305,3.305,0,0,1,1.177-4.518l3.017-1.769a3.3,3.3,0,0,1,4.518,1.178l.78,1.329a15.542,15.542,0,0,1,1.843-.256l.389-1.491a3.3,3.3,0,0,1,4.027-2.362l3.384.882a3.306,3.306,0,0,1,2.362,4.027l-.389,1.492a15.455,15.455,0,0,1,1.484,1.123l1.33-.78a3.278,3.278,0,0,1,2.5-.347,3.28,3.28,0,0,1,2.015,1.525l1.769,3.017a3.28,3.28,0,0,1,.347,2.5,3.281,3.281,0,0,1-1.525,2.015l-1.33.779a15.507,15.507,0,0,1,.256,1.843l1.491.389a3.278,3.278,0,0,1,2.015,1.525,3.279,3.279,0,0,1,.347,2.5l-.882,3.384a3.306,3.306,0,0,1-4.027,2.362l-1.491-.389a15.459,15.459,0,0,1-1.123,1.484l.78,1.33a3.3,3.3,0,0,1-1.177,4.518l-3.017,1.769a3.305,3.305,0,0,1-4.518-1.177l-.78-1.33a15.568,15.568,0,0,1-1.843.256l-.389,1.491a3.28,3.28,0,0,1-1.525,2.015A3.281,3.281,0,0,1,483.379-230.185ZM475.76-240.4a1.937,1.937,0,0,1,1.3.5,12.963,12.963,0,0,0,1.756,1.329,1.924,1.924,0,0,1,.846,2.117l-.487,1.867a.844.844,0,0,0,.6,1.029l3.384.882a.845.845,0,0,0,1.029-.6h0l.487-1.867a1.923,1.923,0,0,1,1.772-1.434,13.016,13.016,0,0,0,2.181-.3,1.923,1.923,0,0,1,2.095.9l.976,1.665a.845.845,0,0,0,1.154.3l3.017-1.769a.844.844,0,0,0,.3-1.154L495.2-238.6a1.923,1.923,0,0,1,.238-2.267,12.973,12.973,0,0,0,1.33-1.756,1.922,1.922,0,0,1,2.116-.846l1.866.486a.844.844,0,0,0,1.029-.6l.882-3.384a.836.836,0,0,0-.089-.639.837.837,0,0,0-.514-.39l-1.867-.486a1.925,1.925,0,0,1-1.435-1.771,12.962,12.962,0,0,0-.3-2.182,1.922,1.922,0,0,1,.9-2.1l1.664-.976a.837.837,0,0,0,.39-.514.839.839,0,0,0-.089-.639l-1.77-3.017a.837.837,0,0,0-.515-.39.838.838,0,0,0-.639.089l-1.665.976a1.923,1.923,0,0,1-2.267-.238,12.985,12.985,0,0,0-1.756-1.329,1.925,1.925,0,0,1-.846-2.117l.487-1.866a.845.845,0,0,0-.6-1.029l-3.384-.882a.834.834,0,0,0-.639.089.836.836,0,0,0-.389.515L486.841-264a1.924,1.924,0,0,1-1.771,1.435,12.962,12.962,0,0,0-2.182.3,1.924,1.924,0,0,1-2.094-.9l-.976-1.665a.838.838,0,0,0-.514-.389.838.838,0,0,0-.64.089l-3.017,1.769a.844.844,0,0,0-.3,1.154l.976,1.664a1.922,1.922,0,0,1-.238,2.267,12.98,12.98,0,0,0-1.329,1.756,1.922,1.922,0,0,1-2.117.846l-1.867-.487a.837.837,0,0,0-.639.089.839.839,0,0,0-.39.514l-.882,3.384a.844.844,0,0,0,.6,1.029l1.866.486a1.925,1.925,0,0,1,1.435,1.771,12.919,12.919,0,0,0,.3,2.182,1.923,1.923,0,0,1-.9,2.1l-1.664.976a.844.844,0,0,0-.3,1.154l1.769,3.017a.845.845,0,0,0,1.155.3l1.664-.976A1.913,1.913,0,0,1,475.76-240.4Zm10.016-.817q-.367,0-.736-.034h0a8.313,8.313,0,0,1-6.485-4.1,8.313,8.313,0,0,1-.411-7.66,8.378,8.378,0,0,1,8.332-4.886,8.313,8.313,0,0,1,6.484,4.1,8.313,8.313,0,0,1,.412,7.661A8.4,8.4,0,0,1,485.776-241.214Zm-.509-2.481a5.9,5.9,0,0,0,5.858-3.435,5.88,5.88,0,0,0-.285-5.42,5.881,5.881,0,0,0-4.592-2.895,5.889,5.889,0,0,0-5.858,3.435,5.882,5.882,0,0,0,.285,5.42,5.882,5.882,0,0,0,4.592,2.895Z" transform="translate(-466.374 268.954)" fill="#fff"/>
      </g>
    </g>
  </g>
</svg>
