<svg xmlns="http://www.w3.org/2000/svg" width="86.541" height="86.542" viewBox="0 0 86.541 86.542">
  <g id="telemarketing" transform="translate(-2072.597 602.908)">
    <path id="Trazado_34070" data-name="Trazado 34070" d="M2123.405-512.88A39.168,39.168,0,0,1,2084.281-552a39.168,39.168,0,0,1,39.124-39.124A39.169,39.169,0,0,1,2162.529-552,39.169,39.169,0,0,1,2123.405-512.88Zm0-76.2A37.114,37.114,0,0,0,2086.333-552a37.114,37.114,0,0,0,37.073,37.072A37.114,37.114,0,0,0,2160.477-552,37.114,37.114,0,0,0,2123.405-589.076Z" transform="translate(-7.571 -7.633)" fill="#fff"/>
    <g id="Grupo_4572" data-name="Grupo 4572" transform="translate(2085.359 -590.145)">
      <g id="Grupo_4571" data-name="Grupo 4571" transform="translate(0 0)">
        <path id="Trazado_34071" data-name="Trazado 34071" d="M2139.374-505.636q-.273,0-.546,0a30.308,30.308,0,0,1-21.413-9.31,30.308,30.308,0,0,1-8.558-21.725,30.547,30.547,0,0,1,31.035-29.971,30.309,30.309,0,0,1,21.413,9.31,30.306,30.306,0,0,1,8.558,21.725,30.308,30.308,0,0,1-9.311,21.413A30.3,30.3,0,0,1,2139.374-505.636Zm-.022-58.964a28.489,28.489,0,0,0-28.445,27.96,28.27,28.27,0,0,0,7.983,20.264,28.27,28.27,0,0,0,19.973,8.684c.17,0,.341,0,.51,0a28.259,28.259,0,0,0,19.754-7.987,28.269,28.269,0,0,0,8.684-19.973,28.269,28.269,0,0,0-7.983-20.264,28.269,28.269,0,0,0-19.973-8.684C2139.688-564.6,2139.519-564.6,2139.352-564.6Z" transform="translate(-2108.851 566.651)" fill="#fff"/>
        <g id="Grupo_4570" data-name="Grupo 4570" transform="translate(12.148 40.138)">
          <path id="Trazado_34072" data-name="Trazado 34072" d="M2161.737-431.755c-.183,0-.365,0-.549,0a30.313,30.313,0,0,1-17.406-5.833,1.026,1.026,0,0,1-.422-.829v-.949a13.386,13.386,0,0,1,13.478-13.262h10.017a13.487,13.487,0,0,1,11.972,7.187,11.235,11.235,0,0,1,1.252,5.229v1.8a1.024,1.024,0,0,1-.422.829A30.227,30.227,0,0,1,2161.737-431.755Zm-16.325-7.195a28.263,28.263,0,0,0,15.812,5.139,28.158,28.158,0,0,0,16.8-5.133v-1.272a9.176,9.176,0,0,0-1.015-4.272,11.44,11.44,0,0,0-10.158-6.093h-10.017a11.333,11.333,0,0,0-11.427,11.21Zm33.643.533h0Z" transform="translate(-2143.36 452.633)" fill="#fff"/>
        </g>
      </g>
      <path id="Trazado_34073" data-name="Trazado 34073" d="M2170.694-512.084h-3.244a8.9,8.9,0,0,1-8.891-8.891v-.131a4.988,4.988,0,0,1-3.953-4.873,4.989,4.989,0,0,1,3.953-4.873v-.13a8.9,8.9,0,0,1,8.891-8.89h3.244a8.9,8.9,0,0,1,8.89,8.89v.146a5,5,0,0,1,3.9,4.858,5,5,0,0,1-3.9,4.858v.146A8.9,8.9,0,0,1,2170.694-512.084Zm-3.244-25.736a6.847,6.847,0,0,0-6.839,6.839v1.05a1.026,1.026,0,0,1-1.026,1.026,2.93,2.93,0,0,0-2.927,2.927,2.931,2.931,0,0,0,2.927,2.927,1.026,1.026,0,0,1,1.026,1.026v1.05a6.847,6.847,0,0,0,6.839,6.839h3.244a6.846,6.846,0,0,0,6.839-6.839v-1.053a1.026,1.026,0,0,1,1.011-1.025,2.938,2.938,0,0,0,2.887-2.925,2.938,2.938,0,0,0-2.887-2.925,1.026,1.026,0,0,1-1.011-1.026v-1.053a6.846,6.846,0,0,0-6.839-6.839Z" transform="translate(-2138.499 549.299)" fill="#fff"/>
    </g>
    <g id="Grupo_4573" data-name="Grupo 4573" transform="translate(2114.842 -602.908)">
      <line id="Línea_20" data-name="Línea 20" y2="17.566" transform="translate(1.026 1.026)" fill="#fff"/>
      <path id="Trazado_34074" data-name="Trazado 34074" d="M2193.627-583.29a1.026,1.026,0,0,1-1.026-1.026v-17.566a1.026,1.026,0,0,1,1.026-1.026,1.026,1.026,0,0,1,1.026,1.026v17.566A1.026,1.026,0,0,1,2193.627-583.29Z" transform="translate(-2192.601 602.908)" fill="#fff"/>
    </g>
    <g id="Grupo_4574" data-name="Grupo 4574" transform="translate(2114.842 -535.984)">
      <line id="Línea_21" data-name="Línea 21" y2="17.566" transform="translate(1.026 1.026)" fill="#fff"/>
      <path id="Trazado_34075" data-name="Trazado 34075" d="M2193.627-393.18a1.026,1.026,0,0,1-1.026-1.026v-17.566a1.026,1.026,0,0,1,1.026-1.026,1.026,1.026,0,0,1,1.026,1.026v17.566A1.026,1.026,0,0,1,2193.627-393.18Z" transform="translate(-2192.601 412.798)" fill="#fff"/>
    </g>
    <g id="Grupo_4575" data-name="Grupo 4575" transform="translate(2139.521 -560.663)">
      <line id="Línea_22" data-name="Línea 22" x1="17.566" transform="translate(1.026 1.026)" fill="#fff"/>
      <path id="Trazado_34076" data-name="Trazado 34076" d="M2281.3-480.851h-17.566a1.026,1.026,0,0,1-1.026-1.026,1.026,1.026,0,0,1,1.026-1.026H2281.3a1.026,1.026,0,0,1,1.026,1.026A1.026,1.026,0,0,1,2281.3-480.851Z" transform="translate(-2262.706 482.903)" fill="#fff"/>
    </g>
    <g id="Grupo_4576" data-name="Grupo 4576" transform="translate(2072.597 -560.663)">
      <line id="Línea_23" data-name="Línea 23" x1="17.566" transform="translate(1.026 1.026)" fill="#fff"/>
      <path id="Trazado_34077" data-name="Trazado 34077" d="M2091.188-480.851h-17.566a1.026,1.026,0,0,1-1.026-1.026,1.025,1.025,0,0,1,1.026-1.026h17.566a1.026,1.026,0,0,1,1.026,1.026A1.026,1.026,0,0,1,2091.188-480.851Z" transform="translate(-2072.597 482.903)" fill="#fff"/>
    </g>
  </g>
</svg>
