<svg id="Grupo_4712" data-name="Grupo 4712" xmlns="http://www.w3.org/2000/svg" width="371.416" height="121.159" viewBox="0 0 371.416 121.159">
  <path id="Trazado_34981" data-name="Trazado 34981" d="M1764.482,410.823a2.506,2.506,0,0,1-.545-.058,2.581,2.581,0,0,1-1.984-3.063l2.074-9.7a2.581,2.581,0,0,1,5.047,1.08l-2.073,9.7a2.583,2.583,0,0,1-2.519,2.042" transform="translate(-1443.071 -322.636)" fill="#62a51c"/>
  <path id="Trazado_34982" data-name="Trazado 34982" d="M1777.189,350.314a2.584,2.584,0,0,1-2.531-3.11l2.4-11.465a2.581,2.581,0,1,1,5.052,1.057l-2.4,11.465a2.582,2.582,0,0,1-2.521,2.053" transform="translate(-1446.408 -306.281)" fill="#62a51c"/>
  <g id="Grupo_4697" data-name="Grupo 4697" transform="translate(0 0)">
    <path id="Trazado_34983" data-name="Trazado 34983" d="M1586.38,346.367a21.719,21.719,0,1,0,21.872,21.7,21.785,21.785,0,0,0-21.872-21.7m.033,35.067a13.36,13.36,0,1,1,12.808-13.361,13.092,13.092,0,0,1-12.808,13.361" transform="translate(-1391.247 -309.612)" fill="#fff"/>
    <path id="Trazado_34984" data-name="Trazado 34984" d="M1511.179,382.178l-6.089-6.092a12.646,12.646,0,0,1-10.312,5.436,13.36,13.36,0,0,1-.026-26.7,12.623,12.623,0,0,1,10.121,5.145l6.14-6.316a21.72,21.72,0,1,0,.4,28.577l-.236-.052" transform="translate(-1367.182 -309.635)" fill="#fff"/>
    <path id="Trazado_34985" data-name="Trazado 34985" d="M1553.668,351.961l-.007-8.223-11.1.01-.011-11.278-9.574.01.011,11.278-5.052,0,.008,8.223,5.052,0,.023,23.907s-.053,5.992,4.59,8.1,11.281,2.515,16.094-.309l-.007-7.46s-4.228,1.826-7.283,1.065-3.821-2.992-3.825-6.987l-.018-18.327Z" transform="translate(-1381.63 -305.962)" fill="#fff"/>
    <path id="Trazado_34986" data-name="Trazado 34986" d="M1653.755,346.3a18.276,18.276,0,0,0-14.633,7.754l-.007-6.948-9.252.009.052,54.1,9.252-.009-.018-19.2a18.274,18.274,0,0,0,14.647,7.726c10.568-.01,19.125-9.742,19.114-21.737s-8.588-21.711-19.155-21.7m-2.58,35.07c-6.642.006-12.032-5.965-12.039-13.338s5.372-13.353,12.014-13.359,12.032,5.965,12.039,13.336-5.372,13.354-12.014,13.361" transform="translate(-1408.399 -309.595)" fill="#fff"/>
    <path id="Trazado_34987" data-name="Trazado 34987" d="M1721.929,382.784a15.108,15.108,0,0,1-12.946,7.267,14.715,14.715,0,0,1-14.728-14.7l-.026-27.578,9.218-.009.024,24.613a9.283,9.283,0,0,0,18.565-.018l-.024-24.613,9.516-.009.039,41.412-9.633.009Z" transform="translate(-1425.302 -309.971)" fill="#fff"/>
    <path id="Trazado_34988" data-name="Trazado 34988" d="M1782.844,374.138c-.707-2.467-2.121-6.606-13.27-9.944a42.721,42.721,0,0,1-6.39-2.593,3.974,3.974,0,0,1-2.184-4.18c.793-2.966,4.506-3.42,4.506-3.42,3.373-.307,8.352.8,12.918,3.973l3.649-6.876a35.285,35.285,0,0,0-15.907-4.3c-8.547.008-13.827,6.841-13.735,11.555s.935,10.308,11.114,12.766,12.076,5.143,10.582,8.1-4.448,2.779-7.091,2.781-7.226-1.182-12.648-4.877l-4.091,6.26s6.305,6.381,19.875,5.972,13.38-12.744,12.673-15.211" transform="translate(-1440.025 -309.724)" fill="#fff"/>
    <path id="Trazado_34989" data-name="Trazado 34989" d="M1442.934,384.021a45.268,45.268,0,0,1-46.711-8.337,35.022,35.022,0,0,0,10.094-4.844,35.5,35.5,0,0,0,11.041-12.41,34.607,34.607,0,0,0,2.961-7.515,35.273,35.273,0,1,0-65.174,7.579,35.441,35.441,0,0,0,10.9,12.267,34.918,34.918,0,0,0,10.018,4.868,45.292,45.292,0,0,1-46.536,8.6l8-8.034a35.492,35.492,0,0,0,8.307.979,34.888,34.888,0,0,0,10.2-1.521,45.354,45.354,0,1,1,60.379.016,35.287,35.287,0,0,0,18.533.364Z" transform="translate(-1329.528 -296.522)" fill="#fff"/>
  </g>
  <g id="Grupo_4698" data-name="Grupo 4698" transform="translate(184.764 102.289)">
    <path id="Trazado_34990" data-name="Trazado 34990" d="M1631.177,452.968l1.77,1.313a9.315,9.315,0,0,1-7.506,3.774A9.418,9.418,0,1,1,1632.962,443l-1.794,1.316a7.067,7.067,0,0,0-5.742-2.876,7.193,7.193,0,1,0,5.751,11.524Z" transform="translate(-1616.003 -439.186)" fill="#fff"/>
    <path id="Trazado_34991" data-name="Trazado 34991" d="M1654.851,452.95a6.086,6.086,0,0,1-6.062,6.074,6.055,6.055,0,1,1-.011-12.111,6.043,6.043,0,0,1,6.073,6.037Zm-2.175,0a3.893,3.893,0,1,0-3.89,3.9A3.873,3.873,0,0,0,1652.676,452.953Z" transform="translate(-1619.432 -440.173)" fill="#fff"/>
    <path id="Trazado_34992" data-name="Trazado 34992" d="M1676.889,451.939a6.042,6.042,0,0,1-6.062,6.048,6.22,6.22,0,0,1-3.9-1.589l0,1.341-2.174,0-.018-18.558,2.174,0,.008,8.318a6.227,6.227,0,0,1,3.893-1.6,6.043,6.043,0,0,1,6.074,6.037Zm-2.174,0a3.894,3.894,0,1,0-3.891,3.922A3.916,3.916,0,0,0,1674.715,451.942Z" transform="translate(-1622.259 -439.181)" fill="#fff"/>
    <path id="Trazado_34993" data-name="Trazado 34993" d="M1689.341,448.315a7.065,7.065,0,0,1,4.221-1.445l-.529,2.176a3.592,3.592,0,0,0-3.688,3.493l.006,6.169-2.174,0-.011-11.58,2.174,0Z" transform="translate(-1625.138 -440.168)" fill="#fff"/>
    <path id="Trazado_34994" data-name="Trazado 34994" d="M1711.339,447.106l2.173,0,.01,11.58-2.174,0v-1.34a6.234,6.234,0,0,1-3.893,1.6,6.043,6.043,0,1,1-.012-12.086,6.231,6.231,0,0,1,3.9,1.589Zm0,5.79a3.894,3.894,0,1,0-3.891,3.922A3.917,3.917,0,0,0,1711.344,452.9Z" transform="translate(-1626.962 -440.166)" fill="#fff"/>
    <path id="Trazado_34995" data-name="Trazado 34995" d="M1735,452.448l.006,6.22-2.174,0-.006-6.22a3.414,3.414,0,1,0-6.827.007l.006,6.219-2.174,0-.011-11.58,2.174,0v1.113a5.766,5.766,0,0,1,3.412-1.344,5.561,5.561,0,0,1,3.97,1.614A5.622,5.622,0,0,1,1735,452.448Z" transform="translate(-1629.843 -440.167)" fill="#fff"/>
    <path id="Trazado_34996" data-name="Trazado 34996" d="M1753.338,447.1l0,2.124-6.061,7.389,6.093-.006,0,2.073-8.9.009v-2.123l6.061-7.389-6.093.005,0-2.073Z" transform="translate(-1632.49 -440.198)" fill="#fff"/>
    <path id="Trazado_34997" data-name="Trazado 34997" d="M1772.035,447.048l2.174,0,.011,11.58-2.175,0v-1.341a6.228,6.228,0,0,1-3.893,1.6,6.043,6.043,0,1,1-.011-12.085,6.228,6.228,0,0,1,3.9,1.588Zm.005,5.79a3.894,3.894,0,1,0-3.89,3.922A3.917,3.917,0,0,0,1772.04,452.839Z" transform="translate(-1634.754 -440.159)" fill="#fff"/>
  </g>
  <path id="Trazado_34998" data-name="Trazado 34998" d="M1786.316,322.892c-10.867-2-20.364,2.723-27.508,10.23l2.094,0c10.267-8.293,24.954-8.973,33.161,2.193,13.39,18.675,3.749,53.069-17.309,62.105-10.3,4.28-20.221-.184-26.048-8.556l-2.729,0a27.913,27.913,0,0,0,15.727,15.241c20.943,7.092,40.28-12.05,45.238-31.173,5.6-18.958-1.039-45.258-22.625-50.04" transform="translate(-1439.416 -303.326)" fill="#62a51c"/>
</svg>
