<svg xmlns="http://www.w3.org/2000/svg" width="100" height="80" viewBox="0 0 100 80">
  <g id="Grupo_5590" data-name="Grupo 5590" transform="translate(-2349 -2245)">
    <rect id="Rectángulo_2972" data-name="Rectángulo 2972" width="100" height="80" transform="translate(2349 2245)" fill="none"/>
    <g id="Grupo_5589" data-name="Grupo 5589" transform="translate(-75 -203)">
      <g id="Grupo_5587" data-name="Grupo 5587" transform="translate(2458.854 2458)">
        <g id="Sustracción_3" data-name="Sustracción 3" transform="translate(-0.853 0)" fill="none">
          <path d="M31.274,16.44H0A17.421,17.421,0,0,1,4.708,4.8a14.84,14.84,0,0,1,21.857,0,17.42,17.42,0,0,1,4.709,11.639Z" stroke="none"/>
          <path d="M 27.24796104431152 12.94029998779297 C 26.64731979370117 10.78198528289795 25.55093765258789 8.815613746643066 24.02694702148438 7.210299968719482 C 21.75550651550293 4.817679882049561 18.7757568359375 3.5 15.6365966796875 3.5 C 12.4975471496582 3.5 9.517987251281738 4.817639827728271 7.246796607971191 7.21019983291626 C 5.722981452941895 8.815448760986328 4.62667179107666 10.78197860717773 4.026077270507812 12.94029998779297 L 27.24796104431152 12.94029998779297 M 31.27443695068359 16.44029998779297 L -0.0003431860241107643 16.44029998779297 C 0.1025668159127235 12.02388000488281 1.775176763534546 7.890500068664551 4.708366870880127 4.800549983978271 C 7.647017002105713 1.704869985580444 11.52806663513184 -6.103515914901436e-09 15.6365966796875 -6.103515914901436e-09 C 19.74517631530762 -6.103515914901436e-09 23.62638664245605 1.704869985580444 26.56526756286621 4.800549983978271 C 29.49891662597656 7.890739917755127 31.17132759094238 12.02412033081055 31.27441596984863 16.43927955627441 L 31.27443695068359 16.44029998779297 Z" stroke="none" fill="#13002e"/>
        </g>
        <path id="Sustracción_2" data-name="Sustracción 2" d="M4.191,17.345H0V13.758A13.649,13.649,0,0,1,13.5,0,13.649,13.649,0,0,1,27.01,13.758v3.586H22.819V13.758A9.414,9.414,0,0,0,13.5,4.269a9.414,9.414,0,0,0-9.314,9.489v3.586Z" transform="translate(29.165 41.028) rotate(180)" fill="#13002e" stroke="rgba(0,0,0,0)" stroke-miterlimit="10" stroke-width="1"/>
      </g>
      <g id="Trazado_37026" data-name="Trazado 37026" transform="translate(2447 2472.088)" fill="none">
        <path d="M3.548,0H49.675a3.548,3.548,0,0,1,3.548,3.548v39.03a3.548,3.548,0,0,1-3.548,3.548H3.548A3.548,3.548,0,0,1,0,42.579V3.548A3.548,3.548,0,0,1,3.548,0Z" stroke="none"/>
        <path d="M 3.548221588134766 2.999996185302734 C 3.245929718017578 2.999996185302734 3 3.245925903320312 3 3.548225402832031 L 3 42.57870483398438 C 3 42.88099670410156 3.245929718017578 43.12692642211914 3.548221588134766 43.12692642211914 L 49.67515182495117 43.12692642211914 C 49.97745132446289 43.12692642211914 50.22338104248047 42.88099670410156 50.22338104248047 42.57870483398438 L 50.22338104248047 3.548225402832031 C 50.22338104248047 3.245925903320312 49.97745132446289 2.999996185302734 49.67515182495117 2.999996185302734 L 3.548221588134766 2.999996185302734 M 3.548221588134766 -3.814697265625e-06 L 49.67515182495117 -3.814697265625e-06 C 51.63478088378906 -3.814697265625e-06 53.22338104248047 1.588596343994141 53.22338104248047 3.548225402832031 L 53.22338104248047 42.57870483398438 C 53.22338104248047 44.53833389282227 51.63478088378906 46.12692642211914 49.67515182495117 46.12692642211914 L 3.548221588134766 46.12692642211914 C 1.588588714599609 46.12692642211914 0 44.53833389282227 0 42.57870483398438 L 0 3.548225402832031 C 0 1.588596343994141 1.588588714599609 -3.814697265625e-06 3.548221588134766 -3.814697265625e-06 Z" stroke="none" fill="#13002e"/>
      </g>
    </g>
  </g>
</svg>
