<svg xmlns="http://www.w3.org/2000/svg" width="188" height="150" viewBox="0 0 188 150">
  <g id="Grupo_5596" data-name="Grupo 5596" transform="translate(-2091 -2245)">
    <rect id="Rectángulo_2971" data-name="Rectángulo 2971" width="188" height="150" transform="translate(2091 2245)" fill="none"/>
    <g id="Grupo_5593" data-name="Grupo 5593" transform="translate(-316 -199)">
      <g id="Grupo_5587" data-name="Grupo 5587" transform="translate(2469.293 2458)">
        <g id="Sustracción_3" data-name="Sustracción 3" transform="translate(0 0)" fill="none">
          <path d="M63.382,33.318H0a36.194,36.194,0,0,1,2.71-13A34.274,34.274,0,0,1,9.544,9.729a31.52,31.52,0,0,1,9.985-7.122,29.67,29.67,0,0,1,24.325,0,31.519,31.519,0,0,1,9.985,7.122,34.274,34.274,0,0,1,6.834,10.587,36.2,36.2,0,0,1,2.71,13Z" stroke="none"/>
          <path d="M 55.34110260009766 26.31800079345703 C 55.02932357788086 25.18466377258301 54.64879608154297 24.07226943969727 54.20015335083008 22.98398590087891 C 52.89189147949219 19.8104305267334 51.06192398071289 16.97235488891602 48.76107788085938 14.54858493804932 C 46.49244689941406 12.15875434875488 43.87738418579102 10.28999996185303 40.98847579956055 8.994231224060059 C 35.08827590942383 6.347765922546387 28.29404640197754 6.347588539123535 22.39350700378418 8.994231224060059 C 19.50461578369141 10.29001617431641 16.88950729370117 12.15878486633301 14.62080001831055 14.54864692687988 C 12.31989192962646 16.97243118286133 10.48986148834229 19.81052398681641 9.181538581848145 22.98412322998047 C 8.732932090759277 24.0722713470459 8.352351188659668 25.18480682373047 8.040584564208984 26.31800079345703 L 55.34110260009766 26.31800079345703 M 63.38215255737305 33.31800079345703 L 63.38113784790039 33.31800079345703 L 63.38215255737305 33.31800079345703 Z M 63.38215255737305 33.31800079345703 L -0.0005541330319829285 33.31800079345703 C 0.105245865881443 28.79537010192871 1.017522811889648 24.4212474822998 2.709922790527344 20.31610870361328 C 4.348045825958252 16.34255409240723 6.647384166717529 12.78061580657959 9.544045448303223 9.729262351989746 C 12.44395351409912 6.674477100372314 15.8032922744751 4.278292655944824 19.52872276306152 2.607292652130127 C 23.38582992553711 0.8772158026695251 27.47775268554688 3.967285238104523e-07 31.69079971313477 3.967285238104523e-07 C 35.90404510498047 3.967285238104523e-07 39.99610900878906 0.8772158026695251 43.8532600402832 2.607292652130127 C 47.57870864868164 4.278277397155762 50.93803024291992 6.674461841583252 53.837890625 9.729262351989746 C 56.73446273803711 12.78058528900146 59.03373718261719 16.34250831604004 60.67181396484375 20.31610870361328 C 62.36439895629883 24.42184638977051 63.27627563476562 28.79596900939941 63.38213729858398 33.31698608398438 L 63.38215255737305 33.31800079345703 Z" stroke="none" fill="#13002e"/>
        </g>
        <path id="Sustracción_2" data-name="Sustracción 2" d="M8.493,35.151H0V27.883C0,12.508,12.278,0,27.37,0S54.74,12.508,54.74,27.883v7.267H46.246V27.883A19.078,19.078,0,0,0,27.37,8.652,19.078,19.078,0,0,0,8.493,27.883V35.15Z" transform="translate(60.838 83.148) rotate(180)" fill="#13002e" stroke="rgba(0,0,0,0)" stroke-miterlimit="10" stroke-width="1"/>
      </g>
      <g id="Trazado_37026" data-name="Trazado 37026" transform="translate(2447 2486.551)" fill="none">
        <path d="M7.191,0h93.482a7.191,7.191,0,0,1,7.191,7.191v79.1a7.191,7.191,0,0,1-7.191,7.191H7.191A7.191,7.191,0,0,1,0,86.291V7.191A7.191,7.191,0,0,1,7.191,0Z" stroke="none"/>
        <path d="M 7.190925598144531 5.999992370605469 C 6.534248352050781 5.999992370605469 5.999992370605469 6.534248352050781 5.999992370605469 7.190933227539062 L 5.999992370605469 86.29127502441406 C 5.999992370605469 86.94795227050781 6.534248352050781 87.48220825195312 7.190925598144531 87.48220825195312 L 100.6731719970703 87.48220825195312 C 101.3298492431641 87.48220825195312 101.8640899658203 86.94795227050781 101.8640899658203 86.29127502441406 L 101.8640899658203 7.190933227539062 C 101.8640899658203 6.534248352050781 101.3298492431641 5.999992370605469 100.6731719970703 5.999992370605469 L 7.190925598144531 5.999992370605469 M 7.190925598144531 -7.62939453125e-06 L 100.6731719970703 -7.62939453125e-06 C 104.6445922851562 -7.62939453125e-06 107.8640899658203 3.219490051269531 107.8640899658203 7.190933227539062 L 107.8640899658203 86.29127502441406 C 107.8640899658203 90.26273345947266 104.6445922851562 93.48220825195312 100.6731719970703 93.48220825195312 L 7.190925598144531 93.48220825195312 C 3.219490051269531 93.48220825195312 -7.62939453125e-06 90.26273345947266 -7.62939453125e-06 86.29127502441406 L -7.62939453125e-06 7.190933227539062 C -7.62939453125e-06 3.219490051269531 3.219490051269531 -7.62939453125e-06 7.190925598144531 -7.62939453125e-06 Z" stroke="none" fill="#13002e"/>
      </g>
    </g>
  </g>
</svg>
