<svg id="Grupo_5581" data-name="Grupo 5581" xmlns="http://www.w3.org/2000/svg" xmlns:xlink="http://www.w3.org/1999/xlink" width="351.002" height="110.136" viewBox="0 0 351.002 110.136">
  <defs>
    <clipPath id="clip-path">
      <rect id="Rect치ngulo_2964" data-name="Rect치ngulo 2964" width="351.002" height="110.136" fill="none"/>
    </clipPath>
  </defs>
  <path id="Trazado_36988" data-name="Trazado 36988" d="M240.946,146.374v13.595h1.718V152.9h3.78v-1.681h-3.78v-3.187h6.874v-1.662Z" transform="translate(-82.344 -50.023)" fill="#e30d18"/>
  <g id="Grupo_5582" data-name="Grupo 5582">
    <g id="Grupo_5581-2" data-name="Grupo 5581" clip-path="url(#clip-path)">
      <path id="Trazado_36989" data-name="Trazado 36989" d="M261.246,149.387a1.079,1.079,0,0,1,2.157,0,1.079,1.079,0,1,1-2.157,0m.267,2.5h1.642v8.745h-1.642Z" transform="translate(-89.281 -50.687)" fill="#e30d18"/>
      <path id="Trazado_36990" data-name="Trazado 36990" d="M280.851,158.486h-6.74v.038a2.775,2.775,0,0,0,2.54,2.559,3.3,3.3,0,0,0,2.139-.916l1.374.821a5.178,5.178,0,0,1-1.164.974,4.991,4.991,0,0,1-2.31.649,3.914,3.914,0,0,1-2.96-1.337,4.5,4.5,0,0,1-1.184-2.75,2.918,2.918,0,0,1-.018-.4,4.7,4.7,0,0,1,.115-1.031,4.593,4.593,0,0,1,1.088-2.12,3.994,3.994,0,0,1,2.96-1.317,4.036,4.036,0,0,1,2.979,1.317,4.432,4.432,0,0,1,1.089,2.12,5.243,5.243,0,0,1,.095,1.394m-1.718-1.375-.019-.038a2.647,2.647,0,0,0-2.425-1.89,2.684,2.684,0,0,0-2.425,1.89l-.019.038Z" transform="translate(-93.136 -52.512)" fill="#e30d18"/>
      <rect id="Rect치ngulo_2963" data-name="Rect치ngulo 2963" width="1.642" height="14.015" transform="translate(192.791 95.931)" fill="#e30d18"/>
      <path id="Trazado_36991" data-name="Trazado 36991" d="M310.818,145.736h1.642v14.015h-1.642v-1.012a4.7,4.7,0,0,1-2.941,1.2,4.564,4.564,0,1,1,0-9.127,4.7,4.7,0,0,1,2.941,1.2Zm0,9.642a2.941,2.941,0,1,0-2.941,2.959,2.958,2.958,0,0,0,2.941-2.959" transform="translate(-103.651 -49.805)" fill="#e30d18"/>
      <path id="Trazado_36992" data-name="Trazado 36992" d="M340.751,159.876a9,9,0,0,1-4.048-2.062l1.126-1.279a7.3,7.3,0,0,0,3.265,1.7,4.194,4.194,0,0,0,2.635-.21,2.16,2.16,0,0,0,1.355-1.967c0-1.432-1.527-1.948-3.017-2.234a14.083,14.083,0,0,1-3.131-.955,3.357,3.357,0,0,1-1.757-2.978,3.49,3.49,0,0,1,.631-1.967,4.254,4.254,0,0,1,1.6-1.28,5.4,5.4,0,0,1,3.226-.4,7.781,7.781,0,0,1,3.609,1.719l-1.089,1.317c-1.966-1.623-3.876-1.661-5.022-1.126a1.964,1.964,0,0,0-1.24,1.719c0,1.3,1.107,1.794,2.863,2.176a12.71,12.71,0,0,1,3.131.935,3.389,3.389,0,0,1,1.89,3.075,3.668,3.668,0,0,1-.649,2.138,4.466,4.466,0,0,1-1.7,1.356,4.97,4.97,0,0,1-2.311.477,6.7,6.7,0,0,1-1.374-.153" transform="translate(-115.068 -49.95)" fill="#e30d18"/>
      <path id="Trazado_36993" data-name="Trazado 36993" d="M367.675,158.486h-6.74v.038a2.775,2.775,0,0,0,2.54,2.559,3.3,3.3,0,0,0,2.139-.916l1.374.821a5.179,5.179,0,0,1-1.164.974,4.991,4.991,0,0,1-2.31.649,3.914,3.914,0,0,1-2.959-1.337,4.5,4.5,0,0,1-1.184-2.75,2.923,2.923,0,0,1-.018-.4,4.7,4.7,0,0,1,.115-1.031,4.593,4.593,0,0,1,1.088-2.12,3.994,3.994,0,0,1,2.959-1.317,4.036,4.036,0,0,1,2.979,1.317,4.433,4.433,0,0,1,1.089,2.12,5.245,5.245,0,0,1,.095,1.394m-1.718-1.375-.019-.038a2.647,2.647,0,0,0-2.425-1.89,2.684,2.684,0,0,0-2.425,1.89l-.019.038Z" transform="translate(-122.808 -52.512)" fill="#e30d18"/>
      <path id="Trazado_36994" data-name="Trazado 36994" d="M381.409,154.54a5.336,5.336,0,0,1,3.189-1.088l-.4,1.642a2.713,2.713,0,0,0-2.788,2.635v4.659h-1.642v-8.745h1.642Z" transform="translate(-129.786 -52.442)" fill="#e30d18"/>
      <path id="Trazado_36995" data-name="Trazado 36995" d="M402.072,153.742l-3.552,8.745h-1.775l-3.551-8.745h1.775l2.674,6.569,2.653-6.569Z" transform="translate(-134.374 -52.541)" fill="#e30d18"/>
      <path id="Trazado_36996" data-name="Trazado 36996" d="M414.1,149.387a1.079,1.079,0,0,1,2.158,0,1.079,1.079,0,1,1-2.158,0m.267,2.5h1.642v8.745h-1.642Z" transform="translate(-141.52 -50.687)" fill="#e30d18"/>
      <path id="Trazado_36997" data-name="Trazado 36997" d="M433.351,160.707a6.744,6.744,0,0,1-.478.554,4.519,4.519,0,0,1-3.227,1.317,4.564,4.564,0,0,1-3.246-1.317,4.611,4.611,0,0,1,0-6.492,4.562,4.562,0,0,1,3.246-1.317,4.516,4.516,0,0,1,3.227,1.317,4,4,0,0,1,.459.534l-1.318.974a2.944,2.944,0,1,0-2.368,4.7,2.92,2.92,0,0,0,2.368-1.241Z" transform="translate(-145.266 -52.442)" fill="#e30d18"/>
      <path id="Trazado_36998" data-name="Trazado 36998" d="M452.76,158.486h-6.74v.038a2.775,2.775,0,0,0,2.54,2.559,3.3,3.3,0,0,0,2.139-.916l1.374.821a5.179,5.179,0,0,1-1.164.974,4.991,4.991,0,0,1-2.31.649,3.914,3.914,0,0,1-2.96-1.337,4.5,4.5,0,0,1-1.184-2.75,2.821,2.821,0,0,1-.019-.4,4.7,4.7,0,0,1,.115-1.031,4.593,4.593,0,0,1,1.088-2.12,3.994,3.994,0,0,1,2.96-1.317,4.036,4.036,0,0,1,2.979,1.317,4.433,4.433,0,0,1,1.089,2.12,5.243,5.243,0,0,1,.095,1.394m-1.718-1.375-.019-.038a2.647,2.647,0,0,0-2.425-1.89,2.684,2.684,0,0,0-2.425,1.89l-.019.038Z" transform="translate(-151.886 -52.512)" fill="#e30d18"/>
      <path id="Trazado_36999" data-name="Trazado 36999" d="M254.566,50.024a19.388,19.388,0,1,0,19.506,19.387,19.447,19.447,0,0,0-19.506-19.387m0,31.3A11.926,11.926,0,1,1,266.01,69.411a11.687,11.687,0,0,1-11.444,11.916" transform="translate(-80.332 -17.096)" fill="#fff"/>
      <path id="Trazado_37000" data-name="Trazado 37000" d="M177.569,81.927l-5.431-5.444a11.288,11.288,0,0,1-9.21,4.844,11.926,11.926,0,0,1,0-23.832,11.267,11.267,0,0,1,9.031,4.6l5.486-5.633a19.389,19.389,0,1,0,.334,25.51l-.211-.047" transform="translate(-49.015 -17.095)" fill="#fff"/>
      <path id="Trazado_37001" data-name="Trazado 37001" d="M221.435,53.492V46.151h-9.911V36.083h-8.547V46.151h-4.51v7.341h4.51V74.833s-.053,5.348,4.09,7.236,10.068,2.255,14.368-.262v-6.66s-3.775,1.626-6.5.944-3.408-2.674-3.408-6.24V53.492Z" transform="translate(-67.827 -12.331)" fill="#fff"/>
      <path id="Trazado_37002" data-name="Trazado 37002" d="M321.729,50.023a16.315,16.315,0,0,0-13.069,6.91v-6.2H300.4V99.024h8.259V81.889a16.314,16.314,0,0,0,13.069,6.91c9.433,0,17.081-8.68,17.081-19.388s-7.648-19.388-17.081-19.388m-2.333,31.3c-5.93,0-10.736-5.335-10.736-11.916S313.467,57.5,319.4,57.5s10.736,5.335,10.736,11.916S325.326,81.327,319.4,81.327" transform="translate(-102.662 -17.095)" fill="#fff"/>
      <path id="Trazado_37003" data-name="Trazado 37003" d="M389.463,82.815A13.485,13.485,0,0,1,377.9,89.291a13.135,13.135,0,0,1-13.135-13.135V51.537h8.229V73.508a8.286,8.286,0,0,0,16.573,0V51.537h8.495V88.5h-8.6Z" transform="translate(-124.659 -17.613)" fill="#fff"/>
      <path id="Trazado_37004" data-name="Trazado 37004" d="M449.848,75.043c-.629-2.2-1.888-5.9-11.837-8.888a38.173,38.173,0,0,1-5.7-2.32,3.548,3.548,0,0,1-1.946-3.733c.711-2.647,4.026-3.049,4.026-3.049a18.514,18.514,0,0,1,11.528,3.557l3.264-6.135a31.5,31.5,0,0,0-14.2-3.854c-7.63,0-12.349,6.1-12.27,10.3s.826,9.2,9.911,11.4,10.776,4.6,9.439,7.236-3.973,2.477-6.332,2.477-6.45-1.062-11.287-4.365l-3.657,5.585s5.623,5.7,17.737,5.348,11.955-11.365,11.326-13.568" transform="translate(-143.804 -17.3)" fill="#fff"/>
      <path id="Trazado_37005" data-name="Trazado 37005" d="M101.234,78.156a40.409,40.409,0,0,1-41.69-7.482,31.266,31.266,0,0,0,9.015-4.315A31.688,31.688,0,0,0,78.425,55.29a30.876,30.876,0,0,0,2.65-6.706,31.48,31.48,0,1,0-61.9-8.11,31.415,31.415,0,0,0,3.715,14.82,31.641,31.641,0,0,0,9.72,10.96,31.177,31.177,0,0,0,8.939,4.354A40.431,40.431,0,0,1,0,78.241l7.145-7.165a31.675,31.675,0,0,0,7.415.881,31.153,31.153,0,0,0,9.11-1.349,40.487,40.487,0,1,1,53.9.066,31.5,31.5,0,0,0,16.544.341Z" fill="#fff"/>
      <path id="Trazado_37006" data-name="Trazado 37006" d="M514.865,76.2a5.79,5.79,0,0,0-3.719-2.052.955.955,0,0,1-.886-.92,43.531,43.531,0,0,1-1.71,12.96c-3.034,11.656-11.974,23.3-23.275,27.712.131.211.276.479.461.825a6.36,6.36,0,0,0,9.227,2.509,52.215,52.215,0,0,0,4.412-3.142,9.68,9.68,0,0,0,4.007-7.452,9.314,9.314,0,0,0-1.149-5.107,1.293,1.293,0,0,1,.1-1.563,36.47,36.47,0,0,0,2.187-3.392.877.877,0,0,1,1.09-.529,7.665,7.665,0,0,0,2.023.385c3.248-.045,5.714-1.969,7.168-5.6l1.709-7c-.082-.316.1-.6.142-.9a7.465,7.465,0,0,0-1.79-6.726" transform="translate(-165.843 -25.027)" fill="#e30d18"/>
      <path id="Trazado_37007" data-name="Trazado 37007" d="M484.5,20.184a25.246,25.246,0,0,1,8.867,3.839,9.5,9.5,0,0,0-.059-5.192,6.12,6.12,0,0,0-4.007-4.5L483.429,12.9c-.278.122-.507-.074-.763-.093-2.281-.376-4.15.781-5.777,2.682a8.951,8.951,0,0,0-2.046,4.44,2.451,2.451,0,0,1-.11.43,24.2,24.2,0,0,1,9.771-.173" transform="translate(-162.24 -4.352)" fill="#e30d18"/>
      <path id="Trazado_37008" data-name="Trazado 37008" d="M519.621,53.634a9.8,9.8,0,0,0,2.948-10.994,41.546,41.546,0,0,0-2.866-5.806,6.182,6.182,0,0,0-8.083-2.677,8.276,8.276,0,0,0-1.659.962c4.761,5.255,7.512,12.391,8.413,19.8.134-.412.494-.7,1.248-1.284" transform="translate(-174.279 -11.474)" fill="#e30d18"/>
      <path id="Trazado_37009" data-name="Trazado 37009" d="M454.872,133.93a24.427,24.427,0,0,1-6.279-3.5,8.945,8.945,0,0,0-.205,4.806c.569,2.438,1.7,4.323,3.895,5.039.235.1.527.032.715.267l5.875,1.435c2.671.409,4.819-.865,6.589-3.331a9.292,9.292,0,0,0,1.54-3.655,25.069,25.069,0,0,1-12.13-1.062" transform="translate(-153.157 -44.575)" fill="#e30d18"/>
      <path id="Trazado_37010" data-name="Trazado 37010" d="M522.781,67.8a22.277,22.277,0,0,1,.211,2.657,2.215,2.215,0,0,0,.038.308A45.427,45.427,0,0,0,522.707,66a4.447,4.447,0,0,0,.074,1.8" transform="translate(-178.613 -22.555)" fill="#e30d18"/>
      <path id="Trazado_37011" data-name="Trazado 37011" d="M503.442,32.082a24.136,24.136,0,0,1,2.382,2,.851.851,0,0,0,1.326.014c.1-.084.206-.161.311-.238a25.951,25.951,0,0,0-4.551-3.975c-.015.059-.026.117-.043.176-.367,1.314-.34,1.338.575,2.023" transform="translate(-171.78 -10.213)" fill="#e30d18"/>
      <path id="Trazado_37012" data-name="Trazado 37012" d="M480.231,134.377a15.848,15.848,0,0,1-2.3.463,1.165,1.165,0,0,0-1.082,1.136c-.016.092-.042.178-.06.269a27.116,27.116,0,0,0,5.587-1.54c-.492-.789-.781-.712-2.144-.327" transform="translate(-162.943 -45.827)" fill="#e30d18"/>
      <path id="Trazado_37013" data-name="Trazado 37013" d="M446.2,126.471a17.461,17.461,0,0,1-2.5-2.091.845.845,0,0,0-1.153-.165,24.594,24.594,0,0,0,4.128,4.037c.008-.026.014-.052.022-.078a1.282,1.282,0,0,0-.5-1.7" transform="translate(-151.242 -42.397)" fill="#e30d18"/>
      <path id="Trazado_37014" data-name="Trazado 37014" d="M468.841,25.661a8.613,8.613,0,0,1,2.37-.5,1.184,1.184,0,0,0,1.118-.852,25.482,25.482,0,0,0-4.629,1.517,1.994,1.994,0,0,0,1.142-.169" transform="translate(-159.836 -8.309)" fill="#e30d18"/>
      <path id="Trazado_37015" data-name="Trazado 37015" d="M491.965,69.169a43.528,43.528,0,0,0,1.71-12.96,2.1,2.1,0,0,1-.038-.308,22.407,22.407,0,0,0-.211-2.657,4.464,4.464,0,0,1-.075-1.8c-.9-7.407-3.651-14.543-8.412-19.8-.1.078-.209.154-.311.238a.852.852,0,0,1-1.326-.014,24.129,24.129,0,0,0-2.382-2c-.915-.685-.942-.709-.575-2.023.016-.059.028-.117.043-.176a25.241,25.241,0,0,0-8.867-3.839,24.213,24.213,0,0,0-9.77.173,1.184,1.184,0,0,1-1.118.852,8.613,8.613,0,0,0-2.37.5,2,2,0,0,1-1.143.169A32.787,32.787,0,0,0,446.6,33.076h1.9c9.305-7.5,22.6-8.1,30.028,2.014,12.108,16.923,3.348,48.059-15.729,56.225-9.332,3.867-18.164,1.406-23.434-6.18l-2.617-1.59a28.594,28.594,0,0,0,3.82,6.278.845.845,0,0,1,1.153.165,17.467,17.467,0,0,0,2.5,2.091,1.283,1.283,0,0,1,.5,1.7c-.009.026-.015.051-.022.077a24.407,24.407,0,0,0,6.279,3.5,25.071,25.071,0,0,0,12.13,1.062c.018-.09.045-.177.061-.269a1.166,1.166,0,0,1,1.082-1.136,15.76,15.76,0,0,0,2.3-.463c1.363-.385,1.652-.461,2.144.327,11.3-4.408,20.241-16.055,23.275-27.712" transform="translate(-149.258 -8.004)" fill="#e30d18"/>
      <path id="Trazado_37016" data-name="Trazado 37016" d="M470.505,59.846c6.234-.194,10.008,7,9.122,12.58a12.7,12.7,0,0,1-7.26,10.279,8.08,8.08,0,0,1-4.119.6,14.571,14.571,0,0,0,7.459-11.351c.544-4.692-.888-9.344-5.2-12.105" transform="translate(-160.024 -20.451)" fill="#e30d18"/>
    </g>
  </g>
</svg>
