<svg xmlns="http://www.w3.org/2000/svg" width="188" height="150" viewBox="0 0 188 150">
  <g id="Grupo_5595" data-name="Grupo 5595" transform="translate(-2091 -2434)">
    <rect id="Rectángulo_2973" data-name="Rectángulo 2973" width="188" height="150" transform="translate(2091 2434)" fill="none"/>
    <g id="Grupo_5594" data-name="Grupo 5594" transform="translate(3526 887.853)">
      <g id="Grupo_5585" data-name="Grupo 5585" transform="translate(-1415 1570.696)">
        <path id="Trazado_37019" data-name="Trazado 37019" d="M28.862,27.176c0-.009,0-.017,0-.027V4.235a2.527,2.527,0,1,0-5.053,0V27.128C23.664,32.8,19.471,37.4,14.431,37.4S5.2,32.8,5.055,27.131V4.214A2.527,2.527,0,0,0,0,4.214V27.132c0,.015,0,.028,0,.044C.153,34.667,5.293,40.9,11.9,42.2V54.747A6.924,6.924,0,0,0,7.513,61.18V95.308a6.918,6.918,0,0,0,13.837,0V61.18a6.926,6.926,0,0,0-4.392-6.434V42.2c6.611-1.292,11.752-7.528,11.9-15.019M16.3,95.308a1.865,1.865,0,1,1-3.73,0V61.18a1.865,1.865,0,1,1,3.73,0Z" transform="translate(0 -1.686)" fill="#13002e"/>
        <path id="Trazado_37020" data-name="Trazado 37020" d="M11.075,29.651A2.526,2.526,0,0,0,13.6,27.124V4.213a2.527,2.527,0,0,0-5.053,0V27.124a2.526,2.526,0,0,0,2.527,2.527" transform="translate(-0.694 -1.686)" fill="#13002e"/>
        <path id="Trazado_37021" data-name="Trazado 37021" d="M19.768,29.651a2.526,2.526,0,0,0,2.527-2.527V4.213a2.527,2.527,0,1,0-5.053,0V27.124a2.526,2.526,0,0,0,2.527,2.527" transform="translate(-1.4 -1.686)" fill="#13002e"/>
      </g>
      <path id="Trazado_37022" data-name="Trazado 37022" d="M158,57.72V2.527a2.527,2.527,0,0,0-3.772-2.2c-.448.254-10.989,6.4-10.989,22.267V49.809a2.528,2.528,0,0,0,2.527,2.527h7.181v3.345a6.923,6.923,0,0,0-6.77,6.91V96.72a6.918,6.918,0,0,0,13.836,0V62.591A6.9,6.9,0,0,0,158,57.72M148.3,47.283V22.6c0-6.989,2.41-11.614,4.654-14.405V47.283Zm6.667,49.437a1.865,1.865,0,0,1-3.729,0V62.591a1.865,1.865,0,0,1,3.729,0Z" transform="translate(-1426.636 1569.147)" fill="#13002e"/>
      <g id="Grupo_5584" data-name="Grupo 5584" transform="translate(-1386.385 1572.369)">
        <path id="Trazado_37023" data-name="Trazado 37023" d="M79.742,3.507a48.6,48.6,0,1,0,48.6,48.6,48.652,48.652,0,0,0-48.6-48.6m0,92.141A43.544,43.544,0,1,1,123.287,52.1,43.594,43.594,0,0,1,79.742,95.648" transform="translate(-31.145 -3.507)" fill="#13002e"/>
        <path id="Trazado_37024" data-name="Trazado 37024" d="M81.2,21.415A32.143,32.143,0,1,0,113.34,53.558,32.179,32.179,0,0,0,81.2,21.415m0,59.233a27.09,27.09,0,1,1,27.09-27.09A27.12,27.12,0,0,1,81.2,80.648" transform="translate(-32.6 -4.962)" fill="#13002e"/>
      </g>
    </g>
  </g>
</svg>
