<svg xmlns="http://www.w3.org/2000/svg" width="100" height="80" viewBox="0 0 100 80">
  <g id="Grupo_5592" data-name="Grupo 5592" transform="translate(-2469 -2245)">
    <g id="Grupo_5588" data-name="Grupo 5588" transform="translate(3896 689.853)">
      <g id="Grupo_5585" data-name="Grupo 5585" transform="translate(-1415 1569.933)">
        <path id="Trazado_37019" data-name="Trazado 37019" d="M14.652,14.627s0-.009,0-.014V2.98a1.283,1.283,0,0,0-2.565,0V14.6c-.073,2.878-2.2,5.214-4.76,5.214S2.639,17.48,2.566,14.6V2.97A1.283,1.283,0,0,0,0,2.97V14.6c0,.007,0,.014,0,.022a7.816,7.816,0,0,0,6.043,7.624v6.372a3.515,3.515,0,0,0-2.229,3.266V49.213a3.512,3.512,0,0,0,7.024,0V31.888a3.516,3.516,0,0,0-2.229-3.266V22.251a7.816,7.816,0,0,0,6.043-7.624M8.273,49.213a.947.947,0,0,1-1.894,0V31.888a.947.947,0,1,1,1.894,0Z" transform="translate(0 -1.687)" fill="#13002e"/>
        <path id="Trazado_37020" data-name="Trazado 37020" d="M9.831,15.882A1.282,1.282,0,0,0,11.113,14.6V2.969a1.283,1.283,0,0,0-2.565,0V14.6a1.282,1.282,0,0,0,1.283,1.283" transform="translate(-4.561 -1.686)" fill="#13002e"/>
        <path id="Trazado_37021" data-name="Trazado 37021" d="M18.524,15.882A1.282,1.282,0,0,0,19.806,14.6V2.969a1.283,1.283,0,1,0-2.565,0V14.6a1.282,1.282,0,0,0,1.283,1.283" transform="translate(-9.2 -1.686)" fill="#13002e"/>
      </g>
      <path id="Trazado_37022" data-name="Trazado 37022" d="M150.736,29.3V1.283A1.283,1.283,0,0,0,148.822.167c-.228.129-5.579,3.249-5.579,11.3V25.286a1.283,1.283,0,0,0,1.283,1.283h3.645v1.7a3.514,3.514,0,0,0-3.437,3.508V49.1a3.512,3.512,0,0,0,7.024,0V31.774a3.5,3.5,0,0,0-1.021-2.473M145.808,24V11.471a11.358,11.358,0,0,1,2.363-7.313V24Zm3.384,25.1a.947.947,0,0,1-1.893,0V31.774a.947.947,0,0,1,1.893,0Z" transform="translate(-1491.434 1569.147)" fill="#13002e"/>
      <g id="Grupo_5584" data-name="Grupo 5584" transform="translate(-1400.474 1570.783)">
        <path id="Trazado_37023" data-name="Trazado 37023" d="M55.815,3.507a24.67,24.67,0,1,0,24.67,24.67,24.7,24.7,0,0,0-24.67-24.67m0,46.775a22.1,22.1,0,1,1,22.1-22.1,22.13,22.13,0,0,1-22.1,22.1" transform="translate(-31.145 -3.507)" fill="#13002e"/>
        <path id="Trazado_37024" data-name="Trazado 37024" d="M65.372,21.415A16.317,16.317,0,1,0,81.689,37.732,16.336,16.336,0,0,0,65.372,21.415m0,30.069A13.752,13.752,0,1,1,79.124,37.732,13.767,13.767,0,0,1,65.372,51.484" transform="translate(-40.702 -13.063)" fill="#13002e"/>
      </g>
    </g>
    <g id="Grupo_5591" data-name="Grupo 5591" transform="translate(120)">
      <rect id="Rectángulo_2972" data-name="Rectángulo 2972" width="100" height="80" transform="translate(2349 2245)" fill="none"/>
    </g>
  </g>
</svg>
