<svg id="Grupo_4723" data-name="Grupo 4723" xmlns="http://www.w3.org/2000/svg" width="380.704" height="134.715" viewBox="0 0 380.704 134.715">
  <g id="Grupo_4705" data-name="Grupo 4705" transform="translate(0 0)">
    <path id="Trazado_35039" data-name="Trazado 35039" d="M1586.783,628.55a21.029,21.029,0,1,0,21.156,21.028,21.093,21.093,0,0,0-21.156-21.028m0,33.952a12.935,12.935,0,1,1,12.413-12.924,12.676,12.676,0,0,1-12.413,12.924" transform="translate(-1397.806 -592.836)" fill="#fff"/>
    <path id="Trazado_35040" data-name="Trazado 35040" d="M1513.94,663.153l-5.891-5.9a12.242,12.242,0,0,1-9.989,5.254,12.935,12.935,0,0,1,0-25.848,12.222,12.222,0,0,1,9.795,4.99l5.95-6.109a21.03,21.03,0,1,0,.363,27.669l-.228-.051" transform="translate(-1374.507 -592.836)" fill="#fff"/>
    <path id="Trazado_35041" data-name="Trazado 35041" d="M1555.109,633.934v-7.962h-10.75v-10.92h-9.27v10.92H1530.2v7.962h4.891v23.147s-.057,5.8,4.436,7.848,10.919,2.446,15.583-.284v-7.223s-4.095,1.763-7.052,1.023-3.7-2.9-3.7-6.768V633.934Z" transform="translate(-1388.502 -589.291)" fill="#fff"/>
    <path id="Trazado_35042" data-name="Trazado 35042" d="M1652.024,628.549a17.7,17.7,0,0,0-14.175,7.495v-6.727h-8.958V681.7h8.958V663.112a17.7,17.7,0,0,0,14.175,7.494c10.231,0,18.526-9.414,18.526-21.028s-8.295-21.029-18.526-21.029m-2.53,33.953c-6.432,0-11.645-5.786-11.645-12.924s5.214-12.924,11.645-12.924,11.644,5.787,11.644,12.924-5.213,12.924-11.644,12.924" transform="translate(-1414.42 -592.836)" fill="#fff"/>
    <path id="Trazado_35043" data-name="Trazado 35043" d="M1718,663.939a14.626,14.626,0,0,1-12.54,7.024,14.247,14.247,0,0,1-14.246-14.246v-26.7h8.926v23.83a8.987,8.987,0,0,0,17.974,0v-23.83h9.214V670.11H1718Z" transform="translate(-1430.786 -593.221)" fill="#fff"/>
    <path id="Trazado_35044" data-name="Trazado 35044" d="M1776.971,655.617c-.683-2.389-2.048-6.4-12.839-9.64a41.4,41.4,0,0,1-6.185-2.517,3.848,3.848,0,0,1-2.111-4.049c.771-2.871,4.366-3.306,4.366-3.306,3.266-.295,8.085.782,12.5,3.858l3.54-6.654a34.164,34.164,0,0,0-15.4-4.18c-8.276,0-13.394,6.612-13.309,11.176s.9,9.981,10.75,12.37,11.687,4.991,10.237,7.848-4.309,2.687-6.868,2.687-6.995-1.152-12.241-4.734l-3.967,6.057s6.1,6.184,19.238,5.8,12.966-12.327,12.284-14.716" transform="translate(-1445.029 -592.988)" fill="#fff"/>
    <path id="Trazado_35045" data-name="Trazado 35045" d="M1447.84,664.886a43.826,43.826,0,0,1-45.218-8.115,33.918,33.918,0,0,0,9.777-4.68,34.371,34.371,0,0,0,10.7-12.005,33.493,33.493,0,0,0,2.874-7.273,34.151,34.151,0,1,0-63.109,7.278,34.31,34.31,0,0,0,10.542,11.888,33.8,33.8,0,0,0,9.7,4.722,43.853,43.853,0,0,1-45.064,8.279l7.75-7.771a34.366,34.366,0,0,0,8.043.955,33.774,33.774,0,0,0,9.88-1.463,43.914,43.914,0,1,1,58.46.071,34.172,34.172,0,0,0,17.944.37Z" transform="translate(-1338.04 -580.117)" fill="#fff"/>
  </g>
  <path id="Trazado_35046" data-name="Trazado 35046" d="M1839.982,654.245a6.28,6.28,0,0,0-4.033-2.225,1.036,1.036,0,0,1-.962-1,47.2,47.2,0,0,1-1.854,14.056c-3.29,12.642-12.987,25.275-25.245,30.056.142.229.3.52.5.895a6.9,6.9,0,0,0,10.007,2.722,56.417,56.417,0,0,0,4.785-3.408,10.494,10.494,0,0,0,4.346-8.083,10.089,10.089,0,0,0-1.246-5.539,1.4,1.4,0,0,1,.111-1.7,39.158,39.158,0,0,0,2.372-3.68.952.952,0,0,1,1.183-.573,8.319,8.319,0,0,0,2.2.418c3.523-.049,6.2-2.135,7.774-6.08q.928-3.8,1.855-7.593c-.089-.343.113-.651.153-.978A8.094,8.094,0,0,0,1839.982,654.245Z" transform="translate(-1461.426 -598.737)" fill="#da0011"/>
  <path id="Trazado_35047" data-name="Trazado 35047" d="M1808.278,600.526a27.373,27.373,0,0,1,9.617,4.164,10.3,10.3,0,0,0-.063-5.631,6.639,6.639,0,0,0-4.347-4.879l-6.373-1.556c-.3.132-.549-.08-.827-.1-2.474-.408-4.5.847-6.267,2.909a9.716,9.716,0,0,0-2.22,4.816,2.656,2.656,0,0,1-.119.466A26.253,26.253,0,0,1,1808.278,600.526Z" transform="translate(-1458.745 -583.355)" fill="#da0011"/>
  <path id="Trazado_35048" data-name="Trazado 35048" d="M1842.267,634.381a10.624,10.624,0,0,0,3.2-11.924,45,45,0,0,0-3.108-6.3,6.707,6.707,0,0,0-8.768-2.9,9.03,9.03,0,0,0-1.8,1.044c5.165,5.7,8.148,13.44,9.125,21.474C1841.058,635.326,1841.449,635.019,1842.267,634.381Z" transform="translate(-1467.703 -588.653)" fill="#da0011"/>
  <path id="Trazado_35049" data-name="Trazado 35049" d="M1779.234,710.2a26.493,26.493,0,0,1-6.81-3.8,9.706,9.706,0,0,0-.221,5.213c.617,2.644,1.84,4.689,4.224,5.465.255.109.57.035.776.291l6.372,1.556c2.9.444,5.227-.938,7.147-3.612a10.073,10.073,0,0,0,1.67-3.963A27.192,27.192,0,0,1,1779.234,710.2Z" transform="translate(-1451.988 -613.28)" fill="#da0011"/>
  <path id="Trazado_35050" data-name="Trazado 35050" d="M1844.218,645.966a24.144,24.144,0,0,1,.229,2.883,2.43,2.43,0,0,0,.041.334,49.208,49.208,0,0,0-.35-5.165A4.833,4.833,0,0,0,1844.218,645.966Z" transform="translate(-1470.927 -596.898)" fill="#da0011"/>
  <path id="Trazado_35051" data-name="Trazado 35051" d="M1825.57,611.435a26.349,26.349,0,0,1,2.584,2.17.924.924,0,0,0,1.438.015c.11-.091.224-.174.336-.259a28.042,28.042,0,0,0-4.936-4.311c-.016.063-.029.127-.046.191C1824.548,610.666,1824.578,610.692,1825.57,611.435Z" transform="translate(-1465.843 -587.715)" fill="#da0011"/>
  <path id="Trazado_35052" data-name="Trazado 35052" d="M1803.4,710.254a17.118,17.118,0,0,1-2.5.5,1.264,1.264,0,0,0-1.173,1.232c-.017.1-.046.193-.066.291a29.386,29.386,0,0,0,6.06-1.671C1805.2,709.754,1804.883,709.836,1803.4,710.254Z" transform="translate(-1459.268 -614.212)" fill="#da0011"/>
  <path id="Trazado_35053" data-name="Trazado 35053" d="M1770.484,702.847a19.005,19.005,0,0,1-2.713-2.267.917.917,0,0,0-1.251-.178A26.675,26.675,0,0,0,1771,704.78c.009-.028.016-.056.024-.084A1.39,1.39,0,0,0,1770.484,702.847Z" transform="translate(-1450.563 -611.66)" fill="#da0011"/>
  <path id="Trazado_35054" data-name="Trazado 35054" d="M1792.109,605.12a9.342,9.342,0,0,1,2.571-.538,1.283,1.283,0,0,0,1.211-.924,27.715,27.715,0,0,0-5.022,1.644A2.165,2.165,0,0,0,1792.109,605.12Z" transform="translate(-1456.957 -586.299)" fill="#da0011"/>
  <path id="Trazado_35055" data-name="Trazado 35055" d="M1820.793,652.413a47.221,47.221,0,0,0,1.854-14.056,2.448,2.448,0,0,1-.041-.334,24.117,24.117,0,0,0-.229-2.882,4.832,4.832,0,0,1-.08-1.949c-.977-8.034-3.96-15.774-9.125-21.474-.113.085-.226.167-.336.259a.924.924,0,0,1-1.438-.015,26.324,26.324,0,0,0-2.584-2.17c-.992-.743-1.022-.769-.625-2.194.018-.064.03-.128.047-.191a27.374,27.374,0,0,0-9.617-4.164,26.252,26.252,0,0,0-10.6.188,1.283,1.283,0,0,1-1.212.924,9.35,9.35,0,0,0-2.571.538,2.165,2.165,0,0,1-1.24.183,35.562,35.562,0,0,0-11.408,8.19h2.056c10.093-8.136,24.518-8.79,32.569,2.184,13.134,18.355,3.632,52.126-17.06,60.982-10.121,4.194-19.7,1.526-25.417-6.7L1760.9,668a31,31,0,0,0,4.144,6.809.917.917,0,0,1,1.25.178,19.006,19.006,0,0,0,2.713,2.268,1.39,1.39,0,0,1,.538,1.849c-.009.028-.015.056-.024.084a26.485,26.485,0,0,0,6.81,3.8,27.191,27.191,0,0,0,13.156,1.152c.02-.1.049-.192.066-.291a1.264,1.264,0,0,1,1.173-1.232,17.1,17.1,0,0,0,2.5-.5c1.479-.418,1.791-.5,2.325.355C1807.806,677.687,1817.5,665.055,1820.793,652.413Z" transform="translate(-1449.087 -586.072)" fill="#da0011"/>
  <path id="Trazado_35056" data-name="Trazado 35056" d="M1793.851,638.062c5.87,1.518,9.179,8.351,7.42,15.326-1.371,5.442-5.4,9.348-9.869,10.115" transform="translate(-1457.097 -595.334)" fill="none" stroke="#da0011" stroke-miterlimit="10" stroke-width="6"/>
  <g id="Grupo_4706" data-name="Grupo 4706" transform="translate(41.505 108.457)">
    <path id="Trazado_35057" data-name="Trazado 35057" d="M1466.08,741.992a12.617,12.617,0,0,1-5.672-2.891l1.578-1.792a10.228,10.228,0,0,0,4.576,2.382,5.877,5.877,0,0,0,3.692-.3,3.025,3.025,0,0,0,1.9-2.756c0-2.006-2.14-2.728-4.228-3.13a19.765,19.765,0,0,1-4.388-1.338,4.708,4.708,0,0,1-2.462-4.174,4.885,4.885,0,0,1,.883-2.755,5.957,5.957,0,0,1,2.248-1.793,7.563,7.563,0,0,1,4.522-.562,10.9,10.9,0,0,1,5.056,2.407l-1.525,1.847c-2.756-2.275-5.432-2.328-7.037-1.579a2.752,2.752,0,0,0-1.739,2.408c0,1.819,1.552,2.515,4.014,3.051a17.777,17.777,0,0,1,4.387,1.31,4.749,4.749,0,0,1,2.649,4.308,5.142,5.142,0,0,1-.909,3,6.25,6.25,0,0,1-2.382,1.9,6.96,6.96,0,0,1-3.238.669A9.472,9.472,0,0,1,1466.08,741.992Z" transform="translate(-1460.408 -722.77)" fill="#fff"/>
    <path id="Trazado_35058" data-name="Trazado 35058" d="M1494.031,736.794h-9.445v.054a3.893,3.893,0,0,0,3.56,3.585,4.634,4.634,0,0,0,3-1.285l1.927,1.15a7.277,7.277,0,0,1-1.632,1.365,7.006,7.006,0,0,1-3.238.91,5.49,5.49,0,0,1-4.147-1.873,6.315,6.315,0,0,1-1.658-3.853,3.811,3.811,0,0,1-.028-.562,6.723,6.723,0,0,1,.16-1.446,6.45,6.45,0,0,1,1.526-2.97,5.611,5.611,0,0,1,8.321,0,6.2,6.2,0,0,1,1.526,2.97A7.342,7.342,0,0,1,1494.031,736.794Zm-2.407-1.926-.027-.054a3.709,3.709,0,0,0-3.4-2.648,3.762,3.762,0,0,0-3.4,2.648l-.026.054Z" transform="translate(-1461.44 -723.111)" fill="#fff"/>
    <path id="Trazado_35059" data-name="Trazado 35059" d="M1504.658,731.354c.777-.856,3.051-1.526,4.47-1.526l-.563,2.3a3.8,3.8,0,0,0-3.907,3.692v6.529h-2.3V730.1h2.3Z" transform="translate(-1462.379 -723.102)" fill="#fff"/>
    <path id="Trazado_35060" data-name="Trazado 35060" d="M1527.8,730.109l-4.977,12.255h-2.488l-4.977-12.255h2.489l3.744,9.2,3.721-9.2Z" transform="translate(-1462.99 -723.115)" fill="#fff"/>
    <path id="Trazado_35061" data-name="Trazado 35061" d="M1535.882,726.357a1.512,1.512,0,0,1,3.024,0,1.512,1.512,0,1,1-3.024,0Zm.374,3.505h2.3v12.255h-2.3Z" transform="translate(-1463.955 -722.868)" fill="#fff"/>
    <path id="Trazado_35062" data-name="Trazado 35062" d="M1558.445,740a9.365,9.365,0,0,1-.669.777,6.494,6.494,0,0,1-9.07,0,6.459,6.459,0,0,1,0-9.1,6.491,6.491,0,0,1,9.07,0,5.688,5.688,0,0,1,.642.749l-1.846,1.365a4.125,4.125,0,1,0-3.318,6.582,4.1,4.1,0,0,0,3.318-1.738Z" transform="translate(-1464.469 -723.102)" fill="#fff"/>
    <path id="Trazado_35063" data-name="Trazado 35063" d="M1566.8,726.357a1.512,1.512,0,0,1,3.024,0,1.512,1.512,0,1,1-3.024,0Zm.373,3.505h2.3v12.255h-2.3Z" transform="translate(-1465.407 -722.868)" fill="#fff"/>
    <path id="Trazado_35064" data-name="Trazado 35064" d="M1590.618,736.223a6.439,6.439,0,0,1-6.421,6.422,6.409,6.409,0,1,1,0-12.817,6.4,6.4,0,0,1,6.421,6.395Zm-2.3,0a4.121,4.121,0,1,0-4.12,4.122A4.1,4.1,0,0,0,1588.316,736.223Z" transform="translate(-1465.923 -723.102)" fill="#fff"/>
    <path id="Trazado_35065" data-name="Trazado 35065" d="M1607.47,738.743a3.284,3.284,0,0,1-.588,1.926,3.929,3.929,0,0,1-1.633,1.338,5.382,5.382,0,0,1-2.195.455,6.622,6.622,0,0,1-1.257-.134,8.08,8.08,0,0,1-3.666-1.766l1.445-1.578a5.232,5.232,0,0,0,3.373,1.445,3.543,3.543,0,0,0,1.417-.294,1.529,1.529,0,0,0,.964-1.391c0-.829-.722-1.338-2.381-1.632a14.349,14.349,0,0,1-2.864-.829,3.166,3.166,0,0,1-1.713-2.863,3.369,3.369,0,0,1,.589-1.874,3.691,3.691,0,0,1,1.525-1.177,4.986,4.986,0,0,1,2.114-.456c.295,0,.616.028.909.054a7.047,7.047,0,0,1,3.292,1.472l-1.339,1.552a4.519,4.519,0,0,0-2.755-1.07,2.95,2.95,0,0,0-1.311.267,1.465,1.465,0,0,0-.884,1.231c0,.8.642,1.23,2.275,1.578a16.775,16.775,0,0,1,2.835.829,3.368,3.368,0,0,1,1.285,1.044A3.226,3.226,0,0,1,1607.47,738.743Z" transform="translate(-1466.879 -723.106)" fill="#fff"/>
    <path id="Trazado_35066" data-name="Trazado 35066" d="M1638.015,736.794h-9.445v.054a3.893,3.893,0,0,0,3.558,3.585,4.639,4.639,0,0,0,3-1.285l1.926,1.15a7.259,7.259,0,0,1-1.632,1.365,7,7,0,0,1-3.238.91,5.492,5.492,0,0,1-4.147-1.873,6.317,6.317,0,0,1-1.658-3.853,3.966,3.966,0,0,1-.027-.562,6.552,6.552,0,0,1,.161-1.446,6.441,6.441,0,0,1,1.524-2.97,5.6,5.6,0,0,1,4.147-1.846,5.659,5.659,0,0,1,4.175,1.846,6.205,6.205,0,0,1,1.524,2.97A7.366,7.366,0,0,1,1638.015,736.794Zm-2.408-1.926-.027-.054a3.709,3.709,0,0,0-3.4-2.648,3.764,3.764,0,0,0-3.4,2.648l-.027.054Z" transform="translate(-1468.205 -723.111)" fill="#fff"/>
    <path id="Trazado_35067" data-name="Trazado 35067" d="M1657.8,735.77v6.582h-2.3V735.77a3.612,3.612,0,1,0-7.224,0v6.582h-2.3V730.1h2.3v1.178a6.091,6.091,0,0,1,3.612-1.418,5.881,5.881,0,0,1,4.2,1.713A5.949,5.949,0,0,1,1657.8,735.77Z" transform="translate(-1469.128 -723.103)" fill="#fff"/>
    <path id="Trazado_35068" data-name="Trazado 35068" d="M1688.756,740a9.012,9.012,0,0,1-.669.777,6.332,6.332,0,0,1-4.522,1.846,6.4,6.4,0,0,1-4.55-1.846,6.463,6.463,0,0,1,0-9.1,6.393,6.393,0,0,1,4.55-1.847,6.329,6.329,0,0,1,4.522,1.847,5.547,5.547,0,0,1,.642.749l-1.847,1.365a4.125,4.125,0,1,0-3.318,6.582,4.093,4.093,0,0,0,3.318-1.738Z" transform="translate(-1470.592 -723.102)" fill="#fff"/>
    <path id="Trazado_35069" data-name="Trazado 35069" d="M1706.721,730.1h2.3v12.255h-2.3v-1.418a6.588,6.588,0,0,1-4.12,1.686,6.4,6.4,0,1,1,0-12.79,6.583,6.583,0,0,1,4.12,1.686Zm0,6.127a4.12,4.12,0,1,0-4.12,4.148A4.144,4.144,0,0,0,1706.721,736.223Z" transform="translate(-1471.487 -723.102)" fill="#fff"/>
    <path id="Trazado_35070" data-name="Trazado 35070" d="M1738.673,735.77v6.582h-2.3V735.77a3.626,3.626,0,1,0-7.251,0v6.582h-2.3V735.77a3.613,3.613,0,1,0-7.225,0v6.582h-2.3V730.1h2.3v1.178a6.1,6.1,0,0,1,3.612-1.418,5.988,5.988,0,0,1,4.2,1.819,4.368,4.368,0,0,1,.562.669,6.914,6.914,0,0,1,.588-.669,5.989,5.989,0,0,1,4.2-1.819,5.894,5.894,0,0,1,5.914,5.913Z" transform="translate(-1472.479 -723.103)" fill="#fff"/>
    <path id="Trazado_35071" data-name="Trazado 35071" d="M1760.209,736.223a6.394,6.394,0,0,1-6.422,6.4,6.593,6.593,0,0,1-4.121-1.686v8.428h-2.3V730.1h2.3v1.418a6.588,6.588,0,0,1,4.121-1.686,6.4,6.4,0,0,1,6.422,6.395Zm-2.3,0a4.121,4.121,0,1,0-4.121,4.148A4.145,4.145,0,0,0,1757.908,736.223Z" transform="translate(-1473.892 -723.102)" fill="#fff"/>
    <path id="Trazado_35072" data-name="Trazado 35072" d="M1780.566,736.223a6.441,6.441,0,0,1-6.422,6.422,6.409,6.409,0,1,1,0-12.817,6.4,6.4,0,0,1,6.422,6.395Zm-2.3,0a4.12,4.12,0,1,0-4.12,4.122A4.1,4.1,0,0,0,1778.264,736.223Z" transform="translate(-1474.848 -723.102)" fill="#fff"/>
  </g>
</svg>
