<svg xmlns="http://www.w3.org/2000/svg" xmlns:xlink="http://www.w3.org/1999/xlink" width="300" height="100.348" viewBox="0 0 300 100.348">
  <defs>
    <clipPath id="clip-path">
      <rect id="Rect치ngulo_3185" data-name="Rect치ngulo 3185" width="291.086" height="99.348" fill="none"/>
    </clipPath>
  </defs>
  <g id="Grupo_20777" data-name="Grupo 20777" transform="translate(-968 -593)">
    <g id="Grupo_20772" data-name="Grupo 20772" transform="translate(972 594)">
      <g id="Grupo_20771" data-name="Grupo 20771" transform="translate(0)" clip-path="url(#clip-path)">
        <path id="Trazado_40479" data-name="Trazado 40479" d="M251.615,50.022A16.455,16.455,0,1,0,268.17,66.478a16.506,16.506,0,0,0-16.555-16.456m0,26.569a10.122,10.122,0,1,1,9.713-10.113,9.919,9.919,0,0,1-9.713,10.113" transform="translate(-103.74 -22.076)" fill="#fff"/>
        <path id="Trazado_40480" data-name="Trazado 40480" d="M172.4,77.1l-4.609-4.62a9.58,9.58,0,0,1-7.816,4.111,10.122,10.122,0,0,1,0-20.227,9.563,9.563,0,0,1,7.664,3.905L172.3,55.49a16.456,16.456,0,1,0,.284,21.651l-.179-.04" transform="translate(-63.297 -22.077)" fill="#fff"/>
        <path id="Trazado_40481" data-name="Trazado 40481" d="M217.96,50.858v-6.23h-8.411V36.083H202.3v8.545h-3.827v6.23H202.3V68.971s-.045,4.539,3.471,6.141,8.545,1.914,12.194-.222V69.237s-3.2,1.38-5.518.8-2.893-2.27-2.893-5.3V50.858Z" transform="translate(-87.591 -15.925)" fill="#fff"/>
        <path id="Trazado_40482" data-name="Trazado 40482" d="M318.5,50.023a13.847,13.847,0,0,0-11.092,5.865V50.624H300.4V91.611h7.01V77.068A13.846,13.846,0,0,0,318.5,82.932c8.006,0,14.5-7.367,14.5-16.454s-6.491-16.455-14.5-16.455m-1.98,26.568c-5.032,0-9.112-4.527-9.112-10.113s4.079-10.114,9.112-10.114,9.112,4.528,9.112,10.114-4.079,10.113-9.112,10.113" transform="translate(-132.577 -22.077)" fill="#fff"/>
        <path id="Trazado_40483" data-name="Trazado 40483" d="M385.727,78.082a11.445,11.445,0,0,1-9.813,5.5A11.148,11.148,0,0,1,364.766,72.43V51.536h6.984V70.183a7.033,7.033,0,0,0,14.066,0V51.536h7.21V82.911h-7.3Z" transform="translate(-160.984 -22.745)" fill="#fff"/>
        <path id="Trazado_40484" data-name="Trazado 40484" d="M445.452,71.348c-.534-1.869-1.6-5.007-10.046-7.543a32.4,32.4,0,0,1-4.84-1.969,3.012,3.012,0,0,1-1.652-3.168c.6-2.247,3.417-2.588,3.417-2.588a15.713,15.713,0,0,1,9.784,3.019l2.77-5.207a26.733,26.733,0,0,0-12.049-3.271c-6.475,0-10.481,5.173-10.414,8.745s.7,7.81,8.411,9.679,9.145,3.905,8.011,6.141-3.372,2.1-5.374,2.1-5.474-.9-9.579-3.7l-3.1,4.74s4.773,4.839,15.053,4.539,10.146-9.646,9.612-11.515" transform="translate(-185.707 -22.341)" fill="#fff"/>
        <path id="Trazado_40485" data-name="Trazado 40485" d="M85.919,66.332a34.3,34.3,0,0,1-35.383-6.35,26.536,26.536,0,0,0,7.651-3.663,26.894,26.894,0,0,0,8.374-9.394,26.176,26.176,0,0,0,2.249-5.691,26.717,26.717,0,1,0-52.536-6.883A26.662,26.662,0,0,0,19.426,46.93a26.854,26.854,0,0,0,8.249,9.3,26.461,26.461,0,0,0,7.587,3.7A34.314,34.314,0,0,1,0,66.4l6.064-6.081a26.886,26.886,0,0,0,6.293.748,26.44,26.44,0,0,0,7.731-1.145,34.362,34.362,0,1,1,45.745.056,26.734,26.734,0,0,0,14.041.289Z" transform="translate(0 0)" fill="#fff"/>
        <path id="Trazado_40486" data-name="Trazado 40486" d="M465.119,71.474c.022,1.857,1.192,3.188,2.613,2.97s2.556-1.9,2.535-3.759-1.192-3.187-2.614-2.969-2.556,1.9-2.535,3.758" transform="translate(-205.273 -29.875)" fill="#8b3785"/>
        <path id="Trazado_40487" data-name="Trazado 40487" d="M464.855,22.018c-8.232-1.523-15.431,2.049-20.848,7.731h1.586c7.785-6.276,18.913-6.78,25.123,1.685,10.131,14.159,2.8,40.209-13.159,47.04-7.807,3.235-15.2,1.177-19.606-5.17l-2.19-1.331a21.147,21.147,0,0,0,11.9,11.558c15.862,5.388,30.526-9.1,34.3-23.585,4.257-14.359-.755-34.289-17.1-37.928" transform="translate(-192.316 -9.562)" fill="#8b3785"/>
        <path id="Trazado_40488" data-name="Trazado 40488" d="M482.047,45.339a2.668,2.668,0,0,0-4.18.981l-5.42,12.643a1.836,1.836,0,1,0,3.387,1.419l6.381-14.9Z" transform="translate(-208.443 -19.729)" fill="#8b3785"/>
        <path id="Trazado_40489" data-name="Trazado 40489" d="M483.691,86.583a2.668,2.668,0,0,0,.674-4.241l-9.651-9.8a1.836,1.836,0,0,0-2.6,2.6L483.5,86.684Z" transform="translate(-208.125 -31.777)" fill="#8b3785"/>
        <path id="Trazado_40490" data-name="Trazado 40490" d="M469.262,71.125c.025,2.15,1.379,3.689,3.025,3.437s2.959-2.2,2.934-4.349-1.379-3.689-3.025-3.437-2.959,2.2-2.934,4.349" transform="translate(-207.101 -29.458)" fill="#8b3785"/>
        <path id="Trazado_40491" data-name="Trazado 40491" d="M295.825,149.577h1.458v10.129h6.32v1.41h-7.778Z" transform="translate(-130.558 -66.013)" fill="#fff"/>
        <path id="Trazado_40492" data-name="Trazado 40492" d="M324.425,160.528a3.9,3.9,0,0,1-3.889,3.889,3.881,3.881,0,1,1,0-7.763,3.872,3.872,0,0,1,3.889,3.873m-1.394,0a2.5,2.5,0,1,0-2.5,2.5,2.483,2.483,0,0,0,2.5-2.5" transform="translate(-139.747 -69.137)" fill="#fff"/>
        <path id="Trazado_40493" data-name="Trazado 40493" d="M345.507,156.817V164.6a3.9,3.9,0,0,1-3.889,3.889,4.076,4.076,0,0,1-2.09-.566,4.437,4.437,0,0,1-.7-.535l1.054-.924a3.22,3.22,0,0,0,1.734.665,2.525,2.525,0,0,0,2.5-2.529V163.38a3.992,3.992,0,0,1-2.5,1.021,3.873,3.873,0,1,1,0-7.746,3.992,3.992,0,0,1,2.5,1.021v-.859Zm-1.393,3.711a2.5,2.5,0,1,0-2.5,2.512,2.511,2.511,0,0,0,2.5-2.512" transform="translate(-149.051 -69.137)" fill="#fff"/>
        <path id="Trazado_40494" data-name="Trazado 40494" d="M360.986,154.679h1.394V162.1h-1.394Zm1.28-2.868h1.1l-1.346,1.734h-.583Z" transform="translate(-159.315 -66.999)" fill="#fff"/>
        <path id="Trazado_40495" data-name="Trazado 40495" d="M377.545,162.09a1.984,1.984,0,0,1-.356,1.167,2.371,2.371,0,0,1-.988.81,3.25,3.25,0,0,1-1.329.275,4.053,4.053,0,0,1-.761-.081,4.888,4.888,0,0,1-2.22-1.069l.875-.956a3.167,3.167,0,0,0,2.042.875,2.143,2.143,0,0,0,.859-.178.927.927,0,0,0,.583-.843c0-.5-.438-.81-1.442-.989a8.673,8.673,0,0,1-1.735-.5,1.916,1.916,0,0,1-1.037-1.734,2.045,2.045,0,0,1,.356-1.135,2.236,2.236,0,0,1,.924-.713,3.022,3.022,0,0,1,1.28-.275c.178,0,.373.016.55.032a4.272,4.272,0,0,1,1.993.892l-.81.94a2.738,2.738,0,0,0-1.669-.648,1.777,1.777,0,0,0-.794.162.888.888,0,0,0-.535.745c0,.486.389.745,1.377.956a10.18,10.18,0,0,1,1.718.5,2.035,2.035,0,0,1,.778.632,1.951,1.951,0,0,1,.34,1.134" transform="translate(-164.128 -69.175)" fill="#fff"/>
        <path id="Trazado_40496" data-name="Trazado 40496" d="M389.782,159.638v-3.63h-1.1v-1.329h1.1v-2.868h1.393v2.868h2.285v1.329h-2.285v3.6a1.184,1.184,0,0,0,1.1,1.167h1.247l.357,1.329h-1.637a2.452,2.452,0,0,1-2.463-2.463" transform="translate(-171.538 -66.999)" fill="#fff"/>
        <path id="Trazado_40497" data-name="Trazado 40497" d="M405.559,152.428a.916.916,0,0,1,1.831,0,.916.916,0,1,1-1.831,0m.227,2.123h1.393v7.422h-1.393Z" transform="translate(-178.987 -66.871)" fill="#fff"/>
        <path id="Trazado_40498" data-name="Trazado 40498" d="M423.873,162.814a5.725,5.725,0,0,1-.406.47,3.933,3.933,0,0,1-5.493,0,3.913,3.913,0,0,1,0-5.51,3.933,3.933,0,0,1,5.493,0,3.4,3.4,0,0,1,.389.454l-1.118.827a2.5,2.5,0,1,0-2.01,3.986,2.478,2.478,0,0,0,2.01-1.053Z" transform="translate(-183.966 -69.137)" fill="#fff"/>
        <path id="Trazado_40499" data-name="Trazado 40499" d="M442.857,156.817h1.393v7.422h-1.393v-.859a3.992,3.992,0,0,1-2.5,1.021,3.873,3.873,0,1,1,0-7.746,3.992,3.992,0,0,1,2.5,1.021Zm0,3.711a2.5,2.5,0,1,0-2.5,2.512,2.511,2.511,0,0,0,2.5-2.512" transform="translate(-192.63 -69.137)" fill="#fff"/>
      </g>
    </g>
    <rect id="Rect치ngulo_3188" data-name="Rect치ngulo 3188" width="300" height="100" transform="translate(968 593)" fill="none"/>
  </g>
</svg>
