<svg xmlns="http://www.w3.org/2000/svg" width="216.601" height="70.176" viewBox="0 0 216.601 70.176">
  <g id="Octopus_contact_center" transform="translate(-707.605 -290.635)">
    <g id="Grupo_4477" data-name="Grupo 4477" transform="translate(707.605 290.635)">
      <path id="Trazado_33962" data-name="Trazado 33962" d="M955.346,340.479a12.654,12.654,0,1,0,12.743,12.642,12.693,12.693,0,0,0-12.743-12.642m.02,20.431a7.783,7.783,0,1,1,7.461-7.784,7.628,7.628,0,0,1-7.461,7.784" transform="translate(-841.659 -319.065)" fill="#fff"/>
      <path id="Trazado_33963" data-name="Trazado 33963" d="M873.284,361.38l-3.548-3.549A7.368,7.368,0,0,1,863.729,361a7.783,7.783,0,0,1-.015-15.554,7.354,7.354,0,0,1,5.9,3l3.577-3.68a12.654,12.654,0,1,0,.234,16.649l-.137-.03" transform="translate(-789.391 -319.116)" fill="#fff"/>
      <path id="Trazado_33964" data-name="Trazado 33964" d="M921,337.939l0-4.791-6.468.006-.007-6.571-5.578.006.006,6.571-2.943,0,0,4.791,2.943,0,.013,13.928s-.031,3.491,2.674,4.72a10.744,10.744,0,0,0,9.377-.18l0-4.346a8.181,8.181,0,0,1-4.243.62c-1.78-.443-2.226-1.743-2.228-4.07l-.01-10.678Z" transform="translate(-820.772 -311.139)" fill="#fff"/>
      <path id="Trazado_33965" data-name="Trazado 33965" d="M1021.86,340.415a10.647,10.647,0,0,0-8.525,4.518l0-4.048-5.39,0,.03,31.519,5.391-.005-.011-11.183a10.648,10.648,0,0,0,8.534,4.5c6.157-.006,11.143-5.676,11.136-12.664s-5-12.649-11.16-12.643m-1.5,20.432c-3.87,0-7.01-3.476-7.014-7.771s3.13-7.779,7-7.783,7.01,3.475,7.014,7.77-3.13,7.78-7,7.784" transform="translate(-878.913 -319.029)" fill="#fff"/>
      <path id="Trazado_33966" data-name="Trazado 33966" d="M1088.445,362.269a8.8,8.8,0,0,1-7.542,4.234,8.573,8.573,0,0,1-8.581-8.565l-.016-16.068,5.371-.005.014,14.34a5.408,5.408,0,0,0,10.816-.01l-.014-14.34,5.544-.005.023,24.127-5.612.005Z" transform="translate(-915.627 -319.847)" fill="#fff"/>
      <path id="Trazado_33967" data-name="Trazado 33967" d="M1147.336,356.839c-.412-1.437-1.235-3.849-7.731-5.793a24.885,24.885,0,0,1-3.724-1.511,2.315,2.315,0,0,1-1.272-2.435c.462-1.728,2.625-1.993,2.625-1.993a12.084,12.084,0,0,1,7.526,2.315l2.127-4.006a20.554,20.554,0,0,0-9.268-2.506c-4.98,0-8.056,3.986-8,6.732s.545,6.006,6.475,7.437,7.036,3,6.165,4.717-2.591,1.62-4.131,1.621-4.21-.689-7.369-2.842l-2.383,3.647s3.674,3.718,11.579,3.479,7.8-7.425,7.383-8.862" transform="translate(-947.606 -319.311)" fill="#fff"/>
      <path id="Trazado_33968" data-name="Trazado 33968" d="M773.676,341.613a26.377,26.377,0,0,1-27.214-4.857,20.407,20.407,0,0,0,5.881-2.822,20.685,20.685,0,0,0,6.433-7.23,20.12,20.12,0,0,0,1.725-4.378,20.551,20.551,0,1,0-37.971,4.416,20.647,20.647,0,0,0,6.351,7.147,20.341,20.341,0,0,0,5.837,2.836,26.388,26.388,0,0,1-27.112,5.008l4.659-4.681a20.659,20.659,0,0,0,4.84.57,20.325,20.325,0,0,0,5.945-.886,26.424,26.424,0,1,1,35.177.009,20.561,20.561,0,0,0,10.8.212Z" transform="translate(-707.605 -290.635)" fill="#fff"/>
    </g>
    <text id="Contact_center" data-name="Contact center" transform="translate(793.389 358.811)" fill="#fff" font-size="9" font-family="Helvetica" letter-spacing="0.18em"><tspan x="0" y="0">Contact center</tspan></text>
    <path id="Trazado_33969" data-name="Trazado 33969" d="M1149.153,317.039c-6.331-1.172-11.866,1.575-16.032,5.945h1.22c5.987-4.826,14.544-5.214,19.319,1.3,3.685,5.15,4.363,12.345,2.758,19.055a30.728,30.728,0,0,1-.976,3.258c-1.768-.424-3.481-.36-4.3,1.218-1.341,2.578-3.684,7.652-4.805,10.184a5.286,5.286,0,0,0-.465,2.359c-3.324.037-6.648-.035-9.97-.169.169-.964-.048-1.989-.615-2.25a14.419,14.419,0,0,0-6.382-1.016,2.681,2.681,0,0,0-1.038.248,2.42,2.42,0,0,0-.87,2.183,2.262,2.262,0,0,0,.714,1.665,2.231,2.231,0,0,0,.939.293c2.363.366,1.282.111,3.646.477.173.027,1.962.29,2.135.259a1.651,1.651,0,0,0,1.145-.9,81.506,81.506,0,0,0,10.868,1.059,4.782,4.782,0,0,0,2.277,1.817c2.491,1.062,6.34,2.565,7.872.015a51.553,51.553,0,0,0,3.721-7.811c.942-2.29,2.084-5.029.932-6.819a34.347,34.347,0,0,0,1.733-6.068c1.89-10.664-2.307-23.733-13.823-26.3" transform="translate(-239.205 -14.906)" fill="#e64a00"/>
  </g>
</svg>
