<svg xmlns="http://www.w3.org/2000/svg" xmlns:xlink="http://www.w3.org/1999/xlink" width="300" height="100" viewBox="0 0 300 100">
  <defs>
    <clipPath id="clip-path">
      <rect id="Rect치ngulo_3183" data-name="Rect치ngulo 3183" width="281.668" height="92.022" fill="none"/>
    </clipPath>
  </defs>
  <g id="Grupo_20775" data-name="Grupo 20775" transform="translate(-347 -593)">
    <g id="Grupo_20768" data-name="Grupo 20768" transform="translate(356 597)">
      <g id="Grupo_20767" data-name="Grupo 20767" clip-path="url(#clip-path)">
        <path id="Trazado_40440" data-name="Trazado 40440" d="M251.562,49.845a16.455,16.455,0,1,0,16.571,16.439,16.505,16.505,0,0,0-16.571-16.439m.025,26.569a10.122,10.122,0,1,1,9.7-10.123,9.919,9.919,0,0,1-9.7,10.123" transform="translate(-103.724 -21.998)" fill="#fff"/>
        <path id="Trazado_40441" data-name="Trazado 40441" d="M172.376,77l-4.613-4.616A9.58,9.58,0,0,1,159.95,76.5a10.122,10.122,0,0,1-.019-20.227,9.563,9.563,0,0,1,7.668,3.9l4.651-4.785a16.455,16.455,0,1,0,.3,21.651l-.179-.04" transform="translate(-63.281 -22.037)" fill="#fff"/>
        <path id="Trazado_40442" data-name="Trazado 40442" d="M217.9,50.715l-.006-6.23-8.411.008-.008-8.545-7.254.007.008,8.545-3.827,0,.006,6.23,3.827,0,.017,18.113s-.04,4.54,3.477,6.138,8.547,1.906,12.194-.234l-.006-5.652s-3.2,1.383-5.517.806-2.9-2.267-2.9-5.293l-.013-13.885Z" transform="translate(-87.562 -15.865)" fill="#fff"/>
        <path id="Trazado_40443" data-name="Trazado 40443" d="M318.437,49.78a13.845,13.845,0,0,0-11.086,5.876l-.005-5.264-7.01.007.039,40.987,7.01-.006-.014-14.543a13.848,13.848,0,0,0,11.1,5.854c8.006-.008,14.49-7.381,14.481-16.469s-6.506-16.449-14.512-16.441m-1.955,26.57c-5.032.005-9.116-4.519-9.121-10.1s4.069-10.117,9.1-10.122,9.116,4.52,9.121,10.1-4.07,10.117-9.1,10.122" transform="translate(-132.549 -21.97)" fill="#fff"/>
        <path id="Trazado_40444" data-name="Trazado 40444" d="M385.688,77.768a11.446,11.446,0,0,1-9.808,5.506,11.148,11.148,0,0,1-11.158-11.138l-.02-20.894,6.984-.007.017,18.647a7.033,7.033,0,0,0,14.066-.013l-.017-18.647,7.21-.007.03,31.375-7.3.007Z" transform="translate(-160.955 -22.603)" fill="#fff"/>
        <path id="Trazado_40445" data-name="Trazado 40445" d="M445.427,70.989c-.536-1.869-1.607-5.005-10.054-7.534a32.344,32.344,0,0,1-4.841-1.965,3.012,3.012,0,0,1-1.655-3.167c.6-2.248,3.415-2.591,3.415-2.591a15.715,15.715,0,0,1,9.787,3.01l2.765-5.21a26.733,26.733,0,0,0-12.052-3.259c-6.475.006-10.476,5.183-10.406,8.754s.708,7.81,8.42,9.672,9.149,3.9,8.016,6.134-3.369,2.106-5.372,2.108-5.474-.9-9.583-3.7l-3.1,4.743s4.777,4.835,15.058,4.525,10.137-9.655,9.6-11.524" transform="translate(-185.699 -22.188)" fill="#fff"/>
        <path id="Trazado_40446" data-name="Trazado 40446" d="M85.919,66.292A34.3,34.3,0,0,1,50.53,59.975a26.521,26.521,0,0,0,7.648-3.67,26.9,26.9,0,0,0,8.365-9.4,26.161,26.161,0,0,0,2.244-5.693,26.717,26.717,0,1,0-52.542-6.833,26.653,26.653,0,0,0,3.164,12.575,26.851,26.851,0,0,0,8.258,9.294,26.461,26.461,0,0,0,7.59,3.688,34.247,34.247,0,0,1-22.9,8.8A34.218,34.218,0,0,1,0,66.446l6.059-6.087a26.863,26.863,0,0,0,6.294.741,26.433,26.433,0,0,0,7.73-1.152,34.361,34.361,0,1,1,45.745.012,26.737,26.737,0,0,0,14.042.276Z" transform="translate(0 0)" fill="#fff"/>
        <path id="Trazado_40447" data-name="Trazado 40447" d="M210.387,151.923l1.134.842a5.97,5.97,0,0,1-4.813,2.415,6.036,6.036,0,1,1,4.83-9.642l-1.151.843a4.529,4.529,0,0,0-3.679-1.848,4.61,4.61,0,1,0,3.679,7.389" transform="translate(-88.56 -63.158)" fill="#fff"/>
        <path id="Trazado_40448" data-name="Trazado 40448" d="M235.151,154.7a3.9,3.9,0,0,1-3.889,3.889,3.881,3.881,0,1,1,0-7.763,3.872,3.872,0,0,1,3.889,3.874m-1.393,0a2.5,2.5,0,1,0-2.5,2.5,2.483,2.483,0,0,0,2.5-2.5" transform="translate(-100.347 -66.563)" fill="#fff"/>
        <path id="Trazado_40449" data-name="Trazado 40449" d="M256.2,154.433v3.987H254.8v-3.987a2.188,2.188,0,1,0-4.375,0v3.987h-1.394V151h1.394v.712a3.7,3.7,0,0,1,2.188-.859,3.567,3.567,0,0,1,2.544,1.037,3.605,3.605,0,0,1,1.037,2.544" transform="translate(-109.908 -66.576)" fill="#fff"/>
        <path id="Trazado_40450" data-name="Trazado 40450" d="M270,153.8v-3.63h-1.1v-1.329H270v-2.869H271.4v2.869h2.285v1.329H271.4v3.6a1.184,1.184,0,0,0,1.1,1.167h1.248l.357,1.329h-1.637A2.452,2.452,0,0,1,270,153.8" transform="translate(-118.675 -64.425)" fill="#fff"/>
        <path id="Trazado_40451" data-name="Trazado 40451" d="M291.235,150.985h1.393v7.422h-1.393v-.86a3.992,3.992,0,0,1-2.5,1.021,3.873,3.873,0,1,1,0-7.746,3.99,3.99,0,0,1,2.5,1.022Zm0,3.711a2.5,2.5,0,1,0-2.5,2.512,2.51,2.51,0,0,0,2.5-2.512" transform="translate(-125.714 -66.563)" fill="#fff"/>
        <path id="Trazado_40452" data-name="Trazado 40452" d="M313.285,156.981a5.706,5.706,0,0,1-.406.47,3.933,3.933,0,0,1-5.493,0,3.913,3.913,0,0,1,0-5.51,3.932,3.932,0,0,1,5.493,0,3.359,3.359,0,0,1,.389.454l-1.118.826a2.5,2.5,0,1,0-2.009,3.987,2.48,2.48,0,0,0,2.009-1.053Z" transform="translate(-135.159 -66.563)" fill="#fff"/>
        <path id="Trazado_40453" data-name="Trazado 40453" d="M326.58,153.8v-3.63h-1.1v-1.329h1.1v-2.869h1.393v2.869h2.285v1.329h-2.285v3.6a1.184,1.184,0,0,0,1.1,1.167h1.248l.357,1.329h-1.637a2.452,2.452,0,0,1-2.463-2.464" transform="translate(-143.645 -64.425)" fill="#fff"/>
        <path id="Trazado_40454" data-name="Trazado 40454" d="M360.351,156.981a5.724,5.724,0,0,1-.406.47,3.833,3.833,0,0,1-2.739,1.118,3.872,3.872,0,0,1-2.755-1.118,3.913,3.913,0,0,1,0-5.51,3.872,3.872,0,0,1,2.755-1.118,3.834,3.834,0,0,1,2.739,1.118,3.363,3.363,0,0,1,.389.454l-1.118.826a2.5,2.5,0,1,0-2.01,3.987,2.48,2.48,0,0,0,2.01-1.053Z" transform="translate(-155.931 -66.563)" fill="#fff"/>
        <path id="Trazado_40455" data-name="Trazado 40455" d="M380.046,155.126h-5.72v.032a2.356,2.356,0,0,0,2.155,2.172,2.805,2.805,0,0,0,1.815-.778l1.166.7a4.38,4.38,0,0,1-.988.826,4.223,4.223,0,0,1-1.961.551A3.323,3.323,0,0,1,374,157.492,3.824,3.824,0,0,1,373,155.158a2.467,2.467,0,0,1-.016-.34,3.987,3.987,0,0,1,.1-.875,3.9,3.9,0,0,1,.923-1.8,3.39,3.39,0,0,1,2.512-1.118,3.426,3.426,0,0,1,2.528,1.118,3.76,3.76,0,0,1,.924,1.8,4.449,4.449,0,0,1,.08,1.183m-1.458-1.167-.016-.032a2.246,2.246,0,0,0-2.058-1.6,2.278,2.278,0,0,0-2.058,1.6l-.016.032Z" transform="translate(-164.609 -66.653)" fill="#fff"/>
        <path id="Trazado_40456" data-name="Trazado 40456" d="M400.413,154.433v3.987H399.02v-3.987a2.188,2.188,0,1,0-4.375,0v3.987h-1.393V151h1.393v.712a3.7,3.7,0,0,1,2.188-.859,3.567,3.567,0,0,1,2.544,1.037,3.605,3.605,0,0,1,1.037,2.544" transform="translate(-173.555 -66.576)" fill="#fff"/>
        <path id="Trazado_40457" data-name="Trazado 40457" d="M414.217,153.8v-3.63h-1.1v-1.329h1.1v-2.869h1.393v2.869H417.9v1.329h-2.285v3.6a1.184,1.184,0,0,0,1.1,1.167h1.247l.357,1.329H416.68a2.452,2.452,0,0,1-2.463-2.464" transform="translate(-182.322 -64.425)" fill="#fff"/>
        <path id="Trazado_40458" data-name="Trazado 40458" d="M436.13,155.126h-5.72v.032a2.356,2.356,0,0,0,2.155,2.172,2.805,2.805,0,0,0,1.815-.778l1.167.7a4.38,4.38,0,0,1-.988.826,4.222,4.222,0,0,1-1.961.551,3.323,3.323,0,0,1-2.512-1.134,3.824,3.824,0,0,1-1.005-2.334,2.389,2.389,0,0,1-.016-.34,3.986,3.986,0,0,1,.1-.875,3.9,3.9,0,0,1,.923-1.8,3.39,3.39,0,0,1,2.512-1.118,3.426,3.426,0,0,1,2.528,1.118,3.76,3.76,0,0,1,.924,1.8,4.449,4.449,0,0,1,.08,1.183m-1.458-1.167-.016-.032a2.246,2.246,0,0,0-2.058-1.6,2.278,2.278,0,0,0-2.058,1.6l-.016.032Z" transform="translate(-189.361 -66.653)" fill="#fff"/>
        <path id="Trazado_40459" data-name="Trazado 40459" d="M451.107,151.747a4.525,4.525,0,0,1,2.707-.924l-.341,1.394a2.3,2.3,0,0,0-2.366,2.236v3.954h-1.393v-7.422h1.393Z" transform="translate(-198.474 -66.563)" fill="#fff"/>
        <path id="Trazado_40460" data-name="Trazado 40460" d="M448.209,26.486c-8.232-1.523-15.431,2.049-20.848,7.731h1.586c7.785-6.276,18.913-6.78,25.123,1.685,4.792,6.7,5.673,16.054,3.587,24.78a39.913,39.913,0,0,1-1.269,4.236c-2.3-.551-4.527-.468-5.594,1.584-1.744,3.353-4.791,9.951-6.249,13.243a6.874,6.874,0,0,0-.605,3.068c-4.323.047-8.645-.045-12.965-.22.22-1.254-.062-2.586-.8-2.926a18.75,18.75,0,0,0-8.3-1.322,3.486,3.486,0,0,0-1.35.322,3.146,3.146,0,0,0-1.131,2.839,2.94,2.94,0,0,0,.929,2.165,2.9,2.9,0,0,0,1.221.381c3.073.476,1.668.144,4.741.62.225.035,2.552.377,2.776.337a2.147,2.147,0,0,0,1.489-1.173,105.993,105.993,0,0,0,14.133,1.377,6.219,6.219,0,0,0,2.961,2.363c3.239,1.38,8.245,3.336,10.236.02a67.088,67.088,0,0,0,4.838-10.157c1.225-2.978,2.71-6.539,1.211-8.867a34.1,34.1,0,0,0,1.384-4.159,34,34,0,0,0,.87-3.732c2.458-13.867-3-30.863-17.975-34.2" transform="translate(-185.083 -11.533)" fill="#e64a00"/>
      </g>
    </g>
    <rect id="Rect치ngulo_3190" data-name="Rect치ngulo 3190" width="300" height="100" transform="translate(347 593)" fill="none"/>
  </g>
</svg>
