<svg xmlns="http://www.w3.org/2000/svg" xmlns:xlink="http://www.w3.org/1999/xlink" width="300" height="100" viewBox="0 0 300 100">
  <defs>
    <clipPath id="clip-path">
      <rect id="Rect치ngulo_3184" data-name="Rect치ngulo 3184" width="281.393" height="91.793" fill="none"/>
    </clipPath>
  </defs>
  <g id="Grupo_20776" data-name="Grupo 20776" transform="translate(-655 -593)">
    <g id="Grupo_20770" data-name="Grupo 20770" transform="translate(664 597)">
      <g id="Grupo_20769" data-name="Grupo 20769" transform="translate(0)" clip-path="url(#clip-path)">
        <path id="Trazado_40461" data-name="Trazado 40461" d="M434.327,110.7a1.936,1.936,0,0,1-.413-.044,1.956,1.956,0,0,1-1.5-2.321l1.571-7.345a1.956,1.956,0,0,1,3.825.818l-1.572,7.345a1.957,1.957,0,0,1-1.908,1.547" transform="translate(-190.818 -43.887)" fill="#62a51c"/>
        <path id="Trazado_40462" data-name="Trazado 40462" d="M447.034,49.761a1.957,1.957,0,0,1-1.918-2.356l1.817-8.686a1.955,1.955,0,1,1,3.827.8l-1.817,8.686a1.956,1.956,0,0,1-1.909,1.555" transform="translate(-196.426 -16.401)" fill="#62a51c"/>
        <path id="Trazado_40463" data-name="Trazado 40463" d="M251.561,49.845a16.455,16.455,0,1,0,16.571,16.439,16.5,16.5,0,0,0-16.571-16.439m.025,26.568a10.122,10.122,0,1,1,9.7-10.122,9.919,9.919,0,0,1-9.7,10.122" transform="translate(-103.723 -21.998)" fill="#fff"/>
        <path id="Trazado_40464" data-name="Trazado 40464" d="M172.376,77l-4.613-4.616A9.58,9.58,0,0,1,159.95,76.5a10.122,10.122,0,0,1-.019-20.227,9.562,9.562,0,0,1,7.668,3.9l4.651-4.785a16.455,16.455,0,1,0,.3,21.651l-.179-.04" transform="translate(-63.281 -22.037)" fill="#fff"/>
        <path id="Trazado_40465" data-name="Trazado 40465" d="M217.9,50.715l-.006-6.23-8.411.008-.008-8.545-7.254.007.008,8.545-3.827,0,.006,6.23,3.827,0,.017,18.113s-.041,4.54,3.477,6.138,8.546,1.906,12.194-.234l-.006-5.652s-3.2,1.383-5.517.806-2.9-2.267-2.9-5.293l-.013-13.885Z" transform="translate(-87.562 -15.865)" fill="#fff"/>
        <path id="Trazado_40466" data-name="Trazado 40466" d="M318.437,49.78a13.845,13.845,0,0,0-11.086,5.876l-.005-5.264-7.01.007.039,40.987,7.01-.006-.014-14.543a13.848,13.848,0,0,0,11.1,5.854c8.006-.008,14.49-7.381,14.481-16.469s-6.506-16.449-14.512-16.441m-1.955,26.57c-5.032.005-9.116-4.519-9.121-10.1s4.069-10.117,9.1-10.122,9.116,4.52,9.121,10.1-4.07,10.117-9.1,10.122" transform="translate(-132.549 -21.97)" fill="#fff"/>
        <path id="Trazado_40467" data-name="Trazado 40467" d="M385.688,77.768a11.446,11.446,0,0,1-9.808,5.506,11.148,11.148,0,0,1-11.158-11.138l-.02-20.894,6.984-.007.017,18.647a7.033,7.033,0,0,0,14.066-.013l-.017-18.647,7.21-.007.03,31.375-7.3.007Z" transform="translate(-160.955 -22.603)" fill="#fff"/>
        <path id="Trazado_40468" data-name="Trazado 40468" d="M445.427,70.989c-.536-1.869-1.607-5.005-10.054-7.534a32.344,32.344,0,0,1-4.841-1.965,3.012,3.012,0,0,1-1.655-3.167c.6-2.248,3.415-2.591,3.415-2.591a15.715,15.715,0,0,1,9.787,3.01l2.765-5.21a26.733,26.733,0,0,0-12.052-3.259c-6.475.006-10.476,5.183-10.406,8.754s.708,7.81,8.42,9.672,9.149,3.9,8.016,6.134-3.369,2.106-5.372,2.107-5.474-.9-9.583-3.7l-3.1,4.743s4.777,4.835,15.058,4.525,10.137-9.655,9.6-11.524" transform="translate(-185.699 -22.188)" fill="#fff"/>
        <path id="Trazado_40469" data-name="Trazado 40469" d="M85.919,66.292A34.3,34.3,0,0,1,50.53,59.975a26.521,26.521,0,0,0,7.648-3.67,26.9,26.9,0,0,0,8.365-9.4,26.189,26.189,0,0,0,2.244-5.693,26.717,26.717,0,1,0-52.542-6.833,26.653,26.653,0,0,0,3.164,12.575,26.851,26.851,0,0,0,8.258,9.294,26.461,26.461,0,0,0,7.59,3.688,34.247,34.247,0,0,1-22.9,8.8A34.218,34.218,0,0,1,0,66.446l6.059-6.087a26.859,26.859,0,0,0,6.294.741,26.433,26.433,0,0,0,7.73-1.152,34.362,34.362,0,1,1,45.745.012,26.737,26.737,0,0,0,14.042.276Z" transform="translate(0 0)" fill="#fff"/>
        <path id="Trazado_40470" data-name="Trazado 40470" d="M296.2,151.509l1.135.841a5.971,5.971,0,0,1-4.811,2.419,6.036,6.036,0,1,1,4.82-9.647l-1.15.844a4.531,4.531,0,0,0-3.681-1.844,4.61,4.61,0,1,0,3.686,7.386" transform="translate(-126.431 -62.977)" fill="#fff"/>
        <path id="Trazado_40471" data-name="Trazado 40471" d="M320.965,154.261a3.9,3.9,0,0,1-3.885,3.893,3.881,3.881,0,1,1-.007-7.762,3.872,3.872,0,0,1,3.893,3.869m-1.394,0a2.5,2.5,0,1,0-2.493,2.5,2.483,2.483,0,0,0,2.493-2.5" transform="translate(-138.22 -66.373)" fill="#fff"/>
        <path id="Trazado_40472" data-name="Trazado 40472" d="M343,150.837a3.873,3.873,0,0,1-3.886,3.877,3.988,3.988,0,0,1-2.5-1.019v.859h-1.393l-.012-11.895h1.394l.005,5.331a3.987,3.987,0,0,1,2.494-1.023A3.872,3.872,0,0,1,343,150.837m-1.393,0a2.5,2.5,0,1,0-2.494,2.514,2.511,2.511,0,0,0,2.494-2.514" transform="translate(-147.941 -62.96)" fill="#fff"/>
        <path id="Trazado_40473" data-name="Trazado 40473" d="M359.032,151.275a4.529,4.529,0,0,1,2.706-.926l-.339,1.394a2.3,2.3,0,0,0-2.364,2.239l0,3.954h-1.393l-.007-7.422h1.393Z" transform="translate(-157.838 -66.354)" fill="#fff"/>
        <path id="Trazado_40474" data-name="Trazado 40474" d="M378.235,150.5h1.393l.007,7.422-1.393,0v-.859a3.992,3.992,0,0,1-2.5,1.023,3.873,3.873,0,1,1-.007-7.746,3.99,3.99,0,0,1,2.5,1.018Zm0,3.711a2.5,2.5,0,1,0-2.493,2.514,2.511,2.511,0,0,0,2.493-2.514" transform="translate(-164.111 -66.348)" fill="#fff"/>
        <path id="Trazado_40475" data-name="Trazado 40475" d="M401.458,153.921l0,3.987h-1.393l0-3.987a2.188,2.188,0,1,0-4.376,0l0,3.987H394.3l-.007-7.422,1.393,0v.713a3.7,3.7,0,0,1,2.187-.861,3.563,3.563,0,0,1,2.545,1.035,3.6,3.6,0,0,1,1.04,2.543" transform="translate(-174.015 -66.351)" fill="#fff"/>
        <path id="Trazado_40476" data-name="Trazado 40476" d="M420.615,150.581v1.361l-3.884,4.735,3.906,0V158l-5.7.006v-1.361l3.884-4.736-3.906,0v-1.328Z" transform="translate(-183.114 -66.456)" fill="#fff"/>
        <path id="Trazado_40477" data-name="Trazado 40477" d="M438.932,150.437h1.393l.007,7.422-1.393,0V157a3.992,3.992,0,0,1-2.5,1.023,3.873,3.873,0,1,1-.007-7.746,3.99,3.99,0,0,1,2.5,1.018Zm0,3.711a2.5,2.5,0,1,0-2.494,2.514,2.511,2.511,0,0,0,2.494-2.514" transform="translate(-190.899 -66.323)" fill="#fff"/>
        <path id="Trazado_40478" data-name="Trazado 40478" d="M447.5,26.259c-8.234-1.516-15.429,2.063-20.841,7.751l1.586,0c7.779-6.283,18.906-6.8,25.124,1.661,10.144,14.149,2.84,40.206-13.115,47.053-7.8,3.243-15.319-.139-19.735-6.482l-2.067,0a21.147,21.147,0,0,0,11.915,11.547c15.867,5.373,30.517-9.13,34.273-23.618,4.243-14.363-.788-34.289-17.141-37.912" transform="translate(-184.675 -11.435)" fill="#62a51c"/>
      </g>
    </g>
    <rect id="Rect치ngulo_3189" data-name="Rect치ngulo 3189" width="300" height="100" transform="translate(655 593)" fill="none"/>
  </g>
</svg>
