<svg xmlns="http://www.w3.org/2000/svg" width="241.337" height="86.171" viewBox="0 0 241.337 86.171">
  <g id="Grupo_5027" data-name="Grupo 5027" transform="translate(-1034.188 -580.117)">
    <g id="Grupo_5025" data-name="Grupo 5025" transform="translate(1034.188 580.117)">
      <path id="Trazado_36659" data-name="Trazado 36659" d="M1498.185,710.142a10.84,10.84,0,0,1-1.582.318.8.8,0,0,0-.744.781c-.011.063-.029.122-.041.185a18.628,18.628,0,0,0,3.841-1.059C1499.321,709.825,1499.122,709.877,1498.185,710.142Z" transform="translate(-1280.029 -649.259)" fill="#da0011"/>
      <g id="Grupo_5024" data-name="Grupo 5024" transform="translate(0)">
        <g id="Grupo_5023" data-name="Grupo 5023">
          <path id="Trazado_36660" data-name="Trazado 36660" d="M1275.187,628.55a13.331,13.331,0,1,0,13.411,13.33,13.371,13.371,0,0,0-13.411-13.33m0,21.523a8.2,8.2,0,1,1,7.869-8.193,8.036,8.036,0,0,1-7.869,8.193" transform="translate(-1155.39 -605.91)" fill="#fff"/>
          <path id="Trazado_36661" data-name="Trazado 36661" d="M1196.529,650.485l-3.734-3.743a7.762,7.762,0,0,1-6.333,3.331,8.2,8.2,0,0,1,0-16.386,7.748,7.748,0,0,1,6.209,3.163l3.772-3.873a13.331,13.331,0,1,0,.23,17.54l-.145-.032" transform="translate(-1108.14 -605.91)" fill="#fff"/>
          <path id="Trazado_36662" data-name="Trazado 36662" d="M1242.137,627.022v-5.048h-6.814v-6.922h-5.877v6.922h-3.1v5.048h3.1V641.7s-.036,3.677,2.812,4.975,6.923,1.551,9.879-.18v-4.579s-2.6,1.118-4.471.649-2.343-1.839-2.343-4.29V627.022Z" transform="translate(-1136.522 -598.722)" fill="#fff"/>
          <path id="Trazado_36663" data-name="Trazado 36663" d="M1339.7,628.549a11.217,11.217,0,0,0-8.985,4.751v-4.264h-5.679v33.2h5.679V650.459a11.217,11.217,0,0,0,8.985,4.751c6.486,0,11.744-5.968,11.744-13.33s-5.258-13.331-11.744-13.331m-1.6,21.524c-4.077,0-7.382-3.668-7.382-8.193s3.3-8.193,7.382-8.193,7.381,3.669,7.381,8.193-3.3,8.193-7.381,8.193" transform="translate(-1189.08 -605.91)" fill="#fff"/>
          <path id="Trazado_36664" data-name="Trazado 36664" d="M1404.339,651.52a9.272,9.272,0,0,1-7.95,4.453,9.031,9.031,0,0,1-9.031-9.031V630.015h5.657v15.107a5.7,5.7,0,0,0,11.4,0V630.015h5.841v25.417h-5.913Z" transform="translate(-1222.269 -606.69)" fill="#fff"/>
          <path id="Trazado_36665" data-name="Trazado 36665" d="M1461.579,645.92c-.433-1.515-1.3-4.056-8.139-6.111a26.245,26.245,0,0,1-3.921-1.6,2.44,2.44,0,0,1-1.338-2.567c.489-1.82,2.768-2.1,2.768-2.1a12.73,12.73,0,0,1,7.926,2.446l2.244-4.218a21.655,21.655,0,0,0-9.761-2.65c-5.246,0-8.491,4.191-8.437,7.085s.568,6.327,6.814,7.841,7.409,3.164,6.49,4.975-2.731,1.7-4.353,1.7-4.435-.73-7.761-3l-2.514,3.84s3.866,3.92,12.195,3.677,8.22-7.814,7.787-9.329" transform="translate(-1251.154 -606.218)" fill="#fff"/>
          <path id="Trazado_36666" data-name="Trazado 36666" d="M1103.793,633.854a27.785,27.785,0,0,1-28.665-5.144,21.508,21.508,0,0,0,6.2-2.967,21.789,21.789,0,0,0,6.784-7.61,21.228,21.228,0,0,0,1.822-4.611,21.649,21.649,0,1,0-40.007,4.614,21.757,21.757,0,0,0,6.683,7.536,21.432,21.432,0,0,0,6.146,2.993,27.8,27.8,0,0,1-28.567,5.248l4.913-4.926a21.784,21.784,0,0,0,5.1.605,21.416,21.416,0,0,0,6.263-.927,27.837,27.837,0,1,1,37.059.045,21.4,21.4,0,0,0,6.11.882,21.626,21.626,0,0,0,5.265-.647Z" transform="translate(-1034.188 -580.117)" fill="#fff"/>
        </g>
        <path id="Trazado_36667" data-name="Trazado 36667" d="M1524.381,653.065a3.983,3.983,0,0,0-2.557-1.411.656.656,0,0,1-.61-.632,29.956,29.956,0,0,1-1.176,8.911c-2.086,8.014-8.233,16.022-16,19.053.091.145.19.33.318.567a4.372,4.372,0,0,0,6.344,1.725,35.9,35.9,0,0,0,3.034-2.161,6.655,6.655,0,0,0,2.755-5.124,6.4,6.4,0,0,0-.79-3.511.89.89,0,0,1,.071-1.075,25.089,25.089,0,0,0,1.5-2.333.6.6,0,0,1,.749-.363,5.275,5.275,0,0,0,1.391.265c2.233-.031,3.928-1.354,4.928-3.854l1.175-4.813c-.056-.217.072-.413.1-.62A5.134,5.134,0,0,0,1524.381,653.065Z" transform="translate(-1284.405 -617.878)" fill="#da0011"/>
        <path id="Trazado_36668" data-name="Trazado 36668" d="M1500.546,597.568a17.353,17.353,0,0,1,6.1,2.64,6.533,6.533,0,0,0-.041-3.57,4.208,4.208,0,0,0-2.756-3.093l-4.039-.986c-.191.084-.348-.05-.524-.064-1.568-.258-2.853.537-3.972,1.844a6.155,6.155,0,0,0-1.407,3.053,1.727,1.727,0,0,1-.075.3A16.64,16.64,0,0,1,1500.546,597.568Z" transform="translate(-1278.97 -586.683)" fill="#da0011"/>
        <path id="Trazado_36669" data-name="Trazado 36669" d="M1534.578,626.416a6.734,6.734,0,0,0,2.026-7.559,28.525,28.525,0,0,0-1.97-3.992,4.251,4.251,0,0,0-5.557-1.841,5.719,5.719,0,0,0-1.141.662,24.7,24.7,0,0,1,5.784,13.613C1533.812,627.015,1534.06,626.82,1534.578,626.416Z" transform="translate(-1297.134 -597.428)" fill="#da0011"/>
        <path id="Trazado_36670" data-name="Trazado 36670" d="M1472.714,708.806a16.8,16.8,0,0,1-4.318-2.406,6.152,6.152,0,0,0-.14,3.3c.391,1.676,1.166,2.973,2.678,3.464.161.069.361.022.491.184l4.039.986c1.836.281,3.314-.595,4.531-2.29a6.385,6.385,0,0,0,1.059-2.513A17.235,17.235,0,0,1,1472.714,708.806Z" transform="translate(-1265.265 -647.369)" fill="#da0011"/>
        <path id="Trazado_36671" data-name="Trazado 36671" d="M1540.311,645.252a15.488,15.488,0,0,1,.145,1.827,1.505,1.505,0,0,0,.026.212,31.18,31.18,0,0,0-.223-3.274A3.049,3.049,0,0,0,1540.311,645.252Z" transform="translate(-1303.673 -614.147)" fill="#da0011"/>
        <path id="Trazado_36672" data-name="Trazado 36672" d="M1521.4,610.562a16.639,16.639,0,0,1,1.638,1.376.586.586,0,0,0,.911.009c.07-.058.142-.11.214-.164a17.811,17.811,0,0,0-3.129-2.733c-.011.04-.018.08-.029.121C1520.754,610.074,1520.772,610.091,1521.4,610.562Z" transform="translate(-1293.363 -595.525)" fill="#da0011"/>
        <path id="Trazado_36673" data-name="Trazado 36673" d="M1465.18,701.89a12.05,12.05,0,0,1-1.72-1.437.582.582,0,0,0-.793-.113,16.93,16.93,0,0,0,2.839,2.776c.005-.018.01-.036.016-.053A.882.882,0,0,0,1465.18,701.89Z" transform="translate(-1262.375 -644.084)" fill="#da0011"/>
        <path id="Trazado_36674" data-name="Trazado 36674" d="M1487.8,604.584a5.928,5.928,0,0,1,1.63-.341.814.814,0,0,0,.769-.586,17.541,17.541,0,0,0-3.183,1.042A1.371,1.371,0,0,0,1487.8,604.584Z" transform="translate(-1275.343 -592.654)" fill="#da0011"/>
        <path id="Trazado_36675" data-name="Trazado 36675" d="M1495.016,634.248a29.959,29.959,0,0,0,1.176-8.911,1.489,1.489,0,0,1-.026-.212,15.408,15.408,0,0,0-.145-1.827,3.053,3.053,0,0,1-.051-1.235,24.7,24.7,0,0,0-5.784-13.613c-.072.054-.144.106-.214.164a.586.586,0,0,1-.911-.009,16.672,16.672,0,0,0-1.638-1.376c-.629-.471-.648-.487-.4-1.391.011-.041.019-.081.03-.121a17.353,17.353,0,0,0-6.1-2.64,16.64,16.64,0,0,0-6.718.119.814.814,0,0,1-.768.586,5.919,5.919,0,0,0-1.629.341,1.371,1.371,0,0,1-.785.116,22.547,22.547,0,0,0-7.233,5.192h1.3c6.4-5.157,15.542-5.572,20.646,1.385,8.326,11.636,2.3,33.044-10.814,38.658-6.416,2.659-12.488.967-16.112-4.249l-1.8-1.093a19.662,19.662,0,0,0,2.627,4.316.582.582,0,0,1,.793.113,12.044,12.044,0,0,0,1.72,1.437.882.882,0,0,1,.342,1.172c-.006.018-.01.036-.016.053a16.8,16.8,0,0,0,4.318,2.406,17.236,17.236,0,0,0,8.34.73c.012-.062.03-.122.041-.185a.8.8,0,0,1,.744-.781,10.851,10.851,0,0,0,1.582-.318c.937-.265,1.136-.317,1.474.225C1486.783,650.27,1492.929,642.262,1495.016,634.248Z" transform="translate(-1259.382 -592.193)" fill="#da0011"/>
        <path id="Trazado_36676" data-name="Trazado 36676" d="M1489.1,638.062c3.722.962,5.819,5.294,4.7,9.715a8.324,8.324,0,0,1-6.256,6.412" transform="translate(-1275.626 -610.976)" fill="none" stroke="#da0011" stroke-miterlimit="10" stroke-width="6"/>
      </g>
    </g>
    <g id="Grupo_5026" data-name="Grupo 5026" transform="translate(1063.34 650.832)">
      <path id="Trazado_36677" data-name="Trazado 36677" d="M1099.891,742.709a7.428,7.428,0,0,1-3.339-1.7l.929-1.055a6.014,6.014,0,0,0,2.693,1.4,3.458,3.458,0,0,0,2.173-.174,1.781,1.781,0,0,0,1.119-1.622c0-1.181-1.26-1.606-2.489-1.843a11.58,11.58,0,0,1-2.583-.788,2.77,2.77,0,0,1-1.449-2.457,2.874,2.874,0,0,1,.52-1.622,3.513,3.513,0,0,1,1.323-1.055,4.448,4.448,0,0,1,2.662-.331,6.414,6.414,0,0,1,2.976,1.417l-.9,1.087a3.967,3.967,0,0,0-4.142-.929,1.618,1.618,0,0,0-1.024,1.417c0,1.071.913,1.481,2.362,1.8a10.47,10.47,0,0,1,2.583.771,2.8,2.8,0,0,1,1.559,2.536,3.03,3.03,0,0,1-.535,1.764,3.682,3.682,0,0,1-1.4,1.118,4.1,4.1,0,0,1-1.906.394A5.535,5.535,0,0,1,1099.891,742.709Z" transform="translate(-1096.552 -731.395)" fill="#fff"/>
      <path id="Trazado_36678" data-name="Trazado 36678" d="M1129.767,744.086h-5.559v.032a2.29,2.29,0,0,0,2.095,2.11,2.728,2.728,0,0,0,1.764-.756l1.134.677a4.26,4.26,0,0,1-.961.8,4.113,4.113,0,0,1-1.905.536,3.23,3.23,0,0,1-2.441-1.1,3.716,3.716,0,0,1-.976-2.268,2.28,2.28,0,0,1-.016-.331,3.958,3.958,0,0,1,.094-.851,3.8,3.8,0,0,1,.9-1.748,3.294,3.294,0,0,1,2.441-1.087,3.328,3.328,0,0,1,2.457,1.087,3.649,3.649,0,0,1,.9,1.748A4.357,4.357,0,0,1,1129.767,744.086Zm-1.417-1.134-.016-.032a2.183,2.183,0,0,0-2-1.559,2.215,2.215,0,0,0-2,1.559l-.015.032Z" transform="translate(-1110.584 -736.031)" fill="#fff"/>
      <path id="Trazado_36679" data-name="Trazado 36679" d="M1148.245,740.763a4.4,4.4,0,0,1,2.631-.9l-.331,1.355a2.238,2.238,0,0,0-2.3,2.173v3.843h-1.354v-7.213h1.354Z" transform="translate(-1123.36 -735.906)" fill="#fff"/>
      <path id="Trazado_36680" data-name="Trazado 36680" d="M1169.814,740.2l-2.929,7.213h-1.465l-2.929-7.213h1.465l2.2,5.417,2.19-5.417Z" transform="translate(-1131.668 -736.085)" fill="#fff"/>
      <path id="Trazado_36681" data-name="Trazado 36681" d="M1187.121,734.784a.89.89,0,0,1,1.779,0,.89.89,0,1,1-1.779,0Zm.22,2.063h1.355v7.213h-1.355Z" transform="translate(-1144.785 -732.73)" fill="#fff"/>
      <path id="Trazado_36682" data-name="Trazado 36682" d="M1207.1,745.85a5.508,5.508,0,0,1-.394.457,3.822,3.822,0,0,1-5.339,0,3.8,3.8,0,0,1,0-5.355,3.821,3.821,0,0,1,5.339,0,3.33,3.33,0,0,1,.378.441l-1.087.8a2.428,2.428,0,1,0-1.953,3.874,2.409,2.409,0,0,0,1.953-1.023Z" transform="translate(-1151.783 -735.906)" fill="#fff"/>
      <path id="Trazado_36683" data-name="Trazado 36683" d="M1224.218,734.784a.89.89,0,0,1,1.78,0,.89.89,0,1,1-1.78,0Zm.22,2.063h1.355v7.213h-1.355Z" transform="translate(-1164.541 -732.73)" fill="#fff"/>
      <path id="Trazado_36684" data-name="Trazado 36684" d="M1244.952,743.629a3.791,3.791,0,0,1-3.78,3.78,3.772,3.772,0,1,1,0-7.544,3.764,3.764,0,0,1,3.78,3.764Zm-1.355,0a2.425,2.425,0,1,0-2.425,2.426A2.413,2.413,0,0,0,1243.6,743.629Z" transform="translate(-1171.557 -735.906)" fill="#fff"/>
      <path id="Trazado_36685" data-name="Trazado 36685" d="M1267.316,745.164a1.932,1.932,0,0,1-.346,1.134,2.315,2.315,0,0,1-.961.787,3.154,3.154,0,0,1-1.292.268,3.907,3.907,0,0,1-.74-.079,4.757,4.757,0,0,1-2.158-1.039l.851-.929a3.079,3.079,0,0,0,1.984.85,2.086,2.086,0,0,0,.834-.173.9.9,0,0,0,.567-.819c0-.488-.425-.788-1.4-.961a8.455,8.455,0,0,1-1.686-.488,1.864,1.864,0,0,1-1.008-1.685,1.986,1.986,0,0,1,.347-1.1,2.176,2.176,0,0,1,.9-.693,2.944,2.944,0,0,1,1.245-.268c.173,0,.362.016.535.032a4.146,4.146,0,0,1,1.938.866l-.788.913a2.662,2.662,0,0,0-1.622-.63,1.733,1.733,0,0,0-.772.157.863.863,0,0,0-.52.725c0,.473.378.725,1.339.929a9.878,9.878,0,0,1,1.669.488,1.973,1.973,0,0,1,.756.614A1.892,1.892,0,0,1,1267.316,745.164Z" transform="translate(-1184.565 -735.96)" fill="#fff"/>
      <path id="Trazado_36686" data-name="Trazado 36686" d="M1302.547,744.086h-5.559v.032a2.291,2.291,0,0,0,2.095,2.11,2.729,2.729,0,0,0,1.764-.756l1.134.677a4.248,4.248,0,0,1-.961.8,4.114,4.114,0,0,1-1.906.536,3.23,3.23,0,0,1-2.441-1.1,3.716,3.716,0,0,1-.976-2.268,2.3,2.3,0,0,1-.016-.331,3.869,3.869,0,0,1,.095-.851,3.787,3.787,0,0,1,.9-1.748,3.294,3.294,0,0,1,2.441-1.087,3.329,3.329,0,0,1,2.458,1.087,3.657,3.657,0,0,1,.9,1.748A4.332,4.332,0,0,1,1302.547,744.086Zm-1.417-1.134-.015-.032a2.184,2.184,0,0,0-2-1.559,2.214,2.214,0,0,0-2,1.559l-.016.032Z" transform="translate(-1202.598 -736.031)" fill="#fff"/>
      <path id="Trazado_36687" data-name="Trazado 36687" d="M1326.194,743.38v3.874h-1.354V743.38a2.126,2.126,0,1,0-4.252,0v3.874h-1.355v-7.213h1.355v.693a3.588,3.588,0,0,1,2.126-.835,3.463,3.463,0,0,1,2.472,1.008A3.5,3.5,0,0,1,1326.194,743.38Z" transform="translate(-1215.141 -735.924)" fill="#fff"/>
      <path id="Trazado_36688" data-name="Trazado 36688" d="M1363.469,745.85a5.4,5.4,0,0,1-.394.457,3.725,3.725,0,0,1-2.662,1.087,3.763,3.763,0,0,1-2.678-1.087,3.8,3.8,0,0,1,0-5.355,3.765,3.765,0,0,1,2.678-1.087,3.727,3.727,0,0,1,2.662,1.087,3.256,3.256,0,0,1,.378.441l-1.087.8a2.428,2.428,0,1,0-1.953,3.874,2.408,2.408,0,0,0,1.953-1.023Z" transform="translate(-1235.059 -735.906)" fill="#fff"/>
      <path id="Trazado_36689" data-name="Trazado 36689" d="M1385.682,740.023h1.355v7.213h-1.355V746.4a3.876,3.876,0,0,1-2.425.992,3.764,3.764,0,1,1,0-7.528,3.878,3.878,0,0,1,2.425.992Zm0,3.606a2.425,2.425,0,1,0-2.425,2.441A2.439,2.439,0,0,0,1385.682,743.629Z" transform="translate(-1247.224 -735.906)" fill="#fff"/>
      <path id="Trazado_36690" data-name="Trazado 36690" d="M1417.4,743.38v3.874h-1.355V743.38a2.134,2.134,0,1,0-4.268,0v3.874h-1.354V743.38a2.126,2.126,0,1,0-4.252,0v3.874h-1.355v-7.213h1.355v.693a3.589,3.589,0,0,1,2.126-.835,3.528,3.528,0,0,1,2.473,1.071,2.6,2.6,0,0,1,.331.394,4.042,4.042,0,0,1,.346-.394,3.527,3.527,0,0,1,2.472-1.071,3.468,3.468,0,0,1,3.481,3.481Z" transform="translate(-1260.717 -735.924)" fill="#fff"/>
      <path id="Trazado_36691" data-name="Trazado 36691" d="M1448.461,743.629a3.764,3.764,0,0,1-3.78,3.764,3.877,3.877,0,0,1-2.425-.992v4.961H1440.9V740.023h1.354v.834a3.878,3.878,0,0,1,2.425-.992,3.764,3.764,0,0,1,3.78,3.764Zm-1.354,0a2.426,2.426,0,1,0-2.426,2.441A2.44,2.44,0,0,0,1447.107,743.629Z" transform="translate(-1279.935 -735.906)" fill="#fff"/>
      <path id="Trazado_36692" data-name="Trazado 36692" d="M1472.89,743.629a3.791,3.791,0,0,1-3.78,3.78,3.772,3.772,0,1,1,0-7.544,3.765,3.765,0,0,1,3.78,3.764Zm-1.355,0a2.425,2.425,0,1,0-2.425,2.426A2.412,2.412,0,0,0,1471.535,743.629Z" transform="translate(-1292.945 -735.906)" fill="#fff"/>
    </g>
  </g>
</svg>
