<svg xmlns="http://www.w3.org/2000/svg" xmlns:xlink="http://www.w3.org/1999/xlink" width="183" height="61" viewBox="0 0 183 61">
  <defs>
    <clipPath id="clip-path">
      <rect id="Rect치ngulo_3184" data-name="Rect치ngulo 3184" width="171.18" height="55.84" fill="none"/>
    </clipPath>
  </defs>
  <g id="Grupo_20781" data-name="Grupo 20781" transform="translate(0.16 0.257)">
    <g id="Grupo_20770" data-name="Grupo 20770" transform="translate(5.861 2.479)">
      <g id="Grupo_20769" data-name="Grupo 20769" transform="translate(0)" clip-path="url(#clip-path)">
        <path id="Trazado_40461" data-name="Trazado 40461" d="M433.559,106.29a1.177,1.177,0,0,1-.251-.027,1.19,1.19,0,0,1-.915-1.412l.956-4.468a1.19,1.19,0,0,1,2.327.5l-.956,4.468a1.19,1.19,0,0,1-1.161.941" transform="translate(-285.425 -65.646)" fill="#62a51c"/>
        <path id="Trazado_40462" data-name="Trazado 40462" d="M446.266,44.827a1.191,1.191,0,0,1-1.167-1.433l1.106-5.284a1.189,1.189,0,1,1,2.328.487l-1.106,5.284a1.19,1.19,0,0,1-1.162.946" transform="translate(-293.814 -24.533)" fill="#62a51c"/>
        <path id="Trazado_40463" data-name="Trazado 40463" d="M245.083,49.845a10.01,10.01,0,1,0,10.08,10,10.04,10.04,0,0,0-10.08-10m.015,16.162a6.157,6.157,0,1,1,5.9-6.158,6.034,6.034,0,0,1-5.9,6.158" transform="translate(-155.149 -32.905)" fill="#fff"/>
        <path id="Trazado_40464" data-name="Trazado 40464" d="M161.022,66.4l-2.807-2.808a5.828,5.828,0,0,1-4.753,2.505,6.157,6.157,0,0,1-.012-12.3,5.817,5.817,0,0,1,4.664,2.371l2.83-2.911a10.01,10.01,0,1,0,.185,13.171l-.109-.024" transform="translate(-94.656 -32.963)" fill="#fff"/>
        <path id="Trazado_40465" data-name="Trazado 40465" d="M210.265,44.931l0-3.79-5.117,0,0-5.2-4.413,0,0,5.2-2.328,0,0,3.79,2.328,0,.011,11.018s-.025,2.762,2.115,3.734a8.5,8.5,0,0,0,7.418-.142l0-3.438a6.474,6.474,0,0,1-3.356.49c-1.408-.35-1.761-1.379-1.763-3.22l-.008-8.447Z" transform="translate(-130.975 -23.731)" fill="#fff"/>
        <path id="Trazado_40466" data-name="Trazado 40466" d="M311.347,49.78a8.423,8.423,0,0,0-6.744,3.574l0-3.2-4.264,0,.024,24.933,4.264,0-.008-8.847a8.424,8.424,0,0,0,6.751,3.561c4.87,0,8.814-4.49,8.809-10.018s-3.958-10.006-8.828-10m-1.189,16.163c-3.061,0-5.546-2.749-5.549-6.147s2.475-6.154,5.537-6.157,5.545,2.749,5.549,6.147-2.476,6.154-5.537,6.157" transform="translate(-198.266 -32.862)" fill="#fff"/>
        <path id="Trazado_40467" data-name="Trazado 40467" d="M377.468,67.368a6.963,6.963,0,0,1-5.966,3.349,6.782,6.782,0,0,1-6.788-6.775l-.012-12.71,4.249,0,.011,11.343a4.278,4.278,0,0,0,8.557-.008l-.011-11.343,4.386,0,.018,19.086-4.44,0Z" transform="translate(-240.757 -33.81)" fill="#fff"/>
        <path id="Trazado_40468" data-name="Trazado 40468" d="M435.769,62.875c-.326-1.137-.978-3.045-6.116-4.583a19.677,19.677,0,0,1-2.945-1.2,1.832,1.832,0,0,1-1.007-1.926c.366-1.367,2.077-1.576,2.077-1.576a9.56,9.56,0,0,1,5.954,1.831l1.682-3.169a16.262,16.262,0,0,0-7.331-1.983c-3.939,0-6.373,3.153-6.33,5.325s.431,4.751,5.122,5.883,5.566,2.37,4.877,3.731-2.05,1.281-3.268,1.282a11.211,11.211,0,0,1-5.83-2.248l-1.885,2.885s2.906,2.941,9.16,2.752a5.713,5.713,0,0,0,5.841-7.01" transform="translate(-277.768 -33.188)" fill="#fff"/>
        <path id="Trazado_40469" data-name="Trazado 40469" d="M52.267,40.326a20.864,20.864,0,0,1-21.528-3.842,16.133,16.133,0,0,0,4.652-2.232,16.362,16.362,0,0,0,5.089-5.719,15.931,15.931,0,0,0,1.365-3.463A16.253,16.253,0,1,0,9.882,20.912a16.213,16.213,0,0,0,1.925,7.65,16.334,16.334,0,0,0,5.024,5.654,16.1,16.1,0,0,0,4.617,2.243A20.834,20.834,0,0,1,7.519,41.811,20.816,20.816,0,0,1,0,40.42l3.686-3.7a16.339,16.339,0,0,0,3.829.451,16.08,16.08,0,0,0,4.7-.7,20.9,20.9,0,1,1,27.828.007,16.265,16.265,0,0,0,8.542.168Z" transform="translate(0 0)" fill="#fff"/>
        <path id="Trazado_40470" data-name="Trazado 40470" d="M292.392,148.058l.691.512a3.633,3.633,0,0,1-2.926,1.472,3.672,3.672,0,1,1,2.932-5.868l-.7.514a2.756,2.756,0,0,0-2.239-1.122,2.8,2.8,0,1,0,2.242,4.493" transform="translate(-189.115 -94.202)" fill="#fff"/>
        <path id="Trazado_40471" data-name="Trazado 40471" d="M317.918,152.746a2.373,2.373,0,0,1-2.364,2.368,2.361,2.361,0,1,1,0-4.722,2.355,2.355,0,0,1,2.368,2.354m-.848,0a1.518,1.518,0,1,0-1.517,1.52,1.51,1.51,0,0,0,1.517-1.52" transform="translate(-206.748 -99.281)" fill="#fff"/>
        <path id="Trazado_40472" data-name="Trazado 40472" d="M339.95,147.634a2.356,2.356,0,0,1-2.364,2.358,2.426,2.426,0,0,1-1.519-.62v.523h-.848l-.007-7.236h.848l0,3.243a2.425,2.425,0,0,1,1.517-.622,2.355,2.355,0,0,1,2.368,2.354m-.848,0a1.518,1.518,0,1,0-1.517,1.529,1.527,1.527,0,0,0,1.517-1.529" transform="translate(-221.289 -94.176)" fill="#fff"/>
        <path id="Trazado_40473" data-name="Trazado 40473" d="M358.486,150.912a2.755,2.755,0,0,1,1.646-.563l-.206.848a1.4,1.4,0,0,0-1.438,1.362l0,2.405h-.848l0-4.515h.848Z" transform="translate(-236.093 -99.253)" fill="#fff"/>
        <path id="Trazado_40474" data-name="Trazado 40474" d="M375.735,150.433h.848l0,4.515h-.848v-.523a2.428,2.428,0,0,1-1.518.623,2.356,2.356,0,1,1,0-4.712,2.427,2.427,0,0,1,1.519.62Zm0,2.258a1.518,1.518,0,1,0-1.517,1.529,1.527,1.527,0,0,0,1.517-1.529" transform="translate(-245.477 -99.244)" fill="#fff"/>
        <path id="Trazado_40475" data-name="Trazado 40475" d="M398.652,152.52l0,2.425h-.848l0-2.425a1.331,1.331,0,1,0-2.662,0l0,2.425H394.3l0-4.515h.848v.434a2.25,2.25,0,0,1,1.331-.524,2.168,2.168,0,0,1,1.548.63,2.193,2.193,0,0,1,.632,1.547" transform="translate(-260.291 -99.249)" fill="#fff"/>
        <path id="Trazado_40476" data-name="Trazado 40476" d="M418.381,150.581v.828l-2.363,2.881,2.376,0v.808l-3.47,0v-.828l2.363-2.881-2.376,0v-.808Z" transform="translate(-273.902 -99.406)" fill="#fff"/>
        <path id="Trazado_40477" data-name="Trazado 40477" d="M436.432,150.375h.848l0,4.515h-.848v-.523a2.429,2.429,0,0,1-1.518.623,2.356,2.356,0,1,1,0-4.712,2.427,2.427,0,0,1,1.519.62Zm0,2.258a1.518,1.518,0,1,0-1.517,1.529,1.527,1.527,0,0,0,1.517-1.529" transform="translate(-285.546 -99.206)" fill="#fff"/>
        <path id="Trazado_40478" data-name="Trazado 40478" d="M436.118,26.122c-5.009-.922-9.386,1.255-12.678,4.715h.965c4.732-3.822,11.5-4.135,15.284,1.01,6.171,8.607,1.727,24.458-7.978,28.623-4.747,1.973-9.319-.085-12.005-3.943h-1.257a12.864,12.864,0,0,0,7.248,7.024c9.652,3.269,18.564-5.554,20.849-14.367,2.581-8.737-.479-20.859-10.427-23.062" transform="translate(-276.237 -17.104)" fill="#62a51c"/>
      </g>
    </g>
    <rect id="Rect치ngulo_3189" data-name="Rect치ngulo 3189" width="183" height="61" transform="translate(-0.16 -0.257)" fill="none"/>
  </g>
</svg>
