<svg xmlns="http://www.w3.org/2000/svg" width="131.304" height="46.883" viewBox="0 0 131.304 46.883">
  <g id="Grupo_5027" data-name="Grupo 5027" transform="translate(0 0)">
    <g id="Grupo_5025" data-name="Grupo 5025" transform="translate(0 0)">
      <path id="Trazado_36659" data-name="Trazado 36659" d="M1497.106,710.054a5.891,5.891,0,0,1-.861.173.436.436,0,0,0-.4.425c-.006.034-.016.067-.022.1a10.135,10.135,0,0,0,2.09-.576C1497.724,709.882,1497.616,709.91,1497.106,710.054Z" transform="translate(-1378.414 -676.929)" fill="#da0011"/>
      <g id="Grupo_5024" data-name="Grupo 5024" transform="translate(0)">
        <g id="Grupo_5023" data-name="Grupo 5023">
          <path id="Trazado_36660" data-name="Trazado 36660" d="M1269.072,628.55a7.253,7.253,0,1,0,7.3,7.253,7.275,7.275,0,0,0-7.3-7.253m0,11.71a4.461,4.461,0,1,1,4.281-4.458,4.372,4.372,0,0,1-4.281,4.458" transform="translate(-1203.894 -616.232)" fill="#fff"/>
          <path id="Trazado_36661" data-name="Trazado 36661" d="M1185.824,640.484l-2.031-2.036a4.223,4.223,0,0,1-3.445,1.812,4.461,4.461,0,0,1,0-8.915,4.215,4.215,0,0,1,3.378,1.721l2.052-2.107a7.253,7.253,0,1,0,.125,9.543l-.079-.018" transform="translate(-1137.735 -616.232)" fill="#fff"/>
          <path id="Trazado_36662" data-name="Trazado 36662" d="M1234.938,621.565v-2.746h-3.707v-3.766h-3.2v3.766h-1.687v2.746h1.687v7.983a3.093,3.093,0,0,0,1.53,2.707,6.159,6.159,0,0,0,5.375-.1v-2.491a4.691,4.691,0,0,1-2.432.353c-1.02-.255-1.275-1-1.275-2.334v-6.12Z" transform="translate(-1177.475 -606.167)" fill="#fff"/>
          <path id="Trazado_36663" data-name="Trazado 36663" d="M1333.016,628.549a6.1,6.1,0,0,0-4.889,2.585v-2.32h-3.09V646.88h3.09v-6.41a6.1,6.1,0,0,0,4.889,2.585c3.529,0,6.39-3.247,6.39-7.253s-2.861-7.253-6.39-7.253m-.873,11.71a4.482,4.482,0,1,1,4.016-4.458,4.254,4.254,0,0,1-4.016,4.458" transform="translate(-1251.068 -616.232)" fill="#fff"/>
          <path id="Trazado_36664" data-name="Trazado 36664" d="M1396.6,641.716a5.045,5.045,0,0,1-4.325,2.422,4.914,4.914,0,0,1-4.913-4.914v-9.209h3.078v8.219a3.1,3.1,0,0,0,6.2,0v-8.219h3.178v13.829H1396.6Z" transform="translate(-1297.538 -617.325)" fill="#fff"/>
          <path id="Trazado_36665" data-name="Trazado 36665" d="M1452.469,638.264c-.235-.824-.706-2.207-4.428-3.325a14.279,14.279,0,0,1-2.133-.868,1.327,1.327,0,0,1-.728-1.4c.266-.99,1.506-1.14,1.506-1.14a6.927,6.927,0,0,1,4.313,1.331l1.221-2.3a11.782,11.782,0,0,0-5.311-1.442c-2.854,0-4.62,2.28-4.59,3.854s.309,3.442,3.707,4.266,4.031,1.721,3.531,2.707-1.486.927-2.369.927a8.125,8.125,0,0,1-4.222-1.633l-1.368,2.089s2.1,2.133,6.635,2a4.139,4.139,0,0,0,4.237-5.076" transform="translate(-1337.983 -616.663)" fill="#fff"/>
          <path id="Trazado_36666" data-name="Trazado 36666" d="M1072.058,609.354a15.117,15.117,0,0,1-15.6-2.8,11.7,11.7,0,0,0,3.372-1.614,11.855,11.855,0,0,0,3.691-4.141,11.549,11.549,0,0,0,.991-2.508,11.779,11.779,0,1,0-21.766,2.51,11.836,11.836,0,0,0,3.636,4.1,11.659,11.659,0,0,0,3.344,1.628,15.124,15.124,0,0,1-15.542,2.856l2.673-2.68a11.848,11.848,0,0,0,2.774.329,11.651,11.651,0,0,0,3.408-.5,15.145,15.145,0,1,1,20.162.025,11.787,11.787,0,0,0,6.189.128Z" transform="translate(-1034.188 -580.117)" fill="#fff"/>
        </g>
        <path id="Trazado_36667" data-name="Trazado 36667" d="M1515.1,652.134a2.166,2.166,0,0,0-1.391-.768.357.357,0,0,1-.332-.344,16.294,16.294,0,0,1-.64,4.848c-1.135,4.36-4.479,8.717-8.707,10.366.049.079.1.179.173.308a2.379,2.379,0,0,0,3.451.939,19.515,19.515,0,0,0,1.651-1.175,3.621,3.621,0,0,0,1.5-2.788,3.485,3.485,0,0,0-.43-1.91.484.484,0,0,1,.038-.585,13.66,13.66,0,0,0,.818-1.269.328.328,0,0,1,.408-.2,2.627,2.627,0,0,0,3.438-1.953l.639-2.619c-.031-.118.039-.225.053-.337A2.793,2.793,0,0,0,1515.1,652.134Z" transform="translate(-1384.541 -632.989)" fill="#da0011"/>
        <path id="Trazado_36668" data-name="Trazado 36668" d="M1497.483,595.233a9.44,9.44,0,0,1,3.317,1.436,3.553,3.553,0,0,0-.022-1.942,2.29,2.29,0,0,0-1.5-1.683l-2.2-.537c-.1.046-.189-.027-.285-.035a2.322,2.322,0,0,0-2.161,1,3.349,3.349,0,0,0-.766,1.661.936.936,0,0,1-.041.161A9.053,9.053,0,0,1,1497.483,595.233Z" transform="translate(-1376.93 -589.311)" fill="#da0011"/>
        <path id="Trazado_36669" data-name="Trazado 36669" d="M1531.55,620.127a3.664,3.664,0,0,0,1.1-4.113,15.534,15.534,0,0,0-1.072-2.172,2.313,2.313,0,0,0-3.024-1,3.113,3.113,0,0,0-.621.36,13.435,13.435,0,0,1,3.147,7.406C1531.133,620.453,1531.268,620.348,1531.55,620.127Z" transform="translate(-1402.364 -604.356)" fill="#da0011"/>
        <path id="Trazado_36670" data-name="Trazado 36670" d="M1470.607,707.709a9.144,9.144,0,0,1-2.349-1.309,3.347,3.347,0,0,0-.076,1.8,2.32,2.32,0,0,0,1.457,1.885c.088.038.2.012.267.1l2.2.537a2.49,2.49,0,0,0,2.465-1.246,3.474,3.474,0,0,0,.576-1.367A9.377,9.377,0,0,1,1470.607,707.709Z" transform="translate(-1357.741 -674.283)" fill="#da0011"/>
        <path id="Trazado_36671" data-name="Trazado 36671" d="M1540.267,644.689a8.41,8.41,0,0,1,.079.994.814.814,0,0,0,.014.115,17,17,0,0,0-.121-1.782A1.657,1.657,0,0,0,1540.267,644.689Z" transform="translate(-1411.519 -627.766)" fill="#da0011"/>
        <path id="Trazado_36672" data-name="Trazado 36672" d="M1521.152,609.872a9.054,9.054,0,0,1,.891.748.319.319,0,0,0,.5.005c.038-.032.077-.06.116-.089a9.687,9.687,0,0,0-1.7-1.487c-.006.022-.01.044-.016.066C1520.8,609.607,1520.81,609.616,1521.152,609.872Z" transform="translate(-1397.083 -601.692)" fill="#da0011"/>
        <path id="Trazado_36673" data-name="Trazado 36673" d="M1464.035,701.133a6.551,6.551,0,0,1-.936-.782.317.317,0,0,0-.431-.062,9.209,9.209,0,0,0,1.544,1.51c0-.01.005-.019.009-.029A.48.48,0,0,0,1464.035,701.133Z" transform="translate(-1353.695 -669.683)" fill="#da0011"/>
        <path id="Trazado_36674" data-name="Trazado 36674" d="M1487.445,604.162a3.224,3.224,0,0,1,.887-.185.443.443,0,0,0,.418-.319,9.545,9.545,0,0,0-1.732.567A.746.746,0,0,0,1487.445,604.162Z" transform="translate(-1371.852 -597.671)" fill="#da0011"/>
        <path id="Trazado_36675" data-name="Trazado 36675" d="M1477.7,619.906a16.3,16.3,0,0,0,.64-4.848.812.812,0,0,1-.014-.115,8.359,8.359,0,0,0-.079-.994,1.663,1.663,0,0,1-.028-.672,13.437,13.437,0,0,0-3.147-7.406c-.039.029-.078.058-.116.089a.319.319,0,0,1-.5-.005,9.073,9.073,0,0,0-.891-.749c-.342-.256-.353-.265-.215-.757.006-.022.01-.044.016-.066a9.441,9.441,0,0,0-3.317-1.436,9.054,9.054,0,0,0-3.655.065.443.443,0,0,1-.418.319,3.221,3.221,0,0,0-.886.185.746.746,0,0,1-.427.063,12.266,12.266,0,0,0-3.935,2.825h.709c3.481-2.806,8.456-3.031,11.233.753,4.53,6.331,1.253,17.978-5.884,21.033-3.491,1.447-6.795.526-8.766-2.312l-.979-.595a10.692,10.692,0,0,0,1.429,2.348.316.316,0,0,1,.431.062,6.551,6.551,0,0,0,.936.782.48.48,0,0,1,.186.638c0,.01-.006.019-.009.029a9.144,9.144,0,0,0,2.349,1.309,9.377,9.377,0,0,0,4.537.4c.007-.034.016-.066.022-.1a.436.436,0,0,1,.4-.425,5.906,5.906,0,0,0,.861-.173c.51-.144.618-.172.8.122C1473.226,628.624,1476.57,624.266,1477.7,619.906Z" transform="translate(-1349.504 -597.025)" fill="#da0011"/>
        <path id="Trazado_36676" data-name="Trazado 36676" d="M1488.394,638.062c2.025.523,3.166,2.88,2.56,5.286a4.529,4.529,0,0,1-3.4,3.489" transform="translate(-1372.249 -623.325)" fill="none" stroke="#da0011" stroke-miterlimit="10" stroke-width="6"/>
      </g>
    </g>
    <g id="Grupo_5026" data-name="Grupo 5026" transform="translate(15.861 38.474)">
      <path id="Trazado_36677" data-name="Trazado 36677" d="M1098.369,737.551a4.042,4.042,0,0,1-1.817-.925l.506-.574a3.272,3.272,0,0,0,1.465.763,1.881,1.881,0,0,0,1.182-.095.968.968,0,0,0,.609-.882c0-.643-.685-.874-1.354-1a6.3,6.3,0,0,1-1.405-.429,1.507,1.507,0,0,1-.788-1.337,1.563,1.563,0,0,1,.283-.882,1.91,1.91,0,0,1,.72-.574,2.42,2.42,0,0,1,1.448-.18,3.49,3.49,0,0,1,1.619.771l-.489.591a2.158,2.158,0,0,0-2.253-.505.88.88,0,0,0-.557.771c0,.583.5.806,1.285.977a5.7,5.7,0,0,1,1.405.42,1.521,1.521,0,0,1,.848,1.38,1.648,1.648,0,0,1-.291.96,2,2,0,0,1-.763.608,2.229,2.229,0,0,1-1.037.214A3.017,3.017,0,0,1,1098.369,737.551Z" transform="translate(-1096.552 -731.395)" fill="#fff"/>
      <path id="Trazado_36678" data-name="Trazado 36678" d="M1126.637,742.269h-3.025v.017a1.246,1.246,0,0,0,1.14,1.148,1.484,1.484,0,0,0,.96-.411l.617.368a2.315,2.315,0,0,1-.523.437,2.238,2.238,0,0,1-1.037.292,1.758,1.758,0,0,1-1.328-.6,2.021,2.021,0,0,1-.531-1.234,1.237,1.237,0,0,1-.009-.18,2.157,2.157,0,0,1,.051-.463,2.066,2.066,0,0,1,.489-.951,1.792,1.792,0,0,1,1.328-.591,1.811,1.811,0,0,1,1.337.591,1.986,1.986,0,0,1,.489.951A2.372,2.372,0,0,1,1126.637,742.269Zm-.771-.617-.009-.017a1.188,1.188,0,0,0-1.088-.848,1.206,1.206,0,0,0-1.089.848l-.008.017Z" transform="translate(-1116.2 -737.887)" fill="#fff"/>
      <path id="Trazado_36679" data-name="Trazado 36679" d="M1147.628,740.354a2.394,2.394,0,0,1,1.431-.489l-.18.737a1.217,1.217,0,0,0-1.251,1.182v2.091h-.737v-3.924h.737Z" transform="translate(-1134.089 -737.711)" fill="#fff"/>
      <path id="Trazado_36680" data-name="Trazado 36680" d="M1166.475,740.2l-1.594,3.924h-.8l-1.594-3.924h.8l1.2,2.947,1.191-2.947Z" transform="translate(-1145.721 -737.962)" fill="#fff"/>
      <path id="Trazado_36681" data-name="Trazado 36681" d="M1187.121,734.382a.484.484,0,0,1,.968,0,.484.484,0,1,1-.968,0Zm.12,1.123h.737v3.924h-.737Z" transform="translate(-1164.087 -733.264)" fill="#fff"/>
      <path id="Trazado_36682" data-name="Trazado 36682" d="M1203.981,743.121a2.991,2.991,0,0,1-.214.248,2.079,2.079,0,0,1-2.9,0,2.068,2.068,0,0,1,0-2.913,2.079,2.079,0,0,1,2.9,0,1.811,1.811,0,0,1,.206.24l-.591.437a1.321,1.321,0,1,0-1.062,2.108,1.311,1.311,0,0,0,1.062-.557Z" transform="translate(-1173.886 -737.711)" fill="#fff"/>
      <path id="Trazado_36683" data-name="Trazado 36683" d="M1224.218,734.382a.484.484,0,0,1,.968,0,.484.484,0,1,1-.968,0Zm.12,1.123h.737v3.924h-.737Z" transform="translate(-1191.75 -733.264)" fill="#fff"/>
      <path id="Trazado_36684" data-name="Trazado 36684" d="M1241.5,741.913a2.062,2.062,0,0,1-2.056,2.057,2.052,2.052,0,1,1,0-4.1,2.048,2.048,0,0,1,2.056,2.048Zm-.737,0a1.32,1.32,0,1,0-1.319,1.32A1.313,1.313,0,0,0,1240.768,741.913Z" transform="translate(-1201.573 -737.711)" fill="#fff"/>
      <path id="Trazado_36685" data-name="Trazado 36685" d="M1264.81,742.794a1.051,1.051,0,0,1-.188.617,1.258,1.258,0,0,1-.523.428,1.715,1.715,0,0,1-.7.146,2.122,2.122,0,0,1-.4-.043,2.59,2.59,0,0,1-1.174-.565l.463-.506a1.676,1.676,0,0,0,1.08.463,1.135,1.135,0,0,0,.454-.094.49.49,0,0,0,.309-.446c0-.266-.231-.429-.763-.523a4.6,4.6,0,0,1-.917-.266,1.014,1.014,0,0,1-.548-.917,1.081,1.081,0,0,1,.189-.6,1.184,1.184,0,0,1,.488-.377,1.6,1.6,0,0,1,.677-.146c.094,0,.2.009.291.017a2.256,2.256,0,0,1,1.054.471l-.429.5a1.448,1.448,0,0,0-.882-.343.942.942,0,0,0-.42.085.469.469,0,0,0-.283.394c0,.257.206.394.728.506a5.378,5.378,0,0,1,.908.266,1.072,1.072,0,0,1,.411.334A1.029,1.029,0,0,1,1264.81,742.794Z" transform="translate(-1219.788 -737.786)" fill="#fff"/>
      <path id="Trazado_36686" data-name="Trazado 36686" d="M1299.417,742.269h-3.025v.017a1.247,1.247,0,0,0,1.14,1.148,1.484,1.484,0,0,0,.96-.411l.617.368a2.313,2.313,0,0,1-.523.437,2.238,2.238,0,0,1-1.037.292,1.757,1.757,0,0,1-1.328-.6,2.022,2.022,0,0,1-.531-1.234,1.254,1.254,0,0,1-.009-.18,2.105,2.105,0,0,1,.052-.463,2.061,2.061,0,0,1,.488-.951,1.792,1.792,0,0,1,1.328-.591,1.811,1.811,0,0,1,1.337.591,1.989,1.989,0,0,1,.488.951A2.346,2.346,0,0,1,1299.417,742.269Zm-.771-.617-.008-.017a1.188,1.188,0,0,0-1.089-.848,1.2,1.2,0,0,0-1.088.848l-.009.017Z" transform="translate(-1245.038 -737.887)" fill="#fff"/>
      <path id="Trazado_36687" data-name="Trazado 36687" d="M1323.02,741.793V743.9h-.737v-2.108a1.157,1.157,0,1,0-2.313,0V743.9h-.737v-3.924h.737v.377a1.953,1.953,0,0,1,1.157-.454,1.883,1.883,0,0,1,1.345.548A1.9,1.9,0,0,1,1323.02,741.793Z" transform="translate(-1262.6 -737.736)" fill="#fff"/>
      <path id="Trazado_36688" data-name="Trazado 36688" d="M1360.353,743.121a2.968,2.968,0,0,1-.214.248,2.08,2.08,0,0,1-2.905,0,2.07,2.07,0,0,1,0-2.913,2.08,2.08,0,0,1,2.905,0,1.782,1.782,0,0,1,.205.24l-.591.437a1.321,1.321,0,1,0-1.062,2.108,1.31,1.31,0,0,0,1.062-.557Z" transform="translate(-1290.489 -737.711)" fill="#fff"/>
      <path id="Trazado_36689" data-name="Trazado 36689" d="M1382.853,739.951h.737v3.924h-.737v-.454a2.109,2.109,0,0,1-1.319.54,2.048,2.048,0,1,1,0-4.1,2.11,2.11,0,0,1,1.319.54Zm0,1.962a1.319,1.319,0,1,0-1.319,1.328A1.327,1.327,0,0,0,1382.853,741.913Z" transform="translate(-1307.522 -737.711)" fill="#fff"/>
      <path id="Trazado_36690" data-name="Trazado 36690" d="M1411.66,741.793V743.9h-.737v-2.108a1.161,1.161,0,1,0-2.322,0V743.9h-.737v-2.108a1.157,1.157,0,1,0-2.314,0V743.9h-.737v-3.924h.737v.377a1.952,1.952,0,0,1,1.157-.454,1.92,1.92,0,0,1,1.345.583,1.422,1.422,0,0,1,.18.214,2.18,2.18,0,0,1,.188-.214,1.919,1.919,0,0,1,1.345-.583,1.887,1.887,0,0,1,1.894,1.894Z" transform="translate(-1326.415 -737.736)" fill="#fff"/>
      <path id="Trazado_36691" data-name="Trazado 36691" d="M1445.014,741.913a2.048,2.048,0,0,1-2.056,2.048,2.11,2.11,0,0,1-1.32-.54v2.7h-.737v-6.169h.737v.454a2.111,2.111,0,0,1,1.32-.54,2.048,2.048,0,0,1,2.056,2.048Zm-.737,0a1.32,1.32,0,1,0-1.32,1.328A1.328,1.328,0,0,0,1444.277,741.913Z" transform="translate(-1353.325 -737.711)" fill="#fff"/>
      <path id="Trazado_36692" data-name="Trazado 36692" d="M1469.443,741.913a2.063,2.063,0,0,1-2.057,2.057,2.052,2.052,0,1,1,0-4.1,2.048,2.048,0,0,1,2.057,2.048Zm-.737,0a1.32,1.32,0,1,0-1.319,1.32A1.312,1.312,0,0,0,1468.706,741.913Z" transform="translate(-1371.541 -737.711)" fill="#fff"/>
    </g>
  </g>
</svg>
