<svg xmlns="http://www.w3.org/2000/svg" xmlns:xlink="http://www.w3.org/1999/xlink" width="287" height="96" viewBox="0 0 287 96">
  <defs>
    <clipPath id="clip-path">
      <rect id="Rectángulo_3194" data-name="Rectángulo 3194" width="260.705" height="87.572" fill="none"/>
    </clipPath>
  </defs>
  <g id="Grupo_20785" data-name="Grupo 20785" transform="translate(21660.25 19339.895)">
    <rect id="Rectángulo_3190" data-name="Rectángulo 3190" width="287" height="96" transform="translate(-21660.25 -19339.895)" fill="none"/>
    <g id="Grupo_20784" data-name="Grupo 20784" transform="translate(-21647.395 -19335.277)">
      <g id="Grupo_20783" data-name="Grupo 20783" clip-path="url(#clip-path)">
        <path id="Trazado_40534" data-name="Trazado 40534" d="M88.475,153.339a7,7,0,0,1-3.146-1.6l.876-.994a5.666,5.666,0,0,0,2.537,1.321,3.26,3.26,0,0,0,2.048-.163,1.679,1.679,0,0,0,1.054-1.529c0-1.113-1.188-1.514-2.345-1.737a10.952,10.952,0,0,1-2.435-.742,2.609,2.609,0,0,1-1.365-2.315,2.713,2.713,0,0,1,.49-1.529,3.311,3.311,0,0,1,1.247-.995,4.2,4.2,0,0,1,2.508-.312,6.05,6.05,0,0,1,2.805,1.336L91.9,145.1a3.741,3.741,0,0,0-3.9-.876,1.527,1.527,0,0,0-.965,1.336c0,1.009.861,1.395,2.226,1.692a9.883,9.883,0,0,1,2.435.727,2.634,2.634,0,0,1,1.469,2.39,2.848,2.848,0,0,1-.5,1.662,3.469,3.469,0,0,1-1.321,1.054,3.862,3.862,0,0,1-1.8.371,5.207,5.207,0,0,1-1.069-.119" transform="translate(-41.667 -69.671)" fill="#fff"/>
        <path id="Trazado_40535" data-name="Trazado 40535" d="M115.16,153.517a3.572,3.572,0,0,1-3.562,3.562,3.555,3.555,0,1,1,0-7.11,3.546,3.546,0,0,1,3.562,3.548m-1.276,0A2.286,2.286,0,1,0,111.6,155.8a2.274,2.274,0,0,0,2.286-2.286" transform="translate(-52.755 -73.232)" fill="#fff"/>
        <rect id="Rectángulo_3191" data-name="Rectángulo 3191" width="1.277" height="10.894" transform="translate(66.409 72.789)" fill="#fff"/>
        <path id="Trazado_40536" data-name="Trazado 40536" d="M141.124,154.148v-3.889H142.4v3.889a1.871,1.871,0,0,0,3.74,0v-3.889h1.277v3.889a3.035,3.035,0,0,1-.935,2.182,3.249,3.249,0,0,1-4.438,0,3.02,3.02,0,0,1-.921-2.182" transform="translate(-68.913 -73.373)" fill="#fff"/>
        <path id="Trazado_40537" data-name="Trazado 40537" d="M167.749,155.61a5.15,5.15,0,0,1-.371.431,3.514,3.514,0,0,1-2.508,1.024,3.55,3.55,0,0,1-2.524-1.024,3.584,3.584,0,0,1,0-5.047,3.548,3.548,0,0,1,2.524-1.024,3.512,3.512,0,0,1,2.508,1.024,3.117,3.117,0,0,1,.357.415l-1.024.757a2.288,2.288,0,1,0-1.841,3.651,2.27,2.27,0,0,0,1.841-.964Z" transform="translate(-78.768 -73.232)" fill="#fff"/>
        <path id="Trazado_40538" data-name="Trazado 40538" d="M181.926,145.665a.839.839,0,0,1,1.677,0,.839.839,0,1,1-1.677,0m.208,1.944h1.276v6.8h-1.276Z" transform="translate(-88.837 -70.724)" fill="#fff"/>
        <path id="Trazado_40539" data-name="Trazado 40539" d="M200.36,153.517a3.571,3.571,0,0,1-3.562,3.562,3.555,3.555,0,1,1,0-7.11,3.546,3.546,0,0,1,3.562,3.548m-1.276,0A2.286,2.286,0,1,0,196.8,155.8a2.274,2.274,0,0,0,2.286-2.286" transform="translate(-94.36 -73.232)" fill="#fff"/>
        <path id="Trazado_40540" data-name="Trazado 40540" d="M221.459,153.279v3.651h-1.277v-3.651a2,2,0,1,0-4.008,0v3.651H214.9v-6.8h1.276v.653a3.385,3.385,0,0,1,2-.786,3.266,3.266,0,0,1,2.331.95,3.3,3.3,0,0,1,.95,2.33" transform="translate(-104.938 -73.246)" fill="#fff"/>
        <path id="Trazado_40541" data-name="Trazado 40541" d="M241.756,153.927h-5.239v.029a2.157,2.157,0,0,0,1.974,1.989,2.57,2.57,0,0,0,1.662-.712l1.068.638a4.025,4.025,0,0,1-.905.757,3.879,3.879,0,0,1-1.8.5,3.041,3.041,0,0,1-2.3-1.039,3.5,3.5,0,0,1-.921-2.137,2.186,2.186,0,0,1-.015-.312,3.686,3.686,0,0,1,.089-.8,3.575,3.575,0,0,1,.846-1.648,3.1,3.1,0,0,1,2.3-1.024,3.138,3.138,0,0,1,2.315,1.024,3.441,3.441,0,0,1,.846,1.648,4.065,4.065,0,0,1,.074,1.084m-1.336-1.069-.015-.03a2.057,2.057,0,0,0-1.885-1.47,2.086,2.086,0,0,0-1.885,1.47l-.015.03Z" transform="translate(-114.893 -73.331)" fill="#fff"/>
        <path id="Trazado_40542" data-name="Trazado 40542" d="M259.663,154.954a1.82,1.82,0,0,1-.326,1.069,2.172,2.172,0,0,1-.905.742,2.977,2.977,0,0,1-1.217.252,3.712,3.712,0,0,1-.7-.074,4.477,4.477,0,0,1-2.033-.979l.8-.876a2.9,2.9,0,0,0,1.87.8,1.966,1.966,0,0,0,.787-.163.849.849,0,0,0,.534-.772c0-.46-.4-.742-1.321-.906a7.944,7.944,0,0,1-1.588-.46,1.755,1.755,0,0,1-.95-1.588,1.873,1.873,0,0,1,.326-1.039,2.045,2.045,0,0,1,.846-.653,2.767,2.767,0,0,1,1.172-.252c.163,0,.341.015.5.029a3.915,3.915,0,0,1,1.826.817l-.742.861a2.509,2.509,0,0,0-1.529-.594,1.624,1.624,0,0,0-.727.148.813.813,0,0,0-.49.683c0,.445.356.683,1.262.876a9.327,9.327,0,0,1,1.573.46,1.859,1.859,0,0,1,.712.579,1.787,1.787,0,0,1,.312,1.039" transform="translate(-124.267 -73.274)" fill="#fff"/>
        <rect id="Rectángulo_3192" data-name="Rectángulo 3192" width="1.335" height="10.568" transform="translate(145.975 73.116)" fill="#fff"/>
        <path id="Trazado_40543" data-name="Trazado 40543" d="M303.788,153.279v3.651h-1.276v-3.651a2,2,0,1,0-4.008,0v3.651h-1.277v-6.8H298.5v.653a3.383,3.383,0,0,1,2-.786,3.265,3.265,0,0,1,2.33.95,3.3,3.3,0,0,1,.95,2.33" transform="translate(-145.14 -73.246)" fill="#fff"/>
        <path id="Trazado_40544" data-name="Trazado 40544" d="M318.1,152.294v-3.324h-1.01v-1.217h1.01v-2.627h1.276v2.627h2.093v1.217h-2.093v3.295a1.084,1.084,0,0,0,1.01,1.068h1.143l.326,1.217h-1.5a2.245,2.245,0,0,1-2.256-2.256" transform="translate(-154.841 -70.866)" fill="#fff"/>
        <path id="Trazado_40545" data-name="Trazado 40545" d="M339.021,153.927h-5.239v.029a2.157,2.157,0,0,0,1.974,1.989,2.569,2.569,0,0,0,1.662-.712l1.068.638a4.024,4.024,0,0,1-.905.757,3.877,3.877,0,0,1-1.8.5,3.04,3.04,0,0,1-2.3-1.039,3.5,3.5,0,0,1-.921-2.137,2.271,2.271,0,0,1-.014-.312,3.652,3.652,0,0,1,.089-.8,3.565,3.565,0,0,1,.846-1.648,3.1,3.1,0,0,1,2.3-1.024A3.138,3.138,0,0,1,338.1,151.2a3.446,3.446,0,0,1,.846,1.648,4.022,4.022,0,0,1,.074,1.084m-1.335-1.069-.015-.03a2.057,2.057,0,0,0-1.885-1.47,2.086,2.086,0,0,0-1.885,1.47l-.015.03Z" transform="translate(-162.388 -73.331)" fill="#fff"/>
        <path id="Trazado_40546" data-name="Trazado 40546" d="M359.365,150.117v7.124A3.572,3.572,0,0,1,355.8,160.8a3.736,3.736,0,0,1-1.915-.519,4.056,4.056,0,0,1-.638-.49l.965-.846a2.955,2.955,0,0,0,1.588.609,2.313,2.313,0,0,0,2.286-2.316v-1.113a3.654,3.654,0,0,1-2.286.935,3.548,3.548,0,1,1,0-7.1,3.654,3.654,0,0,1,2.286.935v-.787Zm-1.276,3.4a2.286,2.286,0,1,0-2.286,2.3,2.3,2.3,0,0,0,2.286-2.3" transform="translate(-172.004 -73.232)" fill="#fff"/>
        <path id="Trazado_40547" data-name="Trazado 40547" d="M376.137,150.815a4.148,4.148,0,0,1,2.479-.846l-.312,1.276a2.109,2.109,0,0,0-2.167,2.048v3.622h-1.276v-6.8h1.276Z" transform="translate(-183.049 -73.232)" fill="#fff"/>
        <path id="Trazado_40548" data-name="Trazado 40548" d="M394.135,150.117h1.277v6.8h-1.277v-.787a3.654,3.654,0,0,1-2.286.935,3.548,3.548,0,1,1,0-7.1,3.654,3.654,0,0,1,2.286.935Zm0,3.4a2.286,2.286,0,1,0-2.286,2.3,2.3,2.3,0,0,0,2.286-2.3" transform="translate(-189.605 -73.232)" fill="#fff"/>
        <rect id="Rectángulo_3193" data-name="Rectángulo 3193" width="1.276" height="10.894" transform="translate(210.36 72.789)" fill="#fff"/>
        <path id="Trazado_40549" data-name="Trazado 40549" d="M428.108,153.927h-5.239v.029a2.157,2.157,0,0,0,1.974,1.989,2.57,2.57,0,0,0,1.662-.712l1.068.638a4.023,4.023,0,0,1-.905.757,3.88,3.88,0,0,1-1.8.5,3.041,3.041,0,0,1-2.3-1.039,3.5,3.5,0,0,1-.921-2.137,2.193,2.193,0,0,1-.015-.312,3.693,3.693,0,0,1,.089-.8,3.576,3.576,0,0,1,.846-1.648,3.1,3.1,0,0,1,2.3-1.024,3.139,3.139,0,0,1,2.315,1.024,3.44,3.44,0,0,1,.846,1.648,4.064,4.064,0,0,1,.074,1.084m-1.335-1.069-.015-.03a2.057,2.057,0,0,0-1.885-1.47,2.086,2.086,0,0,0-1.885,1.47l-.015.03Z" transform="translate(-205.891 -73.331)" fill="#fff"/>
        <path id="Trazado_40550" data-name="Trazado 40550" d="M446.016,154.954a1.82,1.82,0,0,1-.326,1.069,2.172,2.172,0,0,1-.905.742,2.977,2.977,0,0,1-1.217.252,3.713,3.713,0,0,1-.7-.074,4.478,4.478,0,0,1-2.033-.979l.8-.876a2.9,2.9,0,0,0,1.87.8,1.966,1.966,0,0,0,.787-.163.849.849,0,0,0,.534-.772c0-.46-.4-.742-1.321-.906a7.945,7.945,0,0,1-1.588-.46,1.755,1.755,0,0,1-.95-1.588,1.873,1.873,0,0,1,.326-1.039,2.045,2.045,0,0,1,.846-.653,2.768,2.768,0,0,1,1.172-.252c.163,0,.341.015.5.029a3.916,3.916,0,0,1,1.826.817l-.742.861a2.508,2.508,0,0,0-1.529-.594,1.624,1.624,0,0,0-.727.148.813.813,0,0,0-.49.683c0,.445.356.683,1.262.876a9.324,9.324,0,0,1,1.573.46,1.857,1.857,0,0,1,.712.579,1.787,1.787,0,0,1,.312,1.039" transform="translate(-215.266 -73.274)" fill="#fff"/>
        <path id="Trazado_40551" data-name="Trazado 40551" d="M250.223,50.023a15.071,15.071,0,1,0,15.163,15.071,15.117,15.117,0,0,0-15.163-15.071m0,24.334a9.27,9.27,0,1,1,8.9-9.263,9.085,9.085,0,0,1-8.9,9.263" transform="translate(-114.783 -24.427)" fill="#fff"/>
        <path id="Trazado_40552" data-name="Trazado 40552" d="M169.966,74.823l-4.221-4.232a8.775,8.775,0,0,1-7.159,3.766,9.27,9.27,0,0,1,0-18.526,8.759,8.759,0,0,1,7.02,3.577l4.264-4.379a15.072,15.072,0,1,0,.26,19.83l-.164-.037" transform="translate(-70.035 -24.427)" fill="#fff"/>
        <path id="Trazado_40553" data-name="Trazado 40553" d="M216.321,49.616V43.909h-7.7V36.083h-6.644v7.826h-3.506v5.706h3.506V66.205s-.041,4.158,3.179,5.625,7.826,1.753,11.169-.2V66.45s-2.935,1.264-5.054.734-2.65-2.079-2.65-4.85V49.616Z" transform="translate(-96.914 -17.62)" fill="#fff"/>
        <path id="Trazado_40554" data-name="Trazado 40554" d="M316.98,50.022a12.683,12.683,0,0,0-10.159,5.372V50.573H300.4v37.54h6.42V74.793a12.682,12.682,0,0,0,10.159,5.371c7.334,0,13.278-6.748,13.278-15.071s-5.944-15.071-13.278-15.071m-1.813,24.334c-4.609,0-8.346-4.147-8.346-9.263s3.736-9.263,8.346-9.263,8.346,4.147,8.346,9.263-3.736,9.263-8.346,9.263" transform="translate(-146.69 -24.426)" fill="#fff"/>
        <path id="Trazado_40555" data-name="Trazado 40555" d="M383.964,75.85a10.483,10.483,0,0,1-8.988,5.034,10.211,10.211,0,0,1-10.21-10.211V51.536h6.4V68.615a6.441,6.441,0,0,0,12.883,0V51.536h6.6V80.272h-6.685Z" transform="translate(-178.12 -25.166)" fill="#fff"/>
        <path id="Trazado_40556" data-name="Trazado 40556" d="M443.378,69.605c-.489-1.712-1.467-4.586-9.2-6.909a29.672,29.672,0,0,1-4.433-1.8,2.758,2.758,0,0,1-1.513-2.9c.553-2.058,3.129-2.37,3.129-2.37a14.391,14.391,0,0,1,8.961,2.765l2.537-4.769a24.484,24.484,0,0,0-11.035-3c-5.931,0-9.6,4.738-9.538,8.009s.642,7.153,7.7,8.866,8.376,3.577,7.337,5.625-3.088,1.925-4.922,1.925-5.013-.825-8.774-3.393l-2.843,4.341s4.371,4.432,13.787,4.157,9.293-8.835,8.8-10.547" transform="translate(-205.475 -24.719)" fill="#fff"/>
        <path id="Trazado_40557" data-name="Trazado 40557" d="M78.694,60.754a31.412,31.412,0,0,1-32.408-5.816,24.3,24.3,0,0,0,7.008-3.355,24.632,24.632,0,0,0,7.67-8.6,24,24,0,0,0,2.06-5.213,24.471,24.471,0,1,0-48.118-6.3,24.42,24.42,0,0,0,2.887,11.521,24.6,24.6,0,0,0,7.556,8.52A24.236,24.236,0,0,0,32.3,54.887,31.429,31.429,0,0,1,0,60.821l5.554-5.57a24.622,24.622,0,0,0,5.764.685A24.217,24.217,0,0,0,18.4,54.887a31.473,31.473,0,1,1,41.9.051,24.486,24.486,0,0,0,12.86.265Z" transform="translate(0 0)" fill="#fff"/>
        <path id="Trazado_40558" data-name="Trazado 40558" d="M450.871,25.786c-7.54-1.4-14.133,1.876-19.1,7.081h1.453c7.13-5.748,17.322-6.21,23.01,1.543,9.279,12.968,2.566,36.828-12.053,43.085-7.151,2.963-13.918,1.078-17.957-4.736l-2.006-1.219a19.368,19.368,0,0,0,10.9,10.586c14.528,4.935,27.959-8.335,31.411-21.6,3.9-13.151-.691-31.406-15.666-34.738" transform="translate(-207.153 -12.434)" fill="#0089c6"/>
        <path id="Trazado_40559" data-name="Trazado 40559" d="M424.223,115.512l4.657,9.852-.285-4.575,5.718-.572Z" transform="translate(-207.153 -56.406)" fill="#0089c6"/>
      </g>
    </g>
  </g>
</svg>
