<svg xmlns="http://www.w3.org/2000/svg" xmlns:xlink="http://www.w3.org/1999/xlink" width="182" height="61" viewBox="0 0 182 61">
  <defs>
    <clipPath id="clip-path">
      <rect id="Rect치ngulo_3183" data-name="Rect치ngulo 3183" width="171.347" height="55.979" fill="none"/>
    </clipPath>
  </defs>
  <g id="Grupo_20782" data-name="Grupo 20782" transform="translate(0.351 0.257)">
    <g id="Grupo_20768" data-name="Grupo 20768" transform="translate(4.968 2.479)">
      <g id="Grupo_20767" data-name="Grupo 20767" clip-path="url(#clip-path)">
        <path id="Trazado_40440" data-name="Trazado 40440" d="M245.084,49.845a10.01,10.01,0,1,0,10.08,10,10.04,10.04,0,0,0-10.08-10m.015,16.162a6.157,6.157,0,1,1,5.9-6.158,6.034,6.034,0,0,1-5.9,6.158" transform="translate(-155.149 -32.905)" fill="#fff"/>
        <path id="Trazado_40441" data-name="Trazado 40441" d="M161.022,66.4l-2.807-2.808a5.828,5.828,0,0,1-4.753,2.505,6.157,6.157,0,0,1-.012-12.3,5.818,5.818,0,0,1,4.664,2.371l2.83-2.911a10.01,10.01,0,1,0,.185,13.171l-.109-.024" transform="translate(-94.656 -32.963)" fill="#fff"/>
        <path id="Trazado_40442" data-name="Trazado 40442" d="M210.265,44.931l0-3.79-5.117,0,0-5.2-4.413,0,0,5.2-2.328,0,0,3.79,2.328,0,.011,11.018s-.024,2.762,2.115,3.734a8.5,8.5,0,0,0,7.418-.142l0-3.438a6.474,6.474,0,0,1-3.356.49c-1.408-.35-1.761-1.379-1.763-3.22l-.008-8.447Z" transform="translate(-130.975 -23.731)" fill="#fff"/>
        <path id="Trazado_40443" data-name="Trazado 40443" d="M311.347,49.78a8.423,8.423,0,0,0-6.744,3.574l0-3.2-4.264,0,.024,24.933,4.264,0-.008-8.847a8.424,8.424,0,0,0,6.751,3.561c4.87,0,8.814-4.49,8.809-10.018s-3.958-10.006-8.828-10m-1.189,16.163c-3.061,0-5.546-2.749-5.549-6.147s2.475-6.154,5.537-6.157,5.545,2.749,5.549,6.147-2.476,6.154-5.537,6.157" transform="translate(-198.266 -32.862)" fill="#fff"/>
        <path id="Trazado_40444" data-name="Trazado 40444" d="M377.468,67.368a6.963,6.963,0,0,1-5.966,3.349,6.782,6.782,0,0,1-6.788-6.775l-.012-12.71,4.249,0,.011,11.343a4.278,4.278,0,0,0,8.557-.008l-.011-11.343,4.386,0,.018,19.086-4.44,0Z" transform="translate(-240.757 -33.81)" fill="#fff"/>
        <path id="Trazado_40445" data-name="Trazado 40445" d="M435.769,62.875c-.326-1.137-.978-3.045-6.116-4.583a19.677,19.677,0,0,1-2.945-1.2,1.832,1.832,0,0,1-1.007-1.926c.366-1.367,2.077-1.576,2.077-1.576a9.56,9.56,0,0,1,5.954,1.831l1.682-3.169a16.262,16.262,0,0,0-7.331-1.983c-3.939,0-6.373,3.153-6.33,5.325s.431,4.751,5.122,5.883,5.566,2.37,4.877,3.731S429.7,66.5,428.483,66.5a11.212,11.212,0,0,1-5.83-2.248l-1.885,2.885s2.906,2.941,9.16,2.752a5.713,5.713,0,0,0,5.841-7.01" transform="translate(-277.768 -33.188)" fill="#fff"/>
        <path id="Trazado_40446" data-name="Trazado 40446" d="M52.267,40.326a20.866,20.866,0,0,1-21.528-3.842,16.133,16.133,0,0,0,4.652-2.232,16.362,16.362,0,0,0,5.089-5.719,15.914,15.914,0,0,0,1.365-3.463A16.253,16.253,0,1,0,9.882,20.912a16.213,16.213,0,0,0,1.925,7.65,16.334,16.334,0,0,0,5.024,5.654,16.1,16.1,0,0,0,4.617,2.243A20.834,20.834,0,0,1,7.519,41.811,20.816,20.816,0,0,1,0,40.42l3.686-3.7a16.342,16.342,0,0,0,3.829.451,16.08,16.08,0,0,0,4.7-.7,20.9,20.9,0,1,1,27.828.007,16.265,16.265,0,0,0,8.542.168Z" transform="translate(0 0)" fill="#fff"/>
        <path id="Trazado_40447" data-name="Trazado 40447" d="M206.579,148.47l.69.513a3.632,3.632,0,0,1-2.928,1.469,3.672,3.672,0,1,1,2.938-5.865l-.7.513a2.755,2.755,0,0,0-2.238-1.124,2.8,2.8,0,1,0,2.238,4.5" transform="translate(-132.467 -94.473)" fill="#fff"/>
        <path id="Trazado_40448" data-name="Trazado 40448" d="M232.1,153.178a2.372,2.372,0,0,1-2.366,2.366,2.361,2.361,0,1,1,0-4.722,2.355,2.355,0,0,1,2.366,2.357m-.848,0a1.518,1.518,0,1,0-1.518,1.518,1.51,1.51,0,0,0,1.518-1.518" transform="translate(-150.099 -99.565)" fill="#fff"/>
        <path id="Trazado_40449" data-name="Trazado 40449" d="M253.392,153.03v2.425h-.848V153.03a1.331,1.331,0,1,0-2.662,0v2.425h-.848v-4.515h.848v.433a2.249,2.249,0,0,1,1.331-.522,2.17,2.17,0,0,1,1.548.631,2.193,2.193,0,0,1,.631,1.548" transform="translate(-164.399 -99.585)" fill="#fff"/>
        <path id="Trazado_40450" data-name="Trazado 40450" d="M269.57,150.739v-2.208H268.9v-.808h.671v-1.745h.848v1.745h1.39v.808h-1.39v2.188a.72.72,0,0,0,.671.71h.759l.217.809h-1a1.492,1.492,0,0,1-1.5-1.5" transform="translate(-177.513 -96.368)" fill="#fff"/>
        <path id="Trazado_40451" data-name="Trazado 40451" d="M288.734,150.921h.848v4.515h-.848v-.523a2.428,2.428,0,0,1-1.518.621,2.356,2.356,0,1,1,0-4.712,2.427,2.427,0,0,1,1.518.622Zm0,2.258a1.518,1.518,0,1,0-1.518,1.528,1.527,1.527,0,0,0,1.518-1.528" transform="translate(-188.042 -99.565)" fill="#fff"/>
        <path id="Trazado_40452" data-name="Trazado 40452" d="M310.53,154.569a3.471,3.471,0,0,1-.247.286,2.393,2.393,0,0,1-3.342,0,2.38,2.38,0,0,1,0-3.352,2.392,2.392,0,0,1,3.342,0,2.046,2.046,0,0,1,.237.276l-.68.5a1.52,1.52,0,1,0-1.222,2.425,1.508,1.508,0,0,0,1.222-.641Z" transform="translate(-202.171 -99.566)" fill="#fff"/>
        <path id="Trazado_40453" data-name="Trazado 40453" d="M326.148,150.739v-2.208h-.671v-.808h.671v-1.745H327v1.745h1.39v.808H327v2.188a.72.72,0,0,0,.671.71h.759l.217.809h-1a1.492,1.492,0,0,1-1.5-1.5" transform="translate(-214.863 -96.368)" fill="#fff"/>
        <path id="Trazado_40454" data-name="Trazado 40454" d="M357.6,154.569a3.478,3.478,0,0,1-.247.286,2.332,2.332,0,0,1-1.666.68,2.355,2.355,0,0,1-1.676-.68,2.38,2.38,0,0,1,0-3.352,2.356,2.356,0,0,1,1.676-.68,2.332,2.332,0,0,1,1.666.68,2.044,2.044,0,0,1,.237.276l-.68.5a1.52,1.52,0,1,0-1.222,2.425,1.508,1.508,0,0,0,1.222-.641Z" transform="translate(-233.241 -99.566)" fill="#fff"/>
        <path id="Trazado_40455" data-name="Trazado 40455" d="M377.279,153.52H373.8v.019a1.433,1.433,0,0,0,1.311,1.321,1.706,1.706,0,0,0,1.1-.473l.71.424a2.665,2.665,0,0,1-.6.5,2.569,2.569,0,0,1-1.193.335,2.021,2.021,0,0,1-1.528-.69,2.326,2.326,0,0,1-.611-1.42,1.5,1.5,0,0,1-.01-.207,2.426,2.426,0,0,1,.059-.532,2.369,2.369,0,0,1,.562-1.094,2.062,2.062,0,0,1,1.528-.68,2.084,2.084,0,0,1,1.538.68,2.287,2.287,0,0,1,.562,1.094,2.707,2.707,0,0,1,.049.719m-.887-.71-.01-.02a1.366,1.366,0,0,0-1.252-.976,1.386,1.386,0,0,0-1.252.976l-.01.02Z" transform="translate(-246.222 -99.7)" fill="#fff"/>
        <path id="Trazado_40456" data-name="Trazado 40456" d="M397.608,153.03v2.425h-.848V153.03a1.331,1.331,0,1,0-2.662,0v2.425h-.848v-4.515h.848v.433a2.25,2.25,0,0,1,1.331-.522,2.17,2.17,0,0,1,1.548.631,2.193,2.193,0,0,1,.631,1.548" transform="translate(-259.603 -99.585)" fill="#fff"/>
        <path id="Trazado_40457" data-name="Trazado 40457" d="M413.785,150.739v-2.208h-.671v-.808h.671v-1.745h.848v1.745h1.39v.808h-1.39v2.188a.72.72,0,0,0,.671.71h.759l.217.809h-1a1.492,1.492,0,0,1-1.5-1.5" transform="translate(-272.716 -96.368)" fill="#fff"/>
        <path id="Trazado_40458" data-name="Trazado 40458" d="M433.363,153.52h-3.48v.019a1.433,1.433,0,0,0,1.311,1.321,1.706,1.706,0,0,0,1.1-.473l.71.424a2.664,2.664,0,0,1-.6.5,2.569,2.569,0,0,1-1.193.335,2.021,2.021,0,0,1-1.528-.69,2.326,2.326,0,0,1-.611-1.42,1.45,1.45,0,0,1-.01-.207,2.424,2.424,0,0,1,.06-.532,2.369,2.369,0,0,1,.562-1.094,2.062,2.062,0,0,1,1.528-.68,2.084,2.084,0,0,1,1.538.68,2.287,2.287,0,0,1,.562,1.094,2.7,2.7,0,0,1,.049.719m-.887-.71-.01-.02a1.366,1.366,0,0,0-1.252-.976,1.386,1.386,0,0,0-1.252.976l-.01.02Z" transform="translate(-283.245 -99.7)" fill="#fff"/>
        <path id="Trazado_40459" data-name="Trazado 40459" d="M450.562,151.385a2.753,2.753,0,0,1,1.647-.562l-.207.848a1.4,1.4,0,0,0-1.439,1.36v2.405h-.848v-4.515h.848Z" transform="translate(-296.877 -99.566)" fill="#fff"/>
        <path id="Trazado_40460" data-name="Trazado 40460" d="M436.915,26.348c-5.008-.927-9.387,1.246-12.683,4.7h.965c4.736-3.818,11.505-4.124,15.283,1.025,2.915,4.074,3.451,9.766,2.182,15.074a24.272,24.272,0,0,1-.772,2.577c-1.4-.335-2.754-.285-3.4.963-1.061,2.039-2.914,6.053-3.8,8.056a4.181,4.181,0,0,0-.368,1.866c-2.63.029-5.259-.028-7.887-.134.134-.763-.038-1.573-.486-1.78a11.406,11.406,0,0,0-5.049-.8,2.121,2.121,0,0,0-.821.2,1.914,1.914,0,0,0-.688,1.727,1.789,1.789,0,0,0,.565,1.317,1.765,1.765,0,0,0,.743.232c1.87.29,1.014.088,2.884.377.137.021,1.552.229,1.689.205a1.306,1.306,0,0,0,.906-.713,64.479,64.479,0,0,0,8.6.838,3.783,3.783,0,0,0,1.8,1.437c1.97.84,5.016,2.029,6.227.012a40.813,40.813,0,0,0,2.943-6.179c.745-1.811,1.648-3.978.737-5.394a20.749,20.749,0,0,0,.842-2.53,20.689,20.689,0,0,0,.529-2.27c1.5-8.436-1.825-18.775-10.935-20.8" transform="translate(-276.847 -17.252)" fill="#e64a00"/>
      </g>
    </g>
    <rect id="Rect치ngulo_3190" data-name="Rect치ngulo 3190" width="182" height="61" transform="translate(-0.351 -0.257)" fill="none"/>
  </g>
</svg>
