<svg xmlns="http://www.w3.org/2000/svg" xmlns:xlink="http://www.w3.org/1999/xlink" width="182" height="61" viewBox="0 0 182 61">
  <defs>
    <clipPath id="clip-path">
      <rect id="Rect치ngulo_3186" data-name="Rect치ngulo 3186" width="175.461" height="57.845" fill="none"/>
    </clipPath>
  </defs>
  <g id="Grupo_20779" data-name="Grupo 20779" transform="translate(-0.135 0.257)">
    <g id="Grupo_20774" data-name="Grupo 20774" transform="translate(3.287 1.262)">
      <g id="Grupo_20773" data-name="Grupo 20773" transform="translate(0)" clip-path="url(#clip-path)">
        <path id="Trazado_40500" data-name="Trazado 40500" d="M237.338,48.434a9.692,9.692,0,1,0,9.751,9.691,9.721,9.721,0,0,0-9.751-9.691m0,15.648a5.961,5.961,0,1,1,5.721-5.957,5.842,5.842,0,0,1-5.721,5.957" transform="translate(-150.241 -31.974)" fill="#fff"/>
        <path id="Trazado_40501" data-name="Trazado 40501" d="M155.933,64.381l-2.715-2.721a5.641,5.641,0,0,1-4.6,2.421,5.961,5.961,0,0,1,0-11.913,5.631,5.631,0,0,1,4.514,2.3l2.742-2.816a9.692,9.692,0,1,0,.167,12.752l-.105-.024" transform="translate(-91.67 -31.973)" fill="#fff"/>
        <path id="Trazado_40502" data-name="Trazado 40502" d="M203.639,43.638V39.969h-4.954V34.936h-4.273v5.033h-2.254v3.669h2.254V54.306s-.026,2.674,2.045,3.617a8.228,8.228,0,0,0,7.182-.131V54.463a6.268,6.268,0,0,1-3.25.472c-1.363-.341-1.7-1.337-1.7-3.119V43.638Z" transform="translate(-126.852 -23.063)" fill="#fff"/>
        <path id="Trazado_40503" data-name="Trazado 40503" d="M301.512,48.433a8.156,8.156,0,0,0-6.533,3.454v-3.1H290.85v24.14h4.129V64.362a8.156,8.156,0,0,0,6.533,3.454c4.716,0,8.539-4.339,8.539-9.691s-3.823-9.692-8.539-9.692m-1.166,15.648c-2.964,0-5.367-2.667-5.367-5.957s2.4-5.957,5.367-5.957,5.367,2.667,5.367,5.957-2.4,5.957-5.367,5.957" transform="translate(-192.003 -31.973)" fill="#fff"/>
        <path id="Trazado_40504" data-name="Trazado 40504" d="M365.516,65.534a6.741,6.741,0,0,1-5.78,3.237,6.566,6.566,0,0,1-6.566-6.566V49.9h4.113V60.882a4.142,4.142,0,0,0,8.285,0V49.9h4.246V68.378h-4.3Z" transform="translate(-233.144 -32.941)" fill="#fff"/>
        <path id="Trazado_40505" data-name="Trazado 40505" d="M421.937,61.22c-.315-1.1-.944-2.949-5.917-4.443a19.078,19.078,0,0,1-2.851-1.16,1.773,1.773,0,0,1-.973-1.866c.355-1.323,2.013-1.524,2.013-1.524a9.255,9.255,0,0,1,5.763,1.778l1.631-3.067a15.748,15.748,0,0,0-7.1-1.926c-3.814,0-6.173,3.047-6.134,5.15s.413,4.6,4.954,5.7,5.386,2.3,4.718,3.617-1.986,1.238-3.165,1.238a10.858,10.858,0,0,1-5.642-2.182l-1.828,2.792s2.811,2.85,8.866,2.674a5.532,5.532,0,0,0,5.662-6.782" transform="translate(-268.949 -32.355)" fill="#fff"/>
        <path id="Trazado_40506" data-name="Trazado 40506" d="M50.606,39.068a20.2,20.2,0,0,1-20.841-3.74,15.622,15.622,0,0,0,4.506-2.157A15.841,15.841,0,0,0,39.2,27.638a15.442,15.442,0,0,0,1.325-3.352A15.736,15.736,0,1,0,9.585,20.232a15.706,15.706,0,0,0,1.857,7.408A15.816,15.816,0,0,0,16.3,33.119,15.592,15.592,0,0,0,20.77,35.3,20.212,20.212,0,0,1,0,39.111l3.572-3.582a15.84,15.84,0,0,0,3.707.44,15.579,15.579,0,0,0,4.554-.674,20.239,20.239,0,1,1,26.943.033,15.749,15.749,0,0,0,8.27.171Z" transform="translate(0 0)" fill="#fff"/>
        <path id="Trazado_40507" data-name="Trazado 40507" d="M484.64,72.391a2.894,2.894,0,0,0-1.859-1.026.478.478,0,0,1-.443-.46,21.76,21.76,0,0,1-.855,6.478c-1.516,5.827-5.985,11.649-11.635,13.853.066.105.138.24.231.412a3.179,3.179,0,0,0,4.612,1.254,26.061,26.061,0,0,0,2.205-1.571,4.838,4.838,0,0,0,2-3.725,4.652,4.652,0,0,0-.574-2.552.647.647,0,0,1,.051-.781,18.127,18.127,0,0,0,1.093-1.7.439.439,0,0,1,.545-.264,3.511,3.511,0,0,0,4.595-2.609l.854-3.5c-.041-.158.052-.3.071-.451a3.731,3.731,0,0,0-.895-3.362" transform="translate(-310.168 -46.809)" fill="#da0011"/>
        <path id="Trazado_40508" data-name="Trazado 40508" d="M464.523,16.054a12.627,12.627,0,0,1,4.433,1.919,4.748,4.748,0,0,0-.03-2.6,3.059,3.059,0,0,0-2-2.248l-2.937-.717c-.139.061-.254-.037-.381-.047a3.1,3.1,0,0,0-2.888,1.341,4.478,4.478,0,0,0-1.023,2.219,1.207,1.207,0,0,1-.055.215,12.106,12.106,0,0,1,4.884-.086" transform="translate(-303.429 -8.14)" fill="#da0011"/>
        <path id="Trazado_40509" data-name="Trazado 40509" d="M498.577,42.535a4.9,4.9,0,0,0,1.473-5.5,20.754,20.754,0,0,0-1.432-2.9,3.091,3.091,0,0,0-4.041-1.339,4.162,4.162,0,0,0-.83.481,17.953,17.953,0,0,1,4.205,9.9c.067-.206.247-.347.624-.642" transform="translate(-325.946 -21.46)" fill="#da0011"/>
        <path id="Trazado_40510" data-name="Trazado 40510" d="M437.265,128.034a12.208,12.208,0,0,1-3.139-1.75,4.475,4.475,0,0,0-.1,2.4,3.1,3.1,0,0,0,1.947,2.519c.117.05.263.016.357.134l2.937.717a3.328,3.328,0,0,0,3.294-1.665,4.637,4.637,0,0,0,.77-1.827,12.532,12.532,0,0,1-6.063-.531" transform="translate(-286.442 -83.367)" fill="#da0011"/>
        <path id="Trazado_40511" data-name="Trazado 40511" d="M506.1,64.8a11.123,11.123,0,0,1,.106,1.328,1.084,1.084,0,0,0,.019.154,22.661,22.661,0,0,0-.162-2.381,2.223,2.223,0,0,0,.037.9" transform="translate(-334.051 -42.184)" fill="#da0011"/>
        <path id="Trazado_40512" data-name="Trazado 40512" d="M487.064,30.033a12.061,12.061,0,0,1,1.191,1,.426.426,0,0,0,.663.007c.051-.042.1-.08.155-.119a12.951,12.951,0,0,0-2.275-1.987c-.008.029-.013.058-.021.088-.183.657-.17.669.288,1.011" transform="translate(-321.271 -19.101)" fill="#da0011"/>
        <path id="Trazado_40513" data-name="Trazado 40513" d="M463.351,129.973a7.89,7.89,0,0,1-1.15.231.583.583,0,0,0-.541.568c-.008.046-.021.089-.03.134a13.541,13.541,0,0,0,2.793-.77c-.246-.394-.39-.356-1.072-.163" transform="translate(-304.743 -85.709)" fill="#da0011"/>
        <path id="Trazado_40514" data-name="Trazado 40514" d="M430.307,121.32a8.757,8.757,0,0,1-1.25-1.045.423.423,0,0,0-.577-.082,12.318,12.318,0,0,0,2.064,2.018c0-.013.007-.026.012-.039a.64.64,0,0,0-.248-.852" transform="translate(-282.859 -79.294)" fill="#da0011"/>
        <path id="Trazado_40515" data-name="Trazado 40515" d="M453.4,24.215a4.306,4.306,0,0,1,1.185-.248.592.592,0,0,0,.559-.426,12.726,12.726,0,0,0-2.314.758,1,1,0,0,0,.571-.085" transform="translate(-298.934 -15.541)" fill="#da0011"/>
        <path id="Trazado_40516" data-name="Trazado 40516" d="M450.465,45.545a21.764,21.764,0,0,0,.855-6.478,1.125,1.125,0,0,1-.019-.154,11.118,11.118,0,0,0-.106-1.328,2.235,2.235,0,0,1-.037-.9,17.949,17.949,0,0,0-4.205-9.9c-.052.039-.1.077-.155.119a.426.426,0,0,1-.663-.007,12.068,12.068,0,0,0-1.191-1c-.457-.342-.471-.354-.288-1.011.008-.029.014-.058.021-.088a12.617,12.617,0,0,0-4.432-1.919,12.107,12.107,0,0,0-4.884.086.592.592,0,0,1-.559.426,4.308,4.308,0,0,0-1.185.248,1,1,0,0,1-.571.085,16.39,16.39,0,0,0-5.258,3.774h.947c4.652-3.75,11.3-4.051,15.011,1.007,6.053,8.46,1.674,24.024-7.863,28.105-4.665,1.933-9.08.7-11.714-3.089l-1.308-.8a14.281,14.281,0,0,0,1.91,3.139.422.422,0,0,1,.576.082A8.737,8.737,0,0,0,426.6,57a.641.641,0,0,1,.248.852c0,.013-.007.026-.011.039a12.21,12.21,0,0,0,3.139,1.75,12.532,12.532,0,0,0,6.063.53c.009-.045.022-.088.03-.134a.583.583,0,0,1,.54-.568,7.87,7.87,0,0,0,1.15-.231c.682-.193.826-.231,1.072.163,5.649-2.2,10.118-8.026,11.635-13.853" transform="translate(-279.15 -14.97)" fill="#da0011"/>
        <path id="Trazado_40517" data-name="Trazado 40517" d="M454.49,57.94c3.13-.123,5.038,3.492,4.592,6.292a6.345,6.345,0,0,1-3.652,5.148,4.018,4.018,0,0,1-2.068.285,7.33,7.33,0,0,0,3.7-5.678,6.05,6.05,0,0,0-2.568-6.047" transform="translate(-299.285 -38.247)" fill="#da0011"/>
        <path id="Trazado_40518" data-name="Trazado 40518" d="M124.391,149.508a4.5,4.5,0,0,1-2.023-1.03l.563-.639a3.645,3.645,0,0,0,1.632.849,2.094,2.094,0,0,0,1.317-.105,1.078,1.078,0,0,0,.677-.983c0-.716-.763-.973-1.508-1.116a7.057,7.057,0,0,1-1.565-.477,1.678,1.678,0,0,1-.878-1.489,1.741,1.741,0,0,1,.315-.983,2.129,2.129,0,0,1,.8-.639,2.7,2.7,0,0,1,1.613-.2,3.892,3.892,0,0,1,1.8.858l-.544.659a2.4,2.4,0,0,0-2.509-.563.981.981,0,0,0-.621.858c0,.649.554.9,1.431,1.088a6.346,6.346,0,0,1,1.565.467,1.693,1.693,0,0,1,.944,1.536,1.835,1.835,0,0,1-.324,1.068,2.229,2.229,0,0,1-.849.677,2.479,2.479,0,0,1-1.155.239,3.349,3.349,0,0,1-.686-.076" transform="translate(-80.781 -94.173)" fill="#fff"/>
        <path id="Trazado_40519" data-name="Trazado 40519" d="M148.484,152.322h-3.368v.019a1.388,1.388,0,0,0,1.269,1.279,1.651,1.651,0,0,0,1.068-.458l.687.41a2.588,2.588,0,0,1-.582.487,2.5,2.5,0,0,1-1.154.325,1.957,1.957,0,0,1-1.479-.668,2.254,2.254,0,0,1-.592-1.374,1.412,1.412,0,0,1-.01-.2,2.4,2.4,0,0,1,.057-.515,2.3,2.3,0,0,1,.544-1.059,2,2,0,0,1,2.967,0,2.212,2.212,0,0,1,.544,1.059,2.617,2.617,0,0,1,.048.7m-.858-.687-.01-.019a1.323,1.323,0,0,0-1.212-.944,1.342,1.342,0,0,0-1.212.944l-.009.019Z" transform="translate(-95.275 -98.962)" fill="#fff"/>
        <path id="Trazado_40520" data-name="Trazado 40520" d="M165.137,150.256a2.664,2.664,0,0,1,1.594-.544l-.2.82a1.356,1.356,0,0,0-1.393,1.317v2.328h-.82v-4.37h.82Z" transform="translate(-108.473 -98.833)" fill="#fff"/>
        <path id="Trazado_40521" data-name="Trazado 40521" d="M181.753,149.992l-1.775,4.37h-.887l-1.775-4.37h.888l1.335,3.282,1.327-3.282Z" transform="translate(-117.055 -99.018)" fill="#fff"/>
        <path id="Trazado_40522" data-name="Trazado 40522" d="M197.841,145.276a.539.539,0,0,1,1.078,0,.539.539,0,1,1-1.078,0m.134,1.25h.821v4.37h-.821Z" transform="translate(-130.604 -95.552)" fill="#fff"/>
        <path id="Trazado_40523" data-name="Trazado 40523" d="M212.933,153.338a3.328,3.328,0,0,1-.238.277,2.315,2.315,0,0,1-3.235,0,2.3,2.3,0,0,1,0-3.244,2.315,2.315,0,0,1,3.235,0,2.013,2.013,0,0,1,.229.267l-.659.486a1.471,1.471,0,1,0-1.183,2.347,1.459,1.459,0,0,0,1.183-.62Z" transform="translate(-137.833 -98.833)" fill="#fff"/>
        <path id="Trazado_40524" data-name="Trazado 40524" d="M228.755,145.276a.539.539,0,0,1,1.078,0,.539.539,0,1,1-1.078,0m.134,1.25h.821v4.37h-.821Z" transform="translate(-151.012 -95.552)" fill="#fff"/>
        <path id="Trazado_40525" data-name="Trazado 40525" d="M244.313,151.992a2.3,2.3,0,0,1-2.29,2.29,2.285,2.285,0,1,1,0-4.57,2.281,2.281,0,0,1,2.29,2.28m-.821,0a1.469,1.469,0,1,0-1.469,1.469,1.462,1.462,0,0,0,1.469-1.469" transform="translate(-158.259 -98.833)" fill="#fff"/>
        <path id="Trazado_40526" data-name="Trazado 40526" d="M263.42,152.945a1.169,1.169,0,0,1-.21.687,1.4,1.4,0,0,1-.582.477,1.918,1.918,0,0,1-.783.162,2.362,2.362,0,0,1-.448-.048,2.884,2.884,0,0,1-1.307-.63l.516-.563a1.865,1.865,0,0,0,1.2.515,1.263,1.263,0,0,0,.505-.105.545.545,0,0,0,.344-.5c0-.3-.258-.477-.849-.582a5.119,5.119,0,0,1-1.021-.3,1.129,1.129,0,0,1-.611-1.021,1.2,1.2,0,0,1,.21-.668,1.317,1.317,0,0,1,.544-.42,1.78,1.78,0,0,1,.754-.162c.1,0,.219.01.324.019a2.519,2.519,0,0,1,1.174.524l-.477.554a1.613,1.613,0,0,0-.983-.382,1.048,1.048,0,0,0-.468.1.522.522,0,0,0-.315.439c0,.286.229.439.811.563a5.96,5.96,0,0,1,1.011.3,1.2,1.2,0,0,1,.458.372,1.148,1.148,0,0,1,.2.668" transform="translate(-171.697 -98.888)" fill="#fff"/>
        <path id="Trazado_40527" data-name="Trazado 40527" d="M292.468,152.322H289.1v.019a1.388,1.388,0,0,0,1.269,1.279,1.651,1.651,0,0,0,1.069-.458l.687.41a2.589,2.589,0,0,1-.582.487,2.5,2.5,0,0,1-1.155.325,1.957,1.957,0,0,1-1.479-.668,2.255,2.255,0,0,1-.592-1.374,1.423,1.423,0,0,1-.009-.2,2.353,2.353,0,0,1,.057-.515,2.3,2.3,0,0,1,.544-1.059,2,2,0,0,1,1.479-.658,2.017,2.017,0,0,1,1.489.658,2.218,2.218,0,0,1,.544,1.059,2.6,2.6,0,0,1,.048.7m-.859-.687-.009-.019a1.323,1.323,0,0,0-1.212-.944,1.342,1.342,0,0,0-1.212.944l-.01.019Z" transform="translate(-190.325 -98.962)" fill="#fff"/>
        <path id="Trazado_40528" data-name="Trazado 40528" d="M312.152,151.849V154.2h-.82v-2.347a1.288,1.288,0,1,0-2.576,0V154.2h-.821v-4.37h.821v.42a2.173,2.173,0,0,1,1.288-.506,2.1,2.1,0,0,1,1.5.611,2.122,2.122,0,0,1,.611,1.5" transform="translate(-203.282 -98.851)" fill="#fff"/>
        <path id="Trazado_40529" data-name="Trazado 40529" d="M343.242,153.338a3.266,3.266,0,0,1-.239.277,2.316,2.316,0,0,1-3.235,0,2.3,2.3,0,0,1,0-3.244,2.316,2.316,0,0,1,3.235,0,1.967,1.967,0,0,1,.229.267l-.659.486a1.471,1.471,0,1,0-1.183,2.347,1.459,1.459,0,0,0,1.183-.62Z" transform="translate(-223.856 -98.833)" fill="#fff"/>
        <path id="Trazado_40530" data-name="Trazado 40530" d="M361.9,149.807h.821v4.37H361.9v-.506a2.348,2.348,0,0,1-1.469.6,2.281,2.281,0,1,1,0-4.561,2.348,2.348,0,0,1,1.469.6Zm0,2.185a1.469,1.469,0,1,0-1.469,1.479,1.478,1.478,0,0,0,1.469-1.479" transform="translate(-236.423 -98.833)" fill="#fff"/>
        <path id="Trazado_40531" data-name="Trazado 40531" d="M386.876,151.849V154.2h-.821v-2.347a1.293,1.293,0,1,0-2.586,0V154.2h-.821v-2.347a1.288,1.288,0,1,0-2.576,0V154.2h-.821v-4.37h.821v.42a2.174,2.174,0,0,1,1.288-.506,2.136,2.136,0,0,1,1.5.649,1.589,1.589,0,0,1,.2.239,2.455,2.455,0,0,1,.21-.239,2.136,2.136,0,0,1,1.5-.649,2.1,2.1,0,0,1,2.109,2.109" transform="translate(-250.362 -98.851)" fill="#fff"/>
        <path id="Trazado_40532" data-name="Trazado 40532" d="M413.9,151.992a2.281,2.281,0,0,1-2.29,2.281,2.348,2.348,0,0,1-1.469-.6v3.006h-.821v-6.87h.821v.506a2.348,2.348,0,0,1,1.469-.6,2.28,2.28,0,0,1,2.29,2.28m-.82,0a1.469,1.469,0,1,0-1.47,1.479,1.478,1.478,0,0,0,1.47-1.479" transform="translate(-270.213 -98.833)" fill="#fff"/>
        <path id="Trazado_40533" data-name="Trazado 40533" d="M434.261,151.992a2.3,2.3,0,0,1-2.29,2.29,2.285,2.285,0,1,1,0-4.57,2.281,2.281,0,0,1,2.29,2.28m-.821,0a1.469,1.469,0,1,0-1.469,1.469,1.461,1.461,0,0,0,1.469-1.469" transform="translate(-283.652 -98.833)" fill="#fff"/>
      </g>
    </g>
    <rect id="Rect치ngulo_3187" data-name="Rect치ngulo 3187" width="182" height="61" transform="translate(0.135 -0.257)" fill="none"/>
  </g>
</svg>
