<svg xmlns="http://www.w3.org/2000/svg" xmlns:xlink="http://www.w3.org/1999/xlink" width="182" height="61.347" viewBox="0 0 182 61.347">
  <defs>
    <clipPath id="clip-path">
      <rect id="Rect치ngulo_3185" data-name="Rect치ngulo 3185" width="177.077" height="60.435" fill="none"/>
    </clipPath>
  </defs>
  <g id="Grupo_20780" data-name="Grupo 20780" transform="translate(0.054 0.257)">
    <g id="Grupo_20772" data-name="Grupo 20772" transform="translate(2.418 0.654)">
      <g id="Grupo_20771" data-name="Grupo 20771" transform="translate(0)" clip-path="url(#clip-path)">
        <path id="Trazado_40479" data-name="Trazado 40479" d="M245.131,50.022A10.01,10.01,0,1,0,255.2,60.032a10.041,10.041,0,0,0-10.071-10.01m0,16.162a6.157,6.157,0,1,1,5.909-6.152,6.034,6.034,0,0,1-5.909,6.152" transform="translate(-155.174 -33.022)" fill="#fff"/>
        <path id="Trazado_40480" data-name="Trazado 40480" d="M161.053,66.495l-2.8-2.811a5.828,5.828,0,0,1-4.755,2.5,6.157,6.157,0,0,1,0-12.3,5.818,5.818,0,0,1,4.662,2.376l2.832-2.908a10.01,10.01,0,1,0,.173,13.171l-.109-.024" transform="translate(-94.68 -33.023)" fill="#fff"/>
        <path id="Trazado_40481" data-name="Trazado 40481" d="M210.326,45.071v-3.79h-5.117v-5.2H200.8v5.2h-2.328v3.79H200.8V56.089s-.027,2.761,2.112,3.736a8.5,8.5,0,0,0,7.418-.135V56.251a6.477,6.477,0,0,1-3.357.488c-1.408-.352-1.76-1.381-1.76-3.222V45.071Z" transform="translate(-131.018 -23.82)" fill="#fff"/>
        <path id="Trazado_40482" data-name="Trazado 40482" d="M311.413,50.023a8.424,8.424,0,0,0-6.747,3.568v-3.2H300.4V75.322h4.264V66.475a8.423,8.423,0,0,0,6.747,3.567c4.87,0,8.819-4.482,8.819-10.01s-3.948-10.01-8.819-10.01m-1.2,16.162c-3.061,0-5.543-2.754-5.543-6.152s2.482-6.152,5.543-6.152,5.543,2.754,5.543,6.152-2.482,6.152-5.543,6.152" transform="translate(-198.308 -33.023)" fill="#fff"/>
        <path id="Trazado_40483" data-name="Trazado 40483" d="M377.517,67.685a6.962,6.962,0,0,1-5.97,3.343,6.782,6.782,0,0,1-6.781-6.782V51.536h4.249V62.879a4.278,4.278,0,0,0,8.557,0V51.536h4.386V70.622h-4.44Z" transform="translate(-240.799 -34.022)" fill="#fff"/>
        <path id="Trazado_40484" data-name="Trazado 40484" d="M435.791,63.23c-.325-1.137-.975-3.046-6.112-4.589a19.707,19.707,0,0,1-2.944-1.2,1.832,1.832,0,0,1-1-1.927c.367-1.367,2.079-1.574,2.079-1.574a9.559,9.559,0,0,1,5.952,1.837l1.685-3.167a16.263,16.263,0,0,0-7.33-1.99c-3.939,0-6.376,3.147-6.335,5.32s.427,4.751,5.117,5.888,5.563,2.376,4.873,3.736-2.051,1.279-3.269,1.279a11.213,11.213,0,0,1-5.827-2.254l-1.888,2.883s2.9,2.944,9.157,2.761a5.713,5.713,0,0,0,5.848-7" transform="translate(-277.78 -33.418)" fill="#fff"/>
        <path id="Trazado_40485" data-name="Trazado 40485" d="M52.267,40.351a20.863,20.863,0,0,1-21.525-3.863A16.143,16.143,0,0,0,35.4,34.26a16.36,16.36,0,0,0,5.094-5.715,15.923,15.923,0,0,0,1.368-3.462A16.253,16.253,0,1,0,9.9,20.9a16.219,16.219,0,0,0,1.918,7.652,16.336,16.336,0,0,0,5.018,5.658,16.1,16.1,0,0,0,4.615,2.248A20.875,20.875,0,0,1,0,40.4l3.689-3.7a16.356,16.356,0,0,0,3.828.455,16.085,16.085,0,0,0,4.7-.7,20.9,20.9,0,1,1,27.828.034,16.264,16.264,0,0,0,8.542.176Z" transform="translate(0 0)" fill="#fff"/>
        <path id="Trazado_40486" data-name="Trazado 40486" d="M465.119,69.993c.013,1.13.725,1.939,1.59,1.807a2.2,2.2,0,0,0,1.542-2.286c-.013-1.13-.725-1.939-1.59-1.806a2.2,2.2,0,0,0-1.542,2.286" transform="translate(-307.046 -44.687)" fill="#8b3785"/>
        <path id="Trazado_40487" data-name="Trazado 40487" d="M453.459,21.88c-5.008-.927-9.387,1.246-12.683,4.7h.965c4.736-3.818,11.505-4.124,15.283,1.025,6.163,8.613,1.7,24.46-8.005,28.616-4.749,1.968-9.244.716-11.927-3.145l-1.332-.81A12.864,12.864,0,0,0,443,59.3c9.649,3.278,18.57-5.536,20.863-14.347,2.59-8.735-.459-20.859-10.405-23.072" transform="translate(-287.665 -14.302)" fill="#8b3785"/>
        <path id="Trazado_40488" data-name="Trazado 40488" d="M478.23,45.09a1.623,1.623,0,0,0-2.543.6l-3.3,7.691a1.117,1.117,0,1,0,2.06.863l3.882-9.064Z" transform="translate(-311.789 -29.511)" fill="#8b3785"/>
        <path id="Trazado_40489" data-name="Trazado 40489" d="M478.948,80.873a1.623,1.623,0,0,0,.41-2.58l-5.871-5.963a1.117,1.117,0,0,0-1.579,1.58l6.921,7.023Z" transform="translate(-311.312 -47.533)" fill="#8b3785"/>
        <path id="Trazado_40490" data-name="Trazado 40490" d="M469.262,69.411c.015,1.308.839,2.244,1.84,2.091a2.545,2.545,0,0,0,1.785-2.646c-.015-1.308-.839-2.244-1.84-2.091a2.545,2.545,0,0,0-1.785,2.646" transform="translate(-309.781 -44.064)" fill="#8b3785"/>
        <path id="Trazado_40491" data-name="Trazado 40491" d="M295.825,149.577h.887v6.161h3.845v.857h-4.732Z" transform="translate(-195.288 -98.743)" fill="#fff"/>
        <path id="Trazado_40492" data-name="Trazado 40492" d="M321.378,159.011a2.372,2.372,0,0,1-2.366,2.366,2.361,2.361,0,1,1,0-4.722,2.355,2.355,0,0,1,2.366,2.356m-.848,0a1.518,1.518,0,1,0-1.518,1.518,1.51,1.51,0,0,0,1.518-1.518" transform="translate(-209.033 -103.416)" fill="#fff"/>
        <path id="Trazado_40493" data-name="Trazado 40493" d="M342.461,156.754v4.732a2.372,2.372,0,0,1-2.366,2.366,2.48,2.48,0,0,1-1.271-.345,2.7,2.7,0,0,1-.424-.326l.641-.562a1.959,1.959,0,0,0,1.055.4,1.536,1.536,0,0,0,1.518-1.538v-.739a2.429,2.429,0,0,1-1.518.621,2.356,2.356,0,1,1,0-4.712,2.429,2.429,0,0,1,1.518.621v-.523Zm-.848,2.258a1.518,1.518,0,1,0-1.518,1.528,1.527,1.527,0,0,0,1.518-1.528" transform="translate(-222.95 -103.416)" fill="#fff"/>
        <path id="Trazado_40494" data-name="Trazado 40494" d="M360.986,153.556h.848v4.515h-.848Zm.779-1.745h.671l-.819,1.055h-.354Z" transform="translate(-238.303 -100.218)" fill="#fff"/>
        <path id="Trazado_40495" data-name="Trazado 40495" d="M375.33,160a1.207,1.207,0,0,1-.217.71,1.443,1.443,0,0,1-.6.493,1.978,1.978,0,0,1-.809.168,2.466,2.466,0,0,1-.463-.049,2.974,2.974,0,0,1-1.351-.65l.532-.582a1.927,1.927,0,0,0,1.242.532,1.3,1.3,0,0,0,.522-.108.564.564,0,0,0,.355-.513c0-.306-.266-.493-.877-.6a5.274,5.274,0,0,1-1.055-.306,1.166,1.166,0,0,1-.631-1.055,1.244,1.244,0,0,1,.217-.69,1.36,1.36,0,0,1,.562-.434,1.839,1.839,0,0,1,.779-.168c.108,0,.227.01.335.019a2.6,2.6,0,0,1,1.213.542l-.493.572a1.666,1.666,0,0,0-1.016-.394,1.081,1.081,0,0,0-.483.1.54.54,0,0,0-.325.453c0,.3.237.453.838.581a6.2,6.2,0,0,1,1.045.306,1.238,1.238,0,0,1,.473.385,1.187,1.187,0,0,1,.207.69" transform="translate(-245.502 -103.473)" fill="#fff"/>
        <path id="Trazado_40496" data-name="Trazado 40496" d="M389.351,156.572v-2.208h-.671v-.809h.671v-1.745h.848v1.745h1.39v.809H390.2v2.188a.72.72,0,0,0,.671.71h.759l.217.809h-1a1.492,1.492,0,0,1-1.5-1.5" transform="translate(-256.585 -100.218)" fill="#fff"/>
        <path id="Trazado_40497" data-name="Trazado 40497" d="M405.559,152.072a.557.557,0,0,1,1.114,0,.557.557,0,1,1-1.114,0m.138,1.291h.848v4.515H405.7Z" transform="translate(-267.728 -100.026)" fill="#fff"/>
        <path id="Trazado_40498" data-name="Trazado 40498" d="M421.118,160.4a3.48,3.48,0,0,1-.247.286,2.393,2.393,0,0,1-3.342,0,2.381,2.381,0,0,1,0-3.352,2.393,2.393,0,0,1,3.342,0,2.064,2.064,0,0,1,.237.276l-.68.5a1.52,1.52,0,1,0-1.222,2.425,1.508,1.508,0,0,0,1.222-.641Z" transform="translate(-275.175 -103.417)" fill="#fff"/>
        <path id="Trazado_40499" data-name="Trazado 40499" d="M440.356,156.754h.848v4.515h-.848v-.523a2.429,2.429,0,0,1-1.518.621,2.356,2.356,0,1,1,0-4.712,2.429,2.429,0,0,1,1.518.621Zm0,2.258a1.518,1.518,0,1,0-1.518,1.528,1.527,1.527,0,0,0,1.518-1.528" transform="translate(-288.134 -103.416)" fill="#fff"/>
      </g>
    </g>
    <rect id="Rect치ngulo_3188" data-name="Rect치ngulo 3188" width="182" height="61" transform="translate(-0.054 -0.257)" fill="none"/>
  </g>
</svg>
