<svg xmlns="http://www.w3.org/2000/svg" width="31.999" height="32.001" viewBox="0 0 31.999 32.001">
  <g id="Grupo_20748" data-name="Grupo 20748" transform="translate(20158 24466)">
    <path id="Exclusión_4" data-name="Exclusión 4" d="M29,32H3a3,3,0,0,1-3-3V3A3,3,0,0,1,3,0H29a3,3,0,0,1,3,3V29A3,3,0,0,1,29,32ZM15.919,6c-1.667,0-3.175.024-4.035.063a5.894,5.894,0,0,0-4.2,1.617C6.137,9.231,6.008,11.212,6,13.64v.38q0,.389,0,.8c0,.382.005.774.005,1.178,0,.372,0,.732,0,1.08-.018,3.327-.03,5.523,1.681,7.236C9.253,25.877,11.3,26,13.811,26c.331,0,.667,0,1.024-.005.38,0,.768-.006,1.168-.006h.078c3.822,0,5.11,0,6.468-.526,1.459-.567,3.231-1.954,3.388-5.349.038-.818.061-2.221.063-3.85V15.85c0-1.642-.025-3.127-.063-3.974-.171-3.636-2.181-5.646-5.813-5.813C19.3,6.024,17.872,6,16.221,6Zm1.747,18.191H14.9c-3.343,0-4.868-.047-5.98-1.162-1.208-1.2-1.189-2.987-1.159-5.687,0-.434.01-.882.01-1.357,0-.4,0-.795-.007-1.175a13.326,13.326,0,0,1,.482-4.9c.557-1.318,1.724-1.978,3.673-2.078h.019c1.054-.037,1.371-.049,4.027-.049l.038.024h.025c.373,0,.739,0,1.093-.007s.689-.006,1.021-.006a9.137,9.137,0,0,1,4.2.642c1.144.609,1.715,1.729,1.8,3.527.048,1.067.059,1.385.059,4.039q0,.36,0,.7c0,3.661,0,5.176-1.162,6.349C21.99,24.087,20.664,24.191,17.666,24.191ZM16,10.865A5.132,5.132,0,1,0,21.136,16,5.138,5.138,0,0,0,16,10.865Zm5.335-1.4a1.2,1.2,0,1,0,1.2,1.2A1.2,1.2,0,0,0,21.339,9.464ZM16,19.328a3.33,3.33,0,1,1,2.356-.976A3.335,3.335,0,0,1,16,19.328Z" transform="translate(-20158 -24466)" fill="#fff"/>
  </g>
</svg>
