<svg xmlns="http://www.w3.org/2000/svg" width="32.175" height="32.175" viewBox="0 0 32.175 32.175">
  <path id="linkedin_1_" data-name="linkedin (1)" d="M29.855,0H2.32A2.32,2.32,0,0,0,0,2.32V29.855a2.32,2.32,0,0,0,2.32,2.32H29.855a2.32,2.32,0,0,0,2.32-2.32V2.32A2.32,2.32,0,0,0,29.855,0ZM11.413,24.32H7.495V12.532h3.918Zm-1.959-13.4H9.428A2.042,2.042,0,1,1,9.48,6.85a2.043,2.043,0,1,1-.026,4.073ZM25.54,24.32H21.623V18.014c0-1.585-.567-2.666-1.985-2.666a2.145,2.145,0,0,0-2.01,1.433,2.683,2.683,0,0,0-.129.956V24.32H13.581s.051-10.682,0-11.788H17.5V14.2a3.89,3.89,0,0,1,3.531-1.946c2.578,0,4.511,1.685,4.511,5.305Zm0,0" fill="#fff"/>
</svg>
