<svg xmlns="http://www.w3.org/2000/svg" width="31.999" height="32.002" viewBox="0 0 31.999 32.002">
  <path id="Sustracción_7" data-name="Sustracción 7" d="M29,32H3a3,3,0,0,1-3-3V3A3,3,0,0,1,3,0H29a3,3,0,0,1,3,3V29A3,3,0,0,1,29,32ZM10.438,14.416a.6.6,0,0,0-.591.592v.016l.013,3.192a.6.6,0,0,0,.591.6h2.5V28.3a.417.417,0,0,0,.417.417h3.376a.429.429,0,0,0,.416-.431l.017-9.465h3.332a.6.6,0,0,0,.587-.536l.369-3.19a.54.54,0,0,0,0-.068v-.018a.6.6,0,0,0-.592-.593H17.154V11.749c0-1.221.344-2.035,2.021-2.035h1.566a.6.6,0,0,0,.593-.608V6.418a.6.6,0,0,0-.593-.608H18.188A5.165,5.165,0,0,0,14.4,7.23a5.7,5.7,0,0,0-1.451,4.1v3.082Z" transform="translate(-0.002 0.002)" fill="#fff"/>
</svg>
