<svg xmlns="http://www.w3.org/2000/svg" xmlns:xlink="http://www.w3.org/1999/xlink" width="300" height="100" viewBox="0 0 300 100">
  <defs>
    <clipPath id="clip-path">
      <rect id="Rect치ngulo_3186" data-name="Rect치ngulo 3186" width="288.43" height="95.089" fill="none"/>
    </clipPath>
  </defs>
  <g id="Grupo_20778" data-name="Grupo 20778" transform="translate(-1290 -593)">
    <g id="Grupo_20774" data-name="Grupo 20774" transform="translate(1296 595)">
      <g id="Grupo_20773" data-name="Grupo 20773" transform="translate(0)" clip-path="url(#clip-path)">
        <path id="Trazado_40500" data-name="Trazado 40500" d="M243.616,48.434a15.932,15.932,0,1,0,16.029,15.932,15.98,15.98,0,0,0-16.029-15.932m0,25.723a9.8,9.8,0,1,1,9.4-9.792,9.6,9.6,0,0,1-9.4,9.792" transform="translate(-100.442 -21.375)" fill="#fff"/>
        <path id="Trazado_40501" data-name="Trazado 40501" d="M166.923,74.65l-4.463-4.473a9.273,9.273,0,0,1-7.567,3.981,9.8,9.8,0,0,1,0-19.584,9.257,9.257,0,0,1,7.42,3.781l4.508-4.629a15.932,15.932,0,1,0,.275,20.963l-.173-.039" transform="translate(-61.285 -21.375)" fill="#fff"/>
        <path id="Trazado_40502" data-name="Trazado 40502" d="M211.031,49.241V43.209h-8.144V34.936h-7.024v8.273h-3.706v6.032h3.706V66.778s-.043,4.4,3.361,5.946,8.273,1.853,11.806-.216V67.036s-3.1,1.336-5.343.776-2.8-2.2-2.8-5.127V49.241Z" transform="translate(-84.806 -15.418)" fill="#fff"/>
        <path id="Trazado_40503" data-name="Trazado 40503" d="M308.376,48.433a13.408,13.408,0,0,0-10.739,5.678v-5.1H290.85V88.7h6.787V74.619A13.407,13.407,0,0,0,308.376,80.3c7.752,0,14.036-7.133,14.036-15.932s-6.284-15.932-14.036-15.932m-1.917,25.724c-4.873,0-8.823-4.384-8.823-9.792s3.95-9.792,8.823-9.792,8.822,4.384,8.822,9.792-3.949,9.792-8.822,9.792" transform="translate(-128.362 -21.375)" fill="#fff"/>
        <path id="Trazado_40504" data-name="Trazado 40504" d="M373.464,75.6a11.082,11.082,0,0,1-9.5,5.321A10.793,10.793,0,0,1,353.17,70.129V49.9h6.762V67.953a6.809,6.809,0,0,0,13.619,0V49.9h6.981V80.276h-7.067Z" transform="translate(-155.866 -22.022)" fill="#fff"/>
        <path id="Trazado_40505" data-name="Trazado 40505" d="M431.29,69.08c-.517-1.81-1.551-4.848-9.727-7.3a31.36,31.36,0,0,1-4.686-1.907,2.915,2.915,0,0,1-1.6-3.067c.584-2.175,3.308-2.506,3.308-2.506a15.213,15.213,0,0,1,9.473,2.923l2.682-5.041a25.886,25.886,0,0,0-11.666-3.167c-6.27,0-10.148,5.008-10.083,8.467s.679,7.562,8.144,9.372,8.854,3.781,7.756,5.946-3.264,2.035-5.2,2.035-5.3-.873-9.275-3.587l-3.005,4.589s4.621,4.686,14.575,4.4,9.824-9.339,9.307-11.149" transform="translate(-179.804 -21.631)" fill="#fff"/>
        <path id="Trazado_40506" data-name="Trazado 40506" d="M83.188,64.223a33.206,33.206,0,0,1-34.259-6.148,25.679,25.679,0,0,0,7.408-3.546,26.041,26.041,0,0,0,8.108-9.1,25.385,25.385,0,0,0,2.178-5.51,25.868,25.868,0,1,0-50.866-6.664,25.819,25.819,0,0,0,3.053,12.178A26,26,0,0,0,26.8,54.444a25.63,25.63,0,0,0,7.346,3.578A33.225,33.225,0,0,1,0,64.294l5.872-5.888a26.038,26.038,0,0,0,6.093.723,25.609,25.609,0,0,0,7.486-1.108,33.269,33.269,0,1,1,44.29.054,25.889,25.889,0,0,0,13.595.28Z" fill="#fff"/>
        <path id="Trazado_40507" data-name="Trazado 40507" d="M494.163,73.348a4.758,4.758,0,0,0-3.056-1.686.785.785,0,0,1-.728-.756,35.775,35.775,0,0,1-1.405,10.649c-2.493,9.578-9.839,19.149-19.126,22.772.108.173.227.394.379.678a5.226,5.226,0,0,0,7.582,2.062,42.865,42.865,0,0,0,3.625-2.582,7.953,7.953,0,0,0,3.293-6.124,7.648,7.648,0,0,0-.944-4.2,1.064,1.064,0,0,1,.084-1.284,29.788,29.788,0,0,0,1.8-2.788.721.721,0,0,1,.9-.434,6.3,6.3,0,0,0,1.663.317c2.668-.037,4.695-1.618,5.889-4.606l1.4-5.753c-.067-.26.086-.493.117-.741a6.133,6.133,0,0,0-1.471-5.527" transform="translate(-207.36 -31.293)" fill="#da0011"/>
        <path id="Trazado_40508" data-name="Trazado 40508" d="M467.668,18.451a20.756,20.756,0,0,1,7.287,3.154,7.805,7.805,0,0,0-.049-4.266,5.029,5.029,0,0,0-3.293-3.7l-4.827-1.179c-.229.1-.417-.06-.627-.077-1.874-.309-3.41.642-4.748,2.2a7.36,7.36,0,0,0-1.682,3.648,1.984,1.984,0,0,1-.09.353,19.9,19.9,0,0,1,8.029-.142" transform="translate(-202.854 -5.442)" fill="#da0011"/>
        <path id="Trazado_40509" data-name="Trazado 40509" d="M501.687,48.991a8.048,8.048,0,0,0,2.422-9.034,34.1,34.1,0,0,0-2.355-4.77,5.08,5.08,0,0,0-6.642-2.2,6.84,6.84,0,0,0-1.364.791,29.514,29.514,0,0,1,6.913,16.269c.11-.339.406-.571,1.026-1.055" transform="translate(-217.908 -14.347)" fill="#da0011"/>
        <path id="Trazado_40510" data-name="Trazado 40510" d="M439.428,129.16a20.068,20.068,0,0,1-5.16-2.876,7.357,7.357,0,0,0-.168,3.949c.468,2,1.394,3.553,3.2,4.141.193.083.432.027.587.22l4.828,1.179c2.194.336,3.96-.711,5.414-2.737a7.625,7.625,0,0,0,1.265-3,20.6,20.6,0,0,1-9.967-.873" transform="translate(-191.498 -55.733)" fill="#da0011"/>
        <path id="Trazado_40511" data-name="Trazado 40511" d="M506.141,65.378a18.308,18.308,0,0,1,.174,2.183,1.77,1.77,0,0,0,.031.254,37.272,37.272,0,0,0-.266-3.913,3.652,3.652,0,0,0,.061,1.477" transform="translate(-223.327 -28.202)" fill="#da0011"/>
        <path id="Trazado_40512" data-name="Trazado 40512" d="M487.32,30.741a19.827,19.827,0,0,1,1.958,1.644.7.7,0,0,0,1.089.011c.083-.069.169-.132.255-.2a21.293,21.293,0,0,0-3.74-3.266c-.013.048-.022.1-.035.145-.3,1.079-.279,1.1.473,1.662" transform="translate(-214.783 -12.77)" fill="#da0011"/>
        <path id="Trazado_40513" data-name="Trazado 40513" d="M464.459,130.064a12.97,12.97,0,0,1-1.891.38.958.958,0,0,0-.889.934c-.013.075-.035.146-.049.221a22.259,22.259,0,0,0,4.591-1.266c-.4-.647-.641-.585-1.761-.269" transform="translate(-203.733 -57.299)" fill="#da0011"/>
        <path id="Trazado_40514" data-name="Trazado 40514" d="M431.483,122.1a14.393,14.393,0,0,1-2.055-1.718.7.7,0,0,0-.948-.135,20.249,20.249,0,0,0,3.392,3.317c.007-.021.012-.042.019-.064a1.053,1.053,0,0,0-.408-1.4" transform="translate(-189.103 -53.01)" fill="#da0011"/>
        <path id="Trazado_40515" data-name="Trazado 40515" d="M453.769,24.648a7.078,7.078,0,0,1,1.947-.407.973.973,0,0,0,.918-.7,20.92,20.92,0,0,0-3.8,1.246,1.645,1.645,0,0,0,.939-.139" transform="translate(-199.849 -10.389)" fill="#da0011"/>
        <path id="Trazado_40516" data-name="Trazado 40516" d="M468.237,60.269a35.777,35.777,0,0,0,1.405-10.649,1.839,1.839,0,0,1-.031-.253,18.293,18.293,0,0,0-.174-2.183,3.674,3.674,0,0,1-.061-1.477,29.506,29.506,0,0,0-6.913-16.269c-.086.064-.172.127-.255.2a.7.7,0,0,1-1.089-.012,19.834,19.834,0,0,0-1.958-1.644c-.751-.563-.774-.583-.473-1.663.013-.048.023-.1.035-.145a20.739,20.739,0,0,0-7.286-3.154,19.9,19.9,0,0,0-8.029.142.973.973,0,0,1-.918.7,7.083,7.083,0,0,0-1.947.407,1.644,1.644,0,0,1-.939.139,26.943,26.943,0,0,0-8.643,6.2h1.557c7.646-6.164,18.576-6.659,24.675,1.655,9.95,13.906,2.751,39.492-12.925,46.2-7.668,3.178-14.925,1.156-19.256-5.078l-2.151-1.307A23.479,23.479,0,0,0,426,77.241a.694.694,0,0,1,.948.135A14.365,14.365,0,0,0,429,79.094a1.054,1.054,0,0,1,.408,1.4c-.007.021-.012.042-.019.064a20.07,20.07,0,0,0,5.16,2.876,20.6,20.6,0,0,0,9.967.872c.015-.074.037-.145.05-.22a.958.958,0,0,1,.888-.934,12.94,12.94,0,0,0,1.891-.38c1.121-.317,1.358-.379,1.762.269,9.287-3.623,16.633-13.193,19.126-22.772" transform="translate(-186.623 -10.008)" fill="#da0011"/>
        <path id="Trazado_40517" data-name="Trazado 40517" d="M455.217,57.942c5.146-.2,8.282,5.74,7.549,10.344a10.431,10.431,0,0,1-6,8.462,6.606,6.606,0,0,1-3.4.469,12.049,12.049,0,0,0,6.077-9.334c.442-3.848-.7-7.636-4.222-9.941" transform="translate(-200.084 -25.569)" fill="#da0011"/>
        <path id="Trazado_40518" data-name="Trazado 40518" d="M125.693,153.921a7.4,7.4,0,0,1-3.325-1.694l.925-1.051a5.992,5.992,0,0,0,2.683,1.4,3.441,3.441,0,0,0,2.164-.173,1.773,1.773,0,0,0,1.113-1.615c0-1.177-1.254-1.6-2.478-1.835a11.6,11.6,0,0,1-2.572-.785,2.758,2.758,0,0,1-1.443-2.447,2.862,2.862,0,0,1,.518-1.615,3.5,3.5,0,0,1,1.317-1.051,4.434,4.434,0,0,1,2.651-.33,6.4,6.4,0,0,1,2.964,1.411l-.894,1.083a3.952,3.952,0,0,0-4.125-.925,1.612,1.612,0,0,0-1.02,1.411c0,1.067.91,1.475,2.353,1.788a10.433,10.433,0,0,1,2.573.768,2.784,2.784,0,0,1,1.552,2.526,3.016,3.016,0,0,1-.532,1.756,3.663,3.663,0,0,1-1.4,1.113,4.075,4.075,0,0,1-1.9.393,5.509,5.509,0,0,1-1.129-.126" transform="translate(-54.005 -62.957)" fill="#fff"/>
        <path id="Trazado_40519" data-name="Trazado 40519" d="M151.163,153.876h-5.537v.032a2.281,2.281,0,0,0,2.087,2.1,2.714,2.714,0,0,0,1.756-.753l1.13.674a4.253,4.253,0,0,1-.957.8,4.1,4.1,0,0,1-1.9.534,3.216,3.216,0,0,1-2.431-1.1,3.706,3.706,0,0,1-.973-2.259,2.326,2.326,0,0,1-.016-.33,3.938,3.938,0,0,1,.094-.847,3.784,3.784,0,0,1,.894-1.741,3.289,3.289,0,0,1,4.878,0,3.637,3.637,0,0,1,.894,1.741,4.3,4.3,0,0,1,.078,1.145m-1.411-1.129-.016-.032a2.174,2.174,0,0,0-1.992-1.553,2.206,2.206,0,0,0-1.992,1.553l-.015.032Z" transform="translate(-63.695 -66.159)" fill="#fff"/>
        <path id="Trazado_40520" data-name="Trazado 40520" d="M165.666,150.606a4.379,4.379,0,0,1,2.62-.894l-.329,1.349a2.229,2.229,0,0,0-2.291,2.164v3.827h-1.349v-7.183h1.349Z" transform="translate(-72.519 -66.073)" fill="#fff"/>
        <path id="Trazado_40521" data-name="Trazado 40521" d="M184.61,149.992l-2.917,7.184h-1.459l-2.917-7.184h1.459l2.2,5.4,2.181-5.4Z" transform="translate(-78.256 -66.196)" fill="#fff"/>
        <path id="Trazado_40522" data-name="Trazado 40522" d="M197.841,145.62a.886.886,0,0,1,1.773,0,.886.886,0,1,1-1.773,0m.22,2.055h1.349v7.184h-1.349Z" transform="translate(-87.314 -63.879)" fill="#fff"/>
        <path id="Trazado_40523" data-name="Trazado 40523" d="M215.6,155.672a5.462,5.462,0,0,1-.392.455,3.806,3.806,0,0,1-5.317,0,3.785,3.785,0,0,1,0-5.332,3.806,3.806,0,0,1,5.317,0,3.3,3.3,0,0,1,.377.439l-1.083.8a2.418,2.418,0,1,0-1.945,3.859,2.4,2.4,0,0,0,1.945-1.02Z" transform="translate(-92.147 -66.073)" fill="#fff"/>
        <path id="Trazado_40524" data-name="Trazado 40524" d="M228.755,145.62a.886.886,0,0,1,1.773,0,.886.886,0,1,1-1.773,0m.22,2.055h1.349v7.184h-1.349Z" transform="translate(-100.957 -63.879)" fill="#fff"/>
        <path id="Trazado_40525" data-name="Trazado 40525" d="M247.262,153.461a3.775,3.775,0,0,1-3.764,3.764,3.757,3.757,0,1,1,0-7.513,3.749,3.749,0,0,1,3.764,3.749m-1.349,0a2.415,2.415,0,1,0-2.415,2.416,2.4,2.4,0,0,0,2.415-2.416" transform="translate(-105.802 -66.073)" fill="#fff"/>
        <path id="Trazado_40526" data-name="Trazado 40526" d="M265.564,154.973a1.921,1.921,0,0,1-.345,1.129,2.3,2.3,0,0,1-.957.784,3.153,3.153,0,0,1-1.287.266,3.884,3.884,0,0,1-.737-.078,4.741,4.741,0,0,1-2.149-1.035l.847-.925a3.066,3.066,0,0,0,1.977.847,2.076,2.076,0,0,0,.831-.173.9.9,0,0,0,.565-.816c0-.486-.423-.784-1.4-.957a8.415,8.415,0,0,1-1.679-.486,1.856,1.856,0,0,1-1-1.678,1.979,1.979,0,0,1,.345-1.1,2.164,2.164,0,0,1,.894-.69,2.925,2.925,0,0,1,1.24-.267c.172,0,.36.016.533.032a4.142,4.142,0,0,1,1.93.862l-.784.911a2.651,2.651,0,0,0-1.616-.627,1.723,1.723,0,0,0-.769.156.859.859,0,0,0-.518.722c0,.47.377.721,1.334.925a9.8,9.8,0,0,1,1.663.486,1.973,1.973,0,0,1,.753.612,1.888,1.888,0,0,1,.33,1.1" transform="translate(-114.787 -66.11)" fill="#fff"/>
        <path id="Trazado_40527" data-name="Trazado 40527" d="M295.147,153.876H289.61v.032a2.281,2.281,0,0,0,2.087,2.1,2.714,2.714,0,0,0,1.756-.753l1.13.674a4.254,4.254,0,0,1-.957.8,4.1,4.1,0,0,1-1.9.534,3.217,3.217,0,0,1-2.431-1.1,3.706,3.706,0,0,1-.973-2.259,2.328,2.328,0,0,1-.016-.33,3.871,3.871,0,0,1,.094-.847,3.777,3.777,0,0,1,.894-1.741,3.282,3.282,0,0,1,2.431-1.082,3.316,3.316,0,0,1,2.448,1.082,3.646,3.646,0,0,1,.894,1.741,4.274,4.274,0,0,1,.078,1.145m-1.412-1.129-.015-.032a2.175,2.175,0,0,0-1.993-1.553,2.205,2.205,0,0,0-1.992,1.553l-.016.032Z" transform="translate(-127.24 -66.159)" fill="#fff"/>
        <path id="Trazado_40528" data-name="Trazado 40528" d="M314.867,153.207v3.858h-1.349v-3.858a2.118,2.118,0,1,0-4.235,0v3.858h-1.349v-7.184h1.349v.69a3.572,3.572,0,0,1,2.117-.831,3.447,3.447,0,0,1,2.462,1,3.488,3.488,0,0,1,1,2.463" transform="translate(-135.902 -66.085)" fill="#fff"/>
        <path id="Trazado_40529" data-name="Trazado 40529" d="M345.909,155.672a5.358,5.358,0,0,1-.392.455,3.71,3.71,0,0,1-2.651,1.083,3.748,3.748,0,0,1-2.667-1.083,3.787,3.787,0,0,1,0-5.332,3.748,3.748,0,0,1,2.667-1.083,3.71,3.71,0,0,1,2.651,1.083,3.224,3.224,0,0,1,.377.439l-1.083.8a2.418,2.418,0,1,0-1.945,3.859,2.4,2.4,0,0,0,1.945-1.02Z" transform="translate(-149.657 -66.073)" fill="#fff"/>
        <path id="Trazado_40530" data-name="Trazado 40530" d="M364.317,149.868h1.349v7.184h-1.349v-.832a3.86,3.86,0,0,1-2.415.989,3.749,3.749,0,1,1,0-7.5,3.86,3.86,0,0,1,2.415.988Zm0,3.592a2.415,2.415,0,1,0-2.415,2.431,2.43,2.43,0,0,0,2.415-2.431" transform="translate(-158.058 -66.073)" fill="#fff"/>
        <path id="Trazado_40531" data-name="Trazado 40531" d="M391.785,153.207v3.858h-1.349v-3.858a2.125,2.125,0,1,0-4.25,0v3.858h-1.349v-3.858a2.118,2.118,0,1,0-4.235,0v3.858h-1.349v-7.184H380.6v.69a3.573,3.573,0,0,1,2.117-.831,3.512,3.512,0,0,1,2.463,1.066,2.611,2.611,0,0,1,.33.392,4.038,4.038,0,0,1,.345-.392,3.51,3.51,0,0,1,2.463-1.066,3.454,3.454,0,0,1,3.466,3.467" transform="translate(-167.377 -66.085)" fill="#fff"/>
        <path id="Trazado_40532" data-name="Trazado 40532" d="M416.853,153.461a3.749,3.749,0,0,1-3.764,3.749,3.86,3.86,0,0,1-2.415-.989v4.941h-1.35V149.868h1.35v.832a3.86,3.86,0,0,1,2.415-.988,3.749,3.749,0,0,1,3.764,3.749m-1.349,0a2.415,2.415,0,1,0-2.416,2.431,2.43,2.43,0,0,0,2.416-2.431" transform="translate(-180.649 -66.073)" fill="#fff"/>
        <path id="Trazado_40533" data-name="Trazado 40533" d="M437.21,153.461a3.776,3.776,0,0,1-3.764,3.764,3.757,3.757,0,1,1,0-7.513,3.75,3.75,0,0,1,3.764,3.749m-1.349,0a2.415,2.415,0,1,0-2.415,2.416,2.4,2.4,0,0,0,2.415-2.416" transform="translate(-189.633 -66.073)" fill="#fff"/>
      </g>
    </g>
    <rect id="Rect치ngulo_3187" data-name="Rect치ngulo 3187" width="300" height="100" transform="translate(1290 593)" fill="none"/>
  </g>
</svg>
