<svg id="Grupo_4721" data-name="Grupo 4721" xmlns="http://www.w3.org/2000/svg" width="384.207" height="131.13" viewBox="0 0 384.207 131.13">
  <g id="Grupo_4702" data-name="Grupo 4702" transform="translate(0 0)">
    <path id="Trazado_35020" data-name="Trazado 35020" d="M971.834,618.025a21.72,21.72,0,1,0,21.851,21.719,21.785,21.785,0,0,0-21.851-21.719m0,35.068a13.359,13.359,0,1,1,12.82-13.349,13.093,13.093,0,0,1-12.82,13.349" transform="translate(-776.652 -581.138)" fill="#fff"/>
    <path id="Trazado_35021" data-name="Trazado 35021" d="M896.6,653.765l-6.084-6.1a12.645,12.645,0,0,1-10.317,5.426,13.359,13.359,0,0,1,0-26.7,12.623,12.623,0,0,1,10.116,5.154l6.145-6.31a21.72,21.72,0,1,0,.375,28.578l-.236-.053" transform="translate(-752.587 -581.138)" fill="#fff"/>
    <path id="Trazado_35022" data-name="Trazado 35022" d="M939.119,623.587v-8.223h-11.1V604.085h-9.574v11.278h-5.052v8.223h5.052v23.907s-.059,5.991,4.581,8.106,11.278,2.526,16.095-.294v-7.46s-4.229,1.821-7.284,1.057-3.818-3-3.818-6.99V623.587Z" transform="translate(-767.042 -577.478)" fill="#fff"/>
    <path id="Trazado_35023" data-name="Trazado 35023" d="M1039.215,618.026a18.276,18.276,0,0,0-14.64,7.74v-6.948h-9.252v54.1h9.252v-19.2a18.276,18.276,0,0,0,14.64,7.74c10.568,0,19.135-9.724,19.135-21.719s-8.567-21.718-19.135-21.718m-2.613,35.067c-6.642,0-12.027-5.977-12.027-13.349s5.385-13.348,12.027-13.348,12.027,5.977,12.027,13.348-5.384,13.349-12.027,13.349" transform="translate(-793.811 -581.139)" fill="#fff"/>
    <path id="Trazado_35024" data-name="Trazado 35024" d="M1107.355,654.578a15.107,15.107,0,0,1-12.952,7.254,14.714,14.714,0,0,1-14.714-14.715V619.539h9.218v24.613a9.283,9.283,0,0,0,18.565,0V619.539h9.516v41.412h-9.633Z" transform="translate(-810.714 -581.536)" fill="#fff"/>
    <path id="Trazado_35025" data-name="Trazado 35025" d="M1168.266,645.981c-.7-2.467-2.115-6.609-13.261-9.956a42.764,42.764,0,0,1-6.388-2.6,3.975,3.975,0,0,1-2.181-4.182c.8-2.966,4.51-3.416,4.51-3.416,3.373-.3,8.351.808,12.914,3.985l3.656-6.872a35.286,35.286,0,0,0-15.9-4.317c-8.547,0-13.833,6.828-13.746,11.542s.926,10.309,11.1,12.776,12.071,5.154,10.573,8.106-4.45,2.775-7.093,2.775-7.225-1.189-12.644-4.89l-4.1,6.256s6.3,6.387,19.869,5.991,13.393-12.732,12.688-15.2" transform="translate(-825.425 -581.296)" fill="#fff"/>
    <path id="Trazado_35026" data-name="Trazado 35026" d="M828.329,655.555a45.267,45.267,0,0,1-46.7-8.381,35.021,35.021,0,0,0,10.1-4.834,35.5,35.5,0,0,0,11.053-12.4,34.544,34.544,0,0,0,2.969-7.512,35.273,35.273,0,1,0-65.182,7.517,35.447,35.447,0,0,0,10.888,12.278,34.926,34.926,0,0,0,10.014,4.877,45.292,45.292,0,0,1-46.543,8.551l8-8.027a35.484,35.484,0,0,0,8.307.987,34.9,34.9,0,0,0,10.2-1.511,45.355,45.355,0,1,1,60.379.074,35.286,35.286,0,0,0,18.533.382Z" transform="translate(-714.923 -568.002)" fill="#fff"/>
  </g>
  <ellipse id="Elipse_417" data-name="Elipse 417" cx="4.501" cy="3.358" rx="4.501" ry="3.358" transform="matrix(0.174, -0.985, 0.985, 0.174, 342.283, 58.235)" fill="#8b3785"/>
  <path id="Trazado_35027" data-name="Trazado 35027" d="M1189.084,590.132c-10.865-2.011-20.367,2.7-27.518,10.2h2.094c10.276-8.283,24.963-8.949,33.16,2.224,13.372,18.688,3.7,53.072-17.369,62.089-10.305,4.27-20.058,1.553-25.878-6.825l-2.891-1.756a27.911,27.911,0,0,0,15.712,15.256c20.936,7.112,40.291-12.012,45.267-31.13,5.619-18.952-1-45.259-22.577-50.061" transform="translate(-829.357 -573.692)" fill="#8b3785"/>
  <path id="Trazado_35028" data-name="Trazado 35028" d="M1200.087,613.545a3.522,3.522,0,0,0-5.518,1.295l-7.154,16.687a2.423,2.423,0,0,0,1.3,3.172h0a2.423,2.423,0,0,0,3.172-1.3l8.422-19.667Z" transform="translate(-838.954 -579.741)" fill="#8b3785"/>
  <path id="Trazado_35029" data-name="Trazado 35029" d="M1202.488,659.251a3.522,3.522,0,0,0,.89-5.6l-12.738-12.937a2.423,2.423,0,0,0-3.427,0h0a2.423,2.423,0,0,0,0,3.427l15.017,15.24Z" transform="translate(-838.764 -586.911)" fill="#8b3785"/>
  <ellipse id="Elipse_418" data-name="Elipse 418" cx="5.209" cy="3.886" rx="5.209" ry="3.886" transform="matrix(0.174, -0.985, 0.985, 0.174, 345.23, 58.848)" fill="#8b3785"/>
  <g id="Grupo_4703" data-name="Grupo 4703" transform="translate(191.799 105.482)">
    <path id="Trazado_35030" data-name="Trazado 35030" d="M1010.747,717.579h2.369v16.458h10.27v2.291h-12.639Z" transform="translate(-1010.747 -717.579)" fill="#fff"/>
    <path id="Trazado_35031" data-name="Trazado 35031" d="M1044.208,730.951a6.337,6.337,0,0,1-6.32,6.32,6.307,6.307,0,1,1,0-12.614,6.292,6.292,0,0,1,6.32,6.294Zm-2.265,0a4.055,4.055,0,1,0-4.055,4.055A4.034,4.034,0,0,0,1041.943,730.951Z" transform="translate(-1012.667 -718.232)" fill="#fff"/>
    <path id="Trazado_35032" data-name="Trazado 35032" d="M1065.29,724.921V737.56a6.336,6.336,0,0,1-6.32,6.32,6.625,6.625,0,0,1-3.4-.92,7.253,7.253,0,0,1-1.133-.87l1.712-1.5a5.231,5.231,0,0,0,2.817,1.08,4.1,4.1,0,0,0,4.056-4.109v-1.974a6.485,6.485,0,0,1-4.056,1.659,6.294,6.294,0,1,1,0-12.588,6.486,6.486,0,0,1,4.056,1.659v-1.4Zm-2.264,6.03a4.055,4.055,0,1,0-4.056,4.081A4.079,4.079,0,0,0,1063.026,730.951Z" transform="translate(-1014.611 -718.232)" fill="#fff"/>
    <path id="Trazado_35033" data-name="Trazado 35033" d="M1075.908,724.475h2.265v12.06h-2.265Zm2.081-4.661h1.791l-2.186,2.817h-.948Z" transform="translate(-1016.755 -717.785)" fill="#fff"/>
    <path id="Trazado_35034" data-name="Trazado 35034" d="M1096,733.434a3.23,3.23,0,0,1-.579,1.9,3.851,3.851,0,0,1-1.607,1.316,5.276,5.276,0,0,1-2.159.448,6.6,6.6,0,0,1-1.237-.133,7.935,7.935,0,0,1-3.607-1.738l1.422-1.554a5.144,5.144,0,0,0,3.318,1.422,3.464,3.464,0,0,0,1.4-.29,1.5,1.5,0,0,0,.948-1.369c0-.817-.711-1.317-2.343-1.607a14.077,14.077,0,0,1-2.818-.816,3.117,3.117,0,0,1-1.686-2.818,3.32,3.32,0,0,1,.58-1.843,3.615,3.615,0,0,1,1.5-1.158,4.9,4.9,0,0,1,2.081-.448c.29,0,.606.027.9.053a6.943,6.943,0,0,1,3.239,1.449l-1.316,1.527a4.459,4.459,0,0,0-2.713-1.053,2.9,2.9,0,0,0-1.289.263,1.442,1.442,0,0,0-.869,1.211c0,.79.632,1.211,2.237,1.554a16.526,16.526,0,0,1,2.792.816,3.3,3.3,0,0,1,1.264,1.027A3.174,3.174,0,0,1,1096,733.434Z" transform="translate(-1017.761 -718.24)" fill="#fff"/>
    <path id="Trazado_35035" data-name="Trazado 35035" d="M1105.393,732.531v-5.9h-1.79v-2.159h1.79v-4.661h2.264v4.661h3.713v2.159h-3.713v5.846a1.924,1.924,0,0,0,1.791,1.9h2.027l.58,2.16h-2.66A3.985,3.985,0,0,1,1105.393,732.531Z" transform="translate(-1019.309 -717.785)" fill="#fff"/>
    <path id="Trazado_35036" data-name="Trazado 35036" d="M1120.481,721a1.488,1.488,0,0,1,2.976,0,1.488,1.488,0,1,1-2.976,0Zm.369,3.45h2.264v12.06h-2.264Z" transform="translate(-1020.865 -717.758)" fill="#fff"/>
    <path id="Trazado_35037" data-name="Trazado 35037" d="M1143.191,734.664a9.5,9.5,0,0,1-.659.764,6.391,6.391,0,0,1-8.927,0,6.361,6.361,0,0,1,0-8.954,6.391,6.391,0,0,1,8.927,0,5.588,5.588,0,0,1,.632.738l-1.818,1.343a4.059,4.059,0,1,0-3.264,6.478,4.023,4.023,0,0,0,3.264-1.712Z" transform="translate(-1021.905 -718.232)" fill="#fff"/>
    <path id="Trazado_35038" data-name="Trazado 35038" d="M1161.769,724.921h2.264v12.06h-2.264v-1.4a6.486,6.486,0,0,1-4.056,1.659,6.294,6.294,0,1,1,0-12.588,6.487,6.487,0,0,1,4.056,1.659Zm0,6.03a4.055,4.055,0,1,0-4.056,4.081A4.08,4.08,0,0,0,1161.769,730.951Z" transform="translate(-1023.715 -718.232)" fill="#fff"/>
  </g>
</svg>
