<svg id="grupo_mvs" xmlns="http://www.w3.org/2000/svg" xmlns:xlink="http://www.w3.org/1999/xlink" width="272.487" height="61.53" viewBox="0 0 272.487 61.53">
  <defs>
    <clipPath id="clip-path">
      <path id="Trazado_34897" data-name="Trazado 34897" d="M537.8,84.4h10.591l3.393,14.213h.092L555.314,84.4H565.86v24.163h-7.015v-15.5H558.8l-4.218,15.5h-5.5l-4.172-15.5h-.092v15.5H537.8Z" transform="translate(-537.8 -84.4)" fill="#41464f"/>
    </clipPath>
    <clipPath id="clip-path-2">
      <path id="Trazado_34899" data-name="Trazado 34899" d="M616.451,108.563h-8.3L601,84.4h7.473l3.943,14.672h.092L616.359,84.4h7.611Z" transform="translate(-601 -84.4)" fill="#41464f"/>
    </clipPath>
    <clipPath id="clip-path-3">
      <path id="Trazado_34901" data-name="Trazado 34901" d="M649.463,91.231c0,4.86,4.356,5.915,8.161,7.015,4.126,1.192,5.181,1.513,5.181,2.8,0,1.788-1.834,2.2-3.072,2.2-1.376,0-2.98-.321-3.531-1.742a4.194,4.194,0,0,1-.275-1.6H648.5c.046,7.7,7.84,8.711,10.591,8.711,5.364,0,11.141-2.017,11.141-8.345,0-4.447-3.393-6.006-6.786-6.969s-6.831-1.33-6.969-3.026c0-1.376,1.651-1.6,2.659-1.6a4.072,4.072,0,0,1,2.2.6,1.859,1.859,0,0,1,.871,1.926h7.015c-.183-5.869-4.814-7.886-10.041-7.886-4.952-.046-9.72,2.338-9.72,7.932" transform="translate(-648.5 -83.299)" fill="#41464f"/>
    </clipPath>
    <linearGradient id="linear-gradient" x1="0.5" y1="1" x2="0.5" gradientUnits="objectBoundingBox">
      <stop offset="0.006" stop-color="#b4ca1d"/>
      <stop offset="0.192" stop-color="#fcbc00"/>
      <stop offset="0.396" stop-color="#ec733e"/>
      <stop offset="0.6" stop-color="#e30250"/>
      <stop offset="0.797" stop-color="#803772"/>
      <stop offset="1" stop-color="#00489a"/>
    </linearGradient>
  </defs>
  <g id="Grupo_4666" data-name="Grupo 4666" transform="translate(199.999 34.845)">
    <path id="Trazado_34896" data-name="Trazado 34896" d="M537.8,84.4h10.591l3.393,14.213h.092L555.314,84.4H565.86v24.163h-7.015v-15.5H558.8l-4.218,15.5h-5.5l-4.172-15.5h-.092v15.5H537.8Z" transform="translate(-537.8 -84.4)" fill="#41464f"/>
    <g id="Grupo_4665" data-name="Grupo 4665" transform="translate(0 0)" clip-path="url(#clip-path)">
      <rect id="Rectángulo_2711" data-name="Rectángulo 2711" width="28.06" height="24.163" fill="#41464f"/>
    </g>
  </g>
  <g id="Grupo_4668" data-name="Grupo 4668" transform="translate(228.977 34.845)">
    <path id="Trazado_34898" data-name="Trazado 34898" d="M616.451,108.563h-8.3L601,84.4h7.473l3.943,14.672h.092L616.359,84.4h7.611Z" transform="translate(-601 -84.4)" fill="#41464f"/>
    <g id="Grupo_4667" data-name="Grupo 4667" transform="translate(0 0)" clip-path="url(#clip-path-2)">
      <rect id="Rectángulo_2712" data-name="Rectángulo 2712" width="22.97" height="24.163" fill="#41464f"/>
    </g>
  </g>
  <g id="Grupo_4670" data-name="Grupo 4670" transform="translate(250.755 34.34)">
    <path id="Trazado_34900" data-name="Trazado 34900" d="M649.463,91.231c0,4.86,4.356,5.915,8.161,7.015,4.126,1.192,5.181,1.513,5.181,2.8,0,1.788-1.834,2.2-3.072,2.2-1.376,0-2.98-.321-3.531-1.742a4.194,4.194,0,0,1-.275-1.6H648.5c.046,7.7,7.84,8.711,10.591,8.711,5.364,0,11.141-2.017,11.141-8.345,0-4.447-3.393-6.006-6.786-6.969s-6.831-1.33-6.969-3.026c0-1.376,1.651-1.6,2.659-1.6a4.072,4.072,0,0,1,2.2.6,1.859,1.859,0,0,1,.871,1.926h7.015c-.183-5.869-4.814-7.886-10.041-7.886-4.952-.046-9.72,2.338-9.72,7.932" transform="translate(-648.5 -83.299)" fill="#41464f"/>
    <g id="Grupo_4669" data-name="Grupo 4669" transform="translate(0 0)" clip-path="url(#clip-path-3)">
      <rect id="Rectángulo_2713" data-name="Rectángulo 2713" width="21.687" height="25.309" transform="translate(0.046 -0.045)" fill="#41464f"/>
    </g>
  </g>
  <g id="Grupo_4671" data-name="Grupo 4671" transform="translate(199.588 13.892)">
    <path id="Trazado_34902" data-name="Trazado 34902" d="M544.97,51.721a4.371,4.371,0,0,1-1.834.367,6.807,6.807,0,0,1-2.613-.5,5.577,5.577,0,0,1-1.971-1.421,5.708,5.708,0,0,1-1.238-2.109,8.009,8.009,0,0,1-.413-2.613,8.29,8.29,0,0,1,.413-2.659,6.3,6.3,0,0,1,1.238-2.155,5.577,5.577,0,0,1,1.971-1.421,6.048,6.048,0,0,1,2.613-.5,6.98,6.98,0,0,1,1.926.275,5.7,5.7,0,0,1,1.651.871,4.624,4.624,0,0,1,1.238,1.421,5,5,0,0,1,.6,1.926h-2.659a2.816,2.816,0,0,0-.963-1.6,2.731,2.731,0,0,0-1.742-.55,3.455,3.455,0,0,0-1.6.367,2.672,2.672,0,0,0-1.055.963,4.423,4.423,0,0,0-.6,1.421,6.144,6.144,0,0,0-.184,1.6,5.8,5.8,0,0,0,.184,1.559,4.63,4.63,0,0,0,.6,1.375,3.021,3.021,0,0,0,1.055.963,3.455,3.455,0,0,0,1.6.367,3.119,3.119,0,0,0,2.155-.688,3.077,3.077,0,0,0,.871-2.063h-2.843V44.8h5.364v6.877h-1.788l-.275-1.467A3.664,3.664,0,0,1,544.97,51.721Z" transform="translate(-536.9 -38.7)" fill="#40444d"/>
    <path id="Trazado_34903" data-name="Trazado 34903" d="M569.03,46.875v1.7h.046a2.842,2.842,0,0,1,.5-.779,3.087,3.087,0,0,1,.688-.642,3.47,3.47,0,0,1,.825-.413,2.955,2.955,0,0,1,.917-.138,2.3,2.3,0,0,1,.55.092v2.384a1.269,1.269,0,0,0-.413-.046c-.183,0-.321-.046-.5-.046a3.066,3.066,0,0,0-1.192.229,1.792,1.792,0,0,0-.779.642,3.31,3.31,0,0,0-.413.917,4.617,4.617,0,0,0-.138,1.146v4.172H566.6V46.875Z" transform="translate(-552.983 -42.978)" fill="#40444d"/>
    <path id="Trazado_34904" data-name="Trazado 34904" d="M587.69,56.416V55.132h-.046a2.7,2.7,0,0,1-1.238,1.146,3.87,3.87,0,0,1-1.559.367,4.123,4.123,0,0,1-1.651-.275,2.153,2.153,0,0,1-1.009-.779,4.1,4.1,0,0,1-.55-1.192,8.215,8.215,0,0,1-.138-1.559V47.2h2.522v5.227a3.211,3.211,0,0,0,.367,1.7,1.377,1.377,0,0,0,1.284.55,1.786,1.786,0,0,0,1.513-.6,3.364,3.364,0,0,0,.459-2.017V47.2h2.522v9.262H587.69Z" transform="translate(-561.051 -43.303)" fill="#40444d"/>
    <path id="Trazado_34905" data-name="Trazado 34905" d="M606.43,46.929v1.192h.046a2.746,2.746,0,0,1,1.192-1.1,3.519,3.519,0,0,1,1.559-.321,3.928,3.928,0,0,1,1.88.413,3.732,3.732,0,0,1,1.284,1.1,4.528,4.528,0,0,1,.78,1.559,6.408,6.408,0,0,1,.229,1.88,7.338,7.338,0,0,1-.229,1.788,4.311,4.311,0,0,1-.78,1.513,3.611,3.611,0,0,1-1.284,1.055,3.679,3.679,0,0,1-1.788.413,3.546,3.546,0,0,1-1.559-.367,3.192,3.192,0,0,1-1.192-1.009h-.046V59.4H604V46.929Zm3.3,7.336a2.3,2.3,0,0,0,.688-.642,3.205,3.205,0,0,0,.367-.917,4.463,4.463,0,0,0,.092-1.1,4.52,4.52,0,0,0-.138-1.1,3.009,3.009,0,0,0-.367-.963,2.455,2.455,0,0,0-.688-.688,1.848,1.848,0,0,0-1.009-.275,1.9,1.9,0,0,0-1.055.275,2.459,2.459,0,0,0-.688.688,3.007,3.007,0,0,0-.367.963,4.466,4.466,0,0,0-.092,1.1,4.535,4.535,0,0,0,.137,1.1,2.4,2.4,0,0,0,.367.917,2.3,2.3,0,0,0,.688.642,1.894,1.894,0,0,0,1.055.229A2.186,2.186,0,0,0,609.731,54.265Z" transform="translate(-573.235 -43.032)" fill="#40444d"/>
    <path id="Trazado_34906" data-name="Trazado 34906" d="M627.221,49.489a4.947,4.947,0,0,1,.963-1.559,4.28,4.28,0,0,1,1.513-.963,5.481,5.481,0,0,1,3.943,0,4.281,4.281,0,0,1,1.513.963,4.1,4.1,0,0,1,.963,1.559,6.5,6.5,0,0,1,0,4.035A4.134,4.134,0,0,1,633.64,56a6.215,6.215,0,0,1-3.943,0,4.134,4.134,0,0,1-2.476-2.476,6.5,6.5,0,0,1,0-4.035Zm2.339,3.072a3.007,3.007,0,0,0,.367.963,2.458,2.458,0,0,0,.688.688,1.894,1.894,0,0,0,1.055.229,2.77,2.77,0,0,0,1.1-.229,2.455,2.455,0,0,0,.688-.688,3.007,3.007,0,0,0,.367-.963,4.463,4.463,0,0,0,.092-1.1,8.882,8.882,0,0,0-.092-1.1,3.011,3.011,0,0,0-.367-.963,2.455,2.455,0,0,0-.688-.688,1.955,1.955,0,0,0-1.1-.275,1.9,1.9,0,0,0-1.055.275,2.459,2.459,0,0,0-.688.688,3.007,3.007,0,0,0-.367.963,4.463,4.463,0,0,0-.092,1.1A2.824,2.824,0,0,0,629.559,52.56Z" transform="translate(-585.636 -42.978)" fill="#40444d"/>
  </g>
  <text id="UNA_EMPRESA_DE" data-name="UNA EMPRESA DE" transform="translate(0 34.349)" fill="#444851" font-size="17" font-family="Helvetica"><tspan x="0" y="0">UNA EMPRESA DE</tspan></text>
  <path id="Trazado_34943" data-name="Trazado 34943" d="M10.972,61.53H0L36,0H47.244Z" transform="translate(157.143)" fill="url(#linear-gradient)"/>
</svg>
