<svg xmlns="http://www.w3.org/2000/svg" xmlns:xlink="http://www.w3.org/1999/xlink" width="294.101" height="60.816" viewBox="0 0 294.101 60.816">
  <defs>
    <clipPath id="clip-path">
      <path id="Trazado_34897" data-name="Trazado 34897" d="M537.8,84.4h10.468l3.354,14.048h.091l3.4-14.048h10.423v23.882H558.6V92.965h-.045l-4.169,15.317h-5.438l-4.124-15.317h-.091v15.317H537.8Z" transform="translate(-537.8 -84.4)"/>
    </clipPath>
    <clipPath id="clip-path-2">
      <path id="Trazado_34899" data-name="Trazado 34899" d="M616.272,108.282h-8.2L601,84.4h7.387l3.9,14.5h.091l3.807-14.5H623.7Z" transform="translate(-601 -84.4)"/>
    </clipPath>
    <clipPath id="clip-path-3">
      <path id="Trazado_34901" data-name="Trazado 34901" d="M649.452,91.139c0,4.8,4.305,5.846,8.067,6.934,4.079,1.178,5.121,1.5,5.121,2.764,0,1.767-1.813,2.175-3.036,2.175-1.359,0-2.946-.317-3.489-1.722a4.143,4.143,0,0,1-.272-1.586H648.5c.045,7.613,7.749,8.61,10.468,8.61,5.3,0,11.012-1.994,11.012-8.248,0-4.4-3.353-5.937-6.707-6.888s-6.752-1.314-6.888-2.991c0-1.36,1.631-1.586,2.628-1.586a4.025,4.025,0,0,1,2.175.589,1.838,1.838,0,0,1,.861,1.9h6.934c-.181-5.8-4.758-7.795-9.924-7.795-4.894-.045-9.607,2.311-9.607,7.84" transform="translate(-648.5 -83.299)"/>
    </clipPath>
    <linearGradient id="linear-gradient" x1="0.5" y1="1" x2="0.5" gradientUnits="objectBoundingBox">
      <stop offset="0.006" stop-color="#b4ca1d"/>
      <stop offset="0.192" stop-color="#fcbc00"/>
      <stop offset="0.396" stop-color="#ec733e"/>
      <stop offset="0.6" stop-color="#e30250"/>
      <stop offset="0.797" stop-color="#803772"/>
      <stop offset="1" stop-color="#00489a"/>
    </linearGradient>
  </defs>
  <g id="grupo_mvs" transform="translate(-9233 -4395)">
    <g id="Grupo_4666" data-name="Grupo 4666" transform="translate(9455.455 4429.441)">
      <path id="Trazado_34896" data-name="Trazado 34896" d="M537.8,84.4h10.468l3.354,14.048h.091l3.4-14.048h10.423v23.882H558.6V92.965h-.045l-4.169,15.317h-5.438l-4.124-15.317h-.091v15.317H537.8Z" transform="translate(-537.8 -84.4)" fill="#fff"/>
      <g id="Grupo_4665" data-name="Grupo 4665" transform="translate(0 0)" clip-path="url(#clip-path)">
        <rect id="Rectángulo_2711" data-name="Rectángulo 2711" width="27.734" height="23.882" fill="#fff"/>
      </g>
    </g>
    <g id="Grupo_4668" data-name="Grupo 4668" transform="translate(9484.096 4429.441)">
      <path id="Trazado_34898" data-name="Trazado 34898" d="M616.272,108.282h-8.2L601,84.4h7.387l3.9,14.5h.091l3.807-14.5H623.7Z" transform="translate(-601 -84.4)" fill="#fff"/>
      <g id="Grupo_4667" data-name="Grupo 4667" transform="translate(0 0)" clip-path="url(#clip-path-2)">
        <rect id="Rectángulo_2712" data-name="Rectángulo 2712" width="22.704" height="23.882" fill="#fff"/>
      </g>
    </g>
    <g id="Grupo_4670" data-name="Grupo 4670" transform="translate(9505.621 4428.942)">
      <path id="Trazado_34900" data-name="Trazado 34900" d="M649.452,91.139c0,4.8,4.305,5.846,8.067,6.934,4.079,1.178,5.121,1.5,5.121,2.764,0,1.767-1.813,2.175-3.036,2.175-1.359,0-2.946-.317-3.489-1.722a4.143,4.143,0,0,1-.272-1.586H648.5c.045,7.613,7.749,8.61,10.468,8.61,5.3,0,11.012-1.994,11.012-8.248,0-4.4-3.353-5.937-6.707-6.888s-6.752-1.314-6.888-2.991c0-1.36,1.631-1.586,2.628-1.586a4.025,4.025,0,0,1,2.175.589,1.838,1.838,0,0,1,.861,1.9h6.934c-.181-5.8-4.758-7.795-9.924-7.795-4.894-.045-9.607,2.311-9.607,7.84" transform="translate(-648.5 -83.299)" fill="#fff"/>
      <g id="Grupo_4669" data-name="Grupo 4669" transform="translate(0 0)" clip-path="url(#clip-path-3)">
        <rect id="Rectángulo_2713" data-name="Rectángulo 2713" width="21.435" height="25.015" transform="translate(0.045 -0.045)" fill="#fff"/>
      </g>
    </g>
    <g id="Grupo_4671" data-name="Grupo 4671" transform="translate(9455.049 4408.731)">
      <path id="Trazado_34902" data-name="Trazado 34902" d="M544.876,51.57a4.32,4.32,0,0,1-1.813.363,6.728,6.728,0,0,1-2.583-.5,5.514,5.514,0,0,1-1.949-1.4,5.643,5.643,0,0,1-1.224-2.085,7.915,7.915,0,0,1-.408-2.583,8.194,8.194,0,0,1,.408-2.628,6.228,6.228,0,0,1,1.224-2.13,5.514,5.514,0,0,1,1.949-1.4,5.978,5.978,0,0,1,2.583-.5,6.9,6.9,0,0,1,1.9.272,5.637,5.637,0,0,1,1.631.861,4.572,4.572,0,0,1,1.224,1.4,4.948,4.948,0,0,1,.589,1.9h-2.628a2.784,2.784,0,0,0-.952-1.586,2.7,2.7,0,0,0-1.722-.544,3.415,3.415,0,0,0-1.586.363,2.641,2.641,0,0,0-1.042.952,4.374,4.374,0,0,0-.589,1.4,6.074,6.074,0,0,0-.181,1.586,5.734,5.734,0,0,0,.181,1.541,4.579,4.579,0,0,0,.589,1.36,2.987,2.987,0,0,0,1.042.952,3.415,3.415,0,0,0,1.586.363,3.083,3.083,0,0,0,2.13-.68,3.041,3.041,0,0,0,.861-2.039h-2.81V44.727h5.3v6.8h-1.767l-.272-1.45A3.621,3.621,0,0,1,544.876,51.57Z" transform="translate(-536.9 -38.7)" fill="#fff"/>
      <path id="Trazado_34903" data-name="Trazado 34903" d="M569,46.872v1.677h.045a2.807,2.807,0,0,1,.5-.77,3.048,3.048,0,0,1,.68-.634,3.428,3.428,0,0,1,.816-.408,2.922,2.922,0,0,1,.906-.136,2.274,2.274,0,0,1,.544.091v2.357a1.254,1.254,0,0,0-.408-.045c-.181,0-.317-.045-.5-.045a3.03,3.03,0,0,0-1.178.227,1.77,1.77,0,0,0-.77.634,3.271,3.271,0,0,0-.408.906,4.565,4.565,0,0,0-.136,1.133v4.124H566.6V46.872Z" transform="translate(-553.141 -43.02)" fill="#fff"/>
      <path id="Trazado_34904" data-name="Trazado 34904" d="M587.618,56.309V55.04h-.045a2.667,2.667,0,0,1-1.224,1.133,3.825,3.825,0,0,1-1.541.363,4.074,4.074,0,0,1-1.631-.272,2.128,2.128,0,0,1-1-.77,4.049,4.049,0,0,1-.544-1.178,8.123,8.123,0,0,1-.136-1.541V47.2h2.492v5.166a3.175,3.175,0,0,0,.362,1.677,1.361,1.361,0,0,0,1.269.544,1.765,1.765,0,0,0,1.5-.589A3.325,3.325,0,0,0,587.573,52V47.2h2.492v9.154h-2.447Z" transform="translate(-561.289 -43.348)" fill="#fff"/>
      <path id="Trazado_34905" data-name="Trazado 34905" d="M606.4,46.927V48.1h.045a2.714,2.714,0,0,1,1.178-1.088,3.478,3.478,0,0,1,1.541-.317,3.883,3.883,0,0,1,1.858.408,3.69,3.69,0,0,1,1.269,1.088,4.477,4.477,0,0,1,.77,1.541,6.332,6.332,0,0,1,.227,1.858,7.252,7.252,0,0,1-.227,1.767,4.262,4.262,0,0,1-.77,1.5,3.57,3.57,0,0,1-1.269,1.042,3.637,3.637,0,0,1-1.767.408,3.506,3.506,0,0,1-1.541-.363,3.156,3.156,0,0,1-1.178-1h-.045v4.305H604V46.927Zm3.263,7.251a2.274,2.274,0,0,0,.68-.634,3.164,3.164,0,0,0,.362-.906,4.41,4.41,0,0,0,.091-1.088,4.469,4.469,0,0,0-.136-1.088,2.975,2.975,0,0,0-.363-.952,2.428,2.428,0,0,0-.68-.68,1.827,1.827,0,0,0-1-.272,1.878,1.878,0,0,0-1.042.272,2.43,2.43,0,0,0-.68.68,2.972,2.972,0,0,0-.362.952,4.415,4.415,0,0,0-.091,1.088,4.472,4.472,0,0,0,.136,1.088,2.374,2.374,0,0,0,.363.906,2.272,2.272,0,0,0,.68.634,1.872,1.872,0,0,0,1.042.227A2.161,2.161,0,0,0,609.665,54.177Z" transform="translate(-573.592 -43.075)" fill="#fff"/>
      <path id="Trazado_34906" data-name="Trazado 34906" d="M627.217,49.455a4.888,4.888,0,0,1,.952-1.541,4.23,4.23,0,0,1,1.5-.952,5.418,5.418,0,0,1,3.9,0,4.23,4.23,0,0,1,1.5.952,4.046,4.046,0,0,1,.952,1.541,6.427,6.427,0,0,1,0,3.988,4.085,4.085,0,0,1-2.447,2.447,6.143,6.143,0,0,1-3.9,0,4.086,4.086,0,0,1-2.447-2.447,6.425,6.425,0,0,1,0-3.988Zm2.311,3.036a2.976,2.976,0,0,0,.362.952,2.427,2.427,0,0,0,.68.68,1.871,1.871,0,0,0,1.042.227,2.738,2.738,0,0,0,1.088-.227,2.425,2.425,0,0,0,.68-.68,2.972,2.972,0,0,0,.363-.952,4.413,4.413,0,0,0,.091-1.088,8.794,8.794,0,0,0-.091-1.088,2.975,2.975,0,0,0-.363-.952,2.425,2.425,0,0,0-.68-.68,1.933,1.933,0,0,0-1.088-.272,1.877,1.877,0,0,0-1.042.272,2.427,2.427,0,0,0-.68.68,2.973,2.973,0,0,0-.362.952,4.41,4.41,0,0,0-.091,1.088A2.792,2.792,0,0,0,629.529,52.491Z" transform="translate(-586.114 -43.02)" fill="#fff"/>
    </g>
    <text id="UNA_EMPRESA_DE" data-name="UNA EMPRESA DE" transform="translate(9233 4430.609)" fill="#fff" font-size="19" font-family="Helvetica"><tspan x="0" y="0">UNA EMPRESA DE</tspan></text>
    <path id="Trazado_34943" data-name="Trazado 34943" d="M10.845,60.816H0L35.58,0H46.7Z" transform="translate(9413.097 4395)" fill="url(#linear-gradient)"/>
  </g>
</svg>
