<svg xmlns="http://www.w3.org/2000/svg" width="279.174" height="74.681" viewBox="0 0 279.174 74.681">
  <g id="Grupo_6" data-name="Grupo 6" transform="translate(420 445)">
    <g id="Grupo_5" data-name="Grupo 5" transform="translate(-333.945 -423.351)">
      <path id="Trazado_198" data-name="Trazado 198" d="M71.782,11.492A17.673,17.673,0,1,0,89.563,29.166,17.728,17.728,0,0,0,71.782,11.492Zm0,28.533A10.652,10.652,0,0,1,61.35,29.166a10.44,10.44,0,1,1,20.863,0A10.652,10.652,0,0,1,71.782,40.025Z" transform="translate(0.982 -3.127)" fill="#fff"/>
      <path id="Trazado_199" data-name="Trazado 199" d="M64.076,40.574l-4.952-4.962a10.288,10.288,0,0,1-8.394,4.414A10.652,10.652,0,0,1,40.3,29.166,10.653,10.653,0,0,1,50.73,18.3,10.273,10.273,0,0,1,58.962,22.5l5-5.135a17.673,17.673,0,1,0,.306,23.252Z" transform="translate(-32.949 -3.127)" fill="#fff"/>
      <path id="Trazado_200" data-name="Trazado 200" d="M66.531,24.158V17.467H57.5V8.289H49.706v9.178H45.595v6.691h4.111V43.61s-.047,4.876,3.727,6.6,9.178,2.055,13.1-.24V43.9s-3.442,1.483-5.929.862S57.5,42.32,57.5,39.071V24.158Z" transform="translate(-12.567 -8.289)" fill="#fff"/>
      <g id="Grupo_4" data-name="Grupo 4" transform="translate(94.19 8.365)">
        <path id="Trazado_201" data-name="Trazado 201" d="M88.452,11.492a14.877,14.877,0,0,0-11.912,6.3V12.137H69.013V56.158H76.54V40.54a14.874,14.874,0,0,0,11.912,6.3c8.6,0,15.571-7.911,15.571-17.671S97.053,11.492,88.452,11.492ZM86.326,40.025c-5.4,0-9.786-4.863-9.786-10.86S80.923,18.3,86.326,18.3s9.786,4.863,9.786,10.862S91.73,40.025,86.326,40.025Z" transform="translate(-69.013 -11.492)" fill="#fff"/>
      </g>
      <path id="Trazado_202" data-name="Trazado 202" d="M106.312,40.35a12.289,12.289,0,0,1-10.538,5.9A11.973,11.973,0,0,1,83.8,34.28V11.84h7.5V31.867a7.555,7.555,0,0,0,15.109,0V11.84h7.741v33.7h-7.838Z" transform="translate(49.009 -2.566)" fill="#fff"/>
      <path id="Trazado_203" data-name="Trazado 203" d="M123.16,33.892c-.572-2.008-1.719-5.378-10.789-8.1a34.937,34.937,0,0,1-5.2-2.116,3.239,3.239,0,0,1-1.776-3.4c.65-2.413,3.67-2.779,3.67-2.779h0a16.874,16.874,0,0,1,10.507,3.244l2.975-5.594a28.713,28.713,0,0,0-12.941-3.513c-6.955,0-11.257,5.558-11.184,9.392s.752,8.389,9.034,10.4,9.82,4.194,8.6,6.595-3.622,2.259-5.772,2.259S104.413,39.3,100,36.292l-3.335,5.09s5.127,5.2,16.167,4.876S123.735,35.9,123.16,33.892Z" transform="translate(69.752 -2.906)" fill="#fff"/>
    </g>
    <path id="Trazado_204" data-name="Trazado 204" d="M92.279,71.241a36.855,36.855,0,0,1-38-6.819,28.523,28.523,0,0,0,8.219-3.933A28.91,28.91,0,0,0,71.486,50.4,28.133,28.133,0,0,0,73.9,44.288,28.731,28.731,0,0,0,54.275,9.366a28.633,28.633,0,0,0-24.55,4.027A28.661,28.661,0,0,0,18.449,44.288,28.155,28.155,0,0,0,20.865,50.4a28.809,28.809,0,0,0,8.859,9.99,28.349,28.349,0,0,0,8.149,3.97A36.867,36.867,0,0,1,0,71.319l6.514-6.532a28.864,28.864,0,0,0,6.759.8,28.409,28.409,0,0,0,8.3-1.23,36.91,36.91,0,1,1,49.13.06,28.7,28.7,0,0,0,15.08.311Z" transform="translate(-420 -445)" fill="#fff"/>
  </g>
</svg>
