<svg id="Grupo_4064" data-name="Grupo 4064" xmlns="http://www.w3.org/2000/svg" width="363.688" height="123.436" viewBox="0 0 363.688 123.436">
  <path id="Trazado_219" data-name="Trazado 219" d="M833.888,50.023a21.246,21.246,0,1,0,21.374,21.245,21.31,21.31,0,0,0-21.374-21.245m0,34.3a13.068,13.068,0,1,1,12.541-13.058,12.807,12.807,0,0,1-12.541,13.058" transform="translate(-642.965 -13.942)" fill="#fff"/>
  <path id="Trazado_220" data-name="Trazado 220" d="M758.294,84.983l-5.951-5.965a12.369,12.369,0,0,1-10.091,5.308,13.068,13.068,0,0,1,0-26.115,12.348,12.348,0,0,1,9.9,5.042l6.011-6.172a21.246,21.246,0,1,0,.366,27.954l-.231-.052" transform="translate(-617.426 -13.942)" fill="#fff"/>
  <path id="Trazado_221" data-name="Trazado 221" d="M801.089,55.159V47.115h-10.86V36.083h-9.365V47.115h-4.941v8.044h4.941V78.545s-.057,5.861,4.482,7.929,11.032,2.471,15.744-.287v-7.3s-4.137,1.782-7.125,1.034-3.735-2.93-3.735-6.837V55.159Z" transform="translate(-632.767 -10.057)" fill="#fff"/>
  <path id="Trazado_222" data-name="Trazado 222" d="M901.226,50.023A17.878,17.878,0,0,0,886.905,57.6V50.8h-9.05v52.919h9.05V84.942a17.877,17.877,0,0,0,14.321,7.571c10.337,0,18.717-9.512,18.717-21.245s-8.38-21.245-18.717-21.245m-2.557,34.3c-6.5,0-11.764-5.846-11.764-13.058s5.267-13.057,11.764-13.057,11.765,5.846,11.765,13.057-5.267,13.058-11.765,13.058" transform="translate(-661.176 -13.942)" fill="#fff"/>
  <path id="Trazado_223" data-name="Trazado 223" d="M969.282,85.81a14.777,14.777,0,0,1-12.67,7.1A14.393,14.393,0,0,1,942.22,78.513V51.536h9.017V75.612a9.08,9.08,0,0,0,18.16,0V51.536h9.309V92.044h-9.423Z" transform="translate(-679.114 -14.363)" fill="#fff"/>
  <path id="Trazado_224" data-name="Trazado 224" d="M1030.086,77.382c-.69-2.413-2.069-6.464-12.971-9.739a41.824,41.824,0,0,1-6.248-2.543,3.888,3.888,0,0,1-2.133-4.09c.779-2.9,4.411-3.341,4.411-3.341,3.3-.3,8.169.791,12.632,3.9l3.576-6.723a34.516,34.516,0,0,0-15.556-4.223c-8.36,0-13.532,6.679-13.446,11.291s.906,10.084,10.86,12.5,11.808,5.042,10.343,7.929-4.353,2.715-6.938,2.715-7.068-1.164-12.368-4.784l-4.008,6.12s6.162,6.249,19.436,5.861,13.1-12.454,12.411-14.867" transform="translate(-694.727 -14.108)" fill="#fff"/>
  <path id="Trazado_225" data-name="Trazado 225" d="M688.385,85.642a44.285,44.285,0,0,1-45.684-8.2,34.26,34.26,0,0,0,9.878-4.729,34.725,34.725,0,0,0,10.812-12.129,33.8,33.8,0,0,0,2.9-7.348,34.5,34.5,0,1,0-63.759,7.353A34.672,34.672,0,0,0,613.187,72.6a34.165,34.165,0,0,0,9.8,4.771,44.3,44.3,0,0,1-45.528,8.364l7.83-7.851a34.712,34.712,0,0,0,8.125.965,34.139,34.139,0,0,0,9.982-1.478,44.365,44.365,0,1,1,59.061.072,34.517,34.517,0,0,0,18.129.374Z" transform="translate(-577.454 0)" fill="#fff"/>
  <text id="_" data-name=" " transform="translate(236.25 104.045)" fill="#454b8d" font-size="1" font-family="Helvetica"><tspan x="0" y="0"> </tspan></text>
  <path id="Trazado_258" data-name="Trazado 258" d="M1034.09,27.05c-10.628-1.967-19.923,2.645-26.917,9.981h2.047c10.051-8.1,24.418-8.754,32.436,2.175,6.187,8.647,7.325,20.727,4.63,31.993a51.5,51.5,0,0,1-1.638,5.47c-2.969-.711-5.845-.6-7.222,2.045-2.251,4.329-6.186,12.848-8.068,17.1a8.881,8.881,0,0,0-.781,3.961c-5.581.061-11.161-.058-16.739-.284.285-1.619-.08-3.339-1.032-3.777-1.112-.512-6.354-2.267-10.716-1.707a4.5,4.5,0,0,0-1.744.416,4.062,4.062,0,0,0-1.46,3.666,3.8,3.8,0,0,0,1.2,2.8,3.742,3.742,0,0,0,1.577.492c3.968.615,2.153.186,6.122.8.29.045,3.295.487,3.584.436a2.772,2.772,0,0,0,1.923-1.514,136.848,136.848,0,0,0,18.247,1.778,8.03,8.03,0,0,0,3.823,3.05c4.182,1.782,10.645,4.307,13.217.025a86.629,86.629,0,0,0,6.246-13.114c1.581-3.845,3.5-8.443,1.564-11.448a44.106,44.106,0,0,0,1.787-5.37A44.115,44.115,0,0,0,1057.3,71.2c3.173-17.9-3.874-39.848-23.208-44.15" transform="translate(-694.342 -7.412)" fill="#e64a1b"/>
  <g id="Grupo_52" data-name="Grupo 52" transform="translate(124.208 103.436)">
    <text id="Contact_Center" data-name="Contact Center" transform="translate(0 15)" fill="#e64a1b" font-size="20" font-family="Helvetica" letter-spacing="0.179em"><tspan x="0" y="0">Contact Center</tspan></text>
  </g>
</svg>
