<svg xmlns="http://www.w3.org/2000/svg" width="40" height="28" viewBox="0 0 40 28">
  <g id="Grupo_4634" data-name="Grupo 4634" transform="translate(-1678 -31)">
    <g id="_010-phone_call" data-name="010-phone call" transform="translate(1681.001 34)">
      <g id="Grupo_4599" data-name="Grupo 4599" transform="translate(13.766)">
        <g id="Grupo_4598" data-name="Grupo 4598">
          <path id="Trazado_34822" data-name="Trazado 34822" d="M322.641,0a.641.641,0,1,0,0,1.283,6.2,6.2,0,0,1,6.2,6.2.641.641,0,0,0,.641.641h0a.641.641,0,0,0,.641-.641A7.482,7.482,0,0,0,322.641,0Z" transform="translate(-322)" fill="#fff"/>
          <path id="Trazado_34823" data-name="Trazado 34823" d="M322.641,60a.641.641,0,1,0,0,1.283,3.634,3.634,0,0,1,3.634,3.634.641.641,0,0,0,.641.641h0a.641.641,0,0,0,.641-.641A4.917,4.917,0,0,0,322.641,60Z" transform="translate(-322 -57.435)" fill="#fff"/>
          <path id="Trazado_34824" data-name="Trazado 34824" d="M322.641,120a.641.641,0,1,0,0,1.283,1.069,1.069,0,0,1,1.069,1.069.641.641,0,1,0,1.283,0A2.352,2.352,0,0,0,322.641,120Z" transform="translate(-322 -114.869)" fill="#fff"/>
        </g>
      </g>
      <g id="Grupo_4600" data-name="Grupo 4600" transform="translate(-0.001 0.086)">
        <path id="Trazado_34825" data-name="Trazado 34825" d="M74.476,8.465l.453-.453a1.926,1.926,0,0,0,0-2.721L72.208,2.569a1.926,1.926,0,0,0-2.721,0l-.453.454Z" transform="translate(-66.082 -2.007)" fill="#fff"/>
        <path id="Trazado_34826" data-name="Trazado 34826" d="M364.389,298.379l.453-.453a1.926,1.926,0,0,0,0-2.721l-2.721-2.721a1.926,1.926,0,0,0-2.721,0l-.453.453Z" transform="translate(-343.6 -279.526)" fill="#fff"/>
        <path id="Trazado_34827" data-name="Trazado 34827" d="M14.439,59.382l-.533.533a.635.635,0,0,1-.77.106,18.224,18.224,0,0,1-6.289-6.289.635.635,0,0,1,.106-.77l.533-.533L2.044,46.987l-.9.9A3.871,3.871,0,0,0,.036,50.116a3.926,3.926,0,0,0,.454,2.444A35.4,35.4,0,0,0,14.308,66.377a3.927,3.927,0,0,0,2.444.454,3.871,3.871,0,0,0,2.227-1.106l.9-.9Z" transform="translate(0.001 -45.064)" fill="#fff"/>
      </g>
    </g>
    <rect id="Rectángulo_2701" data-name="Rectángulo 2701" width="40" height="28" transform="translate(1678 31)" fill="none"/>
  </g>
</svg>
