<svg xmlns="http://www.w3.org/2000/svg" viewBox="0 0 151.25 121"><defs><style>.b41ffd98-f9b8-46d6-940f-e0dfa4a771e6{fill:none;}.bc05c69f-7235-49cd-8abb-53b429a5b456{fill:#13002e;}</style></defs><g id="b8ed25c8-51a2-46c9-a401-3f24d8572674" data-name="Capa 2"><g id="bdc7140d-7197-4503-bf95-0be27e0ca423" data-name="Capa 1"><g id="b406c953-ae09-4e53-b6bb-9d5d172f364b" data-name="departamental"><rect id="ed90e48a-8737-4ab6-8d59-7c8e68546e59" data-name="Rectángulo 2732" class="b41ffd98-f9b8-46d6-940f-e0dfa4a771e6" width="151.25" height="121"/><path id="a979cb8e-b82d-4d3d-88d3-78a16389b759" data-name="local mall FILL0 wght400 GRAD0 opsz48" class="bc05c69f-7235-49cd-8abb-53b429a5b456" d="M49.61,92.87a5.33,5.33,0,0,1-5.19-5.2V41.78a5.31,5.31,0,0,1,5.19-5.19h9.53a16.21,16.21,0,0,1,4.59-11.65,15.16,15.16,0,0,1,11.43-4.81A16.59,16.59,0,0,1,87,24.94a15.52,15.52,0,0,1,5,11.65h9.53a5.32,5.32,0,0,1,5.19,5.2V87.68a5.32,5.32,0,0,1-5.19,5.2Zm0-5.2h52V41.78h-52Zm26-25.11a16.19,16.19,0,0,0,11.86-5,16.22,16.22,0,0,0,5-11.87h-5.2a11.26,11.26,0,0,1-3.46,8.23,11.51,11.51,0,0,1-16.26.19l-.19-.19a11.23,11.23,0,0,1-3.47-8.23H58.71a16.19,16.19,0,0,0,5,11.86A16.16,16.16,0,0,0,75.59,62.56Zm-11.26-26H86.85A11.09,11.09,0,0,0,75.93,25.33h-.34A11.09,11.09,0,0,0,64.33,36.25Z"/></g></g></g></svg>