<svg xmlns="http://www.w3.org/2000/svg" width="122.587" height="98.07" viewBox="0 0 122.587 98.07">
  <g id="departamental" transform="translate(-1206 -3288.729)">
    <rect id="Rectángulo_2732" data-name="Rectángulo 2732" width="122.587" height="98.07" transform="translate(1206 3288.729)" fill="none"/>
    <path id="local_mall_FILL0_wght400_GRAD0_opsz48" d="M10.211,60.954a4.04,4.04,0,0,1-2.948-1.263A4.04,4.04,0,0,1,6,56.743v-37.2A4.04,4.04,0,0,1,7.263,16.6a4.04,4.04,0,0,1,2.948-1.263h7.72a13.168,13.168,0,0,1,3.72-9.44A12.286,12.286,0,0,1,30.915,2,13.445,13.445,0,0,1,40.53,5.9a12.582,12.582,0,0,1,4.071,9.44h7.72a4.318,4.318,0,0,1,4.211,4.211v37.2a4.318,4.318,0,0,1-4.211,4.211Zm0-4.211h42.11v-37.2H10.211ZM31.266,36.39a13.148,13.148,0,0,0,9.615-4.071A13.148,13.148,0,0,0,44.952,22.7H40.741a9.109,9.109,0,0,1-2.807,6.667,9.321,9.321,0,0,1-13.335,0A9.109,9.109,0,0,1,21.791,22.7H17.58a13.148,13.148,0,0,0,4.071,9.615A13.148,13.148,0,0,0,31.266,36.39ZM22.142,15.335H40.39a8.989,8.989,0,0,0-9.124-9.124,8.989,8.989,0,0,0-9.124,9.124ZM10.211,56.743v0Z" transform="translate(1236 3303.045)" fill="#13002e"/>
  </g>
</svg>
