<svg xmlns="http://www.w3.org/2000/svg" width="80" height="80" viewBox="0 0 80 80">
  <g id="atencion_clientes" transform="translate(-13107 -377)">
    <rect id="Rectángulo_2997" data-name="Rectángulo 2997" width="80" height="80" transform="translate(13107 377)" fill="none"/>
    <path id="handshake_FILL0_wght400_GRAD0_opsz48" d="M32.135,55.245a2.261,2.261,0,0,0,.8-.173,2.055,2.055,0,0,0,.727-.45L57.005,31.206a5.954,5.954,0,0,0,1.351-2.044,6.284,6.284,0,0,0,.45-2.321,6.554,6.554,0,0,0-.45-2.355,5.878,5.878,0,0,0-1.351-2.078L44.535,9.938a5.878,5.878,0,0,0-2.078-1.351,6.554,6.554,0,0,0-2.355-.45,6.284,6.284,0,0,0-2.321.45,5.954,5.954,0,0,0-2.044,1.351L34.49,11.185,40.1,16.866A10.914,10.914,0,0,1,41.7,19.118a5.806,5.806,0,0,1,.693,2.806,6.323,6.323,0,0,1-2.044,4.641,6.488,6.488,0,0,1-4.676,2.009,6.958,6.958,0,0,1-2.875-.52,7.2,7.2,0,0,1-2.113-1.489l-5.057-5.057L13.084,34.047a2.008,2.008,0,0,0-.485.727,2.313,2.313,0,0,0-.139.8,2.014,2.014,0,0,0,2.078,2.078,1.641,1.641,0,0,0,.8-.208,2.859,2.859,0,0,0,.658-.485l9.56-9.56,2.91,2.91L18.973,39.8a1.944,1.944,0,0,0-.485.762,2.615,2.615,0,0,0-.139.831,2.131,2.131,0,0,0,2.078,2.078,1.9,1.9,0,0,0,.8-.173,2.219,2.219,0,0,0,.658-.45l9.56-9.56,2.91,2.91-9.491,9.491a2.055,2.055,0,0,0-.45.727,2.409,2.409,0,0,0-.173.866,2.131,2.131,0,0,0,2.078,2.078,2.034,2.034,0,0,0,.762-.139,2.111,2.111,0,0,0,.693-.485l9.56-9.56,2.91,2.91-9.56,9.56a1.944,1.944,0,0,0-.485.762,2.427,2.427,0,0,0-.139.762,1.917,1.917,0,0,0,2.078,2.078Zm0,4.157a5.8,5.8,0,0,1-4.087-1.7A6.9,6.9,0,0,1,25.9,53.513a6.812,6.812,0,0,1-5.888-5.888A6.579,6.579,0,0,1,16.1,45.65a7.047,7.047,0,0,1-1.905-3.914,6.961,6.961,0,0,1-4.226-2.078A5.789,5.789,0,0,1,8.3,35.5a6.554,6.554,0,0,1,.45-2.355,5.878,5.878,0,0,1,1.351-2.078L25.623,15.55l7.62,7.62a4.337,4.337,0,0,0,1.212.866,2.983,2.983,0,0,0,1.282.312,2.76,2.76,0,0,0,2.494-2.494,2.248,2.248,0,0,0-.242-.935,3.9,3.9,0,0,0-.8-1.074L27.286,9.938a5.878,5.878,0,0,0-2.078-1.351,6.554,6.554,0,0,0-2.355-.45,6.284,6.284,0,0,0-2.321.45,5.954,5.954,0,0,0-2.044,1.351L7.958,20.468a5.526,5.526,0,0,0-1.351,2.044,8.452,8.452,0,0,0-.45,2.39,5.628,5.628,0,0,0,.52,2.667A11.142,11.142,0,0,0,8.1,29.89L5.117,32.869A12.149,12.149,0,0,1,2.866,29.2,11.578,11.578,0,0,1,2,24.833a10.224,10.224,0,0,1,.8-3.983,10.357,10.357,0,0,1,2.251-3.36L15.509,7.029a9.651,9.651,0,0,1,3.464-2.251,11.164,11.164,0,0,1,3.949-.727,10.886,10.886,0,0,1,3.914.727,9.723,9.723,0,0,1,3.429,2.251l1.247,1.247,1.247-1.247a9.651,9.651,0,0,1,3.464-2.251,11.164,11.164,0,0,1,3.949-.727,10.886,10.886,0,0,1,3.914.727,9.723,9.723,0,0,1,3.429,2.251l12.4,12.4A10.064,10.064,0,0,1,62.2,22.893a10.716,10.716,0,0,1,.762,3.949,10.45,10.45,0,0,1-.762,3.914,10.15,10.15,0,0,1-2.286,3.429L36.569,57.531a6.408,6.408,0,0,1-2.044,1.386A6.058,6.058,0,0,1,32.135,59.4ZM25.346,21.577Z" transform="translate(13115 387.95)" fill="#13002e"/>
  </g>
</svg>
