<svg xmlns="http://www.w3.org/2000/svg" xmlns:xlink="http://www.w3.org/1999/xlink" width="130" height="104" viewBox="0 0 130 104">
  <defs>
    <clipPath id="clip-path">
      <rect id="Rect치ngulo_2786" data-name="Rect치ngulo 2786" width="83.738" height="66.833" fill="#13022d"/>
    </clipPath>
  </defs>
  <g id="bot" transform="translate(-176 -3014)">
    <rect id="Rect치ngulo_2732" data-name="Rect치ngulo 2732" width="130" height="104" transform="translate(176 3014)" fill="none"/>
    <g id="Grupo_5123" data-name="Grupo 5123" transform="translate(199 3033)">
      <g id="Grupo_5123-2" data-name="Grupo 5123" clip-path="url(#clip-path)">
        <path id="Trazado_36807" data-name="Trazado 36807" d="M29.312,54.07c-2.639,0-5.018.007-7.4,0-6.058-.02-9.361-3.338-9.377-9.439-.013-5.125,0-10.25,0-15.375V27.11c-2.164.217-4.225-.767-6.095,1.154-1.326,1.363-4.057.891-5.392-.555a4.008,4.008,0,0,1-.118-5.271c1.4-1.6,3.971-2.217,5.3-.8,1.862,1.994,3.971,1.3,6.308,1.384V17.214c0-2.621-.016-5.241,0-7.862.043-5.881,3.5-9.339,9.373-9.344q19.568-.016,39.136,0c.524,0,1.048-.012,1.572,0a8.385,8.385,0,0,1,8.522,8.546c.07,4.076.017,8.153.019,12.23v2.122c2.191-.152,4.249.789,6.122-1.133,1.408-1.445,3.893-1.05,5.363.459a4.247,4.247,0,0,1,.2,5.447c-1.316,1.58-4.05,2.128-5.479.655-1.873-1.932-3.94-1.014-6.2-1.251V29.5c0,5.183.009,10.366,0,15.55-.014,5.8-3.38,9.214-9.209,9.279-4.134.046-8.271-.037-12.4.049a4.658,4.658,0,0,0-2.525.844C42.251,58.755,37.563,62.4,32.8,65.943c-.678.5-1.977,1.105-2.39.814a3.518,3.518,0,0,1-1.049-2.506c-.116-3.307-.046-6.62-.046-10.182m37.6-37.228H16.791V33.477H66.913ZM33.418,60.088c.749-.5,1.225-.785,1.666-1.116,3.167-2.376,6.364-4.714,9.474-7.164a7.9,7.9,0,0,1,5.3-1.8c4.308.086,8.62.048,12.93.009,2.171-.019,4.01-1.226,4.12-3.027.186-3.05.051-6.12.051-9.191H16.644c0,2.685-.015,5.239,0,7.792.024,3.306,1.5,4.8,4.8,4.835,3.087.033,6.175-.024,9.261.023,2.125.032,2.687.635,2.7,2.726.019,2.189,0,4.38,0,6.908M67,12.5c0-1.69.112-3.26-.03-4.807a3.566,3.566,0,0,0-2.8-3.209,8.329,8.329,0,0,0-2.243-.255q-20-.022-40.009,0a10.068,10.068,0,0,0-1.908.156,3.745,3.745,0,0,0-3.269,3.382c-.151,1.537-.031,3.1-.031,4.739Z" transform="translate(0 -0.001)" fill="#13022d"/>
        <path id="Trazado_36808" data-name="Trazado 36808" d="M80.2,63.942a3.9,3.9,0,0,0-4.162-4.131,3.984,3.984,0,0,0-4.1,4.069,4.052,4.052,0,0,0,4.213,4.162,3.947,3.947,0,0,0,4.051-4.1m21.02-4.131a3.981,3.981,0,0,0-4.12,4.05,4.048,4.048,0,0,0,4.193,4.18,3.948,3.948,0,0,0,4.069-4.08,3.9,3.9,0,0,0-4.142-4.15" transform="translate(-46.796 -38.908)" fill="#13022d"/>
        <path id="Trazado_36809" data-name="Trazado 36809" d="M80.2,63.944a3.947,3.947,0,0,1-4.051,4.1,4.052,4.052,0,0,1-4.213-4.162,3.983,3.983,0,0,1,4.1-4.069A3.9,3.9,0,0,1,80.2,63.944" transform="translate(-46.796 -38.909)" fill="#13022d"/>
        <path id="Trazado_36810" data-name="Trazado 36810" d="M148.058,59.811a3.9,3.9,0,0,1,4.142,4.15,3.948,3.948,0,0,1-4.069,4.08,4.048,4.048,0,0,1-4.193-4.18,3.981,3.981,0,0,1,4.12-4.05" transform="translate(-93.635 -38.908)" fill="#13022d"/>
      </g>
    </g>
  </g>
</svg>
