<svg xmlns="http://www.w3.org/2000/svg" xmlns:xlink="http://www.w3.org/1999/xlink" width="130" height="104" viewBox="0 0 130 104">
  <defs>
    <clipPath id="clip-path">
      <rect id="Rect치ngulo_2785" data-name="Rect치ngulo 2785" width="66.508" height="66.833" fill="#13022d"/>
    </clipPath>
  </defs>
  <g id="call" transform="translate(-30 -2971)">
    <rect id="Rect치ngulo_2732" data-name="Rect치ngulo 2732" width="130" height="104" transform="translate(30 2971)" fill="none"/>
    <g id="Grupo_5120" data-name="Grupo 5120" transform="translate(62 2990)">
      <g id="Grupo_5119" data-name="Grupo 5119" clip-path="url(#clip-path)">
        <path id="Trazado_36805" data-name="Trazado 36805" d="M22.178,28.106a39.9,39.9,0,0,0,16.36,16.363q1.816-2.2,3.621-4.377c2.6-3.152,4.8-3.7,8.574-2.084s7.557,3.238,11.324,4.882c3.822,1.667,5.009,4.006,4.094,8.046-.806,3.557-1.619,7.112-2.465,10.66-.885,3.715-3.02,5.322-6.865,5.234a58.011,58.011,0,0,1-55.8-46.554A65.726,65.726,0,0,1,0,8.2C-.038,5.3,2.05,3.611,4.725,2.913,8.588,1.9,12.488,1.024,16.391.179A5.824,5.824,0,0,1,23.382,3.69C25.365,8,27.226,12.372,29.036,16.76a5.73,5.73,0,0,1-1.7,6.92c-1.641,1.465-3.336,2.869-5.154,4.426M55.89,62.711c2.848.082,3.41-.188,3.878-2.122.872-3.6,1.677-7.221,2.527-10.829a2.343,2.343,0,0,0-1.548-3.045c-4-1.69-7.994-3.4-11.961-5.167a2.335,2.335,0,0,0-3.181.77c-1.5,1.915-3.111,3.75-4.62,5.661a2.426,2.426,0,0,1-3.492.656A46.32,46.32,0,0,1,18,29.13a2.4,2.4,0,0,1,.667-3.473c1.955-1.548,3.842-3.182,5.787-4.741a2.161,2.161,0,0,0,.685-2.9C23.361,13.987,21.629,9.94,19.906,5.89A2.355,2.355,0,0,0,16.7,4.4c-2.516.673-5.07,1.206-7.61,1.79-5.37,1.235-5.466.462-5,6.819C6.07,40.125,28.77,61.93,55.89,62.711" transform="translate(0 0)" fill="#13022d"/>
        <path id="Trazado_36806" data-name="Trazado 36806" d="M129.083,4.35c-3.459,0-6.919.047-10.376-.036a3.71,3.71,0,0,1-2.317-.808,2.13,2.13,0,0,1-.228-2.027,2.686,2.686,0,0,1,1.9-1.165c2.543-.137,5.1-.061,7.646-.062,2.781,0,5.564-.024,8.345.009,1.878.022,2.54.657,2.55,2.5.027,5.273,0,10.547.016,15.82,0,1.34-.478,2.344-1.9,2.415-1.542.077-2.155-.989-2.17-2.362-.04-3.586-.014-7.172-.014-11.214-.731.673-1.18,1.061-1.6,1.478q-9.5,9.435-18.987,18.876a13.743,13.743,0,0,1-1.276,1.176,1.709,1.709,0,0,1-2.489-.222,1.747,1.747,0,0,1-.2-2.5,13.331,13.331,0,0,1,1.169-1.282q9.369-9.44,18.752-18.865A15.336,15.336,0,0,1,129.4,4.9l-.314-.55" transform="translate(-70.108 -0.151)" fill="#13022d"/>
      </g>
    </g>
  </g>
</svg>
