<svg xmlns="http://www.w3.org/2000/svg" width="80" height="80" viewBox="0 0 80 80">
  <g id="cobranza" transform="translate(-13083 -470)">
    <rect id="Rectángulo_2997" data-name="Rectángulo 2997" width="80" height="80" transform="translate(13083 470)" fill="none"/>
    <path id="request_quote_FILL0_wght400_GRAD0_opsz48" d="M29.6,54.577h4.469V51.6H38.54a2.166,2.166,0,0,0,2.235-2.235V39.679a2.166,2.166,0,0,0-2.235-2.235H27.367V32.231H40.774V27.761h-6.7V24.782H29.6v2.979H25.132A2.166,2.166,0,0,0,22.9,30v9.683a2.166,2.166,0,0,0,2.235,2.235H36.305v5.214H22.9V51.6h6.7ZM12.469,63.59a4.288,4.288,0,0,1-3.128-1.341A4.288,4.288,0,0,1,8,59.121V8.469A4.288,4.288,0,0,1,9.341,5.341,4.288,4.288,0,0,1,12.469,4h26.89L55.672,20.313V59.121A4.582,4.582,0,0,1,51.2,63.59ZM35.635,20.313V8.469H12.469V59.121H51.2V20.313ZM12.469,8.469v0Z" transform="translate(13091 476)" fill="#13002e"/>
  </g>
</svg>
