<svg id="email" xmlns="http://www.w3.org/2000/svg" xmlns:xlink="http://www.w3.org/1999/xlink" width="130" height="104" viewBox="0 0 130 104">
  <defs>
    <clipPath id="clip-path">
      <rect id="Rect치ngulo_2784" data-name="Rect치ngulo 2784" width="94.082" height="61.019" fill="#13022d"/>
    </clipPath>
  </defs>
  <rect id="Rect치ngulo_2732" data-name="Rect치ngulo 2732" width="130" height="104" fill="none"/>
  <g id="Grupo_5117" data-name="Grupo 5117" transform="translate(18 21)">
    <g id="Grupo_5116" data-name="Grupo 5116" clip-path="url(#clip-path)">
      <path id="Trazado_36802" data-name="Trazado 36802" d="M75.26,14.009H73c0-1.341.015-2.619,0-3.9-.066-4.96-2.877-7.829-7.792-7.834q-27.561-.03-55.122,0c-4.78.005-7.559,2.9-7.865,7.673a6.041,6.041,0,0,0,2.656,5.736c9.011,7.047,17.864,14.3,26.783,21.461,6.561,5.46,10.395,1.328,15.94-3.089-.361,3.949-4.648,7.54-8.979,7.869a11.62,11.62,0,0,1-8.445-2.972C20.85,31.536,11.764,23.969,2.284,16.727c-.266,9.782-.035,19.453-.1,29.226.007,5.424,2.791,8.2,8.219,8.2,13.012.008,26.024.032,39.036-.035A2.764,2.764,0,0,1,52.566,56.3c-14.01.334-28.042.03-42.062.121C3.938,56.416.032,52.509.018,45.9q-.038-17.655,0-35.309C.029,3.874,3.923.009,10.641.006Q37.613-.006,64.586,0c6.9,0,10.655,3.763,10.674,10.671,0,1.04,0,2.08,0,3.334" transform="translate(0 0)" fill="#13022d"/>
      <path id="Trazado_36803" data-name="Trazado 36803" d="M153.292,47.8a21.183,21.183,0,0,1,21.04,21.343c-1.281,28.036-41.041,27.779-42.245-.1a21.3,21.3,0,0,1,21.2-21.245m18.785,21.148A18.807,18.807,0,0,0,153.308,50.06c-24.984.923-25.332,36.96-.039,37.843a18.621,18.621,0,0,0,18.808-18.957" transform="translate(-80.25 -29.04)" fill="#13022d"/>
      <path id="Trazado_36804" data-name="Trazado 36804" d="M167.89,94.938c3.247-3.111,6.517-6.272,9.828-9.39.739-.7,1.516-2.209,2.667-1.122,1.281,1.209-.281,2.048-1.022,2.805-3.193,3.26-6.474,6.434-9.649,9.711-1.223,1.262-2.2,1.33-3.42.03-1.784-1.9-3.74-3.643-5.471-5.586-.469-.526-.4-1.534-.574-2.321.727.21,1.633.216,2.149.667,1.953,1.708,3.779,3.561,5.493,5.206" transform="translate(-97.36 -51.062)" fill="#13022d"/>
    </g>
  </g>
</svg>
