<svg xmlns="http://www.w3.org/2000/svg" width="80" height="80" viewBox="0 0 80 80">
  <g id="encuestas" transform="translate(-13051 -919)">
    <rect id="Rectángulo_3000" data-name="Rectángulo 3000" width="80" height="80" transform="translate(13051 919)" fill="none"/>
    <path id="quiz_FILL0_wght400_GRAD0_opsz48" d="M38.23,43.923a3.029,3.029,0,1,0-2.144-.887A2.921,2.921,0,0,0,38.23,43.923Zm-1.848-9.315h3.475a9.527,9.527,0,0,1,.628-3.179,11.571,11.571,0,0,1,2.4-2.883,14.769,14.769,0,0,0,2.772-3.364,6.989,6.989,0,0,0,.776-3.364,7.192,7.192,0,0,0-2.329-5.545,8.65,8.65,0,0,0-6.1-2.144,8.625,8.625,0,0,0-8.28,5.767l3.327,1.4a7.151,7.151,0,0,1,2.033-2.809,4.575,4.575,0,0,1,2.92-.961,5.091,5.091,0,0,1,3.586,1.257,4.131,4.131,0,0,1,1.368,3.179,4.932,4.932,0,0,1-.665,2.588,8.864,8.864,0,0,1-2.366,2.366,12.6,12.6,0,0,0-2.957,3.438,11.033,11.033,0,0,0-.591,4.251ZM17.308,54.273a4.548,4.548,0,0,1-4.436-4.436V8.436A4.256,4.256,0,0,1,14.2,5.331,4.256,4.256,0,0,1,17.308,4h41.4a4.256,4.256,0,0,1,3.105,1.331,4.256,4.256,0,0,1,1.331,3.105v41.4a4.548,4.548,0,0,1-4.436,4.436Zm0-4.436h41.4V8.436h-41.4ZM8.436,63.145a4.256,4.256,0,0,1-3.105-1.331A4.256,4.256,0,0,1,4,58.709V12.872H8.436V58.709H54.273v4.436ZM17.308,8.436v0Z" transform="translate(13057 925)" fill="#13002e"/>
  </g>
</svg>
