<svg id="mano" xmlns="http://www.w3.org/2000/svg" width="130" height="104" viewBox="0 0 130 104">
  <g id="Grupo_5112" data-name="Grupo 5112" transform="translate(-30 -2615)">
    <rect id="Rectángulo_2732" data-name="Rectángulo 2732" width="130" height="104" transform="translate(30 2615)" fill="none"/>
    <g id="Grupo_5111" data-name="Grupo 5111" transform="translate(19 -108.944)">
      <path id="Trazado_36796" data-name="Trazado 36796" d="M91.234,20.988c5.525,0,10.913-.078,16.3.018,7.911.143,12.6,7.681,9.044,14.573a11.277,11.277,0,0,1-2.806,3.255,2.431,2.431,0,0,0-1.12,2.687,9.942,9.942,0,0,1-3.55,9.749,4.022,4.022,0,0,0-1.276,2.636,10.9,10.9,0,0,1-3.843,8.676,4.492,4.492,0,0,0-1.182,2.387c-.955,4.49-3.972,7.824-8.517,8.177-6.3.489-12.7.839-18.851-1.183a30.334,30.334,0,0,1-13.307-8.455,6.245,6.245,0,0,1-1.6-2.545,2.991,2.991,0,0,1,.663-2.487,2.8,2.8,0,0,1,2.524-.311,11.466,11.466,0,0,1,3.037,2.43C71.736,65.7,77.68,68.447,84.9,68.232c2.548-.076,5.1.019,7.65-.021,3.281-.053,5.266-2.1,5.128-5.42a3.658,3.658,0,0,1,2.16-3.862c2.831-1.464,3.452-3.362,2.363-6.349-.873-2.395-.42-3.47,1.884-4.48,3.729-1.634,4.6-4.274,2.539-7.689-1.419-2.35-.827-3.752,2.057-4.595A4.872,4.872,0,0,0,112.6,31.64,4.351,4.351,0,0,0,110.4,27a6.868,6.868,0,0,0-3.3-.829c-6.265-.076-12.532-.032-18.8-.039-4.023,0-4.826-1.509-3.171-5.225a80.314,80.314,0,0,0,3.55-9.582c.843-2.811-.642-5.087-3.393-5.864-2.841-.8-4.645-.072-5.412,3.11-2.2,9.141-7.959,15.7-14.833,21.568-1.222,1.043-2.436,1.806-3.835.547-1.449-1.3-.99-2.755.1-4.054a13.638,13.638,0,0,1,1.883-1.815A34.914,34.914,0,0,0,74.56,8.325c.252-.759.493-1.525.8-2.261C77.484,1,81.776-1.033,87.05.5a9.613,9.613,0,0,1,6.763,11.024c-.626,3.111-1.657,6.14-2.578,9.465" transform="translate(0.074 2738.944)" fill="#13022d"/>
      <path id="Trazado_36797" data-name="Trazado 36797" d="M20.907,83.633c0,5.46.031,10.92-.005,16.379-.029,4.447-2.632,7.024-7.071,7.068-2.329.023-4.66.041-6.988-.006-3.915-.078-6.723-2.6-6.761-6.53q-.163-17.032,0-34.068c.038-3.93,2.844-6.442,6.772-6.516,2.475-.046,4.951-.054,7.425,0A6.4,6.4,0,0,1,20.888,66.6c.06,5.678.016,11.356.019,17.034m-5.136-.152c0-5.245-.041-10.491.022-15.735.022-1.8-.533-2.752-2.491-2.665s-3.934.048-5.9.011c-1.6-.029-2.233.794-2.232,2.289q0,16.172,0,32.345a1.956,1.956,0,0,0,2.3,2.218c1.82-.045,3.642,0,5.463-.012,2.575-.017,2.824-.268,2.829-2.935q.015-7.758,0-15.517" transform="translate(34 2705.228)" fill="#13022d"/>
    </g>
  </g>
</svg>
