<svg xmlns="http://www.w3.org/2000/svg" xmlns:xlink="http://www.w3.org/1999/xlink" width="130" height="104" viewBox="0 0 130 104">
  <defs>
    <clipPath id="clip-path">
      <rect id="Rect치ngulo_2783" data-name="Rect치ngulo 2783" width="74.716" height="74.002" fill="#13022d"/>
    </clipPath>
  </defs>
  <g id="msn" transform="translate(-30 -2735)">
    <rect id="Rect치ngulo_2732" data-name="Rect치ngulo 2732" width="130" height="104" transform="translate(30 2735)" fill="none"/>
    <g id="Grupo_5113" data-name="Grupo 5113" transform="translate(58 2750)">
      <g id="Grupo_5114" data-name="Grupo 5114" clip-path="url(#clip-path)">
        <path id="Trazado_36798" data-name="Trazado 36798" d="M23.356,60.278c-4.312,0-8.382,0-12.451,0-7.339,0-10.9-3.537-10.9-10.833Q0,30.185,0,10.923C.005,3.769,3.744.063,10.954.062,28.593.06,46.233.174,63.871,0c6.237-.061,10.973,4.038,10.842,10.849-.251,13.03-.069,26.069-.075,39.1,0,6.839-3.722,10.587-10.562,10.615-6.031.025-12.063-.04-18.093.05a5.6,5.6,0,0,0-3,.981c-5.271,3.773-10.441,7.686-15.711,11.46-.8.575-2.206,1.18-2.862.847s-.977-1.817-1.01-2.81c-.116-3.495-.045-7-.045-10.819m2.228,11.559c.878-.613,1.4-.952,1.9-1.33,4.843-3.695,9.7-7.369,14.507-11.114a5.8,5.8,0,0,1,3.9-1.3c6.287.083,12.576.056,18.863.026,5.038-.023,7.636-2.63,7.644-7.705q.034-20.128,0-40.256c-.009-4.908-2.786-7.716-7.745-7.725Q37.322,2.376,10,2.431c-4.887.011-7.734,2.906-7.745,7.789q-.048,20.225,0,40.451c.011,4.874,2.9,7.737,7.762,7.77,4.473.03,8.946.007,13.419.007h2.151Z" transform="translate(0 0)" fill="#13022d"/>
        <path id="Trazado_36799" data-name="Trazado 36799" d="M88.527,62.433c-1.323,1.736-2.635,3.481-3.973,5.205-1.246,1.607-1.63,1.6-2.9-.04A36.086,36.086,0,0,0,77.2,62.483v4.326a34.7,34.7,0,0,1-.049,4.271A8.606,8.606,0,0,1,76.1,73.422c-.378-.789-1.059-1.568-1.082-2.367C74.9,67.171,74.924,63.28,75,59.394a6.429,6.429,0,0,1,.793-2.025,7.223,7.223,0,0,1,1.771,1.2c1.848,2.324,3.6,4.723,5.567,7.327,1.891-2.521,3.616-4.9,5.447-7.2A8.34,8.34,0,0,1,90.5,57.343a8.428,8.428,0,0,1,.682,2.228c.07,3.757.052,7.516.019,11.274-.009.966.388,2.5-1.046,2.493-1.532-.008-1.153-1.587-1.167-2.624-.038-2.709-.013-5.42-.013-8.131l-.448-.151" transform="translate(-45.768 -35.023)" fill="#13022d"/>
        <path id="Trazado_36800" data-name="Trazado 36800" d="M41.8,56.73a36.8,36.8,0,0,1,3.809,1c.413.154.637.817.947,1.248a4.921,4.921,0,0,1-1.536.805c-.535.067-1.114-.355-1.682-.385a8.331,8.331,0,0,0-3.038.119,2.889,2.889,0,0,0-1.716,1.75c-.1.5.726,1.505,1.364,1.8,1.752.811,3.67,1.258,5.431,2.051A3.626,3.626,0,0,1,47.2,70.579a5.665,5.665,0,0,1-2.6,2.127c-2.513,1.02-4.983.127-7.363-.724-.411-.147-.575-.984-.852-1.5.5-.173,1.033-.54,1.506-.478,1.018.133,1.994.613,3.011.714a7.177,7.177,0,0,0,3.04-.225,2.6,2.6,0,0,0,1.48-1.705c.078-.511-.629-1.432-1.207-1.7-1.81-.84-3.792-1.32-5.582-2.195a3.964,3.964,0,0,1-.307-7.032A15.793,15.793,0,0,1,41.8,56.73" transform="translate(-22.193 -34.648)" fill="#13022d"/>
        <path id="Trazado_36801" data-name="Trazado 36801" d="M132.006,56.991a27.133,27.133,0,0,1,3.546.882c.439.168.657.916.975,1.4-.544.23-1.1.674-1.629.647-1.21-.062-2.412-.53-3.611-.5-1.228.026-2.78.441-2.676,1.915.057.811,1.26,1.775,2.166,2.24,1.479.758,3.159,1.111,4.715,1.735,1.45.581,2.5,1.75,2.17,3.293a7.053,7.053,0,0,1-1.937,3.741c-1.75,1.5-6.893,1.154-8.723-.3a1.623,1.623,0,0,1-.5-1.44,1.63,1.63,0,0,1,1.415-.548c1.072.174,2.092.741,3.161.841a8.114,8.114,0,0,0,3.216-.355,1.748,1.748,0,0,0,.187-3.213,28.956,28.956,0,0,0-3.986-1.463c-3.321-1.093-4.49-2.51-4.055-4.97s2.408-3.8,5.569-3.9" transform="translate(-77.17 -34.808)" fill="#13022d"/>
      </g>
    </g>
  </g>
</svg>
