<svg xmlns="http://www.w3.org/2000/svg" width="80" height="80" viewBox="0 0 80 80">
  <g id="soportetecnico" transform="translate(-13051 -813)">
    <rect id="Rectángulo_3000" data-name="Rectángulo 3000" width="80" height="80" transform="translate(13051 813)" fill="none"/>
    <path id="engineering_FILL0_wght400_GRAD0_opsz48" d="M2.1,64.423V56.957a7.715,7.715,0,0,1,1.3-4.585A9.344,9.344,0,0,1,7.05,49.411a55.861,55.861,0,0,1,9.372-3.489,42.541,42.541,0,0,1,11.319-1.379A42.541,42.541,0,0,1,39.06,45.922a55.861,55.861,0,0,1,9.372,3.489,9.344,9.344,0,0,1,3.651,2.962,7.715,7.715,0,0,1,1.3,4.585v7.465Zm4.869-4.869H48.513v-2.6a2.869,2.869,0,0,0-.69-1.988,4.549,4.549,0,0,0-1.663-1.177q-3.489-1.542-7.79-2.962a34.273,34.273,0,0,0-10.63-1.42,34.273,34.273,0,0,0-10.63,1.42q-4.3,1.42-7.79,2.962a4.549,4.549,0,0,0-1.663,1.177,2.869,2.869,0,0,0-.69,1.988Zm20.772-19.88a11.715,11.715,0,0,1-8.763-3.489A11.933,11.933,0,0,1,15.57,27.5h-.811a1.623,1.623,0,0,1,0-3.246h.811a10.8,10.8,0,0,1,1.623-5.842A13.1,13.1,0,0,1,21.412,14.2V17.36a1.248,1.248,0,0,0,1.217,1.217,1.133,1.133,0,0,0,.893-.365,1.242,1.242,0,0,0,.325-.852V13.141a13.79,13.79,0,0,1,1.785-.284,19.779,19.779,0,0,1,4.382,0,13.79,13.79,0,0,1,1.785.284V17.36a1.242,1.242,0,0,0,.325.852,1.133,1.133,0,0,0,.893.365,1.248,1.248,0,0,0,1.217-1.217V14.2a12.35,12.35,0,0,1,4.138,4.219,11.224,11.224,0,0,1,1.542,5.842h.811a1.623,1.623,0,0,1,0,3.246h-.811A11.933,11.933,0,0,1,36.5,36.185a11.715,11.715,0,0,1-8.763,3.489Zm0-4.869A7.074,7.074,0,0,0,33.1,32.777,7.3,7.3,0,0,0,35.044,27.5H20.438a7.3,7.3,0,0,0,1.947,5.274A7.074,7.074,0,0,0,27.741,34.806ZM52.246,44.867l-.162-2.353q-.568-.325-1.177-.73a12.819,12.819,0,0,1-1.1-.811L47.7,42.108l-1.785-2.6,2.11-1.542a1.368,1.368,0,0,1-.162-.609V36.144a1.368,1.368,0,0,1,.162-.609l-2.11-1.542L47.7,31.4l2.11,1.136,1.136-.811a13.362,13.362,0,0,1,1.136-.73l.162-2.353h3.246l.162,2.353a13.364,13.364,0,0,1,1.136.73l1.136.811,2.11-1.136,1.785,2.6-2.11,1.542a1.368,1.368,0,0,1,.162.609v1.217a1.368,1.368,0,0,1-.162.609l2.11,1.542-1.785,2.6-2.11-1.136a12.819,12.819,0,0,1-1.1.811q-.609.406-1.177.73l-.162,2.353Zm1.623-5.031a3.048,3.048,0,1,0-2.191-.893,2.979,2.979,0,0,0,2.191.893Zm7.141-12.577-.73-2.84a9.133,9.133,0,0,1-1.663-.893A7.115,7.115,0,0,1,57.2,22.31l-3.57,1.3L52,20.768l2.84-2.272a6.932,6.932,0,0,1-.284-.893,3.956,3.956,0,0,1,0-1.947,6.932,6.932,0,0,1,.284-.893L52,12.491l1.623-2.84,3.57,1.3a8.235,8.235,0,0,1,1.42-1.258,5.72,5.72,0,0,1,1.663-.852L61.009,6h3.083l.73,2.84a5.72,5.72,0,0,1,1.663.852,8.235,8.235,0,0,1,1.42,1.258l3.57-1.3,1.623,2.84-2.84,2.272a6.932,6.932,0,0,1,.284.893,3.956,3.956,0,0,1,0,1.947,6.932,6.932,0,0,1-.284.893l2.84,2.272-1.623,2.84-3.57-1.3a7.114,7.114,0,0,1-1.42,1.217,9.132,9.132,0,0,1-1.663.893l-.73,2.84Zm1.542-5.923a4.577,4.577,0,0,0,4.706-4.706,4.707,4.707,0,1,0-9.413,0,4.577,4.577,0,0,0,4.706,4.706ZM6.969,59.554h0Z" transform="translate(13053.9 818)" fill="#13002e"/>
  </g>
</svg>
