<svg xmlns="http://www.w3.org/2000/svg" width="80" height="80" viewBox="0 0 80 80">
  <g id="telemarketing" transform="translate(-13051 -528)">
    <g id="Grupo_5714" data-name="Grupo 5714" transform="translate(-62 -252)">
      <path id="person_FILL0_wght400_GRAD0_opsz48" d="M24.062,24.008a7.221,7.221,0,0,1-7.529-7.529A7.221,7.221,0,0,1,24.062,8.95a7.221,7.221,0,0,1,7.529,7.529,7.221,7.221,0,0,1-7.529,7.529ZM8,40.121V35.4a5.524,5.524,0,0,1,.954-3.263,6.123,6.123,0,0,1,2.46-2.058,37.729,37.729,0,0,1,6.45-2.259,26.074,26.074,0,0,1,6.2-.753,24.977,24.977,0,0,1,6.174.778,42.758,42.758,0,0,1,6.425,2.234,6.052,6.052,0,0,1,2.51,2.058,5.524,5.524,0,0,1,.954,3.263v4.718Zm3.012-3.012h26.1V35.4a2.75,2.75,0,0,0-.477-1.531,3.022,3.022,0,0,0-1.18-1.079,26.654,26.654,0,0,0-5.873-2.133,25.969,25.969,0,0,0-5.521-.577,26.676,26.676,0,0,0-5.572.577,25.494,25.494,0,0,0-5.873,2.133,3.02,3.02,0,0,0-1.606,2.61ZM24.062,21a4.378,4.378,0,0,0,4.517-4.517,4.378,4.378,0,0,0-4.517-4.517,4.378,4.378,0,0,0-4.517,4.517A4.378,4.378,0,0,0,24.062,21ZM24.062,16.479ZM24.062,37.109Z" transform="translate(13129.152 795.203)" fill="#13002e"/>
      <path id="location_searching_FILL0_wght400_GRAD0_opsz48" d="M32.056,66.516V61.01A26.6,26.6,0,0,1,7.607,36.561H2.1V32.156H7.607A26.6,26.6,0,0,1,32.056,7.707V2.2h4.405V7.707A26.6,26.6,0,0,1,60.91,32.156h5.507v4.405H60.91A26.6,26.6,0,0,1,36.461,61.01v5.507Zm2.2-9.838a21.483,21.483,0,0,0,15.749-6.571,21.483,21.483,0,0,0,6.571-15.749,21.483,21.483,0,0,0-6.571-15.749,21.483,21.483,0,0,0-15.749-6.571,21.483,21.483,0,0,0-15.749,6.571,21.483,21.483,0,0,0-6.571,15.749,21.483,21.483,0,0,0,6.571,15.749A21.483,21.483,0,0,0,34.258,56.678Z" transform="translate(13118.9 785.8)" fill="#13002e"/>
    </g>
    <rect id="Rectángulo_2999" data-name="Rectángulo 2999" width="80" height="80" transform="translate(13051 528)" fill="none"/>
  </g>
</svg>
