<svg id="voz" xmlns="http://www.w3.org/2000/svg" width="130" height="104" viewBox="0 0 130 104">
  <g id="Grupo_5132" data-name="Grupo 5132" transform="translate(-264 -2484)">
    <path id="Trazado_35107" data-name="Trazado 35107" d="M79.841,57.091a17.2,17.2,0,0,0-1.772-1.752,33.772,33.772,0,0,0-4.625-14.5,1.641,1.641,0,0,0-2.825,1.671,30.5,30.5,0,0,1,3.849,10.48,15.382,15.382,0,0,0-4.777-1.383A28.943,28.943,0,0,0,41.85,30.569,28.633,28.633,0,0,0,23.91,36.8,29.1,29.1,0,0,0,14,51.631a15.405,15.405,0,0,0-4.785,1.448,31.408,31.408,0,0,1,9.233-17.339,34.013,34.013,0,0,1,42.6-3.412,1.641,1.641,0,0,0,1.859-2.7,37.294,37.294,0,0,0-46.741,3.755A34.549,34.549,0,0,0,5.618,55.485a17.214,17.214,0,0,0-1.6,1.607A15.487,15.487,0,0,0,0,67.008a15.164,15.164,0,0,0,4.1,9.946,17.1,17.1,0,0,0,6.537,4.481A19.981,19.981,0,0,0,29.876,96.111H37.2a4.929,4.929,0,1,0,0-3.282H29.876a16.69,16.69,0,0,1-15.445-10.41,5.037,5.037,0,0,0,5.11-3.091,4.972,4.972,0,0,0,.363-1.866V56.542a4.98,4.98,0,0,0-2.635-4.39,25.814,25.814,0,0,1,8.677-12.777,25.655,25.655,0,0,1,31.945.11,25.8,25.8,0,0,1,8.561,12.74,4.983,4.983,0,0,0-2.5,4.317v20.92a4.986,4.986,0,0,0,4.981,4.981h.013l.1,0h0a4.964,4.964,0,0,0,1.164-.162,17,17,0,0,0,9.538-5.324,15.162,15.162,0,0,0,4.1-9.945A15.489,15.489,0,0,0,79.841,57.091ZM41.85,92.822A1.647,1.647,0,1,1,40.2,94.47,1.649,1.649,0,0,1,41.85,92.822ZM3.282,67.008a12.352,12.352,0,0,1,3.2-7.758,13.482,13.482,0,0,1,3.447-2.838c0,.043,0,21.011,0,21.011C6.228,75.291,3.282,71.483,3.282,67.008Zm13.34,10.453a1.692,1.692,0,0,1-1.963,1.659,1.653,1.653,0,0,1-1.259-.887,2.549,2.549,0,0,1-.152-.985c-.024-.361-.036-20.707-.036-20.707a1.705,1.705,0,0,1,3.41,0Zm50.611-20.92a1.705,1.705,0,0,1,3.41,0v20.92a1.7,1.7,0,0,1-1.171,1.614q-.277.049-.552.085a1.7,1.7,0,0,1-1.687-1.7Zm6.692,20.881s0-20.968,0-21.011a13.482,13.482,0,0,1,3.447,2.838,12.353,12.353,0,0,1,3.2,7.758C80.573,71.483,77.627,75.291,73.925,77.423Z" transform="translate(287.072 2478.592)" fill="#13022d"/>
    <rect id="Rectángulo_2732" data-name="Rectángulo 2732" width="130" height="104" transform="translate(264 2484)" fill="none"/>
  </g>
</svg>
