<svg xmlns="http://www.w3.org/2000/svg" width="570" height="285" viewBox="0 0 570 285">
  <g id="Grupo_4458" data-name="Grupo 4458" transform="translate(-11869 -2586)">
    <rect id="Rectángulo_2567" data-name="Rectángulo 2567" width="570" height="285" transform="translate(11869 2586)" fill="#fff"/>
    <g id="Grupo_4457" data-name="Grupo 4457" transform="translate(12061 2671)">
      <path id="Trazado_33675" data-name="Trazado 33675" d="M1163.357,828.085l-19.75,23.536h12.742l17.829-21.307,18.476,21.307,12.432-.091-20.4-23.445Z" transform="translate(-1074.406 -763.714)" fill="#f05a1e"/>
      <path id="Trazado_33676" data-name="Trazado 33676" d="M1155.547,823.875,1129.2,855.6h16.019l26.621-31.728Z" transform="translate(-1088.265 -767.764)" fill="#f05a1e"/>
      <path id="Trazado_33677" data-name="Trazado 33677" d="M1173.263,821.424l13.006,26.148h21.552V831.855l-24.155-.019-5.552-10.44Z" transform="translate(-1045.883 -770.147)" fill="#f05a1e"/>
      <path id="Trazado_33678" data-name="Trazado 33678" d="M1156.6,809.607l17.32,20.5h13.625l-17.247-20.5Z" transform="translate(-1061.914 -781.487)" fill="#f05a1e"/>
      <path id="Trazado_33679" data-name="Trazado 33679" d="M1161.9,811.224V832.54l-10.822,9.22h26.43l.155-11.659Z" transform="translate(-1067.22 -779.931)" fill="#f05a1e"/>
      <path id="Trazado_33680" data-name="Trazado 33680" d="M1134.575,831.658l-13.9,16.465h12.478l14.134-16.465Z" transform="translate(-1096.46 -760.278)" fill="#f05a1e"/>
      <path id="Trazado_33681" data-name="Trazado 33681" d="M1127.753,817.764l17.156,21.07,7.126-8.128-10.722-13Z" transform="translate(-1089.655 -773.694)" fill="#f05a1e"/>
      <path id="Trazado_33682" data-name="Trazado 33682" d="M1143.667,806.336l18.239,22.4,4.023.009V816.5l-8.4-10.2Z" transform="translate(-1074.349 -784.667)" fill="#f05a1e"/>
      <path id="Trazado_33683" data-name="Trazado 33683" d="M1152.168,795.273a9.557,9.557,0,1,0,9.556,9.558A9.567,9.567,0,0,0,1152.168,795.273Z" transform="translate(-1075.364 -795.273)" fill="#f05a1e"/>
      <path id="Trazado_33684" data-name="Trazado 33684" d="M1143.321,807.695l.018,29.107h16.31v-9.2Z" transform="translate(-1074.681 -783.326)" fill="#f05a1e"/>
      <path id="Trazado_33685" data-name="Trazado 33685" d="M1164.386,800.3a7.99,7.99,0,1,0,7.993,7.99A8,8,0,0,0,1164.386,800.3Z" transform="translate(-1062.106 -790.442)" fill="#f05a1e"/>
      <path id="Trazado_33686" data-name="Trazado 33686" d="M1127.869,819.638l.045,20.906,14.453-.055,1.192-1.465Z" transform="translate(-1089.544 -771.839)" fill="#f05a1e"/>
      <path id="Trazado_33687" data-name="Trazado 33687" d="M1135.353,809.3a7.162,7.162,0,1,0,7.163,7.162A7.171,7.171,0,0,0,1135.353,809.3Z" transform="translate(-1089.235 -781.783)" fill="#f05a1e"/>
      <path id="Trazado_33688" data-name="Trazado 33688" d="M1183.849,817.594a6.28,6.28,0,1,0,6.28,6.28A6.282,6.282,0,0,0,1183.849,817.594Z" transform="translate(-1041.742 -773.805)" fill="#f05a1e"/>
      <path id="Trazado_33689" data-name="Trazado 33689" d="M1190.8,835.619a3.4,3.4,0,1,0,3.4,3.4A3.41,3.41,0,0,0,1190.8,835.619Z" transform="translate(-1032.287 -756.468)" fill="#f05a1e"/>
      <path id="Trazado_33690" data-name="Trazado 33690" d="M1183.827,835.619a3.4,3.4,0,1,0,3.4,3.4A3.41,3.41,0,0,0,1183.827,835.619Z" transform="translate(-1038.997 -756.468)" fill="#f05a1e"/>
      <path id="Trazado_33691" data-name="Trazado 33691" d="M1172.488,821.409a2.7,2.7,0,1,0,2.7,2.7A2.7,2.7,0,0,0,1172.488,821.409Z" transform="translate(-1049.229 -770.135)" fill="#f05a1e"/>
      <g id="Grupo_4235" data-name="Grupo 4235" transform="translate(0 100.035)">
        <path id="Trazado_33692" data-name="Trazado 33692" d="M1183.418,846.275,1173.4,860.628h1.67l8.8-12.885h4.441l8.637,12.885h2l-10.1-14.353Z" transform="translate(-1045.756 -846.254)" fill="#073e92"/>
        <path id="Trazado_33693" data-name="Trazado 33693" d="M1207.9,856.515a2.429,2.429,0,0,1-2.364,2.529h-13.4a2.594,2.594,0,0,1-2.527-2.65V846.28h-1.833v9.787a4.462,4.462,0,0,0,4.359,4.565h13.16a4.253,4.253,0,0,0,4.481-4.035V846.28H1207.9Z" transform="translate(-1031.928 -846.249)" fill="#073e92"/>
        <path id="Trazado_33694" data-name="Trazado 33694" d="M1182.818,852.4v-2.325a3.808,3.808,0,0,0-3.788-3.79h-17.886V860.6l1.832-.041V847.793h15.6a2.409,2.409,0,0,1,2.445,2.366v2.325a2.209,2.209,0,0,1-.693,1.671l-.284.163.245.2a1.867,1.867,0,0,1,.651,1.63v4.4h1.874v-4.4c0-1.222-.367-1.589-.651-1.713l-.285-.122.365-.245C1182.9,853.625,1182.818,852.523,1182.818,852.4Z" transform="translate(-1057.539 -846.243)" fill="#073e92"/>
        <path id="Trazado_33695" data-name="Trazado 33695" d="M1164.784,846.282H1147.8l.041,14.311h17.028c2.16,0,4.279-1.467,4.279-3.751v-6.81C1169.143,847.708,1166.984,846.282,1164.784,846.282Zm2.605,10.331a2.55,2.55,0,0,1-2.607,2.488H1149.5V847.8h15.278a2.431,2.431,0,0,1,2.607,2.242Z" transform="translate(-1070.379 -846.247)" fill="#073e92"/>
        <path id="Trazado_33696" data-name="Trazado 33696" d="M1136.209,847.8h19.474v-1.508h-21.1v14.312h21.1v-1.549h-19.474Z" transform="translate(-1083.09 -846.235)" fill="#073e92"/>
        <path id="Trazado_33697" data-name="Trazado 33697" d="M1108.333,850.02v6.566a4.034,4.034,0,0,0,4.033,3.994h16.907v-1.509h-16.907a2.443,2.443,0,0,1-2.364-2.486c.041-.734,0-6.484,0-6.605.123-1.3.53-2.2,2.486-2.2h16.785v-1.507h-16.744A3.975,3.975,0,0,0,1108.333,850.02Z" transform="translate(-1108.333 -846.258)" fill="#073e92"/>
        <path id="Trazado_33698" data-name="Trazado 33698" d="M1177.413,851.6l-2.689,3.874h2.119l1.385-2.365h12.915l1.63,2.405h2.037l-2.771-3.914Z" transform="translate(-1044.478 -841.137)" fill="#073e92"/>
        <path id="Trazado_33699" data-name="Trazado 33699" d="M1135.88,851.845h18.578v-1.713h-16.99V848.95h16.99v-1.467H1135.88Z" transform="translate(-1081.838 -845.092)" fill="#073e92"/>
        <path id="Trazado_33700" data-name="Trazado 33700" d="M1135.839,854.445l18.66.041V852.9l-16.989.041v-1.346H1154.5v-1.427h-18.66Z" transform="translate(-1081.878 -842.514)" fill="#073e92"/>
        <path id="Trazado_33701" data-name="Trazado 33701" d="M1109.662,848.943v6.443a1.657,1.657,0,0,0,1.385,1.713h16.948v-1.591h-16.867v-6.564h16.867v-1.467h-16.906A1.319,1.319,0,0,0,1109.662,848.943Z" transform="translate(-1107.055 -845.099)" fill="#073e92"/>
        <path id="Trazado_33702" data-name="Trazado 33702" d="M1190.71,858.269h13.283a1.722,1.722,0,0,0,1.752-1.672V846.28h-1.752v10.4H1190.71v-10.4h-1.587v10.276A1.645,1.645,0,0,0,1190.71,858.269Z" transform="translate(-1030.629 -846.249)" fill="#073e92"/>
        <path id="Trazado_33703" data-name="Trazado 33703" d="M1177.088,850.56h-14.627v5.913h1.873v-4.4h12.754v4.444H1179v-4.485C1179,851.009,1178.065,850.56,1177.088,850.56Z" transform="translate(-1056.273 -842.133)" fill="#073e92"/>
        <path id="Trazado_33704" data-name="Trazado 33704" d="M1178.974,851.248V849.29a1.774,1.774,0,0,0-1.752-1.793h-14.749v5.342h14.668A1.7,1.7,0,0,0,1178.974,851.248Zm-1.889.1h-12.752v-2.407h12.793Z" transform="translate(-1056.261 -845.079)" fill="#073e92"/>
        <path id="Trazado_33705" data-name="Trazado 33705" d="M1163.6,847.5H1149.1v9.623h14.464a1.682,1.682,0,0,0,1.752-1.591V848.88A1.562,1.562,0,0,0,1163.6,847.5Zm-.07,8.018h-12.672v-6.566h12.672Z" transform="translate(-1069.125 -845.081)" fill="#073e92"/>
        <path id="Trazado_33706" data-name="Trazado 33706" d="M1137.255,851.259H1124.3v-4.934h-1.548v6.728H1138.8v-6.769l-1.548.041Z" transform="translate(-1094.466 -846.244)" fill="#073e92"/>
        <path id="Trazado_33707" data-name="Trazado 33707" d="M1122.751,856.92h1.548v-5.342h12.956v5.382l1.548-.041v-6.769h-16.052Z" transform="translate(-1094.466 -842.526)" fill="#073e92"/>
        <path id="Trazado_33708" data-name="Trazado 33708" d="M1181.337,847.48l-4.889,7.137h13.364l-4.767-7.137Zm-1.728,5.371,2.4-3.955h2.323l2.525,3.955Z" transform="translate(-1042.82 -845.095)" fill="#073e92"/>
        <rect id="Rectángulo_2584" data-name="Rectángulo 2584" width="1.711" height="14.312" transform="translate(184.74 0.041)" fill="#073e92"/>
        <path id="Trazado_33709" data-name="Trazado 33709" d="M1201.089,860.617h1.752V846.264h-1.792Z" transform="translate(-1019.16 -846.264)" fill="#073e92"/>
        <path id="Trazado_33710" data-name="Trazado 33710" d="M1121.587,860.618l1.549.041V846.306h-1.549Z" transform="translate(-1095.585 -846.224)" fill="#073e92"/>
        <rect id="Rectángulo_2585" data-name="Rectángulo 2585" width="1.426" height="14.271" transform="translate(45.274 0.041)" fill="#073e92"/>
      </g>
    </g>
  </g>
</svg>
