<svg xmlns="http://www.w3.org/2000/svg" xmlns:xlink="http://www.w3.org/1999/xlink" width="570" height="285" viewBox="0 0 570 285">
  <defs>
    <clipPath id="clip-path">
      <rect id="Rect치ngulo_2611" data-name="Rect치ngulo 2611" width="219.949" height="65.285" fill="none"/>
    </clipPath>
  </defs>
  <g id="Grupo_4465" data-name="Grupo 4465" transform="translate(-11279 -2281)">
    <rect id="Rect치ngulo_2567" data-name="Rect치ngulo 2567" width="570" height="285" transform="translate(11279 2281)" fill="#fff"/>
    <g id="nettv_color" data-name="nettv color" transform="translate(10791.244 1557.207)">
      <g id="Grupo_4293" data-name="Grupo 4293" transform="translate(662.756 833.793)">
        <g id="Grupo_4292" data-name="Grupo 4292" clip-path="url(#clip-path)">
          <g id="Grupo_4291" data-name="Grupo 4291">
            <g id="Grupo_4290" data-name="Grupo 4290" clip-path="url(#clip-path)">
              <path id="Trazado_33812" data-name="Trazado 33812" d="M822.893,855.679H790.912a2.258,2.258,0,0,0-2.28,2.229v3.381a2.259,2.259,0,0,0,2.28,2.231H802.4v34.331a2.258,2.258,0,0,0,2.28,2.231h4.406a2.259,2.259,0,0,0,2.28-2.231V863.52h11.522a2.259,2.259,0,0,0,2.281-2.231v-3.381a2.258,2.258,0,0,0-2.281-2.229" transform="translate(-670.224 -835.091)" fill="#00809d"/>
              <path id="Trazado_33813" data-name="Trazado 33813" d="M850.465,885.85l11.045-28.719a2.288,2.288,0,0,1,2.136-1.452h4.992a2.289,2.289,0,0,1,1.88.97,2.186,2.186,0,0,1,.242,2.074l-16.023,39.946a2.3,2.3,0,0,1-2.124,1.414h-4.346a2.3,2.3,0,0,1-2.126-1.424l-15.856-39.942a2.187,2.187,0,0,1,.246-2.07,2.3,2.3,0,0,1,1.88-.967h4.826a2.283,2.283,0,0,1,2.146,1.477Z" transform="translate(-672.686 -835.091)" fill="#00809d"/>
              <path id="Trazado_33814" data-name="Trazado 33814" d="M889.844,849.412a22.261,22.261,0,0,0-2.945-7.962,12.211,12.211,0,0,0-6.988-5.265,49.576,49.576,0,0,0-10.409-1.916,142.71,142.71,0,0,0-21.341-.152,204.278,204.278,0,0,0-27.845,3.468,119.1,119.1,0,0,0-12.3,3.056c-1.213.436-2.435.85-3.638,1.313a28.728,28.728,0,0,0-5.146,2.51,15.715,15.715,0,0,0-3.075,2.572,120.812,120.812,0,0,1,11.8-2.909,204.292,204.292,0,0,1,27.846-3.468,142.7,142.7,0,0,1,21.341.152,49.543,49.543,0,0,1,10.407,1.916,12.2,12.2,0,0,1,6.988,5.265,22.227,22.227,0,0,1,2.945,7.962c1.742,9.821.492,19.8-3.157,29.9a37.7,37.7,0,0,1-4.587,8.925,25.294,25.294,0,0,1-2.067,2.585c1.25-.346,2.8-.764,4.036-1.2a21.859,21.859,0,0,0,5.348-2.718,20.206,20.206,0,0,0,5.04-5.206,37.687,37.687,0,0,0,4.587-8.925c3.65-10.1,4.9-20.077,3.158-29.9" transform="translate(-670.67 -833.793)" fill="#0d1724"/>
              <path id="Trazado_33815" data-name="Trazado 33815" d="M779.842,860.657h-4.836l-.083-10.136a2.258,2.258,0,0,0-2.212-2.283h-1.643a4.212,4.212,0,0,0-1.875.441l-3.69,1.838a2.315,2.315,0,0,0-1.257,2.077v8.062h-3.115a1.475,1.475,0,0,0-1.475,1.475V863.7h0v1.113a2.259,2.259,0,0,0,2.212,2.3h2.38v20.7q0,5.861.764,7.687a6.2,6.2,0,0,0,2.642,2.948,10.366,10.366,0,0,0,5.285,1.121h6.814a2.2,2.2,0,0,0,2.085-1.73,3.509,3.509,0,0,0,.085-.669c.179-3.852-1.959-3.567-1.959-3.567-1.05,0-2.82-.137-2.82-.137a2.794,2.794,0,0,1-.726-.282,2.667,2.667,0,0,1-1.078-1.266,13.087,13.087,0,0,1-.33-3.742V867.118h4.652a1.629,1.629,0,0,0,1.628-1.642l-.027-3.415a1.416,1.416,0,0,0-1.417-1.405" transform="translate(-668.505 -834.65)" fill="#df1126"/>
              <path id="Trazado_33816" data-name="Trazado 33816" d="M746,888.221a2.085,2.085,0,0,0-1.863,1.176,10.918,10.918,0,0,1-3.178,4.034,8.58,8.58,0,0,1-1,.639,6.017,6.017,0,0,1-5.695-.026,10.91,10.91,0,0,1-2.729-2.1q-3.055-3.193-3.536-9.056a.593.593,0,0,1,.592-.637h26.321a1.725,1.725,0,0,0,1.724-1.724v-.012q0-9.513-4.882-14.756a16.426,16.426,0,0,0-12.587-5.244h-4.72a16.9,16.9,0,0,0-12.948,5.352q-4.991,5.353-4.991,15.046,0,9.368,4.937,14.558t13.365,5.19h4.72a17.722,17.722,0,0,0,10.995-3.255,15.886,15.886,0,0,0,5.385-7.521,1.236,1.236,0,0,0-1.173-1.636Zm-14.3-19.349a10.5,10.5,0,0,1,2.118-1.62,5.885,5.885,0,0,1,5.871-.093,10.46,10.46,0,0,1,2.9,2.472,11.99,11.99,0,0,1,2.333,6.149.987.987,0,0,1-.975,1.12H728.89a.526.526,0,0,1-.526-.572,11.673,11.673,0,0,1,3.335-7.457" transform="translate(-665.945 -835.378)" fill="#df1126"/>
              <path id="Trazado_33817" data-name="Trazado 33817" d="M664.579,899.5h7.1a2.256,2.256,0,0,0,2.229-2.284v-30.4a.746.746,0,0,1,1.375-.421L695.2,897.547a4.2,4.2,0,0,0,3.533,1.958h5.418c3.469,0,3.914-2.353,3.914-5.255V848.532a2.568,2.568,0,0,0-2.536-2.6h-6.353a2.294,2.294,0,0,0-2.264,2.325l.043,30.264a.645.645,0,0,1-1.187.369L676.7,849.517a7.792,7.792,0,0,0-6.527-3.584h-5.264a2.177,2.177,0,0,0-2.149,2.2v49.5a1.847,1.847,0,0,0,1.823,1.87" transform="translate(-662.756 -834.513)" fill="#df1126"/>
            </g>
          </g>
        </g>
      </g>
    </g>
  </g>
</svg>
