<svg xmlns="http://www.w3.org/2000/svg" width="285" height="285" viewBox="0 0 285 285">
  <g id="Grupo_4864" data-name="Grupo 4864" transform="translate(-970 -4256)">
    <rect id="Rectángulo_2588" data-name="Rectángulo 2588" width="285" height="285" transform="translate(970 4256)" fill="#fafafa"/>
    <path id="Trazado_36213" data-name="Trazado 36213" d="M61.1,304.4a16,16,0,0,1-11-4.474l-1.044-1.007-1.044,1.007a16,16,0,0,1-11,4.474A15.817,15.817,0,0,1,21.2,288.586V260.92h7.569v27.666a8.277,8.277,0,0,0,16.555,0V260.92h7.532v27.666a8.277,8.277,0,0,0,16.555,0V260.92h7.532v27.666A15.873,15.873,0,0,1,61.1,304.4m129.158,0V276.729a15.817,15.817,0,0,0-15.809-15.809,16.069,16.069,0,0,0-11,4.474L162.4,266.4l-1.044-1.007a16,16,0,0,0-11-4.474,15.817,15.817,0,0,0-15.809,15.809V304.4h7.532V276.729a8.277,8.277,0,0,1,16.555,0V304.4h7.532V276.729a8.277,8.277,0,0,1,16.555,0V304.4Zm28.822.82c13.05,0,23.676-10.1,23.676-22.558S232.126,260.1,219.076,260.1,195.4,270.242,195.4,282.658c.037,12.416,10.626,22.558,23.676,22.558m0-37.845c8.874,0,16.107,6.861,16.107,15.25,0,8.427-7.233,15.25-16.107,15.25s-16.107-6.823-16.107-15.25c.037-8.389,7.233-15.25,16.107-15.25M105.764,305.216A24.166,24.166,0,0,0,125,295.82l.746-1.007L119.56,290.6l-.671.895a16.591,16.591,0,0,1-13.125,6.413,16.07,16.07,0,0,1-15.287-10.365l-.708-2.013h39.486l.112-1.081c.037-.559.075-1.156.075-1.752,0-12.453-10.626-22.558-23.676-22.558s-23.676,10.1-23.676,22.558c0,12.379,10.626,22.521,23.676,22.521m0-37.92a16.525,16.525,0,0,1,14.579,8.427l1.23,2.237H89.955l1.23-2.237a16.481,16.481,0,0,1,14.579-8.427m136.205-.932a2.983,2.983,0,1,0-2.946-2.983,2.936,2.936,0,0,0,2.946,2.983m0-5.481a2.5,2.5,0,1,1-2.461,2.5,2.444,2.444,0,0,1,2.461-2.5m-.075,2.908.746,1.119h.783l-.82-1.193a.9.9,0,0,0,.671-.932.983.983,0,0,0-1.119-1.044h-1.38v3.132h.671v-1.119h.447Zm.261-1.417a.441.441,0,0,1,.485.447.435.435,0,0,1-.485.41h-.671v-.858h.671" transform="translate(979.022 4115.9)" fill="#61df4f"/>
  </g>
</svg>
