<svg xmlns="http://www.w3.org/2000/svg" width="570" height="285" viewBox="0 0 570 285">
  <g id="Grupo_4463" data-name="Grupo 4463" transform="translate(-12459 -2281)">
    <rect id="Rectángulo_2567" data-name="Rectángulo 2567" width="570" height="285" transform="translate(12459 2281)" fill="#fff"/>
    <g id="Grupo_4456" data-name="Grupo 4456" transform="translate(-4 -54.388)">
      <g id="Grupo_4454" data-name="Grupo 4454" transform="translate(12779.82 2498.183)">
        <path id="Trazado_33660" data-name="Trazado 33660" d="M683.548,859.77c-.646-.092-1.3-.164-1.939-.281a5.947,5.947,0,0,1-4.988-4.468,19.327,19.327,0,0,1,.056-11.051c.958-3.168,3.437-4.27,6.488-4.476a11.588,11.588,0,0,1,3.418.308,5.655,5.655,0,0,1,4.4,3.955A19.181,19.181,0,0,1,691,855.369c-.848,2.743-2.949,3.966-5.7,4.247a3.222,3.222,0,0,0-1.162.154Zm5.307-10.22a14.47,14.47,0,0,0-.439-4.484,3.543,3.543,0,0,0-2.6-2.7,8.54,8.54,0,0,0-3.222-.139,3.635,3.635,0,0,0-3.287,2.941,18.81,18.81,0,0,0,0,8.767,3.675,3.675,0,0,0,3.832,3.039c.492.021.985.019,1.477,0a3.685,3.685,0,0,0,3.807-2.945A14.829,14.829,0,0,0,688.855,849.55Z" transform="translate(-641.931 -839.453)" fill="#dd0a19"/>
        <path id="Trazado_33661" data-name="Trazado 33661" d="M692.15,859.608a5.2,5.2,0,0,0-1.454-.2,6.1,6.1,0,0,1-5.444-6.344c-.115-4.163-.031-8.331-.046-12.5,0-.608.217-.937.862-.889.065,0,.131,0,.2,0,1.76-.044,1.76-.044,1.762,1.675.006,3.837-.021,7.675.031,11.512a3.618,3.618,0,0,0,3.191,3.876,7.51,7.51,0,0,0,2.554.006c2.079-.35,3.2-1.718,3.224-4.057.044-3.87.01-7.742.031-11.612,0-.458-.233-1.114.365-1.306a3.823,3.823,0,0,1,2.137.008c.3.081.3.41.3.669-.06,4.426.285,8.862-.165,13.271-.371,3.643-2.424,5.447-6.084,5.755a5.789,5.789,0,0,0-.669.136Z" transform="translate(-631.809 -839.291)" fill="#dd0a19"/>
        <path id="Trazado_33662" data-name="Trazado 33662" d="M668.063,859.779a7.67,7.67,0,0,0-1.849-.2,6.848,6.848,0,0,1-6.123-5.553,18.466,18.466,0,0,1-.175-7.99c.825-4.2,3.118-6.219,7.41-6.538a13.438,13.438,0,0,1,5.332.689c.344.115.752.225.725.679a3.2,3.2,0,0,1-.39,1.878c-.217.277-.621,0-.923-.091a11.433,11.433,0,0,0-5.634-.356,4.1,4.1,0,0,0-3.407,3.157,16.331,16.331,0,0,0-.01,8.262,4.055,4.055,0,0,0,4.153,3.254,12.314,12.314,0,0,0,3.233-.158,1.032,1.032,0,0,0,.975-1.2c-.042-1.866.035-3.736-.031-5.6-.035-1,.464-1.11,1.266-1.116.833-.008,1.262.169,1.239,1.141-.058,2.52-.05,5.046,0,7.569a1.274,1.274,0,0,1-1.054,1.4,27.074,27.074,0,0,1-4.143.773Z" transform="translate(-659.56 -839.462)" fill="#dd0a19"/>
        <path id="Trazado_33663" data-name="Trazado 33663" d="M707.433,847.382c-.821,3.368-2.743,4.276-6.142,4.534-.881.067-1.771.019-2.656.023-1.435,0-1.435,0-1.437,1.487,0,1.539-.031,3.078.01,4.618.023.827-.242,1.179-1.121,1.17-1.708-.015-1.708.027-1.708-1.645q0-8.3,0-16.608c0-1.3.012-1.308,1.322-1.31,1.837,0,3.674-.019,5.511.006,3.485.048,5.455,1.231,6.219,4.378Zm-10.233-1.6h0c0,.981.008,1.962,0,2.943-.006.527.217.781.762.773,1.21-.019,2.424.042,3.63-.042,1.789-.123,2.664-.875,2.951-2.466a6.525,6.525,0,0,0-.075-2.722,2.511,2.511,0,0,0-2.06-1.981,25.448,25.448,0,0,0-4.305-.179c-.691-.039-.933.271-.912.929C697.221,843.954,697.2,844.87,697.2,845.785Z" transform="translate(-621.861 -839.266)" fill="#dd0a19"/>
        <path id="Trazado_33672" data-name="Trazado 33672" d="M668.358,849.389c0-2.885.019-5.767-.013-8.65-.008-.787.229-1.117,1.06-1.1,2.166.044,4.334-.046,6.5.048,2,.085,3.81.748,4.609,2.774a6.6,6.6,0,0,1-.6,6.553,2.922,2.922,0,0,1-1.552,1.164c-.783.227-.881.541-.46,1.243,1.281,2.137,2.5,4.307,3.734,6.471.19.331.592.679.41,1.05-.221.458-.766.185-1.166.258-1.387.256-2.127-.379-2.691-1.629-.862-1.908-1.945-3.716-2.876-5.592a1.6,1.6,0,0,0-1.687-1.014c-2.829.092-2.424-.4-2.456,2.449-.017,1.573-.04,3.147.006,4.718.033,1.2-.769,1.054-1.527,1.073s-1.325-.029-1.3-1.073C668.4,855.221,668.358,852.3,668.358,849.389Zm2.81-4c0,.852,0,1.7,0,2.556a.668.668,0,0,0,.775.773c1.214-.019,2.431.035,3.641-.048a2.368,2.368,0,0,0,2.389-1.839,5.452,5.452,0,0,0,.127-2.237c-.292-1.648-1-2.368-2.662-2.454-1.143-.058-2.3-.006-3.443-.027-.583-.013-.839.243-.829.82C671.176,843.755,671.166,844.573,671.168,845.392Z" transform="translate(-650.056 -839.269)" fill="#dd0a19"/>
      </g>
      <g id="Grupo_4455" data-name="Grupo 4455" transform="translate(12630 2436.388)">
        <path id="Trazado_33659" data-name="Trazado 33659" d="M716.778,838.916a29.076,29.076,0,0,1-1.314,5.328,14.616,14.616,0,0,1-13.519,9.47,19.4,19.4,0,0,1-5.371-.5,12.491,12.491,0,0,1-8.956-7.615A23.135,23.135,0,0,1,688,826.509c2.4-5.109,6.706-7.663,12.28-8.069a17.2,17.2,0,0,1,8.108,1.212c4.951,2.112,7.14,6.217,8.031,11.232.127.708.238,1.418.356,2.127Zm-7.908-2.81a17.108,17.108,0,0,0-.667-5.73c-.783-2.52-2.187-4.534-4.949-5.086-4.061-.814-7.4.527-8.8,4.9a20.337,20.337,0,0,0-.369,10.587c.954,4.445,3.445,6.317,7.979,6.175a6.055,6.055,0,0,0,5.824-4.08A16.735,16.735,0,0,0,708.87,836.107Z" transform="translate(-481.387 -800.493)" fill="#393e45"/>
        <path id="Trazado_33664" data-name="Trazado 33664" d="M662.84,816.721q-32.42,0-64.837,0c-.36,0-.723-.015-1.083,0-.621.023-.889-.252-.881-.883.019-1.541.017-3.083,0-4.624,0-.581.256-.843.829-.833.327.006.656-.006.985-.006H727.823c.3,0,.591.015.887,0,.621-.023.889.256.883.883-.019,1.541-.015,3.083,0,4.624,0,.579-.252.848-.829.835-.36-.01-.723,0-1.083,0Q695.258,816.722,662.84,816.721Z" transform="translate(-578.521 -809.167)" fill="#393e45"/>
        <path id="Trazado_33665" data-name="Trazado 33665" d="M641.659,837.687q0,7.773,0,15.542c0,7.188-4.178,12.02-11.322,13.086-4.9.731-9.67-.052-14.4-1.266-.652-.169-.812-.527-.685-1.158.316-1.574.631-3.149.862-4.736.114-.781.458-.864,1.135-.727a42.562,42.562,0,0,0,9.56,1.106,14.382,14.382,0,0,0,3.212-.421,4.673,4.673,0,0,0,3.713-3.882c.177-.931.242-1.881.335-2.824.027-.283.117-.639-.158-.827-.308-.208-.558.1-.781.256-4.014,2.843-13.361,1.571-16.689-2.674a15.954,15.954,0,0,1-3.124-7.233,26.825,26.825,0,0,1,.283-11.791,15.4,15.4,0,0,1,14.5-11.549,66.86,66.86,0,0,1,12.62,1.085c.831.121.958.581.956,1.293Q641.643,829.327,641.659,837.687Zm-7.746-2.11c0-2.914-.027-5.83.017-8.746.012-.8-.3-1.131-1.05-1.189s-1.5-.15-2.249-.206c-5.092-.383-8.652,1.61-9.754,6.844a19.8,19.8,0,0,0,.133,8.773c.8,3.3,2.881,5.282,5.907,5.663a10.587,10.587,0,0,0,6.115-1.046,1.39,1.39,0,0,0,.893-1.445C633.895,841.343,633.913,838.46,633.913,835.578Z" transform="translate(-560.377 -800.304)" fill="#393e45"/>
        <path id="Trazado_33666" data-name="Trazado 33666" d="M647.73,838.5c-3.022,0-6.044.023-9.066-.013-.837-.01-1.029.231-.958,1.083.244,2.933,1.268,5.286,4.261,6.346a10.179,10.179,0,0,0,2.985.583,42.531,42.531,0,0,0,9.81-.56c.852-.162,1.333-.056,1.45.958a31.86,31.86,0,0,0,.754,4.155c.246.973-.133,1.268-.989,1.475a36.34,36.34,0,0,1-6.332.862,32.005,32.005,0,0,1-9.891-.571A11.35,11.35,0,0,1,631,844.5a28.517,28.517,0,0,1,.489-17.51c1.86-5.205,5.842-7.783,11.224-8.421a17.969,17.969,0,0,1,5.294.087c5.357.956,8.077,4.5,9.287,9.493a37.986,37.986,0,0,1,.789,9.477c-.008.806-.471.885-1.091.883C653.9,838.5,650.817,838.5,647.73,838.5Zm-3.772-5.961c1.31,0,2.622,0,3.932,0,2.833.012,2.316.106,1.977-2.333-.333-2.372-1.37-4.455-3.887-5.2a5.69,5.69,0,0,0-6.115,1.922,8.7,8.7,0,0,0-1.954,4.74c-.1.67.075.885.737.877C640.417,832.526,642.188,832.541,643.958,832.543Z" transform="translate(-541.902 -800.458)" fill="#393e45"/>
        <path id="Trazado_33667" data-name="Trazado 33667" d="M646.516,836.076q0-7.723,0-15.446c0-1.323.065-1.375,1.4-1.391a9.293,9.293,0,0,1,2.447.194,4.449,4.449,0,0,1,3.295,2.552c.3.712.589.785,1.212.306a17.943,17.943,0,0,1,6.859-3.547,14.3,14.3,0,0,1,7.111.152,7.466,7.466,0,0,1,5.484,5.759,19.358,19.358,0,0,1,.621,4.763c.015,7.446,0,14.89.033,22.336,0,.954-.313,1.256-1.248,1.225-1.739-.06-3.484-.069-5.222,0-1,.042-1.306-.306-1.3-1.289.033-6.231.023-12.461.011-18.693a18.979,18.979,0,0,0-.236-4.018,3.822,3.822,0,0,0-3.959-3.387c-3.107-.175-5.742,1.131-8.331,2.605-.556.317-.417.844-.417,1.316q-.01,10.822-.006,21.644c0,1.966.169,1.791-1.81,1.8-1.577.006-3.156-.048-4.73.019-.973.042-1.231-.342-1.227-1.258C646.532,846.506,646.516,841.291,646.516,836.076Z" transform="translate(-523.881 -800.51)" fill="#393e45"/>
        <path id="Trazado_33668" data-name="Trazado 33668" d="M596.058,836.054c0-5.18.023-10.362-.021-15.542-.01-1,.315-1.35,1.3-1.289a13.325,13.325,0,0,1,2.543.219,4.4,4.4,0,0,1,3.216,2.508c.34.8.679.758,1.291.292a18.914,18.914,0,0,1,6.111-3.314,14.1,14.1,0,0,1,7.96.025,7.234,7.234,0,0,1,5.1,5.022,16.54,16.54,0,0,1,.783,4.636c.254,7.638.089,15.277.133,22.915.006,1.431-.006,1.431-1.41,1.433q-2.412,0-4.826,0c-1.479,0-1.483,0-1.483-1.441q0-9.491,0-18.984a17.463,17.463,0,0,0-.367-3.71,3.813,3.813,0,0,0-3.884-3.235c-3.074-.177-5.678,1.125-8.25,2.547-.59.327-.439.906-.439,1.41q-.012,10.722,0,21.442c0,.3-.023.594,0,.885.063.787-.242,1.121-1.075,1.1-1.837-.046-3.678-.052-5.515,0-.906.029-1.187-.285-1.181-1.183C596.075,846.547,596.058,841.3,596.058,836.054Z" transform="translate(-578.522 -800.51)" fill="#393e45"/>
        <path id="Trazado_33669" data-name="Trazado 33669" d="M671.665,836.741c-.035-4.211.571-7.729,2.439-10.947a14.3,14.3,0,0,1,10.678-7.123,19.762,19.762,0,0,1,11.293,1.279c1.333.594,1.325.619.846,1.947-.456,1.267-.96,2.516-1.366,3.795-.256.8-.583,1-1.421.673a15.363,15.363,0,0,0-7.429-1.012,6.952,6.952,0,0,0-6.236,4.976,19.4,19.4,0,0,0-.15,11.53c.843,3.062,3.234,4.274,6.171,4.7a23.306,23.306,0,0,0,8.025-.341c1.485-.3,1.5-.269,1.752,1.183.237,1.356.458,2.714.681,4.072.088.525.063.95-.61,1.114a28.312,28.312,0,0,1-16.119-.34c-4.592-1.546-6.963-5.03-7.931-9.608A26.419,26.419,0,0,1,671.665,836.741Z" transform="translate(-496.641 -800.5)" fill="#393e45"/>
        <path id="Trazado_33670" data-name="Trazado 33670" d="M672.323,835.646q0,7.77,0,15.544c0,1.3-.017,1.314-1.32,1.316q-2.515.006-5.026,0c-1.391,0-1.4,0-1.4-1.443q0-7.526,0-15.054,0-7.967,0-15.938c0-1.224.056-1.276,1.277-1.281q2.562-.009,5.124,0c1.3,0,1.341.04,1.341,1.314Q672.327,827.872,672.323,835.646Z" transform="translate(-504.31 -800.057)" fill="#393e45"/>
        <path id="Trazado_33671" data-name="Trazado 33671" d="M587.909,835.526q0-7.67,0-15.342c0-1.381.008-1.391,1.35-1.4,1.739,0,3.48.019,5.219-.006.746-.013,1.048.25,1.048,1.029q-.028,15.833,0,31.667c0,.847-.348,1.058-1.118,1.041-1.708-.037-3.416-.008-5.122-.013-1.372,0-1.377,0-1.379-1.345Q587.905,843.345,587.909,835.526Z" transform="translate(-587.326 -800.059)" fill="#393e45"/>
        <path id="Trazado_33673" data-name="Trazado 33673" d="M596.4,814.131a4.384,4.384,0,1,1-4.4-4.338A4.317,4.317,0,0,1,596.4,814.131Z" transform="translate(-587.628 -809.793)" fill="#393e45"/>
        <path id="Trazado_33674" data-name="Trazado 33674" d="M668.749,818.547a4.378,4.378,0,1,1,4.432-4.347A4.441,4.441,0,0,1,668.749,818.547Z" transform="translate(-504.598 -809.793)" fill="#393e45"/>
      </g>
    </g>
  </g>
</svg>
