<svg xmlns="http://www.w3.org/2000/svg" width="285" height="285" viewBox="0 0 285 285">
  <g id="chedarui" transform="translate(-665 -4256)">
    <rect id="Rectángulo_2587" data-name="Rectángulo 2587" width="285" height="285" transform="translate(665 4256)" fill="#fafafa"/>
    <g id="Grupo_4862" data-name="Grupo 4862" transform="translate(724 4347)">
      <path id="Trazado_33675" data-name="Trazado 33675" d="M1161.284,828.085l-17.677,21.066h11.4l15.958-19.07,16.536,19.07,11.127-.081-18.255-20.984Z" transform="translate(-1081.67 -770.471)" fill="#f05a1e"/>
      <path id="Trazado_33676" data-name="Trazado 33676" d="M1152.781,823.875l-23.582,28.4h14.337l23.826-28.4Z" transform="translate(-1092.562 -773.654)" fill="#f05a1e"/>
      <path id="Trazado_33677" data-name="Trazado 33677" d="M1173.263,821.421l11.641,23.4h19.29V830.757l-21.62-.017-4.969-9.344Z" transform="translate(-1059.254 -775.527)" fill="#f05a1e"/>
      <path id="Trazado_33678" data-name="Trazado 33678" d="M1156.6,809.607l15.5,18.345h12.195l-15.437-18.345Z" transform="translate(-1071.853 -784.438)" fill="#f05a1e"/>
      <path id="Trazado_33679" data-name="Trazado 33679" d="M1160.765,811.224V830.3l-9.686,8.252h23.656l.139-10.435Z" transform="translate(-1076.022 -783.216)" fill="#f05a1e"/>
      <path id="Trazado_33680" data-name="Trazado 33680" d="M1133.116,831.658l-12.439,14.736h11.168l12.651-14.736Z" transform="translate(-1099.002 -767.771)" fill="#f05a1e"/>
      <path id="Trazado_33681" data-name="Trazado 33681" d="M1127.753,817.758l15.355,18.858,6.378-7.274-9.6-11.633Z" transform="translate(-1093.654 -778.314)" fill="#f05a1e"/>
      <path id="Trazado_33682" data-name="Trazado 33682" d="M1143.667,806.332l16.324,20.048,3.6.008V815.432l-7.519-9.132Z" transform="translate(-1081.625 -786.938)" fill="#f05a1e"/>
      <path id="Trazado_33683" data-name="Trazado 33683" d="M1151.165,795.273a8.554,8.554,0,1,0,8.553,8.555A8.563,8.563,0,0,0,1151.165,795.273Z" transform="translate(-1082.422 -795.273)" fill="#f05a1e"/>
      <path id="Trazado_33684" data-name="Trazado 33684" d="M1143.321,807.695l.016,26.051h14.6V825.51Z" transform="translate(-1081.886 -785.884)" fill="#f05a1e"/>
      <path id="Trazado_33685" data-name="Trazado 33685" d="M1163.548,800.3a7.152,7.152,0,1,0,7.154,7.152A7.16,7.16,0,0,0,1163.548,800.3Z" transform="translate(-1072.004 -791.476)" fill="#f05a1e"/>
      <path id="Trazado_33686" data-name="Trazado 33686" d="M1127.869,819.638l.041,18.712,12.936-.049,1.067-1.312Z" transform="translate(-1093.567 -776.856)" fill="#f05a1e"/>
      <path id="Trazado_33687" data-name="Trazado 33687" d="M1134.6,809.3a6.411,6.411,0,1,0,6.411,6.411A6.418,6.418,0,0,0,1134.6,809.3Z" transform="translate(-1093.324 -784.671)" fill="#f05a1e"/>
      <path id="Trazado_33688" data-name="Trazado 33688" d="M1183.19,817.594a5.621,5.621,0,1,0,5.62,5.62A5.623,5.623,0,0,0,1183.19,817.594Z" transform="translate(-1056 -778.401)" fill="#f05a1e"/>
      <path id="Trazado_33689" data-name="Trazado 33689" d="M1190.446,835.619a3.046,3.046,0,1,0,3.046,3.046A3.052,3.052,0,0,0,1190.446,835.619Z" transform="translate(-1048.569 -764.776)" fill="#f05a1e"/>
      <path id="Trazado_33690" data-name="Trazado 33690" d="M1183.47,835.619a3.046,3.046,0,1,0,3.047,3.046A3.053,3.053,0,0,0,1183.47,835.619Z" transform="translate(-1053.842 -764.776)" fill="#f05a1e"/>
      <path id="Trazado_33691" data-name="Trazado 33691" d="M1172.2,821.409a2.419,2.419,0,1,0,2.42,2.42A2.42,2.42,0,0,0,1172.2,821.409Z" transform="translate(-1061.883 -775.518)" fill="#f05a1e"/>
      <g id="Grupo_4235" data-name="Grupo 4235" transform="translate(0 89.534)">
        <path id="Trazado_33692" data-name="Trazado 33692" d="M1182.365,846.275l-8.97,12.846h1.495l7.877-11.532h3.975l7.731,11.532h1.787l-9.044-12.846Z" transform="translate(-1059.154 -846.256)" fill="#073e92"/>
        <path id="Trazado_33693" data-name="Trazado 33693" d="M1205.787,855.44a2.174,2.174,0,0,1-2.116,2.263h-12a2.322,2.322,0,0,1-2.262-2.372V846.28h-1.64v8.76a3.994,3.994,0,0,0,3.9,4.086h11.778a3.807,3.807,0,0,0,4.01-3.612V846.28h-1.677Z" transform="translate(-1048.286 -846.252)" fill="#073e92"/>
        <path id="Trazado_33694" data-name="Trazado 33694" d="M1180.543,851.759v-2.081a3.408,3.408,0,0,0-3.39-3.392h-16.008V859.1l1.64-.037V847.635h13.966a2.157,2.157,0,0,1,2.188,2.117v2.081a1.977,1.977,0,0,1-.62,1.5l-.254.146.219.182a1.671,1.671,0,0,1,.583,1.459v3.942h1.677v-3.942c0-1.094-.328-1.422-.583-1.533l-.255-.109.327-.219C1180.617,852.855,1180.543,851.868,1180.543,851.759Z" transform="translate(-1068.414 -846.248)" fill="#073e92"/>
        <path id="Trazado_33695" data-name="Trazado 33695" d="M1163,846.282H1147.8l.037,12.809h15.241a3.6,3.6,0,0,0,3.829-3.357v-6.095C1166.9,847.558,1164.969,846.282,1163,846.282Zm2.332,9.246a2.282,2.282,0,0,1-2.334,2.227h-13.675v-10.11H1163a2.176,2.176,0,0,1,2.334,2.007Z" transform="translate(-1078.505 -846.251)" fill="#073e92"/>
        <path id="Trazado_33696" data-name="Trazado 33696" d="M1136.038,847.645h17.43v-1.35h-18.889V859.1h18.889v-1.387h-17.43Z" transform="translate(-1088.494 -846.241)" fill="#073e92"/>
        <path id="Trazado_33697" data-name="Trazado 33697" d="M1108.333,849.627V855.5a3.61,3.61,0,0,0,3.61,3.575h15.132v-1.35h-15.132a2.186,2.186,0,0,1-2.116-2.225c.037-.657,0-5.8,0-5.912.11-1.168.474-1.972,2.225-1.972h15.023v-1.348h-14.986A3.558,3.558,0,0,0,1108.333,849.627Z" transform="translate(-1108.333 -846.259)" fill="#073e92"/>
        <path id="Trazado_33698" data-name="Trazado 33698" d="M1177.13,851.6l-2.406,3.467h1.9l1.24-2.116h11.56l1.459,2.153h1.823l-2.48-3.5Z" transform="translate(-1058.15 -842.234)" fill="#073e92"/>
        <path id="Trazado_33699" data-name="Trazado 33699" d="M1135.88,851.387h16.628v-1.533H1137.3V848.8h15.206v-1.313H1135.88Z" transform="translate(-1087.511 -845.343)" fill="#073e92"/>
        <path id="Trazado_33700" data-name="Trazado 33700" d="M1135.839,854l16.7.036v-1.423l-15.206.036v-1.2h15.206v-1.277h-16.7Z" transform="translate(-1087.542 -843.317)" fill="#073e92"/>
        <path id="Trazado_33701" data-name="Trazado 33701" d="M1109.662,848.789v5.766a1.484,1.484,0,0,0,1.24,1.533h15.169v-1.424h-15.1v-5.875h15.1v-1.313h-15.132A1.181,1.181,0,0,0,1109.662,848.789Z" transform="translate(-1107.329 -845.348)" fill="#073e92"/>
        <path id="Trazado_33702" data-name="Trazado 33702" d="M1190.543,857.01h11.889a1.542,1.542,0,0,0,1.568-1.5V846.28h-1.568v9.306h-11.889V846.28h-1.42v9.2A1.472,1.472,0,0,0,1190.543,857.01Z" transform="translate(-1047.266 -846.252)" fill="#073e92"/>
        <path id="Trazado_33703" data-name="Trazado 33703" d="M1175.553,850.56h-13.091v5.292h1.677V851.91h11.415v3.977h1.714v-4.014C1177.267,850.962,1176.427,850.56,1175.553,850.56Z" transform="translate(-1067.419 -843.017)" fill="#073e92"/>
        <path id="Trazado_33704" data-name="Trazado 33704" d="M1177.242,850.854V849.1a1.588,1.588,0,0,0-1.568-1.6h-13.2v4.781H1175.6A1.526,1.526,0,0,0,1177.242,850.854Zm-1.691.088h-11.413v-2.154h11.45Z" transform="translate(-1067.41 -845.333)" fill="#073e92"/>
        <path id="Trazado_33705" data-name="Trazado 33705" d="M1162.081,847.5H1149.1v8.613h12.946a1.506,1.506,0,0,0,1.568-1.424v-5.949A1.4,1.4,0,0,0,1162.081,847.5Zm-.063,7.176h-11.342v-5.877h11.342Z" transform="translate(-1077.52 -845.334)" fill="#073e92"/>
        <path id="Trazado_33706" data-name="Trazado 33706" d="M1135.732,850.737h-11.6v-4.416h-1.386v6.022h14.367v-6.058l-1.386.036Z" transform="translate(-1097.435 -846.248)" fill="#073e92"/>
        <path id="Trazado_33707" data-name="Trazado 33707" d="M1122.751,856.209h1.386v-4.781h11.6v4.817l1.386-.036v-6.058h-14.367Z" transform="translate(-1097.435 -843.326)" fill="#073e92"/>
        <path id="Trazado_33708" data-name="Trazado 33708" d="M1180.824,847.48l-4.375,6.388h11.961l-4.267-6.388Zm-1.547,4.808,2.151-3.54h2.079l2.26,3.54Z" transform="translate(-1056.847 -845.345)" fill="#073e92"/>
        <rect id="Rectángulo_2584" data-name="Rectángulo 2584" width="1.532" height="12.81" transform="translate(165.348 0.036)" fill="#073e92"/>
        <path id="Trazado_33709" data-name="Trazado 33709" d="M1201.084,859.111h1.568V846.264h-1.6Z" transform="translate(-1038.252 -846.264)" fill="#073e92"/>
        <path id="Trazado_33710" data-name="Trazado 33710" d="M1121.587,859.116l1.386.036V846.306h-1.386Z" transform="translate(-1098.314 -846.233)" fill="#073e92"/>
        <rect id="Rectángulo_2585" data-name="Rectángulo 2585" width="1.276" height="12.773" transform="translate(40.521 0.037)" fill="#073e92"/>
      </g>
    </g>
  </g>
</svg>
