<svg xmlns="http://www.w3.org/2000/svg" xmlns:xlink="http://www.w3.org/1999/xlink" width="570" height="285" viewBox="0 0 570 285">
  <defs>
    <clipPath id="clip-path">
      <rect id="Rectángulo_2591" data-name="Rectángulo 2591" width="174.046" height="94.794" transform="translate(607.353 274.374)" fill="none"/>
    </clipPath>
    <clipPath id="clip-path-2">
      <rect id="Rectángulo_2590" data-name="Rectángulo 2590" width="174.046" height="94.793" transform="translate(607.353 274.374)" fill="none"/>
    </clipPath>
  </defs>
  <g id="Grupo_4262" data-name="Grupo 4262" transform="translate(-11279 -1976)">
    <rect id="Rectángulo_2567" data-name="Rectángulo 2567" width="570" height="285" transform="translate(11279 1976)" fill="#fff"/>
    <g id="Dish_Color_RGB" data-name="Dish Color RGB" transform="translate(10870.577 1796.626)">
      <g id="Grupo_4261" data-name="Grupo 4261">
        <g id="Grupo_4260" data-name="Grupo 4260" clip-path="url(#clip-path)">
          <g id="Grupo_4259" data-name="Grupo 4259">
            <g id="Grupo_4258" data-name="Grupo 4258" clip-path="url(#clip-path-2)">
              <path id="Trazado_33747" data-name="Trazado 33747" d="M762.824,294.313c-11.93-16.736-46.07-12.862-80.209,7.878a10.769,10.769,0,0,0-.682-1.712c42.08-26.609,83.533-34.072,95.837-16.823,7.594,10.657,2.431,28.672-11.809,48.21a20.351,20.351,0,0,0-2.205-8.326c4.34-11.455,4.36-21.809-.932-29.227" fill="#eb171f"/>
              <path id="Trazado_33748" data-name="Trazado 33748" d="M689.191,332.845c0,8.011,5.874,11.988,12.413,15.685l5.835,3.317c3.176,1.788,4.6,3.812,4.6,6.555,0,3.632-2.682,5.89-7,5.89-7.957,0-10.351-6.613-11.646-13.081l-.2-1.009h-3.9v18.211h3.026l.374-.42c.7-.788.7-.788,1.376-.788a18.847,18.847,0,0,1,4.415.724,31.959,31.959,0,0,0,7.254,1.085c6.583,0,15.852-4.413,15.852-14.232,0-6.848-4.1-9.914-9.054-12.948l-10.881-6.448a6.729,6.729,0,0,1-3.712-6.067c0-2.122,1.7-5.28,6.391-5.28,3.484,0,7.766,1.29,9.941,11.38l.211.994h3.818l-.477-16.3h-3.053l-.366.63a.854.854,0,0,1-.72.476,15.92,15.92,0,0,1-1.529-.45,26.223,26.223,0,0,0-7.825-1.562c-8.777,0-15.146,5.733-15.146,13.634"/>
              <path id="Trazado_33749" data-name="Trazado 33749" d="M618.516,342c0-12.884,6.046-17.46,11.227-17.46a9.181,9.181,0,0,1,9.106,9.411V356.3c-.692,2.884-3.926,4.978-7.7,4.978-5.829,0-12.634-5.058-12.634-19.279m29.44-45.273-.326.115v0c-1.807.646-8.923,2.979-14.667,4.393l-.955.237v3.988l1.381-.145c3.224-.332,4.443.089,4.9.5.528.476.557,1.444.557,2.977v13.422a15.24,15.24,0,0,0-9.408-3c-5.725,0-11.415,2.874-15.606,7.884a28.65,28.65,0,0,0-6.482,18.125c0,23.127,17.57,23.794,19.571,23.794a16.368,16.368,0,0,0,11.925-4.491v3.568l1.445,1.077,16.259-5.751v-3.853l-1.352.1c-3.16.245-4.372-.213-4.834-.637s-.553-1.2-.553-2.542V297.376l-1.737-.693Z"/>
              <path id="Trazado_33750" data-name="Trazado 33750" d="M769.4,364.012c-4.431-.784-5-.887-5-7.322V336.466c0-11.449-4.588-17.255-13.625-17.255a18.166,18.166,0,0,0-13.538,6.257V297.616l-1.654-.993-.158.067-.426.173c-2.125.869-10.368,3.329-14.149,4.383l-.918.254v3.968l1.4-.155a19.4,19.4,0,0,1,2.376-.1,2.728,2.728,0,0,1,1.975.582c.633.641.612,1.913.595,2.936,0,.005-.005.455-.005.455v47.3c0,6.428-.4,6.987-5.311,7.507l-1.129.124v3.891H743.16v-3.992l-.2-.023c-4.506-.481-5.721-.61-5.721-7.408V332.745c.566-.7,4.711-5.587,9.809-5.587,4.425,0,6.4,2.993,6.4,9.711V356.69c0,6.243-1.077,6.959-5.684,7.3l-.091.007v4.01h22.775v-3.818l-1.037-.181"/>
              <path id="Trazado_33751" data-name="Trazado 33751" d="M672.736,367.08c7.7,0,11.584-4.448,14.32-9.721.182-.348.04-.589-.31-.429a30.337,30.337,0,0,1-28.025,0c-.346-.16-.489.081-.307.429,2.735,5.273,6.624,9.721,14.322,9.721" fill="#eb171f"/>
              <path id="Trazado_33752" data-name="Trazado 33752" d="M661.487,344.6c2.121,4.111,5.169,7.7,11.249,7.7s9.126-3.588,11.246-7.7c.143-.276.028-.484-.27-.353a25.283,25.283,0,0,1-21.957,0c-.293-.131-.413.077-.268.353" fill="#eb171f"/>
              <path id="Trazado_33753" data-name="Trazado 33753" d="M664.3,332.9c1.557,3.055,3.838,5.85,8.431,5.85s6.871-2.8,8.429-5.85c.107-.21.016-.388-.232-.283a21.043,21.043,0,0,1-16.393,0c-.248-.105-.343.073-.235.283" fill="#eb171f"/>
              <path id="Trazado_33754" data-name="Trazado 33754" d="M672.736,326.018c3.2,0,4.757-2.052,5.782-4.106.077-.154.006-.3-.2-.224a18.315,18.315,0,0,1-11.168,0c-.206-.076-.277.07-.2.224,1.029,2.054,2.585,4.106,5.785,4.106" fill="#eb171f"/>
              <path id="Trazado_33755" data-name="Trazado 33755" d="M663.453,305.361a8.764,8.764,0,1,1,8.766,8.764,8.765,8.765,0,0,1-8.766-8.764" fill="#eb171f"/>
              <path id="Trazado_33756" data-name="Trazado 33756" d="M778.683,368.218A2.716,2.716,0,1,1,781.4,365.5a2.719,2.719,0,0,1-2.716,2.716m0-5.207a2.491,2.491,0,1,0,2.49,2.491,2.493,2.493,0,0,0-2.49-2.491"/>
              <path id="Trazado_33757" data-name="Trazado 33757" d="M777.8,364.01h1.066q.948,0,.948.808a.774.774,0,0,1-.2.571.916.916,0,0,1-.5.25l.8,1.248h-.476l-.795-1.246h-.43v1.249H777.8Zm.418,1.249h.5a1.174,1.174,0,0,0,.517-.085.365.365,0,0,0,.163-.36.347.347,0,0,0-.169-.323.92.92,0,0,0-.471-.1h-.537Z"/>
            </g>
          </g>
        </g>
      </g>
    </g>
  </g>
</svg>
