<svg xmlns="http://www.w3.org/2000/svg" width="285" height="285" viewBox="0 0 285 285">
  <g id="dish" transform="translate(-360 -3647)">
    <rect id="Rectángulo_2567" data-name="Rectángulo 2567" width="285" height="285" transform="translate(360 3647)" fill="#fafafa"/>
    <g id="Dish_Color_RGB" data-name="Dish Color RGB" transform="translate(503.002 3789.397)">
      <g id="Grupo_4801" data-name="Grupo 4801" transform="translate(-88.09 -47.978)">
        <g id="Grupo_4800" data-name="Grupo 4800">
          <g id="Grupo_4799" data-name="Grupo 4799">
            <path id="Trazado_36032" data-name="Trazado 36032" d="M907.852,20.183c-12.076-16.942-46.635-13.02-81.192,7.974a10.86,10.86,0,0,0-.691-1.732C868.565-.511,910.526-8.065,922.981,9.4c7.687,10.788,2.461,29.023-11.954,48.8a20.619,20.619,0,0,0-2.232-8.428c4.392-11.6,4.413-22.077-.944-29.585" transform="translate(-750.475 0)" fill="#ed1420"/>
            <path id="Trazado_36033" data-name="Trazado 36033" d="M906.358,510.364c0,8.109,5.946,12.135,12.565,15.877l5.906,3.358c3.215,1.81,4.654,3.859,4.654,6.635,0,3.676-2.714,5.962-7.085,5.962-8.054,0-10.478-6.693-11.789-13.241l-.2-1.021h-3.944v18.433h3.063l.379-.425c.707-.8.707-.8,1.393-.8a19.085,19.085,0,0,1,4.468.733,32.391,32.391,0,0,0,7.343,1.1c6.664,0,16.046-4.468,16.046-14.407,0-6.932-4.151-10.035-9.165-13.106,0,0-11.014-6.527-11.014-6.527a6.815,6.815,0,0,1-3.758-6.142c0-2.148,1.722-5.344,6.47-5.344,3.526,0,7.86,1.307,10.062,11.52l.214,1.006h3.864l-.483-16.5h-3.091l-.37.638a.865.865,0,0,1-.73.482c-.158-.007-1.027-.288-1.547-.456a26.54,26.54,0,0,0-7.92-1.581c-8.885,0-15.332,5.8-15.332,13.8" transform="translate(-823.516 -451.176)"/>
            <path id="Trazado_36034" data-name="Trazado 36034" d="M11.3,292.937c0-13.041,6.12-17.674,11.364-17.674a9.293,9.293,0,0,1,9.218,9.526v22.624c-.7,2.92-3.974,5.039-7.793,5.039-5.9,0-12.789-5.12-12.789-19.516m29.8-45.827-.33.116v0c-1.829.653-9.032,3.015-14.847,4.447l-.966.24v4.037l1.4-.148c3.264-.336,4.5.09,4.963.509.535.482.564,1.462.564,3.014v13.586a15.422,15.422,0,0,0-9.523-3.041c-5.8,0-11.555,2.909-15.8,7.981A29,29,0,0,0,0,296.2c0,23.41,17.785,24.086,19.811,24.086a16.568,16.568,0,0,0,12.071-4.546v3.611l1.463,1.09L49.8,314.617v-3.9l-1.369.106c-3.2.248-4.425-.216-4.893-.645s-.56-1.211-.56-2.573V247.766l-1.758-.7Z" transform="translate(0 -224.482)"/>
            <path id="Trazado_36035" data-name="Trazado 36035" d="M1295.851,314.621c-4.485-.794-5.065-.9-5.065-7.412V286.737c0-11.589-4.644-17.466-13.792-17.466a18.39,18.39,0,0,0-13.7,6.334V247.411l-1.674-1-.161.067-.431.175c-2.151.88-10.5,3.37-14.322,4.437l-.929.257v4.016l1.415-.157a19.757,19.757,0,0,1,2.406-.1,2.762,2.762,0,0,1,2,.588c.641.65.62,1.937.6,2.972,0,.006,0,.46,0,.46v47.878c0,6.507-.4,7.073-5.376,7.6l-1.143.125v3.939h23.617v-4.041l-.207-.023c-4.561-.487-5.791-.618-5.791-7.5V282.971c.573-.707,4.769-5.656,9.929-5.656,4.479,0,6.473,3.03,6.473,9.831v20.063c0,6.32-1.09,7.045-5.754,7.394l-.093.007v4.059H1296.9V314.8l-1.05-.184" transform="translate(-1131.816 -223.884)"/>
            <path id="Trazado_36036" data-name="Trazado 36036" d="M579.194,924.072c7.79,0,11.726-4.5,14.5-9.84.184-.352.041-.6-.314-.434a30.714,30.714,0,0,1-28.368,0c-.35-.162-.5.082-.311.434,2.769,5.337,6.706,9.84,14.5,9.84" transform="translate(-513.009 -830.23)" fill="#ed1420"/>
            <path id="Trazado_36037" data-name="Trazado 36037" d="M598.912,773.772c2.147,4.162,5.233,7.794,11.387,7.794s9.237-3.632,11.383-7.794c.145-.279.029-.49-.273-.357a25.591,25.591,0,0,1-22.226,0c-.3-.133-.418.078-.272.357" transform="translate(-544.115 -702.687)" fill="#ed1420"/>
            <path id="Trazado_36038" data-name="Trazado 36038" d="M630.3,644.977c1.576,3.093,3.885,5.922,8.534,5.922s6.955-2.829,8.533-5.922c.108-.212.015-.393-.235-.286a21.31,21.31,0,0,1-16.595,0c-.25-.107-.347.073-.237.286" transform="translate(-572.646 -585.737)" fill="#ed1420"/>
            <path id="Trazado_36039" data-name="Trazado 36039" d="M665.595,528.169c3.238,0,4.815-2.077,5.852-4.156.078-.156.007-.3-.2-.227a18.541,18.541,0,0,1-11.3,0c-.209-.077-.281.071-.2.227,1.042,2.079,2.617,4.156,5.856,4.156" transform="translate(-599.41 -475.893)" fill="#ed1420"/>
            <path id="Trazado_36040" data-name="Trazado 36040" d="M621.3,254.964a8.872,8.872,0,1,1,8.874,8.871,8.874,8.874,0,0,1-8.874-8.871" transform="translate(-564.513 -223.597)" fill="#ed1420"/>
            <path id="Trazado_36041" data-name="Trazado 36041" d="M1870.145,984.649a2.749,2.749,0,1,1,2.749-2.749,2.753,2.753,0,0,1-2.749,2.749m0-5.27a2.521,2.521,0,1,0,2.521,2.521,2.524,2.524,0,0,0-2.521-2.521" transform="translate(-1696.714 -889.655)"/>
            <path id="Trazado_36042" data-name="Trazado 36042" d="M1887.662,992.714h1.079q.96,0,.96.818a.785.785,0,0,1-.2.578.915.915,0,0,1-.51.253l.815,1.264h-.482l-.8-1.262h-.435v1.264h-.424Zm.424,1.264h.5a1.192,1.192,0,0,0,.523-.086.371.371,0,0,0,.165-.364.352.352,0,0,0-.172-.327.931.931,0,0,0-.477-.1h-.543Z" transform="translate(-1715.129 -901.98)"/>
          </g>
        </g>
      </g>
    </g>
  </g>
</svg>
