<svg xmlns="http://www.w3.org/2000/svg" width="285" height="285" viewBox="0 0 285 285">
  <g id="fpop" transform="translate(-970 -3647)">
    <rect id="Rectángulo_2567" data-name="Rectángulo 2567" width="285" height="285" transform="translate(970 3647)" fill="#fafafa"/>
    <g id="FREEDOMPOP_DOSLINEAS" data-name="FREEDOMPOP DOSLINEAS" transform="translate(1112.511 3789.763)">
      <g id="Grupo_4837" data-name="Grupo 4837" transform="translate(-78.511 -46.763)">
        <g id="Grupo_4836" data-name="Grupo 4836" transform="translate(11.294)">
          <path id="Trazado_36101" data-name="Trazado 36101" d="M8.746,0,4.311,26.636h6.362l1.7-10.062h9.689l.895-5.3h-9.7L14.147,5.7H25.206L26.167,0Z" transform="translate(-4.311)" fill="#00abe8"/>
          <path id="Trazado_36102" data-name="Trazado 36102" d="M20.034,5.594C21.219,3.86,23,2.529,24.661,2.529a4.526,4.526,0,0,1,1.962.44l-1.41,5.623a5.235,5.235,0,0,0-1.928-.3A5.158,5.158,0,0,0,20,10.033l-2.106,12.5H11.75L15.041,2.969h4.774Z" transform="translate(7.741 4.097)" fill="#00abe8"/>
          <path id="Trazado_36103" data-name="Trazado 36103" d="M33.645,20.541a16.022,16.022,0,0,1-8.426,2.479c-5.253,0-8.143-3.031-8.143-8.1,0-7.323,4.768-12.39,11.656-12.39,4.913,0,7.247,2.885,7.247,6.288,0,4.4-2.735,6.063-12.393,6.618,0,1.446,1.114,2.628,3.257,2.628a14.775,14.775,0,0,0,5.887-1.441ZM30.213,8.929c0-1-.778-1.745-2.227-1.745-2.327,0-3.92,1.892-4.328,4.218,3.369-.257,6.555-.257,6.555-2.473" transform="translate(16.369 4.095)" fill="#00abe8"/>
          <path id="Trazado_36104" data-name="Trazado 36104" d="M41.225,20.541a16.028,16.028,0,0,1-8.434,2.479c-5.251,0-8.138-3.031-8.138-8.1,0-7.323,4.774-12.39,11.654-12.39,4.918,0,7.247,2.885,7.247,6.288,0,4.4-2.733,6.063-12.39,6.618,0,1.446,1.114,2.628,3.254,2.628A14.774,14.774,0,0,0,40.3,16.621ZM37.785,8.929c0-1-.776-1.745-2.217-1.745-2.334,0-3.922,1.892-4.326,4.218,3.364-.257,6.542-.257,6.542-2.473" transform="translate(28.644 4.095)" fill="#00abe8"/>
          <path id="Trazado_36105" data-name="Trazado 36105" d="M44.967,24.264a8.132,8.132,0,0,1-6.215,2.851c-4.368,0-6.471-2.851-6.471-7.619,0-8.512,4.994-12.875,10.166-12.875a5.938,5.938,0,0,1,4.74,2.143L48.635,0h6.1L50.294,26.632H44.928Zm1.4-10.946A3.833,3.833,0,0,0,43.3,11.8c-2.767,0-4.4,2.366-4.4,6.545,0,2.112.739,3.626,2.772,3.626a5.29,5.29,0,0,0,3.55-1.666Z" transform="translate(41.001)" fill="#00abe8"/>
          <path id="Trazado_36106" data-name="Trazado 36106" d="M52.168,2.526c5.143,0,8.546,3,8.546,8.324a13.283,13.283,0,0,1-.147,2C59.5,20.431,54.533,23.02,48.987,23.02c-5.513,0-8.51-2.955-8.51-8.174a17.949,17.949,0,0,1,.115-1.955c.92-7.441,6.17-10.365,11.575-10.365M46.8,14.549c0,2.408,1.224,3.406,3.071,3.406,2.031,0,3.731-1.331,4.331-5.1A11.485,11.485,0,0,0,54.355,11c0-2.442-1.192-3.4-2.934-3.4-2.18,0-3.878,1.444-4.43,4.994a13.27,13.27,0,0,0-.186,1.96" transform="translate(54.279 4.092)" fill="#00abe8"/>
          <path id="Trazado_36107" data-name="Trazado 36107" d="M56.867,2.972l.147,2.29a8.789,8.789,0,0,1,6.141-2.735c2.261,0,3.592.93,4.223,2.628a9.569,9.569,0,0,1,6.466-2.628c3.513,0,5.07,2.182,4.365,6.4L75.917,22.539H69.779l2.067-12.317c.262-1.588.039-2.444-1.4-2.444a4.892,4.892,0,0,0-2.882,1.3L65.3,22.539H59.157l2.036-12.1c.257-1.658.257-2.665-1.176-2.665A4.843,4.843,0,0,0,56.946,9.15L54.685,22.539H48.546L51.837,2.972Z" transform="translate(67.351 4.094)" fill="#00abe8"/>
        </g>
        <path id="Trazado_36108" data-name="Trazado 36108" d="M49.039,10.853c12.222,0,20.305,7.124,20.305,19.768A30.031,30.031,0,0,1,69,35.379c-2.549,18-14.329,24.146-27.5,24.146-13.1,0-20.213-7.019-20.213-19.414a39.269,39.269,0,0,1,.272-4.643C23.75,17.8,36.222,10.853,49.039,10.853M36.319,39.409c0,5.717,2.9,8.085,7.284,8.085,4.847,0,8.887-3.162,10.278-12.115a27.225,27.225,0,0,0,.354-4.4c0-5.8-2.814-8.085-6.956-8.085-5.167,0-9.22,3.427-10.53,11.858a33.3,33.3,0,0,0-.43,4.658" transform="translate(34.482 17.582)" fill="#00abe8"/>
        <path id="Trazado_36109" data-name="Trazado 36109" d="M38.38,75.935,49.088,11.9H60.954l.718,5.361c4.826-4.4,9.846-6.406,15.442-6.406,8.607,0,14.672,5.785,14.672,18.175,0,17.74-8.342,30.4-23.709,30.4a14.927,14.927,0,0,1-11.594-4.918L52.96,75.935ZM58.321,43.612A10.59,10.59,0,0,0,65.885,47.3c6.133,0,10.187-5.007,10.187-15.979,0-5.452-1.852-8.355-5.981-8.355-3.419,0-7.381,2.73-9.044,4.394Z" transform="translate(62.176 17.592)" fill="#00abe8"/>
        <path id="Trazado_36110" data-name="Trazado 36110" d="M0,75.935,10.708,11.9H22.574l.718,5.361c4.823-4.4,9.846-6.406,15.442-6.406,8.607,0,14.672,5.785,14.672,18.175,0,17.74-8.342,30.4-23.709,30.4A14.927,14.927,0,0,1,18.1,54.516L14.58,75.935ZM19.941,43.612A10.585,10.585,0,0,0,27.5,47.3c6.133,0,10.187-5.007,10.187-15.979,0-5.452-1.855-8.355-5.981-8.355-3.419,0-7.383,2.73-9.047,4.394Z" transform="translate(0 17.592)" fill="#00abe8"/>
      </g>
    </g>
  </g>
</svg>
