<svg xmlns="http://www.w3.org/2000/svg" width="285" height="285" viewBox="0 0 285 285">
  <g id="nettv" transform="translate(-360 -3952)">
    <rect id="Rectángulo_2567" data-name="Rectángulo 2567" width="285" height="285" transform="translate(360 3952)" fill="#fafafa"/>
    <g id="nettv_color" data-name="nettv color" transform="translate(502.459 4094.927)">
      <g id="Grupo_4856" data-name="Grupo 4856" transform="translate(-97.459 -28.927)">
        <path id="Trazado_36195" data-name="Trazado 36195" d="M222.58,33.42H194.239a2,2,0,0,0-2.021,1.976v3a2,2,0,0,0,2.021,1.976h10.184V70.793a2,2,0,0,0,2.021,1.977h3.9a2,2,0,0,0,2.021-1.977V40.369H222.58a2,2,0,0,0,2.021-1.976v-3A2,2,0,0,0,222.58,33.42Z" transform="translate(-87.285 -15.176)" fill="#00809d"/>
        <path id="Trazado_36196" data-name="Trazado 36196" d="M273.606,60.157l9.788-25.45a2.029,2.029,0,0,1,1.894-1.287h4.423a2.029,2.029,0,0,1,1.666.86,1.938,1.938,0,0,1,.215,1.838l-14.2,35.4a2.038,2.038,0,0,1-1.882,1.253h-3.851a2.035,2.035,0,0,1-1.884-1.262l-14.052-35.4a1.937,1.937,0,0,1,.218-1.835,2.035,2.035,0,0,1,1.666-.857h4.277a2.023,2.023,0,0,1,1.9,1.309Z" transform="translate(-116.06 -15.176)" fill="#00809d"/>
        <path id="Trazado_36197" data-name="Trazado 36197" d="M286.733,13.841a19.707,19.707,0,0,0-2.61-7.056,10.813,10.813,0,0,0-6.193-4.665,44,44,0,0,0-9.224-1.7A126.543,126.543,0,0,0,249.795.287a181.009,181.009,0,0,0-24.676,3.074,105.589,105.589,0,0,0-10.9,2.708c-1.075.386-2.159.753-3.224,1.164a25.487,25.487,0,0,0-4.561,2.224,13.938,13.938,0,0,0-2.725,2.28,106.8,106.8,0,0,1,10.457-2.578,181.01,181.01,0,0,1,24.676-3.074,126.544,126.544,0,0,1,18.912.134,43.968,43.968,0,0,1,9.224,1.7,10.813,10.813,0,0,1,6.193,4.665,19.7,19.7,0,0,1,2.61,7.056c1.544,8.7.436,17.548-2.8,26.495a33.362,33.362,0,0,1-4.064,7.909,22.36,22.36,0,0,1-1.831,2.291c1.108-.306,2.485-.676,3.577-1.066a19.324,19.324,0,0,0,4.739-2.408,17.884,17.884,0,0,0,4.467-4.613,33.4,33.4,0,0,0,4.065-7.909C287.169,31.39,288.277,22.544,286.733,13.841Z" transform="translate(-92.504 0)" fill="#0d1724"/>
        <path id="Trazado_36198" data-name="Trazado 36198" d="M165.856,33.064h-4.286l-.073-8.982a2,2,0,0,0-1.961-2.023h-1.456a3.728,3.728,0,0,0-1.662.391l-3.27,1.629a2.047,2.047,0,0,0-1.114,1.84v7.145h-2.76a1.307,1.307,0,0,0-1.307,1.307v1.393h0v.986a2,2,0,0,0,1.961,2.04h2.109V57.134q0,5.193.677,6.812a5.488,5.488,0,0,0,2.341,2.612,9.181,9.181,0,0,0,4.683.994h6.038a1.946,1.946,0,0,0,1.847-1.532,3.034,3.034,0,0,0,.075-.593c.158-3.414-1.737-3.161-1.737-3.161-.93,0-2.5-.122-2.5-.122a2.515,2.515,0,0,1-.644-.249,2.375,2.375,0,0,1-.955-1.122,11.628,11.628,0,0,1-.293-3.317V38.79h4.122a1.443,1.443,0,0,0,1.443-1.455l-.023-3.026A1.255,1.255,0,0,0,165.856,33.064Z" transform="translate(-67.19 -10.017)" fill="#df1126"/>
        <path id="Trazado_36199" data-name="Trazado 36199" d="M108.216,65.359a1.845,1.845,0,0,0-1.65,1.042,9.685,9.685,0,0,1-2.817,3.575,7.584,7.584,0,0,1-.884.566,5.33,5.33,0,0,1-5.046-.023A9.68,9.68,0,0,1,95.4,68.662q-2.708-2.83-3.134-8.025a.527.527,0,0,1,.525-.565h23.325a1.528,1.528,0,0,0,1.529-1.528v-.01q0-8.429-4.327-13.077a14.553,14.553,0,0,0-11.154-4.647H97.98A14.97,14.97,0,0,0,86.5,45.552Q82.081,50.3,82.082,58.886q0,8.3,4.375,12.9t11.843,4.6h4.183a15.7,15.7,0,0,0,9.743-2.885A14.081,14.081,0,0,0,117,66.837a1.1,1.1,0,0,0-1.039-1.45ZM95.544,48.213a9.3,9.3,0,0,1,1.877-1.435,5.217,5.217,0,0,1,5.2-.084,9.292,9.292,0,0,1,2.567,2.191,10.632,10.632,0,0,1,2.068,5.449.875.875,0,0,1-.864.994H93.055a.467.467,0,0,1-.466-.507A10.34,10.34,0,0,1,95.544,48.213Z" transform="translate(-37.273 -18.531)" fill="#df1126"/>
        <path id="Trazado_36200" data-name="Trazado 36200" d="M1.616,66.012h6.3a2,2,0,0,0,1.975-2.024V37.049a.661.661,0,0,1,1.219-.373l17.646,27.6a3.721,3.721,0,0,0,3.132,1.734h4.8c3.075,0,3.469-2.085,3.469-4.657V20.842a2.276,2.276,0,0,0-2.247-2.3h-5.63a2.032,2.032,0,0,0-2.006,2.06l.038,26.82a.572.572,0,0,1-1.053.328l-16.9-26.031a6.9,6.9,0,0,0-5.784-3.176H1.9A1.929,1.929,0,0,0,0,20.491V64.355A1.636,1.636,0,0,0,1.616,66.012Z" transform="translate(0 -8.418)" fill="#df1126"/>
      </g>
    </g>
  </g>
</svg>
