<svg xmlns="http://www.w3.org/2000/svg" xmlns:xlink="http://www.w3.org/1999/xlink" width="285" height="285" viewBox="0 0 285 285">
  <defs>
    <linearGradient id="linear-gradient" y1="0.5" x2="1" y2="0.5" gradientUnits="objectBoundingBox">
      <stop offset="0" stop-color="#1b142a"/>
      <stop offset="0.54" stop-color="#241c57"/>
      <stop offset="0.993" stop-color="#2e2580"/>
    </linearGradient>
    <linearGradient id="linear-gradient-3" x1="0.5" y1="0.146" x2="0.5" y2="0.716" gradientUnits="objectBoundingBox">
      <stop offset="0" stop-color="#eb4e16"/>
      <stop offset="0.955" stop-color="#f57b0f"/>
      <stop offset="0.993" stop-color="#f67d0f"/>
    </linearGradient>
    <linearGradient id="linear-gradient-4" x1="0.5" y1="-0.159" x2="0.5" y2="0.615" xlink:href="#linear-gradient-3"/>
    <linearGradient id="linear-gradient-6" x1="0.5" y1="-0.757" x2="0.5" y2="0.853" xlink:href="#linear-gradient"/>
    <linearGradient id="linear-gradient-7" x1="0.5" y1="-0.733" x2="0.5" y2="0.847" xlink:href="#linear-gradient"/>
    <linearGradient id="linear-gradient-8" x1="0.5" y1="-0.738" x2="0.5" y2="0.852" xlink:href="#linear-gradient"/>
  </defs>
  <g id="mvshub" transform="translate(-1275 -3646)">
    <rect id="Rectángulo_2567" data-name="Rectángulo 2567" width="285" height="285" transform="translate(1275 3646)" fill="#fafafa"/>
    <g id="mvshub_1" data-name="mvshub 1" transform="translate(1417.301 3788.303)">
      <g id="Grupo_4847" data-name="Grupo 4847" transform="translate(-115.3 -34.303)">
        <g id="Grupo_4844" data-name="Grupo 4844" transform="translate(36.972 55.212)">
          <g id="Grupo_4843" data-name="Grupo 4843">
            <path id="Trazado_36131" data-name="Trazado 36131" d="M110.2,180.72v-7.77h1.517l.229,1.125a3.3,3.3,0,0,1,2.508-1.125,2.04,2.04,0,0,1,2.005,1.066,3.71,3.71,0,0,1,2.494-1.066q2.679,0,2.679,2.953v4.817h-1.961v-4.891q0-1.3-1.169-1.3a2.407,2.407,0,0,0-1.68.785v5.4h-1.961v-4.869q0-1.318-1.081-1.318a2.25,2.25,0,0,0-1.62.785v5.4Z" transform="translate(-110.202 -170.139)" fill="#f67d0f"/>
            <path id="Trazado_36132" data-name="Trazado 36132" d="M146.883,176.792q0-3.907,3.848-3.907t3.848,3.907q0,3.9-3.848,3.9T146.883,176.792Zm3.848,2.405q1.887,0,1.887-2.435,0-2.375-1.887-2.375t-1.887,2.375Q148.844,179.2,150.731,179.2Z" transform="translate(-134.577 -170.095)" fill="#f67d0f"/>
            <path id="Trazado_36133" data-name="Trazado 36133" d="M169.669,172.95h2.072l1.887,5.431,1.961-5.431h2.072l-3.16,7.77h-1.864Z" transform="translate(-149.718 -170.139)" fill="#f67d0f"/>
            <path id="Trazado_36134" data-name="Trazado 36134" d="M196.4,164.57v1.554h-1.961V164.57Zm0,2.811v7.77h-1.961v-7.77Z" transform="translate(-166.178 -164.57)" fill="#f67d0f"/>
            <path id="Trazado_36135" data-name="Trazado 36135" d="M206.536,172.95q3.537,0,3.537,3.611a6.963,6.963,0,0,1-.066.962h-5.158q0,1.643,2.412,1.643a12.672,12.672,0,0,0,2.353-.222V180.5a12.055,12.055,0,0,1-2.5.222q-4.226,0-4.226-3.974Q202.888,172.95,206.536,172.95Zm-1.687,3.212h3.315V176.1a1.432,1.432,0,0,0-1.628-1.613Q204.982,174.49,204.849,176.162Z" transform="translate(-171.793 -170.139)" fill="#f67d0f"/>
            <path id="Trazado_36136" data-name="Trazado 36136" d="M226.154,180.2v-1.628a8.009,8.009,0,0,0,2.989.518q1.266,0,1.265-.814,0-.777-.851-.777h-1.406a2.077,2.077,0,0,1-2.368-2.331q0-2.442,3.456-2.442a8.444,8.444,0,0,1,2.76.444V174.8a7.5,7.5,0,0,0-2.812-.518q-1.591,0-1.591.814,0,.777.925.777h1.258q2.59,0,2.59,2.331,0,2.442-3.3,2.442A8.959,8.959,0,0,1,226.154,180.2Z" transform="translate(-187.007 -169.993)" fill="#f67d0f"/>
            <path id="Trazado_36137" data-name="Trazado 36137" d="M265.672,172.95h2.072l1.887,5.431,1.961-5.431h2.072l-3.16,7.77h-1.864Z" transform="translate(-213.513 -170.139)" fill="#f67d0f"/>
            <path id="Trazado_36138" data-name="Trazado 36138" d="M292.4,164.57v1.554h-1.961V164.57Zm0,2.811v7.77h-1.961v-7.77Z" transform="translate(-229.973 -164.57)" fill="#f67d0f"/>
            <path id="Trazado_36139" data-name="Trazado 36139" d="M306.144,174.685a13.74,13.74,0,0,1-3.485.466q-3.767,0-3.767-4.04,0-3.729,3.685-3.73a3.89,3.89,0,0,1,1.606.37V164.57h1.961Zm-1.961-5.276a2.719,2.719,0,0,0-1.524-.4q-1.828,0-1.828,2.05,0,2.435,1.9,2.434a4.8,4.8,0,0,0,1.45-.215Z" transform="translate(-235.588 -164.57)" fill="#f67d0f"/>
            <path id="Trazado_36140" data-name="Trazado 36140" d="M326.759,172.95q3.537,0,3.537,3.611a6.963,6.963,0,0,1-.066.962h-5.158q0,1.643,2.412,1.643a12.671,12.671,0,0,0,2.353-.222V180.5a12.056,12.056,0,0,1-2.5.222q-4.225,0-4.225-3.974Q323.111,172.95,326.759,172.95Zm-1.687,3.212h3.315V176.1a1.432,1.432,0,0,0-1.628-1.613Q325.205,174.49,325.072,176.162Z" transform="translate(-251.682 -170.139)" fill="#f67d0f"/>
            <path id="Trazado_36141" data-name="Trazado 36141" d="M346.007,176.792q0-3.907,3.847-3.907t3.848,3.907q0,3.9-3.848,3.9Q346.022,180.692,346.007,176.792Zm3.847,2.405q1.888,0,1.887-2.435,0-2.375-1.887-2.375t-1.886,2.375Q347.968,179.2,349.854,179.2Z" transform="translate(-266.896 -170.095)" fill="#f67d0f"/>
            <path id="Trazado_36142" data-name="Trazado 36142" d="M390.668,180.2v-1.628a8.008,8.008,0,0,0,2.99.518q1.265,0,1.265-.814,0-.777-.851-.777h-1.406a2.076,2.076,0,0,1-2.367-2.331q0-2.442,3.455-2.442a8.446,8.446,0,0,1,2.76.444V174.8a7.5,7.5,0,0,0-2.812-.518q-1.591,0-1.59.814,0,.777.924.777h1.258q2.59,0,2.59,2.331,0,2.442-3.3,2.442A8.958,8.958,0,0,1,390.668,180.2Z" transform="translate(-296.328 -169.993)" fill="#f67d0f"/>
            <path id="Trazado_36143" data-name="Trazado 36143" d="M411.869,169.2h1.451l.3,1.258h1.954v1.554H413.83v3.574q0,1.087.94,1.088h.8v1.554h-1.746q-1.954,0-1.954-2.094Z" transform="translate(-310.662 -167.647)" fill="#f67d0f"/>
            <path id="Trazado_36144" data-name="Trazado 36144" d="M425.061,180.72v-7.77h1.517l.244.992a3.08,3.08,0,0,1,2.161-.992v1.584a2.648,2.648,0,0,0-1.961.91v5.276Z" transform="translate(-319.428 -170.139)" fill="#f67d0f"/>
            <path id="Trazado_36145" data-name="Trazado 36145" d="M440.8,172.95q3.537,0,3.537,3.611a6.973,6.973,0,0,1-.067.962h-5.158q0,1.643,2.412,1.643a12.669,12.669,0,0,0,2.353-.222V180.5a12.059,12.059,0,0,1-2.5.222q-4.225,0-4.225-3.974Q437.151,172.95,440.8,172.95Zm-1.687,3.212h3.315V176.1a1.432,1.432,0,0,0-1.628-1.613Q439.245,174.49,439.112,176.162Z" transform="translate(-327.462 -170.139)" fill="#f67d0f"/>
            <path id="Trazado_36146" data-name="Trazado 36146" d="M460.047,178.3q0-2.316,3.374-2.316a8.636,8.636,0,0,1,1.584.148v-.584q0-1.044-1.5-1.043a12.282,12.282,0,0,0-2.826.37V173.32a12.286,12.286,0,0,1,2.826-.37q3.463,0,3.463,2.56v5.21h-1.139l-.7-.7a3.866,3.866,0,0,1-2.235.7Q460.046,180.72,460.047,178.3Zm3.374-.984q-1.414,0-1.413.962,0,1.036,1.184,1.036a3.025,3.025,0,0,0,1.813-.607v-1.244A8.1,8.1,0,0,0,463.421,177.316Z" transform="translate(-342.677 -170.139)" fill="#f67d0f"/>
            <path id="Trazado_36147" data-name="Trazado 36147" d="M484.375,180.72v-7.77h1.517l.229,1.125a3.3,3.3,0,0,1,2.509-1.125,2.039,2.039,0,0,1,2,1.066,3.711,3.711,0,0,1,2.494-1.066q2.679,0,2.679,2.953v4.817h-1.961v-4.891q0-1.3-1.169-1.3a2.4,2.4,0,0,0-1.68.785v5.4h-1.961v-4.869q0-1.318-1.08-1.318a2.25,2.25,0,0,0-1.62.785v5.4Z" transform="translate(-358.843 -170.139)" fill="#f67d0f"/>
            <path id="Trazado_36148" data-name="Trazado 36148" d="M524.119,164.57v1.554h-1.961V164.57Zm0,2.811v7.77h-1.961v-7.77Z" transform="translate(-383.95 -164.57)" fill="#f67d0f"/>
            <path id="Trazado_36149" data-name="Trazado 36149" d="M531.71,180.72v-7.77h1.517l.244,1.14a3.477,3.477,0,0,1,2.546-1.14q2.76,0,2.76,2.871v4.9h-1.961v-4.9a1.135,1.135,0,0,0-1.28-1.288,2.89,2.89,0,0,0-1.865.763v5.424Z" transform="translate(-390.297 -170.139)" fill="#f67d0f"/>
            <path id="Trazado_36150" data-name="Trazado 36150" d="M562.683,180.128q0,3.4-4.092,3.4a8.028,8.028,0,0,1-2.545-.37v-1.554a8.211,8.211,0,0,0,2.56.37q2.116,0,2.117-1.776a4.766,4.766,0,0,1-1.88.37q-3.463,0-3.463-3.782,0-3.84,4.033-3.84a20.507,20.507,0,0,1,3.27.318Zm-1.961-5.417a4.113,4.113,0,0,0-1.369-.178q-2.035,0-2.035,2.242,0,2.169,1.754,2.168a3.682,3.682,0,0,0,1.65-.4Z" transform="translate(-406.026 -170.139)" fill="#f67d0f"/>
          </g>
          <rect id="Rectángulo_2745" data-name="Rectángulo 2745" width="0.604" height="9.515" transform="translate(48.489 1.245)" fill="url(#linear-gradient)"/>
          <rect id="Rectángulo_2746" data-name="Rectángulo 2746" width="0.604" height="9.515" transform="translate(90.028 1.245)" fill="url(#linear-gradient)"/>
        </g>
        <g id="Grupo_4846" data-name="Grupo 4846">
          <g id="Grupo_4845" data-name="Grupo 4845" transform="translate(125.365)">
            <path id="Trazado_36151" data-name="Trazado 36151" d="M373.675,48.045V0h8.9V17.269a13.866,13.866,0,0,1,10.651-4.5q12.531,0,12.532,13.036V48.045h-8.9V25.8q0-5.846-5.812-5.846a13.121,13.121,0,0,0-8.467,3.461V48.045Z" transform="translate(-373.675)" fill="url(#linear-gradient-3)"/>
            <path id="Trazado_36152" data-name="Trazado 36152" d="M513.793,37.713V73.105h-6.955l-1.075-4.5a21.318,21.318,0,0,1-12.9,4.5q-10.819,0-10.819-12.8V37.713h8.9V60.069q0,5.846,5.107,5.846,4.334,0,8.836-3.461V37.713Z" transform="translate(-445.686 -25.061)" fill="url(#linear-gradient-4)"/>
            <path id="Trazado_36153" data-name="Trazado 36153" d="M589.409,0h8.9V15.455a15.607,15.607,0,0,1,8.9-2.688q15.051,0,15.052,16.933,0,18.345-17.235,18.344A92.086,92.086,0,0,1,589.409,46.6Zm8.9,39.88a23.364,23.364,0,0,0,7.089.975q8.063,0,8.063-11.39,0-9.306-6.954-9.307a18.348,18.348,0,0,0-8.2,1.814Z" transform="translate(-517.032)" fill="url(#linear-gradient-3)"/>
          </g>
          <path id="Trazado_36154" data-name="Trazado 36154" d="M179.555,62.374l-8.568-24.661H161.58l13.473,35.278h8.467l14.346-35.278h-9.408Z" transform="translate(-107.371 -25.061)" fill="url(#linear-gradient-6)"/>
          <path id="Trazado_36155" data-name="Trazado 36155" d="M290.175,50.99h-5.712a5.492,5.492,0,0,1-2.691-.566,3.106,3.106,0,0,1-1.509-2.962,3.069,3.069,0,0,1,2.166-2.939,13.408,13.408,0,0,1,5.058-.757,34.2,34.2,0,0,1,12.374,2.2q.2.076.394.154V38.727a38.376,38.376,0,0,0-12.532-2.016,28.161,28.161,0,0,0-7.864.957,12.943,12.943,0,0,0-4.076,1.939,8.745,8.745,0,0,0-2.813,3.433,9.908,9.908,0,0,0-.7,2.214,13.171,13.171,0,0,0-.234,2.544,16.425,16.425,0,0,0,.275,3.113,9.542,9.542,0,0,0,1.643,3.939,7.948,7.948,0,0,0,3.52,2.648,11.9,11.9,0,0,0,2.667.7,17.946,17.946,0,0,0,2.647.184h6.383a5.2,5.2,0,0,1,2.121.38,2.7,2.7,0,0,1,1.307,1.176,4.028,4.028,0,0,1,.436,1.971,3.18,3.18,0,0,1-.779,2.22,4.385,4.385,0,0,1-2.336,1.218,11.83,11.83,0,0,1-2.631.257q-2.14,0-4.141-.182a37.23,37.23,0,0,1-4.768-.737,30.534,30.534,0,0,1-4.665-1.433v7.391a40.665,40.665,0,0,0,13.238,2.016q14.984,0,14.984-11.087a15.811,15.811,0,0,0-.186-2.492,10.627,10.627,0,0,0-.877-2.913,8.051,8.051,0,0,0-3.6-3.727A15.136,15.136,0,0,0,290.175,50.99Z" transform="translate(-180.767 -24.395)" fill="url(#linear-gradient-7)"/>
          <path id="Trazado_36156" data-name="Trazado 36156" d="M26.961,42.215l.117-.132a16.92,16.92,0,0,1,5.068-3.95A13.9,13.9,0,0,1,38.2,36.711a14.941,14.941,0,0,1,11.051,5.057c2.956,3.4,4.575,6.654,4.575,11.315V72.439h-8.8V53.083c0-4.187-3.168-7.9-6.828-7.9-3.8,0-6.9,3.634-6.9,7.9V72.439H22.525V53.083c0-4.266-3.1-7.9-6.9-7.9-3.66,0-6.828,3.713-6.828,7.9V72.439H0V53.083c0-4.661,1.619-7.918,4.575-11.315a14.94,14.94,0,0,1,11.051-5.057,13.9,13.9,0,0,1,6.054,1.422,16.924,16.924,0,0,1,5.068,3.95l.117.132.046.05Z" transform="translate(0 -24.395)" fill="url(#linear-gradient-8)"/>
        </g>
      </g>
    </g>
  </g>
</svg>
