<svg xmlns="http://www.w3.org/2000/svg" width="285" height="285" viewBox="0 0 285 285">
  <g id="ingenicoi" transform="translate(-970 -3952)">
    <rect id="Rectángulo_2567" data-name="Rectángulo 2567" width="285" height="285" transform="translate(970 3952)" fill="#fafafa"/>
    <g id="Grupo_4859" data-name="Grupo 4859" transform="translate(-11617 1623.612)">
      <g id="Grupo_4454" data-name="Grupo 4454" transform="translate(12756.407 2488.526)">
        <path id="Trazado_33660" data-name="Trazado 33660" d="M682.344,856.6c-.545-.078-1.093-.139-1.636-.237a5.017,5.017,0,0,1-4.209-3.769,16.306,16.306,0,0,1,.047-9.324c.808-2.673,2.9-3.6,5.474-3.776a9.777,9.777,0,0,1,2.884.26,4.772,4.772,0,0,1,3.71,3.337,16.184,16.184,0,0,1,.016,9.8c-.715,2.314-2.488,3.346-4.806,3.583a2.719,2.719,0,0,0-.98.13Zm4.477-8.623a12.205,12.205,0,0,0-.371-3.784,2.989,2.989,0,0,0-2.191-2.276,7.205,7.205,0,0,0-2.719-.118,3.067,3.067,0,0,0-2.773,2.481,15.872,15.872,0,0,0,0,7.4A3.1,3.1,0,0,0,682,854.239c.415.018.831.016,1.246,0a3.109,3.109,0,0,0,3.212-2.485A12.509,12.509,0,0,0,686.821,847.975Z" transform="translate(-647.231 -839.456)" fill="#dd0a19"/>
        <path id="Trazado_33661" data-name="Trazado 33661" d="M691.063,856.484a4.383,4.383,0,0,0-1.227-.169,5.144,5.144,0,0,1-4.594-5.353c-.1-3.513-.026-7.029-.039-10.544,0-.513.183-.791.728-.75.055,0,.111,0,.165,0,1.485-.037,1.485-.037,1.487,1.413.005,3.237-.018,6.476.026,9.713a3.052,3.052,0,0,0,2.692,3.27,6.337,6.337,0,0,0,2.154.005,3.1,3.1,0,0,0,2.72-3.423c.037-3.265.009-6.532.026-9.8,0-.387-.2-.94.308-1.1a3.226,3.226,0,0,1,1.8.007c.251.069.255.346.251.564-.051,3.734.241,7.477-.139,11.2-.313,3.073-2.046,4.6-5.133,4.855a4.872,4.872,0,0,0-.564.114Z" transform="translate(-640.151 -839.342)" fill="#dd0a19"/>
        <path id="Trazado_33662" data-name="Trazado 33662" d="M666.734,856.6a6.467,6.467,0,0,0-1.56-.169,5.778,5.778,0,0,1-5.166-4.685,15.58,15.58,0,0,1-.148-6.741c.7-3.548,2.631-5.247,6.252-5.516a11.338,11.338,0,0,1,4.5.582c.29.1.634.19.612.573a2.7,2.7,0,0,1-.329,1.585c-.183.234-.524,0-.779-.077a9.646,9.646,0,0,0-4.753-.3,3.458,3.458,0,0,0-2.875,2.664,13.779,13.779,0,0,0-.009,6.971,3.421,3.421,0,0,0,3.5,2.745,10.386,10.386,0,0,0,2.727-.133.871.871,0,0,0,.822-1.009c-.035-1.574.03-3.153-.026-4.727-.03-.845.392-.937,1.068-.942.7-.007,1.065.142,1.046.963-.049,2.126-.042,4.258,0,6.386a1.074,1.074,0,0,1-.889,1.179,22.839,22.839,0,0,1-3.5.652Z" transform="translate(-659.561 -839.462)" fill="#dd0a19"/>
        <path id="Trazado_33663" data-name="Trazado 33663" d="M705.393,846.173c-.692,2.842-2.314,3.608-5.182,3.826-.743.056-1.494.016-2.241.019-1.211,0-1.211,0-1.213,1.255,0,1.3-.026,2.6.009,3.9.019.7-.2.995-.945.988-1.441-.012-1.441.023-1.441-1.388q0-7.006,0-14.013c0-1.1.011-1.1,1.116-1.105,1.55,0,3.1-.016,4.65.005,2.94.04,4.6,1.039,5.247,3.694Zm-8.634-1.348h0c0,.828.007,1.655,0,2.483-.005.445.183.659.643.652,1.021-.016,2.046.035,3.063-.035a2.319,2.319,0,0,0,2.49-2.081,5.505,5.505,0,0,0-.063-2.3,2.119,2.119,0,0,0-1.738-1.671,21.467,21.467,0,0,0-3.632-.151c-.583-.033-.787.229-.77.784C696.777,843.28,696.759,844.054,696.759,844.825Z" transform="translate(-633.194 -839.325)" fill="#dd0a19"/>
        <path id="Trazado_33672" data-name="Trazado 33672" d="M668.355,847.866c0-2.434.016-4.866-.011-7.3-.007-.664.193-.942.895-.926,1.828.037,3.657-.039,5.481.041,1.687.072,3.214.631,3.889,2.341a5.571,5.571,0,0,1-.51,5.529,2.466,2.466,0,0,1-1.309.982c-.661.192-.743.457-.388,1.049,1.081,1.8,2.11,3.634,3.151,5.46.16.279.5.573.346.885-.186.387-.647.156-.984.218-1.17.216-1.794-.32-2.27-1.374-.727-1.61-1.641-3.135-2.427-4.718a1.346,1.346,0,0,0-1.423-.856c-2.387.077-2.046-.337-2.072,2.067-.014,1.327-.033,2.655.005,3.98.028,1.016-.648.889-1.288.9s-1.118-.025-1.1-.9C668.387,852.786,668.355,850.324,668.355,847.866Zm2.371-3.372c0,.719,0,1.437,0,2.156a.563.563,0,0,0,.654.652c1.025-.016,2.051.03,3.072-.04a2,2,0,0,0,2.016-1.552,4.6,4.6,0,0,0,.107-1.887,2.1,2.1,0,0,0-2.246-2.07c-.965-.049-1.937-.005-2.9-.023-.492-.011-.708.205-.7.692C670.733,843.112,670.724,843.8,670.726,844.493Z" transform="translate(-652.914 -839.327)" fill="#dd0a19"/>
      </g>
      <g id="Grupo_4455" data-name="Grupo 4455" transform="translate(12630 2436.388)">
        <path id="Trazado_33659" data-name="Trazado 33659" d="M711.929,835.707a24.53,24.53,0,0,1-1.109,4.495,12.332,12.332,0,0,1-11.407,7.99,16.371,16.371,0,0,1-4.532-.425,10.539,10.539,0,0,1-7.556-6.425,19.52,19.52,0,0,1,.325-16.1c2.021-4.311,5.658-6.465,10.361-6.808a14.512,14.512,0,0,1,6.841,1.023c4.177,1.782,6.024,5.245,6.776,9.477.107.6.2,1.2.3,1.794Zm-6.672-2.371a14.433,14.433,0,0,0-.562-4.834c-.661-2.126-1.845-3.826-4.175-4.291-3.427-.687-6.24.445-7.423,4.137a17.16,17.16,0,0,0-.311,8.933c.8,3.75,2.906,5.33,6.732,5.21a5.109,5.109,0,0,0,4.913-3.442A14.12,14.12,0,0,0,705.256,833.337Z" transform="translate(-513.324 -803.289)" fill="#393e45"/>
        <path id="Trazado_33664" data-name="Trazado 33664" d="M652.4,815.729q-27.353,0-54.7,0c-.3,0-.61-.013-.914,0-.524.019-.75-.213-.743-.745.016-1.3.014-2.6,0-3.9,0-.49.216-.711.7-.7.276.005.553-.005.831-.005H707.228c.25,0,.5.012.749,0,.524-.019.75.216.745.745-.016,1.3-.012,2.6,0,3.9,0,.489-.212.715-.7.7-.3-.009-.61,0-.914,0Q679.752,815.73,652.4,815.729Z" transform="translate(-581.259 -809.355)" fill="#393e45"/>
        <path id="Trazado_33665" data-name="Trazado 33665" d="M637.149,834.7q0,6.558,0,13.113c0,6.064-3.525,10.141-9.553,11.041a30.424,30.424,0,0,1-12.152-1.068c-.55-.143-.685-.445-.578-.977.267-1.328.532-2.657.728-4,.1-.659.387-.729.958-.613a35.916,35.916,0,0,0,8.066.933,12.133,12.133,0,0,0,2.71-.355,3.942,3.942,0,0,0,3.133-3.276c.149-.785.2-1.587.283-2.383.023-.239.1-.539-.133-.7-.26-.176-.471.083-.659.216-3.386,2.4-11.273,1.325-14.081-2.256a13.46,13.46,0,0,1-2.636-6.1,22.632,22.632,0,0,1,.239-9.948,12.994,12.994,0,0,1,12.231-9.744,56.408,56.408,0,0,1,10.647.915c.7.1.808.49.807,1.091Q637.135,827.644,637.149,834.7Zm-6.535-1.78c0-2.458-.023-4.919.014-7.379.01-.677-.257-.954-.886-1s-1.265-.126-1.9-.174c-4.3-.323-7.3,1.358-8.229,5.775a16.7,16.7,0,0,0,.112,7.4,5.727,5.727,0,0,0,4.984,4.778,8.932,8.932,0,0,0,5.159-.882,1.173,1.173,0,0,0,.754-1.22C630.6,837.782,630.613,835.35,630.613,832.918Z" transform="translate(-568.569 -803.156)" fill="#393e45"/>
        <path id="Trazado_33666" data-name="Trazado 33666" d="M644.937,835.364c-2.55,0-5.1.019-7.65-.011-.706-.009-.868.2-.808.914.206,2.474,1.07,4.46,3.6,5.354a8.586,8.586,0,0,0,2.518.492,35.889,35.889,0,0,0,8.277-.473c.719-.137,1.125-.048,1.223.808a26.888,26.888,0,0,0,.636,3.506c.208.821-.112,1.07-.835,1.244a30.649,30.649,0,0,1-5.342.727,27.006,27.006,0,0,1-8.345-.481,9.577,9.577,0,0,1-7.386-7.024,24.061,24.061,0,0,1,.413-14.773c1.569-4.392,4.929-6.567,9.47-7.1a15.162,15.162,0,0,1,4.467.074c4.52.807,6.815,3.8,7.836,8.01a32.05,32.05,0,0,1,.666,8c-.007.68-.4.747-.921.745C650.146,835.361,647.541,835.364,644.937,835.364Zm-3.183-5.029c1.105,0,2.213,0,3.318,0,2.39.01,1.954.09,1.668-1.968-.281-2-1.156-3.759-3.279-4.388A4.8,4.8,0,0,0,638.3,825.6a7.341,7.341,0,0,0-1.648,4c-.084.566.063.747.622.74C638.767,830.321,640.261,830.333,641.755,830.335Z" transform="translate(-555.647 -803.264)" fill="#393e45"/>
        <path id="Trazado_33667" data-name="Trazado 33667" d="M646.513,833.308q0-6.516,0-13.032c0-1.116.055-1.16,1.177-1.174a7.842,7.842,0,0,1,2.065.163,3.754,3.754,0,0,1,2.78,2.153c.25.6.5.662,1.023.258a15.139,15.139,0,0,1,5.787-2.993,12.061,12.061,0,0,1,6,.128,6.3,6.3,0,0,1,4.627,4.859,16.332,16.332,0,0,1,.524,4.019c.012,6.282,0,12.563.028,18.845,0,.805-.264,1.06-1.053,1.034-1.467-.051-2.94-.058-4.406,0-.847.035-1.1-.258-1.1-1.088.028-5.258.019-10.514.009-15.772a16.014,16.014,0,0,0-.2-3.39,3.225,3.225,0,0,0-3.341-2.857c-2.622-.147-4.845.954-7.029,2.2-.469.267-.352.712-.352,1.111q-.008,9.131-.005,18.262c0,1.659.142,1.511-1.527,1.518-1.33.005-2.662-.04-3.991.016-.821.035-1.038-.288-1.035-1.061C646.527,842.109,646.513,837.708,646.513,833.308Z" transform="translate(-543.044 -803.3)" fill="#393e45"/>
        <path id="Trazado_33668" data-name="Trazado 33668" d="M596.055,833.29c0-4.37.019-8.743-.018-13.113-.009-.845.265-1.139,1.095-1.088a11.243,11.243,0,0,1,2.146.184,3.713,3.713,0,0,1,2.713,2.116c.286.675.573.64,1.09.246a15.96,15.96,0,0,1,5.156-2.8,11.9,11.9,0,0,1,6.716.021,6.1,6.1,0,0,1,4.305,4.237,13.955,13.955,0,0,1,.661,3.912c.214,6.444.075,12.89.112,19.334.005,1.207-.005,1.207-1.19,1.209q-2.035,0-4.072,0c-1.248,0-1.251,0-1.251-1.216q0-8.008,0-16.017a14.736,14.736,0,0,0-.309-3.13,3.217,3.217,0,0,0-3.277-2.729c-2.594-.149-4.79.949-6.961,2.149-.5.276-.371.764-.371,1.19q-.011,9.047,0,18.091c0,.25-.019.5,0,.747.053.664-.2.946-.907.928-1.55-.039-3.1-.044-4.653,0-.764.025-1-.241-1-1C596.069,842.143,596.055,837.717,596.055,833.29Z" transform="translate(-581.26 -803.3)" fill="#393e45"/>
        <path id="Trazado_33669" data-name="Trazado 33669" d="M671.664,833.871a17.36,17.36,0,0,1,2.058-9.236,12.062,12.062,0,0,1,9.01-6.01,16.673,16.673,0,0,1,9.528,1.079c1.125.5,1.118.522.713,1.643-.385,1.069-.81,2.123-1.153,3.2-.216.678-.492.845-1.2.568a12.962,12.962,0,0,0-6.268-.854,5.866,5.866,0,0,0-5.262,4.2,16.37,16.37,0,0,0-.126,9.728c.712,2.583,2.729,3.606,5.207,3.966a19.664,19.664,0,0,0,6.771-.288c1.253-.251,1.263-.227,1.478,1,.2,1.144.387,2.29.575,3.435.074.443.053.8-.515.94a23.888,23.888,0,0,1-13.6-.286c-3.875-1.3-5.875-4.244-6.692-8.107A22.3,22.3,0,0,1,671.664,833.871Z" transform="translate(-523.992 -803.294)" fill="#393e45"/>
        <path id="Trazado_33670" data-name="Trazado 33670" d="M671.113,833.011q0,6.555,0,13.115c0,1.1-.014,1.109-1.114,1.11q-2.122.005-4.24,0c-1.174,0-1.177,0-1.177-1.218q0-6.35,0-12.7,0-6.722,0-13.447c0-1.033.047-1.077,1.077-1.081q2.161-.008,4.323,0c1.1,0,1.132.033,1.132,1.109Q671.116,826.452,671.113,833.011Z" transform="translate(-529.356 -802.984)" fill="#393e45"/>
        <path id="Trazado_33671" data-name="Trazado 33671" d="M587.908,832.91q0-6.471,0-12.944c0-1.165.007-1.174,1.139-1.177,1.467,0,2.936.016,4.4-.005.629-.011.884.211.884.868q-.024,13.359,0,26.718c0,.715-.293.892-.944.878-1.441-.032-2.882-.007-4.321-.011-1.158,0-1.162,0-1.163-1.135Q587.906,839.507,587.908,832.91Z" transform="translate(-587.417 -802.985)" fill="#393e45"/>
        <path id="Trazado_33673" data-name="Trazado 33673" d="M595.026,813.453a3.7,3.7,0,1,1-3.712-3.66A3.643,3.643,0,0,1,595.026,813.453Z" transform="translate(-587.628 -809.793)" fill="#393e45"/>
        <path id="Trazado_33674" data-name="Trazado 33674" d="M668.055,817.179a3.694,3.694,0,1,1,3.739-3.668A3.747,3.747,0,0,1,668.055,817.179Z" transform="translate(-529.557 -809.793)" fill="#393e45"/>
      </g>
    </g>
  </g>
</svg>
