<svg xmlns="http://www.w3.org/2000/svg" width="285" height="285" viewBox="0 0 285 285">
  <g id="infinitum" transform="translate(-1275 -4256)">
    <rect id="Rectángulo_2589" data-name="Rectángulo 2589" width="285" height="285" transform="translate(1275 4256)" fill="#fafafa"/>
    <g id="Grupo_4245" data-name="Grupo 4245" transform="translate(1303 4382)">
      <g id="Grupo_4237" data-name="Grupo 4237">
        <path id="Trazado_33711" data-name="Trazado 33711" d="M1564.556,833.261a2.332,2.332,0,0,0-1.092-.192h-.769v1.845h.815a2.447,2.447,0,0,0,.857-.114.914.914,0,0,0,.19-1.54Zm-.968-.829a3.868,3.868,0,0,1,1.4.184,1.278,1.278,0,0,1,.792,1.3,1.127,1.127,0,0,1-.5,1.016,1.962,1.962,0,0,1-.743.248,1.258,1.258,0,0,1,.88.508,1.425,1.425,0,0,1,.277.8v.378c0,.119.005.248.012.384a.878.878,0,0,0,.044.271l.03.063h-.838l-.014-.051-.01-.058-.021-.167V836.9a1.269,1.269,0,0,0-.483-1.184,2.162,2.162,0,0,0-1-.167h-.713v2.035h-.9v-5.157Zm-2.753-.255a3.907,3.907,0,0,0-1.17,2.851,3.957,3.957,0,0,0,1.163,2.871,4,4,0,0,0,5.68,0,4.085,4.085,0,0,0,0-5.722,3.987,3.987,0,0,0-5.673,0Zm6.144,6.17a4.64,4.64,0,0,1-6.6,0,4.723,4.723,0,0,1,.012-6.628,4.651,4.651,0,0,1,6.585,0,4.508,4.508,0,0,1,1.364,3.3,4.565,4.565,0,0,1-1.364,3.324Z" transform="translate(-1340.041 -807.26)" fill="#1ca3c9"/>
        <path id="Trazado_33712" data-name="Trazado 33712" d="M1434.312,826.551h8V849.14h-8V826.551Zm8-3.722h-8V817.2h8v5.628Z" transform="translate(-1434.312 -817.201)" fill="#1ca3c9"/>
        <path id="Trazado_33713" data-name="Trazado 33713" d="M1471.431,826.551h8V849.14h-8V826.551Zm8-3.722h-8V817.2h8v5.628Z" transform="translate(-1406.255 -817.201)" fill="#1ca3c9"/>
        <path id="Trazado_33714" data-name="Trazado 33714" d="M1496.051,826.551h8V849.14h-8V826.551Zm8-3.722h-8V817.2h8v5.628Z" transform="translate(-1387.645 -817.201)" fill="#1ca3c9"/>
        <path id="Trazado_33715" data-name="Trazado 33715" d="M1473.86,817.391c.377.014.888.035,1.54.063v4.911q-.619,0-2.067-.032a2.7,2.7,0,0,0-2,.53,1.724,1.724,0,0,0-.553,1.238v2.883h4.7v4.26h-4.7v17.813h-7.259V831.245h-3.961v-4.26h3.877v-1.5c0-2.492.5-5.145,1.51-6.086q1.586-2.03,7.659-2.03.693,0,1.256.019Z" transform="translate(-1415.229 -817.072)" fill="#1ca3c9"/>
        <path id="Trazado_33716" data-name="Trazado 33716" d="M1500.919,823.967q2.639,1.851,2.643,6.13v15.327h-9.08V831.591c.054-1.354-1.729-2.844-3.631-2.844-2.335,0-3.466,2.962-3.466,4.368v12.309h-8.758V822.678h8.518v3.352a10.8,10.8,0,0,1,2.556-2.532,10.034,10.034,0,0,1,5.485-1.38,8.4,8.4,0,0,1,5.733,1.849Z" transform="translate(-1400.817 -813.484)" fill="#1ca3c9"/>
        <path id="Trazado_33717" data-name="Trazado 33717" d="M1518.9,844.091q-2.639-1.852-2.642-6.128V822.636h9.078v13.834c-.054,1.352,1.729,2.841,3.631,2.841,2.335,0,3.468-2.962,3.468-4.365v-12.31h8.757v22.746h-8.518V842.03a10.86,10.86,0,0,1-2.556,2.532,10.034,10.034,0,0,1-5.485,1.378,8.384,8.384,0,0,1-5.731-1.849Z" transform="translate(-1372.368 -813.093)" fill="#1ca3c9"/>
        <path id="Trazado_33718" data-name="Trazado 33718" d="M1465.21,823.967q2.639,1.851,2.643,6.13v15.327h-9.078V831.591c.054-1.354-1.733-2.844-3.631-2.844-2.337,0-3.468,2.962-3.468,4.368v12.309h-8.758V822.678h8.518v3.352a10.776,10.776,0,0,1,2.558-2.532,10.026,10.026,0,0,1,5.486-1.38,8.4,8.4,0,0,1,5.731,1.849Z" transform="translate(-1427.808 -813.484)" fill="#1ca3c9"/>
        <path id="Trazado_33719" data-name="Trazado 33719" d="M1503.816,829.3V825h3.877v-6.62h7.343V825h4.537v4.3h-4.537v12.477c0,.969.144,1.573.435,1.81a5.547,5.547,0,0,0,2.665.358c.221,0,.458-.007.706-.023s.49-.033.731-.061v4.551l-3.494.167q-5.231.15-7.143-1.514a4.052,4.052,0,0,1-1.243-3.264V829.3Z" transform="translate(-1381.776 -816.31)" fill="#1ca3c9"/>
        <path id="Trazado_33720" data-name="Trazado 33720" d="M1570.72,823.967c-1.764-1.233-2.351-1.849-5.124-1.849a10.034,10.034,0,0,0-5.485,1.38,18.091,18.091,0,0,0-2.885,2.674,5.638,5.638,0,0,0-1.851-2.205c-1.764-1.233-2.351-1.849-5.124-1.849a10.034,10.034,0,0,0-5.485,1.38,10.81,10.81,0,0,0-2.557,2.532v-3.352h-8.516v22.746h8.755V833.115c0-1.406,1.132-4.368,3.469-4.368,1.9,0,3.684,1.491,3.63,2.844v13.833h8.47V831.361c.6-1.227,1.782-2.614,3.245-2.614,1.9,0,3.684,1.491,3.629,2.844v13.833h8.47V830.1q0-4.28-2.643-6.13Z" transform="translate(-1359.192 -813.484)" fill="#1ca3c9"/>
      </g>
    </g>
  </g>
</svg>
