<svg xmlns="http://www.w3.org/2000/svg" width="285" height="285" viewBox="0 0 285 285">
  <g id="oninternet" transform="translate(-665 -3646)">
    <rect id="Rectángulo_2567" data-name="Rectángulo 2567" width="285" height="285" transform="translate(665 3646)" fill="#fafafa"/>
    <g id="oninternet-2" data-name="oninternet" transform="translate(807.709 3788.395)">
      <g id="Grupo_4828" data-name="Grupo 4828" transform="translate(-71.709 -50.395)">
        <g id="Grupo_4826" data-name="Grupo 4826">
          <g id="Grupo_4822" data-name="Grupo 4822">
            <path id="Trazado_36079" data-name="Trazado 36079" d="M60.671,10.531A34.236,34.236,0,0,1,71.129,35.638a34.217,34.217,0,0,1-10.458,25.13A34.273,34.273,0,0,1,35.564,71.2,34.254,34.254,0,0,1,10.436,60.768,34.256,34.256,0,0,1,0,35.638,34.275,34.275,0,0,1,10.436,10.531,34.217,34.217,0,0,1,35.564.073,34.236,34.236,0,0,1,60.671,10.531ZM20.5,20.57a20.632,20.632,0,0,0-6.244,15.069A20.534,20.534,0,0,0,20.5,50.707a20.534,20.534,0,0,0,15.068,6.244,20.631,20.631,0,0,0,15.069-6.244,20.459,20.459,0,0,0,6.287-15.069A20.557,20.557,0,0,0,50.634,20.57a20.557,20.557,0,0,0-15.069-6.287A20.461,20.461,0,0,0,20.5,20.57Z" transform="translate(0 -0.026)" fill="#3f1c8e"/>
            <path id="Trazado_36080" data-name="Trazado 36080" d="M116.205,19.072V0l42.726,38.928V1.366h14.274l0,69.86Z" transform="translate(-40.65)" fill="#3f1c8e"/>
            <ellipse id="Elipse_452" data-name="Elipse 452" cx="8.697" cy="8.697" rx="8.697" ry="8.697" transform="translate(74.428 53.852)" fill="#00852a"/>
          </g>
          <g id="Grupo_4825" data-name="Grupo 4825" transform="translate(140.537 68.365)">
            <g id="Grupo_4824" data-name="Grupo 4824">
              <g id="Grupo_4823" data-name="Grupo 4823">
                <path id="Trazado_36081" data-name="Trazado 36081" d="M217.588,105.146a1.476,1.476,0,0,1,.709.186,1.33,1.33,0,0,1,.539.533,1.449,1.449,0,0,1,0,1.439,1.341,1.341,0,0,1-.533.534,1.449,1.449,0,0,1-1.434,0,1.351,1.351,0,0,1-.534-.534,1.443,1.443,0,0,1,0-1.439,1.324,1.324,0,0,1,.54-.533A1.474,1.474,0,0,1,217.588,105.146Zm0,.239a1.232,1.232,0,0,0-.591.155,1.123,1.123,0,0,0-.45.445,1.2,1.2,0,0,0,0,1.2,1.13,1.13,0,0,0,.446.445,1.2,1.2,0,0,0,1.2,0,1.127,1.127,0,0,0,.445-.445,1.2,1.2,0,0,0,0-1.2,1.111,1.111,0,0,0-.45-.445A1.233,1.233,0,0,0,217.588,105.385Zm-.555,1.962V105.8h.533a1.3,1.3,0,0,1,.4.043.385.385,0,0,1,.2.15.4.4,0,0,1,.072.227.415.415,0,0,1-.121.3.48.48,0,0,1-.322.141.436.436,0,0,1,.132.082,1.781,1.781,0,0,1,.229.308l.189.3h-.306l-.138-.244a1.255,1.255,0,0,0-.261-.361.321.321,0,0,0-.2-.053h-.148v.659Zm.25-.873h.3a.487.487,0,0,0,.3-.065.211.211,0,0,0,.079-.172.206.206,0,0,0-.038-.124.232.232,0,0,0-.106-.081.792.792,0,0,0-.251-.027h-.285Z" transform="translate(-216.147 -105.146)" fill="#3f1c8e"/>
              </g>
            </g>
          </g>
        </g>
        <g id="Grupo_4827" data-name="Grupo 4827" transform="translate(7.475 84.922)">
          <path id="Trazado_36082" data-name="Trazado 36082" d="M11.5,130.611h1.178v15.867H11.5Z" transform="translate(-11.497 -130.611)" fill="#464545"/>
          <path id="Trazado_36083" data-name="Trazado 36083" d="M24.607,130.611h1.111l10.949,13.8v-13.8H37.8v15.867h-.884l-11.175-14.1v14.1H24.607Z" transform="translate(-16.083 -130.611)" fill="#464545"/>
          <path id="Trazado_36084" data-name="Trazado 36084" d="M58.7,131.7H53.165v-1.088h12.24V131.7H59.874v14.779H58.7Z" transform="translate(-26.073 -130.611)" fill="#464545"/>
          <path id="Trazado_36085" data-name="Trazado 36085" d="M80.257,130.611H91.546V131.7H81.436v6.233h9.09v1.088h-9.09v6.37H91.659v1.088h-11.4Z" transform="translate(-35.55 -130.611)" fill="#464545"/>
          <path id="Trazado_36086" data-name="Trazado 36086" d="M107.42,130.611h6.664a6.251,6.251,0,0,1,4.465,1.564,4.179,4.179,0,0,1,1.2,2.946v.046c0,2.653-1.973,4.172-4.648,4.534l5.237,6.778h-1.5l-5.055-6.573H108.6v6.573H107.42Zm6.529,8.229c2.651,0,4.623-1.337,4.623-3.627v-.046c0-2.13-1.677-3.467-4.556-3.467H108.6v7.14Z" transform="translate(-45.052 -130.611)" fill="#464545"/>
          <path id="Trazado_36087" data-name="Trazado 36087" d="M136.431,130.611h1.111l10.948,13.8v-13.8h1.134v15.867h-.884l-11.175-14.1v14.1h-1.134Z" transform="translate(-55.2 -130.611)" fill="#464545"/>
          <path id="Trazado_36088" data-name="Trazado 36088" d="M167.778,130.611h11.289V131.7h-10.11v6.233h9.09v1.088h-9.09v6.37H179.18v1.088h-11.4Z" transform="translate(-66.166 -130.611)" fill="#464545"/>
          <path id="Trazado_36089" data-name="Trazado 36089" d="M198.381,131.7H192.85v-1.088h12.24V131.7h-5.531v14.779h-1.179Z" transform="translate(-74.936 -130.611)" fill="#464545"/>
        </g>
      </g>
    </g>
  </g>
</svg>
