<svg xmlns="http://www.w3.org/2000/svg" width="285" height="285" viewBox="0 0 285 285">
  <g id="cmr" transform="translate(-818 -4359)">
    <g id="meda" transform="translate(-457 407)">
      <rect id="Rectángulo_2567" data-name="Rectángulo 2567" width="285" height="285" transform="translate(1275 3952)" fill="#fafafa"/>
    </g>
    <g id="CMR-2" data-name="CMR" transform="translate(951.988 4497.724)">
      <g id="Grupo_4983" data-name="Grupo 4983" transform="translate(-84.989 -40.723)">
        <path id="Trazado_36571" data-name="Trazado 36571" d="M142.183,17.238a7.108,7.108,0,0,1,1.716,9.9A83.122,83.122,0,0,1,92.281,61.967,84.818,84.818,0,0,1,29.274,51.189l-.452-.325a7.02,7.02,0,0,1-1.779-9.494A7.378,7.378,0,0,1,37.07,39.19,69.508,69.508,0,0,0,89.111,48.1c16.905-3.682,31.753-13.774,42.943-29.179a7.377,7.377,0,0,1,10.129-1.685" transform="translate(41.475 25.494)" fill="#c50035"/>
        <path id="Trazado_36572" data-name="Trazado 36572" d="M40.3,33.964h0a5.25,5.25,0,0,0,1.095-3.2,5.446,5.446,0,0,0-5.523-5.37,5.569,5.569,0,0,0-4.605,2.4,10.177,10.177,0,0,1-8.579,4.5A10.95,10.95,0,0,1,11.372,21.23,10.948,10.948,0,0,1,22.688,10.168a9.761,9.761,0,0,1,7.546,3.25A5.48,5.48,0,0,0,34.463,15.4a5.389,5.389,0,0,0,5.448-5.323A5.242,5.242,0,0,0,38.39,6.392l.008-.008A20.945,20.945,0,0,0,22.688,0C7.952,0,0,10.937,0,21.23S7.952,42.464,22.688,42.464a22.293,22.293,0,0,0,17.381-8.212c.073-.091.148-.179.216-.273l.016-.016" fill="#6a5643"/>
        <path id="Trazado_36573" data-name="Trazado 36573" d="M72.655,35.6V16.453C72.655,5.651,64.874,0,57.185,0,52.036,0,47.769,2.06,45.47,5.471,43.177,2.06,38.912,0,33.761,0,26.071,0,18.283,5.651,18.283,16.453V36.125h0a5.444,5.444,0,0,0,10.885,0h.005v-19.6c0-4.067,2.587-5.885,5.141-5.885,3.786,0,5.71,2.346,5.71,6.982v18.5h.039a5.446,5.446,0,0,0,10.888,0,4.7,4.7,0,0,0-.036-.582V17.625c0-4.637,1.919-6.982,5.705-6.982,2.559,0,5.136,1.818,5.136,5.885v19.6H61.8a5.443,5.443,0,0,0,10.883,0,5,5,0,0,0-.029-.525" transform="translate(29.26)" fill="#6a5643"/>
        <path id="Trazado_36574" data-name="Trazado 36574" d="M70.785,24.8c4.878-2.281,7.965-5.942,7.965-11.044,0-8.6-6.181-13.519-15.379-13.519H47.48a5.182,5.182,0,0,0-5.237,5.115V35.874l0,.049a5.239,5.239,0,0,0,10.474.008h0V27.293h7.252c.614.91,6.407,9.429,7.479,11a5.365,5.365,0,0,0,4.7,2.743,5.283,5.283,0,0,0,5.341-5.219,5.106,5.106,0,0,0-1.326-3.43c-1.175-1.667-4.2-5.955-5.378-7.588m-18.07-7.383v-7.3H64.094c3.188,0,4.184,2.218,4.184,3.573s-.793,3.729-4.184,3.729Z" transform="translate(67.601 0.378)" fill="#6a5643"/>
      </g>
    </g>
  </g>
</svg>
