<svg xmlns="http://www.w3.org/2000/svg" width="285" height="285" viewBox="0 0 285 285">
  <g id="oxxo" transform="translate(-360 -4256)">
    <rect id="Rectángulo_2586" data-name="Rectángulo 2586" width="285" height="285" transform="translate(360 4256)" fill="#fafafa"/>
    <g id="Grupo_4865" data-name="Grupo 4865" transform="translate(363.496 4206.273)">
      <path id="Trazado_36214" data-name="Trazado 36214" d="M67.5,163.2a4.483,4.483,0,0,1,4.469-4.47H206.582a4.484,4.484,0,0,1,4.47,4.47v57.222a4.483,4.483,0,0,1-4.47,4.469H71.973a4.482,4.482,0,0,1-4.469-4.469V163.2Z" transform="translate(0)" fill="#ef9300" fill-rule="evenodd"/>
      <path id="Trazado_36215" data-name="Trazado 36215" d="M67.5,166.68H211.053v53.169H67.5V166.68Z" transform="translate(0 -1.457)" fill="#fff" fill-rule="evenodd"/>
      <path id="Trazado_36216" data-name="Trazado 36216" d="M213.772,183.586a11.921,11.921,0,1,0,11.92,11.923,11.944,11.944,0,0,0-11.92-11.923Z" transform="translate(-24.614 -4.554)" fill="#d9000d" fill-rule="evenodd"/>
      <path id="Trazado_36217" data-name="Trazado 36217" d="M93.47,183.586a11.921,11.921,0,1,0,11.92,11.923,11.944,11.944,0,0,0-11.92-11.923Z" transform="translate(-2.573 -4.554)" fill="#d9000d" fill-rule="evenodd"/>
      <path id="Trazado_36218" data-name="Trazado 36218" d="M188.222,170.74c-11.036-.253-16.224,6.823-23.755,15.551l-7.1,8.232,11.248,13.466c2.68,4.137-2.435,8.243-5.608,4.457l-10.4-12.405-10.134,11.748c-3.227,3.739-8.284-.438-5.547-4.537l11-12.793-7.207-8.6,4.636-5.742,7.33,8.806,6.319-7.35c3.1-3.6,6.261-8.379,10.359-10.835H67.5v46.536H91.319c11.037,0,16.047-6.6,23.373-15.5l6.913-8.4-11.558-13.2c-2.772-4.075,2.245-8.3,5.505-4.585l10.682,12.163,9.864-11.979c3.139-3.814,8.29.247,5.648,4.408l-10.7,13.045,7.4,8.429-4.665,5.525-7.37-8.312-6.146,7.492c-3.017,3.674-6.071,8.361-10.112,10.91h100.9V170.74Zm-78.492,22.414A18.834,18.834,0,1,1,90.9,174.319a18.869,18.869,0,0,1,18.833,18.835Zm79.428,18.834a18.835,18.835,0,1,1,18.833-18.834,18.871,18.871,0,0,1-18.833,18.834Z" transform="translate(0 -2.2)" fill="#d9000d" fill-rule="evenodd"/>
    </g>
  </g>
</svg>
