<svg xmlns="http://www.w3.org/2000/svg" xmlns:xlink="http://www.w3.org/1999/xlink" width="570" height="285" viewBox="0 0 570 285">
  <defs>
    <clipPath id="clip-path">
      <rect id="Rect치ngulo_2597" data-name="Rect치ngulo 2597" width="158.441" height="94.373" fill="none"/>
    </clipPath>
  </defs>
  <g id="Grupo_4468" data-name="Grupo 4468" transform="translate(-12459 -1976)">
    <rect id="Rect치ngulo_2567" data-name="Rect치ngulo 2567" width="570" height="285" transform="translate(12459 1976)" fill="#fff"/>
    <g id="FREEDOMPOP_DOSLINEAS" data-name="FREEDOMPOP DOSLINEAS" transform="translate(12048.605 1482.651)">
      <g id="Grupo_4269" data-name="Grupo 4269" transform="translate(616.395 588.349)">
        <g id="Grupo_4268" data-name="Grupo 4268" clip-path="url(#clip-path)">
          <path id="Trazado_33776" data-name="Trazado 33776" d="M632.089,588.351l-4.476,26.873h6.419l1.711-10.152h9.776l.907-5.34h-9.784l.9-5.634H648.7l.97-5.747Z" transform="translate(-616.216 -588.349)" fill="#00abe8"/>
          <g id="Grupo_4267" data-name="Grupo 4267" transform="translate(0 0)">
            <g id="Grupo_4266" data-name="Grupo 4266" clip-path="url(#clip-path)">
              <path id="Trazado_33777" data-name="Trazado 33777" d="M655.332,598.025c1.195-1.75,2.993-3.1,4.671-3.1a4.551,4.551,0,0,1,1.978.444l-1.42,5.676a5.308,5.308,0,0,0-1.948-.3A5.2,5.2,0,0,0,655.3,602.5l-2.123,12.615h-6.2l3.323-19.743h4.814Z" transform="translate(-615.909 -588.245)" fill="#00abe8"/>
              <path id="Trazado_33778" data-name="Trazado 33778" d="M677.553,613.106a16.187,16.187,0,0,1-8.5,2.5c-5.3,0-8.216-3.058-8.216-8.174,0-7.39,4.809-12.5,11.76-12.5,4.96,0,7.312,2.908,7.312,6.342,0,4.441-2.76,6.118-12.5,6.678,0,1.457,1.124,2.648,3.285,2.648a14.918,14.918,0,0,0,5.941-1.449Zm-3.466-11.719c0-1.013-.785-1.761-2.247-1.761-2.348,0-3.955,1.909-4.365,4.257,3.4-.259,6.612-.259,6.612-2.5" transform="translate(-615.689 -588.245)" fill="#00abe8"/>
              <path id="Trazado_33779" data-name="Trazado 33779" d="M697.269,613.106a16.158,16.158,0,0,1-8.505,2.5c-5.3,0-8.214-3.058-8.214-8.174,0-7.39,4.817-12.5,11.762-12.5,4.958,0,7.31,2.908,7.31,6.342,0,4.441-2.755,6.118-12.5,6.678,0,1.457,1.118,2.648,3.283,2.648a14.94,14.94,0,0,0,5.938-1.449ZM693.8,601.387c0-1.013-.782-1.761-2.236-1.761-2.353,0-3.958,1.909-4.365,4.257,3.4-.259,6.6-.259,6.6-2.5" transform="translate(-615.375 -588.245)" fill="#00abe8"/>
              <path id="Trazado_33780" data-name="Trazado 33780" d="M713.2,612.834a8.221,8.221,0,0,1-6.271,2.876c-4.4,0-6.529-2.876-6.529-7.69,0-8.587,5.036-12.991,10.259-12.991a5.991,5.991,0,0,1,4.783,2.165l1.46-8.843h6.151l-4.478,26.873h-5.415Zm1.417-11.046a3.865,3.865,0,0,0-3.1-1.531c-2.793,0-4.439,2.387-4.439,6.6,0,2.131.749,3.659,2.8,3.659a5.351,5.351,0,0,0,3.585-1.681Z" transform="translate(-615.06 -588.35)" fill="#00abe8"/>
              <path id="Trazado_33781" data-name="Trazado 33781" d="M733.527,594.925c5.19,0,8.624,3.026,8.624,8.4a13.541,13.541,0,0,1-.147,2.023c-1.079,7.646-6.091,10.255-11.688,10.255-5.56,0-8.584-2.983-8.584-8.246a18.028,18.028,0,0,1,.116-1.972c.929-7.511,6.226-10.459,11.68-10.459m-5.412,12.132c0,2.43,1.235,3.434,3.1,3.434,2.049,0,3.765-1.343,4.367-5.145a11.349,11.349,0,0,0,.153-1.871c0-2.465-1.2-3.435-2.96-3.435-2.2,0-3.913,1.455-4.473,5.037a13.664,13.664,0,0,0-.186,1.98" transform="translate(-614.721 -588.245)" fill="#00abe8"/>
              <path id="Trazado_33782" data-name="Trazado 33782" d="M751.124,595.374l.15,2.311a8.871,8.871,0,0,1,6.195-2.76c2.284,0,3.625.939,4.262,2.654a9.664,9.664,0,0,1,6.524-2.654c3.548,0,5.116,2.2,4.4,6.461l-2.313,13.734h-6.192l2.084-12.428c.267-1.6.042-2.469-1.412-2.469a4.92,4.92,0,0,0-2.907,1.312l-2.28,13.585h-6.205l2.057-12.206c.257-1.673.257-2.691-1.19-2.691a4.9,4.9,0,0,0-3.1,1.385l-2.279,13.512h-6.2l3.32-19.746Z" transform="translate(-614.387 -588.245)" fill="#00abe8"/>
              <path id="Trazado_33783" data-name="Trazado 33783" d="M699.792,616.594c12.333,0,20.485,7.185,20.485,19.947a30.59,30.59,0,0,1-.348,4.8c-2.572,18.159-14.459,24.364-27.746,24.364-13.216,0-20.4-7.083-20.4-19.587a40.113,40.113,0,0,1,.272-4.687c2.215-17.832,14.8-24.837,27.733-24.837m-12.836,28.814c0,5.769,2.922,8.159,7.347,8.159,4.894,0,8.967-3.191,10.371-12.224a26.852,26.852,0,0,0,.36-4.445c0-5.854-2.836-8.156-7.019-8.156-5.214,0-9.3,3.458-10.625,11.965a33.184,33.184,0,0,0-.434,4.7" transform="translate(-615.515 -587.901)" fill="#00abe8"/>
              <path id="Trazado_33784" data-name="Trazado 33784" d="M716.276,682.273l10.8-64.61h11.97l.725,5.41c4.869-4.439,9.934-6.464,15.585-6.464,8.682,0,14.8,5.84,14.8,18.34,0,17.9-8.413,30.675-23.921,30.675a15.062,15.062,0,0,1-11.7-4.96l-3.556,21.61ZM736.4,649.66a10.675,10.675,0,0,0,7.629,3.722c6.189,0,10.279-5.052,10.279-16.124,0-5.5-1.871-8.431-6.035-8.431-3.448,0-7.447,2.755-9.126,4.433Z" transform="translate(-614.808 -587.901)" fill="#00abe8"/>
              <path id="Trazado_33785" data-name="Trazado 33785" d="M616.4,682.273l10.8-64.61h11.973l.721,5.41c4.87-4.439,9.938-6.464,15.585-6.464,8.685,0,14.8,5.84,14.8,18.34,0,17.9-8.415,30.675-23.92,30.675a15.065,15.065,0,0,1-11.7-4.96l-3.556,21.61Zm20.122-32.613a10.676,10.676,0,0,0,7.632,3.722c6.189,0,10.276-5.052,10.276-16.124,0-5.5-1.869-8.431-6.035-8.431-3.448,0-7.445,2.755-9.127,4.433Z" transform="translate(-616.395 -587.901)" fill="#00abe8"/>
            </g>
          </g>
        </g>
      </g>
    </g>
  </g>
</svg>
