<svg xmlns="http://www.w3.org/2000/svg" width="216.186" height="70.653" viewBox="0 0 216.186 70.653">
  <g id="Grupo_5014" data-name="Grupo 5014" transform="translate(-403.752 -290.635)">
    <g id="Grupo_5012" data-name="Grupo 5012" transform="translate(467.308 350.169)">
      <path id="Trazado_36601" data-name="Trazado 36601" d="M560.93,437.6l1.045.776a5.5,5.5,0,0,1-4.433,2.224,5.559,5.559,0,1,1,4.448-8.88l-1.06.776a4.172,4.172,0,0,0-3.388-1.7,4.246,4.246,0,1,0,3.388,6.806Z" transform="translate(-551.975 -429.479)" fill="#fff"/>
      <path id="Trazado_36602" data-name="Trazado 36602" d="M591.19,442.3a3.591,3.591,0,0,1-3.582,3.582,3.575,3.575,0,1,1,0-7.149,3.566,3.566,0,0,1,3.582,3.568Zm-1.283,0a2.3,2.3,0,1,0-2.3,2.3A2.287,2.287,0,0,0,589.906,442.3Z" transform="translate(-570.283 -434.767)" fill="#fff"/>
      <path id="Trazado_36603" data-name="Trazado 36603" d="M616.617,442.07v3.672h-1.283V442.07a2.015,2.015,0,1,0-4.03,0v3.672H610.02v-6.836H611.3v.656a3.4,3.4,0,0,1,2.015-.791,3.282,3.282,0,0,1,2.343.955A3.319,3.319,0,0,1,616.617,442.07Z" transform="translate(-585.131 -434.787)" fill="#fff"/>
      <path id="Trazado_36604" data-name="Trazado 36604" d="M634.874,440.133V436.79h-1.015v-1.224h1.015v-2.642h1.283v2.642h2.1v1.224h-2.1V440.1a1.091,1.091,0,0,0,1.015,1.075h1.149l.328,1.224h-1.507A2.258,2.258,0,0,1,634.874,440.133Z" transform="translate(-598.748 -431.447)" fill="#fff"/>
      <path id="Trazado_36605" data-name="Trazado 36605" d="M658.879,438.887h1.283v6.836h-1.283v-.791a3.677,3.677,0,0,1-2.3.94,3.567,3.567,0,1,1,0-7.134,3.673,3.673,0,0,1,2.3.941Zm0,3.418a2.3,2.3,0,1,0-2.3,2.313A2.312,2.312,0,0,0,658.879,442.3Z" transform="translate(-609.681 -434.767)" fill="#fff"/>
      <path id="Trazado_36606" data-name="Trazado 36606" d="M685.158,444.409a5.284,5.284,0,0,1-.373.433,3.622,3.622,0,0,1-5.059,0,3.6,3.6,0,0,1,0-5.075,3.621,3.621,0,0,1,5.059,0,3.146,3.146,0,0,1,.359.418l-1.03.761a2.3,2.3,0,1,0-1.851,3.672,2.283,2.283,0,0,0,1.851-.97Z" transform="translate(-624.351 -434.767)" fill="#fff"/>
      <path id="Trazado_36607" data-name="Trazado 36607" d="M702.767,440.133V436.79h-1.015v-1.224h1.015v-2.642h1.283v2.642h2.1v1.224h-2.1V440.1a1.091,1.091,0,0,0,1.015,1.075h1.149l.328,1.224h-1.507A2.258,2.258,0,0,1,702.767,440.133Z" transform="translate(-637.53 -431.447)" fill="#fff"/>
      <path id="Trazado_36608" data-name="Trazado 36608" d="M741.638,444.409a5.308,5.308,0,0,1-.373.433,3.623,3.623,0,0,1-5.06,0,3.6,3.6,0,0,1,0-5.075,3.622,3.622,0,0,1,5.06,0,3.15,3.15,0,0,1,.358.418l-1.03.761a2.3,2.3,0,1,0-1.851,3.672,2.282,2.282,0,0,0,1.851-.97Z" transform="translate(-656.613 -434.767)" fill="#fff"/>
      <path id="Trazado_36609" data-name="Trazado 36609" d="M765.262,442.757h-5.269v.03a2.171,2.171,0,0,0,1.985,2,2.584,2.584,0,0,0,1.672-.716l1.075.641a4.039,4.039,0,0,1-.911.761,3.89,3.89,0,0,1-1.806.508,3.062,3.062,0,0,1-2.314-1.045,3.522,3.522,0,0,1-.925-2.15,2.246,2.246,0,0,1-.015-.313,3.707,3.707,0,0,1,.089-.806,3.589,3.589,0,0,1,.851-1.657,3.13,3.13,0,0,1,4.642,0,3.458,3.458,0,0,1,.851,1.657A4.083,4.083,0,0,1,765.262,442.757Zm-1.343-1.075-.015-.03a2.069,2.069,0,0,0-1.9-1.478,2.1,2.1,0,0,0-1.9,1.478l-.015.03Z" transform="translate(-670.091 -434.907)" fill="#fff"/>
      <path id="Trazado_36610" data-name="Trazado 36610" d="M789.676,442.07v3.672h-1.283V442.07a2.015,2.015,0,1,0-4.03,0v3.672h-1.283v-6.836h1.283v.656a3.4,3.4,0,0,1,2.015-.791,3.282,3.282,0,0,1,2.343.955A3.319,3.319,0,0,1,789.676,442.07Z" transform="translate(-683.985 -434.787)" fill="#fff"/>
      <path id="Trazado_36611" data-name="Trazado 36611" d="M807.931,440.133V436.79h-1.015v-1.224h1.015v-2.642h1.283v2.642h2.1v1.224h-2.1V440.1a1.091,1.091,0,0,0,1.015,1.075h1.149l.328,1.224H810.2A2.258,2.258,0,0,1,807.931,440.133Z" transform="translate(-697.601 -431.447)" fill="#fff"/>
      <path id="Trazado_36612" data-name="Trazado 36612" d="M832.563,442.757h-5.269v.03a2.171,2.171,0,0,0,1.985,2,2.584,2.584,0,0,0,1.672-.716l1.075.641a4.039,4.039,0,0,1-.911.761,3.89,3.89,0,0,1-1.806.508A3.062,3.062,0,0,1,827,444.936a3.521,3.521,0,0,1-.925-2.15,2.131,2.131,0,0,1-.015-.313,3.7,3.7,0,0,1,.09-.806,3.589,3.589,0,0,1,.851-1.657,3.13,3.13,0,0,1,4.642,0,3.458,3.458,0,0,1,.851,1.657A4.086,4.086,0,0,1,832.563,442.757Zm-1.343-1.075-.015-.03a2.069,2.069,0,0,0-1.9-1.478,2.1,2.1,0,0,0-1.9,1.478l-.015.03Z" transform="translate(-708.533 -434.907)" fill="#fff"/>
      <path id="Trazado_36613" data-name="Trazado 36613" d="M852.118,439.588a4.169,4.169,0,0,1,2.492-.851l-.313,1.284a2.12,2.12,0,0,0-2.179,2.06v3.642h-1.283v-6.836h1.283Z" transform="translate(-722.688 -434.767)" fill="#fff"/>
    </g>
    <g id="Grupo_5013" data-name="Grupo 5013" transform="translate(403.752 290.635)">
      <path id="Trazado_36614" data-name="Trazado 36614" d="M651.469,340.479A12.63,12.63,0,1,0,664.188,353.1a12.668,12.668,0,0,0-12.718-12.617m.019,20.392a7.768,7.768,0,1,1,7.448-7.769,7.613,7.613,0,0,1-7.448,7.769" transform="translate(-538 -319.107)" fill="#fff"/>
      <path id="Trazado_36615" data-name="Trazado 36615" d="M569.389,361.34l-3.541-3.543a7.353,7.353,0,0,1-6,3.161,7.768,7.768,0,0,1-.015-15.524,7.341,7.341,0,0,1,5.885,2.992l3.57-3.673a12.63,12.63,0,1,0,.233,16.617l-.137-.03" transform="translate(-485.656 -319.157)" fill="#fff"/>
      <path id="Trazado_36616" data-name="Trazado 36616" d="M617.122,337.917l0-4.782-6.456.006-.006-6.558-5.567.006.006,6.558-2.938,0,0,4.782,2.938,0,.013,13.9s-.031,3.484,2.668,4.711a10.724,10.724,0,0,0,9.359-.18l0-4.338a8.165,8.165,0,0,1-4.235.619c-1.776-.442-2.222-1.74-2.224-4.062l-.01-10.657Z" transform="translate(-517.083 -311.169)" fill="#fff"/>
      <path id="Trazado_36617" data-name="Trazado 36617" d="M717.982,340.415a10.625,10.625,0,0,0-8.509,4.51l0-4.04-5.38,0,.03,31.458,5.38-.005-.01-11.162a10.628,10.628,0,0,0,8.517,4.493c6.145-.006,11.121-5.665,11.114-12.64s-4.993-12.625-11.138-12.619m-1.5,20.393c-3.863,0-7-3.469-7-7.756s3.123-7.764,6.986-7.768,7,3.468,7,7.755-3.124,7.765-6.986,7.769" transform="translate(-575.309 -319.07)" fill="#fff"/>
      <path id="Trazado_36618" data-name="Trazado 36618" d="M784.561,362.23a8.786,8.786,0,0,1-7.528,4.226,8.556,8.556,0,0,1-8.564-8.548l-.015-16.037,5.36-.005.014,14.312a5.4,5.4,0,0,0,10.8-.01l-.014-14.312,5.534-.005.023,24.081-5.6.005Z" transform="translate(-612.075 -319.89)" fill="#fff"/>
      <path id="Trazado_36619" data-name="Trazado 36619" d="M843.447,356.808c-.411-1.434-1.234-3.842-7.716-5.782a24.818,24.818,0,0,1-3.716-1.508,2.311,2.311,0,0,1-1.271-2.43c.461-1.725,2.621-1.989,2.621-1.989a12.062,12.062,0,0,1,7.511,2.31l2.122-4a20.514,20.514,0,0,0-9.25-2.5c-4.971,0-8.041,3.978-7.987,6.719s.544,5.994,6.463,7.423,7.022,2.99,6.153,4.708-2.586,1.617-4.123,1.618-4.2-.688-7.355-2.836l-2.379,3.64s3.667,3.711,11.557,3.473,7.781-7.411,7.37-8.845" transform="translate(-644.101 -319.352)" fill="#fff"/>
      <path id="Trazado_36620" data-name="Trazado 36620" d="M469.7,341.515a26.326,26.326,0,0,1-27.162-4.848,20.367,20.367,0,0,0,5.87-2.817,20.64,20.64,0,0,0,6.42-7.216,20.1,20.1,0,0,0,1.722-4.37,20.508,20.508,0,1,0-39.629.038,20.123,20.123,0,0,0,1.73,4.369,20.612,20.612,0,0,0,6.338,7.133,20.31,20.31,0,0,0,5.825,2.83,26.337,26.337,0,0,1-27.06,5l4.65-4.672a20.62,20.62,0,0,0,4.831.569,20.287,20.287,0,0,0,5.933-.884,26.374,26.374,0,1,1,35.11.009,20.521,20.521,0,0,0,10.777.212Z" transform="translate(-403.752 -290.635)" fill="#fff"/>
      <path id="Trazado_36621" data-name="Trazado 36621" d="M845.258,317.039c-6.318-1.169-11.844,1.572-16,5.934h1.217c5.975-4.817,14.516-5.2,19.282,1.293,3.678,5.14,4.354,12.322,2.753,19.019a30.627,30.627,0,0,1-.974,3.251c-1.765-.423-3.474-.359-4.293,1.216-1.338,2.573-3.677,7.638-4.8,10.164a5.277,5.277,0,0,0-.464,2.354c-3.318.036-6.635-.035-9.951-.169.169-.962-.048-1.985-.614-2.246a14.392,14.392,0,0,0-6.37-1.015,2.676,2.676,0,0,0-1.036.247,2.415,2.415,0,0,0-.868,2.179,2.257,2.257,0,0,0,.713,1.662,2.226,2.226,0,0,0,.937.292c2.359.365,1.28.111,3.639.476.172.027,1.959.289,2.131.259a1.648,1.648,0,0,0,1.143-.9,81.352,81.352,0,0,0,10.847,1.057,4.773,4.773,0,0,0,2.273,1.813c2.486,1.06,6.328,2.56,7.857.015a51.5,51.5,0,0,0,3.713-7.8c.94-2.285,2.08-5.019.93-6.806a34.266,34.266,0,0,0,1.73-6.057c1.886-10.643-2.3-23.688-13.8-26.246" transform="translate(-643.304 -305.563)" fill="#e64a00"/>
    </g>
  </g>
</svg>
