<svg id="Grupo_4710" data-name="Grupo 4710" xmlns="http://www.w3.org/2000/svg" width="371.777" height="124.313" viewBox="0 0 371.777 124.313">
  <path id="Trazado_34999" data-name="Trazado 34999" d="M964.457,340.479a21.72,21.72,0,1,0,21.872,21.7,21.786,21.786,0,0,0-21.872-21.7m.034,35.068A13.36,13.36,0,1,1,977.3,362.186a13.093,13.093,0,0,1-12.807,13.361" transform="translate(-769.324 -303.724)" fill="#fff"/>
  <path id="Trazado_35000" data-name="Trazado 35000" d="M889.256,376.291l-6.089-6.092a12.647,12.647,0,0,1-10.312,5.436,13.36,13.36,0,0,1-.025-26.7,12.622,12.622,0,0,1,10.121,5.145l6.14-6.316a21.72,21.72,0,1,0,.4,28.577l-.236-.052" transform="translate(-745.259 -303.748)" fill="#fff"/>
  <path id="Trazado_35001" data-name="Trazado 35001" d="M931.745,346.074l-.007-8.223-11.1.01-.011-11.278-9.574.01.011,11.278-5.052,0,.007,8.223,5.052,0L911.091,370s-.053,5.992,4.589,8.1,11.281,2.515,16.094-.309l-.007-7.46s-4.227,1.826-7.283,1.064-3.821-2.992-3.825-6.986l-.018-18.327Z" transform="translate(-759.708 -300.075)" fill="#fff"/>
  <path id="Trazado_35002" data-name="Trazado 35002" d="M1031.832,340.415a18.275,18.275,0,0,0-14.633,7.755l-.007-6.948-9.252.008.052,54.1,9.252-.009-.018-19.2a18.277,18.277,0,0,0,14.647,7.727c10.568-.01,19.126-9.742,19.114-21.738s-8.588-21.711-19.155-21.7m-2.58,35.07c-6.642.007-12.032-5.966-12.039-13.338s5.372-13.353,12.014-13.359,12.033,5.965,12.039,13.336-5.372,13.354-12.014,13.361" transform="translate(-786.476 -303.708)" fill="#fff"/>
  <path id="Trazado_35003" data-name="Trazado 35003" d="M1100.006,376.9a15.106,15.106,0,0,1-12.945,7.267,14.714,14.714,0,0,1-14.728-14.7l-.026-27.578,9.218-.009.024,24.613a9.283,9.283,0,0,0,18.565-.018l-.024-24.613,9.516-.009.039,41.412-9.633.009Z" transform="translate(-803.379 -304.085)" fill="#fff"/>
  <path id="Trazado_35004" data-name="Trazado 35004" d="M1160.921,368.251c-.707-2.467-2.121-6.606-13.269-9.944a42.717,42.717,0,0,1-6.391-2.593,3.974,3.974,0,0,1-2.184-4.18c.793-2.967,4.506-3.42,4.506-3.42,3.373-.307,8.352.8,12.918,3.973l3.65-6.876a35.279,35.279,0,0,0-15.908-4.3c-8.547.008-13.827,6.841-13.735,11.555s.935,10.308,11.114,12.766,12.076,5.143,10.582,8.1-4.447,2.78-7.091,2.782-7.226-1.183-12.648-4.878l-4.091,6.26s6.306,6.382,19.875,5.972,13.381-12.744,12.673-15.211" transform="translate(-818.102 -303.837)" fill="#fff"/>
  <path id="Trazado_35005" data-name="Trazado 35005" d="M821.011,378.134A45.273,45.273,0,0,1,774.3,369.8a35.025,35.025,0,0,0,10.094-4.844,35.5,35.5,0,0,0,11.041-12.41,34.529,34.529,0,0,0,2.961-7.515,35.273,35.273,0,1,0-65.174,7.579,35.441,35.441,0,0,0,10.9,12.267,34.918,34.918,0,0,0,10.018,4.868,45.292,45.292,0,0,1-46.535,8.6l8-8.034a35.457,35.457,0,0,0,8.307.979,34.889,34.889,0,0,0,10.2-1.52,45.354,45.354,0,1,1,60.379.016,35.291,35.291,0,0,0,18.534.364Z" transform="translate(-707.605 -290.635)" fill="#fff"/>
  <g id="Grupo_4700" data-name="Grupo 4700" transform="translate(111.002 105.262)">
    <path id="Trazado_35006" data-name="Trazado 35006" d="M923.613,447.653l1.789,1.329a9.424,9.424,0,0,1-7.595,3.81,9.525,9.525,0,1,1,7.62-15.215l-1.815,1.33a7.148,7.148,0,0,0-5.805-2.915,7.275,7.275,0,1,0,5.805,11.661Z" transform="translate(-908.27 -433.742)" fill="#fff"/>
    <path id="Trazado_35007" data-name="Trazado 35007" d="M947.252,447.57a6.154,6.154,0,0,1-6.137,6.137,6.125,6.125,0,1,1,0-12.249,6.112,6.112,0,0,1,6.137,6.113Zm-2.2,0a3.938,3.938,0,1,0-3.938,3.938A3.918,3.918,0,0,0,945.053,447.57Z" transform="translate(-911.433 -434.656)" fill="#fff"/>
    <path id="Trazado_35008" data-name="Trazado 35008" d="M967.943,447.138v6.291h-2.2v-6.291a3.453,3.453,0,1,0-6.9,0v6.291h-2.2V441.717h2.2v1.125a5.837,5.837,0,0,1,3.452-1.355,5.622,5.622,0,0,1,4.014,1.636A5.685,5.685,0,0,1,967.943,447.138Z" transform="translate(-913.998 -434.659)" fill="#fff"/>
    <path id="Trazado_35009" data-name="Trazado 35009" d="M978.244,448.964v-5.728h-1.739v-2.1h1.739v-4.526h2.2v4.526h3.606v2.1h-3.606v5.677a1.868,1.868,0,0,0,1.738,1.842h1.969l.562,2.1h-2.582A3.868,3.868,0,0,1,978.244,448.964Z" transform="translate(-916.351 -434.082)" fill="#fff"/>
    <path id="Trazado_35010" data-name="Trazado 35010" d="M1002.53,441.714h2.2v11.712h-2.2v-1.356a6.3,6.3,0,0,1-3.939,1.612,6.112,6.112,0,1,1,0-12.224,6.3,6.3,0,0,1,3.939,1.612Zm0,5.856a3.938,3.938,0,1,0-3.939,3.964A3.961,3.961,0,0,0,1002.53,447.57Z" transform="translate(-918.24 -434.656)" fill="#fff"/>
    <path id="Trazado_35011" data-name="Trazado 35011" d="M1024.954,451.175a9.179,9.179,0,0,1-.639.741,6.206,6.206,0,0,1-8.668,0,6.173,6.173,0,0,1,0-8.695,6.2,6.2,0,0,1,8.668,0,5.426,5.426,0,0,1,.614.717l-1.765,1.3a3.942,3.942,0,1,0-3.171,6.292,3.91,3.91,0,0,0,3.171-1.663Z" transform="translate(-920.774 -434.656)" fill="#fff"/>
    <path id="Trazado_35012" data-name="Trazado 35012" d="M1034.822,448.964v-5.728h-1.739v-2.1h1.739v-4.526h2.2v4.526h3.606v2.1h-3.606v5.677a1.869,1.869,0,0,0,1.738,1.842h1.969l.563,2.1h-2.583A3.869,3.869,0,0,1,1034.822,448.964Z" transform="translate(-923.051 -434.082)" fill="#fff"/>
    <path id="Trazado_35013" data-name="Trazado 35013" d="M1072.021,451.175a9.166,9.166,0,0,1-.64.741,6.206,6.206,0,0,1-8.668,0,6.175,6.175,0,0,1,0-8.695,6.2,6.2,0,0,1,8.668,0,5.355,5.355,0,0,1,.614.717l-1.765,1.3a3.942,3.942,0,1,0-3.17,6.292,3.91,3.91,0,0,0,3.17-1.663Z" transform="translate(-926.348 -434.656)" fill="#fff"/>
    <path id="Trazado_35014" data-name="Trazado 35014" d="M1091.733,448.13h-9.026v.051a3.72,3.72,0,0,0,3.4,3.428,4.427,4.427,0,0,0,2.864-1.228l1.842,1.1a6.961,6.961,0,0,1-1.56,1.3,6.684,6.684,0,0,1-3.094.869,5.246,5.246,0,0,1-3.964-1.79,6.034,6.034,0,0,1-1.586-3.683,3.907,3.907,0,0,1-.025-.537,6.366,6.366,0,0,1,.153-1.381,6.16,6.16,0,0,1,1.457-2.839,5.35,5.35,0,0,1,3.964-1.765,5.407,5.407,0,0,1,3.989,1.765,5.937,5.937,0,0,1,1.458,2.839A7.028,7.028,0,0,1,1091.733,448.13Zm-2.3-1.842-.025-.05a3.545,3.545,0,0,0-3.248-2.532,3.6,3.6,0,0,0-3.248,2.532l-.026.05Z" transform="translate(-928.677 -434.68)" fill="#fff"/>
    <path id="Trazado_35015" data-name="Trazado 35015" d="M1112.157,447.138v6.291h-2.2v-6.291a3.453,3.453,0,1,0-6.9,0v6.291h-2.2V441.717h2.2v1.125a5.833,5.833,0,0,1,3.452-1.355,5.622,5.622,0,0,1,4.014,1.636A5.684,5.684,0,0,1,1112.157,447.138Z" transform="translate(-931.077 -434.659)" fill="#fff"/>
    <path id="Trazado_35016" data-name="Trazado 35016" d="M1122.458,448.964v-5.728h-1.739v-2.1h1.739v-4.526h2.2v4.526h3.6v2.1h-3.6v5.677a1.868,1.868,0,0,0,1.738,1.842h1.97l.563,2.1h-2.582A3.869,3.869,0,0,1,1122.458,448.964Z" transform="translate(-933.43 -434.082)" fill="#fff"/>
    <path id="Trazado_35017" data-name="Trazado 35017" d="M1147.818,448.13h-9.026v.051a3.72,3.72,0,0,0,3.4,3.428,4.427,4.427,0,0,0,2.864-1.228l1.841,1.1a6.941,6.941,0,0,1-1.559,1.3,6.684,6.684,0,0,1-3.094.869,5.247,5.247,0,0,1-3.964-1.79,6.035,6.035,0,0,1-1.586-3.683,3.777,3.777,0,0,1-.026-.537,6.367,6.367,0,0,1,.154-1.381,6.153,6.153,0,0,1,1.457-2.839,5.35,5.35,0,0,1,3.964-1.765,5.407,5.407,0,0,1,3.989,1.765,5.936,5.936,0,0,1,1.458,2.839A7.039,7.039,0,0,1,1147.818,448.13Zm-2.3-1.842-.026-.05a3.544,3.544,0,0,0-3.248-2.532,3.6,3.6,0,0,0-3.248,2.532l-.026.05Z" transform="translate(-935.319 -434.68)" fill="#fff"/>
    <path id="Trazado_35018" data-name="Trazado 35018" d="M1159.518,442.916a7.136,7.136,0,0,1,4.27-1.459l-.537,2.2a3.633,3.633,0,0,0-3.734,3.529v6.24h-2.2V441.714h2.2Z" transform="translate(-937.764 -434.656)" fill="#fff"/>
  </g>
  <path id="Trazado_35019" data-name="Trazado 35019" d="M1165.04,317.233c-10.866-2.011-20.368,2.7-27.518,10.2h2.093c10.276-8.283,24.963-8.949,33.16,2.224,6.325,8.84,7.488,21.19,4.734,32.707a52.706,52.706,0,0,1-1.675,5.592c-3.035-.727-5.975-.618-7.384,2.09-2.3,4.425-6.323,13.134-8.248,17.48a9.074,9.074,0,0,0-.8,4.049c-5.706.063-11.41-.06-17.113-.29.291-1.655-.082-3.413-1.055-3.862-1.136-.524-6.5-2.318-10.955-1.745a4.6,4.6,0,0,0-1.782.426,4.153,4.153,0,0,0-1.493,3.747,3.88,3.88,0,0,0,1.226,2.858,3.828,3.828,0,0,0,1.612.5c4.056.628,2.2.19,6.258.819.3.046,3.368.5,3.664.445a2.834,2.834,0,0,0,1.966-1.548,139.91,139.91,0,0,0,18.654,1.818,8.208,8.208,0,0,0,3.908,3.118c4.275,1.822,10.883,4.4,13.511.026a88.543,88.543,0,0,0,6.386-13.406c1.616-3.93,3.576-8.631,1.6-11.7a58.914,58.914,0,0,0,2.975-10.416c3.244-18.3-3.96-40.736-23.725-45.135" transform="translate(-817.736 -297.498)" fill="#e64a00"/>
</svg>
