<svg xmlns="http://www.w3.org/2000/svg" width="34.869" height="34.869" viewBox="0 0 34.869 34.869">
  <g id="res-insta" transform="translate(0.501 0.5)">
    <g id="Grupo_2530" data-name="Grupo 2530" transform="translate(-0.001 0)">
      <path id="Trazado_8510" data-name="Trazado 8510" d="M465.264,0A16.934,16.934,0,1,1,448.33,16.934,16.934,16.934,0,0,1,465.264,0" transform="translate(-448.33)" fill="none" stroke="#fff" stroke-width="1"/>
      <g id="Grupo_2532" data-name="Grupo 2532" transform="translate(6.272 6.272)">
        <path id="Trazado_8511" data-name="Trazado 8511" d="M483.992,26.921c2.847,0,3.184.011,4.309.062a5.9,5.9,0,0,1,1.98.367,3.53,3.53,0,0,1,2.024,2.024,5.9,5.9,0,0,1,.367,1.98c.051,1.124.062,1.462.062,4.309s-.011,3.184-.062,4.309a5.9,5.9,0,0,1-.367,1.98,3.53,3.53,0,0,1-2.024,2.024,5.9,5.9,0,0,1-1.98.367c-1.124.051-1.461.062-4.309.062s-3.184-.011-4.309-.062a5.9,5.9,0,0,1-1.98-.367,3.53,3.53,0,0,1-2.024-2.024,5.9,5.9,0,0,1-.367-1.98c-.051-1.124-.062-1.462-.062-4.309s.011-3.184.062-4.309a5.9,5.9,0,0,1,.367-1.98A3.53,3.53,0,0,1,477.7,27.35a5.9,5.9,0,0,1,1.98-.367c1.124-.051,1.462-.062,4.309-.062m0-1.921c-2.9,0-3.259.012-4.4.064a7.828,7.828,0,0,0-2.588.5,5.451,5.451,0,0,0-3.118,3.118,7.828,7.828,0,0,0-.5,2.588c-.052,1.137-.064,1.5-.064,4.4s.012,3.259.064,4.4a7.828,7.828,0,0,0,.5,2.588,5.451,5.451,0,0,0,3.118,3.118,7.828,7.828,0,0,0,2.588.5c1.137.052,1.5.064,4.4.064s3.259-.012,4.4-.064a7.828,7.828,0,0,0,2.588-.5,5.451,5.451,0,0,0,3.118-3.118,7.828,7.828,0,0,0,.5-2.588c.052-1.137.064-1.5.064-4.4s-.012-3.259-.064-4.4a7.828,7.828,0,0,0-.5-2.588,5.451,5.451,0,0,0-3.118-3.118,7.827,7.827,0,0,0-2.588-.5c-1.137-.052-1.5-.064-4.4-.064" transform="translate(-473.33 -25)" fill="#fff"/>
        <path id="Trazado_8512" data-name="Trazado 8512" d="M499.481,45.676a5.475,5.475,0,1,0,5.475,5.475,5.475,5.475,0,0,0-5.475-5.475m0,9.029a3.554,3.554,0,1,1,3.554-3.554,3.554,3.554,0,0,1-3.554,3.554" transform="translate(-488.819 -40.489)" fill="#fff"/>
        <path id="Trazado_8513" data-name="Trazado 8513" d="M535.976,40.992a1.279,1.279,0,1,1-1.279-1.279,1.279,1.279,0,0,1,1.279,1.279" transform="translate(-518.342 -36.021)" fill="#fff"/>
      </g>
    </g>
  </g>
</svg>
