<svg xmlns="http://www.w3.org/2000/svg" xmlns:xlink="http://www.w3.org/1999/xlink" width="34.869" height="34.869" viewBox="0 0 34.869 34.869">
  <defs>
    <clipPath id="clip-path">
      <rect id="Rectángulo_2369" data-name="Rectángulo 2369" width="21.071" height="21.014" transform="translate(0 0)" fill="#fff"/>
    </clipPath>
  </defs>
  <g id="rs-in" transform="translate(0.5 0.5)">
    <path id="Trazado_8510" data-name="Trazado 8510" d="M465.264,0A16.934,16.934,0,1,1,448.33,16.934,16.934,16.934,0,0,1,465.264,0" transform="translate(-448.33 0)" fill="none" stroke="#fff" stroke-width="1"/>
    <g id="Grupo_3741" data-name="Grupo 3741" transform="translate(6.563 5.251)">
      <g id="Grupo_3740" data-name="Grupo 3740" transform="translate(0 0)" clip-path="url(#clip-path)">
        <path id="Trazado_21130" data-name="Trazado 21130" d="M32.474,27.424c.292-.328.533-.661.833-.944a4.567,4.567,0,0,1,3.286-1.3,7.6,7.6,0,0,1,2.066.252,4.038,4.038,0,0,1,2.868,3.016,12.64,12.64,0,0,1,.382,3.455c0,2.456-.007,4.912,0,7.368,0,.23-.064.29-.29.288q-1.9-.015-3.8,0c-.223,0-.271-.067-.27-.278q.01-3.505,0-7.011a6.3,6.3,0,0,0-.2-1.74A1.957,1.957,0,0,0,35.2,29.009a2.352,2.352,0,0,0-2.472,2.348,8.765,8.765,0,0,0-.067,1.1c0,2.273,0,4.546.006,6.818,0,.227-.056.293-.287.292q-1.912-.017-3.823,0c-.2,0-.263-.053-.263-.26q.008-6.75,0-13.5c0-.223.073-.274.283-.273q1.815.013,3.631,0c.223,0,.28.07.276.281-.012.538,0,1.076,0,1.614" transform="translate(-20.838 -18.55)" fill="#fff"/>
        <path id="Trazado_21131" data-name="Trazado 21131" d="M5.64,33.532c0,2.226,0,4.452.005,6.678,0,.247-.061.322-.317.319-1.265-.014-2.53-.011-3.794,0-.2,0-.264-.049-.263-.259q.009-6.761,0-13.521c0-.186.045-.253.243-.252,1.283.008,2.566.011,3.849,0,.246,0,.28.093.279.3q-.009,3.367,0,6.733" transform="translate(-0.936 -19.516)" fill="#fff"/>
        <path id="Trazado_21132" data-name="Trazado 21132" d="M5.053,2.514A2.526,2.526,0,1,1,2.53,0,2.535,2.535,0,0,1,5.053,2.514" transform="translate(0 0)" fill="#fff"/>
      </g>
    </g>
  </g>
</svg>
