<svg xmlns="http://www.w3.org/2000/svg" width="33" height="34" viewBox="0 0 33 34">
  <g id="rs-mesenger" transform="translate(-303.501 -5599.5)">
    <path id="Exclusi칩n_1" data-name="Exclusi칩n 1" d="M-9009.7,1596.854a.986.986,0,0,1-.991-.964l-.07-2.21a.971.971,0,0,0-.333-.708,11.779,11.779,0,0,1-3.9-8.916,11.831,11.831,0,0,1,3.589-8.625,12.633,12.633,0,0,1,8.839-3.429,12.633,12.633,0,0,1,8.839,3.429,11.831,11.831,0,0,1,3.589,8.625,11.831,11.831,0,0,1-3.589,8.624,12.633,12.633,0,0,1-8.839,3.43,13.652,13.652,0,0,1-3.6-.477,1.009,1.009,0,0,0-.268-.036.978.978,0,0,0-.4.084l-2.466,1.088A.991.991,0,0,1-9009.7,1596.854Zm4.9-15.935a1.859,1.859,0,0,0-1.579.87l-3.651,5.792a.565.565,0,0,0-.023.592.61.61,0,0,0,.524.319.588.588,0,0,0,.356-.126l3.921-2.975a.736.736,0,0,1,.451-.152.738.738,0,0,1,.447.15l2.9,2.177a1.844,1.844,0,0,0,1.116.373,1.861,1.861,0,0,0,1.581-.871l3.649-5.792a.565.565,0,0,0,.024-.591.614.614,0,0,0-.525-.319.587.587,0,0,0-.354.125l-3.921,2.977a.745.745,0,0,1-.451.151.746.746,0,0,1-.449-.149l-2.9-2.179A1.852,1.852,0,0,0-9004.806,1580.918Z" transform="translate(9322.047 4032.188)" fill="#fff" stroke="rgba(0,0,0,0)" stroke-width="1"/>
    <rect id="Rect치ngulo_2388" data-name="Rect치ngulo 2388" width="32" height="33" rx="16" transform="translate(304.001 5600)" fill="none" stroke="#fff" stroke-width="1"/>
  </g>
</svg>
