<svg xmlns="http://www.w3.org/2000/svg" width="33.895" height="33.896" viewBox="0 0 33.895 33.896">
  <g id="rs-twitter" transform="translate(0.964 0.265)">
    <path id="Trazado_21172" data-name="Trazado 21172" d="M32.9,16.448A16.448,16.448,0,1,1,16.448,0,16.448,16.448,0,0,1,32.9,16.448" transform="translate(-0.464 0.235)" fill="none" stroke="#fff" stroke-width="1" fill-rule="evenodd"/>
    <path id="Trazado_21173" data-name="Trazado 21173" d="M33.081,52.676A12.342,12.342,0,0,0,45.507,40.249q0-.284-.012-.565a8.891,8.891,0,0,0,2.179-2.261,8.718,8.718,0,0,1-2.508.687,4.383,4.383,0,0,0,1.921-2.416,8.755,8.755,0,0,1-2.773,1.06,4.371,4.371,0,0,0-7.443,3.983,12.4,12.4,0,0,1-9-4.563,4.371,4.371,0,0,0,1.352,5.831,4.337,4.337,0,0,1-1.978-.547c0,.018,0,.037,0,.056a4.37,4.37,0,0,0,3.5,4.282,4.364,4.364,0,0,1-1.972.075,4.372,4.372,0,0,0,4.08,3.033,8.763,8.763,0,0,1-5.424,1.869,8.866,8.866,0,0,1-1.042-.06,12.364,12.364,0,0,0,6.695,1.962" transform="translate(-20.421 -26.52)" fill="#fff"/>
  </g>
</svg>
