<svg xmlns="http://www.w3.org/2000/svg" width="130" height="104" viewBox="0 0 130 104">
  <g id="Grupo_6203" data-name="Grupo 6203" transform="translate(-9464 -5992)">
    <g id="high-five_7861968" transform="translate(9481.859 5997)">
      <g id="Grupo_6202" data-name="Grupo 6202" transform="translate(0.14 0)">
        <path id="Trazado_40369" data-name="Trazado 40369" d="M92.54,150.213a6.953,6.953,0,0,0-9.243-1.786l-5.226,3.241,13.906-24.083a6.825,6.825,0,0,0-5.626-10.232l.364-.631a6.814,6.814,0,0,0-11.8-6.814l-.34.588a6.817,6.817,0,0,0-11.64.273l-1.367,2.368a6.81,6.81,0,0,0-11.637.267l-2.875,4.979-2.874-4.979a6.82,6.82,0,0,0-11.641-.273l-1.364-2.362a6.813,6.813,0,0,0-11.638-.269l-.342-.592a6.814,6.814,0,1,0-11.8,6.814l.362.627A6.832,6.832,0,0,0,2.13,127.586l4.117,7.13a1.834,1.834,0,0,0,3.176-1.834l-4.117-7.13a3.159,3.159,0,0,1,5.472-3.159l12.9,22.347a1.833,1.833,0,0,0,3.176-1.833L10.568,114.889a3.147,3.147,0,0,1,5.452-3.147L32.3,139.934a1.833,1.833,0,0,0,3.175-1.835L22.4,115.453A3.147,3.147,0,0,1,28,112.6l12.909,22.359a1.834,1.834,0,0,0,3.175-1.835L35.4,118.088a3.147,3.147,0,0,1,5.6-2.85L59.335,146.99a16.822,16.822,0,0,1-6.157,22.979l-7.424,4.286A21.83,21.83,0,0,1,19.8,171.169L4.829,156.936a3.442,3.442,0,0,1-.326-4.526,3.307,3.307,0,0,1,4.375-.866l11.431,7.088a1.833,1.833,0,0,0,2.554-2.475l-5.187-8.983a1.834,1.834,0,0,0-3.176,1.834l1.536,2.661-5.226-3.241a6.953,6.953,0,0,0-9.244,1.786,7.11,7.11,0,0,0,.735,9.38l14.967,14.232a25.471,25.471,0,0,0,29.785,3.9,25.492,25.492,0,0,0,29.785-3.9L91.8,159.594a7.109,7.109,0,0,0,.735-9.381Zm-43.37-28.163,3.933-6.812a3.148,3.148,0,0,1,5.6,2.857L52.8,128.33Zm9.364,16.219L54.914,132,66.107,112.6a3.148,3.148,0,0,1,5.606,2.843Zm30.744,18.667L74.311,171.168a21.829,21.829,0,0,1-23.4,4.346l4.1-2.37a20.488,20.488,0,0,0,7.5-27.988l-1.859-3.22,17.435-30.195a3.147,3.147,0,1,1,5.451,3.148L67.251,143.107a1.833,1.833,0,0,0,3.176,1.833l12.9-22.347a3.159,3.159,0,1,1,5.472,3.159l-17.557,30.4a1.833,1.833,0,0,0,2.554,2.475l11.432-7.088a3.307,3.307,0,0,1,4.375.867,3.441,3.441,0,0,1-.326,4.525Z" transform="translate(-0.14 -86.972)" fill="#fff"/>
        <path id="Trazado_40370" data-name="Trazado 40370" d="M247.844,12.866a1.834,1.834,0,0,0,1.833-1.833v-9.2a1.833,1.833,0,1,0-3.667,0v9.2A1.834,1.834,0,0,0,247.844,12.866Z" transform="translate(-200.931 0)" fill="#fff"/>
        <path id="Trazado_40371" data-name="Trazado 40371" d="M169.23,64.855a1.834,1.834,0,0,0,2.593-2.593l-4.514-4.514a1.834,1.834,0,0,0-2.593,2.593Z" transform="translate(-134.103 -46.721)" fill="#fff"/>
        <path id="Trazado_40372" data-name="Trazado 40372" d="M305.053,65.39a1.828,1.828,0,0,0,1.3-.537l4.515-4.515a1.834,1.834,0,1,0-2.593-2.593l-4.515,4.515a1.834,1.834,0,0,0,1.3,3.13Z" transform="translate(-247.651 -46.72)" fill="#fff"/>
        <circle id="Elipse_472" data-name="Elipse 472" cx="1.833" cy="1.833" r="1.833" transform="translate(10 52.133)" fill="#fff"/>
      </g>
    </g>
    <rect id="Rectángulo_2731" data-name="Rectángulo 2731" width="130" height="104" transform="translate(9464 5992)" fill="none"/>
  </g>
</svg>
