<svg xmlns="http://www.w3.org/2000/svg" xmlns:xlink="http://www.w3.org/1999/xlink" width="80" height="80" viewBox="0 0 80 80">
  <defs>
    <clipPath id="clip-path">
      <rect id="Rect치ngulo_2980" data-name="Rect치ngulo 2980" width="43.245" height="59.282" fill="#13002e"/>
    </clipPath>
  </defs>
  <g id="Grupo_5615" data-name="Grupo 5615" transform="translate(-1710 -2465)">
    <rect id="Rect치ngulo_2978" data-name="Rect치ngulo 2978" width="80" height="80" transform="translate(1710 2465)" fill="none"/>
    <g id="Grupo_5614" data-name="Grupo 5614" transform="translate(1728 2475)">
      <g id="Grupo_5613" data-name="Grupo 5613" transform="translate(0 0)" clip-path="url(#clip-path)">
        <path id="Trazado_37070" data-name="Trazado 37070" d="M42.509,20.374a.738.738,0,0,0,.737-.737V13.464a1.639,1.639,0,0,0-1.637-1.636H26.288a1.639,1.639,0,0,0-1.636,1.636V18.8c-1.544-1.778-3.485-3.7-4.258-4.464l-.227-.224a7.016,7.016,0,0,0-1.6-1.122c1.511-.807,3.186-2.454,3.385-5.846a.757.757,0,0,0,0-.125l-.116-1.041,3.671-.6a.737.737,0,1,0-.239-1.454l-3.6.592-.123-1.1A3.827,3.827,0,0,0,17.326.025L13.242.479A3.821,3.821,0,0,0,9.865,4.7l.266,2.4.178,1.587a5.486,5.486,0,0,0,3.066,4.349,4.329,4.329,0,0,0-.667.5,3.513,3.513,0,0,0-1.151,2.621c0,1.52.954,7.74,1.85,13.451.179,1.144.315,2.015.373,2.416L11.363,42.989a.493.493,0,0,1-.178.282L2.1,50.443l-.012.006L.533,51.56a.75.75,0,0,0-.081.065,1.438,1.438,0,0,0-.193,1.87l3.925,5.48a.739.739,0,0,0,1.028.171l.882-.628a2.19,2.19,0,0,0,.563-2.99l10.32-8.247a1.941,1.941,0,0,0,.634-.907l2.454-7.36a47.808,47.808,0,0,0,7.49,2.037l2.666,13.892c0,.008,0,.016,0,.025l.33,1.886a.816.816,0,0,0,.026.1,1.441,1.441,0,0,0,1.363,1,1.319,1.319,0,0,0,.24-.022l6.636-1.181a.736.736,0,0,0,.6-.852l-.187-1.066a2.194,2.194,0,0,0-2.5-1.793l-2.573-14.77A3.04,3.04,0,0,0,32.6,36.1L24.22,31.6l-.341-5.164.563.506a2.393,2.393,0,0,0,.215.16c0,.012-.006.021-.006.032v1.609a1.639,1.639,0,0,0,1.636,1.637H41.609a1.639,1.639,0,0,0,1.637-1.637.737.737,0,1,0-1.474,0,.163.163,0,0,1-.163.163H26.288a.163.163,0,0,1-.162-.163V27.575h.046c4-.19,10.014-.467,10.755-.483l1.5.271a.989.989,0,0,0,.138.012l3.954-.035a.736.736,0,0,0,.732-.737V21.9a.739.739,0,0,0-.225-.53.759.759,0,0,0-.538-.207l-3.384.111a.741.741,0,0,0-.35.1l-1.228.722-10.008-.349a.781.781,0,0,1-.479-.223L26.1,20.6a.71.71,0,0,0,.028-.144V13.464a.164.164,0,0,1,.162-.162H41.609a.164.164,0,0,1,.163.162v6.173a.737.737,0,0,0,.737.737M11.829,2.812a2.331,2.331,0,0,1,1.576-.868l4.083-.455a2.355,2.355,0,0,1,2.6,2.077l.131,1.18L11.511,6.171l-.182-1.631a2.342,2.342,0,0,1,.5-1.728m-.056,5.718-.1-.891,8.705-1.425.1.9c-.31,4.694-4,5.128-4.432,5.162a4.315,4.315,0,0,1-4.275-3.747M5.238,57.317l-.285.2L1.471,52.7l.88-.626,1.261,1.742L5.41,56.3a.728.728,0,0,1-.172,1.016m10.974-11.41a.485.485,0,0,1-.155.224L5.8,54.324l-.427-.593L3.532,51.194,12.1,44.428a1.969,1.969,0,0,0,.7-1.122l1.948-8.83a13.381,13.381,0,0,0,3.722,3.731c.077.053.166.106.255.159Zm21.262,8.708a.728.728,0,0,1,.3.471l.06.345L31.985,56.5,31.8,55.433l5.132-.94a.739.739,0,0,1,.544.122M31.9,37.4A1.565,1.565,0,0,1,32.7,38.52l2.571,14.761-3.738.7L29,40.771a1.443,1.443,0,0,0-1.131-1.145c-3.268-.663-7.232-1.7-8.557-2.628-2.577-1.8-3.894-3.83-4.056-5.042-.018-.135-.054-.381-.1-.71l7.514-.769.107,1.625a.737.737,0,0,0,.387.6Zm-9.324-8.4-7.645.783c-.021-.133-.041-.267-.064-.407-.6-3.794-1.834-11.69-1.834-13.223a2.052,2.052,0,0,1,.686-1.546,3.535,3.535,0,0,1,2.57-.854,5.548,5.548,0,0,1,2.838,1.39l.233.232c.693.684,2.683,2.652,4.2,4.4L21.3,22.666l-1.886-1.688a.737.737,0,1,0-.983,1.1L20.9,24.289a.735.735,0,0,0,.557.185.719.719,0,0,0,.179-.053l.669.6Zm4.849-5.781,10.264.359a.818.818,0,0,0,.4-.1l1.252-.736,2.435-.08v3.207l-3.154.028-1.5-.272a.393.393,0,0,0-.134-.011c-.589,0-9.828.435-10.862.484a1.025,1.025,0,0,1-.7-.258l-2.784-2.5,1.8-2.3L26,22.579a2.3,2.3,0,0,0,1.423.645" transform="translate(0 0)" fill="#13002e"/>
      </g>
    </g>
  </g>
</svg>
