<svg xmlns="http://www.w3.org/2000/svg" width="130" height="104" viewBox="0 0 130 104">
  <g id="Grupo_6204" data-name="Grupo 6204" transform="translate(-9466 -5828)">
    <g id="sales-enablement_12958385" transform="translate(9487.499 5837)">
      <path id="Trazado_40373" data-name="Trazado 40373" d="M74.111,156.736a6.626,6.626,0,0,0-3.167-1.3,13.974,13.974,0,0,0-.084-2.653,48.735,48.735,0,0,0-10.077-24.418,2.51,2.51,0,0,0-.283-5H58.761l2.8-6.649a2.51,2.51,0,0,0-2.309-3.485H37.345a2.51,2.51,0,0,0-2.309,3.485l2.8,6.649H36.095a2.509,2.509,0,0,0-.434,4.98,44.325,44.325,0,0,0-8.642,17.485,24.265,24.265,0,0,0-4.436.861l-2.88.845H15.52v-.719a2.508,2.508,0,0,0-2.505-2.51H3.006A2.508,2.508,0,0,0,.5,146.814v24.814a2.508,2.508,0,0,0,2.505,2.51H13.014a2.508,2.508,0,0,0,2.505-2.51v-.333H19.47l13.224,6.634a19.182,19.182,0,0,0,8.552,2.029,18.963,18.963,0,0,0,7.538-1.557l23.927-10.225a6.7,6.7,0,0,0,3.5-8.769A6.471,6.471,0,0,0,74.111,156.736Zm-63.6,12.382h-5V149.324h5Zm44.966-50.869-2.151,5.114H43.271l-2.151-5.114ZM42.524,128.383h11.5a35.008,35.008,0,0,1,4.819,5.838,44.831,44.831,0,0,1,7.045,19.2,9.011,9.011,0,0,1-.147,3.108l-9.948,3.6a6.746,6.746,0,0,0-.311-1.475,6.644,6.644,0,0,0-1.729-2.732,7.807,7.807,0,0,0,2.112-4.48,6.941,6.941,0,0,0-4.774-7.565c-.8-.285-1.426-.52-1.972-.744a13.327,13.327,0,0,1-2.384-1.2,1.485,1.485,0,0,1,.6-2.534,3.913,3.913,0,0,1,.956-.169,3.207,3.207,0,0,1,2.1.63,2.456,2.456,0,0,0,3.592-.354,2.4,2.4,0,0,0-.234-3.371,7.845,7.845,0,0,0-3.077-1.629v-.285a2.555,2.555,0,0,0-2.384-2.578,2.507,2.507,0,0,0-2.626,2.507v.518a6.638,6.638,0,0,0-4.323,5.118,5.982,5.982,0,0,0,2,5.879,15.87,15.87,0,0,0,3.882,2.112c.615.253,1.312.516,2.192.828a1.954,1.954,0,0,1,1.474,2.224,2.779,2.779,0,0,1-1.8,2.278l-7.94-4.381a24.348,24.348,0,0,0-8.962-2.862A37.463,37.463,0,0,1,42.524,128.383ZM70.74,163.56,46.813,173.786a14,14,0,0,1-5.566,1.151,14.157,14.157,0,0,1-6.31-1.5l-13.753-6.9a2.5,2.5,0,0,0-1.121-.266H15.52V152.553h4.543a2.5,2.5,0,0,0,.7-.1l3.225-.946a19.294,19.294,0,0,1,14.749,1.621l11.073,6.108a1.677,1.677,0,0,1,.823,2.279,1.625,1.625,0,0,1-2.212.737l-10.284-5.157a2.509,2.509,0,0,0-2.243,4.489l10.275,5.153a6.659,6.659,0,0,0,5.378.264l18.034-6.522a1.647,1.647,0,0,1,1.155,3.082Z" transform="translate(0 -94.283)" fill="#fff"/>
      <path id="Trazado_40374" data-name="Trazado 40374" d="M33.137,54.955a2.519,2.519,0,0,0,3.332.139l6.16-5.059a2.508,2.508,0,0,0-3.176-3.882l-2.35,1.93a32.931,32.931,0,0,1,21.591-30.5,2.509,2.509,0,0,0-1.716-4.716A37.952,37.952,0,0,0,32.118,47.041l-1.27-1.214a2.508,2.508,0,0,0-3.459,3.632Z" transform="translate(-21.743 -10.585)" fill="#fff"/>
      <path id="Trazado_40375" data-name="Trazado 40375" d="M374.268,32.175A38.016,38.016,0,0,0,356.4,5.431l1.664-.528A2.51,2.51,0,0,0,356.552.117l-7.59,2.41a2.534,2.534,0,0,0-1.688,2.952l1.432,7.751a2.505,2.505,0,1,0,4.926-.914L353.076,9.3a33.015,33.015,0,0,1,11.888,45.678,2.506,2.506,0,1,0,4.287,2.6A37.976,37.976,0,0,0,374.7,37.946,38.45,38.45,0,0,0,374.268,32.175Z" transform="translate(-288.694 0)" fill="#fff"/>
    </g>
    <rect id="Rectángulo_2731" data-name="Rectángulo 2731" width="130" height="104" transform="translate(9466 5828)" fill="none"/>
  </g>
</svg>
