<svg xmlns="http://www.w3.org/2000/svg" width="130" height="104" viewBox="0 0 130 104">
  <g id="Grupo_4751" data-name="Grupo 4751" transform="translate(0.347 -0.018)">
    <path id="Trazado_35129" data-name="Trazado 35129" d="M1046.951,691.84v-1.432a14.908,14.908,0,0,0,1.167-1.057A21.272,21.272,0,0,0,1053.5,677.5a10.449,10.449,0,0,0,6.749-4.011c2.253-3.187,2.457-7.774.575-13.528a1.566,1.566,0,0,0-.623-.808l-.854-.575a21.086,21.086,0,0,0-5.039-14.195c-4.183-4.71-10.6-7.089-19.108-7.121h0c-8.489,0-14.928,2.411-19.108,7.06a21.086,21.086,0,0,0-5.039,14.195l-.854.576a1.565,1.565,0,0,0-.623.808c-1.881,5.783-1.678,10.341.575,13.528a10.485,10.485,0,0,0,6.749,4.057,21.257,21.257,0,0,0,5.4,11.863,15,15,0,0,0,1.164,1.057v1.432c-5.954,1.151-29.727,6.731-29.323,22.59a1.554,1.554,0,0,0,1.555,1.555h79.033a1.554,1.554,0,0,0,1.555-1.555C1076.681,698.571,1052.906,692.991,1046.951,691.84Zm-34.207-20.213c-1.555-2.27-1.694-5.706-.31-10.247l1.135-.763a1.553,1.553,0,0,0,.685-1.445,18.369,18.369,0,0,1,4.228-12.8c3.514-3.982,9.158-5.971,16.715-6s13.2,2.021,16.777,6a18.368,18.368,0,0,1,4.229,12.8,1.553,1.553,0,0,0,.685,1.445l1.135.763c1.384,4.525,1.29,7.977-.31,10.247a6.774,6.774,0,0,1-3.313,2.409,10.353,10.353,0,0,0,2.534-7.774,7.276,7.276,0,0,0-2.5-4.352c-.669-15.549-11.569-17.291-16.263-17.291a20.446,20.446,0,0,1-5.941,0c-4.665,0-15.549,1.71-16.263,17.291a7.274,7.274,0,0,0-2.534,4.338,10.34,10.34,0,0,0,2.534,7.774,6.755,6.755,0,0,1-3.3-2.411Zm38.593-10.357a32.012,32.012,0,0,1-18.581-4.662,1.556,1.556,0,0,0-2.023.2c-3.11,3.343-8.784,4.121-11.521,4.292.84-10.994,7.5-13.389,13.092-13.389a14.837,14.837,0,0,1,2.66.219,1.584,1.584,0,0,0,.621,0,15.255,15.255,0,0,1,2.66-.219c5.55,0,12.236,2.457,13.012,13.544Zm-31.517,13.062a1.553,1.553,0,0,0-.388-1.041c-2.13-2.443-3.11-4.665-2.847-6.5a4.128,4.128,0,0,1,1.416-2.628c2.053,0,9.329-.388,13.994-4.416a35.047,35.047,0,0,0,17.259,4.664,20.506,20.506,0,0,0,3.2-.171,4.1,4.1,0,0,1,1.4,2.55c.263,1.8-.717,4.057-2.845,6.5a1.545,1.545,0,0,0-.391,1.041v.808l-9.048,4.852a4.476,4.476,0,1,0,1.4,3.249c.007-.139.007-.281,0-.42l7.137-3.824a17.1,17.1,0,0,1-4.169,8.208,13.841,13.841,0,0,1-10.306,3.856h-.779a13.878,13.878,0,0,1-10.293-3.84c-4.913-4.9-4.8-12.827-4.8-12.9Zm20.042,8.909a1.384,1.384,0,1,1-1.384-1.383h0A1.384,1.384,0,0,1,1039.862,683.242Zm-6.219,29.542H997.289c1.228-11.678,20.213-16.56,26.154-17.82v2.783c0,3.53,4.29,6.219,10.2,6.672Zm-7.089-15.083v-5.318a18.8,18.8,0,0,0,8.256,1.742h.776a18.8,18.8,0,0,0,8.256-1.742v5.363c0,1.477-3.375,3.607-8.644,3.607s-8.644-2.13-8.644-3.607Zm10.2,15.129V704.4c5.909-.4,10.2-3.11,10.2-6.669v-2.722c5.987,1.244,24.878,6.126,26.152,17.818Z" transform="translate(-970.552 -624.247)" fill="#fff"/>
    <rect id="Rectángulo_2734" data-name="Rectángulo 2734" width="130" height="104" transform="translate(-0.347 0.018)" fill="none"/>
  </g>
</svg>
