<svg id="icon_servicios_de_campo" xmlns="http://www.w3.org/2000/svg" width="80.61" height="78.122" viewBox="0 0 80.61 78.122">
  <path id="Trazado_21357" data-name="Trazado 21357" d="M1.864,2.729A1.4,1.4,0,0,0,.49,4.1,1.363,1.363,0,0,0,1.864,5.44,1.363,1.363,0,0,0,3.238,4.1,1.4,1.4,0,0,0,1.864,2.729" transform="translate(17.704 65.331)" fill="#fff"/>
  <path id="Trazado_21358" data-name="Trazado 21358" d="M2.981,2.729A1.4,1.4,0,0,0,1.607,4.1a1.374,1.374,0,0,0,2.748,0A1.4,1.4,0,0,0,2.981,2.729" transform="translate(58.061 65.331)" fill="#fff"/>
  <path id="Trazado_21359" data-name="Trazado 21359" d="M77.936,46.195a8.907,8.907,0,0,0-5.681-2.413c-.52-3.156-2.562-12.884-7.24-17.823a11.857,11.857,0,0,0-8.614-3.6H52.614a23.026,23.026,0,0,0-2.97-10.025l-.037-.074-.074-.111a22.846,22.846,0,0,0-8.094-8.094l-.111-.111L41.215,3.9A22.6,22.6,0,0,0,30,.9,22.847,22.847,0,0,0,18.751,3.9l-.111.037-.074.111a22.743,22.743,0,0,0-8.057,8.094l-.111.111-.074.074A22.5,22.5,0,0,0,7.389,22.357H1.225A1.2,1.2,0,0,0,0,23.545v42.44a5.277,5.277,0,0,0,5.31,5.272h5.57a8.723,8.723,0,0,0,17.34,0H52.354a8.723,8.723,0,0,0,17.34,0H75.3a5.325,5.325,0,0,0,5.31-5.272V55.663c0-2.748,0-6.795-2.673-9.468M63.27,27.63c3.936,4.159,5.867,12.7,6.5,16.077h-12.7a4.4,4.4,0,0,1-4.381-4.418V24.771H56.4A9.654,9.654,0,0,1,63.27,27.63M18.825,6.688,19.9,8.545a1.309,1.309,0,0,0,1.114.594,1.048,1.048,0,0,0,.557-.149,1.28,1.28,0,0,0,.483-1.671L21.016,5.5a20.086,20.086,0,0,1,7.76-2.116V5.5A1.236,1.236,0,0,0,30,6.725,1.2,1.2,0,0,0,31.189,5.5V3.384A20.45,20.45,0,0,1,39.024,5.5L37.984,7.32A1.232,1.232,0,0,0,38.43,8.99a1.176,1.176,0,0,0,.594.149,1.358,1.358,0,0,0,1.114-.594l1.04-1.857a21.343,21.343,0,0,1,5.681,5.718l-1.819,1.077a1.184,1.184,0,0,0-.446,1.671,1.231,1.231,0,0,0,1.04.594,1.369,1.369,0,0,0,.631-.186l1.782-1.04a20.153,20.153,0,0,1,2.116,7.834H48.047a1.2,1.2,0,0,0-1.188,1.188,1.182,1.182,0,0,0,1.188,1.225h2.116a19.465,19.465,0,0,1-2.116,7.8l-1.782-1.04a1.236,1.236,0,0,0-1.671.483,1.192,1.192,0,0,0,.446,1.671l1.819,1.04a21.343,21.343,0,0,1-5.681,5.718l-1.04-1.819a1.267,1.267,0,0,0-1.708-.446,1.215,1.215,0,0,0-.446,1.671l1.04,1.819a19.741,19.741,0,0,1-7.834,2.042V41.665A1.214,1.214,0,0,0,30,40.4a1.244,1.244,0,0,0-1.225,1.262v2.042a19.39,19.39,0,0,1-7.76-2.042l1.04-1.819a1.26,1.26,0,0,0-.483-1.671,1.232,1.232,0,0,0-1.671.446L18.825,40.44a20.818,20.818,0,0,1-5.681-5.718l1.819-1.04a1.223,1.223,0,0,0,.446-1.671,1.236,1.236,0,0,0-1.671-.483l-1.819,1.04a20.057,20.057,0,0,1-2.079-7.8h2.079a1.212,1.212,0,0,0,1.225-1.225,1.229,1.229,0,0,0-1.225-1.188H9.84a20.777,20.777,0,0,1,2.079-7.834l1.819,1.04a1.151,1.151,0,0,0,.631.186,1.185,1.185,0,0,0,1.04-.594,1.215,1.215,0,0,0-.446-1.671l-1.819-1.077a20.818,20.818,0,0,1,5.681-5.718M19.531,76.6a6.294,6.294,0,1,1,6.312-6.275A6.291,6.291,0,0,1,19.531,76.6m23.355-7.76H28.145a8.7,8.7,0,0,0-17.154,0H5.31a2.86,2.86,0,0,1-2.859-2.859v-.371H7.834a1.218,1.218,0,0,0,1-.557,1.259,1.259,0,0,0,.149-1.151L6.238,57.3a1.335,1.335,0,0,0-1.151-.743H2.451V54.289H42.885ZM2.451,63.163V59H4.27l1.708,4.159Zm0-11.288V24.771H7.389A22.363,22.363,0,0,0,10.322,34.8l.074.111.111.186a22.837,22.837,0,0,0,8.057,8.02l.074.111.186.037a22.269,22.269,0,0,0,22.352,0l.149-.037.111-.111c.483-.3.965-.594,1.448-.928v9.691ZM61.042,76.6a6.294,6.294,0,1,1,6.275-6.275A6.3,6.3,0,0,1,61.042,76.6M78.159,63.163H73.592L71.884,59h6.275Zm0-6.609H70.065a1.285,1.285,0,0,0-1.04.557,1.265,1.265,0,0,0-.111,1.151l2.748,6.609a1.278,1.278,0,0,0,1.114.743h5.384v.371A2.884,2.884,0,0,1,75.3,68.844H69.619a8.722,8.722,0,0,0-17.191,0H45.336V40.18a20.84,20.84,0,0,0,4.121-5.087l.149-.186.037-.111a9.665,9.665,0,0,0,.557-1.04v5.532a6.9,6.9,0,0,0,6.869,6.869H70.845c2.376,0,4.2.557,5.347,1.745,1.968,1.931,1.968,5.272,1.968,7.723Z" transform="translate(0 -0.896)" fill="#fff"/>
  <path id="Trazado_21360" data-name="Trazado 21360" d="M9.113,2.269H2.578A1.229,1.229,0,0,0,1.353,3.457,1.212,1.212,0,0,0,2.578,4.682H9.113a1.212,1.212,0,0,0,1.225-1.225A1.229,1.229,0,0,0,9.113,2.269" transform="translate(48.884 48.711)" fill="#fff"/>
  <path id="Trazado_21361" data-name="Trazado 21361" d="M1.106,9.213l10.4,6.015a1.176,1.176,0,0,0,.594.149,1.09,1.09,0,0,0,.594-.149,1.2,1.2,0,0,0,.631-1.077V2.344a1.226,1.226,0,0,0-2.451,0v9.691L2.331,7.1a1.248,1.248,0,0,0-1.671.446,1.215,1.215,0,0,0,.446,1.671" transform="translate(17.904 8.498)" fill="#fff"/>
</svg>
