<svg xmlns="http://www.w3.org/2000/svg" width="175" height="104" viewBox="0 0 175 104">
  <g id="Grupo_4746" data-name="Grupo 4746" transform="translate(0.33)">
    <g id="icon_tecnicos" transform="translate(26.67 29.954)">
      <g id="Grupo_4107" data-name="Grupo 4107" transform="translate(0 0)">
        <g id="Grupo_4106" data-name="Grupo 4106">
          <circle id="Elipse_27" data-name="Elipse 27" cx="12.6" cy="12.6" r="12.6" transform="translate(3.362)" fill="#fff"/>
          <path id="Trazado_21386" data-name="Trazado 21386" d="M1197.879,535.451c-8.814,0-15.961,5.641-15.961,12.6v20.49h31.925v-20.49C1213.843,541.092,1206.7,535.451,1197.879,535.451Z" transform="translate(-1181.917 -508.055)" fill="#fff"/>
          <circle id="Elipse_28" data-name="Elipse 28" cx="12.6" cy="12.6" r="12.6" transform="translate(40.467)" fill="#fff"/>
          <path id="Trazado_21387" data-name="Trazado 21387" d="M1213.725,535.451c-8.817,0-15.964,5.641-15.964,12.6v20.49h31.928v-20.49C1229.689,541.092,1222.542,535.451,1213.725,535.451Z" transform="translate(-1160.658 -508.055)" fill="#fff"/>
        </g>
      </g>
      <g id="Grupo_4109" data-name="Grupo 4109" transform="translate(75.284 7.61)">
        <g id="Grupo_4108" data-name="Grupo 4108">
          <path id="Trazado_21388" data-name="Trazado 21388" d="M1257.8,562.2l-9.594-9.592a.752.752,0,0,0-1.066,0l-2.135,2.136-2.665-2.667,2.747-2.742a11.356,11.356,0,0,0,10.491-3.028h0a11.375,11.375,0,0,0,2.655-11.788.752.752,0,0,0-1.241-.283l-5.353,5.346-3.993-1.33-1.332-4,5.346-5.351a.754.754,0,0,0-.281-1.243,11.308,11.308,0,0,0-14.823,13.142l-2.742,2.747-9.609-9.615-.3-3.248a.762.762,0,0,0-.44-.618l-5.862-2.66a.756.756,0,0,0-.846.15l-2.124,2.126a.756.756,0,0,0-.152.846l2.66,5.864a.754.754,0,0,0,.618.438l3.25.3,9.611,9.608-15.018,15.015a5.283,5.283,0,0,0,0,7.461l1.063,1.063a5.283,5.283,0,0,0,7.461,0l15.023-15.013,2.665,2.665-2.136,2.136a.752.752,0,0,0,0,1.066l9.592,9.592a5.282,5.282,0,0,0,7.463,0l1.066-1.065a5.275,5.275,0,0,0,0-7.461Zm-35.921-26.324a.73.73,0,0,0-.463-.218l-3.084-.286-2.262-4.988,1.389-1.389,4.988,2.262.285,3.084a.755.755,0,0,0,.216.461l9.8,9.807-1.061,1.061Zm1.185,33.342a3.773,3.773,0,0,1-5.332,0l-1.064-1.061a3.777,3.777,0,0,1,0-5.335l21.254-21.254a.755.755,0,0,0,.2-.728,9.814,9.814,0,0,1,11.568-12.1l-4.77,4.777a.751.751,0,0,0-.182.773l1.6,4.794a.754.754,0,0,0,.478.475l4.794,1.6a.75.75,0,0,0,.77-.18l4.777-4.77a9.793,9.793,0,0,1-12.1,11.566.737.737,0,0,0-.726.194ZM1240.22,554.2l.855-.857.2-.2,2.669,2.665-1.064,1.061Zm16.519,14.395-1.068,1.063a3.768,3.768,0,0,1-5.328,0l-9.06-9.058,6.4-6.4,9.06,9.06a3.771,3.771,0,0,1,0,5.33Z" transform="translate(-1214.065 -527.002)" fill="#fff"/>
        </g>
      </g>
    </g>
    <rect id="Rectángulo_2731" data-name="Rectángulo 2731" width="175" height="104" transform="translate(-0.33)" fill="none"/>
  </g>
</svg>
