<svg xmlns="http://www.w3.org/2000/svg" width="130" height="104" viewBox="0 0 130 104">
  <g id="Grupo_4939" data-name="Grupo 4939" transform="translate(-11212 -3902)">
    <rect id="Rectángulo_2731" data-name="Rectángulo 2731" width="130" height="104" transform="translate(11212 3902)" fill="none"/>
    <g id="Grupo_4938" data-name="Grupo 4938" transform="translate(11018.193 3571.953)">
      <path id="Trazado_36427" data-name="Trazado 36427" d="M284.69,400.214a7.854,7.854,0,0,0-8.67-11.867V383.8a9.839,9.839,0,0,0,7.857-9.624v-7.991a9.835,9.835,0,0,0-9.824-9.824h-7.863a9.81,9.81,0,0,0-7.852-3.927H242.621a9.833,9.833,0,0,0-9.824,9.821V374.18a9.839,9.839,0,0,0,7.857,9.624v4.543a7.851,7.851,0,0,0-8.67,11.867,9.84,9.84,0,0,0-7.178,9.459v7.857a1.967,1.967,0,0,0,1.966,1.966h23.575a1.964,1.964,0,0,0,1.964-1.966v-7.857a9.838,9.838,0,0,0-7.175-9.459,7.835,7.835,0,0,0-.631-9.424L251.294,384h14.087l6.789,6.789a7.835,7.835,0,0,0-.631,9.424,9.838,9.838,0,0,0-7.175,9.459v7.857a1.964,1.964,0,0,0,1.964,1.966H289.9a1.967,1.967,0,0,0,1.966-1.966v-7.857A9.84,9.84,0,0,0,284.69,400.214Zm-2.646-4.292a3.93,3.93,0,1,1-3.93-3.93A3.933,3.933,0,0,1,282.044,395.922Zm-43.484-3.93a3.929,3.929,0,1,1-3.93,3.93A3.934,3.934,0,0,1,238.561,391.992Zm9.824,17.681v5.894H228.737v-5.894a5.9,5.9,0,0,1,5.894-5.894h7.86A5.9,5.9,0,0,1,248.385,409.673Zm2.094-29.6a1.955,1.955,0,0,0-1.388.576l-4.506,4.5v-3.115a1.964,1.964,0,0,0-1.964-1.964,5.9,5.9,0,0,1-5.894-5.894V362.259a5.9,5.9,0,0,1,5.894-5.894h15.718a5.9,5.9,0,0,1,5.894,5.894V374.18a5.9,5.9,0,0,1-5.894,5.894Zm21.611,5.078-4.506-4.5a1.955,1.955,0,0,0-1.388-.576h-.005a9.774,9.774,0,0,0,1.969-5.894V362.259a9.739,9.739,0,0,0-.2-1.964h6.091a5.9,5.9,0,0,1,5.894,5.894v7.991a5.9,5.9,0,0,1-5.894,5.894,1.964,1.964,0,0,0-1.964,1.964Zm15.848,30.415H268.291v-5.894a5.9,5.9,0,0,1,5.894-5.894h7.86a5.9,5.9,0,0,1,5.894,5.894Z" transform="translate(0)" fill="#fff"/>
      <path id="Trazado_36428" data-name="Trazado 36428" d="M246.635,355.963a1.965,1.965,0,0,0-2.779,0l-6.469,6.469-2.542-2.539a1.963,1.963,0,1,0-2.776,2.776L236,366.6a1.965,1.965,0,0,0,2.779,0l7.86-7.857A1.965,1.965,0,0,0,246.635,355.963Z" transform="translate(11.128 4.908)" fill="#fff"/>
    </g>
  </g>
</svg>
