<svg id="icon_contact-center" xmlns="http://www.w3.org/2000/svg" width="76.783" height="70.159" viewBox="0 0 76.783 70.159">
  <path id="Trazado_21350" data-name="Trazado 21350" d="M72.585,33.655a5.517,5.517,0,0,0-4.739-5.87l-1.521-.248a27.993,27.993,0,0,0-55.908,0l-1.485.248a5.529,5.529,0,0,0-4.774,5.906,5.862,5.862,0,0,0-2.935,2.122A6.176,6.176,0,0,0,.057,40.374a5.658,5.658,0,0,0,2.3,3.854,6.037,6.037,0,0,0,3.466,1.2,5.627,5.627,0,0,0,2.051,3.253A5.793,5.793,0,0,0,11.2,49.816l.778-.071,2.157-.318A5.549,5.549,0,0,0,18.869,43.2l-1.556-11a5.507,5.507,0,0,0-2.157-3.642,5.653,5.653,0,0,0-2.4-1.061,25.667,25.667,0,0,1,51.24,0,5.653,5.653,0,0,0-2.4,1.061,5.507,5.507,0,0,0-2.157,3.642l-1.556,11a5.57,5.57,0,0,0,4.456,6.188,22.682,22.682,0,0,1-8.275,14.463,22.249,22.249,0,0,1-12.271,4.88,4.358,4.358,0,0,0,.813-2.157,4.987,4.987,0,0,0-4.42-5.552,5.02,5.02,0,0,0-3.713,1.061,4.811,4.811,0,0,0-1.839,3.395A4.959,4.959,0,0,0,37.046,71a19.3,19.3,0,0,0,2.829.177,25.088,25.088,0,0,0,24.754-21.43h.106l.778.071a5.626,5.626,0,0,0,3.324-1.132,5.263,5.263,0,0,0,2.086-3.324,6.117,6.117,0,0,0,5.8-5.234,5.916,5.916,0,0,0-4.137-6.471m-68.851,8.7a3.477,3.477,0,0,1-1.379-2.334,3.731,3.731,0,0,1,.707-2.794A3.932,3.932,0,0,1,4.442,36.06l.177,1.026.813,5.976a3.57,3.57,0,0,1-1.7-.707m11.281-9.831,1.521,10.962a3.225,3.225,0,0,1-.6,2.4,3.415,3.415,0,0,1-2.122,1.273l-2.122.283a3.136,3.136,0,0,1-2.4-.637,3.066,3.066,0,0,1-1.238-2.086L7.2,38.748l-.6-4.314-.106-.707a3.21,3.21,0,0,1,2.723-3.642l1.167-.177V38.96a1.167,1.167,0,0,0,2.334,0V29.907a3.918,3.918,0,0,1,1.026.5,3.267,3.267,0,0,1,1.273,2.122M35.49,67.709a2.934,2.934,0,0,1-.566-2.016,2.639,2.639,0,0,1,.99-1.768,2.744,2.744,0,0,1,2.016-.6,2.965,2.965,0,0,1,1.8.99,2.843,2.843,0,0,1,.566,1.98,2.732,2.732,0,0,1-.99,1.839,2.843,2.843,0,0,1-1.98.566,2.8,2.8,0,0,1-1.839-.99m31.968-20.9a3.136,3.136,0,0,1-2.4.637l-2.122-.283a3.415,3.415,0,0,1-2.122-1.273,3.225,3.225,0,0,1-.6-2.4l1.521-10.962A3.267,3.267,0,0,1,63,30.4a3.918,3.918,0,0,1,1.026-.5V38.96a1.167,1.167,0,1,0,2.334,0V29.907l1.132.177a3.21,3.21,0,0,1,2.758,3.642l-.106.707-.6,4.243-.849,6.047a3.066,3.066,0,0,1-1.238,2.086m6.966-7.037a3.831,3.831,0,0,1-3.112,3.253l.53-3.854.424-3.183a3.144,3.144,0,0,1,1.45,1.167,3.5,3.5,0,0,1,.707,2.617" transform="translate(0 -1.016)" fill="#dcdff9"/>
</svg>
