<svg xmlns="http://www.w3.org/2000/svg" width="100" height="104" viewBox="0 0 100 104">
  <g id="Grupo_4928" data-name="Grupo 4928" transform="translate(-11986 -3724)">
    <rect id="Rectángulo_2731" data-name="Rectángulo 2731" width="100" height="104" transform="translate(11986 3724)" fill="none"/>
    <g id="Grupo_4927" data-name="Grupo 4927" transform="translate(11697.307 3398.52)">
      <path id="Trazado_36425" data-name="Trazado 36425" d="M371.72,379.61H353.908a24.158,24.158,0,1,0,0,4.391H371.72m-50.642,15.484V395.3a6.911,6.911,0,0,1,6.9-6.9h3.762a6.907,6.907,0,0,1,6.9,6.9v4.188A19.533,19.533,0,0,1,321.079,399.485ZM329.863,384a6.588,6.588,0,1,1,6.588-6.588A6.588,6.588,0,0,1,329.863,384Zm13.178,12.5v-1.2a11.255,11.255,0,0,0-5.8-9.8,10.981,10.981,0,1,0-15.509-.757c.24.263.491.517.757.757a11.253,11.253,0,0,0-5.8,9.8v1.2a19.746,19.746,0,1,1,26.354,0Z" transform="translate(0 0)" fill="#fff"/>
    </g>
  </g>
</svg>
