<svg xmlns="http://www.w3.org/2000/svg" width="100" height="104" viewBox="0 0 100 104">
  <g id="Grupo_4926" data-name="Grupo 4926" transform="translate(-11859 -3724)">
    <rect id="Rectángulo_2731" data-name="Rectángulo 2731" width="100" height="104" transform="translate(11859 3724)" fill="none"/>
    <path id="Trazado_36424" data-name="Trazado 36424" d="M429.783,311.547a2.47,2.47,0,0,0-2.389,1.844l-2.093,8.023H380.861a2.475,2.475,0,0,0-2.384,3.109L385.1,349.2a2.465,2.465,0,0,0,2.383,1.828h4.481v2.923a7.406,7.406,0,1,0,4.935,0v-2.923h14.806v2.923a7.4,7.4,0,1,0,4.935,0v-2.923h3.948a2.47,2.47,0,0,0,2.384-1.828l8.717-32.718h8.394v-4.932Zm-35.35,51.818A2.468,2.468,0,1,1,396.9,360.9,2.468,2.468,0,0,1,394.434,363.365Zm19.741,0a2.468,2.468,0,1,1,2.466-2.469A2.468,2.468,0,0,1,414.174,363.365Zm4.521-17.274h-29.32l-5.3-19.741h39.914Z" transform="translate(11499.605 3436.152)" fill="#fff"/>
  </g>
</svg>
