<svg xmlns="http://www.w3.org/2000/svg" width="130" height="104" viewBox="0 0 130 104">
  <g id="Grupo_4745" data-name="Grupo 4745" transform="translate(0.164)">
    <g id="icon_vehiculos" transform="translate(23.836 25.699)">
      <path id="Trazado_21392" data-name="Trazado 21392" d="M943.928-63.427c0,2.065,0,4.047,0,6.031a4.007,4.007,0,0,1-4.288,4.335q-2.772.029-5.546,0a4.048,4.048,0,0,1-4.3-4.351c-.008-1.961,0-3.922,0-5.95H898.228c-.015.205-.045.448-.045.69,0,1.821,0,3.641,0,5.462a3.8,3.8,0,0,1-3.618,4.076,51.036,51.036,0,0,1-6.818,0,3.865,3.865,0,0,1-3.686-4.128c-.021-2.016,0-4.034,0-6.171-.749,0-1.449,0-2.149,0a6.934,6.934,0,0,1-7.114-6.689c-.136-3.778-.053-7.565-.032-11.348a6.962,6.962,0,0,1,2.4-5.117c-.361-.049-.626-.07-.884-.121a3.843,3.843,0,0,1-3.219-3.306,12.028,12.028,0,0,1-.034-3.141,3.987,3.987,0,0,1,4.386-3.517,8.367,8.367,0,0,1,5.908,2.448c.078.078.173.136.317.249,1.049-3.074,2.084-6.1,3.117-9.122.31-.91.6-1.83.933-2.734a6.011,6.011,0,0,1,5.75-4.032c2.844-.01,5.688-.008,8.532-.013a1.145,1.145,0,0,0,.207-.058c.089-.5.144-1.033.277-1.544a5.955,5.955,0,0,1,5.723-4.513q6.313-.046,12.629,0a5.976,5.976,0,0,1,5.909,5.5c.015.168.042.335.079.629h.907c2.275,0,4.551,0,6.826,0a5.951,5.951,0,0,1,5.835,4.136c1.337,3.856,2.65,7.722,4,11.664.2-.158.367-.281.522-.424a8.268,8.268,0,0,1,6.015-2.173,3.989,3.989,0,0,1,4.076,4.047c.028.595.019,1.195,0,1.791a4.068,4.068,0,0,1-3.948,4.2c0,.05-.032.124-.01.147a8.068,8.068,0,0,1,2.309,6.278c-.069,3.1-.011,6.2-.019,9.3a7.117,7.117,0,0,1-7.437,7.462C945.248-63.427,944.629-63.427,943.928-63.427Zm-29.945-3.746q15.919,0,31.837,0a3.419,3.419,0,0,0,3.743-3.766q.01-4.95,0-9.9a3.453,3.453,0,0,0-3.779-3.756q-31.795,0-63.588,0a3.378,3.378,0,0,0-3.706,3.706q-.017,4.994,0,9.987c.006,2.438,1.311,3.73,3.743,3.73Q898.108-67.17,913.983-67.173Zm28.289-21.214c-.1-.361-.167-.66-.265-.947q-2.527-7.4-5.064-14.808a2.4,2.4,0,0,0-2.768-1.974H893.891c-1.711,0-2.311.438-2.87,2.078q-1.508,4.431-3.022,8.857c-.765,2.249-1.526,4.5-2.307,6.8h37c.718-4.629,3.184-7.214,6.927-7.3a6.962,6.962,0,0,1,4.665,1.567,7.228,7.228,0,0,1,2.685,5.727ZM887.807-63.4c0,2.071-.018,4.052.029,6.031,0,.188.4.513.627.522,1.274.05,2.551.024,3.829.026h2.078V-63.4Zm52.317,6.579V-63.38h-6.577c0,2.057-.014,4.065.028,6.073,0,.165.388.448.606.459.962.052,1.929.023,2.894.024Zm-17.193-53.069a2.2,2.2,0,0,0-2.236-2.354c-.907-.037-1.818-.01-2.726-.01-3.153,0-6.306-.01-9.457,0-1.589.006-2.6,1.012-2.393,2.359Zm10.175,21.512a3.264,3.264,0,0,0-3.2-3.552,3.3,3.3,0,0,0-3.324,3.552ZM881.369-90.4a4.152,4.152,0,0,0-4.192-2.485.679.679,0,0,0-.456.445,6.1,6.1,0,0,0,0,1.526.717.717,0,0,0,.484.492C878.583-90.379,879.963-90.4,881.369-90.4Zm69.837-.023c0-.71.026-1.382-.018-2.05a.6.6,0,0,0-.4-.411c-1.659-.146-3.78.844-4.2,2.461Z" transform="translate(-872.931 116.012)" fill="#fff"/>
      <path id="Trazado_21393" data-name="Trazado 21393" d="M886.179-95.544A7.078,7.078,0,0,1,893.3-88.49a7.132,7.132,0,0,1-7.043,7.077,7.1,7.1,0,0,1-7.1-7A7.026,7.026,0,0,1,886.179-95.544ZM882.9-88.525a3.311,3.311,0,0,0,3.268,3.347,3.365,3.365,0,0,0,3.394-3.329,3.325,3.325,0,0,0-3.334-3.282A3.276,3.276,0,0,0,882.9-88.525Z" transform="translate(-869.093 128.637)" fill="#fff"/>
      <path id="Trazado_21394" data-name="Trazado 21394" d="M915.736-95.544a7.076,7.076,0,0,1,7.13,6.96,7.128,7.128,0,0,1-7.035,7.171,7.1,7.1,0,0,1-7.112-6.989A7.031,7.031,0,0,1,915.736-95.544Zm.057,3.753a3.282,3.282,0,0,0-3.331,3.266,3.315,3.315,0,0,0,3.355,3.348,3.368,3.368,0,0,0,3.308-3.331A3.323,3.323,0,0,0,915.793-91.791Z" transform="translate(-850.857 128.637)" fill="#fff"/>
    </g>
    <rect id="Rectángulo_2731" data-name="Rectángulo 2731" width="130" height="104" transform="translate(-0.164)" fill="none"/>
  </g>
</svg>
