<svg xmlns="http://www.w3.org/2000/svg" width="156" height="104" viewBox="0 0 156 104">
  <g id="Grupo_4923" data-name="Grupo 4923" transform="translate(-11543 -3724)">
    <rect id="Rectángulo_2731" data-name="Rectángulo 2731" width="156" height="104" transform="translate(11543 3724)" fill="none"/>
    <g id="Grupo_4918" data-name="Grupo 4918" transform="translate(11144.839 3490.298)">
      <g id="Grupo_4920" data-name="Grupo 4920" transform="translate(408.161 253.239)">
        <g id="Grupo_4919" data-name="Grupo 4919">
          <circle id="Elipse_462" data-name="Elipse 462" cx="14.298" cy="14.298" r="14.298" transform="translate(3.816)" fill="#fff"/>
          <path id="Trazado_36420" data-name="Trazado 36420" d="M426.275,258.614c-10.006,0-18.114,6.4-18.114,14.3v23.256H444.39V272.911C444.39,265.017,436.281,258.614,426.275,258.614Z" transform="translate(-408.161 -227.527)" fill="#fff"/>
          <circle id="Elipse_463" data-name="Elipse 463" cx="14.298" cy="14.298" r="14.298" transform="translate(45.921)" fill="#fff"/>
          <path id="Trazado_36421" data-name="Trazado 36421" d="M433.555,258.614c-10.006,0-18.114,6.4-18.114,14.3v23.256H451.67V272.911C451.67,265.017,443.561,258.614,433.555,258.614Z" transform="translate(-373.336 -227.527)" fill="#fff"/>
        </g>
      </g>
      <g id="Grupo_4922" data-name="Grupo 4922" transform="translate(493.591 261.873)">
        <g id="Grupo_4921" data-name="Grupo 4921">
          <path id="Trazado_36422" data-name="Trazado 36422" d="M472.563,294.675,461.678,283.79a.852.852,0,0,0-1.209,0l-2.423,2.423-3.025-3.025,3.117-3.112a12.881,12.881,0,0,0,11.9-3.441h0a12.9,12.9,0,0,0,3.013-13.372.841.841,0,0,0-.613-.549.865.865,0,0,0-.792.226l-6.073,6.067-4.534-1.51-1.509-4.534,6.067-6.073a.857.857,0,0,0-.006-1.209.911.911,0,0,0-.318-.2,12.832,12.832,0,0,0-16.819,14.916l-3.112,3.117-10.9-10.914-.341-3.684a.858.858,0,0,0-.5-.7l-6.651-3.019a.858.858,0,0,0-.96.168l-2.412,2.412a.869.869,0,0,0-.173.96l3.019,6.657a.868.868,0,0,0,.706.5l3.684.341,10.908,10.9L424.68,294.171a6,6,0,0,0,0,8.467l1.209,1.209a6,6,0,0,0,8.467,0L451.4,286.809l3.025,3.025L452,292.257a.852.852,0,0,0,0,1.209l10.885,10.885a5.99,5.99,0,0,0,8.467,0l1.209-1.209a5.98,5.98,0,0,0,0-8.467ZM431.805,264.8a.88.88,0,0,0-.526-.249l-3.5-.318-2.568-5.662,1.573-1.579,5.662,2.568.324,3.5a.858.858,0,0,0,.243.526l11.122,11.128-1.2,1.2Zm1.342,37.837a4.276,4.276,0,0,1-6.05,0l-1.209-1.2a4.294,4.294,0,0,1,0-6.055l24.124-24.118a.856.856,0,0,0,.22-.827A11.135,11.135,0,0,1,463.361,256.7l-5.414,5.42a.853.853,0,0,0-.208.879l1.81,5.437a.876.876,0,0,0,.544.544l5.443,1.81a.846.846,0,0,0,.873-.208l5.419-5.414A11.118,11.118,0,0,1,458.1,278.3a.842.842,0,0,0-.827.22ZM452.609,285.6l.972-.972.231-.231,3.031,3.025-1.209,1.2Zm18.745,16.333-1.209,1.209a4.286,4.286,0,0,1-6.05,0l-10.278-10.283,7.253-7.253,10.283,10.278a4.276,4.276,0,0,1,0,6.05Z" transform="translate(-422.932 -254.732)" fill="#fff"/>
        </g>
      </g>
    </g>
  </g>
</svg>
