<svg id="icon_cobranza" xmlns="http://www.w3.org/2000/svg" width="71.158" height="47.996" viewBox="0 0 71.158 47.996">
  <path id="Trazado_21351" data-name="Trazado 21351" d="M58.452,1.9a1.07,1.07,0,0,0-1.081,1.081V35.775H1.447A1.085,1.085,0,0,0,.366,36.824a1.1,1.1,0,0,0,1.081,1.114h57a1.1,1.1,0,0,0,1.081-1.114V2.981A1.091,1.091,0,0,0,58.452,1.9" transform="translate(11.625 10.058)" fill="#dcdff9"/>
  <path id="Trazado_21352" data-name="Trazado 21352" d="M59.35,36.673V2.8a1.081,1.081,0,0,0-2.162,0V35.592H1.264a1.081,1.081,0,1,0,0,2.162h57a1.07,1.07,0,0,0,1.081-1.081" transform="translate(5.812 4.246)" fill="#dcdff9"/>
  <path id="Trazado_21353" data-name="Trazado 21353" d="M50.322,37.573h6.454a2.4,2.4,0,0,0,2.392-2.392V3.927a2.384,2.384,0,0,0-2.392-2.392H2.392A2.384,2.384,0,0,0,0,3.927V35.181a2.4,2.4,0,0,0,2.392,2.392h47.93Zm-40.657-3.7-.1-.229-.2-.524-.131-.295-.229-.459-.131-.295-.262-.426-.2-.229-.295-.459-.164-.2a12.626,12.626,0,0,0-1.147-1.147l-.2-.164-.426-.328-.262-.131-.459-.295-.262-.131-.459-.229L4.456,28.2,3.9,27.973l-.2-.066-.819-.164-.1-.066-.622-.066V11.494l.622-.1.1-.033L3.7,11.2l.2-.1.557-.2.295-.131.459-.229.262-.131.459-.295.262-.131.426-.328.2-.164C7.24,9.1,7.6,8.743,7.961,8.349l.164-.2.295-.459.2-.262.262-.426.131-.262.229-.491.131-.262.2-.524.1-.229.2-.819V4.254l.1-.59H49.306l.1.59.033.164.2.754L49.7,5.4l.229.524.1.295.229.459.164.295.229.426.164.262.328.426.164.229.491.524.033.033.59.557.229.164.393.328.262.164.426.262.295.164.426.2.295.164.524.2.229.1.786.2h.131l.59.1V27.646l-.59.1h-.131l-.786.229-.229.066-.524.2-.295.131-.426.229-.295.164-.426.262-.262.164-.393.328-.229.164-.59.557L51.8,30.3l-.491.491-.164.229-.328.426-.164.262-.229.426-.164.262-.229.491-.1.262-.229.557-.066.2-.2.786-.033.131-.1.59H9.959l-.1-.59v-.164l-.2-.786m47.111,1.54H51.5v-.066a6.248,6.248,0,0,1,.229-.917L51.8,34.3l.295-.786.1-.164.459-.754.1-.164.59-.655.033-.033a6.21,6.21,0,0,1,.688-.622l.164-.131.754-.491.131-.033.786-.328.131-.066.885-.229.066-.033L57,35.181a.224.224,0,0,1-.229.229M57,3.927v5.34h-.1a8.783,8.783,0,0,1-.885-.229l-.131-.066L55.1,8.644l-.131-.033a6.167,6.167,0,0,1-.754-.524l-.164-.1-.688-.622-.033-.033a5.908,5.908,0,0,1-.59-.655l-.1-.164-.459-.754-.1-.164L51.8,4.811,51.73,4.68,51.5,3.8V3.664h5.275A.253.253,0,0,1,57,3.927M2.392,3.664H7.764V3.8l-.2.885L7.5,4.811l-.328.819-.066.131-.491.786-.131.131a5.677,5.677,0,0,1-1.31,1.343l-.164.131a3.19,3.19,0,0,1-.786.491L4.1,8.677l-.786.36-.131.033-.917.2-.1.066V3.927a.253.253,0,0,1,.229-.262M2.162,35.181V29.775l.1.033a5.361,5.361,0,0,1,.917.229l.131.033.786.36.131.066a2.364,2.364,0,0,1,.786.459l.164.131a5.53,5.53,0,0,1,1.31,1.31l.131.164.491.754.066.164.328.786.066.164.2.885v.1H2.392a.224.224,0,0,1-.229-.229" transform="translate(0 -1.535)" fill="#dcdff9"/>
  <path id="Trazado_21354" data-name="Trazado 21354" d="M5.953,18.86a2.9,2.9,0,0,1-3.047-2.686,1.07,1.07,0,0,0-1.081-1.081A1.05,1.05,0,0,0,.744,16.174a4.949,4.949,0,0,0,4.128,4.718v1.114a1.113,1.113,0,0,0,1.081,1.081,1.113,1.113,0,0,0,1.081-1.081V20.892a4.949,4.949,0,0,0,4.128-4.718c0-2.326-1.376-4.849-5.209-4.849-2.031,0-3.047-.917-3.047-2.686A2.92,2.92,0,0,1,5.953,5.952,2.92,2.92,0,0,1,9,8.639a1.1,1.1,0,0,0,1.081,1.114,1.078,1.078,0,0,0,1.081-1.114A4.949,4.949,0,0,0,7.034,3.921V2.84a1.081,1.081,0,1,0-2.162,0V3.921A4.949,4.949,0,0,0,.744,8.639c0,2.359,1.376,4.849,5.209,4.849,2.031,0,3.047.885,3.047,2.686A2.9,2.9,0,0,1,5.953,18.86" transform="translate(23.631 5.58)" fill="#dcdff9"/>
  <path id="Trazado_21355" data-name="Trazado 21355" d="M4.733,11.279H7.06a3.517,3.517,0,0,0,3.505-3.538V5.48A3.517,3.517,0,0,0,7.06,1.942H4.733A3.517,3.517,0,0,0,1.228,5.48V7.741a3.517,3.517,0,0,0,3.505,3.538M3.39,5.48A1.356,1.356,0,0,1,4.733,4.1H7.06A1.356,1.356,0,0,1,8.4,5.48V7.741A1.336,1.336,0,0,1,7.06,9.117H4.733A1.336,1.336,0,0,1,3.39,7.741Z" transform="translate(39.003 11.392)" fill="#dcdff9"/>
  <path id="Trazado_21356" data-name="Trazado 21356" d="M3.83,11.279H6.124A3.517,3.517,0,0,0,9.629,7.741V5.48A3.517,3.517,0,0,0,6.124,1.942H3.83A3.524,3.524,0,0,0,.292,5.48V7.741A3.524,3.524,0,0,0,3.83,11.279M2.454,5.48A1.384,1.384,0,0,1,3.83,4.1H6.124A1.356,1.356,0,0,1,7.467,5.48V7.741A1.336,1.336,0,0,1,6.124,9.117H3.83A1.363,1.363,0,0,1,2.454,7.741Z" transform="translate(9.274 11.392)" fill="#dcdff9"/>
</svg>
