<svg xmlns="http://www.w3.org/2000/svg" width="130" height="104" viewBox="0 0 130 104">
  <g id="Grupo_4944" data-name="Grupo 4944" transform="translate(-11492 -3902)">
    <rect id="Rectángulo_2731" data-name="Rectángulo 2731" width="130" height="104" transform="translate(11492 3902)" fill="none"/>
    <g id="Grupo_4943" data-name="Grupo 4943" transform="translate(11369.998 3755.549)">
      <path id="Trazado_36452" data-name="Trazado 36452" d="M213.98,224.128h-53.6a2.381,2.381,0,0,1-2.378-2.38V189.905a2.382,2.382,0,0,1,2.378-2.38h53.6a2.382,2.382,0,0,1,2.378,2.38v31.843A2.381,2.381,0,0,1,213.98,224.128Zm-53.6-34.49a.271.271,0,0,0-.267.267v31.843a.271.271,0,0,0,.267.267h53.6a.271.271,0,0,0,.267-.267V189.905a.271.271,0,0,0-.267-.267Z" transform="translate(0 7.479)" fill="#fff"/>
      <rect id="Rectángulo_2757" data-name="Rectángulo 2757" width="43.396" height="2.112" transform="translate(165.743 195.058) rotate(-18.179)" fill="#fff"/>
      <path id="Trazado_36453" data-name="Trazado 36453" d="M170.98,209.59a8.95,8.95,0,1,1,8.95-8.95A8.96,8.96,0,0,1,170.98,209.59Zm0-15.789a6.839,6.839,0,1,0,6.839,6.839A6.849,6.849,0,0,0,170.98,193.8Z" transform="translate(5.016 12.666)" fill="#fff"/>
      <rect id="Rectángulo_2758" data-name="Rectángulo 2758" width="7.101" height="2.112" transform="translate(195.364 204.356)" fill="#fff"/>
      <rect id="Rectángulo_2759" data-name="Rectángulo 2759" width="7.101" height="2.112" transform="translate(195.364 220.144)" fill="#fff"/>
      <rect id="Rectángulo_2760" data-name="Rectángulo 2760" width="14.351" height="2.112" transform="translate(191.814 212.25)" fill="#fff"/>
    </g>
  </g>
</svg>
