<svg xmlns="http://www.w3.org/2000/svg" width="130" height="104" viewBox="0 0 130 104">
  <g id="Grupo_4749" data-name="Grupo 4749" transform="translate(-0.307 -0.018)">
    <g id="Grupo_4740" data-name="Grupo 4740" transform="translate(23.306 9.904)">
      <path id="Trazado_35109" data-name="Trazado 35109" d="M158.9,172a15.377,15.377,0,0,1,4.3-10.241,21.386,21.386,0,1,0-31.214.45,14.758,14.758,0,0,1,3.88,10.368v1.131a4.943,4.943,0,0,0,3.29,4.652v2.915a8.225,8.225,0,0,0,16.451,0V178.36a4.943,4.943,0,0,0,3.29-4.652Zm-3.29,0v1.708a1.647,1.647,0,0,1-1.645,1.645H140.806a1.647,1.647,0,0,1-1.645-1.645v-1.131a18.023,18.023,0,0,0-4.8-12.653,18.1,18.1,0,1,1,26.415-.381A18.431,18.431,0,0,0,155.612,172Z" transform="translate(-105.272 -105.272)" fill="#fff"/>
      <path id="Trazado_35110" data-name="Trazado 35110" d="M133.4,49.771a1.645,1.645,0,0,0,.6-2.247l-4.935-8.548a1.645,1.645,0,0,0-2.849,1.645l4.935,8.548a1.645,1.645,0,0,0,2.247.6Z" transform="translate(-105.27 -31.876)" fill="#fff"/>
      <path id="Trazado_35111" data-name="Trazado 35111" d="M413.5,126.822a1.645,1.645,0,0,0-2.247-.6l-8.548,4.935A1.645,1.645,0,0,0,404.351,134l8.548-4.935A1.645,1.645,0,0,0,413.5,126.822Z" transform="translate(-335.77 -105.271)" fill="#fff"/>
      <path id="Trazado_35112" data-name="Trazado 35112" d="M38.373,126.821a1.645,1.645,0,0,0,.6,2.247L47.523,134a1.645,1.645,0,0,0,1.645-2.849l-8.548-4.935A1.645,1.645,0,0,0,38.373,126.821Z" transform="translate(-31.876 -105.271)" fill="#fff"/>
      <path id="Trazado_35113" data-name="Trazado 35113" d="M339.068,49.169,344,40.621a1.645,1.645,0,1,0-2.849-1.645l-4.935,8.548a1.645,1.645,0,0,0,2.849,1.645Z" transform="translate(-280.723 -31.876)" fill="#fff"/>
      <path id="Trazado_35114" data-name="Trazado 35114" d="M249.29,12.5V1.645a1.645,1.645,0,1,0-3.29,0V12.5a1.645,1.645,0,1,0,3.29,0Z" transform="translate(-205.531 0)" fill="#fff"/>
      <path id="Trazado_35115" data-name="Trazado 35115" d="M0,247.645a1.645,1.645,0,0,0,1.645,1.645H12.5a1.645,1.645,0,1,0,0-3.29H1.645A1.645,1.645,0,0,0,0,247.645Z" transform="translate(0 -205.531)" fill="#fff"/>
      <path id="Trazado_35116" data-name="Trazado 35116" d="M438.5,246H427.645a1.645,1.645,0,1,0,0,3.29H438.5a1.645,1.645,0,1,0,0-3.29Z" transform="translate(-355.919 -205.531)" fill="#fff"/>
      <path id="Trazado_35117" data-name="Trazado 35117" d="M219.642,246.482l-5.417,5.417-5.417-5.417a1.645,1.645,0,1,0-2.327,2.327l6.1,6.1v12.479a1.645,1.645,0,0,0,3.29,0V254.907l6.1-6.1a1.645,1.645,0,1,0-2.326-2.327Z" transform="translate(-172.11 -205.531)" fill="#fff"/>
    </g>
    <rect id="Rectángulo_2736" data-name="Rectángulo 2736" width="130" height="104" transform="translate(0.307 0.018)" fill="none"/>
  </g>
</svg>
