<svg xmlns="http://www.w3.org/2000/svg" width="130" height="104" viewBox="0 0 130 104">
  <g id="Grupo_4946" data-name="Grupo 4946" transform="translate(-11648 -3902)">
    <rect id="Rectángulo_2731" data-name="Rectángulo 2731" width="130" height="104" transform="translate(11648 3902)" fill="none"/>
    <g id="Grupo_4945" data-name="Grupo 4945" transform="translate(11467.967 3795.181)">
      <path id="Trazado_36454" data-name="Trazado 36454" d="M256.367,176.789,228.6,182.781l-10.2-47.275,22.6-4.878.351-2.111-25.318,5.464,11.042,51.165,31.656-6.833-.491-2.277-2.111-.351Z" transform="translate(0 5.621)" fill="#fff"/>
      <path id="Trazado_36455" data-name="Trazado 36455" d="M228.49,178.957l-9.364-43.387,19.887-4.292.351-2.111-22.6,4.878,10.2,47.275,27.767-5.993-.238-1.1-2.306-.383Z" transform="translate(1.636 7.081)" fill="#fff"/>
      <path id="Trazado_36456" data-name="Trazado 36456" d="M257.129,131.323l-31.947-5.308-1.35,8.123,2.091-.452.895-5.383,28.022,4.656-7.928,47.71-6.642-1.1.451,2.092,7.828,1.3Z" transform="translate(17.518 0)" fill="#fff"/>
      <path id="Trazado_36457" data-name="Trazado 36457" d="M230.226,129.679l-2.091.451L221.6,169.42l19.7,3.274.18-.039-.436-2.021-17.157-2.851Z" transform="translate(12.515 8.23)" fill="#fff"/>
      <path id="Trazado_36458" data-name="Trazado 36458" d="M225.816,130.489l.35-2.111-2.091.452-.351,2.111Z" transform="translate(17.276 5.309)" fill="#fff"/>
      <path id="Trazado_36459" data-name="Trazado 36459" d="M228.246,142.4l.451,2.092,2.111.351-.451-2.092Z" transform="translate(27.432 36.812)" fill="#fff"/>
      <path id="Trazado_36460" data-name="Trazado 36460" d="M228.032,144.316l-.18.039,2.306.383-.451-2.092L227.6,142.3Z" transform="translate(25.971 36.569)" fill="#fff"/>
      <path id="Trazado_36461" data-name="Trazado 36461" d="M225.708,131.139l.351-2.111-2.092.452-.351,2.111Z" transform="translate(17.033 6.769)" fill="#fff"/>
      <path id="Trazado_36462" data-name="Trazado 36462" d="M227.008,129.009l24.1,4L243.829,176.8l-5.457-.907.451,2.092,6.642,1.1,7.928-47.71-28.022-4.656-.895,5.383,2.092-.451Z" transform="translate(18.966 1.584)" fill="#fff"/>
      <path id="Trazado_36463" data-name="Trazado 36463" d="M230.645,130.043l-.106-.491-1.9.41-6.331,38.1,17.157,2.851-.451-2.092-14.417-2.4Z" transform="translate(14.099 7.946)" fill="#fff"/>
      <path id="Trazado_36464" data-name="Trazado 36464" d="M228.107,141.759l.451,2.092,2.111.351-.451-2.092Z" transform="translate(27.119 35.364)" fill="#fff"/>
      <path id="Trazado_36465" data-name="Trazado 36465" d="M226.46,130.35l.351-2.111-2.092.451-.35,2.111Z" transform="translate(18.723 4.996)" fill="#fff"/>
      <path id="Trazado_36466" data-name="Trazado 36466" d="M226.158,131.042l.106.491.439-2.643-2.091.451-.351,2.111Z" transform="translate(18.48 6.457)" fill="#fff"/>
      <path id="Trazado_36467" data-name="Trazado 36467" d="M227.456,141.651l.451,2.092,2.111.351L229.568,142Z" transform="translate(25.659 35.121)" fill="#fff"/>
    </g>
  </g>
</svg>
