<svg xmlns="http://www.w3.org/2000/svg" width="130" height="104" viewBox="0 0 130 104">
  <g id="Grupo_4748" data-name="Grupo 4748" transform="translate(-0.134 -0.018)">
    <g id="Grupo_4741" data-name="Grupo 4741" transform="translate(23.134 10.149)">
      <path id="Trazado_35102" data-name="Trazado 35102" d="M331.063,185.75a1.635,1.635,0,1,0-2.272-.429A1.635,1.635,0,0,0,331.063,185.75Z" transform="translate(-274.847 -152.873)" fill="#fff"/>
      <path id="Trazado_35103" data-name="Trazado 35103" d="M229.918,212.466a1.641,1.641,0,0,0,1.641-1.641v-.514a5.312,5.312,0,0,0,3.518-4.119,4.7,4.7,0,0,0-3.19-5.319,12.752,12.752,0,0,1-3.207-1.483.83.83,0,0,1-.142-.755,1.209,1.209,0,0,1,.783-.956,4.706,4.706,0,0,1,3.3.669,1.641,1.641,0,0,0,1.766-2.767,9.063,9.063,0,0,0-2.834-1.132v-.283a1.641,1.641,0,1,0-3.283,0v.4a4.462,4.462,0,0,0-2.964,3.457,4.009,4.009,0,0,0,1.342,3.946,15.035,15.035,0,0,0,4.139,2,1.418,1.418,0,0,1,1.047,1.679,1.948,1.948,0,0,1-1.933,1.643,3.439,3.439,0,0,1-2.516-.654,1.641,1.641,0,1,0-1.8,2.747,6.319,6.319,0,0,0,2.682,1.1v.339A1.641,1.641,0,0,0,229.918,212.466Z" transform="translate(-188.145 -161.037)" fill="#fff"/>
      <path id="Trazado_35104" data-name="Trazado 35104" d="M176.984,152.734a1.642,1.642,0,0,0-1.288,1.931,15.439,15.439,0,1,1-7.82-10.56,1.641,1.641,0,1,0,1.559-2.889,18.7,18.7,0,1,0,9.48,12.806,1.641,1.641,0,0,0-1.931-1.288Z" transform="translate(-118.695 -116.248)" fill="#fff"/>
      <path id="Trazado_35105" data-name="Trazado 35105" d="M79.1,36.534a4.932,4.932,0,0,0-4.642,3.283H69.525a27.141,27.141,0,0,0-5.1-14.293L71.756,18.2a1.642,1.642,0,0,0,.481-1.161v-5.43L76.4,7.445a1.642,1.642,0,0,0,0-2.321L71.756.481a1.642,1.642,0,0,0-2.321,0L64.792,5.123a1.642,1.642,0,0,0,0,2.321l4.162,4.162v4.75l-6.612,6.612a27.241,27.241,0,0,0-18.427-8.761V9.849h1.641A1.642,1.642,0,0,0,47.2,8.207V1.642A1.642,1.642,0,0,0,45.556,0H38.991A1.641,1.641,0,0,0,37.35,1.642V8.207a1.641,1.641,0,0,0,1.641,1.641h1.641v4.358a27.151,27.151,0,0,0-14.586,5.309l-7.064-7.064V9.566a4.924,4.924,0,1,0-3.283,0v3.565a1.642,1.642,0,0,0,.481,1.161l7.341,7.341a27.235,27.235,0,0,0-8.5,18.183H6.985V31.665H8.626a1.641,1.641,0,0,0,1.641-1.641V23.458a1.641,1.641,0,0,0-1.641-1.641H2.06A1.641,1.641,0,0,0,.419,23.458v6.566A1.641,1.641,0,0,0,2.06,31.665H3.7v9.794A1.641,1.641,0,0,0,5.343,43.1h9.68A27.176,27.176,0,0,0,21.3,58.912l-6.949,6.949H9.985a4.924,4.924,0,1,0,0,3.283h3.4v4.724H11.745A1.641,1.641,0,0,0,10.1,75.509v6.566a1.641,1.641,0,0,0,1.641,1.641h6.566a1.641,1.641,0,0,0,1.641-1.641V75.509a1.641,1.641,0,0,0-1.641-1.641H16.669V68.183l6.877-6.877a27.207,27.207,0,0,0,17.086,7.4v3.422l-4.162,4.162a1.642,1.642,0,0,0,0,2.321l4.643,4.643a1.642,1.642,0,0,0,2.321,0l4.643-4.643a1.642,1.642,0,0,0,0-2.321l-4.162-4.162V68.709a27.164,27.164,0,0,0,15.342-5.891l5.394,5.394a1.642,1.642,0,0,0,1.161.481h3.873V74.15a4.924,4.924,0,1,0,3.283,0V68.694h3.173a1.641,1.641,0,1,0,0-3.283H66.492L61.7,60.62A27.217,27.217,0,0,0,69.525,43.1h4.929A4.924,4.924,0,1,0,79.1,36.534ZM70.6,3.963l2.321,2.321L70.6,8.605,68.274,6.284Zm-29.963-.68h3.283V6.566H40.632Zm-23.291,0A1.641,1.641,0,1,1,15.7,4.925a1.643,1.643,0,0,1,1.641-1.641ZM3.7,25.1H6.984v3.283H3.7ZM16.669,80.433H13.387V77.151h3.283v3.283Zm54.657,0a1.641,1.641,0,1,1,1.641-1.641A1.643,1.643,0,0,1,71.326,80.433ZM5.343,69.144A1.641,1.641,0,1,1,6.985,67.5,1.643,1.643,0,0,1,5.343,69.144ZM42.274,79.775l-2.321-2.321,2.321-2.321,2.321,2.321Zm0-14.3A24.019,24.019,0,1,1,66.293,41.458,24.046,24.046,0,0,1,42.274,65.477ZM79.1,43.1a1.641,1.641,0,1,1,1.641-1.641A1.643,1.643,0,0,1,79.1,43.1Z" transform="translate(-0.419 0)" fill="#fff"/>
    </g>
    <rect id="Rectángulo_2737" data-name="Rectángulo 2737" width="130" height="104" transform="translate(0.134 0.018)" fill="none"/>
  </g>
</svg>
