<svg xmlns="http://www.w3.org/2000/svg" width="130" height="104" viewBox="0 0 130 104">
  <g id="Grupo_4750" data-name="Grupo 4750" transform="translate(-0.48 -0.018)">
    <g id="Grupo_4739" data-name="Grupo 4739" transform="translate(25.481 15.066)">
      <path id="Trazado_35118" data-name="Trazado 35118" d="M78.72,0H1.568A1.568,1.568,0,0,0,0,1.568V58.962A1.568,1.568,0,0,0,1.568,60.53H28.415A14.227,14.227,0,0,0,32.3,64.418v14.3a1.568,1.568,0,0,0,2.269,1.4l5.571-2.786,5.571,2.786a1.568,1.568,0,0,0,2.269-1.4v-14.3a14.227,14.227,0,0,0,3.888-3.888H78.72a1.568,1.568,0,0,0,1.568-1.568V1.568A1.568,1.568,0,0,0,78.72,0ZM40.144,63.666A10.977,10.977,0,1,1,51.121,52.689,10.989,10.989,0,0,1,40.144,63.666Zm0-25.09a14.137,14.137,0,0,0-13.306,9.409H12.545V12.545h55.2v35.44H53.45A14.137,14.137,0,0,0,40.144,38.576Zm4.7,37.607-4-2a1.567,1.567,0,0,0-1.4,0l-4,2V66a14.111,14.111,0,0,0,9.409,0Zm32.3-18.789H53.45a14.05,14.05,0,0,0,.807-4.7,14.191,14.191,0,0,0-.088-1.568H69.312a1.568,1.568,0,0,0,1.568-1.568V10.977a1.568,1.568,0,0,0-1.568-1.568H10.977a1.568,1.568,0,0,0-1.568,1.568V49.553a1.566,1.566,0,0,0,1.568,1.567H26.119a14.239,14.239,0,0,0-.088,1.57,14.05,14.05,0,0,0,.807,4.7H3.136V3.136H77.152Z" transform="translate(0)" fill="#fff"/>
      <path id="Trazado_35119" data-name="Trazado 35119" d="M230.7,306a4.7,4.7,0,1,0,4.7,4.7A4.71,4.71,0,0,0,230.7,306Z" transform="translate(-190.56 -258.015)" fill="#fff"/>
      <path id="Trazado_35120" data-name="Trazado 35120" d="M165.2,120H127.568a1.568,1.568,0,1,0,0,3.136H165.2a1.568,1.568,0,0,0,0-3.136Z" transform="translate(-106.241 -101.182)" fill="#fff"/>
      <path id="Trazado_35121" data-name="Trazado 35121" d="M206.386,180H187.568a1.568,1.568,0,0,0,0,3.136h18.818a1.568,1.568,0,0,0,0-3.136Z" transform="translate(-156.832 -151.774)" fill="#fff"/>
    </g>
    <rect id="Rectángulo_2735" data-name="Rectángulo 2735" width="130" height="104" transform="translate(0.48 0.018)" fill="none"/>
  </g>
</svg>
