<svg xmlns="http://www.w3.org/2000/svg" width="130" height="104" viewBox="0 0 130 104">
  <g id="Grupo_4912" data-name="Grupo 4912" transform="translate(-11212 -3720)">
    <rect id="Rectángulo_2731" data-name="Rectángulo 2731" width="130" height="104" transform="translate(11212 3720)" fill="none"/>
    <g id="Grupo_4911" data-name="Grupo 4911" transform="translate(10961.143 3661.526)">
      <g id="Grupo_4911-2" data-name="Grupo 4911" transform="translate(281.857 82.1)">
        <path id="Trazado_36414" data-name="Trazado 36414" d="M349.68,99.6V91.946h-.01a1.077,1.077,0,0,0-.311-.774l-8.751-8.751a1.084,1.084,0,0,0-.774-.321H291.7a1.083,1.083,0,0,0-.774.321l-8.751,8.751a1.077,1.077,0,0,0-.311.774h-.01V99.6a6.548,6.548,0,0,0,2.187,4.879v38.879h-1.092a1.092,1.092,0,0,0-1.1,1.092v4.377a1.093,1.093,0,0,0,1.1,1.1h65.633a1.1,1.1,0,0,0,1.095-1.1v-4.377a1.094,1.094,0,0,0-1.095-1.092h-1.092V104.48A6.548,6.548,0,0,0,349.68,99.6Zm-6.564,4.377a4.382,4.382,0,0,1-4.377-4.377V93.038h8.754V99.6A4.383,4.383,0,0,1,343.116,103.979ZM284.044,99.6V93.038h8.751V99.6a4.375,4.375,0,1,1-8.751,0Zm10.941-6.564h8.751V99.6a4.375,4.375,0,1,1-8.751,0Zm10.938,0h8.751V99.6a4.375,4.375,0,1,1-8.751,0Zm10.941,0h8.751V99.6a4.375,4.375,0,1,1-8.751,0Zm10.938,0h8.751V99.6a4.375,4.375,0,1,1-8.751,0Zm-35.646-8.751h47.227l6.564,6.564H285.591Zm55.338,63.446h-63.45v-2.187h63.45Zm-21.879-26.253h15.315v4.377H325.615ZM338.739,136.8v-1.1a5.469,5.469,0,1,0-10.938,0v1.1h-2.187v-8.751h15.315V136.8Zm-2.187,0h-6.564v-1.1a3.282,3.282,0,0,1,6.564,0Zm-17.5,0h-6.564v-1.1a3.282,3.282,0,1,1,6.564,0Zm-3.282-6.564A5.474,5.474,0,0,0,310.3,135.7v1.1h-2.19v-8.751h15.315V136.8h-2.187v-1.1A5.474,5.474,0,0,0,315.769,130.231Zm7.656-4.374H308.11v-4.377h15.315Zm-17.5-5.472v22.974H290.608V119.294h15.315Zm2.187,22.974v-4.377H345.3v4.377ZM345.3,136.8h-2.187v-16.41a1.092,1.092,0,0,0-1.1-1.092H308.11v-1.1a1.094,1.094,0,0,0-1.092-1.1h-17.5a1.1,1.1,0,0,0-1.1,1.1v25.161h-2.187V105.782a6.52,6.52,0,0,0,7.656-2.561,6.554,6.554,0,0,0,10.941,0,6.551,6.551,0,0,0,10.938,0,6.551,6.551,0,0,0,10.938,0,6.554,6.554,0,0,0,10.941,0,6.52,6.52,0,0,0,7.656,2.561Z" transform="translate(-281.857 -82.1)" fill="#fff"/>
        <path id="Trazado_36415" data-name="Trazado 36415" d="M285.193,96.113h2.19v6.564h-2.19Z" transform="translate(-274.255 -50.169)" fill="#fff"/>
        <path id="Trazado_36416" data-name="Trazado 36416" d="M320.067,90.107H291.624a1.092,1.092,0,0,0-1.092,1.1v6.564a1.091,1.091,0,0,0,1.092,1.092h28.443a1.094,1.094,0,0,0,1.1-1.092V91.2A1.1,1.1,0,0,0,320.067,90.107Zm-1.1,6.564H292.719V92.3h26.253Z" transform="translate(-262.089 -63.854)" fill="#fff"/>
      </g>
    </g>
  </g>
</svg>
