<svg xmlns="http://www.w3.org/2000/svg" width="222" height="104" viewBox="0 0 222 104">
  <g id="Grupo_4744" data-name="Grupo 4744" transform="translate(0.347)">
    <g id="icon_empleados" transform="translate(23.425 15.012)">
      <g id="Grupo_4097" data-name="Grupo 4097" transform="translate(0)">
        <g id="Grupo_4096" data-name="Grupo 4096">
          <g id="Grupo_4095" data-name="Grupo 4095">
            <g id="Grupo_4094" data-name="Grupo 4094">
              <circle id="Elipse_21" data-name="Elipse 21" cx="15.449" cy="15.449" r="15.449" transform="translate(4.124)" fill="#fff"/>
              <path id="Trazado_21380" data-name="Trazado 21380" d="M900.888,533.741c-10.808,0-19.572,6.917-19.572,15.449v25.125h39.148V549.19C920.464,540.658,911.7,533.741,900.888,533.741Z" transform="translate(-881.316 -500.149)" fill="#fff"/>
              <circle id="Elipse_22" data-name="Elipse 22" cx="15.449" cy="15.449" r="15.449" transform="translate(49.619)" fill="#fff"/>
              <path id="Trazado_21381" data-name="Trazado 21381" d="M916.523,533.741c-10.808,0-19.572,6.917-19.572,15.449v25.125H936.1V549.19C936.1,540.658,927.333,533.741,916.523,533.741Z" transform="translate(-851.456 -500.149)" fill="#fff"/>
            </g>
          </g>
        </g>
      </g>
      <g id="Grupo_4101" data-name="Grupo 4101" transform="translate(90.977)">
        <g id="Grupo_4100" data-name="Grupo 4100">
          <g id="Grupo_4099" data-name="Grupo 4099">
            <g id="Grupo_4098" data-name="Grupo 4098">
              <circle id="Elipse_23" data-name="Elipse 23" cx="15.449" cy="15.449" r="15.449" transform="translate(4.124)" fill="#fff"/>
              <path id="Trazado_21382" data-name="Trazado 21382" d="M932.152,533.741c-10.808,0-19.572,6.917-19.572,15.449v25.125h39.148V549.19C951.728,540.658,942.963,533.741,932.152,533.741Z" transform="translate(-912.58 -500.149)" fill="#fff"/>
              <circle id="Elipse_24" data-name="Elipse 24" cx="15.449" cy="15.449" r="15.449" transform="translate(49.619)" fill="#fff"/>
              <path id="Trazado_21383" data-name="Trazado 21383" d="M947.789,533.741c-10.81,0-19.575,6.917-19.575,15.449v25.125h39.148V549.19C967.362,540.658,958.6,533.741,947.789,533.741Z" transform="translate(-882.72 -500.149)" fill="#fff"/>
            </g>
          </g>
        </g>
      </g>
    </g>
    <rect id="Rectángulo_2731" data-name="Rectángulo 2731" width="222" height="104" transform="translate(-0.347)" fill="none"/>
  </g>
</svg>
