<svg xmlns="http://www.w3.org/2000/svg" width="130" height="104" viewBox="0 0 130 104">
  <g id="Grupo_4917" data-name="Grupo 4917" transform="translate(-11369 -3724)">
    <rect id="Rectángulo_2731" data-name="Rectángulo 2731" width="130" height="104" transform="translate(11369 3724)" fill="none"/>
    <g id="Grupo_4916" data-name="Grupo 4916" transform="translate(10980.894 3564.187)">
      <g id="Grupo_4914" data-name="Grupo 4914" transform="translate(395.128 178.328)">
        <g id="Grupo_4913" data-name="Grupo 4913">
          <circle id="Elipse_460" data-name="Elipse 460" cx="14.72" cy="14.72" r="14.72" transform="translate(3.931)" fill="#fff"/>
          <path id="Trazado_36417" data-name="Trazado 36417" d="M413.777,183.7c-10.3,0-18.649,6.591-18.649,14.719v23.937h37.3V198.422C432.426,190.294,424.078,183.7,413.777,183.7Z" transform="translate(-395.128 -151.696)" fill="#fff"/>
          <circle id="Elipse_461" data-name="Elipse 461" cx="14.72" cy="14.72" r="14.72" transform="translate(47.278)" fill="#fff"/>
          <path id="Trazado_36418" data-name="Trazado 36418" d="M421.057,183.7c-10.3,0-18.649,6.591-18.649,14.719v23.937h37.3V198.422C439.706,190.294,431.358,183.7,421.057,183.7Z" transform="translate(-359.06 -151.696)" fill="#fff"/>
        </g>
      </g>
      <g id="Grupo_4915" data-name="Grupo 4915" transform="translate(493.095 185.368)">
        <path id="Trazado_36419" data-name="Trazado 36419" d="M415.457,200.321v-2.56a7.451,7.451,0,0,1-3.876-1.113l.613-1.7a6.817,6.817,0,0,0,3.65,1.084c1.8,0,3.013-1.042,3.013-2.483,0-1.393-.989-2.257-2.864-3.019-2.584-1.012-4.18-2.179-4.18-4.382a4.167,4.167,0,0,1,3.829-4.085V179.51h1.566v2.459a6.771,6.771,0,0,1,3.3.881l-.631,1.679a6.148,6.148,0,0,0-3.2-.863c-1.953,0-2.686,1.161-2.686,2.179,0,1.316.935,1.977,3.144,2.894,2.608,1.06,3.93,2.376,3.93,4.633a4.425,4.425,0,0,1-4.007,4.317v2.632Z" transform="translate(-411.581 -179.51)" fill="#fff"/>
      </g>
      <rect id="Rectángulo_2755" data-name="Rectángulo 2755" width="28.627" height="1.725" transform="translate(485.479 209.576)" fill="#fff"/>
      <rect id="Rectángulo_2756" data-name="Rectángulo 2756" width="9.291" height="3.345" transform="translate(485.479 213.317)" fill="#fff"/>
    </g>
  </g>
</svg>
