<svg xmlns="http://www.w3.org/2000/svg" width="130" height="104" viewBox="0 0 130 104">
  <g id="Grupo_4942" data-name="Grupo 4942" transform="translate(-11351 -3902)">
    <g id="Grupo_4940" data-name="Grupo 4940" transform="translate(11227.773 3720.625)">
      <g id="Grupo_4941" data-name="Grupo 4941">
        <path id="Trazado_36429" data-name="Trazado 36429" d="M185.735,234.02c1.876-1.3,2.925-2.678,2.925-4.02s-1.049-2.728-2.925-4.023a38.546,38.546,0,0,1-11.6,4.023A38.62,38.62,0,0,1,185.735,234.02Z" transform="translate(30.163 12.377)" fill="none"/>
        <path id="Trazado_36430" data-name="Trazado 36430" d="M159.257,230.355c-1.876,1.3-2.925,2.678-2.925,4.02,0,4.7,12.471,9.93,30.363,9.93s30.365-5.232,30.365-9.93c0-1.342-1.049-2.725-2.925-4.02-5.466,3.153-14.708,5.455-27.441,5.455S164.723,233.508,159.257,230.355Z" transform="translate(1.763 19.361)" fill="none"/>
        <path id="Trazado_36431" data-name="Trazado 36431" d="M159.257,225.977c-1.876,1.3-2.925,2.678-2.925,4.023s1.048,2.725,2.925,4.02a38.62,38.62,0,0,1,11.6-4.02A38.546,38.546,0,0,1,159.257,225.977Z" transform="translate(1.763 12.377)" fill="none"/>
        <ellipse id="Elipse_464" data-name="Elipse 464" cx="24.454" cy="4.247" rx="24.454" ry="4.247" transform="translate(164.005 243.809)" fill="none"/>
        <path id="Trazado_36432" data-name="Trazado 36432" d="M168.031,228.96c10.506,0,19.115,1.809,24.456,4.249a19.557,19.557,0,0,0,2.985-1.661,38.62,38.62,0,0,0-11.6-4.02A81.187,81.187,0,0,1,168.031,228.96Z" transform="translate(20.427 14.849)" fill="#fff"/>
        <path id="Trazado_36433" data-name="Trazado 36433" d="M169.06,227.527a38.62,38.62,0,0,0-11.6,4.02,19.558,19.558,0,0,0,2.985,1.661c5.341-2.44,13.95-4.249,24.453-4.249A81.178,81.178,0,0,1,169.06,227.527Z" transform="translate(3.561 14.849)" fill="#fff"/>
        <path id="Trazado_36434" data-name="Trazado 36434" d="M218.823,235.395c0,4.7-12.471,9.93-30.365,9.93s-30.363-5.232-30.363-9.93c0-1.342,1.048-2.725,2.925-4.02a19,19,0,0,1-2.471-1.658c-2.2,1.791-3.322,3.753-3.322,5.679,0,6.2,11.648,12.8,33.231,12.8s33.233-6.592,33.233-12.8c0-1.926-1.129-3.888-3.322-5.679a19,19,0,0,1-2.471,1.658C217.775,232.669,218.823,234.053,218.823,235.395Z" transform="translate(0 18.342)" fill="#fff"/>
        <path id="Trazado_36435" data-name="Trazado 36435" d="M160.444,229.716a19.341,19.341,0,0,0-2.985,1.658c5.466,3.153,14.708,5.455,27.438,5.455s21.975-2.3,27.441-5.455a19.34,19.34,0,0,0-2.985-1.658c-5.341,2.437-13.95,4.246-24.456,4.246S165.785,232.153,160.444,229.716Z" transform="translate(3.561 18.342)" fill="#fff"/>
        <path id="Trazado_36436" data-name="Trazado 36436" d="M158.095,231.019c0-1.344,1.048-2.728,2.925-4.023a18.5,18.5,0,0,1-2.471-1.658c-2.2,1.793-3.322,3.755-3.322,5.681s1.126,3.888,3.322,5.681a18.749,18.749,0,0,1,2.471-1.661C159.143,233.744,158.095,232.361,158.095,231.019Z" transform="translate(0 11.357)" fill="#fff"/>
        <path id="Trazado_36437" data-name="Trazado 36437" d="M184.4,231.019c0-1.926-1.129-3.888-3.322-5.681A18.5,18.5,0,0,1,178.6,227c1.876,1.3,2.925,2.678,2.925,4.023s-1.049,2.725-2.925,4.02a18.751,18.751,0,0,1,2.471,1.661C183.268,234.907,184.4,232.945,184.4,231.019Z" transform="translate(37.294 11.357)" fill="#fff"/>
        <path id="Trazado_36438" data-name="Trazado 36438" d="M161.962,230.737a19.558,19.558,0,0,1-2.985-1.661,18.747,18.747,0,0,0-2.471,1.661,19,19,0,0,0,2.471,1.658A19.338,19.338,0,0,1,161.962,230.737Z" transform="translate(2.042 17.321)" fill="#fff"/>
        <path id="Trazado_36439" data-name="Trazado 36439" d="M177.454,230.737a19.34,19.34,0,0,1,2.985,1.658,19,19,0,0,0,2.471-1.658,18.748,18.748,0,0,0-2.471-1.661A19.56,19.56,0,0,1,177.454,230.737Z" transform="translate(35.46 17.321)" fill="#fff"/>
        <path id="Trazado_36440" data-name="Trazado 36440" d="M172.385,229.767c1.607.205,3.1.465,4.539.753a38.546,38.546,0,0,0,11.6-4.023c-.415-.288-.869-.568-1.368-.846A47.64,47.64,0,0,1,172.385,229.767Z" transform="translate(27.373 11.857)" fill="#fff"/>
        <path id="Trazado_36441" data-name="Trazado 36441" d="M156.66,231.014c0-6.273,14.238-11.36,31.8-11.36s31.8,5.087,31.8,11.36c0,1.731-1.113,3.364-3.049,4.832.407.28.81.561,1.163.849,2.193-1.791,3.322-3.755,3.322-5.681,0-6.2-11.648-12.8-33.233-12.8s-33.231,6.592-33.231,12.8c0,1.926,1.126,3.89,3.322,5.681.353-.288.755-.568,1.163-.849C157.776,234.38,156.66,232.745,156.66,231.014Z" fill="#fff"/>
        <path id="Trazado_36442" data-name="Trazado 36442" d="M173.6,229.767a47.64,47.64,0,0,1-14.773-4.116c-.5.278-.952.558-1.368.846a38.546,38.546,0,0,0,11.6,4.023C170.5,230.232,171.993,229.972,173.6,229.767Z" transform="translate(3.561 11.857)" fill="#fff"/>
        <path id="Trazado_36443" data-name="Trazado 36443" d="M166.468,227.237c-1.606.205-3.1.465-4.539.753a88.264,88.264,0,0,0,31.676,0c-1.435-.288-2.933-.548-4.539-.753a85.185,85.185,0,0,1-22.6,0Z" transform="translate(10.692 14.387)" fill="#fff"/>
        <path id="Trazado_36444" data-name="Trazado 36444" d="M178.077,226.672c.5.278.952.558,1.368.846a18.5,18.5,0,0,0,2.471-1.658c-.353-.288-.755-.568-1.163-.849A17.885,17.885,0,0,1,178.077,226.672Z" transform="translate(36.453 10.836)" fill="#fff"/>
        <path id="Trazado_36445" data-name="Trazado 36445" d="M160.345,226.672a17.885,17.885,0,0,1-2.676-1.661c-.407.28-.81.561-1.163.849a18.5,18.5,0,0,0,2.471,1.658C159.393,227.23,159.847,226.95,160.345,226.672Z" transform="translate(2.042 10.836)" fill="#fff"/>
        <path id="Trazado_36446" data-name="Trazado 36446" d="M184.056,229.587c-10.5,0-19.112-1.809-24.453-4.249-.579.265-1.116.535-1.617.812a47.639,47.639,0,0,0,14.773,4.116A88.887,88.887,0,0,1,184.056,229.587Z" transform="translate(4.401 11.357)" fill="#fff"/>
        <path id="Trazado_36447" data-name="Trazado 36447" d="M157.214,230.132c0-4.7,12.471-9.927,30.363-9.927s30.365,5.232,30.365,9.927c0,1.344-1.049,2.728-2.925,4.023.459.265.9.532,1.308.81,1.936-1.469,3.049-3.1,3.049-4.832,0-6.273-14.235-11.36-31.8-11.36s-31.8,5.087-31.8,11.36c0,1.731,1.116,3.366,3.052,4.832.4-.275.846-.545,1.308-.81C158.263,232.859,157.214,231.476,157.214,230.132Z" transform="translate(0.881 0.882)" fill="#fff"/>
        <path id="Trazado_36448" data-name="Trazado 36448" d="M168.031,229.587a88.9,88.9,0,0,1,11.3.68A47.639,47.639,0,0,0,194.1,226.15c-.5-.278-1.038-.548-1.617-.812C187.146,227.778,178.537,229.587,168.031,229.587Z" transform="translate(20.427 11.357)" fill="#fff"/>
        <path id="Trazado_36449" data-name="Trazado 36449" d="M163.678,227.655a85.189,85.189,0,0,0,22.6,0,94.215,94.215,0,0,0-22.6,0Z" transform="translate(13.482 13.969)" fill="#fff"/>
        <path id="Trazado_36450" data-name="Trazado 36450" d="M158.263,224.7c-.462.265-.9.535-1.308.81a17.885,17.885,0,0,0,2.676,1.661c.5-.278,1.038-.548,1.617-.812A19.341,19.341,0,0,1,158.263,224.7Z" transform="translate(2.757 10.338)" fill="#fff"/>
        <path id="Trazado_36451" data-name="Trazado 36451" d="M177.454,226.357c.579.265,1.116.535,1.617.812a17.886,17.886,0,0,0,2.676-1.661c-.407-.278-.849-.545-1.308-.81A19.34,19.34,0,0,1,177.454,226.357Z" transform="translate(35.46 10.338)" fill="#fff"/>
      </g>
    </g>
    <rect id="Rectángulo_2731" data-name="Rectángulo 2731" width="130" height="104" transform="translate(11351 3902)" fill="none"/>
  </g>
</svg>
