<svg id="icon_logistica" xmlns="http://www.w3.org/2000/svg" width="70.14" height="70.14" viewBox="0 0 70.14 70.14">
  <path id="Trazado_21362" data-name="Trazado 21362" d="M69.995,69.354l-15.96-27.4a1.022,1.022,0,0,0-.9-.549H43.309c4.362-6.914,9.111-16.057,9.111-23.261a17.349,17.349,0,0,0-34.7,0c0,7.2,4.717,16.348,9.143,23.261H16.978a1.1,1.1,0,0,0-.9.549L.146,69.354a1.05,1.05,0,0,0,0,1.066.965.965,0,0,0,.9.549H69.058a1.013,1.013,0,0,0,.937-.549,1.05,1.05,0,0,0,0-1.066M35.07,2.93A15.243,15.243,0,0,1,50.287,18.147c0,10.791-11.954,27.041-15.217,31.306-3.3-4.265-15.217-20.515-15.217-31.306A15.222,15.222,0,0,1,35.07,2.93M17.624,43.573h10.6c3.1,4.652,5.751,7.948,6.009,8.271a1.088,1.088,0,0,0,.84.388.98.98,0,0,0,.808-.388,100.758,100.758,0,0,0,6.009-8.271H52.516L61.886,59.63H8.255ZM2.892,68.837,7,61.762H63.113l4.135,7.075Z" transform="translate(-0.001 -0.83)" fill="#dcdff9"/>
  <path id="Trazado_21363" data-name="Trazado 21363" d="M17.944,9.667A8.562,8.562,0,1,0,9.383,18.26a8.576,8.576,0,0,0,8.562-8.594m-15.023,0A6.445,6.445,0,1,1,9.383,16.1,6.453,6.453,0,0,1,2.921,9.667" transform="translate(25.688 7.78)" fill="#dcdff9"/>
  <path id="Trazado_21364" data-name="Trazado 21364" d="M1.82,3.1a1.113,1.113,0,0,0-.323.743,1.192,1.192,0,0,0,.323.775,1.023,1.023,0,0,0,.743.291,1.023,1.023,0,0,0,.743-.291,1.192,1.192,0,0,0,.323-.775A1.113,1.113,0,0,0,3.306,3.1a1.034,1.034,0,0,0-1.486,0" transform="translate(46.851 60.259)" fill="#dcdff9"/>
  <path id="Trazado_21365" data-name="Trazado 21365" d="M2.728,2.781A1.055,1.055,0,0,0,1.662,3.847,1.028,1.028,0,0,0,2.728,4.881,1.048,1.048,0,0,0,3.794,3.847,1.076,1.076,0,0,0,2.728,2.781" transform="translate(52.016 60.251)" fill="#dcdff9"/>
  <path id="Trazado_21366" data-name="Trazado 21366" d="M3.667,3.1a1.034,1.034,0,0,0-1.486,0,1.018,1.018,0,0,0-.355.743,1.086,1.086,0,0,0,.355.775.973.973,0,0,0,.743.291,1.078,1.078,0,0,0,.743-.291,1.192,1.192,0,0,0,.323-.775A1.113,1.113,0,0,0,3.667,3.1" transform="translate(57.12 60.259)" fill="#dcdff9"/>
</svg>
