<svg xmlns="http://www.w3.org/2000/svg" width="130" height="104" viewBox="0 0 130 104">
  <g id="Grupo_4743" data-name="Grupo 4743" transform="translate(0.173)">
    <g id="icon_centros_distrib" transform="translate(29.828 21.626)">
      <path id="Trazado_21378" data-name="Trazado 21378" d="M866.648,511.909H801.013a2.187,2.187,0,0,0-2.186,2.188v63.447a2.188,2.188,0,0,0,2.186,2.188h65.635a2.189,2.189,0,0,0,2.188-2.188V514.1A2.188,2.188,0,0,0,866.648,511.909Zm-19.69,4.376h6.562v7.658a3.281,3.281,0,1,1-6.562,0Zm-10.939,0h6.562v7.658a3.281,3.281,0,1,1-6.562,0Zm-10.939,0h6.563v7.658a3.281,3.281,0,1,1-6.562,0Zm-10.941,0H820.7v7.658a3.282,3.282,0,0,1-6.565,0Zm-10.939,0h6.564v7.658a3.282,3.282,0,0,1-6.564,0Zm21.88,59.071H811.954V553.478h13.127Zm39.379,0h-35V551.29a2.187,2.187,0,0,0-2.188-2.188h-17.5a2.187,2.187,0,0,0-2.188,2.188v24.066H803.2V530.832a7.542,7.542,0,0,0,8.753-1.547,7.616,7.616,0,0,0,10.772.165c.057-.053.112-.11.167-.165a7.616,7.616,0,0,0,10.772.165c.057-.053.112-.11.167-.165a7.616,7.616,0,0,0,10.771.165c.057-.053.112-.11.167-.165a7.616,7.616,0,0,0,10.772.165c.057-.053.112-.11.167-.165a7.539,7.539,0,0,0,8.751,1.547Zm0-51.413a3.281,3.281,0,1,1-6.563,0v-7.658h6.563Z" transform="translate(-798.827 -511.909)" fill="#fff"/>
      <path id="Trazado_21379" data-name="Trazado 21379" d="M841.306,524.568H819.428a2.187,2.187,0,0,0-2.188,2.188v15.315a2.189,2.189,0,0,0,2.188,2.188h21.878a2.189,2.189,0,0,0,2.188-2.188V526.756A2.187,2.187,0,0,0,841.306,524.568Zm-2.188,15.315h-17.5V528.944h17.5Z" transform="translate(-782.235 -500.502)" fill="#fff"/>
    </g>
    <rect id="Rectángulo_2731" data-name="Rectángulo 2731" width="130" height="104" transform="translate(-0.173)" fill="none"/>
  </g>
</svg>
