<svg id="Grupo_4754" data-name="Grupo 4754" xmlns="http://www.w3.org/2000/svg" width="130" height="104" viewBox="0 0 130 104">
  <g id="Grupo_4742" data-name="Grupo 4742">
    <g id="icon_of" transform="translate(24.727 14.289)">
      <g id="Grupo_4088" data-name="Grupo 4088" transform="translate(0 0)">
        <path id="Trazado_21376" data-name="Trazado 21376" d="M748.462,586.834H711.279V511.3h37.183Zm-33.476-3.707h29.769V515H714.986Z" transform="translate(-711.279 -511.295)" fill="#fff"/>
        <rect id="Rectángulo_2522" data-name="Rectángulo 2522" width="8.502" height="12.241" transform="translate(8.305 15.958)" fill="#fff"/>
        <rect id="Rectángulo_2523" data-name="Rectángulo 2523" width="8.502" height="12.241" transform="translate(8.305 31.649)" fill="#fff"/>
        <rect id="Rectángulo_2524" data-name="Rectángulo 2524" width="8.502" height="12.241" transform="translate(18.591 15.958)" fill="#fff"/>
        <rect id="Rectángulo_2525" data-name="Rectángulo 2525" width="8.502" height="12.241" transform="translate(18.591 31.649)" fill="#fff"/>
        <path id="Trazado_21377" data-name="Trazado 21377" d="M772.069,580.237H734.886V518.8h37.183Zm-33.476-3.707h29.769V522.509H738.593Z" transform="translate(-690.533 -504.698)" fill="#fff"/>
        <rect id="Rectángulo_2526" data-name="Rectángulo 2526" width="8.502" height="9.837" transform="translate(52.658 27.292)" fill="#fff"/>
        <rect id="Rectángulo_2527" data-name="Rectángulo 2527" width="8.502" height="9.837" transform="translate(52.658 39.903)" fill="#fff"/>
        <rect id="Rectángulo_2528" data-name="Rectángulo 2528" width="8.502" height="9.837" transform="translate(62.945 27.292)" fill="#fff"/>
        <rect id="Rectángulo_2529" data-name="Rectángulo 2529" width="8.502" height="9.837" transform="translate(62.945 39.903)" fill="#fff"/>
      </g>
    </g>
    <rect id="Rectángulo_2731" data-name="Rectángulo 2731" width="130" height="104" fill="none"/>
  </g>
</svg>
