<svg xmlns="http://www.w3.org/2000/svg" width="130" height="104" viewBox="0 0 130 104">
  <g id="Grupo_4752" data-name="Grupo 4752" transform="translate(0.173 -0.018)">
    <g id="Grupo_4738" data-name="Grupo 4738" transform="translate(23.828 10.763)">
      <path id="Trazado_35084" data-name="Trazado 35084" d="M912.648,658.088a6.735,6.735,0,0,0,.643-2.873,6.882,6.882,0,0,0-13.765,0,6.77,6.77,0,0,0,.643,2.873,9.01,9.01,0,0,0-7.525,8.875v13.028a1.376,1.376,0,0,0,1.377,1.377h4.129v17.893a1.376,1.376,0,0,0,1.377,1.377h13.765a1.377,1.377,0,0,0,1.377-1.375v-17.9H918.8a1.375,1.375,0,0,0,1.377-1.375v-13.03A9.01,9.01,0,0,0,912.648,658.088Zm4.771,20.526h-2.752V664.852h-2.754v33.035h-4.128V678.614h-2.754v19.272H900.9V664.852h-2.754v13.762H895.4V666.963a6.249,6.249,0,0,1,6.24-6.242H902.8a1.377,1.377,0,0,0,.907-2.414,4.056,4.056,0,0,1-1.428-3.092,4.129,4.129,0,0,1,8.257,0,4.061,4.061,0,0,1-1.426,3.092,1.376,1.376,0,0,0,.9,2.414h1.164a6.247,6.247,0,0,1,6.24,6.242Z" transform="translate(-892.645 -618.052)" fill="#fff"/>
      <path id="Trazado_35085" data-name="Trazado 35085" d="M923.356,647.2a1.376,1.376,0,1,0,2.752,0,4.136,4.136,0,0,1,4.131-4.131,1.376,1.376,0,0,0,0-2.751,4.134,4.134,0,0,1-4.131-4.131,1.376,1.376,0,0,0-2.752,0,4.135,4.135,0,0,1-4.131,4.131,1.376,1.376,0,0,0,0,2.751A4.138,4.138,0,0,1,923.356,647.2Zm1.375-6.887a7.023,7.023,0,0,0,1.381,1.381,7.01,7.01,0,0,0-1.381,1.379,6.941,6.941,0,0,0-1.379-1.379A6.953,6.953,0,0,0,924.731,640.309Z" transform="translate(-861.417 -634.808)" fill="#fff"/>
      <path id="Trazado_35086" data-name="Trazado 35086" d="M949.483,701.667h-5.505v-4.131a1.377,1.377,0,0,0-1.377-1.377h-2.754V663.492l10.83-18.954a1.372,1.372,0,0,0-.43-1.827l-4.131-2.754a1.379,1.379,0,0,0-1.952.452L938,650.981a6.884,6.884,0,0,0-12.818,0l-6.166-10.572a1.377,1.377,0,0,0-1.881-.5l-.072.045-4.131,2.754a1.375,1.375,0,0,0-.432,1.827l10.832,18.954V696.16h-2.754a1.377,1.377,0,0,0-1.377,1.377h0v4.131h-5.505a1.377,1.377,0,0,0-1.377,1.375h0V711.3h2.754v-6.883h5.505a1.375,1.375,0,0,0,1.377-1.375v-4.131h19.27v4.128a1.375,1.375,0,0,0,1.375,1.377h5.508V711.3h2.754v-8.259a1.375,1.375,0,0,0-1.377-1.375Zm-12.388-38.542V696.16h-4.131V679.643h-2.752V696.16h-4.131V663.125a1.376,1.376,0,0,0-.182-.683l-10.373-18.153,1.845-1.231,8.9,15.256a1.374,1.374,0,0,0,1.189.683h.522a1.377,1.377,0,0,0,.907-2.414,4.059,4.059,0,0,1-1.429-3.092,4.13,4.13,0,0,1,8.259,0,4.058,4.058,0,0,1-1.428,3.092A1.377,1.377,0,0,0,935.2,659h.521a1.374,1.374,0,0,0,1.189-.683l8.9-15.256,1.845,1.231-10.373,18.153A1.379,1.379,0,0,0,937.095,663.125Z" transform="translate(-868.272 -628.715)" fill="#fff"/>
      <rect id="Rectángulo_2721" data-name="Rectángulo 2721" width="2.753" height="2.753" transform="translate(38.539 31.658)" fill="#fff"/>
      <rect id="Rectángulo_2722" data-name="Rectángulo 2722" width="2.753" height="2.753" transform="translate(44.046 34.41)" fill="#fff"/>
      <rect id="Rectángulo_2723" data-name="Rectángulo 2723" width="2.753" height="2.753" transform="translate(49.552 37.163)" fill="#fff"/>
      <rect id="Rectángulo_2724" data-name="Rectángulo 2724" width="2.753" height="2.753" transform="translate(38.539 41.293)" fill="#fff"/>
      <rect id="Rectángulo_2725" data-name="Rectángulo 2725" width="2.753" height="2.753" transform="translate(44.046 44.046)" fill="#fff"/>
      <rect id="Rectángulo_2726" data-name="Rectángulo 2726" width="2.753" height="2.753" transform="translate(49.552 46.799)" fill="#fff"/>
      <rect id="Rectángulo_2727" data-name="Rectángulo 2727" width="2.753" height="2.753" transform="translate(74.327 45.422)" fill="#fff"/>
      <rect id="Rectángulo_2728" data-name="Rectángulo 2728" width="2.753" height="2.753" transform="translate(79.833 48.175)" fill="#fff"/>
      <rect id="Rectángulo_2729" data-name="Rectángulo 2729" width="2.753" height="2.753" transform="translate(74.327 55.057)" fill="#fff"/>
      <rect id="Rectángulo_2730" data-name="Rectángulo 2730" width="2.753" height="2.753" transform="translate(79.833 57.81)" fill="#fff"/>
      <path id="Trazado_35087" data-name="Trazado 35087" d="M927.229,645.524a1.382,1.382,0,0,0-.5-1.059l-8.3-6.88a1.376,1.376,0,0,0-2.254,1.07l.025,2.74H898.323a1.375,1.375,0,0,0-1.375,1.377h0v13.765a1.377,1.377,0,0,0,1.375,1.377h5.507a1.375,1.375,0,0,0,1.375-1.377h0v-6.882h11.013v2.754a1.377,1.377,0,0,0,2.257,1.057l8.259-6.882A1.379,1.379,0,0,0,927.229,645.524Zm-8.259,3.945v-1.191a1.377,1.377,0,0,0-1.375-1.377H903.83a1.376,1.376,0,0,0-1.377,1.377h0v6.882H899.7V644.149h17.9a1.375,1.375,0,0,0,1.375-1.375v-.013l-.009-1.164,4.74,3.932Z" transform="translate(-887.313 -631.761)" fill="#fff"/>
    </g>
    <rect id="Rectángulo_2733" data-name="Rectángulo 2733" width="130" height="104" transform="translate(-0.173 0.018)" fill="none"/>
  </g>
</svg>
