<svg xmlns="http://www.w3.org/2000/svg" width="100" height="104" viewBox="0 0 100 104">
  <g id="Grupo_4930" data-name="Grupo 4930" transform="translate(-12125 -3724)">
    <rect id="Rectángulo_2731" data-name="Rectángulo 2731" width="100" height="104" transform="translate(12125 3724)" fill="none"/>
    <g id="Grupo_4929" data-name="Grupo 4929" transform="translate(11876.297 3393.477)">
      <g id="Grupo_4929-2" data-name="Grupo 4929" transform="translate(269.703 359.583)">
        <path id="Trazado_36426" data-name="Trazado 36426" d="M271.7,390.207h4.7v18.787a2.021,2.021,0,0,0,2.016,2.013H292.16a2.019,2.019,0,0,0,2.013-2.013V395.24h8.389v13.754a2.019,2.019,0,0,0,2.013,2.013h13.084a2.019,2.019,0,0,0,2.013-2.013V390.207h5.7a2,2,0,0,0,1.41-3.422l-26.235-26.6a2.006,2.006,0,0,0-2.819-.035l-27.409,26.608a2.013,2.013,0,0,0-.472,2.214,1.963,1.963,0,0,0,1.847,1.241Zm27.377-25.766,21.473,21.741h-2.887a2.019,2.019,0,0,0-2.013,2.013v18.787h-9.059V393.228a2.019,2.019,0,0,0-2.013-2.016H292.16a2.019,2.019,0,0,0-2.013,2.016v13.754h-9.729V388.194a2.019,2.019,0,0,0-2.013-2.013h-1.745Zm0,0" transform="translate(-269.703 -359.583)" fill="#fff"/>
      </g>
    </g>
  </g>
</svg>
