<svg xmlns="http://www.w3.org/2000/svg" width="130" height="104" viewBox="0 0 130 104">
  <g id="Grupo_4950" data-name="Grupo 4950" transform="translate(-11817 -3902)">
    <rect id="Rectángulo_2731" data-name="Rectángulo 2731" width="130" height="104" transform="translate(11817 3902)" fill="none"/>
    <g id="Grupo_4949" data-name="Grupo 4949" transform="translate(11609.823 3817.434)">
      <g id="Grupo_4948" data-name="Grupo 4948" transform="translate(260.177 112.455)">
        <path id="Trazado_36468" data-name="Trazado 36468" d="M270.208,166.281v-6.623a19.138,19.138,0,0,1-10.031-2.884l1.574-4.392a17.493,17.493,0,0,0,9.441,2.815c4.656,0,7.8-2.686,7.8-6.421,0-3.607-2.557-5.837-7.408-7.8-6.689-2.623-10.82-5.639-10.82-11.345,0-5.438,3.871-9.569,9.9-10.553v-6.623h4.069v6.362a17.454,17.454,0,0,1,8.52,2.293l-1.637,4.326a15.844,15.844,0,0,0-8.263-2.227c-5.045,0-6.949,3.016-6.949,5.636,0,3.409,2.429,5.115,8.131,7.474,6.751,2.755,10.16,6.164,10.16,11.995,0,5.184-3.6,10.031-10.355,11.147v6.821Z" transform="translate(-260.177 -112.455)" fill="#fff"/>
      </g>
    </g>
  </g>
</svg>
