<svg xmlns="http://www.w3.org/2000/svg" xmlns:xlink="http://www.w3.org/1999/xlink" width="80" height="80" viewBox="0 0 80 80">
  <defs>
    <clipPath id="clip-path">
      <rect id="Rect치ngulo_2974" data-name="Rect치ngulo 2974" width="51.148" height="64.316" fill="#13002e"/>
    </clipPath>
  </defs>
  <g id="Grupo_5601" data-name="Grupo 5601" transform="translate(-1810 -2291)">
    <rect id="Rect치ngulo_2973" data-name="Rect치ngulo 2973" width="80" height="80" transform="translate(1810 2291)" fill="none"/>
    <g id="Grupo_5600" data-name="Grupo 5600" transform="translate(1824 2299)" clip-path="url(#clip-path)">
      <path id="Trazado_37038" data-name="Trazado 37038" d="M31.558,73.3l1.475-1.475a2.753,2.753,0,1,0-1.77-1.77l-1.475,1.475L16.2,57.947h0a3,3,0,0,0-4.792.672h0a24.4,24.4,0,0,0,.073,23.557A6.739,6.739,0,0,0,10.1,87.95a6.665,6.665,0,0,0,1.145,2.484L.325,111.851h0a3.055,3.055,0,0,0,.125,2.963,2.985,2.985,0,0,0,2.559,1.441H25.362a3.035,3.035,0,0,0,2.715-4.4h0L18.423,92.908a6.753,6.753,0,0,0,2.491-1.3A24.252,24.252,0,0,0,29.32,94.43a24.673,24.673,0,0,0,3.494.25,24.156,24.156,0,0,0,11.657-3h0a3.073,3.073,0,0,0,1.55-2.254,2.978,2.978,0,0,0-.879-2.538ZM3.04,113.217l10.586-20.77a6.63,6.63,0,0,0,1.416.522l10.318,20.248ZM15.815,90.029A3.651,3.651,0,0,1,13.3,84.958a24.793,24.793,0,0,0,4.834,4.834,3.668,3.668,0,0,1-2.316.237m17,1.582A21.284,21.284,0,0,1,14.062,60.105L42.984,89.027a21.193,21.193,0,0,1-10.172,2.584" transform="translate(0 -51.94)" fill="#13002e"/>
      <path id="Trazado_37039" data-name="Trazado 37039" d="M343.187,101.922a10.318,10.318,0,0,1,8.175,8.174,1.252,1.252,0,0,0,1.227,1.011,1.265,1.265,0,0,0,.242-.023,1.252,1.252,0,0,0,.988-1.469,12.862,12.862,0,0,0-10.151-10.149,1.252,1.252,0,1,0-.481,2.457" transform="translate(-311.584 -90.552)" fill="#13002e"/>
      <path id="Trazado_37040" data-name="Trazado 37040" d="M362.315,54.347a17.307,17.307,0,0,0-8.948-4.774,1.252,1.252,0,0,0-.482,2.457,14.831,14.831,0,0,1,11.738,11.76,1.252,1.252,0,1,0,2.457-.48,17.357,17.357,0,0,0-4.765-8.962" transform="translate(-320.415 -45.12)" fill="#13002e"/>
      <path id="Trazado_37041" data-name="Trazado 37041" d="M380.432,17.322a21.92,21.92,0,0,0-17.3-17.3,1.252,1.252,0,1,0-.481,2.457A19.342,19.342,0,0,1,377.975,17.8a1.252,1.252,0,0,0,1.227,1.011,1.266,1.266,0,0,0,.242-.024,1.252,1.252,0,0,0,.988-1.469" transform="translate(-329.307 0)" fill="#13002e"/>
    </g>
  </g>
</svg>
