<svg xmlns="http://www.w3.org/2000/svg" xmlns:xlink="http://www.w3.org/1999/xlink" width="80" height="80" viewBox="0 0 80 80">
  <defs>
    <clipPath id="clip-path">
      <rect id="Rect치ngulo_2983" data-name="Rect치ngulo 2983" width="48.847" height="59.262" fill="#13002e"/>
    </clipPath>
  </defs>
  <g id="Grupo_5625" data-name="Grupo 5625" transform="translate(-1710 -2378)">
    <rect id="Rect치ngulo_2973" data-name="Rect치ngulo 2973" width="80" height="80" transform="translate(1710 2378)" fill="none"/>
    <g id="Grupo_5624" data-name="Grupo 5624" transform="translate(1729 2388)">
      <g id="Grupo_5623" data-name="Grupo 5623" clip-path="url(#clip-path)">
        <path id="Trazado_37080" data-name="Trazado 37080" d="M31.431,45.261a1.424,1.424,0,0,0-1.5,1.339l-.4,7.159a2.822,2.822,0,0,1-2.815,2.661H8.155a2.822,2.822,0,0,1-2.815-2.661L2.847,9.63A2.815,2.815,0,0,1,5.435,6.662v3.544a3.3,3.3,0,0,0,3.3,3.3h17.4a3.3,3.3,0,0,0,3.3-3.3V6.662A2.815,2.815,0,0,1,32.021,9.63L31.7,15.243a1.421,1.421,0,0,0,1.339,1.5l.082,0A1.421,1.421,0,0,0,34.541,15.4l.317-5.614a5.66,5.66,0,0,0-5.426-5.976V3.3a3.3,3.3,0,0,0-3.3-3.3H8.736a3.3,3.3,0,0,0-3.3,3.3v.514A5.66,5.66,0,0,0,.009,9.79L2.5,53.919a5.665,5.665,0,0,0,5.653,5.343H26.712a5.665,5.665,0,0,0,5.653-5.343l.4-7.159a1.422,1.422,0,0,0-1.339-1.5M8.278,3.3a.459.459,0,0,1,.458-.458h17.4a.459.459,0,0,1,.458.458v6.906a.459.459,0,0,1-.458.458H8.736a.459.459,0,0,1-.458-.458Z" transform="translate(0 0)" fill="#13002e"/>
        <path id="Trazado_37081" data-name="Trazado 37081" d="M55.309,244.611H49.037a1.421,1.421,0,0,0,0,2.842h6.272a1.421,1.421,0,0,0,0-2.842" transform="translate(-39.601 -203.439)" fill="#13002e"/>
        <path id="Trazado_37082" data-name="Trazado 37082" d="M47.616,280.049a1.421,1.421,0,0,0,1.421,1.421h16a1.421,1.421,0,1,0,0-2.842h-16a1.421,1.421,0,0,0-1.421,1.421" transform="translate(-39.601 -231.73)" fill="#13002e"/>
        <path id="Trazado_37083" data-name="Trazado 37083" d="M116.87,105.659a3.142,3.142,0,0,0-1.636-1.784L93,93.514a3.223,3.223,0,0,0-4.277,1.558L82.319,108.82a3.162,3.162,0,0,0,1.531,4.2l22.283,10.384a3.163,3.163,0,0,0,4.2-1.531l6.431-13.8a3.142,3.142,0,0,0,.105-2.418m-2.681,1.217-6.431,13.8a.32.32,0,0,1-.425.155L85.05,110.446a.32.32,0,0,1-.155-.425L91.3,96.272a.377.377,0,0,1,.5-.182l22.232,10.36a.32.32,0,0,1,.155.426" transform="translate(-68.216 -77.524)" fill="#13002e"/>
        <path id="Trazado_37084" data-name="Trazado 37084" d="M139.471,141.866l2.137,1a1.421,1.421,0,0,0,1.2-2.576l-2.137-1a1.421,1.421,0,0,0-1.2,2.576" transform="translate(-115.312 -115.734)" fill="#13002e"/>
        <path id="Trazado_37085" data-name="Trazado 37085" d="M139.99,177.481l-16.072-7.49a1.421,1.421,0,1,0-1.2,2.576l16.072,7.49a1.421,1.421,0,0,0,1.2-2.576" transform="translate(-101.38 -141.268)" fill="#13002e"/>
      </g>
    </g>
  </g>
</svg>
