<svg xmlns="http://www.w3.org/2000/svg" width="84" height="67" viewBox="0 0 84 67">
  <g id="oficinas_icon" transform="translate(-91 -2568)">
    <g id="Componente_22_1" data-name="Componente 22 – 1" transform="translate(91 2568)">
      <g id="Grupo_20684" data-name="Grupo 20684" transform="translate(-91 -2568)">
        <g id="Grupo_4742" data-name="Grupo 4742" transform="translate(91 2568)">
          <g id="icon_of" transform="translate(15.989 9.243)">
            <g id="Grupo_4088" data-name="Grupo 4088" transform="translate(0 0)">
              <path id="Trazado_21376" data-name="Trazado 21376" d="M735.323,560.142H711.279V511.3h24.044Zm-21.647-2.4h19.249V513.693H713.676Z" transform="translate(-711.279 -511.3)" fill="#fff"/>
              <rect id="Rectángulo_2522" data-name="Rectángulo 2522" width="5.498" height="7.915" transform="translate(5.37 10.316)" fill="#fff"/>
              <rect id="Rectángulo_2523" data-name="Rectángulo 2523" width="5.498" height="7.915" transform="translate(5.37 20.462)" fill="#fff"/>
              <rect id="Rectángulo_2524" data-name="Rectángulo 2524" width="5.498" height="7.915" transform="translate(12.021 10.316)" fill="#fff"/>
              <rect id="Rectángulo_2525" data-name="Rectángulo 2525" width="5.498" height="7.915" transform="translate(12.021 20.462)" fill="#fff"/>
              <path id="Trazado_21377" data-name="Trazado 21377" d="M758.93,558.527H734.886V518.8H758.93Zm-21.647-2.4h19.249V521.2H737.283Z" transform="translate(-706.206 -509.684)" fill="#fff"/>
              <rect id="Rectángulo_2526" data-name="Rectángulo 2526" width="5.498" height="6.361" transform="translate(34.05 17.645)" fill="#fff"/>
              <rect id="Rectángulo_2527" data-name="Rectángulo 2527" width="5.498" height="6.361" transform="translate(34.05 25.799)" fill="#fff"/>
              <rect id="Rectángulo_2528" data-name="Rectángulo 2528" width="5.498" height="6.361" transform="translate(40.702 17.645)" fill="#fff"/>
              <rect id="Rectángulo_2529" data-name="Rectángulo 2529" width="5.498" height="6.361" transform="translate(40.702 25.799)" fill="#fff"/>
            </g>
          </g>
          <g id="Grupo_20685" data-name="Grupo 20685">
            <rect id="Rectángulo_2731" data-name="Rectángulo 2731" width="84" height="67" fill="none"/>
          </g>
        </g>
      </g>
    </g>
  </g>
</svg>
