<svg xmlns="http://www.w3.org/2000/svg" xmlns:xlink="http://www.w3.org/1999/xlink" width="80" height="80" viewBox="0 0 80 80">
  <defs>
    <clipPath id="clip-path">
      <rect id="Rect치ngulo_2979" data-name="Rect치ngulo 2979" width="55.119" height="54.98" fill="#13002e"/>
    </clipPath>
  </defs>
  <g id="Grupo_5611" data-name="Grupo 5611" transform="translate(-1798 -2378)">
    <rect id="Rect치ngulo_2978" data-name="Rect치ngulo 2978" width="80" height="80" transform="translate(1798 2378)" fill="none"/>
    <g id="Grupo_5610" data-name="Grupo 5610" transform="translate(1810 2391)">
      <g id="Grupo_5609" data-name="Grupo 5609" transform="translate(0 0)" clip-path="url(#clip-path)">
        <path id="Trazado_37058" data-name="Trazado 37058" d="M10.882,36.1a6.276,6.276,0,1,0,0,12.551,6.276,6.276,0,1,0,0-12.551m0,10.174a3.9,3.9,0,1,1,3.938-3.9,3.936,3.936,0,0,1-3.938,3.9" transform="translate(-0.224 -1.776)" fill="#13002e"/>
        <path id="Trazado_37059" data-name="Trazado 37059" d="M44.843,21.452H11.236a6.561,6.561,0,1,1,0-13.121H43.211a6.04,6.04,0,0,0,4.706,4.66V16.7a1.237,1.237,0,1,0,0,2.473h2.4a1.237,1.237,0,1,0,0-2.473V12.991a6.022,6.022,0,0,0,4.8-5.8A6.021,6.021,0,0,0,43.211,5.954H11.14a8.938,8.938,0,1,0,0,17.875H44.748a7.7,7.7,0,1,1,0,15.4H21.414A10.675,10.675,0,0,0,10.755,29.82,10.685,10.685,0,0,0,0,40.468c0,6.752,6.049,8.938,9.8,14.073a1.173,1.173,0,0,0,1.92,0c3.457-4.754,9.027-7.037,9.7-12.836h23.43a10.127,10.127,0,1,0,0-20.253M48.973,3.673a3.613,3.613,0,1,1-3.649,3.613,3.629,3.629,0,0,1,3.649-3.613m-38.314,48.2C6.914,47.5,2.3,45.508,2.3,40.468a8.355,8.355,0,0,1,16.708,0c0,5.04-4.513,7.036-8.355,11.41" transform="translate(0 -0.059)" fill="#13002e"/>
        <path id="Trazado_37060" data-name="Trazado 37060" d="M47.48,47.5a3.614,3.614,0,1,0,3.649,3.614A3.63,3.63,0,0,0,47.48,47.5m0,4.754a1.236,1.236,0,1,1,1.247-1.236,1.2,1.2,0,0,1-1.247,1.236" transform="translate(-2.157 -2.337)" fill="#13002e"/>
        <path id="Trazado_37061" data-name="Trazado 37061" d="M8.585,15.484A4.225,4.225,0,1,0,12.81,11.3a4.242,4.242,0,0,0-4.225,4.183m5.954,0a1.815,1.815,0,0,1-1.825,1.807,1.806,1.806,0,1,1,0-3.612,1.757,1.757,0,0,1,1.825,1.806" transform="translate(-0.422 -0.556)" fill="#13002e"/>
        <path id="Trazado_37062" data-name="Trazado 37062" d="M12.256,0a1.237,1.237,0,1,1-1.247,1.237A1.242,1.242,0,0,1,12.256,0" transform="translate(-0.542 0)" fill="#13002e"/>
        <path id="Trazado_37063" data-name="Trazado 37063" d="M40.03,2.5a1.237,1.237,0,1,1-1.249,1.237A1.242,1.242,0,0,1,40.03,2.5" transform="translate(-1.908 -0.123)" fill="#13002e"/>
        <path id="Trazado_37064" data-name="Trazado 37064" d="M4.682,26.2a1.237,1.237,0,1,1-1.248,1.236A1.242,1.242,0,0,1,4.682,26.2" transform="translate(-0.169 -1.289)" fill="#13002e"/>
        <path id="Trazado_37065" data-name="Trazado 37065" d="M45.08,28.7a1.237,1.237,0,1,1-1.249,1.236A1.242,1.242,0,0,1,45.08,28.7" transform="translate(-2.157 -1.412)" fill="#13002e"/>
        <path id="Trazado_37066" data-name="Trazado 37066" d="M33.768,32.5a1.237,1.237,0,1,1-1.247,1.237A1.242,1.242,0,0,1,33.768,32.5" transform="translate(-1.6 -1.599)" fill="#13002e"/>
        <path id="Trazado_37067" data-name="Trazado 37067" d="M26.194,53.7a1.237,1.237,0,1,1-1.249,1.236A1.242,1.242,0,0,1,26.194,53.7" transform="translate(-1.227 -2.642)" fill="#13002e"/>
        <path id="Trazado_37068" data-name="Trazado 37068" d="M38.818,46.2a1.237,1.237,0,1,1-1.248,1.236A1.242,1.242,0,0,1,38.818,46.2" transform="translate(-1.848 -2.273)" fill="#13002e"/>
        <path id="Trazado_37069" data-name="Trazado 37069" d="M56.492,46.2a1.237,1.237,0,1,1-1.248,1.236A1.242,1.242,0,0,1,56.492,46.2" transform="translate(-2.718 -2.273)" fill="#13002e"/>
      </g>
    </g>
  </g>
</svg>
