<svg xmlns="http://www.w3.org/2000/svg" width="130" height="104" viewBox="0 0 130 104">
  <g id="Grupo_6207" data-name="Grupo 6207" transform="translate(-9649 -5714)">
    <path id="technician_17474747" d="M110.134,33.871h-2.9A32.81,32.81,0,0,0,104,26.054L106.05,24a3.727,3.727,0,0,0,0-5.248l-6.972-6.968a3.677,3.677,0,0,0-2.62-1.088h0a3.689,3.689,0,0,0-2.627,1.086l-2.046,2.046a32.74,32.74,0,0,0-7.818-3.24V7.7A3.716,3.716,0,0,0,80.248,3.99H70.389A3.716,3.716,0,0,0,66.678,7.7v2.892a32.875,32.875,0,0,0-7.814,3.24l-2.048-2.045a3.677,3.677,0,0,0-2.62-1.088h0a3.69,3.69,0,0,0-2.627,1.086l-6.97,6.97a3.717,3.717,0,0,0,0,5.25l2.046,2.046A32.879,32.879,0,0,0,43.4,33.871H40.508A3.716,3.716,0,0,0,36.8,37.583v9.859a3.716,3.716,0,0,0,3.711,3.711H43.4a32.892,32.892,0,0,0,3.239,7.818l-2.046,2.046a3.717,3.717,0,0,0,0,5.25L49.4,71.075v6.554a7.622,7.622,0,0,0-2.578-.163,7.514,7.514,0,0,0-5.708,3.655,1.056,1.056,0,0,0,.907,1.6h4.831l1.317,2.277-1.317,2.277H42.023a1.056,1.056,0,0,0-.907,1.6,7.52,7.52,0,0,0,5.712,3.658,7.793,7.793,0,0,0,.824.044,7.5,7.5,0,0,0,5.523-2.414,2.371,2.371,0,0,1,1.826-.8H95.637a2.378,2.378,0,0,1,1.833.8,7.576,7.576,0,0,0,12.052-1.29,1.056,1.056,0,0,0-.907-1.6h-4.83l-1.314-2.277,1.314-2.277h4.83a1.056,1.056,0,0,0,.907-1.6,7.512,7.512,0,0,0-5.705-3.655,7.6,7.6,0,0,0-2.58.163V71.075l4.814-4.809a3.727,3.727,0,0,0,0-5.249L104,58.971a32.739,32.739,0,0,0,3.24-7.818h2.9a3.716,3.716,0,0,0,3.711-3.711V37.583a3.716,3.716,0,0,0-3.711-3.711ZM90.909,80.63H59.728V71.563a1.541,1.541,0,0,1,1.539-1.539h28.1a1.541,1.541,0,0,1,1.539,1.539Zm-26.2-44.778,1.009-3.77c.5-1.855,4.624-3.253,9.6-3.253h.011c4.969,0,9.09,1.4,9.586,3.253l1.012,3.77a56.527,56.527,0,0,0-21.218,0Zm20.04,1.905-2.1,1.287a1.7,1.7,0,0,1-.891.2H68.88a1.7,1.7,0,0,1-.893-.2l-2.1-1.285a56.138,56.138,0,0,1,18.862,0ZM63.768,38.935l3.114,1.908a3.755,3.755,0,0,0,2,.515H81.758a3.752,3.752,0,0,0,2-.514l3.118-1.908a12.089,12.089,0,1,1-23.1,0ZM75.321,56.713a14.111,14.111,0,0,0,6.033-1.349,33.321,33.321,0,0,1,6.03,1.51l-2.96,11.038H66.178L63.222,56.885a33.307,33.307,0,0,1,6.064-1.521,14.12,14.12,0,0,0,6.036,1.35Zm-14.074.964,2.744,10.236H62.078l-2.518-9.4Q60.38,58.063,61.247,57.676ZM88.525,67.912H86.612L89.36,57.663q.865.385,1.687.829l-2.522,9.42Zm-4.495-14.2A14.2,14.2,0,0,0,88.449,37.09l0-.006h0l-1.489-5.549c-.951-3.553-6.857-4.816-11.625-4.818h-.012c-4.776,0-10.686,1.262-11.641,4.818L62.2,37.085v0a14.183,14.183,0,0,0,4.415,16.627,31.341,31.341,0,0,0-7.279,2.5,21.064,21.064,0,1,1,31.98,0,31.331,31.331,0,0,0-7.28-2.506Zm-26.349,5.94,2.277,8.5a3.654,3.654,0,0,0-2.342,3.4V80.63H55a2.381,2.381,0,0,1-1.827-.794,7.639,7.639,0,0,0-1.66-1.346V70.053c.172-4.567,2.651-7.981,6.168-10.4Zm45.912,19.91a5.438,5.438,0,0,1,2.678,1.04h-3.1a1.056,1.056,0,0,0-.915.528l-1.923,3.333a1.057,1.057,0,0,0,0,1.056l1.923,3.333a1.056,1.056,0,0,0,.915.528h3.1a5.476,5.476,0,0,1-7.254-.663,4.5,4.5,0,0,0-3.38-1.474H55a4.5,4.5,0,0,0-3.373,1.472,5.481,5.481,0,0,1-7.26.665h3.1a1.056,1.056,0,0,0,.914-.527l1.928-3.333a1.056,1.056,0,0,0,0-1.058l-1.928-3.333a1.056,1.056,0,0,0-.914-.527h-3.1a5.483,5.483,0,0,1,7.26.671A4.508,4.508,0,0,0,55,82.742H95.637a4.514,4.514,0,0,0,3.379-1.467,5.416,5.416,0,0,1,4.577-1.709Zm-6.122.269a2.388,2.388,0,0,1-1.833.8H93.022V71.563a3.654,3.654,0,0,0-2.373-3.416l2.279-8.512c3.532,2.418,6.024,5.838,6.2,10.418v8.439a7.635,7.635,0,0,0-1.654,1.342Zm14.263-32.394a1.6,1.6,0,0,1-1.6,1.6h-3.716a1.056,1.056,0,0,0-1.027.808,30.636,30.636,0,0,1-3.622,8.741,1.056,1.056,0,0,0,.156,1.3l2.628,2.623a1.609,1.609,0,0,1,0,2.264l-3.486,3.482a15.12,15.12,0,0,0-6.114-9.787c-.556-.423-1.147-.822-1.765-1.2a23.175,23.175,0,1,0-35.742,0c-.619.38-1.211.78-1.767,1.2a15.12,15.12,0,0,0-6.114,9.785l-3.48-3.48a1.6,1.6,0,0,1,0-2.263l2.625-2.625a1.056,1.056,0,0,0,.155-1.3,30.791,30.791,0,0,1-3.622-8.742,1.056,1.056,0,0,0-1.026-.806H40.509a1.6,1.6,0,0,1-1.6-1.6V37.582a1.6,1.6,0,0,1,1.6-1.6H44.22a1.056,1.056,0,0,0,1.026-.806,30.785,30.785,0,0,1,3.622-8.742,1.056,1.056,0,0,0-.155-1.3l-2.625-2.625a1.6,1.6,0,0,1,0-2.263l6.969-6.97a1.591,1.591,0,0,1,1.133-.468h0a1.581,1.581,0,0,1,1.128.469l2.63,2.625a1.056,1.056,0,0,0,1.3.154,30.765,30.765,0,0,1,8.737-3.622,1.056,1.056,0,0,0,.806-1.026V7.7a1.6,1.6,0,0,1,1.6-1.6h9.859a1.6,1.6,0,0,1,1.6,1.6v3.711a1.056,1.056,0,0,0,.808,1.027A30.634,30.634,0,0,1,91.4,16.061a1.056,1.056,0,0,0,1.3-.155l2.625-2.625a1.591,1.591,0,0,1,1.133-.468h0a1.581,1.581,0,0,1,1.128.468l6.972,6.968a1.609,1.609,0,0,1,0,2.264l-2.63,2.625a1.056,1.056,0,0,0-.156,1.3,30.72,30.72,0,0,1,3.622,8.742,1.056,1.056,0,0,0,1.027.808h3.716a1.6,1.6,0,0,1,1.6,1.6v9.859ZM79.252,31.883A1.056,1.056,0,0,1,78.2,32.939H72.447a1.056,1.056,0,1,1,0-2.112H78.2A1.056,1.056,0,0,1,79.252,31.883ZM65.557,73A1.056,1.056,0,0,1,64.5,74.054h-1.36a1.056,1.056,0,1,1,0-2.112H64.5A1.056,1.056,0,0,1,65.557,73Zm23,0A1.056,1.056,0,0,1,87.5,74.054h-1.36a1.056,1.056,0,1,1,0-2.112H87.5A1.056,1.056,0,0,1,88.558,73Z" transform="translate(9638.679 5718.01)" fill="#fff"/>
    <rect id="Rect치ngulo_2731" data-name="Rect치ngulo 2731" width="130" height="104" transform="translate(9649 5714)" fill="none"/>
    <rect id="Rect치ngulo_2731-2" data-name="Rect치ngulo 2731" width="130" height="104" transform="translate(9649 5714)" fill="none"/>
  </g>
</svg>
