<svg xmlns="http://www.w3.org/2000/svg" width="100" height="104" viewBox="0 0 100 104">
  <g id="Grupo_4925" data-name="Grupo 4925" transform="translate(-11726 -3724)">
    <rect id="Rectángulo_2731" data-name="Rectángulo 2731" width="100" height="104" transform="translate(11726 3724)" fill="none"/>
    <g id="Grupo_4924" data-name="Grupo 4924" transform="translate(11347.383 3468.25)">
      <g id="Grupo_4924-2" data-name="Grupo 4924" transform="translate(399.617 283.703)">
        <path id="Trazado_36423" data-name="Trazado 36423" d="M456.371,329.377l-12.446-12.449a.978.978,0,0,0-1.384,0l-2.768,2.772-3.459-3.459,3.565-3.559a14.735,14.735,0,0,0,13.609-3.929h0a14.767,14.767,0,0,0,3.45-15.3.98.98,0,0,0-1.614-.364l-6.943,6.937L443.2,298.3l-1.729-5.182,6.937-6.943a.978.978,0,0,0,0-1.384.993.993,0,0,0-.364-.23,14.672,14.672,0,0,0-19.233,17.053l-3.559,3.565L412.78,292.7l-.389-4.215a.988.988,0,0,0-.569-.8l-7.609-3.453a.981.981,0,0,0-1.095.2l-2.756,2.759a.969.969,0,0,0-.2,1.095l3.45,7.609a.976.976,0,0,0,.8.569l4.215.392L421.1,309.316,401.619,328.8a6.853,6.853,0,0,0,0,9.68L403,339.863a6.862,6.862,0,0,0,9.684,0l19.492-19.482,3.456,3.459-2.769,2.772a.975.975,0,0,0,0,1.381l12.446,12.449a6.856,6.856,0,0,0,9.684,0l1.381-1.384a6.844,6.844,0,0,0,0-9.68l0,0Zm-46.608-34.159a.98.98,0,0,0-.6-.283l-4-.367-2.933-6.477,1.8-1.8,6.473,2.933.367,4a.979.979,0,0,0,.283.6l12.713,12.726-1.375,1.375Zm1.54,43.264a4.9,4.9,0,0,1-6.921,0L403,337.1a4.893,4.893,0,0,1,0-6.918l27.579-27.579a.985.985,0,0,0,.252-.946,12.735,12.735,0,0,1,15.012-15.7l-6.19,6.2a.972.972,0,0,0-.236,1l2.072,6.218a.98.98,0,0,0,.619.619l6.221,2.072a.978.978,0,0,0,1-.233l6.2-6.193a12.707,12.707,0,0,1-15.7,15.009.975.975,0,0,0-.946.255ZM433.554,319l1.11-1.11.264-.264,3.462,3.456-1.378,1.381Zm21.436,18.68-1.384,1.378a4.895,4.895,0,0,1-6.915,0L434.935,327.3l8.3-8.3,11.758,11.755a4.895,4.895,0,0,1,0,6.915Z" transform="translate(-399.617 -283.703)" fill="#fff" stroke="#fff" stroke-miterlimit="10" stroke-width="1"/>
      </g>
    </g>
  </g>
</svg>
