<svg xmlns="http://www.w3.org/2000/svg" width="130" height="104" viewBox="0 0 130 104">
  <g id="Grupo_6205" data-name="Grupo 6205" transform="translate(-9446 -5724)">
    <path id="fee_17371677" d="M83.889,48.755a18.117,18.117,0,0,0-17.5,22.806l-4.4-1.184a1.087,1.087,0,0,0-.182-.244L58.2,66.527a2.16,2.16,0,0,0-2.168-.534,4.277,4.277,0,0,1-.056-.682V63.186A16.411,16.411,0,0,0,63.9,51.445h.1a7.441,7.441,0,0,0,5.063-12.9V27.707a9.47,9.47,0,0,0-13.662-8.5A10.176,10.176,0,0,0,47.186,15H43.574A17.266,17.266,0,0,0,26.327,32.247v6.3a7.441,7.441,0,0,0,5.061,12.9h.1a16.416,16.416,0,0,0,7.92,11.742v2.124a4.278,4.278,0,0,1-.056.682,2.162,2.162,0,0,0-2.17.534l-3.606,3.606a1.088,1.088,0,0,0-.182.244l-11.92,3.207a7.232,7.232,0,0,0-5.415,6.655l-1.045,18.1A3.464,3.464,0,0,0,18.47,102H76.911a3.464,3.464,0,0,0,3.458-3.664l-.8-13.87a18.118,18.118,0,1,0,4.323-35.712ZM63.281,81.031l-3.989,3.124a1.083,1.083,0,0,0-.215,1.482L61.4,88.9l-4.406,10.94h-2.3L59.969,73.5l1.121-1.121,1.883.507Zm-27.2,3.124L32.1,81.031l.31-8.144,1.883-.507L35.41,73.5l5.281,26.335h-2.3L33.979,88.893,36.3,85.635A1.082,1.082,0,0,0,36.085,84.155ZM46.5,75.843a2.149,2.149,0,0,0,.44-.641h1.5a2.14,2.14,0,0,0,.44.641l1.235,1.235-.671,1.583H45.933l-.671-1.583Zm5.274,2.884a2.158,2.158,0,0,0,3.011-.04l2.426-2.426L52.933,97.574,51.267,79.915Zm-8.162,0,.505,1.188L42.448,97.574,38.174,76.262,40.6,78.688a2.156,2.156,0,0,0,3.009.04Zm2.6,2.1h2.973l1.794,19.007H44.408Zm13.3-9.928-6.249,6.256-2.845-2.836,6.258-6.258ZM69.272,44a5.284,5.284,0,0,1-5.207,5.278c0-.072,0-.143,0-.215V38.72a5.287,5.287,0,0,1,5.2,5.28ZM26.107,44a5.285,5.285,0,0,1,5.206-5.278V49.064c0,.072,0,.143,0,.215A5.286,5.286,0,0,1,26.107,44Zm5.971-8.525a1.931,1.931,0,0,0-.708,1.079,7.43,7.43,0,0,0-2.879.585V32.247A15.1,15.1,0,0,1,43.572,17.166h3.612A8,8,0,0,1,54.1,21.189a1.084,1.084,0,0,0,1.527.37,7.3,7.3,0,0,1,11.261,6.148v9.431a7.413,7.413,0,0,0-2.819-.585V35.31a1.978,1.978,0,0,0-1.976-1.976H60.1A10.71,10.71,0,0,1,52.056,29.9a1.977,1.977,0,0,0-3.04.069A14.718,14.718,0,0,1,33.782,35.12,1.939,1.939,0,0,0,32.078,35.474Zm1.4,13.59V37.279a16.884,16.884,0,0,0,17.093-5.79A12.949,12.949,0,0,0,60.1,35.5h1.8V49.066a14.211,14.211,0,1,1-28.422,0ZM47.69,65.441a16.3,16.3,0,0,0,6.117-1.186v1.056a6.455,6.455,0,0,0,.381,2.171l-5.307,5.307a2.078,2.078,0,0,0-.209.247H46.706a2.079,2.079,0,0,0-.209-.247L41.19,67.482a6.455,6.455,0,0,0,.381-2.171V64.255A16.283,16.283,0,0,0,47.69,65.441Zm-8.98,2.623,6.258,6.249-2.836,2.845L35.874,70.9ZM17.524,99.427a1.225,1.225,0,0,1-.352-.966l1.049-18.1a5.1,5.1,0,0,1,3.814-4.689l8.18-2.2L29.91,81.5a1.081,1.081,0,0,0,.415.893l3.61,2.827-2.065,2.9a1.084,1.084,0,0,0-.123,1.032l4.3,10.686H27.817v-12.3a1.083,1.083,0,0,0-2.166,0v12.3H18.468a1.225,1.225,0,0,1-.944-.408Zm60.681-.966a1.3,1.3,0,0,1-1.3,1.374h-7.18v-12.3a1.083,1.083,0,0,0-2.166,0v12.3H59.328l4.3-10.682a1.083,1.083,0,0,0-.123-1.032l-2.065-2.9,3.61-2.827a1.084,1.084,0,0,0,.415-.893l-.305-8.025,2.087.561a18.227,18.227,0,0,0,10.106,9.734Zm5.684-15.639A15.951,15.951,0,1,1,99.84,66.872,15.968,15.968,0,0,1,83.889,82.823ZM81.5,63.829c0,.731.7,1.117,2.309,1.823.173.076.348.153.523.233s.338.15.5.224c1.6.706,3.6,1.587,3.6,3.807a4.236,4.236,0,0,1-3.469,4.007v2.141a1.083,1.083,0,0,1-2.166,0V73.923a4.236,4.236,0,0,1-3.469-4.007,1.083,1.083,0,1,1,2.166,0,2.432,2.432,0,0,0,4.772,0c0-.731-.7-1.117-2.309-1.823-.173-.076-.348-.153-.523-.233s-.338-.15-.5-.224c-1.6-.706-3.6-1.587-3.6-3.8A4.236,4.236,0,0,1,82.8,59.824V57.683a1.083,1.083,0,1,1,2.166,0v2.141a4.236,4.236,0,0,1,3.469,4.007,1.083,1.083,0,0,1-2.166,0,2.433,2.433,0,0,0-4.772,0Zm2.388-10.911A13.954,13.954,0,1,0,97.844,66.872,13.97,13.97,0,0,0,83.889,52.918Zm0,25.743A11.788,11.788,0,1,1,95.678,66.872,11.8,11.8,0,0,1,83.889,78.661Z" transform="translate(9457.994 5717.5)" fill="#fff"/>
    <rect id="Rectángulo_2731" data-name="Rectángulo 2731" width="130" height="104" transform="translate(9446 5724)" fill="none"/>
  </g>
</svg>
