<svg xmlns="http://www.w3.org/2000/svg" width="59" height="59" viewBox="0 0 59 59">
  <g id="bullets" fill="#7e7393" opacity="0.728">
    <path d="M 29.5 56.5 C 25.85391998291016 56.5 22.31822967529297 55.78646850585938 18.99114990234375 54.37923049926758 C 15.77630996704102 53.01947021484375 12.88856029510498 51.07231903076172 10.40812015533447 48.59188079833984 C 7.927680015563965 46.1114387512207 5.98052978515625 43.22369003295898 4.62076997756958 40.00885009765625 C 3.21353006362915 36.68177032470703 2.5 33.14608001708984 2.5 29.5 C 2.5 25.85391998291016 3.21353006362915 22.31822967529297 4.62076997756958 18.99114990234375 C 5.98052978515625 15.77630996704102 7.927680015563965 12.88856029510498 10.40812015533447 10.40812015533447 C 12.88856029510498 7.927680015563965 15.77630996704102 5.98052978515625 18.99114990234375 4.62076997756958 C 22.31822967529297 3.21353006362915 25.85391998291016 2.5 29.5 2.5 C 33.14608001708984 2.5 36.68177032470703 3.21353006362915 40.00885009765625 4.62076997756958 C 43.22369003295898 5.98052978515625 46.1114387512207 7.927680015563965 48.59188079833984 10.40812015533447 C 51.07231903076172 12.88856029510498 53.01947021484375 15.77630996704102 54.37923049926758 18.99114990234375 C 55.78646850585938 22.31822967529297 56.5 25.85391998291016 56.5 29.5 C 56.5 33.14608001708984 55.78646850585938 36.68177032470703 54.37923049926758 40.00885009765625 C 53.01947021484375 43.22369003295898 51.07231903076172 46.1114387512207 48.59188079833984 48.59188079833984 C 46.1114387512207 51.07231903076172 43.22369003295898 53.01947021484375 40.00885009765625 54.37923049926758 C 36.68177032470703 55.78646850585938 33.14608001708984 56.5 29.5 56.5 Z" stroke="none"/>
    <path d="M 29.5 5 C 26.19031143188477 5 22.9822883605957 5.647087097167969 19.96502685546875 6.923274993896484 C 17.04818725585938 8.157001495361328 14.42753601074219 9.924236297607422 12.17588806152344 12.17588806152344 C 9.924236297607422 14.42753601074219 8.157001495361328 17.04818725585938 6.923274993896484 19.96502685546875 C 5.647087097167969 22.9822883605957 5 26.19031143188477 5 29.5 C 5 32.80968475341797 5.647087097167969 36.0177116394043 6.923274993896484 39.03497314453125 C 8.157001495361328 41.95181274414062 9.924236297607422 44.57246398925781 12.17588806152344 46.82411193847656 C 14.42753601074219 49.07576370239258 17.04818725585938 50.84300231933594 19.96502685546875 52.07672500610352 C 22.9822883605957 53.35291290283203 26.19031143188477 54 29.5 54 C 32.80968475341797 54 36.0177116394043 53.35291290283203 39.03497314453125 52.07672500610352 C 41.95181274414062 50.84300231933594 44.57246398925781 49.07576370239258 46.82411193847656 46.82411193847656 C 49.07576370239258 44.57246398925781 50.84300231933594 41.95181274414062 52.07672500610352 39.03497314453125 C 53.35291290283203 36.0177116394043 54 32.80968475341797 54 29.5 C 54 26.19031143188477 53.35291290283203 22.9822883605957 52.07672500610352 19.96502685546875 C 50.84300231933594 17.04818725585938 49.07576370239258 14.42753601074219 46.82411193847656 12.17588806152344 C 44.57246398925781 9.924236297607422 41.95181274414062 8.157001495361328 39.03497314453125 6.923274993896484 C 36.0177116394043 5.647087097167969 32.80968475341797 5 29.5 5 M 29.5 0 C 45.79240036010742 0 59 13.20759963989258 59 29.5 C 59 45.79240036010742 45.79240036010742 59 29.5 59 C 13.20759963989258 59 0 45.79240036010742 0 29.5 C 0 13.20759963989258 13.20759963989258 0 29.5 0 Z" stroke="none" fill="#5b4584"/>
  </g>
</svg>
