<svg xmlns="http://www.w3.org/2000/svg" width="24.883" height="23.62" viewBox="0 0 24.883 23.62">
  <g id="Grupo_149" data-name="Grupo 149" transform="translate(-241.752 -135.27)">
    <path id="Trazado_6237" data-name="Trazado 6237" d="M264.352,145.044a.834.834,0,0,0-.679.879,10.173,10.173,0,1,1-4.136-7.082.911.911,0,0,0,1.332-.224.886.886,0,0,0-.3-1.048,11.808,11.808,0,1,0,4.732,8.178A.836.836,0,0,0,264.352,145.044Z" transform="translate(0 0)" fill="#e64a1b"/>
    <path id="Trazado_6238" data-name="Trazado 6238" d="M338.187,167.442a.779.779,0,0,1-.262.455q-3.736,4.022-7.472,8.043-2.785,3-5.565,6c-.654.708-.651.719-1.295-.014q-2.761-3.148-5.519-6.3c-.249-.283-.285-.509.015-.774.421-.372.835-.753,1.234-1.149a.566.566,0,0,1,.836-.048c1.165.795,2.354,2.131,3.515,2.931a.725.725,0,0,0,1.037-.031c3.991-3.229,8-7.011,12.007-10.222.6-.481.62-.478,1.008.219A3.783,3.783,0,0,1,338.187,167.442Z" transform="translate(-71.551 -28.884)" fill="#e64a1b"/>
  </g>
</svg>
