<svg xmlns="http://www.w3.org/2000/svg" width="40.903" height="41.99" viewBox="0 0 40.903 41.99">
  <g id="Grupo_6100" data-name="Grupo 6100" transform="translate(-1878 -38.211)">
    <g id="Grupo_6073" data-name="Grupo 6073" transform="translate(1878 38.211)">
      <rect id="Rectángulo_3091" data-name="Rectángulo 3091" width="40.903" height="1.835" transform="translate(0 22.023)" fill="#cb001c"/>
      <rect id="Rectángulo_3092" data-name="Rectángulo 3092" width="40.903" height="1.835" transform="translate(0 20.188)" fill="#fff"/>
      <rect id="Rectángulo_3093" data-name="Rectángulo 3093" width="40.903" height="1.834" transform="translate(0 18.355)" fill="#cb001c"/>
      <rect id="Rectángulo_3094" data-name="Rectángulo 3094" width="40.903" height="1.836" transform="translate(0 16.518)" fill="#fff"/>
      <rect id="Rectángulo_3095" data-name="Rectángulo 3095" width="40.903" height="1.836" transform="translate(0 14.682)" fill="#cb001c"/>
      <rect id="Rectángulo_3096" data-name="Rectángulo 3096" width="40.903" height="1.834" transform="translate(0 12.849)" fill="#fff"/>
      <rect id="Rectángulo_3097" data-name="Rectángulo 3097" width="40.903" height="1.838" transform="translate(0 11.011)" fill="#cb001c"/>
      <rect id="Rectángulo_3098" data-name="Rectángulo 3098" width="40.903" height="1.834" transform="translate(0 9.177)" fill="#fff"/>
      <rect id="Rectángulo_3099" data-name="Rectángulo 3099" width="40.903" height="1.836" transform="translate(0 7.342)" fill="#cb001c"/>
      <rect id="Rectángulo_3100" data-name="Rectángulo 3100" width="40.903" height="1.836" transform="translate(0 5.506)" fill="#fff"/>
      <rect id="Rectángulo_3101" data-name="Rectángulo 3101" width="40.903" height="1.835" transform="translate(0 3.67)" fill="#cb001c"/>
      <rect id="Rectángulo_3102" data-name="Rectángulo 3102" width="40.903" height="1.835" transform="translate(0 1.836)" fill="#fff"/>
      <rect id="Rectángulo_3103" data-name="Rectángulo 3103" width="40.903" height="1.836" transform="translate(0 0)" fill="#cb001c"/>
      <rect id="Rectángulo_3104" data-name="Rectángulo 3104" width="18.679" height="12.849" transform="translate(0 0)" fill="#2a3560"/>
      <path id="Trazado_38752" data-name="Trazado 38752" d="M1.345,1.649H.838l.414.3-.162.485.414-.3.414.3-.157-.485.414-.3H1.664L1.5,1.162Z" transform="translate(0.183 0.254)" fill="#fff"/>
      <path id="Trazado_38753" data-name="Trazado 38753" d="M1.345,3.408H.838l.414.3-.162.487.414-.3.414.3-.157-.487.414-.3H1.664L1.5,2.922Z" transform="translate(0.183 0.639)" fill="#fff"/>
      <path id="Trazado_38754" data-name="Trazado 38754" d="M1.345,5.167H.838l.414.3-.162.485.414-.3.414.3-.157-.485.414-.3H1.664L1.5,4.682Z" transform="translate(0.183 1.023)" fill="#fff"/>
      <path id="Trazado_38755" data-name="Trazado 38755" d="M1.345,6.928H.838l.414.3-.162.484.414-.3.414.3-.157-.484.414-.3H1.664L1.5,6.441Z" transform="translate(0.183 1.408)" fill="#fff"/>
      <path id="Trazado_38756" data-name="Trazado 38756" d="M1.345,8.689H.838l.414.3-.162.486.414-.3.414.3-.157-.486.414-.3H1.664L1.5,8.2Z" transform="translate(0.183 1.793)" fill="#fff"/>
      <path id="Trazado_38757" data-name="Trazado 38757" d="M2.731,2.089l.152.486H3.4l-.412.3.155.485-.409-.3-.412.3.155-.485-.412-.3h.512Z" transform="translate(0.451 0.457)" fill="#fff"/>
      <path id="Trazado_38758" data-name="Trazado 38758" d="M2.731,3.85l.152.485H3.4l-.412.3.155.484-.409-.3-.412.3.155-.484-.412-.3h.512Z" transform="translate(0.451 0.841)" fill="#fff"/>
      <path id="Trazado_38759" data-name="Trazado 38759" d="M2.731,5.609l.152.485H3.4l-.412.3.155.485-.409-.3-.412.3L2.474,6.4l-.412-.3h.512Z" transform="translate(0.451 1.226)" fill="#fff"/>
      <path id="Trazado_38760" data-name="Trazado 38760" d="M2.731,7.37l.152.485H3.4l-.412.3.155.484-.409-.3-.412.3.155-.484-.412-.3h.512Z" transform="translate(0.451 1.611)" fill="#fff"/>
      <path id="Trazado_38761" data-name="Trazado 38761" d="M3.969,1.162l.16.486h.512l-.414.3.16.486-.417-.3-.409.3.157-.486-.414-.3h.509Z" transform="translate(0.722 0.254)" fill="#fff"/>
      <path id="Trazado_38762" data-name="Trazado 38762" d="M3.969,2.923l.16.484h.512l-.414.3.16.487-.417-.3-.409.3.157-.487-.414-.3h.509Z" transform="translate(0.722 0.639)" fill="#fff"/>
      <path id="Trazado_38763" data-name="Trazado 38763" d="M3.969,4.683l.16.485h.512l-.414.3.16.486-.417-.3-.409.3.157-.486-.414-.3h.509Z" transform="translate(0.722 1.024)" fill="#fff"/>
      <path id="Trazado_38764" data-name="Trazado 38764" d="M3.969,6.441l.16.486h.512l-.414.3.16.484-.417-.3-.409.3.157-.484-.414-.3h.509Z" transform="translate(0.722 1.408)" fill="#fff"/>
      <path id="Trazado_38765" data-name="Trazado 38765" d="M3.969,8.2l.16.487h.512l-.414.3.16.485-.417-.3-.409.3.157-.485-.414-.3h.509Z" transform="translate(0.722 1.793)" fill="#fff"/>
      <path id="Trazado_38766" data-name="Trazado 38766" d="M5.2,2.089l.157.486h.514l-.417.3.16.485-.414-.3-.412.3.16-.485-.417-.3h.512Z" transform="translate(0.99 0.457)" fill="#fff"/>
      <path id="Trazado_38767" data-name="Trazado 38767" d="M5.2,3.85l.157.485h.514l-.417.3.16.484-.414-.3-.412.3.16-.484-.417-.3h.512Z" transform="translate(0.99 0.841)" fill="#fff"/>
      <path id="Trazado_38768" data-name="Trazado 38768" d="M5.2,5.609l.157.485h.514l-.417.3.16.485-.414-.3-.412.3.16-.485-.417-.3h.512Z" transform="translate(0.99 1.226)" fill="#fff"/>
      <path id="Trazado_38769" data-name="Trazado 38769" d="M5.2,7.37l.157.485h.514l-.417.3.16.484-.414-.3-.412.3.16-.484-.417-.3h.512Z" transform="translate(0.99 1.611)" fill="#fff"/>
      <path id="Trazado_38770" data-name="Trazado 38770" d="M6.438,1.162l.16.486H7.1l-.414.3.165.486-.417-.3-.414.3.157-.486-.409-.3h.509Z" transform="translate(1.262 0.254)" fill="#fff"/>
      <path id="Trazado_38771" data-name="Trazado 38771" d="M6.438,2.923l.16.484H7.1l-.414.3.165.487-.417-.3-.414.3.157-.487-.409-.3h.509Z" transform="translate(1.262 0.639)" fill="#fff"/>
      <path id="Trazado_38772" data-name="Trazado 38772" d="M6.438,4.683l.16.485H7.1l-.414.3.165.486-.417-.3-.414.3.157-.486-.409-.3h.509Z" transform="translate(1.262 1.024)" fill="#fff"/>
      <path id="Trazado_38773" data-name="Trazado 38773" d="M6.438,6.441l.16.486H7.1l-.414.3.165.484-.417-.3-.414.3.157-.484-.409-.3h.509Z" transform="translate(1.262 1.408)" fill="#fff"/>
      <path id="Trazado_38774" data-name="Trazado 38774" d="M6.438,8.2l.16.487H7.1l-.414.3.165.485-.417-.3-.414.3.157-.485-.409-.3h.509Z" transform="translate(1.262 1.793)" fill="#fff"/>
      <path id="Trazado_38775" data-name="Trazado 38775" d="M7.665,2.089l.157.486h.509l-.412.3.155.485-.409-.3-.412.3.155-.485L7,2.575h.509Z" transform="translate(1.529 0.457)" fill="#fff"/>
      <path id="Trazado_38776" data-name="Trazado 38776" d="M7.665,3.85l.157.485h.509l-.412.3.155.484-.409-.3-.412.3.155-.484L7,4.335h.509Z" transform="translate(1.529 0.841)" fill="#fff"/>
      <path id="Trazado_38777" data-name="Trazado 38777" d="M7.665,5.609l.157.485h.509l-.412.3.155.485-.409-.3-.412.3L7.408,6.4,7,6.094h.509Z" transform="translate(1.529 1.226)" fill="#fff"/>
      <path id="Trazado_38778" data-name="Trazado 38778" d="M7.665,7.37l.157.485h.509l-.412.3.155.484-.409-.3-.412.3.155-.484L7,7.855h.509Z" transform="translate(1.529 1.611)" fill="#fff"/>
      <path id="Trazado_38779" data-name="Trazado 38779" d="M8.9,1.162l.16.486h.509l-.412.3.16.486-.417-.3-.409.3.155-.486-.412-.3h.509Z" transform="translate(1.801 0.254)" fill="#fff"/>
      <path id="Trazado_38780" data-name="Trazado 38780" d="M8.9,2.923l.16.484h.509l-.412.3.16.487-.417-.3-.409.3.155-.487-.412-.3h.509Z" transform="translate(1.801 0.639)" fill="#fff"/>
      <path id="Trazado_38781" data-name="Trazado 38781" d="M8.9,4.683l.16.485h.509l-.412.3.16.486-.417-.3-.409.3.155-.486-.412-.3h.509Z" transform="translate(1.801 1.024)" fill="#fff"/>
      <path id="Trazado_38782" data-name="Trazado 38782" d="M8.9,6.441l.16.486h.509l-.412.3.16.484-.417-.3-.409.3.155-.484-.412-.3h.509Z" transform="translate(1.801 1.408)" fill="#fff"/>
      <path id="Trazado_38783" data-name="Trazado 38783" d="M8.9,8.2l.16.487h.509l-.412.3.16.485-.417-.3-.409.3.155-.485-.412-.3h.509Z" transform="translate(1.801 1.793)" fill="#fff"/>
      <path id="Trazado_38784" data-name="Trazado 38784" d="M10.129,2.089l.157.486H10.8l-.414.3.157.485-.414-.3-.412.3.16-.485-.414-.3h.512Z" transform="translate(2.069 0.457)" fill="#fff"/>
      <path id="Trazado_38785" data-name="Trazado 38785" d="M10.129,3.85l.157.485H10.8l-.414.3.157.484-.414-.3-.412.3.16-.484-.414-.3h.512Z" transform="translate(2.069 0.841)" fill="#fff"/>
      <path id="Trazado_38786" data-name="Trazado 38786" d="M10.129,5.609l.157.485H10.8l-.414.3.157.485-.414-.3-.412.3.16-.485-.414-.3h.512Z" transform="translate(2.069 1.226)" fill="#fff"/>
      <path id="Trazado_38787" data-name="Trazado 38787" d="M10.129,7.37l.157.485H10.8l-.414.3.157.484-.414-.3-.412.3.16-.484-.414-.3h.512Z" transform="translate(2.069 1.611)" fill="#fff"/>
      <path id="Trazado_38788" data-name="Trazado 38788" d="M11.372,1.162l.16.486h.509l-.412.3.155.486-.412-.3-.409.3.155-.486-.412-.3h.509Z" transform="translate(2.34 0.254)" fill="#fff"/>
      <path id="Trazado_38789" data-name="Trazado 38789" d="M11.372,2.923l.16.484h.509l-.412.3.155.487-.412-.3-.409.3.155-.487-.412-.3h.509Z" transform="translate(2.34 0.639)" fill="#fff"/>
      <path id="Trazado_38790" data-name="Trazado 38790" d="M11.372,4.683l.16.485h.509l-.412.3.155.486-.412-.3-.409.3.155-.486-.412-.3h.509Z" transform="translate(2.34 1.024)" fill="#fff"/>
      <path id="Trazado_38791" data-name="Trazado 38791" d="M11.372,6.441l.16.486h.509l-.412.3.155.484-.412-.3-.409.3.155-.484-.412-.3h.509Z" transform="translate(2.34 1.408)" fill="#fff"/>
      <path id="Trazado_38792" data-name="Trazado 38792" d="M11.372,8.2l.16.487h.509l-.412.3.155.485-.412-.3-.409.3.155-.485-.412-.3h.509Z" transform="translate(2.34 1.793)" fill="#fff"/>
      <path id="Trazado_38793" data-name="Trazado 38793" d="M12.6,2.089l.155.486h.512l-.409.3.152.485-.409-.3-.417.3.16-.485-.409-.3h.507Z" transform="translate(2.608 0.457)" fill="#fff"/>
      <path id="Trazado_38794" data-name="Trazado 38794" d="M12.6,3.85l.155.485h.512l-.409.3.152.484-.409-.3-.417.3.16-.484-.409-.3h.507Z" transform="translate(2.608 0.841)" fill="#fff"/>
      <path id="Trazado_38795" data-name="Trazado 38795" d="M12.6,5.609l.155.485h.512l-.409.3.152.485-.409-.3-.417.3.16-.485-.409-.3h.507Z" transform="translate(2.608 1.226)" fill="#fff"/>
      <path id="Trazado_38796" data-name="Trazado 38796" d="M12.6,7.37l.155.485h.512l-.409.3.152.484-.409-.3-.417.3.16-.484-.409-.3h.507Z" transform="translate(2.608 1.611)" fill="#fff"/>
      <path id="Trazado_38797" data-name="Trazado 38797" d="M13.836,1.162,14,1.648h.507l-.412.3.16.486-.417-.3-.409.3.155-.486-.412-.3h.509Z" transform="translate(2.879 0.254)" fill="#fff"/>
      <path id="Trazado_38798" data-name="Trazado 38798" d="M13.836,2.923,14,3.407h.507l-.412.3.16.487-.417-.3-.409.3.155-.487-.412-.3h.509Z" transform="translate(2.879 0.639)" fill="#fff"/>
      <path id="Trazado_38799" data-name="Trazado 38799" d="M13.836,4.683,14,5.168h.507l-.412.3.16.486-.417-.3-.409.3.155-.486-.412-.3h.509Z" transform="translate(2.879 1.024)" fill="#fff"/>
      <path id="Trazado_38800" data-name="Trazado 38800" d="M13.836,6.441,14,6.928h.507l-.412.3.16.484-.417-.3-.409.3.155-.484-.412-.3h.509Z" transform="translate(2.879 1.408)" fill="#fff"/>
      <path id="Trazado_38801" data-name="Trazado 38801" d="M13.836,8.2,14,8.689h.507l-.412.3.16.485-.417-.3-.409.3.155-.485-.412-.3h.509Z" transform="translate(2.879 1.793)" fill="#fff"/>
    </g>
    <text id="ENG" transform="translate(1898.093 77.201)" fill="#fff" font-size="13" font-family="Helvetica"><tspan x="-14" y="0">ENG</tspan></text>
  </g>
</svg>
