<svg xmlns="http://www.w3.org/2000/svg" width="239.707" height="80.769" viewBox="0 0 239.707 80.769">
  <g id="Grupo_3971" data-name="Grupo 3971" transform="translate(0)">
    <path id="Trazado_217" data-name="Trazado 217" d="M1633.408,115.852a1.667,1.667,0,0,1-1.63-2.016l1.344-6.256a1.666,1.666,0,0,1,3.257.7l-1.344,6.255a1.666,1.666,0,0,1-1.627,1.316" transform="translate(-1425.991 -58.779)" fill="#fdfeff"/>
    <path id="Trazado_218" data-name="Trazado 218" d="M1646.172,54.728a1.638,1.638,0,0,1-.344-.036,1.665,1.665,0,0,1-1.287-1.972l1.555-7.4a1.665,1.665,0,1,1,3.259.685l-1.555,7.4a1.666,1.666,0,0,1-1.628,1.323" transform="translate(-1432.681 -26.143)" fill="#fdfeff"/>
    <path id="Trazado_240" data-name="Trazado 240" d="M1448.532,56.5a14.016,14.016,0,1,0,14.1,14.016,14.059,14.059,0,0,0-14.1-14.016m0,22.63a8.621,8.621,0,1,1,8.274-8.615,8.449,8.449,0,0,1-8.274,8.615" transform="translate(-1322.574 -32.697)" fill="#fdfeff"/>
    <path id="Trazado_241" data-name="Trazado 241" d="M1367.479,79.566l-3.926-3.935a8.16,8.16,0,0,1-6.658,3.5,8.621,8.621,0,0,1,0-17.229,8.146,8.146,0,0,1,6.528,3.326l3.966-4.072a14.017,14.017,0,1,0,.242,18.442l-.152-.034" transform="translate(-1274.544 -32.697)" fill="#fdfeff"/>
    <path id="Trazado_242" data-name="Trazado 242" d="M1414.443,55.146V49.839h-7.165V42.561H1401.1v7.278h-3.26v5.307h3.26V70.574s-.038,3.867,2.956,5.231,7.278,1.63,10.387-.189V70.8s-2.729,1.175-4.7.682-2.464-1.933-2.464-4.511V55.146Z" transform="translate(-1303.395 -25.39)" fill="#fdfeff"/>
    <path id="Trazado_243" data-name="Trazado 243" d="M1515.191,56.5a11.8,11.8,0,0,0-9.448,5V57.013h-5.97V91.925h5.97V79.538a11.8,11.8,0,0,0,9.448,5c6.819,0,12.348-6.275,12.348-14.016S1522.011,56.5,1515.191,56.5M1513.5,79.132c-4.286,0-7.761-3.857-7.761-8.615s3.475-8.614,7.761-8.614,7.761,3.857,7.761,8.614-3.475,8.615-7.761,8.615" transform="translate(-1356.822 -32.697)" fill="#fdfeff"/>
    <path id="Trazado_244" data-name="Trazado 244" d="M1581.991,80.627a9.749,9.749,0,0,1-8.359,4.682,9.5,9.5,0,0,1-9.5-9.5v-17.8h5.949V73.9a5.99,5.99,0,0,0,11.981,0V58.015h6.141V84.74h-6.217Z" transform="translate(-1390.558 -33.49)" fill="#fdfeff"/>
    <path id="Trazado_245" data-name="Trazado 245" d="M1641.167,74.754c-.455-1.592-1.365-4.265-8.557-6.425a27.6,27.6,0,0,1-4.123-1.677,2.565,2.565,0,0,1-1.407-2.7c.514-1.914,2.91-2.2,2.91-2.2a13.384,13.384,0,0,1,8.334,2.572l2.359-4.435a22.769,22.769,0,0,0-10.263-2.786c-5.516,0-8.927,4.407-8.87,7.449s.6,6.653,7.165,8.245,7.79,3.326,6.823,5.231-2.872,1.791-4.577,1.791-4.662-.768-8.16-3.155l-2.644,4.037s4.066,4.122,12.822,3.866,8.642-8.216,8.188-9.809" transform="translate(-1419.92 -33.01)" fill="#fdfeff"/>
    <path id="Trazado_246" data-name="Trazado 246" d="M1272.556,62.979a29.213,29.213,0,0,1-30.139-5.409,22.6,22.6,0,0,0,6.517-3.12,22.907,22.907,0,0,0,7.133-8,22.32,22.32,0,0,0,1.916-4.848,22.76,22.76,0,1,0-43.98,0,22.334,22.334,0,0,0,1.916,4.851,22.868,22.868,0,0,0,7.026,7.923,22.539,22.539,0,0,0,6.462,3.147,29.229,29.229,0,0,1-30.036,5.518l5.166-5.18a22.9,22.9,0,0,0,5.361.637,22.518,22.518,0,0,0,6.585-.975,29.269,29.269,0,1,1,38.965.048,22.771,22.771,0,0,0,11.96.246Z" transform="translate(-1199.371 -6.478)" fill="#fdfeff"/>
    <text id="Collection" transform="translate(121.355 77.769)" fill="#62a51d" font-size="13" font-family="Helvetica" letter-spacing="0.179em"><tspan x="0" y="0">Collection</tspan></text>
    <path id="Trazado_257" data-name="Trazado 257" d="M1642.6,33.055c-7.011-1.3-13.144,1.745-17.758,6.585h1.351c6.631-5.345,16.11-5.775,21.4,1.435,8.629,12.06,2.386,34.249-11.209,40.068-6.65,2.756-13.048-.131-16.8-5.538h-1.76a18.011,18.011,0,0,0,10.14,9.845c13.511,4.59,26-7.752,29.212-20.09,3.626-12.231-.643-29.207-14.57-32.307" transform="translate(-1418.696 -20.251)" fill="#62a51d"/>
  </g>
</svg>
