<svg xmlns="http://www.w3.org/2000/svg" xmlns:xlink="http://www.w3.org/1999/xlink" width="326.461" height="64.819" viewBox="0 0 326.461 64.819">
  <defs>
    <clipPath id="clip-path">
      <path id="Trazado_34897" data-name="Trazado 34897" d="M537.8,84.4h11.157l3.574,14.973h.1L556.251,84.4H567.36v25.454h-7.39V93.529h-.048l-4.444,16.325h-5.8l-4.4-16.325h-.1v16.325H537.8Z" transform="translate(-537.8 -84.4)"/>
    </clipPath>
    <clipPath id="clip-path-2">
      <path id="Trazado_34899" data-name="Trazado 34899" d="M617.277,109.854h-8.742L601,84.4h7.873l4.154,15.456h.1L617.181,84.4H625.2Z" transform="translate(-601 -84.4)"/>
    </clipPath>
    <clipPath id="clip-path-3">
      <path id="Trazado_34901" data-name="Trazado 34901" d="M649.514,91.655c0,5.12,4.589,6.231,8.6,7.39,4.347,1.256,5.458,1.594,5.458,2.946,0,1.884-1.932,2.318-3.236,2.318-1.449,0-3.14-.338-3.719-1.835a4.415,4.415,0,0,1-.29-1.691H648.5c.048,8.114,8.259,9.177,11.157,9.177,5.651,0,11.737-2.125,11.737-8.791,0-4.685-3.574-6.327-7.148-7.342s-7.2-1.4-7.342-3.188c0-1.449,1.739-1.691,2.8-1.691a4.29,4.29,0,0,1,2.318.628,1.959,1.959,0,0,1,.918,2.029h7.39c-.193-6.182-5.072-8.308-10.578-8.308-5.216-.048-10.24,2.463-10.24,8.356" transform="translate(-648.5 -83.299)"/>
    </clipPath>
    <linearGradient id="linear-gradient" x1="0.5" y1="1" x2="0.5" gradientUnits="objectBoundingBox">
      <stop offset="0.006" stop-color="#b4ca1d"/>
      <stop offset="0.192" stop-color="#fcbc00"/>
      <stop offset="0.396" stop-color="#ec733e"/>
      <stop offset="0.6" stop-color="#e30250"/>
      <stop offset="0.797" stop-color="#803772"/>
      <stop offset="1" stop-color="#00489a"/>
    </linearGradient>
  </defs>
  <g id="grupo_mvs" transform="translate(-9220 -4395)">
    <g id="Grupo_4666" data-name="Grupo 4666" transform="translate(9470.098 4431.708)">
      <path id="Trazado_34896" data-name="Trazado 34896" d="M537.8,84.4h11.157l3.574,14.973h.1L556.251,84.4H567.36v25.454h-7.39V93.529h-.048l-4.444,16.325h-5.8l-4.4-16.325h-.1v16.325H537.8Z" transform="translate(-537.8 -84.4)" fill="#fff"/>
      <g id="Grupo_4665" data-name="Grupo 4665" transform="translate(0 0)" clip-path="url(#clip-path)">
        <rect id="Rectángulo_2711" data-name="Rectángulo 2711" width="29.56" height="25.454" fill="#fff"/>
      </g>
    </g>
    <g id="Grupo_4668" data-name="Grupo 4668" transform="translate(9500.624 4431.708)">
      <path id="Trazado_34898" data-name="Trazado 34898" d="M617.277,109.854h-8.742L601,84.4h7.873l4.154,15.456h.1L617.181,84.4H625.2Z" transform="translate(-601 -84.4)" fill="#fff"/>
      <g id="Grupo_4667" data-name="Grupo 4667" transform="translate(0 0)" clip-path="url(#clip-path-2)">
        <rect id="Rectángulo_2712" data-name="Rectángulo 2712" width="24.198" height="25.454" fill="#fff"/>
      </g>
    </g>
    <g id="Grupo_4670" data-name="Grupo 4670" transform="translate(9523.566 4431.176)">
      <path id="Trazado_34900" data-name="Trazado 34900" d="M649.514,91.655c0,5.12,4.589,6.231,8.6,7.39,4.347,1.256,5.458,1.594,5.458,2.946,0,1.884-1.932,2.318-3.236,2.318-1.449,0-3.14-.338-3.719-1.835a4.415,4.415,0,0,1-.29-1.691H648.5c.048,8.114,8.259,9.177,11.157,9.177,5.651,0,11.737-2.125,11.737-8.791,0-4.685-3.574-6.327-7.148-7.342s-7.2-1.4-7.342-3.188c0-1.449,1.739-1.691,2.8-1.691a4.29,4.29,0,0,1,2.318.628,1.959,1.959,0,0,1,.918,2.029h7.39c-.193-6.182-5.072-8.308-10.578-8.308-5.216-.048-10.24,2.463-10.24,8.356" transform="translate(-648.5 -83.299)" fill="#fff"/>
      <g id="Grupo_4669" data-name="Grupo 4669" transform="translate(0 0)" clip-path="url(#clip-path-3)">
        <rect id="Rectángulo_2713" data-name="Rectángulo 2713" width="22.846" height="26.662" transform="translate(0.048 -0.048)" fill="#fff"/>
      </g>
    </g>
    <g id="Grupo_4671" data-name="Grupo 4671" transform="translate(9469.664 4409.635)">
      <path id="Trazado_34902" data-name="Trazado 34902" d="M545.4,52.417a4.6,4.6,0,0,1-1.932.386,7.171,7.171,0,0,1-2.753-.531,5.876,5.876,0,0,1-2.077-1.5,6.014,6.014,0,0,1-1.3-2.222A8.438,8.438,0,0,1,536.9,45.8a8.735,8.735,0,0,1,.435-2.8,6.639,6.639,0,0,1,1.3-2.27,5.876,5.876,0,0,1,2.077-1.5,6.371,6.371,0,0,1,2.753-.531,7.354,7.354,0,0,1,2.029.29,6.007,6.007,0,0,1,1.739.918,4.873,4.873,0,0,1,1.3,1.5,5.272,5.272,0,0,1,.628,2.029h-2.8a2.967,2.967,0,0,0-1.014-1.691,2.876,2.876,0,0,0-1.835-.58,3.64,3.64,0,0,0-1.69.386,2.815,2.815,0,0,0-1.111,1.014,4.661,4.661,0,0,0-.628,1.5,6.477,6.477,0,0,0-.193,1.691,6.114,6.114,0,0,0,.193,1.642,4.88,4.88,0,0,0,.628,1.449,3.183,3.183,0,0,0,1.111,1.014,3.64,3.64,0,0,0,1.69.386,3.286,3.286,0,0,0,2.27-.724,3.241,3.241,0,0,0,.918-2.174H543.71V45.124h5.651v7.245h-1.884l-.29-1.546A3.859,3.859,0,0,1,545.4,52.417Z" transform="translate(-536.9 -38.7)" fill="#fff"/>
      <path id="Trazado_34903" data-name="Trazado 34903" d="M569.16,46.89v1.787h.048a2.991,2.991,0,0,1,.531-.821,3.25,3.25,0,0,1,.725-.676,3.653,3.653,0,0,1,.869-.435,3.114,3.114,0,0,1,.966-.145,2.424,2.424,0,0,1,.58.1v2.512a1.337,1.337,0,0,0-.435-.048c-.193,0-.338-.048-.531-.048a3.23,3.23,0,0,0-1.256.242,1.887,1.887,0,0,0-.821.676A3.486,3.486,0,0,0,569.4,51a4.865,4.865,0,0,0-.145,1.208v4.4H566.6V46.89Z" transform="translate(-552.255 -42.784)" fill="#fff"/>
      <path id="Trazado_34904" data-name="Trazado 34904" d="M588.021,56.908V55.556h-.048a2.843,2.843,0,0,1-1.3,1.208,4.077,4.077,0,0,1-1.642.386,4.343,4.343,0,0,1-1.739-.29,2.268,2.268,0,0,1-1.063-.821,4.315,4.315,0,0,1-.58-1.256,8.656,8.656,0,0,1-.145-1.642V47.2h2.657v5.506a3.383,3.383,0,0,0,.386,1.787,1.451,1.451,0,0,0,1.352.58,1.882,1.882,0,0,0,1.594-.628,3.544,3.544,0,0,0,.483-2.125V47.2h2.656v9.757h-2.608Z" transform="translate(-559.958 -43.094)" fill="#fff"/>
      <path id="Trazado_34905" data-name="Trazado 34905" d="M606.56,46.941V48.2h.048a2.893,2.893,0,0,1,1.256-1.159,3.707,3.707,0,0,1,1.642-.338,4.138,4.138,0,0,1,1.98.435,3.932,3.932,0,0,1,1.352,1.159,4.771,4.771,0,0,1,.821,1.642,6.75,6.75,0,0,1,.242,1.98,7.728,7.728,0,0,1-.242,1.884,4.542,4.542,0,0,1-.821,1.594,3.8,3.8,0,0,1-1.352,1.111,3.876,3.876,0,0,1-1.884.435,3.736,3.736,0,0,1-1.642-.386,3.363,3.363,0,0,1-1.256-1.063h-.048v4.589H604V46.941Zm3.478,7.728a2.425,2.425,0,0,0,.724-.676,3.373,3.373,0,0,0,.386-.966,4.7,4.7,0,0,0,.1-1.159,4.763,4.763,0,0,0-.145-1.159,3.17,3.17,0,0,0-.386-1.014,2.587,2.587,0,0,0-.725-.725,1.947,1.947,0,0,0-1.062-.29,2,2,0,0,0-1.111.29,2.589,2.589,0,0,0-.724.725,3.168,3.168,0,0,0-.386,1.014,4.7,4.7,0,0,0-.1,1.159,4.769,4.769,0,0,0,.145,1.159,2.53,2.53,0,0,0,.386.966,2.423,2.423,0,0,0,.725.676,2,2,0,0,0,1.111.241A2.3,2.3,0,0,0,610.038,54.67Z" transform="translate(-571.591 -42.836)" fill="#fff"/>
      <path id="Trazado_34906" data-name="Trazado 34906" d="M627.238,49.643A5.209,5.209,0,0,1,628.252,48a4.508,4.508,0,0,1,1.594-1.014,5.774,5.774,0,0,1,4.154,0A4.508,4.508,0,0,1,635.594,48a4.312,4.312,0,0,1,1.014,1.642,6.849,6.849,0,0,1,0,4.25A4.354,4.354,0,0,1,634,56.5a6.548,6.548,0,0,1-4.154,0,4.354,4.354,0,0,1-2.608-2.608,6.848,6.848,0,0,1,0-4.25Zm2.463,3.236a3.17,3.17,0,0,0,.386,1.014,2.587,2.587,0,0,0,.725.725,1.994,1.994,0,0,0,1.111.242,2.918,2.918,0,0,0,1.159-.242,2.586,2.586,0,0,0,.725-.725,3.168,3.168,0,0,0,.386-1.014,4.7,4.7,0,0,0,.1-1.159,9.372,9.372,0,0,0-.1-1.159,3.171,3.171,0,0,0-.386-1.014,2.585,2.585,0,0,0-.725-.725,2.06,2.06,0,0,0-1.159-.29,2,2,0,0,0-1.111.29,2.586,2.586,0,0,0-.725.725,3.168,3.168,0,0,0-.386,1.014,4.7,4.7,0,0,0-.1,1.159A2.977,2.977,0,0,0,629.7,52.879Z" transform="translate(-583.43 -42.784)" fill="#fff"/>
    </g>
    <text id="UNA_EMPRESA_DE" data-name="UNA EMPRESA DE" transform="translate(9220 4432.966)" fill="#fff" font-size="21" font-family="Helvetica"><tspan x="0" y="0">UNA EMPRESA DE</tspan></text>
    <path id="Trazado_34943" data-name="Trazado 34943" d="M11.559,64.819H0L37.922,0H49.77Z" transform="translate(9424.951 4395)" fill="url(#linear-gradient)"/>
  </g>
</svg>
