<svg xmlns="http://www.w3.org/2000/svg" xmlns:xlink="http://www.w3.org/1999/xlink" width="193.813" height="40.273" viewBox="0 0 193.813 40.273">
  <defs>
    <clipPath id="clip-path">
      <path id="Trazado_21145" data-name="Trazado 21145" d="M7.151,40.273H0L23.46,0h7.328Z" fill="#14022e" stroke="#dcdff8" stroke-width="1"/>
    </clipPath>
  </defs>
  <g id="Grupo_4507" data-name="Grupo 4507" transform="translate(-1700.188 -5710)">
    <text id="Una_empresa_de_Grupo_MVS" data-name="Una empresa de
Grupo MVS" transform="translate(1797.188 5726)" fill="#14022e" font-size="13" font-family="Helvetica"><tspan x="-96" y="0">Una empresa de</tspan><tspan font-family="Helvetica-Bold, Helvetica" font-weight="700"><tspan x="-70" y="15">Grupo MVS</tspan></tspan></text>
    <g id="Grupo_3777" data-name="Grupo 3777" transform="translate(1819.352 5710)">
      <g id="Grupo_3757" data-name="Grupo 3757" transform="translate(0 0)" clip-path="url(#clip-path)">
        <path id="Trazado_21169" data-name="Trazado 21169" d="M0,0H30.788V40.273H0Z" fill="#14022e" stroke="#707070" stroke-width="1"/>
      </g>
      <path id="Trazado_21146" data-name="Trazado 21146" d="M93.748,76.043h6.9l2.248,9.3h.044l2.249-9.3h6.9V91.859h-4.586V81.713h-.043l-2.735,10.146h-3.616L98.379,81.713h-.044V91.859H93.748Z" transform="translate(-66.514 -51.959)" fill="#14022e"/>
      <path id="Trazado_21148" data-name="Trazado 21148" d="M167.016,91.859h-5.425L156.9,76.043h4.895l2.578,9.59h.046l2.535-9.59h4.983Z" transform="translate(-110.72 -51.959)" fill="#14022e"/>
      <path id="Trazado_21150" data-name="Trazado 21150" d="M205.093,80.017c0,3.188,2.843,3.875,5.335,4.582,2.709.776,3.4,1,3.4,1.817,0,1.176-1.214,1.442-2.007,1.442a2.231,2.231,0,0,1-2.314-1.152,2.946,2.946,0,0,1-.177-1.04h-4.851c.043,5.048,5.138,5.69,6.923,5.69,3.507,0,7.277-1.326,7.277-5.448,0-2.9-2.205-3.943-4.432-4.561s-4.475-.864-4.564-1.993c0-.888,1.081-1.063,1.742-1.063a2.5,2.5,0,0,1,1.431.4,1.218,1.218,0,0,1,.574,1.263h4.586c-.133-3.852-3.151-5.16-6.571-5.16-3.24,0-6.349,1.573-6.349,5.227" transform="translate(-144.025 -51.082)" fill="#14022e"/>
      <path id="Trazado_21152" data-name="Trazado 21152" d="M97.984,38.966a3.082,3.082,0,0,1-1.2.251,4.28,4.28,0,0,1-1.725-.333,3.7,3.7,0,0,1-1.292-.918,4.071,4.071,0,0,1-.807-1.374,5.049,5.049,0,0,1-.28-1.7,5.22,5.22,0,0,1,.28-1.736,4.18,4.18,0,0,1,.807-1.4,3.691,3.691,0,0,1,1.292-.935,4.215,4.215,0,0,1,1.725-.339,4.06,4.06,0,0,1,1.245.193,3.528,3.528,0,0,1,1.087.567A3.07,3.07,0,0,1,100.3,33.43H98.545a1.76,1.76,0,0,0-.631-1.053,1.837,1.837,0,0,0-1.134-.351,2.143,2.143,0,0,0-1.052.24,1.984,1.984,0,0,0-.7.643,2.817,2.817,0,0,0-.392.918,4.568,4.568,0,0,0-.123,1.064,4.249,4.249,0,0,0,.123,1.023,2.761,2.761,0,0,0,.392.895,2,2,0,0,0,.7.637,2.137,2.137,0,0,0,1.052.24,1.791,1.791,0,0,0,1.988-1.8H96.919V34.517h3.508V39.03h-1.17l-.187-.947A2.75,2.75,0,0,1,97.984,38.966Z" transform="translate(-65.763 -20.066)" fill="#14022e"/>
      <path id="Trazado_21153" data-name="Trazado 21153" d="M124.073,38.442v1.122h.023a2.049,2.049,0,0,1,.316-.52,2.075,2.075,0,0,1,.456-.409,2.242,2.242,0,0,1,.55-.263,1.982,1.982,0,0,1,.608-.094,1.286,1.286,0,0,1,.363.058v1.543c-.078-.016-.172-.029-.281-.041a3.057,3.057,0,0,0-.316-.017,1.767,1.767,0,0,0-.772.152,1.334,1.334,0,0,0-.509.415,1.671,1.671,0,0,0-.275.614,3.359,3.359,0,0,0-.081.76v2.724h-1.661V38.442Z" transform="translate(-86.638 -25.523)" fill="#14022e"/>
      <path id="Trazado_21154" data-name="Trazado 21154" d="M141.361,44.869v-.842h-.035a1.867,1.867,0,0,1-.818.76,2.419,2.419,0,0,1-1.03.234,2.905,2.905,0,0,1-1.093-.175,1.573,1.573,0,0,1-.672-.5,1.945,1.945,0,0,1-.345-.784,4.892,4.892,0,0,1-.1-1.023V38.824h1.66v3.415a2.12,2.12,0,0,0,.234,1.117.906.906,0,0,0,.83.368,1.152,1.152,0,0,0,.982-.4,2.245,2.245,0,0,0,.3-1.327V38.824h1.66v6.045Z" transform="translate(-96.979 -25.905)" fill="#14022e"/>
      <path id="Trazado_21155" data-name="Trazado 21155" d="M161.571,38.442v.772h.023a1.824,1.824,0,0,1,.772-.713,2.366,2.366,0,0,1,1.029-.222,2.616,2.616,0,0,1,1.228.269,2.537,2.537,0,0,1,.854.713,3.019,3.019,0,0,1,.5,1.035,4.609,4.609,0,0,1,.164,1.234,4.166,4.166,0,0,1-.164,1.169,2.978,2.978,0,0,1-.5.994,2.459,2.459,0,0,1-.83.69,2.5,2.5,0,0,1-1.164.257,2.349,2.349,0,0,1-1.034-.228,1.954,1.954,0,0,1-.778-.672h-.023V46.6h-1.661V38.442Zm2.157,4.794a1.327,1.327,0,0,0,.445-.427,1.758,1.758,0,0,0,.24-.614,3.6,3.6,0,0,0,.07-.713,3.38,3.38,0,0,0-.076-.714,1.894,1.894,0,0,0-.252-.625,1.4,1.4,0,0,0-.45-.444,1.257,1.257,0,0,0-.673-.169,1.277,1.277,0,0,0-.684.169,1.359,1.359,0,0,0-.445.439,1.807,1.807,0,0,0-.24.62,3.663,3.663,0,0,0-.07.725,3.375,3.375,0,0,0,.076.713,1.857,1.857,0,0,0,.246.614,1.309,1.309,0,0,0,.45.427,1.5,1.5,0,0,0,1.362,0Z" transform="translate(-112.888 -25.523)" fill="#14022e"/>
      <path id="Trazado_21156" data-name="Trazado 21156" d="M183.018,40.156a2.763,2.763,0,0,1,1.614-1.649,3.451,3.451,0,0,1,1.286-.228,3.5,3.5,0,0,1,1.292.228,2.752,2.752,0,0,1,1.62,1.649,3.717,3.717,0,0,1,.222,1.315,3.667,3.667,0,0,1-.222,1.31,2.838,2.838,0,0,1-.631,1,2.749,2.749,0,0,1-.988.637,3.582,3.582,0,0,1-1.292.222,3.532,3.532,0,0,1-1.286-.222,2.756,2.756,0,0,1-.982-.637,2.837,2.837,0,0,1-.631-1,3.654,3.654,0,0,1-.222-1.31A3.7,3.7,0,0,1,183.018,40.156Zm1.508,2.023a1.9,1.9,0,0,0,.24.62,1.272,1.272,0,0,0,.451.438,1.37,1.37,0,0,0,.7.164,1.4,1.4,0,0,0,.707-.164,1.256,1.256,0,0,0,.456-.438,1.876,1.876,0,0,0,.24-.62,3.513,3.513,0,0,0,.07-.707,3.6,3.6,0,0,0-.07-.713,1.813,1.813,0,0,0-.24-.62,1.326,1.326,0,0,0-.456-.439,1.368,1.368,0,0,0-.707-.169,1.278,1.278,0,0,0-1.152.608,1.832,1.832,0,0,0-.24.62,3.649,3.649,0,0,0-.07.713A3.558,3.558,0,0,0,184.526,42.178Z" transform="translate(-128.85 -25.523)" fill="#14022e"/>
    </g>
  </g>
</svg>
