<?xml version="1.0" encoding="UTF-8"?>
<svg id="Capa_1" data-name="Capa 1" xmlns="http://www.w3.org/2000/svg" version="1.1" viewBox="0 0 794 266.7">
  <defs>
    <style>
      .cls-1 {
        fill: #31036e;
      }

      .cls-1, .cls-2 {
        stroke-width: 0px;
      }

      .cls-2 {
        fill: #0089c6;
      }
    </style>
  </defs>
  <g id="Grupo_4696" data-name="Grupo 4696">
    <g id="Grupo_4693" data-name="Grupo 4693">
      <path id="Trazado_34952" data-name="Trazado 34952" class="cls-2" d="M142.6,254.8c-3.6-.8-6.9-2.5-9.6-4.9l2.7-3c2.2,2,4.9,3.4,7.7,4,2.1.5,4.3.3,6.2-.5,1.9-.8,3.2-2.6,3.2-4.7,0-3.4-3.6-4.6-7.1-5.3-.3,0-5.4-1.1-7.4-2.3-2.6-1.4-4.2-4.1-4.2-7,0-1.7.5-3.3,1.5-4.7,1-1.3,2.3-2.3,3.8-3,2.4-1.1,5.1-1.4,7.6-.9,3.2.6,6.1,2,8.5,4.1l-2.6,3.1c-4.7-3.8-9.2-3.9-11.9-2.7-1.7.7-2.8,2.3-2.9,4.1,0,3.1,2.6,4.2,6.8,5.2,1.7.4,5.3,1,7.4,2.2,2.8,1.4,4.5,4.2,4.5,7.3,0,1.8-.5,3.6-1.5,5.1-1.1,1.4-2.4,2.5-4,3.2-1.7.8-3.6,1.2-5.5,1.1-1.1,0-2.2-.1-3.3-.4Z"/>
      <path id="Trazado_34953" data-name="Trazado 34953" class="cls-2" d="M190.1,244.5c0,6-4.9,10.8-10.8,10.8-6,0-10.9-4.7-10.9-10.7,0-6,4.7-10.9,10.7-10.9,0,0,.1,0,.2,0,6,0,10.8,4.8,10.8,10.8,0,0,0,0,0,0h0ZM186.2,244.5c0-3.8-3.1-7-7-7s-7,3.1-7,7c0,3.8,3.1,7,7,7h0c3.8,0,6.9-3.1,7-6.9,0,0,0,0,0,0h0Z"/>
      <path id="Trazado_34954" data-name="Trazado 34954" class="cls-2" d="M202.3,254.9v-33.2h3.9v33.2h-3.9Z"/>
      <path id="Trazado_34955" data-name="Trazado 34955" class="cls-2" d="M219.9,246v-11.8h3.9v11.8c.1,3.1,2.8,5.6,5.9,5.5,3-.1,5.4-2.5,5.5-5.5v-11.8h3.9v11.8c0,2.5-1,4.9-2.8,6.6-3.8,3.6-9.7,3.6-13.5,0-1.8-1.7-2.8-4.1-2.8-6.6Z"/>
      <path id="Trazado_34956" data-name="Trazado 34956" class="cls-2" d="M271,250.9c-.4.5-.7.9-1.1,1.3-4.3,4.2-11.1,4.2-15.3,0-4.2-4.3-4.2-11.1,0-15.4,4.3-4.2,11.1-4.2,15.3,0,.4.4.8.8,1.1,1.3l-3.1,2.3c-2.3-3.1-6.7-3.7-9.7-1.4-3.1,2.3-3.7,6.7-1.4,9.7,1.3,1.8,3.4,2.8,5.6,2.8,2.2,0,4.3-1.1,5.6-2.9l3.2,2.3Z"/>
      <path id="Trazado_34957" data-name="Trazado 34957" class="cls-2" d="M283.5,228.3c0-1.4,1.1-2.6,2.6-2.6s2.6,1.1,2.6,2.6-1.1,2.6-2.6,2.6-2.6-1.1-2.6-2.6ZM284.2,234.2h3.9v20.7h-3.9v-20.7Z"/>
      <path id="Trazado_34958" data-name="Trazado 34958" class="cls-2" d="M322.9,244.5c0,6-4.9,10.8-10.8,10.8-6,0-10.9-4.7-10.9-10.7,0-6,4.7-10.9,10.7-10.9,0,0,.1,0,.2,0,6,0,10.8,4.8,10.8,10.8,0,0,0,0,0,0h0ZM319,244.5c0-3.8-3.1-7-7-7s-7,3.1-7,7c0,3.8,3.1,7,7,7h0c3.8,0,6.9-3.1,7-6.9,0,0,0,0,0,0Z"/>
      <path id="Trazado_34959" data-name="Trazado 34959" class="cls-2" d="M354.9,243.8v11.1h-3.9v-11.1c0-3.4-2.7-6.1-6.1-6.1s-6.1,2.7-6.1,6.1v11.1h-3.9v-20.7h3.9v2c1.7-1.4,3.9-2.3,6.1-2.4,2.7,0,5.2,1,7.1,2.9,1.9,1.9,2.9,4.4,2.9,7.1Z"/>
      <path id="Trazado_34960" data-name="Trazado 34960" class="cls-2" d="M386.4,245.5h-16c.5,3.5,3,6.1,6,6.1,1.9,0,3.7-.9,5.1-2.2l3.3,1.9c-.8.9-1.7,1.7-2.8,2.3-1.7.9-3.5,1.5-5.5,1.5-2.7,0-5.2-1.1-7-3.2-1.6-1.8-2.6-4.1-2.8-6.5,0-.3,0-.6,0-.9,0-.8,0-1.6.3-2.4.4-1.9,1.3-3.6,2.6-5,1.8-2,4.3-3.1,7-3.1,2.7,0,5.2,1.1,7.1,3.1,1.3,1.4,2.2,3.1,2.6,5,.2,1.1.3,2.2.2,3.3ZM382.3,242.2h0c-.8-2.7-3.1-4.5-5.7-4.6-2.7.1-5,1.9-5.7,4.5h0c0,0,11.6,0,11.6,0Z"/>
      <path id="Trazado_34961" data-name="Trazado 34961" class="cls-2" d="M412.4,248.8c0,1.2-.3,2.3-1,3.3-.7,1-1.6,1.8-2.8,2.3-1.2.5-2.4.8-3.7.8-.7,0-1.4,0-2.1-.2-2.3-.4-4.4-1.5-6.2-3l2.4-2.7c1.5,1.5,3.6,2.3,5.7,2.4.8,0,1.6-.2,2.4-.5,1-.4,1.6-1.3,1.6-2.4,0-1.4-1.2-2.3-4-2.8-1.7-.3-3.3-.8-4.8-1.4-1.8-.9-2.9-2.8-2.9-4.8,0-1.1.4-2.2,1-3.2.7-.9,1.6-1.6,2.6-2,1.1-.5,2.3-.8,3.6-.8.5,0,1,0,1.5,0,2,.3,4,1.2,5.6,2.5l-2.3,2.6c-1.3-1.1-2.9-1.7-4.7-1.8-.8,0-1.5.1-2.2.5-.8.4-1.4,1.2-1.5,2.1,0,1.4,1.1,2.1,3.8,2.7,1.6.3,3.2.8,4.8,1.4.9.4,1.6,1,2.2,1.8.6.9,1,2,.9,3.2Z"/>
      <path id="Trazado_34962" data-name="Trazado 34962" class="cls-2" d="M444.6,222.7h4.1v32.2h-4.1v-32.2Z"/>
      <path id="Trazado_34963" data-name="Trazado 34963" class="cls-2" d="M483.2,243.8v11.1h-3.9v-11.1c0-3.4-2.7-6.1-6.1-6.1s-6.1,2.7-6.1,6.1v11.1h-3.9v-20.7h3.9v2c1.7-1.4,3.9-2.3,6.1-2.4,2.7,0,5.2,1,7.1,2.9,1.9,1.9,2.9,4.4,2.9,7.1Z"/>
      <path id="Trazado_34964" data-name="Trazado 34964" class="cls-2" d="M497.3,248v-10.1h-3.1v-3.7h3.1v-8h3.9v8h6.4v3.7h-6.4v10c0,1.7,1.4,3.1,3.1,3.3h3.5l1,3.7h-4.6c-3.8,0-6.9-3-6.9-6.8,0,0,0,0,0,0Z"/>
      <path id="Trazado_34965" data-name="Trazado 34965" class="cls-2" d="M538,245.5h-16c.5,3.5,3,6.1,6,6.1,1.9,0,3.7-.9,5.1-2.2l3.3,1.9c-.8.9-1.7,1.7-2.8,2.3-1.7.9-3.5,1.5-5.5,1.5-2.7,0-5.2-1.1-7-3.2-1.6-1.8-2.6-4.1-2.8-6.5,0-.3,0-.6,0-.9,0-.8,0-1.6.3-2.4.4-1.9,1.3-3.6,2.6-5,1.8-2,4.3-3.1,7-3.1,2.7,0,5.2,1.1,7.1,3.1,1.3,1.4,2.2,3.1,2.6,5,.2,1.1.3,2.2.2,3.3ZM533.9,242.2h0c-.8-2.7-3.1-4.5-5.7-4.6-2.7.1-5,1.9-5.7,4.5h0c0,0,11.6,0,11.6,0Z"/>
      <path id="Trazado_34966" data-name="Trazado 34966" class="cls-2" d="M570.7,234.2v21.7c0,6-4.9,10.8-10.8,10.8-2.1,0-4.1-.5-5.8-1.6-.7-.4-1.3-.9-1.9-1.5l2.9-2.6c1.4,1.1,3.1,1.7,4.8,1.9,3.9,0,7-3.2,7-7.1v-3.4c-1.9,1.7-4.4,2.7-7,2.8-6,0-10.8-4.8-10.8-10.8s4.8-10.8,10.8-10.8c2.6.1,5,1.1,7,2.8v-2.4h3.9ZM566.8,244.5c0-3.8-3.2-6.9-7-6.9-3.8,0-6.9,3.2-6.9,7,0,3.8,3.1,6.9,7,6.9,3.9,0,7-3.2,7-7Z"/>
      <path id="Trazado_34967" data-name="Trazado 34967" class="cls-2" d="M588.1,236.3c1.3-1.4,5.2-2.6,7.5-2.6l-.9,3.9c-3.5-.1-6.5,2.7-6.6,6.2,0,0,0,0,0,0v11h-3.9v-20.7h3.9v2.1Z"/>
      <path id="Trazado_34968" data-name="Trazado 34968" class="cls-2" d="M622.9,234.2h3.9v20.7h-3.9v-2.4c-1.9,1.7-4.4,2.7-7,2.8-6,0-10.8-4.8-10.8-10.8s4.8-10.8,10.8-10.8c2.6.1,5,1.1,7,2.8v-2.4ZM622.9,244.5c0-3.8-3.2-6.9-7-6.9-3.8,0-6.9,3.2-6.9,7,0,3.8,3.1,6.9,7,6.9,3.9,0,7-3.2,7-7Z"/>
      <path id="Trazado_34969" data-name="Trazado 34969" class="cls-2" d="M640.7,254.9v-33.2h3.9v33.2h-3.9Z"/>
      <path id="Trazado_34970" data-name="Trazado 34970" class="cls-2" d="M676.8,245.5h-16c.5,3.5,3,6.1,6,6.1,1.9,0,3.7-.9,5.1-2.2l3.3,1.9c-.8.9-1.7,1.7-2.8,2.3-1.7.9-3.5,1.5-5.5,1.5-2.7,0-5.2-1.1-7-3.2-1.6-1.8-2.6-4.1-2.8-6.5,0-.3,0-.6,0-.9,0-.8,0-1.6.3-2.4.4-1.9,1.3-3.6,2.6-5,3.5-3.9,9.5-4.2,13.4-.7.2.2.5.4.7.7,1.3,1.4,2.2,3.1,2.6,5,.2,1.1.3,2.2.2,3.3ZM672.8,242.2h0c-.8-2.7-3.1-4.5-5.7-4.6-2.7.1-5,1.9-5.7,4.5h0c0,0,11.6,0,11.6,0Z"/>
      <path id="Trazado_34971" data-name="Trazado 34971" class="cls-2" d="M702.8,248.8c0,1.2-.3,2.3-1,3.3-.7,1-1.6,1.8-2.8,2.3-1.2.5-2.4.8-3.7.8-.7,0-1.4,0-2.1-.2-2.3-.4-4.4-1.5-6.2-3l2.4-2.7c1.5,1.5,3.6,2.3,5.7,2.4.8,0,1.6-.2,2.4-.5,1-.4,1.6-1.3,1.6-2.4,0-1.4-1.2-2.3-4-2.8-1.7-.3-3.3-.8-4.8-1.4-1.8-.9-2.9-2.8-2.9-4.8,0-1.1.4-2.2,1-3.2.7-.9,1.6-1.6,2.6-2,1.1-.5,2.3-.8,3.6-.8.5,0,1,0,1.5,0,2,.3,4,1.2,5.6,2.5l-2.3,2.6c-1.3-1.1-2.9-1.7-4.7-1.8-.8,0-1.5.1-2.2.5-.8.4-1.4,1.2-1.5,2.1,0,1.4,1.1,2.1,3.8,2.7,1.6.3,3.2.8,4.8,1.4.9.4,1.6,1,2.2,1.8.6.9,1,2,.9,3.2Z"/>
    </g>
    <g id="Grupo_4694" data-name="Grupo 4694">
      <path id="Trazado_34972" data-name="Trazado 34972" class="cls-1" d="M412.5,78c-25.3.2-45.8,20.8-45.6,46.2.2,25.3,20.8,45.8,46.2,45.6,25.2-.2,45.6-20.7,45.6-45.9,0-25.4-20.8-46-46.2-45.9M412.5,152.1c-15,0-27.1-12.6-27.1-28.2s12.1-28.2,27.1-28.2,27.1,12.6,27.1,28.2-12.1,28.2-27.1,28.2"/>
      <path id="Trazado_34973" data-name="Trazado 34973" class="cls-1" d="M304.4,153.5l-12.9-12.9c-5,7.1-13.1,11.4-21.8,11.5-15,0-27.1-12.6-27.1-28.2s12.1-28.2,27.1-28.2c8.4,0,16.4,4.1,21.4,10.9l13-13.3c-16.9-18.9-45.9-20.4-64.8-3.5-18.9,16.9-20.4,45.9-3.5,64.8,16.9,18.9,45.9,20.4,64.8,3.5,1.5-1.4,3-2.9,4.3-4.4h-.5"/>
      <path id="Trazado_34974" data-name="Trazado 34974" class="cls-1" d="M363.7,97.5v-17.4h-23.5v-23.8h-20.2v23.8h-10.7v17.4h10.7v50.5s-.1,12.7,9.7,17.1,23.8,5.3,34-.6v-15.8s-8.9,3.8-15.4,2.2-8.1-6.3-8.1-14.8v-38.7h23.5Z"/>
      <path id="Trazado_34975" data-name="Trazado 34975" class="cls-1" d="M518.7,78c-12.4,0-23.5,6.4-30.9,16.4v-14.7h-19.6v114.3h19.6v-40.6c7.4,10,18.5,16.4,30.9,16.4,22.3,0,40.4-20.6,40.4-45.9s-18.1-45.9-40.4-45.9M513.1,152.1c-14,0-25.4-12.6-25.4-28.2s11.4-28.2,25.4-28.2,25.4,12.6,25.4,28.2-11.4,28.2-25.4,28.2"/>
      <path id="Trazado_34976" data-name="Trazado 34976" class="cls-1" d="M627,154.4c-5.8,9.6-16.2,15.4-27.4,15.3-17.2,0-31.1-13.9-31.1-31.1v-58.3h19.5v52c0,10.8,8.8,19.6,19.6,19.6s19.6-8.8,19.6-19.6h0v-52.1h20.1v87.5h-20.4v-13.5Z"/>
      <path id="Trazado_34977" data-name="Trazado 34977" class="cls-1" d="M724.6,136.7c-1.5-5.2-4.5-14-28-21,0,0-9-2.9-13.5-5.5-3.3-1.9-5.3-5.2-4.6-8.8,1.7-6.3,9.5-7.2,9.5-7.2,7.1-.6,17.7,1.7,27.3,8.4l7.7-14.5s-15.5-9.1-33.6-9.1-29.2,14.4-29.1,24.4,2,21.8,23.5,27,25.5,10.9,22.3,17.1-9.4,5.9-15,5.9-15.3-2.5-26.7-10.3l-8.7,13.2s13.3,13.5,42,12.7,28.3-26.9,26.8-32.1"/>
      <path id="Trazado_34978" data-name="Trazado 34978" class="cls-1" d="M239.7,185c-33.6,13.2-71.8,6.3-98.7-17.7,7.6-2.2,14.8-5.7,21.3-10.2,9.7-6.8,17.8-15.7,23.4-26.2,2.7-5,4.8-10.4,6.3-15.9,10.6-39.8-13-80.6-52.8-91.3-39.8-10.6-80.6,13-91.3,52.8-4.9,18.3-2.6,37.7,6.3,54.4,5.5,10.3,13.4,19.2,23,25.9,6.5,4.5,13.6,8,21.2,10.3C71.6,191.2,33.6,198.2,0,185.2l16.9-17c5.7,1.4,11.6,2.1,17.6,2.1,7.3,0,14.6-1.1,21.6-3.2C16.6,131.9,13.2,71.3,48.5,31.8,83.8-7.6,144.4-11,183.8,24.3c39.5,35.3,42.9,95.9,7.6,135.4-2.4,2.7-5,5.3-7.7,7.7,12.8,3.8,26.3,4,39.2.8l16.9,16.9Z"/>
    </g>
    <g id="Grupo_4695" data-name="Grupo 4695">
      <path id="Trazado_34979" data-name="Trazado 34979" class="cls-2" d="M742.3,40.7c-23-4.2-43,5.7-58.2,21.6h4.4c21.7-17.5,52.8-18.9,70.1,4.7,28.3,39.5,7.8,112.2-36.7,131.2-21.8,9-42.4,3.3-54.7-14.4l-6.1-3.7c6.4,14.3,17.2,26.2,33.2,32.2,44.2,15,85.2-25.4,95.7-65.8,11.9-40.1-2.1-95.7-47.7-105.8"/>
      <path id="Trazado_34980" data-name="Trazado 34980" class="cls-2" d="M661.1,180l14.2,30-.9-13.9,17.4-1.7-30.7-14.3Z"/>
    </g>
  </g>
</svg>