<svg xmlns="http://www.w3.org/2000/svg" width="366.341" height="123.056" viewBox="0 0 366.341 123.056">
  <g id="Grupo_4765" data-name="Grupo 4765" transform="translate(-130.119 -453.893)">
    <g id="Grupo_4693" data-name="Grupo 4693" transform="translate(191.472 556.177)">
      <path id="Trazado_34952" data-name="Trazado 34952" d="M219.87,611.553a9.822,9.822,0,0,1-4.422-2.252l1.231-1.4a7.954,7.954,0,0,0,3.566,1.857,4.577,4.577,0,0,0,2.878-.229,2.359,2.359,0,0,0,1.48-2.148c0-1.565-1.669-2.128-3.3-2.441a15.322,15.322,0,0,1-3.42-1.043,3.668,3.668,0,0,1-1.919-3.253,3.814,3.814,0,0,1,.688-2.149,4.663,4.663,0,0,1,1.752-1.4,5.9,5.9,0,0,1,3.525-.438,8.5,8.5,0,0,1,3.942,1.877l-1.189,1.439c-2.148-1.773-4.234-1.815-5.485-1.23a2.144,2.144,0,0,0-1.355,1.877c0,1.419,1.209,1.961,3.128,2.378a13.891,13.891,0,0,1,3.42,1.022,3.7,3.7,0,0,1,2.065,3.358,4,4,0,0,1-.71,2.336,4.866,4.866,0,0,1-1.856,1.48,5.425,5.425,0,0,1-2.524.522A7.3,7.3,0,0,1,219.87,611.553Z" transform="translate(-215.448 -596.266)" fill="#fff"/>
      <path id="Trazado_34953" data-name="Trazado 34953" d="M248.166,608.847a5.019,5.019,0,0,1-5.005,5.006,5,5,0,1,1,0-9.99,4.983,4.983,0,0,1,5.005,4.984Zm-1.794,0a3.212,3.212,0,1,0-3.211,3.212A3.195,3.195,0,0,0,246.372,608.847Z" transform="translate(-221.828 -598.315)" fill="#fff"/>
      <path id="Trazado_34954" data-name="Trazado 34954" d="M259.9,611.456V596.147H261.7v15.309Z" transform="translate(-227.939 -596.147)" fill="#fff"/>
      <path id="Trazado_34955" data-name="Trazado 34955" d="M271.243,609.617v-5.464h1.794v5.464a2.629,2.629,0,0,0,5.256,0v-5.464h1.793v5.464a4.264,4.264,0,0,1-1.314,3.067,4.566,4.566,0,0,1-6.236,0A4.242,4.242,0,0,1,271.243,609.617Z" transform="translate(-231.125 -598.397)" fill="#fff"/>
      <path id="Trazado_34956" data-name="Trazado 34956" d="M300.479,611.788a7.358,7.358,0,0,1-.521.605,5.063,5.063,0,0,1-7.071,0,5.037,5.037,0,0,1,0-7.092,5.063,5.063,0,0,1,7.071,0,4.366,4.366,0,0,1,.5.584l-1.44,1.064a3.215,3.215,0,1,0-2.586,5.13,3.189,3.189,0,0,0,2.586-1.355Z" transform="translate(-236.797 -598.315)" fill="#fff"/>
      <path id="Trazado_34957" data-name="Trazado 34957" d="M312.045,599.9a1.178,1.178,0,0,1,2.357,0,1.178,1.178,0,1,1-2.357,0Zm.293,2.732h1.793v9.552h-1.793Z" transform="translate(-242.59 -596.872)" fill="#fff"/>
      <path id="Trazado_34958" data-name="Trazado 34958" d="M333.366,608.847a5.019,5.019,0,0,1-5.005,5.006,5,5,0,1,1,0-9.99,4.983,4.983,0,0,1,5.005,4.984Zm-1.793,0a3.212,3.212,0,1,0-3.212,3.212A3.2,3.2,0,0,0,331.573,608.847Z" transform="translate(-245.768 -598.315)" fill="#fff"/>
      <path id="Trazado_34959" data-name="Trazado 34959" d="M354.237,608.5v5.131h-1.793V608.5a2.816,2.816,0,1,0-5.631,0v5.131h-1.794V604.08h1.794V605a4.753,4.753,0,0,1,2.816-1.105,4.588,4.588,0,0,1,3.274,1.334A4.64,4.64,0,0,1,354.237,608.5Z" transform="translate(-251.855 -598.323)" fill="#fff"/>
      <path id="Trazado_34960" data-name="Trazado 34960" d="M374.5,609.343h-7.362v.041a3.031,3.031,0,0,0,2.774,2.795,3.608,3.608,0,0,0,2.335-1l1.5.9a5.661,5.661,0,0,1-1.272,1.064,5.461,5.461,0,0,1-2.524.709,4.274,4.274,0,0,1-3.233-1.46,4.919,4.919,0,0,1-1.294-3,3.076,3.076,0,0,1-.021-.438,5.19,5.19,0,0,1,.125-1.127,5.019,5.019,0,0,1,1.189-2.315,4.361,4.361,0,0,1,3.233-1.439A4.407,4.407,0,0,1,373.2,605.5a4.836,4.836,0,0,1,1.189,2.315A5.713,5.713,0,0,1,374.5,609.343Zm-1.877-1.5-.021-.042a2.891,2.891,0,0,0-2.649-2.065A2.932,2.932,0,0,0,367.3,607.8l-.021.042Z" transform="translate(-257.583 -598.372)" fill="#fff"/>
      <path id="Trazado_34961" data-name="Trazado 34961" d="M391.881,610.832a2.559,2.559,0,0,1-.459,1.5,3.051,3.051,0,0,1-1.272,1.043,4.179,4.179,0,0,1-1.711.354,5.218,5.218,0,0,1-.98-.1,6.288,6.288,0,0,1-2.857-1.376l1.126-1.231a4.075,4.075,0,0,0,2.628,1.127,2.76,2.76,0,0,0,1.106-.229,1.193,1.193,0,0,0,.751-1.085c0-.647-.563-1.043-1.857-1.273a11.144,11.144,0,0,1-2.231-.646,2.466,2.466,0,0,1-1.335-2.232,2.63,2.63,0,0,1,.459-1.46,2.868,2.868,0,0,1,1.189-.917,3.878,3.878,0,0,1,1.647-.355c.229,0,.48.022.71.042a5.5,5.5,0,0,1,2.565,1.148l-1.043,1.209a3.53,3.53,0,0,0-2.148-.834,2.3,2.3,0,0,0-1.022.208,1.143,1.143,0,0,0-.688.959c0,.626.5.96,1.772,1.231a13.1,13.1,0,0,1,2.211.646,2.616,2.616,0,0,1,1,.813A2.516,2.516,0,0,1,391.881,610.832Z" transform="translate(-262.977 -598.339)" fill="#fff"/>
      <path id="Trazado_34962" data-name="Trazado 34962" d="M415.4,596.784h1.877v14.851H415.4Z" transform="translate(-271.631 -596.326)" fill="#fff"/>
      <path id="Trazado_34963" data-name="Trazado 34963" d="M436.567,608.5v5.131h-1.794V608.5a2.816,2.816,0,1,0-5.631,0v5.131h-1.793V604.08h1.793V605a4.756,4.756,0,0,1,2.816-1.105,4.587,4.587,0,0,1,3.274,1.334A4.641,4.641,0,0,1,436.567,608.5Z" transform="translate(-274.988 -598.323)" fill="#fff"/>
      <path id="Trazado_34964" data-name="Trazado 34964" d="M448.631,609.093V604.42h-1.419v-1.71h1.419v-3.691h1.793v3.691h2.942v1.71h-2.942v4.63a1.523,1.523,0,0,0,1.419,1.5h1.606l.459,1.711H451.8A3.156,3.156,0,0,1,448.631,609.093Z" transform="translate(-280.569 -596.954)" fill="#fff"/>
      <path id="Trazado_34965" data-name="Trazado 34965" d="M471.762,609.343H464.4v.041a3.032,3.032,0,0,0,2.774,2.795,3.612,3.612,0,0,0,2.336-1l1.5.9a5.66,5.66,0,0,1-1.272,1.064,5.459,5.459,0,0,1-2.524.709,4.274,4.274,0,0,1-3.233-1.46,4.923,4.923,0,0,1-1.294-3,3.076,3.076,0,0,1-.021-.438,5.231,5.231,0,0,1,.125-1.127,5.026,5.026,0,0,1,1.189-2.315,4.361,4.361,0,0,1,3.233-1.439,4.406,4.406,0,0,1,3.254,1.439,4.836,4.836,0,0,1,1.189,2.315A5.682,5.682,0,0,1,471.762,609.343Zm-1.877-1.5-.021-.042a2.891,2.891,0,0,0-2.649-2.065,2.932,2.932,0,0,0-2.649,2.065l-.021.042Z" transform="translate(-284.912 -598.372)" fill="#fff"/>
      <path id="Trazado_34966" data-name="Trazado 34966" d="M492.371,604.072v10.01a5.019,5.019,0,0,1-5.005,5.006,5.248,5.248,0,0,1-2.691-.729,5.707,5.707,0,0,1-.9-.689l1.355-1.189a4.149,4.149,0,0,0,2.232.856,3.25,3.25,0,0,0,3.212-3.254v-1.563a5.135,5.135,0,0,1-3.212,1.314,4.985,4.985,0,1,1,0-9.969,5.135,5.135,0,0,1,3.212,1.314v-1.105Zm-1.793,4.776a3.212,3.212,0,1,0-3.212,3.233A3.231,3.231,0,0,0,490.578,608.847Z" transform="translate(-290.445 -598.315)" fill="#fff"/>
      <path id="Trazado_34967" data-name="Trazado 34967" d="M506.774,605.052a5.826,5.826,0,0,1,3.483-1.189l-.438,1.793a2.963,2.963,0,0,0-3.045,2.878v5.089H504.98v-9.552h1.794Z" transform="translate(-296.801 -598.315)" fill="#fff"/>
      <path id="Trazado_34968" data-name="Trazado 34968" d="M526.625,604.072h1.794v9.552h-1.794v-1.105a5.135,5.135,0,0,1-3.212,1.314,4.985,4.985,0,1,1,0-9.969,5.135,5.135,0,0,1,3.212,1.314Zm0,4.776a3.212,3.212,0,1,0-3.212,3.233A3.231,3.231,0,0,0,526.625,608.847Z" transform="translate(-300.573 -598.315)" fill="#fff"/>
      <path id="Trazado_34969" data-name="Trazado 34969" d="M541.23,611.456V596.147h1.794v15.309Z" transform="translate(-306.986 -596.147)" fill="#fff"/>
      <path id="Trazado_34970" data-name="Trazado 34970" d="M560.85,609.343h-7.362v.041a3.031,3.031,0,0,0,2.773,2.795,3.61,3.61,0,0,0,2.336-1l1.5.9a5.684,5.684,0,0,1-1.273,1.064,5.456,5.456,0,0,1-2.523.709,4.277,4.277,0,0,1-3.234-1.46,4.922,4.922,0,0,1-1.293-3,3.076,3.076,0,0,1-.021-.438,5.19,5.19,0,0,1,.125-1.127,5.025,5.025,0,0,1,1.188-2.315,4.375,4.375,0,0,1,6.486,0,4.838,4.838,0,0,1,1.189,2.315A5.752,5.752,0,0,1,560.85,609.343Zm-1.877-1.5-.021-.042a2.89,2.89,0,0,0-2.648-2.065,2.933,2.933,0,0,0-2.65,2.065l-.02.042Z" transform="translate(-309.944 -598.372)" fill="#fff"/>
      <path id="Trazado_34971" data-name="Trazado 34971" d="M578.234,610.832a2.558,2.558,0,0,1-.459,1.5,3.049,3.049,0,0,1-1.273,1.043,4.179,4.179,0,0,1-1.71.354,5.216,5.216,0,0,1-.98-.1,6.286,6.286,0,0,1-2.857-1.376l1.126-1.231a4.075,4.075,0,0,0,2.628,1.127,2.757,2.757,0,0,0,1.105-.229,1.192,1.192,0,0,0,.751-1.085c0-.647-.563-1.043-1.856-1.273a11.148,11.148,0,0,1-2.232-.646,2.467,2.467,0,0,1-1.334-2.232,2.63,2.63,0,0,1,.459-1.46,2.87,2.87,0,0,1,1.188-.917,3.884,3.884,0,0,1,1.648-.355c.229,0,.48.022.709.042a5.494,5.494,0,0,1,2.566,1.148l-1.043,1.209a3.532,3.532,0,0,0-2.148-.834,2.3,2.3,0,0,0-1.022.208,1.143,1.143,0,0,0-.689.959c0,.626.5.96,1.773,1.231a13.1,13.1,0,0,1,2.211.646,2.616,2.616,0,0,1,1,.813A2.515,2.515,0,0,1,578.234,610.832Z" transform="translate(-315.338 -598.339)" fill="#fff"/>
    </g>
    <g id="Grupo_4694" data-name="Grupo 4694" transform="translate(130.119 453.893)">
      <path id="Trazado_34972" data-name="Trazado 34972" d="M386.486,503.917a21.178,21.178,0,1,0,21.307,21.177,21.242,21.242,0,0,0-21.307-21.177m0,34.194a13.027,13.027,0,1,1,12.5-13.016,12.767,12.767,0,0,1-12.5,13.016" transform="translate(-196.166 -467.949)" fill="#fff"/>
      <path id="Trazado_34973" data-name="Trazado 34973" d="M310.84,538.765l-5.932-5.946a12.33,12.33,0,0,1-10.06,5.291,13.027,13.027,0,0,1,0-26.032,12.308,12.308,0,0,1,9.864,5.026l5.992-6.153a21.179,21.179,0,1,0,.365,27.866l-.23-.052" transform="translate(-170.418 -467.948)" fill="#fff"/>
      <path id="Trazado_34974" data-name="Trazado 34974" d="M353.674,508.992v-8.018H342.849v-11h-9.336v11h-4.926v8.018h4.926V532.3s-.058,5.843,4.467,7.9,11,2.463,15.694-.286v-7.274s-4.124,1.776-7.1,1.031-3.723-2.921-3.723-6.816V508.992Z" transform="translate(-185.884 -464.032)" fill="#fff"/>
      <path id="Trazado_34975" data-name="Trazado 34975" d="M453.817,503.916a17.821,17.821,0,0,0-14.275,7.548V504.69H430.52v52.752h9.022V538.724a17.821,17.821,0,0,0,14.275,7.547c10.3,0,18.658-9.482,18.658-21.178s-8.353-21.178-18.658-21.178m-2.548,34.194c-6.477,0-11.727-5.828-11.727-13.016s5.25-13.016,11.727-13.016S463,517.906,463,525.094s-5.25,13.016-11.727,13.016" transform="translate(-214.526 -467.948)" fill="#fff"/>
      <path id="Trazado_34976" data-name="Trazado 34976" d="M521.862,539.595a14.73,14.73,0,0,1-12.63,7.074,14.347,14.347,0,0,1-14.347-14.347V505.43h8.988v24a9.051,9.051,0,1,0,18.1,0v-24h9.279v40.379h-9.393Z" transform="translate(-232.611 -468.374)" fill="#fff"/>
      <path id="Trazado_34977" data-name="Trazado 34977" d="M582.65,531.19c-.687-2.406-2.062-6.444-12.93-9.708a41.707,41.707,0,0,1-6.229-2.534,3.876,3.876,0,0,1-2.126-4.078c.777-2.892,4.4-3.331,4.4-3.331,3.289-.3,8.144.788,12.592,3.886l3.565-6.7a34.406,34.406,0,0,0-15.507-4.21c-8.334,0-13.489,6.658-13.4,11.255s.9,10.052,10.826,12.458,11.77,5.026,10.31,7.9-4.339,2.706-6.916,2.706-7.045-1.16-12.329-4.768l-3.995,6.1s6.143,6.228,19.374,5.842,13.059-12.415,12.371-14.82" transform="translate(-248.351 -468.116)" fill="#fff"/>
      <path id="Trazado_34978" data-name="Trazado 34978" d="M240.7,539.264a44.14,44.14,0,0,1-45.539-8.172,34.151,34.151,0,0,0,9.847-4.714,34.613,34.613,0,0,0,10.777-12.09,33.726,33.726,0,0,0,2.895-7.325,34.394,34.394,0,1,0-63.558,7.33,34.563,34.563,0,0,0,10.617,11.972,34.056,34.056,0,0,0,9.764,4.755,44.163,44.163,0,0,1-45.384,8.338l7.8-7.827a34.593,34.593,0,0,0,8.1.962,34.026,34.026,0,0,0,9.951-1.473,44.225,44.225,0,1,1,58.875.072,34.41,34.41,0,0,0,18.071.372Z" transform="translate(-130.119 -453.893)" fill="#fff"/>
    </g>
    <g id="Grupo_4695" data-name="Grupo 4695" transform="translate(435.144 472.202)">
      <path id="Trazado_34979" data-name="Trazado 34979" d="M591.788,479.81c-10.595-1.961-19.86,2.637-26.832,9.951H567c10.019-8.077,24.341-8.726,32.334,2.168,13.039,18.224,3.606,51.751-16.937,60.543-10.048,4.163-19.558,1.513-25.233-6.655l-2.819-1.713a27.218,27.218,0,0,0,15.321,14.876c20.414,6.935,39.287-11.713,44.139-30.355,5.479-18.48-.971-44.132-22.014-48.815" transform="translate(-554.342 -479.356)" fill="#0089c6"/>
      <path id="Trazado_34980" data-name="Trazado 34980" d="M554.342,569.406l6.544,13.844-.4-6.429,8.035-.8Z" transform="translate(-554.342 -504.658)" fill="#0089c6"/>
    </g>
  </g>
</svg>
