<svg id="Grupo_4701" data-name="Grupo 4701" xmlns="http://www.w3.org/2000/svg" width="371.777" height="121.461" viewBox="0 0 371.777 121.461">
  <path id="Trazado_34999" data-name="Trazado 34999" d="M964.457,340.479a21.72,21.72,0,1,0,21.872,21.7,21.786,21.786,0,0,0-21.872-21.7m.034,35.068A13.36,13.36,0,1,1,977.3,362.186a13.093,13.093,0,0,1-12.807,13.361" transform="translate(-769.324 -303.724)" fill="#fff"/>
  <path id="Trazado_35000" data-name="Trazado 35000" d="M889.256,376.291l-6.089-6.092a12.647,12.647,0,0,1-10.312,5.436,13.36,13.36,0,0,1-.025-26.7,12.622,12.622,0,0,1,10.121,5.145l6.14-6.316a21.72,21.72,0,1,0,.4,28.577l-.236-.052" transform="translate(-745.259 -303.748)" fill="#fff"/>
  <path id="Trazado_35001" data-name="Trazado 35001" d="M931.745,346.074l-.007-8.223-11.1.01-.011-11.278-9.574.01.011,11.278-5.052,0,.007,8.223,5.052,0L911.091,370s-.053,5.992,4.589,8.1,11.281,2.515,16.094-.309l-.007-7.46s-4.227,1.826-7.283,1.064-3.821-2.992-3.825-6.986l-.018-18.327Z" transform="translate(-759.708 -300.075)" fill="#fff"/>
  <path id="Trazado_35002" data-name="Trazado 35002" d="M1031.832,340.415a18.275,18.275,0,0,0-14.633,7.755l-.007-6.948-9.252.008.052,54.1,9.252-.009-.018-19.2a18.277,18.277,0,0,0,14.647,7.727c10.568-.01,19.126-9.742,19.114-21.738s-8.588-21.711-19.155-21.7m-2.58,35.07c-6.642.007-12.032-5.966-12.039-13.338s5.372-13.353,12.014-13.359,12.033,5.965,12.039,13.336-5.372,13.354-12.014,13.361" transform="translate(-786.476 -303.708)" fill="#fff"/>
  <path id="Trazado_35003" data-name="Trazado 35003" d="M1100.006,376.9a15.106,15.106,0,0,1-12.945,7.267,14.714,14.714,0,0,1-14.728-14.7l-.026-27.578,9.218-.009.024,24.613a9.283,9.283,0,0,0,18.565-.018l-.024-24.613,9.516-.009.039,41.412-9.633.009Z" transform="translate(-803.379 -304.085)" fill="#fff"/>
  <path id="Trazado_35004" data-name="Trazado 35004" d="M1160.921,368.251c-.707-2.467-2.121-6.606-13.269-9.944a42.717,42.717,0,0,1-6.391-2.593,3.974,3.974,0,0,1-2.184-4.18c.793-2.967,4.506-3.42,4.506-3.42,3.373-.307,8.352.8,12.918,3.973l3.65-6.876a35.279,35.279,0,0,0-15.908-4.3c-8.547.008-13.827,6.841-13.735,11.555s.935,10.308,11.114,12.766,12.076,5.143,10.582,8.1-4.447,2.78-7.091,2.782-7.226-1.183-12.648-4.878l-4.091,6.26s6.306,6.382,19.875,5.972,13.381-12.744,12.673-15.211" transform="translate(-818.102 -303.837)" fill="#fff"/>
  <path id="Trazado_35005" data-name="Trazado 35005" d="M821.011,378.134A45.273,45.273,0,0,1,774.3,369.8a35.025,35.025,0,0,0,10.094-4.844,35.5,35.5,0,0,0,11.041-12.41,34.529,34.529,0,0,0,2.961-7.515,35.273,35.273,0,1,0-65.174,7.579,35.441,35.441,0,0,0,10.9,12.267,34.918,34.918,0,0,0,10.018,4.868,45.292,45.292,0,0,1-46.535,8.6l8-8.034a35.457,35.457,0,0,0,8.307.979,34.889,34.889,0,0,0,10.2-1.52,45.354,45.354,0,1,1,60.379.016,35.291,35.291,0,0,0,18.534.364Z" transform="translate(-707.605 -290.635)" fill="#fff"/>
  <g id="Grupo_4700" data-name="Grupo 4700" transform="translate(147.969 105.526)">
    <path id="Trazado_35006" data-name="Trazado 35006" d="M921.1,445.378l1.5,1.112a7.882,7.882,0,0,1-6.353,3.187,7.968,7.968,0,1,1,6.374-12.727l-1.518,1.113a5.979,5.979,0,0,0-4.856-2.439,6.085,6.085,0,1,0,4.856,9.753Z" transform="translate(-908.27 -433.742)" fill="#fff"/>
    <path id="Trazado_35007" data-name="Trazado 35007" d="M945.245,446.57a5.147,5.147,0,0,1-5.133,5.133,5.123,5.123,0,1,1,0-10.246,5.112,5.112,0,0,1,5.133,5.113Zm-1.839,0a3.294,3.294,0,1,0-3.294,3.294A3.277,3.277,0,0,0,943.406,446.57Z" transform="translate(-915.284 -435.768)" fill="#fff"/>
    <path id="Trazado_35008" data-name="Trazado 35008" d="M966.094,446.214v5.262h-1.839v-5.262a2.888,2.888,0,1,0-5.775,0v5.262h-1.839v-9.8h1.839v.941a4.882,4.882,0,0,1,2.888-1.133,4.7,4.7,0,0,1,3.357,1.369A4.755,4.755,0,0,1,966.094,446.214Z" transform="translate(-920.973 -435.776)" fill="#fff"/>
    <path id="Trazado_35009" data-name="Trazado 35009" d="M977.96,446.944v-4.791h-1.455V440.4h1.455v-3.786H979.8V440.4h3.016v1.754H979.8V446.9a1.563,1.563,0,0,0,1.454,1.54H982.9l.47,1.753h-2.16A3.236,3.236,0,0,1,977.96,446.944Z" transform="translate(-926.189 -434.496)" fill="#fff"/>
    <path id="Trazado_35010" data-name="Trazado 35010" d="M1000.882,441.672h1.839v9.8h-1.839v-1.134a5.271,5.271,0,0,1-3.295,1.348,5.113,5.113,0,1,1,0-10.225,5.267,5.267,0,0,1,3.295,1.348Zm0,4.9a3.294,3.294,0,1,0-3.295,3.315A3.313,3.313,0,0,0,1000.882,446.57Z" transform="translate(-930.377 -435.768)" fill="#fff"/>
    <path id="Trazado_35011" data-name="Trazado 35011" d="M1023.139,449.586a7.668,7.668,0,0,1-.535.62,5.191,5.191,0,0,1-7.251,0,5.164,5.164,0,0,1,0-7.273,5.19,5.19,0,0,1,7.251,0,4.533,4.533,0,0,1,.513.6l-1.476,1.09a3.3,3.3,0,1,0-2.652,5.263,3.271,3.271,0,0,0,2.652-1.391Z" transform="translate(-935.998 -435.768)" fill="#fff"/>
    <path id="Trazado_35012" data-name="Trazado 35012" d="M1034.538,446.944v-4.791h-1.455V440.4h1.455v-3.786h1.839V440.4h3.016v1.754h-3.016V446.9a1.563,1.563,0,0,0,1.454,1.54h1.647l.471,1.753h-2.161A3.236,3.236,0,0,1,1034.538,446.944Z" transform="translate(-941.047 -434.496)" fill="#fff"/>
    <path id="Trazado_35013" data-name="Trazado 35013" d="M1070.206,449.586a7.689,7.689,0,0,1-.535.62,5.191,5.191,0,0,1-7.251,0,5.165,5.165,0,0,1,0-7.273,5.19,5.19,0,0,1,7.251,0,4.484,4.484,0,0,1,.513.6l-1.476,1.09a3.3,3.3,0,1,0-2.652,5.263,3.27,3.27,0,0,0,2.652-1.391Z" transform="translate(-948.358 -435.768)" fill="#fff"/>
    <path id="Trazado_35014" data-name="Trazado 35014" d="M1089.91,447.072h-7.55v.043a3.112,3.112,0,0,0,2.845,2.867,3.7,3.7,0,0,0,2.4-1.027l1.54.92a5.825,5.825,0,0,1-1.305,1.091,5.591,5.591,0,0,1-2.588.727,4.388,4.388,0,0,1-3.315-1.5,5.047,5.047,0,0,1-1.327-3.081,3.267,3.267,0,0,1-.021-.449,5.32,5.32,0,0,1,.128-1.155,5.151,5.151,0,0,1,1.219-2.374,4.475,4.475,0,0,1,3.315-1.476,4.522,4.522,0,0,1,3.337,1.476,4.965,4.965,0,0,1,1.22,2.374A5.874,5.874,0,0,1,1089.91,447.072Zm-1.925-1.54-.021-.042a2.965,2.965,0,0,0-2.717-2.118,3.008,3.008,0,0,0-2.717,2.118l-.021.042Z" transform="translate(-953.521 -435.821)" fill="#fff"/>
    <path id="Trazado_35015" data-name="Trazado 35015" d="M1110.309,446.214v5.262h-1.839v-5.262a2.888,2.888,0,1,0-5.775,0v5.262h-1.84v-9.8h1.84v.941a4.879,4.879,0,0,1,2.888-1.133,4.7,4.7,0,0,1,3.357,1.369A4.755,4.755,0,0,1,1110.309,446.214Z" transform="translate(-958.844 -435.776)" fill="#fff"/>
    <path id="Trazado_35016" data-name="Trazado 35016" d="M1122.174,446.944v-4.791h-1.454V440.4h1.454v-3.786h1.84V440.4h3.015v1.754h-3.015V446.9a1.563,1.563,0,0,0,1.454,1.54h1.647l.47,1.753h-2.16A3.237,3.237,0,0,1,1122.174,446.944Z" transform="translate(-964.061 -434.496)" fill="#fff"/>
    <path id="Trazado_35017" data-name="Trazado 35017" d="M1145.995,447.072h-7.55v.043a3.111,3.111,0,0,0,2.845,2.867,3.7,3.7,0,0,0,2.4-1.027l1.54.92a5.806,5.806,0,0,1-1.3,1.091,5.591,5.591,0,0,1-2.588.727,4.389,4.389,0,0,1-3.315-1.5,5.048,5.048,0,0,1-1.327-3.081,3.156,3.156,0,0,1-.021-.449,5.328,5.328,0,0,1,.129-1.155,5.147,5.147,0,0,1,1.219-2.374,4.475,4.475,0,0,1,3.315-1.476,4.522,4.522,0,0,1,3.337,1.476,4.965,4.965,0,0,1,1.22,2.374A5.883,5.883,0,0,1,1145.995,447.072Zm-1.925-1.54-.021-.042a2.965,2.965,0,0,0-2.717-2.118,3.007,3.007,0,0,0-2.717,2.118l-.021.042Z" transform="translate(-968.25 -435.821)" fill="#fff"/>
    <path id="Trazado_35018" data-name="Trazado 35018" d="M1159.158,442.677a5.969,5.969,0,0,1,3.572-1.22l-.449,1.84a3.039,3.039,0,0,0-3.123,2.952v5.219h-1.84v-9.8h1.84Z" transform="translate(-973.672 -435.768)" fill="#fff"/>
  </g>
  <path id="Trazado_35019" data-name="Trazado 35019" d="M1165.04,317.233c-10.866-2.011-20.368,2.7-27.518,10.2h2.093c10.276-8.283,24.963-8.949,33.16,2.224,6.325,8.84,7.488,21.19,4.734,32.707a52.706,52.706,0,0,1-1.675,5.592c-3.035-.727-5.975-.618-7.384,2.09-2.3,4.425-6.323,13.134-8.248,17.48a9.074,9.074,0,0,0-.8,4.049c-5.706.063-11.41-.06-17.113-.29.291-1.655-.082-3.413-1.055-3.862-1.136-.524-6.5-2.318-10.955-1.745a4.6,4.6,0,0,0-1.782.426,4.153,4.153,0,0,0-1.493,3.747,3.88,3.88,0,0,0,1.226,2.858,3.828,3.828,0,0,0,1.612.5c4.056.628,2.2.19,6.258.819.3.046,3.368.5,3.664.445a2.834,2.834,0,0,0,1.966-1.548,139.91,139.91,0,0,0,18.654,1.818,8.208,8.208,0,0,0,3.908,3.118c4.275,1.822,10.883,4.4,13.511.026a88.543,88.543,0,0,0,6.386-13.406c1.616-3.93,3.576-8.631,1.6-11.7a58.914,58.914,0,0,0,2.975-10.416c3.244-18.3-3.96-40.736-23.725-45.135" transform="translate(-817.736 -297.498)" fill="#e64a00"/>
</svg>
