<svg xmlns="http://www.w3.org/2000/svg" width="794.044" height="215.479" viewBox="0 0 794.044 215.479">
  <g id="Grupo_4709" data-name="Grupo 4709" transform="translate(-130.119 -453.893)">
    <g id="Grupo_4694" data-name="Grupo 4694" transform="translate(130.119 453.893)">
      <path id="Trazado_34972" data-name="Trazado 34972" d="M411.361,503.917a45.9,45.9,0,1,0,46.182,45.9,46.042,46.042,0,0,0-46.182-45.9m0,74.115c-14.965,0-27.1-12.632-27.1-28.213s12.131-28.212,27.1-28.212,27.1,12.631,27.1,28.212-12.131,28.213-27.1,28.213" transform="translate(1.156 -425.956)" fill="#fff"/>
      <path id="Trazado_34973" data-name="Trazado 34973" d="M354.386,579.452l-12.857-12.889a26.726,26.726,0,0,1-21.8,11.469c-14.964,0-27.1-12.631-27.1-28.213s12.131-28.212,27.1-28.212A26.679,26.679,0,0,1,341.105,532.5l12.988-13.336a45.9,45.9,0,1,0,.792,60.4l-.5-.112" transform="translate(-50.021 -425.956)" fill="#fff"/>
      <path id="Trazado_34974" data-name="Trazado 34974" d="M382.964,531.193v-17.38H359.5V489.976H339.264v23.837H328.587v17.38h10.677V581.72s-.125,12.664,9.683,17.132,23.837,5.339,34.017-.62V582.465s-8.938,3.849-15.395,2.235-8.07-6.332-8.07-14.773V531.193Z" transform="translate(-19.279 -433.742)" fill="#fff"/>
      <path id="Trazado_34975" data-name="Trazado 34975" d="M481.016,503.916c-12.418,0-23.524,6.36-30.942,16.361V505.593H430.52V619.932h19.554V579.363c7.418,10,18.524,16.359,30.942,16.359,22.336,0,40.441-20.552,40.441-45.9s-18.1-45.9-40.441-45.9m-5.523,74.116c-14.039,0-25.419-12.631-25.419-28.213s11.38-28.212,25.419-28.212,25.419,12.631,25.419,28.212-11.38,28.213-25.419,28.213" transform="translate(37.648 -425.956)" fill="#fff"/>
      <path id="Trazado_34976" data-name="Trazado 34976" d="M553.357,579.483a31.928,31.928,0,0,1-27.375,15.332,31.1,31.1,0,0,1-31.1-31.1V505.43h19.482v52.017a19.619,19.619,0,1,0,39.238,0V505.43h20.112v87.522h-20.36Z" transform="translate(73.594 -425.111)" fill="#fff"/>
      <path id="Trazado_34977" data-name="Trazado 34977" d="M619.713,562.335c-1.49-5.215-4.47-13.967-28.026-21.042,0,0-9.031-2.886-13.5-5.494-3.324-1.939-5.3-5.166-4.608-8.838,1.683-6.268,9.532-7.219,9.532-7.219,7.129-.644,17.651,1.708,27.294,8.422l7.727-14.525s-15.549-9.125-33.612-9.125-29.237,14.431-29.052,24.395,1.956,21.787,23.464,27,25.512,10.894,22.347,17.132-9.405,5.865-14.991,5.865-15.27-2.514-26.723-10.334L550.905,581.8s13.314,13.5,41.993,12.663,28.305-26.909,26.815-32.123" transform="translate(104.88 -425.622)" fill="#fff"/>
      <path id="Trazado_34978" data-name="Trazado 34978" d="M369.8,638.935A95.672,95.672,0,0,1,271.1,621.222,74.024,74.024,0,0,0,292.439,611,75.023,75.023,0,0,0,315.8,584.8a73.1,73.1,0,0,0,6.274-15.876A74.549,74.549,0,1,0,184.312,584.81a74.915,74.915,0,0,0,23.012,25.949,73.816,73.816,0,0,0,21.164,10.308,95.725,95.725,0,0,1-98.369,18.072l16.917-16.964a74.99,74.99,0,0,0,17.556,2.085,73.757,73.757,0,0,0,21.568-3.193,95.857,95.857,0,1,1,127.611.156,74.58,74.58,0,0,0,39.169.807Z" transform="translate(-130.119 -453.893)" fill="#fff"/>
    </g>
    <g id="Grupo_4695" data-name="Grupo 4695" transform="translate(791.26 493.577)">
      <path id="Trazado_34979" data-name="Trazado 34979" d="M635.506,480.339c-22.964-4.25-43.047,5.716-58.159,21.568h4.425c21.717-17.508,52.759-18.914,70.083,4.7,28.261,39.5,7.816,112.17-36.71,131.227-21.78,9.024-42.392,3.281-54.693-14.424l-6.109-3.714c6.435,14.327,17.163,26.159,33.208,32.245,44.248,15.031,85.155-25.388,95.672-65.794,11.875-40.056-2.106-95.656-47.716-105.806" transform="translate(-554.342 -479.356)" fill="#0089c6"/>
      <path id="Trazado_34980" data-name="Trazado 34980" d="M554.342,569.406l14.184,30.007-.87-13.934,17.416-1.741Z" transform="translate(-554.342 -429.066)" fill="#0089c6"/>
    </g>
  </g>
</svg>
