<svg xmlns="http://www.w3.org/2000/svg" width="212.066" height="69" viewBox="0 0 212.066 69">
  <g id="Octopus_soluciones_integrales" transform="translate(-26.616 -23)">
    <rect id="Rect치ngulo_2386" data-name="Rect치ngulo 2386" width="31" height="31" transform="translate(125 61)" fill="none"/>
    <rect id="Rect치ngulo_2387" data-name="Rect치ngulo 2387" width="30" height="31" transform="translate(163 61)" fill="none"/>
    <g id="Grupo_4475" data-name="Grupo 4475" transform="translate(-103.503 -430.893)">
      <text id="Soluciones_Integrales" data-name="Soluciones Integrales" transform="translate(165.261 520.807)" fill="#fff" font-size="10" font-family="Helvetica"><tspan x="0" y="0" letter-spacing="0.18em">Soluc</tspan><tspan y="0" letter-spacing="0.179em">i</tspan><tspan y="0" letter-spacing="0.18em">o</tspan><tspan y="0" letter-spacing="0.183em">n</tspan><tspan y="0" letter-spacing="0.165em">e</tspan><tspan y="0" letter-spacing="0.179em">s</tspan><tspan y="0" xml:space="preserve" letter-spacing="0.18em"> In</tspan><tspan y="0" letter-spacing="0.163em">t</tspan><tspan y="0" letter-spacing="0.18em">e</tspan><tspan y="0" letter-spacing="0.189em">g</tspan><tspan y="0" letter-spacing="0.169em">r</tspan><tspan y="0" letter-spacing="0.206em">a</tspan><tspan y="0" letter-spacing="0.18em">l</tspan><tspan y="0" letter-spacing="0.165em">e</tspan><tspan y="0">s</tspan></text>
      <g id="Grupo_4473" data-name="Grupo 4473" transform="translate(130.119 453.893)">
        <path id="Trazado_33945" data-name="Trazado 33945" d="M377.513,503.917a12.259,12.259,0,1,0,12.334,12.259,12.3,12.3,0,0,0-12.334-12.259m0,19.794a7.541,7.541,0,1,1,7.236-7.535,7.39,7.39,0,0,1-7.236,7.535" transform="translate(-267.342 -483.096)" fill="#fff"/>
        <path id="Trazado_33946" data-name="Trazado 33946" d="M295.133,524.089l-3.434-3.442a7.138,7.138,0,0,1-5.823,3.063,7.541,7.541,0,0,1,0-15.069,7.125,7.125,0,0,1,5.71,2.909l3.469-3.562a12.26,12.26,0,1,0,.211,16.131l-.133-.03" transform="translate(-213.846 -483.095)" fill="#fff"/>
        <path id="Trazado_33947" data-name="Trazado 33947" d="M343.109,500.984v-4.642h-6.267v-6.366h-5.4v6.366h-2.852v4.642h2.852v13.494s-.033,3.382,2.586,4.576a10.409,10.409,0,0,0,9.085-.166v-4.211a7.929,7.929,0,0,1-4.111.6c-1.724-.431-2.155-1.691-2.155-3.945V500.984Z" transform="translate(-245.98 -474.957)" fill="#fff"/>
        <path id="Trazado_33948" data-name="Trazado 33948" d="M444.006,503.916a10.316,10.316,0,0,0-8.264,4.369v-3.922H430.52V534.9h5.222V524.066a10.316,10.316,0,0,0,8.264,4.369c5.965,0,10.8-5.489,10.8-12.259s-4.835-12.259-10.8-12.259m-1.475,19.794c-3.749,0-6.789-3.373-6.789-7.535s3.039-7.534,6.789-7.534,6.789,3.373,6.789,7.534-3.039,7.535-6.789,7.535" transform="translate(-305.486 -483.095)" fill="#fff"/>
        <path id="Trazado_33949" data-name="Trazado 33949" d="M510.5,525.207a8.527,8.527,0,0,1-7.311,4.095A8.305,8.305,0,0,1,494.885,521V505.43h5.2v13.892a5.24,5.24,0,1,0,10.479,0V505.43h5.371V528.8H510.5Z" transform="translate(-343.061 -483.979)" fill="#fff"/>
        <path id="Trazado_33950" data-name="Trazado 33950" d="M569.282,519.956c-.4-1.393-1.194-3.73-7.485-5.62a24.142,24.142,0,0,1-3.606-1.467,2.244,2.244,0,0,1-1.231-2.36c.45-1.674,2.546-1.928,2.546-1.928a11.706,11.706,0,0,1,7.289,2.249l2.064-3.879a19.917,19.917,0,0,0-8.977-2.437c-4.824,0-7.808,3.854-7.759,6.515s.522,5.819,6.267,7.211,6.814,2.909,5.968,4.576-2.512,1.566-4,1.566-4.078-.671-7.137-2.76l-2.312,3.531s3.556,3.605,11.215,3.382,7.56-7.187,7.162-8.579" transform="translate(-375.764 -483.444)" fill="#fff"/>
        <path id="Trazado_33951" data-name="Trazado 33951" d="M194.131,503.312a25.551,25.551,0,0,1-26.361-4.731,19.771,19.771,0,0,0,5.7-2.729,20.037,20.037,0,0,0,6.239-7,19.525,19.525,0,0,0,1.676-4.24,19.91,19.91,0,1,0-36.792,4.243,20.008,20.008,0,0,0,6.146,6.93,19.714,19.714,0,0,0,5.652,2.753,25.566,25.566,0,0,1-26.272,4.827l4.518-4.531a20.03,20.03,0,0,0,4.689.557,19.7,19.7,0,0,0,5.76-.853,25.6,25.6,0,1,1,34.081.042,19.917,19.917,0,0,0,10.461.216Z" transform="translate(-130.119 -453.893)" fill="#fff"/>
      </g>
      <g id="Grupo_4474" data-name="Grupo 4474" transform="translate(306.69 464.491)">
        <path id="Trazado_33952" data-name="Trazado 33952" d="M576.018,479.619c-6.133-1.135-11.5,1.527-15.533,5.76h1.182c5.8-4.676,14.09-5.051,18.717,1.255,7.548,10.549,2.087,29.957-9.8,35.047-5.817,2.41-11.322.876-14.607-3.852l-1.632-.992a15.756,15.756,0,0,0,8.869,8.612c11.817,4.015,22.742-6.78,25.551-17.572,3.172-10.7-.562-25.547-12.743-28.258" transform="translate(-554.342 -479.356)" fill="#fff"/>
        <path id="Trazado_33953" data-name="Trazado 33953" d="M554.342,569.406l3.788,8.014L557.9,573.7l4.651-.465Z" transform="translate(-554.342 -531.925)" fill="#fff"/>
      </g>
    </g>
  </g>
</svg>
