<svg id="Grupo_4699" data-name="Grupo 4699" xmlns="http://www.w3.org/2000/svg" width="371.416" height="121.158" viewBox="0 0 371.416 121.158">
  <path id="Trazado_34981" data-name="Trazado 34981" d="M1764.482,410.823a2.506,2.506,0,0,1-.545-.058,2.581,2.581,0,0,1-1.984-3.063l2.074-9.7a2.581,2.581,0,0,1,5.047,1.08l-2.073,9.7a2.583,2.583,0,0,1-2.519,2.042" transform="translate(-1443.071 -322.636)" fill="#62a51c"/>
  <path id="Trazado_34982" data-name="Trazado 34982" d="M1777.189,350.314a2.584,2.584,0,0,1-2.531-3.11l2.4-11.465a2.581,2.581,0,1,1,5.052,1.057l-2.4,11.465a2.582,2.582,0,0,1-2.521,2.053" transform="translate(-1446.408 -306.281)" fill="#62a51c"/>
  <g id="Grupo_4697" data-name="Grupo 4697" transform="translate(0 0)">
    <path id="Trazado_34983" data-name="Trazado 34983" d="M1586.38,346.367a21.719,21.719,0,1,0,21.872,21.7,21.785,21.785,0,0,0-21.872-21.7m.033,35.067a13.36,13.36,0,1,1,12.808-13.361,13.092,13.092,0,0,1-12.808,13.361" transform="translate(-1391.247 -309.612)" fill="#fff"/>
    <path id="Trazado_34984" data-name="Trazado 34984" d="M1511.179,382.178l-6.089-6.092a12.646,12.646,0,0,1-10.312,5.436,13.36,13.36,0,0,1-.026-26.7,12.623,12.623,0,0,1,10.121,5.145l6.14-6.316a21.72,21.72,0,1,0,.4,28.577l-.236-.052" transform="translate(-1367.182 -309.635)" fill="#fff"/>
    <path id="Trazado_34985" data-name="Trazado 34985" d="M1553.668,351.961l-.007-8.223-11.1.01-.011-11.278-9.574.01.011,11.278-5.052,0,.008,8.223,5.052,0,.023,23.907s-.053,5.992,4.59,8.1,11.281,2.515,16.094-.309l-.007-7.46s-4.228,1.826-7.283,1.065-3.821-2.992-3.825-6.987l-.018-18.327Z" transform="translate(-1381.63 -305.962)" fill="#fff"/>
    <path id="Trazado_34986" data-name="Trazado 34986" d="M1653.755,346.3a18.276,18.276,0,0,0-14.633,7.754l-.007-6.948-9.252.009.052,54.1,9.252-.009-.018-19.2a18.274,18.274,0,0,0,14.647,7.726c10.568-.01,19.125-9.742,19.114-21.737s-8.588-21.711-19.155-21.7m-2.58,35.07c-6.642.006-12.032-5.965-12.039-13.338s5.372-13.353,12.014-13.359,12.032,5.965,12.039,13.336-5.372,13.354-12.014,13.361" transform="translate(-1408.399 -309.595)" fill="#fff"/>
    <path id="Trazado_34987" data-name="Trazado 34987" d="M1721.929,382.784a15.108,15.108,0,0,1-12.946,7.267,14.715,14.715,0,0,1-14.728-14.7l-.026-27.578,9.218-.009.024,24.613a9.283,9.283,0,0,0,18.565-.018l-.024-24.613,9.516-.009.039,41.412-9.633.009Z" transform="translate(-1425.302 -309.971)" fill="#fff"/>
    <path id="Trazado_34988" data-name="Trazado 34988" d="M1782.844,374.138c-.707-2.467-2.121-6.606-13.27-9.944a42.721,42.721,0,0,1-6.39-2.593,3.974,3.974,0,0,1-2.184-4.18c.793-2.966,4.506-3.42,4.506-3.42,3.373-.307,8.352.8,12.918,3.973l3.649-6.876a35.285,35.285,0,0,0-15.907-4.3c-8.547.008-13.827,6.841-13.735,11.555s.935,10.308,11.114,12.766,12.076,5.143,10.582,8.1-4.448,2.779-7.091,2.781-7.226-1.182-12.648-4.877l-4.091,6.26s6.305,6.381,19.875,5.972,13.38-12.744,12.673-15.211" transform="translate(-1440.025 -309.724)" fill="#fff"/>
    <path id="Trazado_34989" data-name="Trazado 34989" d="M1442.934,384.021a45.268,45.268,0,0,1-46.711-8.337,35.022,35.022,0,0,0,10.094-4.844,35.5,35.5,0,0,0,11.041-12.41,34.607,34.607,0,0,0,2.961-7.515,35.273,35.273,0,1,0-65.174,7.579,35.441,35.441,0,0,0,10.9,12.267,34.918,34.918,0,0,0,10.018,4.868,45.292,45.292,0,0,1-46.536,8.6l8-8.034a35.492,35.492,0,0,0,8.307.979,34.888,34.888,0,0,0,10.2-1.521,45.354,45.354,0,1,1,60.379.016,35.287,35.287,0,0,0,18.533.364Z" transform="translate(-1329.528 -296.522)" fill="#fff"/>
  </g>
  <g id="Grupo_4698" data-name="Grupo 4698" transform="translate(211.244 105.196)">
    <path id="Trazado_34990" data-name="Trazado 34990" d="M1628.84,450.851l1.5,1.111a7.881,7.881,0,0,1-6.35,3.193,7.968,7.968,0,1,1,6.362-12.733l-1.517,1.113a5.978,5.978,0,0,0-4.858-2.433,6.085,6.085,0,1,0,4.865,9.749Z" transform="translate(-1616.003 -439.191)" fill="#fff"/>
    <path id="Trazado_34991" data-name="Trazado 34991" d="M1652.981,452.02a5.148,5.148,0,0,1-5.129,5.138,5.123,5.123,0,1,1-.009-10.245,5.112,5.112,0,0,1,5.138,5.107Zm-1.84,0a3.294,3.294,0,1,0-3.291,3.3A3.276,3.276,0,0,0,1651.142,452.022Z" transform="translate(-1623.018 -441.212)" fill="#fff"/>
    <path id="Trazado_34992" data-name="Trazado 34992" d="M1675.018,449.974a5.112,5.112,0,0,1-5.129,5.117,5.263,5.263,0,0,1-3.3-1.344v1.134h-1.839l-.016-15.7h1.839l.006,7.037a5.267,5.267,0,0,1,3.293-1.351,5.112,5.112,0,0,1,5.138,5.107Zm-1.839,0a3.294,3.294,0,1,0-3.292,3.318A3.313,3.313,0,0,0,1673.179,449.976Z" transform="translate(-1628.802 -439.181)" fill="#fff"/>
    <path id="Trazado_34993" data-name="Trazado 34993" d="M1689.006,448.093a5.977,5.977,0,0,1,3.571-1.223l-.448,1.841a3.039,3.039,0,0,0-3.12,2.955l.005,5.219-1.839,0-.01-9.8,1.839,0Z" transform="translate(-1634.691 -441.2)" fill="#fff"/>
    <path id="Trazado_34994" data-name="Trazado 34994" d="M1709.805,447.068h1.839l.009,9.8h-1.839v-1.133a5.273,5.273,0,0,1-3.293,1.351,5.113,5.113,0,1,1-.01-10.225,5.271,5.271,0,0,1,3.3,1.344Zm0,4.9a3.294,3.294,0,1,0-3.292,3.318A3.314,3.314,0,0,0,1709.809,451.966Z" transform="translate(-1638.424 -441.197)" fill="#fff"/>
    <path id="Trazado_34995" data-name="Trazado 34995" d="M1733.279,451.588l.005,5.262h-1.839l-.005-5.262a2.888,2.888,0,1,0-5.775.006l.005,5.261-1.839,0-.009-9.8,1.839,0V448a4.879,4.879,0,0,1,2.887-1.137,4.7,4.7,0,0,1,3.359,1.366A4.757,4.757,0,0,1,1733.279,451.588Z" transform="translate(-1644.317 -441.199)" fill="#fff"/>
    <path id="Trazado_34996" data-name="Trazado 34996" d="M1751.968,447.1l0,1.8-5.127,6.251,5.154-.005,0,1.754-7.529.007v-1.8l5.127-6.251-5.154,0,0-1.754Z" transform="translate(-1649.731 -441.261)" fill="#fff"/>
    <path id="Trazado_34997" data-name="Trazado 34997" d="M1770.5,447.01h1.839l.01,9.8-1.84,0v-1.134a5.269,5.269,0,0,1-3.293,1.351,5.112,5.112,0,1,1-.01-10.224,5.269,5.269,0,0,1,3.3,1.344Zm0,4.9a3.294,3.294,0,1,0-3.291,3.318A3.314,3.314,0,0,0,1770.505,451.909Z" transform="translate(-1654.364 -441.182)" fill="#fff"/>
  </g>
  <path id="Trazado_34998" data-name="Trazado 34998" d="M1786.316,322.892c-10.867-2-20.364,2.723-27.508,10.23l2.094,0c10.267-8.293,24.954-8.973,33.161,2.193,13.39,18.675,3.749,53.069-17.309,62.105-10.3,4.28-20.221-.184-26.048-8.556l-2.729,0a27.913,27.913,0,0,0,15.727,15.241c20.943,7.092,40.28-12.05,45.238-31.173,5.6-18.958-1.039-45.258-22.625-50.04" transform="translate(-1439.416 -303.326)" fill="#62a51c"/>
</svg>
