<svg xmlns="http://www.w3.org/2000/svg" width="378.03" height="123" viewBox="0 0 378.03 123">
  <g id="Octopus_soluciones_integrales" transform="translate(-26.616 -23)">
    <rect id="Rect치ngulo_2386" data-name="Rect치ngulo 2386" width="55" height="55" transform="translate(202 91)" fill="none"/>
    <rect id="Rect치ngulo_2387" data-name="Rect치ngulo 2387" width="53" height="55" transform="translate(270 91)" fill="none"/>
    <g id="Grupo_4475" data-name="Grupo 4475" transform="translate(26.616 23)">
      <text id="Soluciones_Integrales" data-name="Soluciones Integrales" transform="translate(62.644 118.021)" fill="#fff" font-size="17" font-family="Helvetica"><tspan x="0" y="0" letter-spacing="0.18em">Soluc</tspan><tspan y="0" letter-spacing="0.179em">i</tspan><tspan y="0" letter-spacing="0.18em">o</tspan><tspan y="0" letter-spacing="0.183em">n</tspan><tspan y="0" letter-spacing="0.165em">e</tspan><tspan y="0" letter-spacing="0.179em">s</tspan><tspan y="0" xml:space="preserve" letter-spacing="0.18em"> In</tspan><tspan y="0" letter-spacing="0.163em">t</tspan><tspan y="0" letter-spacing="0.18em">e</tspan><tspan y="0" letter-spacing="0.189em">g</tspan><tspan y="0" letter-spacing="0.169em">r</tspan><tspan y="0" letter-spacing="0.206em">a</tspan><tspan y="0" letter-spacing="0.18em">l</tspan><tspan y="0" letter-spacing="0.165em">e</tspan><tspan y="0">s</tspan></text>
      <g id="Grupo_4473" data-name="Grupo 4473" transform="translate(0)">
        <path id="Trazado_33945" data-name="Trazado 33945" d="M387.166,503.917a21.854,21.854,0,1,0,21.987,21.853,21.92,21.92,0,0,0-21.987-21.853m0,35.285a13.442,13.442,0,1,1,12.9-13.432,13.174,13.174,0,0,1-12.9,13.432" transform="translate(-190.774 -466.801)" fill="#fff"/>
        <path id="Trazado_33946" data-name="Trazado 33946" d="M312.031,539.877l-6.121-6.136a12.723,12.723,0,0,1-10.381,5.46,13.442,13.442,0,0,1,0-26.863,12.7,12.7,0,0,1,10.179,5.186l6.184-6.349a21.855,21.855,0,1,0,.377,28.755l-.237-.053" transform="translate(-167.128 -466.801)" fill="#fff"/>
        <path id="Trazado_33947" data-name="Trazado 33947" d="M354.475,509.6v-8.274H343.3V489.976H333.67v11.348h-5.083V509.6h5.083v24.055s-.059,6.029,4.61,8.156,11.348,2.542,16.195-.3v-7.507s-4.255,1.833-7.329,1.064-3.842-3.015-3.842-7.033V509.6Z" transform="translate(-181.331 -463.204)" fill="#fff"/>
        <path id="Trazado_33948" data-name="Trazado 33948" d="M454.56,503.916a18.39,18.39,0,0,0-14.731,7.789v-6.991H430.52v54.435h9.309V539.835a18.389,18.389,0,0,0,14.731,7.788c10.634,0,19.253-9.784,19.253-21.854s-8.619-21.854-19.253-21.854M451.931,539.2c-6.684,0-12.1-6.014-12.1-13.432s5.418-13.431,12.1-13.431,12.1,6.014,12.1,13.431-5.418,13.432-12.1,13.432" transform="translate(-207.634 -466.801)" fill="#fff"/>
        <path id="Trazado_33949" data-name="Trazado 33949" d="M522.723,540.685a15.2,15.2,0,0,1-13.032,7.3,14.8,14.8,0,0,1-14.805-14.8V505.43h9.275v24.765a9.34,9.34,0,1,0,18.68,0V505.43h9.575V547.1h-9.693Z" transform="translate(-224.243 -467.192)" fill="#fff"/>
        <path id="Trazado_33950" data-name="Trazado 33950" d="M583.663,532.042c-.709-2.483-2.128-6.649-13.343-10.018a43.034,43.034,0,0,1-6.427-2.615A4,4,0,0,1,561.7,515.2c.8-2.984,4.538-3.437,4.538-3.437,3.394-.306,8.4.813,12.994,4.01l3.679-6.915a35.5,35.5,0,0,0-16-4.344c-8.6,0-13.919,6.87-13.831,11.614s.931,10.373,11.171,12.855,12.146,5.186,10.639,8.156-4.478,2.792-7.137,2.792-7.27-1.2-12.722-4.92l-4.122,6.295s6.338,6.427,19.992,6.028,13.476-12.811,12.766-15.293" transform="translate(-238.698 -466.955)" fill="#fff"/>
        <path id="Trazado_33951" data-name="Trazado 33951" d="M244.227,541.988a45.547,45.547,0,0,1-46.992-8.433,35.244,35.244,0,0,0,10.161-4.864,35.717,35.717,0,0,0,11.121-12.476,34.8,34.8,0,0,0,2.987-7.558,35.491,35.491,0,1,0-65.586,7.564,35.665,35.665,0,0,0,10.956,12.354,35.141,35.141,0,0,0,10.076,4.907,45.573,45.573,0,0,1-46.832,8.6l8.054-8.076a35.7,35.7,0,0,0,8.358.993,35.117,35.117,0,0,0,10.268-1.52,45.636,45.636,0,1,1,60.753.074,35.5,35.5,0,0,0,18.648.384Z" transform="translate(-130.119 -453.893)" fill="#fff"/>
      </g>
      <g id="Grupo_4474" data-name="Grupo 4474" transform="translate(314.757 18.893)">
        <path id="Trazado_33952" data-name="Trazado 33952" d="M592.983,479.824c-10.933-2.023-20.494,2.722-27.688,10.268H567.4c10.339-8.335,25.117-9,33.365,2.237,13.455,18.8,3.721,53.4-17.477,62.475-10.369,4.3-20.182,1.562-26.038-6.867l-2.908-1.768a28.086,28.086,0,0,0,15.81,15.351c21.066,7.156,40.541-12.086,45.547-31.323,5.654-19.07-1-45.54-22.717-50.372" transform="translate(-554.342 -479.356)" fill="#019bcd"/>
        <path id="Trazado_33953" data-name="Trazado 33953" d="M554.342,569.406l6.753,14.286-.414-6.634,8.291-.829Z" transform="translate(-554.342 -502.593)" fill="#019bcd"/>
      </g>
    </g>
  </g>
</svg>
