<svg xmlns="http://www.w3.org/2000/svg" width="384.208" height="131.131" viewBox="0 0 384.208 131.131">
  <g id="Grupo_4704" data-name="Grupo 4704" transform="translate(0 0)">
    <g id="Grupo_4702" data-name="Grupo 4702" transform="translate(0 0)">
      <path id="Trazado_35020" data-name="Trazado 35020" d="M971.834,618.025a21.72,21.72,0,1,0,21.851,21.719,21.785,21.785,0,0,0-21.851-21.719m0,35.068a13.359,13.359,0,1,1,12.82-13.349,13.093,13.093,0,0,1-12.82,13.349" transform="translate(-776.652 -581.138)" fill="#fff"/>
      <path id="Trazado_35021" data-name="Trazado 35021" d="M896.6,653.765l-6.084-6.1a12.645,12.645,0,0,1-10.317,5.426,13.359,13.359,0,0,1,0-26.7,12.623,12.623,0,0,1,10.116,5.154l6.145-6.31a21.72,21.72,0,1,0,.375,28.578l-.236-.053" transform="translate(-752.587 -581.138)" fill="#fff"/>
      <path id="Trazado_35022" data-name="Trazado 35022" d="M939.119,623.587v-8.223h-11.1V604.085h-9.574v11.278h-5.052v8.223h5.052v23.907s-.059,5.991,4.581,8.106,11.278,2.526,16.095-.294v-7.46s-4.229,1.821-7.284,1.057-3.818-3-3.818-6.99V623.587Z" transform="translate(-767.042 -577.478)" fill="#fff"/>
      <path id="Trazado_35023" data-name="Trazado 35023" d="M1039.215,618.026a18.276,18.276,0,0,0-14.64,7.74v-6.948h-9.252v54.1h9.252v-19.2a18.276,18.276,0,0,0,14.64,7.74c10.568,0,19.135-9.724,19.135-21.719s-8.567-21.718-19.135-21.718m-2.613,35.067c-6.642,0-12.027-5.977-12.027-13.349s5.385-13.348,12.027-13.348,12.027,5.977,12.027,13.348-5.384,13.349-12.027,13.349" transform="translate(-793.811 -581.139)" fill="#fff"/>
      <path id="Trazado_35024" data-name="Trazado 35024" d="M1107.355,654.578a15.107,15.107,0,0,1-12.952,7.254,14.714,14.714,0,0,1-14.714-14.715V619.539h9.218v24.613a9.283,9.283,0,0,0,18.565,0V619.539h9.516v41.412h-9.633Z" transform="translate(-810.714 -581.536)" fill="#fff"/>
      <path id="Trazado_35025" data-name="Trazado 35025" d="M1168.266,645.981c-.7-2.467-2.115-6.609-13.261-9.956a42.764,42.764,0,0,1-6.388-2.6,3.975,3.975,0,0,1-2.181-4.182c.8-2.966,4.51-3.416,4.51-3.416,3.373-.3,8.351.808,12.914,3.985l3.656-6.872a35.286,35.286,0,0,0-15.9-4.317c-8.547,0-13.833,6.828-13.746,11.542s.926,10.309,11.1,12.776,12.071,5.154,10.573,8.106-4.45,2.775-7.093,2.775-7.225-1.189-12.644-4.89l-4.1,6.256s6.3,6.387,19.869,5.991,13.393-12.732,12.688-15.2" transform="translate(-825.425 -581.296)" fill="#fff"/>
      <path id="Trazado_35026" data-name="Trazado 35026" d="M828.329,655.555a45.267,45.267,0,0,1-46.7-8.381,35.021,35.021,0,0,0,10.1-4.834,35.5,35.5,0,0,0,11.053-12.4,34.544,34.544,0,0,0,2.969-7.512,35.273,35.273,0,1,0-65.182,7.517,35.447,35.447,0,0,0,10.888,12.278,34.926,34.926,0,0,0,10.014,4.877,45.292,45.292,0,0,1-46.543,8.551l8-8.027a35.484,35.484,0,0,0,8.307.987,34.9,34.9,0,0,0,10.2-1.511,45.355,45.355,0,1,1,60.379.074,35.286,35.286,0,0,0,18.533.382Z" transform="translate(-714.923 -568.002)" fill="#fff"/>
    </g>
    <ellipse id="Elipse_417" data-name="Elipse 417" cx="4.501" cy="3.358" rx="4.501" ry="3.358" transform="matrix(0.174, -0.985, 0.985, 0.174, 342.283, 58.235)" fill="#8b3785"/>
    <path id="Trazado_35027" data-name="Trazado 35027" d="M1189.084,590.132c-10.865-2.011-20.367,2.7-27.518,10.2h2.094c10.276-8.283,24.963-8.949,33.16,2.224,13.372,18.688,3.7,53.072-17.369,62.089-10.305,4.27-20.058,1.553-25.878-6.825l-2.891-1.756a27.911,27.911,0,0,0,15.712,15.256c20.936,7.112,40.291-12.012,45.267-31.13,5.619-18.952-1-45.259-22.577-50.061" transform="translate(-829.357 -573.692)" fill="#8b3785"/>
    <path id="Trazado_35028" data-name="Trazado 35028" d="M1200.087,613.545a3.522,3.522,0,0,0-5.518,1.295l-7.154,16.687a2.423,2.423,0,0,0,1.3,3.172h0a2.423,2.423,0,0,0,3.172-1.3l8.422-19.667Z" transform="translate(-838.954 -579.741)" fill="#8b3785"/>
    <path id="Trazado_35029" data-name="Trazado 35029" d="M1202.488,659.251a3.522,3.522,0,0,0,.89-5.6l-12.738-12.937a2.423,2.423,0,0,0-3.427,0h0a2.423,2.423,0,0,0,0,3.427l15.017,15.24Z" transform="translate(-838.764 -586.911)" fill="#8b3785"/>
    <ellipse id="Elipse_418" data-name="Elipse 418" cx="5.209" cy="3.886" rx="5.209" ry="3.886" transform="matrix(0.174, -0.985, 0.985, 0.174, 345.23, 58.848)" fill="#8b3785"/>
    <g id="Grupo_4703" data-name="Grupo 4703" transform="translate(218.138 110.297)">
      <path id="Trazado_35030" data-name="Trazado 35030" d="M1010.747,717.579h1.925v13.369h8.342v1.861h-10.267Z" transform="translate(-1010.747 -717.579)" fill="#fff"/>
      <path id="Trazado_35031" data-name="Trazado 35031" d="M1041.835,729.769a5.147,5.147,0,0,1-5.134,5.134,5.123,5.123,0,1,1,0-10.246,5.111,5.111,0,0,1,5.134,5.112Zm-1.84,0a3.294,3.294,0,1,0-3.294,3.294A3.277,3.277,0,0,0,1040,729.769Z" transform="translate(-1016.215 -719.438)" fill="#fff"/>
      <path id="Trazado_35032" data-name="Trazado 35032" d="M1062.918,724.872v10.266a5.147,5.147,0,0,1-5.134,5.134,5.381,5.381,0,0,1-2.759-.748,5.892,5.892,0,0,1-.92-.706l1.391-1.22a4.249,4.249,0,0,0,2.288.878,3.333,3.333,0,0,0,3.295-3.337v-1.6a5.268,5.268,0,0,1-3.295,1.347,5.113,5.113,0,1,1,0-10.225,5.269,5.269,0,0,1,3.295,1.348v-1.133Zm-1.839,4.9a3.294,3.294,0,1,0-3.295,3.315A3.314,3.314,0,0,0,1061.078,729.769Z" transform="translate(-1021.751 -719.438)" fill="#fff"/>
      <path id="Trazado_35033" data-name="Trazado 35033" d="M1075.908,723.6h1.84v9.8h-1.84Zm1.69-3.786h1.455l-1.776,2.288h-.77Z" transform="translate(-1027.859 -718.166)" fill="#fff"/>
      <path id="Trazado_35034" data-name="Trazado 35034" d="M1094.278,731.8a2.624,2.624,0,0,1-.47,1.54,3.129,3.129,0,0,1-1.305,1.069,4.287,4.287,0,0,1-1.754.364,5.365,5.365,0,0,1-1.005-.108,6.446,6.446,0,0,1-2.93-1.411l1.155-1.262a4.178,4.178,0,0,0,2.7,1.155,2.815,2.815,0,0,0,1.133-.235,1.221,1.221,0,0,0,.77-1.112c0-.664-.577-1.07-1.9-1.305a11.433,11.433,0,0,1-2.289-.663,2.532,2.532,0,0,1-1.369-2.289,2.7,2.7,0,0,1,.471-1.5,2.937,2.937,0,0,1,1.219-.941,3.981,3.981,0,0,1,1.69-.364c.235,0,.492.022.727.043a5.64,5.64,0,0,1,2.631,1.177l-1.069,1.24a3.622,3.622,0,0,0-2.2-.855,2.353,2.353,0,0,0-1.047.214,1.171,1.171,0,0,0-.706.984c0,.642.513.984,1.817,1.262a13.425,13.425,0,0,1,2.268.663,2.683,2.683,0,0,1,1.026.834A2.578,2.578,0,0,1,1094.278,731.8Z" transform="translate(-1030.723 -719.461)" fill="#fff"/>
      <path id="Trazado_35035" data-name="Trazado 35035" d="M1105.057,730.144v-4.791H1103.6V723.6h1.454v-3.786h1.839V723.6h3.016v1.754H1106.9V730.1a1.563,1.563,0,0,0,1.455,1.54H1110l.471,1.754h-2.16A3.237,3.237,0,0,1,1105.057,730.144Z" transform="translate(-1035.132 -718.166)" fill="#fff"/>
      <path id="Trazado_35036" data-name="Trazado 35036" d="M1120.481,720.721a1.209,1.209,0,0,1,2.417,0,1.209,1.209,0,1,1-2.417,0Zm.3,2.8h1.839v9.8h-1.839Z" transform="translate(-1039.564 -718.09)" fill="#fff"/>
      <path id="Trazado_35037" data-name="Trazado 35037" d="M1141.046,732.785a7.719,7.719,0,0,1-.535.621,5.192,5.192,0,0,1-7.251,0,5.166,5.166,0,0,1,0-7.274,5.191,5.191,0,0,1,7.251,0,4.536,4.536,0,0,1,.513.6l-1.476,1.091a3.3,3.3,0,1,0-2.651,5.262,3.268,3.268,0,0,0,2.651-1.391Z" transform="translate(-1042.527 -719.438)" fill="#fff"/>
      <path id="Trazado_35038" data-name="Trazado 35038" d="M1159.822,724.872h1.839v9.8h-1.839v-1.133a5.268,5.268,0,0,1-3.295,1.347,5.113,5.113,0,1,1,0-10.225,5.269,5.269,0,0,1,3.295,1.348Zm0,4.9a3.294,3.294,0,1,0-3.295,3.315A3.314,3.314,0,0,0,1159.822,729.769Z" transform="translate(-1047.682 -719.438)" fill="#fff"/>
    </g>
  </g>
</svg>
