<svg xmlns="http://www.w3.org/2000/svg" xmlns:xlink="http://www.w3.org/1999/xlink" width="96.061" height="76.849" viewBox="0 0 96.061 76.849">
  <defs>
    <clipPath id="clip-path">
      <rect id="Rect치ngulo_3133" data-name="Rect치ngulo 3133" width="52.211" height="44.38" fill="none"/>
    </clipPath>
  </defs>
  <g id="Grupo_6036" data-name="Grupo 6036" transform="translate(0.133 -0.094)">
    <rect id="Rect치ngulo_2732" data-name="Rect치ngulo 2732" width="96.061" height="76.849" transform="translate(-0.133 0.094)" fill="none"/>
    <g id="Grupo_6170" data-name="Grupo 6170" transform="translate(21.867 16.094)">
      <g id="Grupo_6169" data-name="Grupo 6169" clip-path="url(#clip-path)">
        <path id="Trazado_40353" data-name="Trazado 40353" d="M17.6,0H34.615a12.628,12.628,0,0,1,3.943.387,7.829,7.829,0,0,1,2.829,1.641A12.636,12.636,0,0,1,43.679,5.26l.151.265L46.784,10.7l1.145-.954a2.611,2.611,0,0,1,3.343,4.011L49.415,15.3l.25.437.095.165a22.616,22.616,0,0,1,1.6,3.116,13.06,13.06,0,0,1,.694,2.615,22.6,22.6,0,0,1,.158,3.5V37.676c0,.659,0,1.3-.044,1.844a5.282,5.282,0,0,1-.525,2.01,5.221,5.221,0,0,1-2.282,2.282,5.275,5.275,0,0,1-2.01.525c-.543.045-1.185.044-1.844.044H43.251c-.659,0-1.3,0-1.844-.044a5.276,5.276,0,0,1-2.01-.525,5.223,5.223,0,0,1-2.282-2.282,5.276,5.276,0,0,1-.525-2.01c-.01-.116-.017-.237-.023-.361H15.642c-.006.124-.013.245-.023.361a5.279,5.279,0,0,1-.525,2.01,5.222,5.222,0,0,1-2.282,2.282,5.275,5.275,0,0,1-2.01.525c-.543.045-1.185.044-1.844.044H6.7c-.659,0-1.3,0-1.844-.044a5.274,5.274,0,0,1-2.009-.525A5.22,5.22,0,0,1,.569,41.529a5.278,5.278,0,0,1-.525-2.01C0,38.976,0,38.334,0,37.676V25.131a22.593,22.593,0,0,1,.158-3.5,13.052,13.052,0,0,1,.694-2.615,22.592,22.592,0,0,1,1.6-3.116l.094-.165L2.8,15.3.939,13.753A2.611,2.611,0,0,1,4.282,9.742l1.144.953L8.381,5.525l.151-.265a12.626,12.626,0,0,1,2.292-3.232A7.83,7.83,0,0,1,13.652.387,12.629,12.629,0,0,1,17.6,0ZM6.869,18.695a16.527,16.527,0,0,0-1.137,2.18,7.836,7.836,0,0,0-.417,1.569,19.931,19.931,0,0,0-.095,2.879V37.592c0,.774,0,1.2.027,1.5l0,.034.034,0c.3.025.728.027,1.5.027H8.876c.774,0,1.2,0,1.5-.027l.034,0c0-.011,0-.022,0-.034.025-.3.027-.728.027-1.5V36.548a2.611,2.611,0,0,1,2.611-2.611H39.158a2.611,2.611,0,0,1,2.61,2.611v1.044c0,.774,0,1.2.027,1.5l0,.034.035,0c.3.025.728.027,1.5.027h2.088c.774,0,1.2,0,1.5-.027l.034,0c0-.011,0-.022,0-.034.025-.3.027-.728.027-1.5V25.322a19.923,19.923,0,0,0-.095-2.879,7.82,7.82,0,0,0-.417-1.569,16.485,16.485,0,0,0-1.136-2.179l-1.9,1.585a2.61,2.61,0,0,1-1.671.605H10.442a2.611,2.611,0,0,1-1.671-.605Zm35.842-4.6L39.3,8.115A10.161,10.161,0,0,0,37.881,5.9a2.611,2.611,0,0,0-.943-.547,10.17,10.17,0,0,0-2.628-.129H17.9a10.169,10.169,0,0,0-2.628.129,2.611,2.611,0,0,0-.943.547,10.167,10.167,0,0,0-1.416,2.218L9.5,14.09l1.888,1.573H40.824ZM10.442,27.411a3.916,3.916,0,1,1,3.916,3.916,3.916,3.916,0,0,1-3.916-3.916m23.495,0a3.916,3.916,0,1,1,3.916,3.916A3.916,3.916,0,0,1,33.937,27.411Z" transform="translate(0 0)" fill="#fff"/>
      </g>
    </g>
  </g>
</svg>
