<svg id="entidades_financiueras" xmlns="http://www.w3.org/2000/svg" width="103.071" height="82.457" viewBox="0 0 103.071 82.457">
  <rect id="Rectángulo_2732" data-name="Rectángulo 2732" width="103.071" height="82.457" fill="none"/>
  <path id="currency_exchange_FILL0_wght400_GRAD0_opsz48" d="M25.564,49.127A21.293,21.293,0,0,1,14,45.593a30.631,30.631,0,0,1-8.783-8.087v7.337H2V31.99H14.853V35.2H7.516a26.421,26.421,0,0,0,7.792,7.417,18.629,18.629,0,0,0,10.256,3.294,19.719,19.719,0,0,0,7.9-1.607A20.4,20.4,0,0,0,44.307,33.463a19.719,19.719,0,0,0,1.607-7.9h3.213a22.877,22.877,0,0,1-1.848,9.158A23.745,23.745,0,0,1,34.721,47.28,22.877,22.877,0,0,1,25.564,49.127Zm-1.553-8.194V38.042a9.978,9.978,0,0,1-4.043-2.062A11.214,11.214,0,0,1,17.209,32.1l2.731-.91A6.108,6.108,0,0,0,22.217,34.4a6.2,6.2,0,0,0,3.722,1.178A5.848,5.848,0,0,0,29.5,34.534a3.263,3.263,0,0,0,1.419-2.758A3.842,3.842,0,0,0,29.58,28.8a18.6,18.6,0,0,0-4.927-2.7,15.567,15.567,0,0,1-4.82-2.892,5.54,5.54,0,0,1-1.607-4.177,5.565,5.565,0,0,1,1.607-4.017,7.131,7.131,0,0,1,4.284-2.035V10.247h2.945v2.731A7.274,7.274,0,0,1,30.6,14.264a7.62,7.62,0,0,1,2.41,2.945l-2.571,1.232a5.865,5.865,0,0,0-1.981-2.249,5.076,5.076,0,0,0-2.785-.75,5.132,5.132,0,0,0-3.294.964,3.181,3.181,0,0,0-1.2,2.624,3.213,3.213,0,0,0,1.392,2.731,22.983,22.983,0,0,0,4.5,2.3,14.933,14.933,0,0,1,5.248,3.267,6.364,6.364,0,0,1,1.553,4.445,6.189,6.189,0,0,1-.482,2.463,5.5,5.5,0,0,1-1.366,1.928,7.034,7.034,0,0,1-2.169,1.312,10.739,10.739,0,0,1-2.892.669v2.785ZM2,25.564a22.877,22.877,0,0,1,1.848-9.158A23.745,23.745,0,0,1,16.406,3.848,22.877,22.877,0,0,1,25.564,2,21.293,21.293,0,0,1,37.131,5.535a30.631,30.631,0,0,1,8.783,8.087V6.284h3.213V19.137H36.274V15.924h7.337a26.524,26.524,0,0,0-7.765-7.417A18.58,18.58,0,0,0,25.564,5.213a19.719,19.719,0,0,0-7.9,1.607A20.4,20.4,0,0,0,6.82,17.664a19.719,19.719,0,0,0-1.607,7.9Z" transform="translate(26.587 15.657)" fill="#fff"/>
</svg>
