<svg id="departamental" xmlns="http://www.w3.org/2000/svg" width="97.194" height="77.755" viewBox="0 0 97.194 77.755">
  <rect id="Rectángulo_2732" data-name="Rectángulo 2732" width="97.194" height="77.755" fill="none"/>
  <path id="local_mall_FILL0_wght400_GRAD0_opsz48" d="M9.339,48.742a3.2,3.2,0,0,1-2.337-1A3.2,3.2,0,0,1,6,45.4V15.911a3.2,3.2,0,0,1,1-2.337,3.2,3.2,0,0,1,2.337-1H15.46a10.441,10.441,0,0,1,2.949-7.484A9.741,9.741,0,0,1,25.754,2a10.66,10.66,0,0,1,7.623,3.088,9.976,9.976,0,0,1,3.227,7.484h6.121a3.423,3.423,0,0,1,3.339,3.339V45.4a3.423,3.423,0,0,1-3.339,3.339Zm0-3.339H42.726V15.911H9.339ZM26.032,29.266a10.425,10.425,0,0,0,7.623-3.227,10.425,10.425,0,0,0,3.227-7.623H33.545A7.222,7.222,0,0,1,31.319,23.7a7.39,7.39,0,0,1-10.573,0,7.222,7.222,0,0,1-2.226-5.286H15.182a10.425,10.425,0,0,0,3.227,7.623A10.425,10.425,0,0,0,26.032,29.266ZM18.8,12.573H33.266a7.127,7.127,0,0,0-7.234-7.234A7.127,7.127,0,0,0,18.8,12.573ZM9.339,45.4v0Z" transform="translate(22.543 10.936)" fill="#fff"/>
</svg>
