<svg xmlns="http://www.w3.org/2000/svg" xmlns:xlink="http://www.w3.org/1999/xlink" width="96.061" height="76.849" viewBox="0 0 96.061 76.849">
  <defs>
    <clipPath id="clip-path">
      <rect id="Rect치ngulo_3132" data-name="Rect치ngulo 3132" width="57.143" height="48.197" fill="none"/>
    </clipPath>
  </defs>
  <g id="Grupo_6036" data-name="Grupo 6036" transform="translate(0.133 -0.094)">
    <rect id="Rect치ngulo_2732" data-name="Rect치ngulo 2732" width="96.061" height="76.849" transform="translate(-0.133 0.094)" fill="none"/>
    <g id="Grupo_6168" data-name="Grupo 6168" transform="translate(19.867 14.094)">
      <g id="Grupo_6168-2" data-name="Grupo 6168" clip-path="url(#clip-path)">
        <path id="Trazado_40352" data-name="Trazado 40352" d="M55.5,4.041h0c-1.315-.1-2.634-.154-3.931-.151V1.9A1.785,1.785,0,0,0,49.92.117,32.934,32.934,0,0,0,32,3.692,37.407,37.407,0,0,0,28.571,5.7a37.042,37.042,0,0,0-3.437-2.013A32.944,32.944,0,0,0,7.223.117,1.785,1.785,0,0,0,5.577,1.9V3.89c-1.3,0-2.616.047-3.931.151A1.784,1.784,0,0,0,0,5.822V39.276a1.785,1.785,0,0,0,1.785,1.786q.071,0,.141-.006C10.592,40.374,19.3,42.687,27.8,47.93a1.779,1.779,0,0,0,1.875,0c8.595-5.3,16.951-7.55,25.546-6.874a1.785,1.785,0,0,0,1.92-1.64q.006-.07.006-.14V5.821A1.784,1.784,0,0,0,55.5,4.041M26.786,35.665a32.978,32.978,0,0,0-16.8-4.586q-.416,0-.833.01V3.59A29.316,29.316,0,0,1,23.5,6.861,33.929,33.929,0,0,1,26.786,8.8Zm21.208-4.576a32.98,32.98,0,0,0-17.637,4.575V8.8A33.717,33.717,0,0,1,33.63,6.868,29.331,29.331,0,0,1,47.994,3.59Z" transform="translate(0 0)" fill="#fff"/>
      </g>
    </g>
  </g>
</svg>
