<svg xmlns="http://www.w3.org/2000/svg" xmlns:xlink="http://www.w3.org/1999/xlink" width="96.061" height="76.849" viewBox="0 0 96.061 76.849">
  <defs>
    <clipPath id="clip-path">
      <rect id="Rect치ngulo_3134" data-name="Rect치ngulo 3134" width="46.217" height="46.418" fill="none"/>
    </clipPath>
  </defs>
  <g id="Grupo_6036" data-name="Grupo 6036" transform="translate(0.133 -0.094)">
    <rect id="Rect치ngulo_2732" data-name="Rect치ngulo 2732" width="96.061" height="76.849" transform="translate(-0.133 0.094)" fill="none"/>
    <g id="Grupo_6172" data-name="Grupo 6172" transform="translate(24.867 15.094)">
      <g id="Grupo_6171" data-name="Grupo 6171" clip-path="url(#clip-path)">
        <path id="Trazado_40354" data-name="Trazado 40354" d="M45.425.745a2.211,2.211,0,0,0-3.31,0l-4.3,4.3c-5.3-3.641-11.915-.993-14.231,1.324l-3.31,3.641a2.211,2.211,0,0,0,0,3.31L33.179,26.229a2.528,2.528,0,0,0,1.655.662,3.494,3.494,0,0,0,1.655-.662l3.64-3.64c2.317-2.317,4.964-8.936,1.324-14.232l4.3-4.3a2.546,2.546,0,0,0-.331-3.31M36.489,19.279,34.5,21.264l-9.6-9.6,1.986-1.986c.993-.993,5.957-3.641,9.6,0S37.151,18.286,36.489,19.279ZM24.9,26.229l-2.979,2.979-4.964-4.964,2.979-2.979a2.211,2.211,0,0,0,0-3.31,2.211,2.211,0,0,0-3.31,0l-2.979,2.979L12.99,20.6a2.211,2.211,0,0,0-3.31,0l-3.31,3.31c-2.317,2.317-4.964,8.936-1.324,14.231l-4.3,4.3a2.211,2.211,0,0,0,0,3.31c0,.331.662.662,1.324.662s.993-.331,1.655-.662l4.3-4.3a13.486,13.486,0,0,0,5.957,1.655,11.951,11.951,0,0,0,8.274-3.31l3.31-3.31a2.211,2.211,0,0,0,0-3.31l-.662-.331,2.979-2.979a2.211,2.211,0,0,0,0-3.31C26.891,25.567,25.567,25.236,24.9,26.229ZM18.948,36.82c-.993.993-5.957,3.31-9.6,0s-.993-8.605,0-9.6l1.986-1.986,9.6,9.6Z" fill="#fff"/>
      </g>
    </g>
  </g>
</svg>
