<svg xmlns="http://www.w3.org/2000/svg" xmlns:xlink="http://www.w3.org/1999/xlink" width="96.061" height="76.849" viewBox="0 0 96.061 76.849">
  <defs>
    <clipPath id="clip-path">
      <path id="Trazado_40351" data-name="Trazado 40351" d="M0,0H40.871V40.871H0Z" fill="none"/>
    </clipPath>
  </defs>
  <g id="Grupo_6036" data-name="Grupo 6036" transform="translate(0.133 -0.094)">
    <rect id="Rectángulo_2732" data-name="Rectángulo 2732" width="96.061" height="76.849" transform="translate(-0.133 0.094)" fill="none"/>
    <g id="code_12619984" transform="translate(27.867 18.094)" clip-path="url(#clip-path)">
      <path id="Trazado_40346" data-name="Trazado 40346" d="M1.7,17a1.7,1.7,0,0,1,1.7,1.7v1.7a5.129,5.129,0,0,0,5.109,5.109H32.356a5.129,5.129,0,0,0,5.109-5.109V18.7a1.7,1.7,0,1,1,3.406,0v1.7a8.535,8.535,0,0,1-8.515,8.515H8.515A8.535,8.535,0,0,1,0,20.406V18.7A1.7,1.7,0,0,1,1.7,17Z" transform="translate(0 11.95)" fill="#fff" fill-rule="evenodd"/>
      <path id="Trazado_40347" data-name="Trazado 40347" d="M0,8.515A8.535,8.535,0,0,1,8.515,0H32.356a8.535,8.535,0,0,1,8.515,8.515v1.7a1.7,1.7,0,1,1-3.406,0v-1.7a5.129,5.129,0,0,0-5.109-5.109H8.515A5.129,5.129,0,0,0,3.406,8.515v1.7a1.7,1.7,0,1,1-3.406,0Z" fill="#fff" fill-rule="evenodd"/>
      <path id="Trazado_40348" data-name="Trazado 40348" d="M11.548,7.639a1.7,1.7,0,0,1-.266,2.394L4.429,15.515,11.282,21a1.7,1.7,0,0,1-2.128,2.66L.639,16.845a1.7,1.7,0,0,1,0-2.66L9.154,7.373a1.7,1.7,0,0,1,2.394.266Z" transform="translate(0 4.921)" fill="#fff" fill-rule="evenodd"/>
      <path id="Trazado_40349" data-name="Trazado 40349" d="M17.373,7.639a1.7,1.7,0,0,1,2.394-.266l8.515,6.812a1.7,1.7,0,0,1,0,2.66l-8.515,6.812A1.7,1.7,0,1,1,17.639,21l6.853-5.482-6.853-5.482a1.7,1.7,0,0,1-.266-2.394Z" transform="translate(11.95 4.921)" fill="#fff" fill-rule="evenodd"/>
      <path id="Trazado_40350" data-name="Trazado 40350" d="M17.983,4.066a1.7,1.7,0,0,1,1.17,2.105L12.341,30.012a1.7,1.7,0,0,1-3.275-.936L15.878,5.235A1.7,1.7,0,0,1,17.983,4.066Z" transform="translate(6.326 2.812)" fill="#fff" fill-rule="evenodd"/>
    </g>
  </g>
</svg>
