<svg id="Grupo_6036" data-name="Grupo 6036" xmlns="http://www.w3.org/2000/svg" width="96.061" height="76.849" viewBox="0 0 96.061 76.849">
  <rect id="Rectángulo_2732" data-name="Rectángulo 2732" width="96.061" height="76.849" fill="none"/>
  <path id="satellite_alt_FILL0_wght400_GRAD0_opsz48" d="M29.2,48.353V45.226A15.567,15.567,0,0,0,44.828,29.594h3.126a18.148,18.148,0,0,1-1.485,7.321,18.846,18.846,0,0,1-9.952,9.952A18.148,18.148,0,0,1,29.2,48.353Zm0-6.253V38.973a8.97,8.97,0,0,0,6.487-2.892,8.97,8.97,0,0,0,2.892-6.487H41.7a11.986,11.986,0,0,1-3.778,8.728A11.986,11.986,0,0,1,29.2,42.1ZM11.584,47.467a3.334,3.334,0,0,1-1.224-.234,2.921,2.921,0,0,1-1.016-.651L.486,37.723a2.921,2.921,0,0,1-.651-1.016A3.334,3.334,0,0,1-.4,35.482a3.135,3.135,0,0,1,.234-1.2,2.976,2.976,0,0,1,.651-.99l7.868-7.868a3,3,0,0,1,2.215-.886,3,3,0,0,1,2.215.886l3.335,3.335,1.928-1.928L14.711,23.5a3.146,3.146,0,0,1,0-4.377l3.908-3.908a3.211,3.211,0,0,1,4.429,0l3.335,3.335,1.928-1.928-3.335-3.335a3,3,0,0,1-.886-2.215,3,3,0,0,1,.886-2.215L32.844.988A3.115,3.115,0,0,1,35.084.05a3.48,3.48,0,0,1,1.2.208,2.84,2.84,0,0,1,1.042.677l8.858,8.858a2.84,2.84,0,0,1,.677,1.042,3.48,3.48,0,0,1,.208,1.2,3.043,3.043,0,0,1-.261,1.224,3.252,3.252,0,0,1-.677,1.016l-7.868,7.868a3.335,3.335,0,0,1-2.215,1.2,3.335,3.335,0,0,1-2.215-1.2L30.5,18.808l-1.928,1.928,3.335,3.335a2.918,2.918,0,0,1,.86,2.215,3.1,3.1,0,0,1-.912,2.215L28,32.356a3.211,3.211,0,0,1-4.429,0l-3.335-3.335-1.928,1.928,3.335,3.335a3.211,3.211,0,0,1,0,4.429l-7.868,7.868a2.976,2.976,0,0,1-.99.651,3.135,3.135,0,0,1-1.2.234Zm0-3.074L14.4,41.579,5.54,32.721,2.726,35.534Zm5.054-5.054,2.814-2.814-8.858-8.858L7.781,30.48Zm9.171-9.171,3.856-3.856-8.858-8.858-3.856,3.856ZM36.074,19.9l2.814-2.814L30.03,8.231l-2.814,2.814Zm5.054-5.054,2.814-2.814L35.084,3.176,32.271,5.99ZM23.308,23.81Z" transform="translate(24.693 14.055)" fill="#fff"/>
</svg>
