<svg xmlns="http://www.w3.org/2000/svg" xmlns:xlink="http://www.w3.org/1999/xlink" width="97.194" height="77.755" viewBox="0 0 97.194 77.755">
  <defs>
    <clipPath id="clip-path">
      <rect id="Rect치ngulo_3131" data-name="Rect치ngulo 3131" width="46.67" height="45.115" fill="none"/>
    </clipPath>
  </defs>
  <g id="departamental" transform="translate(0.133)">
    <rect id="Rect치ngulo_2732" data-name="Rect치ngulo 2732" width="97.194" height="77.755" transform="translate(-0.133)" fill="none"/>
    <g id="Grupo_6167" data-name="Grupo 6167" transform="translate(24.867 16)">
      <g id="Grupo_6167-2" data-name="Grupo 6167" clip-path="url(#clip-path)">
        <path id="Trazado_40343" data-name="Trazado 40343" d="M35,7.778V6.223A6.223,6.223,0,0,0,28.78,0H17.89a6.223,6.223,0,0,0-6.223,6.223V7.778H6.223A6.223,6.223,0,0,0,0,14V37.336a6.223,6.223,0,0,0,6.223,6.223H24.446a15.218,15.218,0,0,1-2.3-3.111H10.89V10.89H35.781V17.9a15.182,15.182,0,0,1,3.111.4V10.89h1.556A3.111,3.111,0,0,1,43.559,14v6.274a15.242,15.242,0,0,1,3.111,2.641V14a6.223,6.223,0,0,0-6.223-6.223Zm-20.224,0H31.891V6.223A3.111,3.111,0,0,0,28.78,3.111H17.89a3.112,3.112,0,0,0-3.111,3.111ZM6.223,10.89H7.778V40.448H6.223a3.111,3.111,0,0,1-3.111-3.111V14A3.111,3.111,0,0,1,6.223,10.89" fill="#fff" fill-rule="evenodd"/>
        <path id="Trazado_40344" data-name="Trazado 40344" d="M195.81,175.043a3.111,3.111,0,1,1,3.111,3.111,3.111,3.111,0,0,1-3.111-3.111" transform="translate(-163.919 -143.93)" fill="#fff"/>
        <path id="Trazado_40345" data-name="Trazado 40345" d="M157.6,143.059a9.334,9.334,0,1,1,18.668,0,19.65,19.65,0,0,1-2.469,8.58,13.891,13.891,0,0,1-2.8,3.685,5.625,5.625,0,0,1-8.128,0,13.891,13.891,0,0,1-2.8-3.685,19.65,19.65,0,0,1-2.469-8.58m9.334-6.223a6.223,6.223,0,0,0-6.223,6.223,16.635,16.635,0,0,0,2.087,7.087A10.831,10.831,0,0,0,164.947,153a2.571,2.571,0,0,0,3.983,0,10.832,10.832,0,0,0,2.144-2.857,16.635,16.635,0,0,0,2.087-7.087,6.223,6.223,0,0,0-6.223-6.223" transform="translate(-131.935 -111.945)" fill="#fff" fill-rule="evenodd"/>
      </g>
    </g>
  </g>
</svg>
