<svg xmlns="http://www.w3.org/2000/svg" width="48" height="48" viewBox="0 0 48 48">
  <g id="Grupo_4778" data-name="Grupo 4778" transform="translate(-11293 -3616)">
    <rect id="Rectángulo_2742" data-name="Rectángulo 2742" width="48" height="48" transform="translate(11293 3616)" fill="none"/>
    <g id="Grupo_4773" data-name="Grupo 4773" transform="translate(10229.361 4251.964)">
      <g id="Grupo_4766" data-name="Grupo 4766">
        <path id="Trazado_35985" data-name="Trazado 35985" d="M1101.768-605.25q-2-2.04-4.043-4.038a2.925,2.925,0,0,0-2.644-.878,3.533,3.533,0,0,0-1.9,1.091q-1.041,1.034-2.074,2.074c-.088.088-.153.17-.305.08-.455-.267-.935-.493-1.38-.776a22.362,22.362,0,0,1-4.326-3.659,18.087,18.087,0,0,1-3.241-4.484.313.313,0,0,1,.085-.437,30.927,30.927,0,0,0,2.449-2.475,2.924,2.924,0,0,0-.019-3.95c-.668-.771-1.42-1.46-2.135-2.184-.773-.783-1.519-1.594-2.358-2.308a2.971,2.971,0,0,0-3.939-.046,39.1,39.1,0,0,0-2.9,2.842,4.941,4.941,0,0,0-1.394,3.419,11.543,11.543,0,0,0,.712,4.218,32.194,32.194,0,0,0,9.46,13.523,31.321,31.321,0,0,0,7.023,4.654,18.908,18.908,0,0,0,4.836,1.713c.415.078.832.141,1.248.212h.183a.347.347,0,0,1,.428,0h.672c.016-.047.054-.05.1-.053a4.352,4.352,0,0,0,2.707-1.133c1.02-.964,2.028-1.95,2.947-3.008A3,3,0,0,0,1101.768-605.25Zm-1.035,3.419q-1.282,1.394-2.644,2.711a3.353,3.353,0,0,1-2.494.885,12.8,12.8,0,0,1-4.568-1.09,30.3,30.3,0,0,1-8.351-5.255,33.025,33.025,0,0,1-7.037-8.69,19.971,19.971,0,0,1-2.247-5.768,5.709,5.709,0,0,1,.084-3.131,3.62,3.62,0,0,1,.876-1.307c.751-.762,1.5-1.521,2.269-2.269a1.562,1.562,0,0,1,1.785-.506,2.119,2.119,0,0,1,.689.494c1.27,1.266,2.543,2.528,3.8,3.8a1.526,1.526,0,0,1,0,2.507c-.719.737-1.442,1.468-2.2,2.167a1.383,1.383,0,0,0-.377,1.905,18.735,18.735,0,0,0,3.482,4.977,23.537,23.537,0,0,0,5.218,4.337c.427.255.87.485,1.313.71a1.292,1.292,0,0,0,1.643-.261c.761-.752,1.513-1.512,2.271-2.266a4.325,4.325,0,0,1,.406-.371,1.37,1.37,0,0,1,1.91.068c1.4,1.369,2.783,2.748,4.147,4.149A1.44,1.44,0,0,1,1100.733-601.831Z" fill="#30096d"/>
        <path id="Trazado_35986" data-name="Trazado 35986" d="M1095.106-596.659h.428A.618.618,0,0,0,1095.106-596.659Z" fill="#30096d"/>
      </g>
    </g>
  </g>
</svg>
