<svg xmlns="http://www.w3.org/2000/svg" width="48" height="48" viewBox="0 0 48 48">
  <g id="Grupo_4776" data-name="Grupo 4776" transform="translate(-11293 -3731)">
    <rect id="Rectángulo_2742" data-name="Rectángulo 2742" width="48" height="48" transform="translate(11293 3731)" fill="none"/>
    <g id="Grupo_4775" data-name="Grupo 4775" transform="translate(10233.641 4172.156)">
      <g id="Grupo_4769" data-name="Grupo 4769" transform="translate(1067.359 -437.156)">
        <g id="Grupo_4768" data-name="Grupo 4768">
          <path id="Trazado_35987" data-name="Trazado 35987" d="M1098.116-425.313c-1.59-6.319-5.779-10.044-12.051-11.535-.592-.141-1.209-.132-1.794-.308h-.158a.1.1,0,0,1-.158,0h-.4a.6.6,0,0,1-.473,0h-.316a.607.607,0,0,1-.474,0h-.316c-.043.048-.1.039-.158.041s-.114.008-.158-.041h-.237a2.378,2.378,0,0,1-.935.178,15.663,15.663,0,0,0-8.113,3.833,14.433,14.433,0,0,0-4.995,10.282,18.008,18.008,0,0,0,3.874,12.128c2.239,2.955,4.594,5.822,6.9,8.728q1.887,2.38,3.781,4.756a1.183,1.183,0,0,0,1.976,0c.067-.081.133-.164.2-.246q4.566-5.745,9.137-11.487a25.337,25.337,0,0,0,3.7-5.746A16.26,16.26,0,0,0,1098.116-425.313Zm-1.969,3.8a16.459,16.459,0,0,1-3.88,9.947q-4.55,5.732-9.1,11.461c-.15.189-.23.308-.445.036-3.18-4.024-6.395-8.02-9.55-12.063a16.213,16.213,0,0,1-3.407-8.312c-.007-.065-.012-.132-.016-.2-.019-.395-.037-.789-.053-1.117a12.872,12.872,0,0,1,10.341-12.711,13.053,13.053,0,0,1,13.585,4.967A11.909,11.909,0,0,1,1096.147-421.508Z" transform="translate(-1067.359 437.156)" fill="#30096d"/>
          <path id="Trazado_35988" data-name="Trazado 35988" d="M1091.159-422.542q-3.422-2.891-6.836-5.79a1.273,1.273,0,0,0-1.979.01q-2.271,1.929-4.546,3.853c-.793.672-1.59,1.338-2.376,2.019a1.158,1.158,0,0,0-.246,1.561,1.178,1.178,0,0,0,1.566.387c.064-.031.116-.117.233-.053v.416q0,2.7,0,5.409c0,.98.441,1.425,1.417,1.426h9.87c1.008,0,1.439-.433,1.44-1.443q0-2.7,0-5.408v-.417c.14-.028.2.057.282.094a1.175,1.175,0,0,0,1.7-.9A1.24,1.24,0,0,0,1091.159-422.542Zm-4.186,6.876c-1.223-.018-2.448-.008-3.672-.008s-2.421-.008-3.632.007c-.261,0-.332-.072-.33-.331q.014-3.2,0-6.4a.551.551,0,0,1,.221-.468q1.8-1.51,3.582-3.036c.148-.128.236-.137.39,0q1.781,1.53,3.582,3.036a.587.587,0,0,1,.222.508c-.007,2.106-.01,4.211,0,6.317C1087.343-415.751,1087.276-415.661,1086.974-415.666Z" transform="translate(-1067.769 436.706)" fill="#30096d"/>
        </g>
      </g>
    </g>
  </g>
</svg>
