<svg xmlns="http://www.w3.org/2000/svg" width="48" height="48" viewBox="0 0 48 48">
  <g id="Grupo_4777" data-name="Grupo 4777" transform="translate(-11293 -3671)">
    <rect id="Rectángulo_2742" data-name="Rectángulo 2742" width="48" height="48" transform="translate(11293 3671)" fill="none"/>
    <g id="Grupo_4774" data-name="Grupo 4774" transform="translate(10230.573 4212.832)">
      <g id="Grupo_4771" data-name="Grupo 4771">
        <path id="Trazado_35989" data-name="Trazado 35989" d="M1099.889-527.321a16.116,16.116,0,0,0-12.933-7.476,15.61,15.61,0,0,0-9.917,2.678,16.157,16.157,0,0,0-7.433,12.709,15.846,15.846,0,0,0,2.033,9.094.592.592,0,0,1,.059.49c-.287,1.009-.559,2.022-.836,3.034-.474,1.733-.947,3.467-1.435,5.253.158-.037.258-.058.356-.084q4.067-1.064,8.131-2.134a.634.634,0,0,1,.492.05,16.333,16.333,0,0,0,12.23,1.238,16.554,16.554,0,0,0,11.889-14.681A15.986,15.986,0,0,0,1099.889-527.321Zm-8.422,21.585a13.311,13.311,0,0,1-12.458-.83,1.109,1.109,0,0,0-.934-.122c-1.511.418-3.03.806-4.547,1.2a.885.885,0,0,1-.135.009c.435-1.591.854-3.149,1.29-4.7a.7.7,0,0,0-.1-.638,13.347,13.347,0,0,1-2.212-8.249,13.384,13.384,0,0,1,5.2-10.012,13.44,13.44,0,0,1,9.152-2.956,13.733,13.733,0,0,1,12.839,11.313A13.613,13.613,0,0,1,1091.467-505.736Z" fill="#30096d"/>
        <path id="Trazado_35990" data-name="Trazado 35990" d="M1094.158-514.582c-1.153-.578-2.3-1.176-3.492-1.664a.637.637,0,0,0-.84.25c-.393.527-.824,1.026-1.234,1.541a.659.659,0,0,1-.856.21,11.329,11.329,0,0,1-5.646-4.847.661.661,0,0,1,.062-.876,11.6,11.6,0,0,0,1.02-1.354.712.712,0,0,0,.1-.689c-.47-1.127-.935-2.255-1.41-3.379a.788.788,0,0,0-.865-.548,3.535,3.535,0,0,1-.374,0,1.654,1.654,0,0,0-1.417.418,4.669,4.669,0,0,0-1.389,4.612,9.275,9.275,0,0,0,1.685,3.379,16.768,16.768,0,0,0,9.247,6.889,4.835,4.835,0,0,0,3.259-.041c1.861-.789,2.375-1.619,2.424-3.388A.5.5,0,0,0,1094.158-514.582Z" fill="#30096d"/>
      </g>
    </g>
  </g>
</svg>
