<svg xmlns="http://www.w3.org/2000/svg" width="122.587" height="98.07" viewBox="0 0 122.587 98.07">
  <g id="Grupo_5132" data-name="Grupo 5132" transform="translate(0.432 -0.206)">
    <rect id="Rectángulo_2732" data-name="Rectángulo 2732" width="122.587" height="98.07" transform="translate(-0.432 0.206)" fill="none"/>
    <path id="currency_exchange_FILL0_wght400_GRAD0_opsz48" d="M30.025,58.051a25.324,25.324,0,0,1-13.758-4.2A36.431,36.431,0,0,1,5.822,44.229v8.726H2V37.669H17.287V41.49H8.561a31.424,31.424,0,0,0,9.268,8.822,22.157,22.157,0,0,0,12.2,3.917,23.452,23.452,0,0,0,9.395-1.911,24.268,24.268,0,0,0,12.9-12.9,23.452,23.452,0,0,0,1.911-9.395h3.822a27.208,27.208,0,0,1-2.2,10.892A28.241,28.241,0,0,1,40.917,55.853,27.208,27.208,0,0,1,30.025,58.051Zm-1.847-9.745V44.866a11.867,11.867,0,0,1-4.809-2.452,13.337,13.337,0,0,1-3.28-4.618l3.248-1.083a7.264,7.264,0,0,0,2.707,3.822,7.377,7.377,0,0,0,4.427,1.4,6.955,6.955,0,0,0,4.236-1.242,3.881,3.881,0,0,0,1.688-3.28A4.569,4.569,0,0,0,34.8,33.879a22.12,22.12,0,0,0-5.86-3.217,18.515,18.515,0,0,1-5.732-3.439A6.59,6.59,0,0,1,21.3,22.255a6.618,6.618,0,0,1,1.911-4.777,8.481,8.481,0,0,1,5.1-2.42V11.809h3.5v3.248a8.652,8.652,0,0,1,4.2,1.529,9.063,9.063,0,0,1,2.866,3.5l-3.057,1.465a6.975,6.975,0,0,0-2.357-2.675,6.037,6.037,0,0,0-3.312-.892,6.1,6.1,0,0,0-3.917,1.146A3.783,3.783,0,0,0,24.8,22.255,3.822,3.822,0,0,0,26.459,25.5a27.335,27.335,0,0,0,5.35,2.739,17.761,17.761,0,0,1,6.242,3.885A7.57,7.57,0,0,1,39.9,37.414a7.36,7.36,0,0,1-.573,2.93A6.54,6.54,0,0,1,37.7,42.637a8.365,8.365,0,0,1-2.58,1.561,12.772,12.772,0,0,1-3.439.8v3.312ZM2,30.025A27.208,27.208,0,0,1,4.2,19.134,28.241,28.241,0,0,1,19.134,4.2,27.208,27.208,0,0,1,30.025,2,25.325,25.325,0,0,1,43.783,6.2a36.431,36.431,0,0,1,10.446,9.618V7.1h3.822V22.382H42.764V18.56H51.49a31.547,31.547,0,0,0-9.236-8.822A22.1,22.1,0,0,0,30.025,5.822a23.452,23.452,0,0,0-9.395,1.911,24.268,24.268,0,0,0-12.9,12.9,23.452,23.452,0,0,0-1.911,9.395Z" transform="translate(31.568 19.206)"/>
  </g>
</svg>
