<svg id="a2cc608a-7155-4705-9c64-9c498da78e5a" data-name="Capa 1" xmlns="http://www.w3.org/2000/svg" viewBox="0 0 151.25 121"><defs><style>.b8fc41af-4894-4169-a10b-989ab3aaa316{fill:none;}</style></defs><g id="b051f065-dc34-4b15-adac-34b78c7216c4" data-name="Grupo 5132"><rect id="ad29e322-ad38-4aa1-b4e2-980b67aa966a" data-name="Rectángulo 2732" class="b8fc41af-4894-4169-a10b-989ab3aaa316" width="151.25" height="121"/><path id="ad75e3b2-3f8e-4991-955d-6c1241774edd" data-name="currency exchange FILL0 wght400 GRAD0 opsz48" d="M62.2,83.6a31.28,31.28,0,0,1-17-5.18A45.06,45.06,0,0,1,32.33,66.55V77.31H27.62V58.45H46.48v4.72H35.71A38.79,38.79,0,0,0,47.15,74.05,27.38,27.38,0,0,0,62.2,78.89a29,29,0,0,0,11.59-2.36A29.92,29.92,0,0,0,89.71,60.61,29,29,0,0,0,92.07,49h4.71a33.57,33.57,0,0,1-2.71,13.44A34.85,34.85,0,0,1,75.63,80.89,33.52,33.52,0,0,1,62.2,83.6Zm-2.28-12V67.33a14.64,14.64,0,0,1-5.94-3,16.39,16.39,0,0,1-4-5.7l4-1.34A9,9,0,0,0,57.28,62a9.17,9.17,0,0,0,5.47,1.73A8.6,8.6,0,0,0,68,62.19a4.83,4.83,0,0,0,2.09-4,5.64,5.64,0,0,0-2-4.36,27.56,27.56,0,0,0-7.23-4,22.73,22.73,0,0,1-7.07-4.24,8.13,8.13,0,0,1-2.36-6.13,8.17,8.17,0,0,1,2.36-5.9,10.41,10.41,0,0,1,6.29-3v-4H64.4v4a10.75,10.75,0,0,1,5.18,1.89,11.18,11.18,0,0,1,3.54,4.32l-3.77,1.81a8.58,8.58,0,0,0-2.91-3.3,7.38,7.38,0,0,0-4.09-1.1,7.52,7.52,0,0,0-4.83,1.41,5,5,0,0,0,.28,7.86,33.42,33.42,0,0,0,6.6,3.38,21.9,21.9,0,0,1,7.7,4.79,9.35,9.35,0,0,1,2.28,6.53,9.12,9.12,0,0,1-.71,3.61,8,8,0,0,1-2,2.83,10.32,10.32,0,0,1-3.19,1.93,15.86,15.86,0,0,1-4.24,1v4.08ZM27.62,49a33.48,33.48,0,0,1,2.71-13.43A34.83,34.83,0,0,1,48.76,17.16,33.71,33.71,0,0,1,62.2,14.44a31.34,31.34,0,0,1,17,5.19A45,45,0,0,1,92.06,31.49V20.74h4.71V39.59H77.91V34.88H88.68A38.94,38.94,0,0,0,77.28,24,27.23,27.23,0,0,0,62.2,19.16a28.9,28.9,0,0,0-11.6,2.36A29.92,29.92,0,0,0,34.69,37.43,28.9,28.9,0,0,0,32.33,49Z" transform="translate(14.33 11.47)"/></g></svg>