<svg xmlns="http://www.w3.org/2000/svg" width="122.587" height="98.07" viewBox="0 0 122.587 98.07">
  <g id="Grupo_5626" data-name="Grupo 5626" transform="translate(-1600 -3648.794)">
    <rect id="Rectángulo_2732" data-name="Rectángulo 2732" width="122.587" height="98.07" transform="translate(1600 3648.794)" fill="none"/>
    <path id="acute_FILL0_wght400_GRAD0_opsz48" d="M45.08,57.234A23.759,23.759,0,0,1,27.617,50.08a23.759,23.759,0,0,1-7.154-17.463,23.759,23.759,0,0,1,7.154-17.463A23.759,23.759,0,0,1,45.08,8a23.759,23.759,0,0,1,17.463,7.154A23.759,23.759,0,0,1,69.7,32.617,23.759,23.759,0,0,1,62.543,50.08,23.759,23.759,0,0,1,45.08,57.234Zm0-4.616a19.28,19.28,0,0,0,14.155-5.847,19.28,19.28,0,0,0,5.847-14.155,19.28,19.28,0,0,0-5.847-14.155A19.28,19.28,0,0,0,45.08,12.616a19.28,19.28,0,0,0-14.155,5.847,19.28,19.28,0,0,0-5.847,14.155,19.28,19.28,0,0,0,5.847,14.155A19.28,19.28,0,0,0,45.08,52.619Zm7.847-9,3.231-3.231-8.693-8.77-.077-11.309H42.772V33.54Zm-47.85-21V18H17.386v4.616ZM2,34.925V30.309H17.386v4.616ZM5.077,47.234V42.618H17.386v4.616ZM45.08,32.617Z" transform="translate(1626 3668.766)" fill="#13022d"/>
  </g>
</svg>
