<svg id="a832995f-7858-4da8-9555-ab589687f025" data-name="Capa 1" xmlns="http://www.w3.org/2000/svg" viewBox="0 0 151.25 121"><defs><style>.b6ab03df-fc63-499b-91e4-a1ee7bd93d22{fill:none;}.a87fcdef-b823-4a9e-bf73-c9445ba88f59{fill:#13022d;}</style></defs><g id="b8effb78-4474-455f-b09b-2d5cca8349cd" data-name="Grupo 5626"><rect id="e337e533-313b-43b6-9106-5e156a1ba444" data-name="Rectángulo 2732" class="b6ab03df-fc63-499b-91e4-a1ee7bd93d22" width="151.25" height="121"/><path id="b0efd251-2900-4047-aed3-7854f4276145" data-name="acute FILL0 wght400 GRAD0 opsz48" class="a87fcdef-b823-4a9e-bf73-c9445ba88f59" d="M73.37,83.79A30.12,30.12,0,0,1,43,53.42,30.12,30.12,0,0,1,73.37,23.05a30.13,30.13,0,0,1,30.37,30.37A30.13,30.13,0,0,1,73.37,83.79Zm0-5.69A24.65,24.65,0,0,0,98.05,53.42,24.63,24.63,0,0,0,73.37,28.74,24.63,24.63,0,0,0,48.69,53.42,24.62,24.62,0,0,0,73.37,78.1ZM83.05,67l4-4L76.31,52.19l-.09-14h-5.7V54.56ZM24,41.08V35.39H39.2v5.69ZM20.22,56.27v-5.7h19v5.7ZM24,71.45V65.76H39.2v5.69Z" transform="translate(14.33 11.47)"/></g></svg>