<svg id="b24e0e40-4ee8-4de0-8e57-3cc323d5da56" data-name="Capa 1" xmlns="http://www.w3.org/2000/svg" viewBox="0 0 151.25 121"><defs><style>.a6d35e93-c688-4801-a009-5fa24b47f47d{fill:none;}.b2927e6d-4b26-496b-bfbe-2991c9e337e5{fill:#13022d;}</style></defs><g id="afb7814b-129a-4c6d-9d17-2d10b73e21b3" data-name="Grupo 5621"><g id="a70ecb31-6484-4c02-a125-9b87e940c1ae" data-name="voz"><rect id="fa210543-34a2-49ce-a0f7-85f4f03b0620" data-name="Rectángulo 2732" class="a6d35e93-c688-4801-a009-5fa24b47f47d" width="151.25" height="121"/></g><path id="e85c3975-9fcf-4a3b-b88d-42213d3d5345" data-name="verified user FILL0 wght400 GRAD0 opsz48" class="b2927e6d-4b26-496b-bfbe-2991c9e337e5" d="M57.68,62.82,81.49,39l-4.38-4.29L58,53.84,47.44,43.29l-4.59,4.59Zm4.6,27.78q-14.62-3.64-24-17a49.57,49.57,0,0,1-9.4-29.19V19.58L62.28,7,95.7,19.58V44.44a49.57,49.57,0,0,1-9.4,29.19Q76.9,87,62.28,90.6Zm0-6.47a37.7,37.7,0,0,0,19.58-15,42.57,42.57,0,0,0,7.57-24.7V24L62.28,13.73,35.12,24V44.44a42.64,42.64,0,0,0,7.57,24.7A37.69,37.69,0,0,0,62.28,84.13Z" transform="translate(14.33 11.47)"/></g></svg>