<svg xmlns="http://www.w3.org/2000/svg" width="122.587" height="98.07" viewBox="0 0 122.587 98.07">
  <g id="Grupo_5621" data-name="Grupo 5621" transform="translate(-985 -3649)">
    <g id="voz" transform="translate(985 3649)">
      <rect id="Rectángulo_2732" data-name="Rectángulo 2732" width="122.587" height="98.07" fill="none"/>
    </g>
    <path id="verified_user_FILL0_wght400_GRAD0_opsz48" d="M31.365,49.157l19.3-19.3-3.556-3.471L31.619,41.876l-8.55-8.55-3.725,3.725ZM35.09,71.676Q23.238,68.713,15.619,57.919A40.152,40.152,0,0,1,8,34.257V14.109L35.09,3.95l27.09,10.159V34.257a40.152,40.152,0,0,1-7.619,23.662Q46.942,68.713,35.09,71.676Zm0-5.249A30.541,30.541,0,0,0,50.964,54.279,34.54,34.54,0,0,0,57.1,34.257V17.664L35.09,9.368l-22.011,8.3V34.257a34.54,34.54,0,0,0,6.138,20.021A30.541,30.541,0,0,0,35.09,66.427ZM35.09,37.9Z" transform="translate(1012 3660.05)" fill="#13022d"/>
  </g>
</svg>
