<svg xmlns="http://www.w3.org/2000/svg" width="122.587" height="98.07" viewBox="0 0 122.587 98.07">
  <g id="Grupo_5132" data-name="Grupo 5132" transform="translate(0.389)">
    <rect id="Rectángulo_2732" data-name="Rectángulo 2732" width="122.587" height="98.07" transform="translate(-0.389)" fill="none"/>
    <path id="support_agent_FILL0_wght400_GRAD0_opsz48" d="M32.176,62.353v-4.7H58.787V33.863a20.382,20.382,0,0,0-1.957-8.727,25.1,25.1,0,0,0-5.244-7.4,26.117,26.117,0,0,0-7.514-5.127,21,21,0,0,0-17.532,0,26.118,26.118,0,0,0-7.514,5.127,25.1,25.1,0,0,0-5.244,7.4,20.382,20.382,0,0,0-1.957,8.727v19.1H10.261a6.029,6.029,0,0,1-4.422-1.839A6.029,6.029,0,0,1,4,46.7V40.438a5.83,5.83,0,0,1,.861-3.17,6.873,6.873,0,0,1,2.27-2.231l.235-4.148a28.4,28.4,0,0,1,3.248-10.331,27.5,27.5,0,0,1,6.34-7.827,28.488,28.488,0,0,1,8.531-4.97,28.493,28.493,0,0,1,19.723,0A27.559,27.559,0,0,1,53.7,12.77,28.586,28.586,0,0,1,60,20.6a27.954,27.954,0,0,1,3.248,10.214l.235,4.07a5.695,5.695,0,0,1,3.131,5.087v7.2a5.494,5.494,0,0,1-.861,3.052,5.689,5.689,0,0,1-2.27,2.035v5.4a4.677,4.677,0,0,1-4.7,4.7Zm-6.261-22.7a2.253,2.253,0,0,1-1.644-.7,2.342,2.342,0,0,1-.7-1.722,2.127,2.127,0,0,1,.7-1.6,2.414,2.414,0,0,1,1.722-.665,2.187,2.187,0,0,1,1.6.665,2.281,2.281,0,0,1,.665,1.683,2.318,2.318,0,0,1-.665,1.644A2.215,2.215,0,0,1,25.915,39.655Zm18.784,0a2.253,2.253,0,0,1-1.644-.7,2.342,2.342,0,0,1-.7-1.722,2.127,2.127,0,0,1,.7-1.6,2.414,2.414,0,0,1,1.722-.665,2.187,2.187,0,0,1,1.6.665,2.281,2.281,0,0,1,.665,1.683,2.318,2.318,0,0,1-.665,1.644A2.215,2.215,0,0,1,44.7,39.655Zm-28.1-4.07a17.952,17.952,0,0,1,1.291-8.375,19.373,19.373,0,0,1,4.3-6.379,19.453,19.453,0,0,1,13.266-5.44,16.948,16.948,0,0,1,11.975,4.5,19.051,19.051,0,0,1,5.948,11.231,22.634,22.634,0,0,1-12.953-3.953,26.047,26.047,0,0,1-8.649-10.057A25,25,0,0,1,26.5,28.345,24.356,24.356,0,0,1,16.6,35.585Z" transform="translate(25.611 12.853)" fill="#13022d"/>
  </g>
</svg>
