<svg xmlns="http://www.w3.org/2000/svg" width="122.587" height="98.07" viewBox="0 0 122.587 98.07">
  <g id="Grupo_5132" data-name="Grupo 5132" transform="translate(0.324 -0.206)">
    <rect id="Rectángulo_2732" data-name="Rectángulo 2732" width="122.587" height="98.07" transform="translate(-0.324 0.206)" fill="none"/>
    <path id="satellite_alt_FILL0_wght400_GRAD0_opsz48" d="M37.369,61.691V57.7A19.865,19.865,0,0,0,57.317,37.753h3.99a23.159,23.159,0,0,1-1.9,9.343,24.049,24.049,0,0,1-12.7,12.7A23.159,23.159,0,0,1,37.369,61.691Zm0-7.979v-3.99a11.447,11.447,0,0,0,8.279-3.69,11.447,11.447,0,0,0,3.69-8.279h3.99A15.3,15.3,0,0,1,48.507,48.89,15.3,15.3,0,0,1,37.369,53.711ZM14.894,60.56a4.254,4.254,0,0,1-1.563-.3,3.727,3.727,0,0,1-1.3-.831L.73,48.126a3.727,3.727,0,0,1-.831-1.3,4.254,4.254,0,0,1-.3-1.563,4,4,0,0,1,.3-1.529A3.8,3.8,0,0,1,.73,42.474L10.771,32.433A3.834,3.834,0,0,1,13.6,31.3a3.834,3.834,0,0,1,2.826,1.13l4.256,4.256,2.46-2.46-4.256-4.256a4.015,4.015,0,0,1,0-5.586L23.871,19.4a4.1,4.1,0,0,1,5.652,0l4.256,4.256,2.46-2.46L31.983,16.94a3.834,3.834,0,0,1-1.13-2.826,3.834,3.834,0,0,1,1.13-2.826L42.024,1.247A3.975,3.975,0,0,1,44.883.05a4.44,4.44,0,0,1,1.529.266,3.624,3.624,0,0,1,1.33.864l11.3,11.3a3.624,3.624,0,0,1,.864,1.33,4.44,4.44,0,0,1,.266,1.529,3.884,3.884,0,0,1-.332,1.563,4.149,4.149,0,0,1-.864,1.3L48.939,28.244a4.255,4.255,0,0,1-2.826,1.529,4.255,4.255,0,0,1-2.826-1.529l-4.256-4.256-2.46,2.46L40.827,30.7a3.724,3.724,0,0,1,1.1,2.826,3.951,3.951,0,0,1-1.164,2.826L35.84,41.277a4.1,4.1,0,0,1-5.652,0l-4.256-4.256-2.46,2.46,4.256,4.256a4.1,4.1,0,0,1,0,5.652L17.687,59.43a3.8,3.8,0,0,1-1.263.831,4,4,0,0,1-1.529.3Zm0-3.923,3.591-3.591-11.3-11.3L3.59,45.333Zm6.45-6.45L24.934,46.6l-11.3-11.3L10.04,38.883Zm11.7-11.7,4.921-4.921-11.3-11.3L21.743,27.18Zm13.1-13.1,3.591-3.591-11.3-11.3L34.842,14.08Zm6.45-6.45,3.591-3.591-11.3-11.3L41.292,7.63ZM29.855,30.372Z" transform="translate(31.077 18.155)" fill="#13022d"/>
  </g>
</svg>
