<svg id="e090bd42-a2c3-4b19-8e49-b3629fcbc8af" data-name="Capa 1" xmlns="http://www.w3.org/2000/svg" viewBox="0 0 151.25 121"><defs><style>.bfdeac03-e6c2-4fbc-92fd-52e59220d659{fill:none;}.a4e0aff4-1376-4bdd-a31b-6433db4ead9d{fill:#13022d;}</style></defs><g id="b420c76b-a531-47d5-8b85-f30430a1a8c8" data-name="Grupo 5132"><rect id="e829c12a-2d79-47dc-a3eb-68a3cc8d91c6" data-name="Rectángulo 2732" class="bfdeac03-e6c2-4fbc-92fd-52e59220d659" width="151.25" height="121"/><path id="a6851257-6c3f-41d9-ab5a-f411a78cee69" data-name="satellite alt FILL0 wght400 GRAD0 opsz48" class="a4e0aff4-1376-4bdd-a31b-6433db4ead9d" d="M68.6,85.26V80.34A24.51,24.51,0,0,0,93.21,55.93v-.2h4.92a28.5,28.5,0,0,1-2.34,11.52A29.65,29.65,0,0,1,80.12,82.92,28.54,28.54,0,0,1,68.6,85.26Zm0-9.84V70.49a14.06,14.06,0,0,0,10.21-4.55,14.13,14.13,0,0,0,4.56-10.21h4.92a18.89,18.89,0,0,1-6,13.74,18.91,18.91,0,0,1-13.74,6ZM40.87,83.87a5.51,5.51,0,0,1-1.93-.37,4.58,4.58,0,0,1-1.6-1l-14-14a4.42,4.42,0,0,1-1-1.6A5.1,5.1,0,0,1,22,65a4.85,4.85,0,0,1,.37-1.88,4.64,4.64,0,0,1,1-1.56L35.78,49.16a5.05,5.05,0,0,1,7,0L48,54.41l3-3L45.8,46.12a4.93,4.93,0,0,1,0-6.89L52,33.08a5.05,5.05,0,0,1,7,0l5.25,5.25,3-3L62,30.05a5.08,5.08,0,0,1,0-7L74.34,10.68a4.92,4.92,0,0,1,3.53-1.47,5.57,5.57,0,0,1,1.89.33A4.46,4.46,0,0,1,81.4,10.6L95.34,24.54a4.66,4.66,0,0,1,1.07,1.64,5.33,5.33,0,0,1,.32,1.89A4.74,4.74,0,0,1,96.32,30a5.08,5.08,0,0,1-1.06,1.6L82.87,44a5.25,5.25,0,0,1-3.48,1.89A5.25,5.25,0,0,1,75.9,44l-5.25-5.25-3,3L72.87,47a4.6,4.6,0,0,1,1.35,3.49A4.91,4.91,0,0,1,72.79,54l-6.08,6.07a5.05,5.05,0,0,1-7,0l-5.25-5.25-3,3,5.25,5.25a5.05,5.05,0,0,1,0,7L44.32,82.47a4.93,4.93,0,0,1-1.56,1,5.09,5.09,0,0,1-1.89.37Zm0-4.84,4.43-4.44L31.36,60.65l-4.44,4.43Zm8-8,4.43-4.43L39.32,52.7l-4.44,4.42ZM63.26,56.63l6.08-6.07-14-13.94-6.07,6.06ZM79.43,40.47,83.86,36l-14-13.94-4.43,4.42Zm7.95-8,4.44-4.43L77.87,14.14l-4.43,4.42Z" transform="translate(16.25 13)"/></g></svg>