<svg id="f265e2d6-48dc-4529-9bda-9a0d3d85db7e" data-name="Capa 1" xmlns="http://www.w3.org/2000/svg" viewBox="0 0 151.25 121"><defs><style>.e693a3a8-4d2d-4555-8486-1c8928f669ef{fill:none;}.ebac058f-54a3-41ab-b26b-5276ae3e389f{fill:#13022d;}</style></defs><g id="b2b49b96-7fbd-46a3-b0d2-979b393207bf" data-name="Grupo 5132"><rect id="b41ba0e6-985c-43f7-8f19-03d3536f2c46" data-name="Rectángulo 2732" class="e693a3a8-4d2d-4555-8486-1c8928f669ef" width="151.25" height="121"/><path id="b81eaf99-ad45-46cb-bd48-7616f37ccf21" data-name="local shipping FILL0 wght400 GRAD0 opsz48" class="ebac058f-54a3-41ab-b26b-5276ae3e389f" d="M36,81.93A11.71,11.71,0,0,1,24.31,70.21H17.75V24.39a5.7,5.7,0,0,1,1.79-4.17,5.75,5.75,0,0,1,4.17-1.79H81.25V35H91.68L105.2,53v17.2H98.14a11.73,11.73,0,0,1-20,8.29,11.29,11.29,0,0,1-3.43-8.29H47.76A11.71,11.71,0,0,1,36,81.93Zm0-6A5.77,5.77,0,1,0,32,74.28,5.76,5.76,0,0,0,36,76ZM23.71,64.25h2.18A13.1,13.1,0,0,1,30.16,60,11.19,11.19,0,0,1,41.74,60a13.81,13.81,0,0,1,4.32,4.22H75.28V24.4H23.71ZM86.41,76a5.77,5.77,0,1,0-4.07-1.69A5.57,5.57,0,0,0,86.41,76ZM81.25,55.69H99.73L88.7,41H81.25Z" transform="translate(14.33 11.47)"/></g></svg>