<svg xmlns="http://www.w3.org/2000/svg" width="122.587" height="98.07" viewBox="0 0 122.587 98.07">
  <g id="Grupo_5132" data-name="Grupo 5132" transform="translate(0.433)">
    <rect id="Rectángulo_2732" data-name="Rectángulo 2732" width="122.587" height="98.07" transform="translate(-0.433)" fill="none"/>
    <path id="local_shipping_FILL0_wght400_GRAD0_opsz48_1_" data-name="local_shipping_FILL0_wght400_GRAD0_opsz48 (1)" d="M16.82,59.466a9.16,9.16,0,0,1-6.725-2.779,9.16,9.16,0,0,1-2.779-6.725H2V12.832A4.636,4.636,0,0,1,3.45,9.45,4.636,4.636,0,0,1,6.832,8H53.466V21.45h8.457L72.876,36.028V49.962H67.158a9.511,9.511,0,0,1-16.229,6.725,9.16,9.16,0,0,1-2.779-6.725H26.323a9.16,9.16,0,0,1-2.779,6.725A9.16,9.16,0,0,1,16.82,59.466Zm0-4.832a4.671,4.671,0,1,0-3.3-7.974,4.671,4.671,0,0,0,3.3,7.974Zm-9.987-9.5H8.6a10.671,10.671,0,0,1,3.463-3.463,8.735,8.735,0,0,1,4.671-1.289,8.738,8.738,0,0,1,4.712,1.329,11.222,11.222,0,0,1,3.5,3.423H48.633v-32.3H6.832Zm50.821,9.5a4.675,4.675,0,1,0-3.3-1.369A4.5,4.5,0,0,0,57.654,54.633ZM53.466,38.2H68.446l-8.94-11.92H53.466ZM27.773,29.827Z" transform="translate(23.567 16.232)" fill="#13022d"/>
  </g>
</svg>
