<svg xmlns="http://www.w3.org/2000/svg" width="280.293" height="94.152" viewBox="0 0 280.293 94.152">
  <g id="logo_octopus" data-name="logo octopus" transform="translate(-130.119 -453.893)">
    <g id="Grupo_4693" data-name="Grupo 4693" transform="translate(177.061 532.152)">
      <path id="Trazado_34952" data-name="Trazado 34952" d="M218.831,608.033a7.515,7.515,0,0,1-3.383-1.723l.942-1.069a6.086,6.086,0,0,0,2.729,1.42,3.5,3.5,0,0,0,2.2-.176,1.8,1.8,0,0,0,1.133-1.643c0-1.2-1.277-1.628-2.521-1.868a11.717,11.717,0,0,1-2.617-.8,2.806,2.806,0,0,1-1.468-2.489,2.919,2.919,0,0,1,.526-1.645,3.569,3.569,0,0,1,1.341-1.069,4.511,4.511,0,0,1,2.7-.335,6.507,6.507,0,0,1,3.016,1.436l-.91,1.1a4.02,4.02,0,0,0-4.2-.941,1.641,1.641,0,0,0-1.037,1.436c0,1.085.925,1.5,2.394,1.819a10.626,10.626,0,0,1,2.617.782,2.833,2.833,0,0,1,1.58,2.57,3.064,3.064,0,0,1-.543,1.787,3.721,3.721,0,0,1-1.42,1.133,4.151,4.151,0,0,1-1.931.4A5.588,5.588,0,0,1,218.831,608.033Z" transform="translate(-215.448 -596.337)" fill="#fff"/>
      <path id="Trazado_34953" data-name="Trazado 34953" d="M245.815,607.677a3.84,3.84,0,0,1-3.83,3.83,3.822,3.822,0,1,1,0-7.643,3.813,3.813,0,0,1,3.83,3.814Zm-1.373,0a2.457,2.457,0,1,0-2.457,2.457A2.445,2.445,0,0,0,244.442,607.677Z" transform="translate(-225.663 -599.618)" fill="#fff"/>
      <path id="Trazado_34954" data-name="Trazado 34954" d="M259.9,607.86V596.147h1.373V607.86Z" transform="translate(-235.447 -596.147)" fill="#fff"/>
      <path id="Trazado_34955" data-name="Trazado 34955" d="M271.243,608.334v-4.181h1.372v4.181a2.012,2.012,0,0,0,4.022,0v-4.181h1.372v4.181A3.262,3.262,0,0,1,277,610.68a3.493,3.493,0,0,1-4.771,0A3.245,3.245,0,0,1,271.243,608.334Z" transform="translate(-240.548 -599.749)" fill="#fff"/>
      <path id="Trazado_34956" data-name="Trazado 34956" d="M298.353,609.927a5.583,5.583,0,0,1-.4.463,3.873,3.873,0,0,1-5.41,0,3.854,3.854,0,0,1,0-5.426,3.874,3.874,0,0,1,5.41,0,3.337,3.337,0,0,1,.383.447l-1.1.814a2.46,2.46,0,1,0-1.979,3.925,2.441,2.441,0,0,0,1.979-1.037Z" transform="translate(-249.628 -599.618)" fill="#fff"/>
      <path id="Trazado_34957" data-name="Trazado 34957" d="M312.045,599.622a.9.9,0,0,1,1.8,0,.9.9,0,1,1-1.8,0Zm.224,2.091h1.372v7.309h-1.372Z" transform="translate(-258.904 -597.308)" fill="#fff"/>
      <path id="Trazado_34958" data-name="Trazado 34958" d="M331.015,607.677a3.84,3.84,0,0,1-3.829,3.83,3.822,3.822,0,1,1,0-7.643,3.813,3.813,0,0,1,3.829,3.814Zm-1.372,0a2.457,2.457,0,1,0-2.457,2.457A2.445,2.445,0,0,0,329.642,607.677Z" transform="translate(-263.992 -599.618)" fill="#fff"/>
      <path id="Trazado_34959" data-name="Trazado 34959" d="M352.071,607.419v3.926H350.7v-3.926a2.155,2.155,0,1,0-4.309,0v3.926h-1.373v-7.308h1.373v.7a3.637,3.637,0,0,1,2.154-.846,3.51,3.51,0,0,1,2.505,1.021A3.55,3.55,0,0,1,352.071,607.419Z" transform="translate(-273.737 -599.631)" fill="#fff"/>
      <path id="Trazado_34960" data-name="Trazado 34960" d="M372.361,608.1h-5.633v.031a2.32,2.32,0,0,0,2.122,2.139,2.763,2.763,0,0,0,1.787-.766l1.149.686a4.328,4.328,0,0,1-.973.814,4.175,4.175,0,0,1-1.931.542,3.27,3.27,0,0,1-2.473-1.117,3.763,3.763,0,0,1-.99-2.3,2.369,2.369,0,0,1-.016-.335,3.971,3.971,0,0,1,.1-.862,3.84,3.84,0,0,1,.91-1.771,3.336,3.336,0,0,1,2.473-1.1,3.372,3.372,0,0,1,2.489,1.1,3.7,3.7,0,0,1,.909,1.771A4.37,4.37,0,0,1,372.361,608.1Zm-1.436-1.149-.016-.032a2.212,2.212,0,0,0-2.027-1.58,2.243,2.243,0,0,0-2.027,1.58l-.016.032Z" transform="translate(-282.908 -599.709)" fill="#fff"/>
      <path id="Trazado_34961" data-name="Trazado 34961" d="M390.172,609.215a1.958,1.958,0,0,1-.352,1.149,2.336,2.336,0,0,1-.973.8,3.2,3.2,0,0,1-1.309.271,3.993,3.993,0,0,1-.75-.08A4.813,4.813,0,0,1,384.6,610.3l.862-.942a3.118,3.118,0,0,0,2.011.862,2.113,2.113,0,0,0,.846-.175.912.912,0,0,0,.574-.83c0-.5-.431-.8-1.42-.974a8.54,8.54,0,0,1-1.707-.495,1.887,1.887,0,0,1-1.022-1.708,2.013,2.013,0,0,1,.351-1.117,2.2,2.2,0,0,1,.91-.7,2.967,2.967,0,0,1,1.26-.272c.175,0,.367.017.543.032a4.205,4.205,0,0,1,1.962.878l-.8.925a2.7,2.7,0,0,0-1.644-.638,1.755,1.755,0,0,0-.782.16.875.875,0,0,0-.527.734c0,.479.383.734,1.356.942a10.027,10.027,0,0,1,1.692.495,2,2,0,0,1,.766.622A1.926,1.926,0,0,1,390.172,609.215Z" transform="translate(-291.545 -599.657)" fill="#fff"/>
      <path id="Trazado_34962" data-name="Trazado 34962" d="M415.4,596.784h1.436v11.362H415.4Z" transform="translate(-305.4 -596.434)" fill="#fff"/>
      <path id="Trazado_34963" data-name="Trazado 34963" d="M434.4,607.419v3.926h-1.372v-3.926a2.155,2.155,0,1,0-4.309,0v3.926h-1.372v-7.308h1.372v.7a3.639,3.639,0,0,1,2.154-.846,3.509,3.509,0,0,1,2.505,1.021A3.551,3.551,0,0,1,434.4,607.419Z" transform="translate(-310.775 -599.631)" fill="#fff"/>
      <path id="Trazado_34964" data-name="Trazado 34964" d="M448.3,606.726v-3.575h-1.085v-1.308H448.3v-2.824h1.372v2.824h2.251v1.308h-2.251v3.543a1.165,1.165,0,0,0,1.085,1.149h1.228l.351,1.309h-1.611A2.415,2.415,0,0,1,448.3,606.726Z" transform="translate(-319.711 -597.439)" fill="#fff"/>
      <path id="Trazado_34965" data-name="Trazado 34965" d="M469.627,608.1h-5.633v.031a2.32,2.32,0,0,0,2.122,2.139,2.765,2.765,0,0,0,1.787-.766l1.149.686a4.329,4.329,0,0,1-.973.814,4.174,4.174,0,0,1-1.931.542,3.27,3.27,0,0,1-2.473-1.117,3.766,3.766,0,0,1-.99-2.3,2.343,2.343,0,0,1-.016-.335,4.005,4.005,0,0,1,.1-.862,3.846,3.846,0,0,1,.91-1.771,3.337,3.337,0,0,1,2.473-1.1,3.371,3.371,0,0,1,2.489,1.1,3.7,3.7,0,0,1,.909,1.771A4.346,4.346,0,0,1,469.627,608.1Zm-1.436-1.149-.016-.032a2.212,2.212,0,0,0-2.027-1.58,2.243,2.243,0,0,0-2.027,1.58l-.016.032Z" transform="translate(-326.664 -599.709)" fill="#fff"/>
      <path id="Trazado_34966" data-name="Trazado 34966" d="M490.019,604.023v7.659a3.84,3.84,0,0,1-3.829,3.83,4.017,4.017,0,0,1-2.059-.558,4.379,4.379,0,0,1-.686-.527l1.037-.91a3.175,3.175,0,0,0,1.708.655,2.486,2.486,0,0,0,2.457-2.49v-1.2a3.929,3.929,0,0,1-2.457,1.005,3.814,3.814,0,1,1,0-7.628,3.93,3.93,0,0,1,2.457,1.005v-.845Zm-1.372,3.654a2.458,2.458,0,1,0-2.457,2.473A2.472,2.472,0,0,0,488.647,607.677Z" transform="translate(-335.523 -599.618)" fill="#fff"/>
      <path id="Trazado_34967" data-name="Trazado 34967" d="M506.353,604.773a4.457,4.457,0,0,1,2.665-.909l-.335,1.372a2.267,2.267,0,0,0-2.33,2.2v3.894H504.98v-7.308h1.373Z" transform="translate(-345.699 -599.618)" fill="#fff"/>
      <path id="Trazado_34968" data-name="Trazado 34968" d="M524.694,604.023h1.373v7.308h-1.373v-.846a3.929,3.929,0,0,1-2.457,1.005,3.814,3.814,0,1,1,0-7.628,3.929,3.929,0,0,1,2.457,1.005Zm0,3.654a2.458,2.458,0,1,0-2.457,2.473A2.472,2.472,0,0,0,524.694,607.677Z" transform="translate(-351.739 -599.618)" fill="#fff"/>
      <path id="Trazado_34969" data-name="Trazado 34969" d="M541.23,607.86V596.147H542.6V607.86Z" transform="translate(-362.006 -596.147)" fill="#fff"/>
      <path id="Trazado_34970" data-name="Trazado 34970" d="M558.715,608.1h-5.633v.031a2.32,2.32,0,0,0,2.122,2.139,2.765,2.765,0,0,0,1.787-.766l1.149.686a4.349,4.349,0,0,1-.974.814,4.173,4.173,0,0,1-1.931.542,3.272,3.272,0,0,1-2.474-1.117,3.767,3.767,0,0,1-.989-2.3,2.351,2.351,0,0,1-.016-.335,3.967,3.967,0,0,1,.1-.862,3.846,3.846,0,0,1,.909-1.771,3.347,3.347,0,0,1,4.963,0,3.7,3.7,0,0,1,.91,1.771A4.392,4.392,0,0,1,558.715,608.1Zm-1.436-1.149-.016-.032a2.211,2.211,0,0,0-2.026-1.58,2.244,2.244,0,0,0-2.027,1.58l-.015.032Z" transform="translate(-366.742 -599.709)" fill="#fff"/>
      <path id="Trazado_34971" data-name="Trazado 34971" d="M576.524,609.215a1.956,1.956,0,0,1-.351,1.149,2.334,2.334,0,0,1-.974.8,3.2,3.2,0,0,1-1.308.271,3.99,3.99,0,0,1-.75-.08,4.812,4.812,0,0,1-2.186-1.053l.861-.942a3.119,3.119,0,0,0,2.011.862,2.11,2.11,0,0,0,.845-.175.912.912,0,0,0,.574-.83c0-.5-.431-.8-1.42-.974a8.539,8.539,0,0,1-1.708-.495,1.888,1.888,0,0,1-1.021-1.708,2.014,2.014,0,0,1,.351-1.117,2.2,2.2,0,0,1,.909-.7,2.972,2.972,0,0,1,1.261-.272c.175,0,.367.017.542.032a4.205,4.205,0,0,1,1.963.878l-.8.925a2.7,2.7,0,0,0-1.644-.638,1.754,1.754,0,0,0-.782.16.875.875,0,0,0-.527.734c0,.479.383.734,1.357.942a10.031,10.031,0,0,1,1.692.495,2,2,0,0,1,.766.622A1.924,1.924,0,0,1,576.524,609.215Z" transform="translate(-375.379 -599.657)" fill="#fff"/>
    </g>
    <g id="Grupo_4694" data-name="Grupo 4694" transform="translate(130.119 453.893)">
      <path id="Trazado_34972" data-name="Trazado 34972" d="M381.481,503.917a16.2,16.2,0,1,0,16.3,16.2,16.253,16.253,0,0,0-16.3-16.2m0,26.162a9.967,9.967,0,1,1,9.565-9.959,9.768,9.768,0,0,1-9.565,9.959" transform="translate(-235.865 -476.397)" fill="#fff"/>
      <path id="Trazado_34973" data-name="Trazado 34973" d="M302.08,530.58l-4.539-4.55a9.434,9.434,0,0,1-7.7,4.049,9.967,9.967,0,0,1,0-19.918,9.417,9.417,0,0,1,7.547,3.845l4.585-4.707a16.2,16.2,0,1,0,.28,21.32l-.176-.04" transform="translate(-194.64 -476.397)" fill="#fff"/>
      <path id="Trazado_34974" data-name="Trazado 34974" d="M347.782,504.525V498.39H339.5v-8.414h-7.143v8.414h-3.769v6.135h3.769v17.836s-.044,4.47,3.418,6.048,8.414,1.885,12.008-.219v-5.566s-3.155,1.359-5.434.789-2.849-2.235-2.849-5.215V504.525Z" transform="translate(-219.403 -470.126)" fill="#fff"/>
      <path id="Trazado_34975" data-name="Trazado 34975" d="M448.345,503.916a13.636,13.636,0,0,0-10.922,5.775v-5.183h-6.9v40.361h6.9V530.548a13.635,13.635,0,0,0,10.922,5.775c7.884,0,14.275-7.255,14.275-16.2s-6.391-16.2-14.275-16.2m-1.95,26.163c-4.956,0-8.973-4.459-8.973-9.959s4.017-9.958,8.973-9.958,8.973,4.459,8.973,9.958-4.017,9.959-8.973,9.959" transform="translate(-265.259 -476.397)" fill="#fff"/>
      <path id="Trazado_34976" data-name="Trazado 34976" d="M515.525,531.57a11.27,11.27,0,0,1-9.663,5.412A10.978,10.978,0,0,1,494.885,526V505.43h6.877v18.362a6.925,6.925,0,1,0,13.851,0V505.43h7.1v30.895h-7.187Z" transform="translate(-294.215 -477.078)" fill="#fff"/>
      <path id="Trazado_34977" data-name="Trazado 34977" d="M575.194,524.925c-.526-1.841-1.578-4.931-9.893-7.428a31.913,31.913,0,0,1-4.766-1.939,2.966,2.966,0,0,1-1.627-3.12c.594-2.213,3.365-2.548,3.365-2.548a15.471,15.471,0,0,1,9.635,2.973l2.727-5.127a26.323,26.323,0,0,0-11.865-3.221c-6.377,0-10.32,5.094-10.255,8.611s.69,7.691,8.283,9.532,9.005,3.846,7.888,6.048-3.32,2.07-5.292,2.07-5.39-.887-9.433-3.648l-3.057,4.667s4.7,4.765,14.823,4.47,9.991-9.5,9.466-11.339" transform="translate(-319.416 -476.666)" fill="#fff"/>
      <path id="Trazado_34978" data-name="Trazado 34978" d="M214.726,519.212a33.771,33.771,0,0,1-34.843-6.253,26.13,26.13,0,0,0,7.534-3.607,26.483,26.483,0,0,0,8.246-9.25,25.806,25.806,0,0,0,2.215-5.6,26.315,26.315,0,1,0-48.629,5.608,26.445,26.445,0,0,0,8.123,9.16,26.055,26.055,0,0,0,7.471,3.638,33.79,33.79,0,0,1-34.724,6.379l5.972-5.988a26.472,26.472,0,0,0,6.2.736A26.034,26.034,0,0,0,149.9,512.9a33.837,33.837,0,1,1,45.046.055,26.324,26.324,0,0,0,13.826.285Z" transform="translate(-130.119 -453.893)" fill="#fff"/>
    </g>
    <g id="Grupo_4695" data-name="Grupo 4695" transform="translate(363.498 467.901)">
      <path id="Trazado_34979" data-name="Trazado 34979" d="M582.992,479.7c-8.106-1.5-15.2,2.018-20.53,7.613h1.562c7.666-6.18,18.624-6.676,24.739,1.659,9.976,13.943,2.759,39.6-12.958,46.322-7.688,3.185-14.964,1.158-19.306-5.091l-2.157-1.311a20.824,20.824,0,0,0,11.722,11.382c15.62,5.306,30.059-8.962,33.772-23.225,4.192-14.14-.743-33.766-16.844-37.349" transform="translate(-554.342 -479.356)" fill="#fff"/>
      <path id="Trazado_34980" data-name="Trazado 34980" d="M554.342,569.406,559.349,580l-.307-4.919,6.148-.614Z" transform="translate(-554.342 -519.867)" fill="#fff"/>
    </g>
  </g>
</svg>
